<svg width="319" height="96" viewBox="0 0 319 96" fill="none" xmlns="http://www.w3.org/2000/svg">
<g clip-path="url(#clip0_85_612)">
<rect y="0.57373" width="319" height="95" rx="6" fill="#AD7BFF"/>
<rect x="215.5" y="13.0737" width="94" height="20" rx="7.5" fill="#AD7BFF"/>
<path d="M223.74 26.5737V19.5737H224.72L227.24 24.4537L229.74 19.5737H230.73V26.5737H229.89V21.0737L227.55 25.5737H226.92L224.58 21.0837V26.5737H223.74ZM233.807 26.6937C233.393 26.6937 233.05 26.6237 232.777 26.4837C232.503 26.3437 232.3 26.1571 232.167 25.9237C232.033 25.6904 231.967 25.4371 231.967 25.1637C231.967 24.6571 232.16 24.2671 232.547 23.9937C232.933 23.7204 233.46 23.5837 234.127 23.5837H235.467V23.5237C235.467 23.0904 235.353 22.7637 235.127 22.5437C234.9 22.3171 234.597 22.2037 234.217 22.2037C233.89 22.2037 233.607 22.2871 233.367 22.4537C233.133 22.6137 232.987 22.8504 232.927 23.1637H232.067C232.1 22.8037 232.22 22.5004 232.427 22.2537C232.64 22.0071 232.903 21.8204 233.217 21.6937C233.53 21.5604 233.863 21.4937 234.217 21.4937C234.91 21.4937 235.43 21.6804 235.777 22.0537C236.13 22.4204 236.307 22.9104 236.307 23.5237V26.5737H235.557L235.507 25.6837C235.367 25.9637 235.16 26.2037 234.887 26.4037C234.62 26.5971 234.26 26.6937 233.807 26.6937ZM233.937 25.9837C234.257 25.9837 234.53 25.9004 234.757 25.7337C234.99 25.5671 235.167 25.3504 235.287 25.0837C235.407 24.8171 235.467 24.5371 235.467 24.2437V24.2337H234.197C233.703 24.2337 233.353 24.3204 233.147 24.4937C232.947 24.6604 232.847 24.8704 232.847 25.1237C232.847 25.3837 232.94 25.5937 233.127 25.7537C233.32 25.9071 233.59 25.9837 233.937 25.9837ZM239.847 26.6937C239.374 26.6937 238.947 26.5871 238.567 26.3737C238.194 26.1537 237.897 25.8504 237.677 25.4637C237.464 25.0704 237.357 24.6137 237.357 24.0937C237.357 23.5737 237.464 23.1204 237.677 22.7337C237.897 22.3404 238.194 22.0371 238.567 21.8237C238.947 21.6037 239.374 21.4937 239.847 21.4937C240.434 21.4937 240.927 21.6471 241.327 21.9537C241.734 22.2604 241.99 22.6704 242.097 23.1837H241.237C241.17 22.8771 241.007 22.6404 240.747 22.4737C240.487 22.3004 240.184 22.2137 239.837 22.2137C239.557 22.2137 239.294 22.2837 239.047 22.4237C238.8 22.5637 238.6 22.7737 238.447 23.0537C238.294 23.3337 238.217 23.6804 238.217 24.0937C238.217 24.5071 238.294 24.8537 238.447 25.1337C238.6 25.4137 238.8 25.6271 239.047 25.7737C239.294 25.9137 239.557 25.9837 239.837 25.9837C240.184 25.9837 240.487 25.9004 240.747 25.7337C241.007 25.5604 241.17 25.3171 241.237 25.0037H242.097C241.997 25.5037 241.744 25.9104 241.337 26.2237C240.93 26.5371 240.434 26.6937 239.847 26.6937ZM243.27 26.5737V19.3737H244.11V22.4637C244.277 22.1571 244.513 21.9204 244.82 21.7537C245.127 21.5804 245.46 21.4937 245.82 21.4937C246.393 21.4937 246.853 21.6737 247.2 22.0337C247.547 22.3871 247.72 22.9337 247.72 23.6737V26.5737H246.89V23.7637C246.89 22.7304 246.473 22.2137 245.64 22.2137C245.207 22.2137 244.843 22.3704 244.55 22.6837C244.257 22.9904 244.11 23.4304 244.11 24.0037V26.5737H243.27ZM249.503 20.5137C249.336 20.5137 249.196 20.4604 249.083 20.3537C248.976 20.2404 248.923 20.1004 248.923 19.9337C248.923 19.7737 248.976 19.6404 249.083 19.5337C249.196 19.4271 249.336 19.3737 249.503 19.3737C249.663 19.3737 249.799 19.4271 249.913 19.5337C250.026 19.6404 250.083 19.7737 250.083 19.9337C250.083 20.1004 250.026 20.2404 249.913 20.3537C249.799 20.4604 249.663 20.5137 249.503 20.5137ZM249.083 26.5737V21.6137H249.923V26.5737H249.083ZM251.385 26.5737V21.6137H252.145L252.195 22.5037C252.355 22.1904 252.585 21.9437 252.885 21.7637C253.185 21.5837 253.525 21.4937 253.905 21.4937C254.492 21.4937 254.959 21.6737 255.305 22.0337C255.659 22.3871 255.835 22.9337 255.835 23.6737V26.5737H254.995V23.7637C254.995 22.7304 254.569 22.2137 253.715 22.2137C253.289 22.2137 252.932 22.3704 252.645 22.6837C252.365 22.9904 252.225 23.4304 252.225 24.0037V26.5737H251.385ZM259.338 26.6937C258.865 26.6937 258.445 26.5871 258.078 26.3737C257.711 26.1537 257.421 25.8504 257.208 25.4637C257.001 25.0771 256.898 24.6204 256.898 24.0937C256.898 23.5737 257.001 23.1204 257.208 22.7337C257.415 22.3404 257.701 22.0371 258.068 21.8237C258.441 21.6037 258.871 21.4937 259.358 21.4937C259.838 21.4937 260.251 21.6037 260.598 21.8237C260.951 22.0371 261.221 22.3204 261.408 22.6737C261.595 23.0271 261.688 23.4071 261.688 23.8137C261.688 23.8871 261.685 23.9604 261.678 24.0337C261.678 24.1071 261.678 24.1904 261.678 24.2837H257.728C257.748 24.6637 257.835 24.9804 257.988 25.2337C258.148 25.4804 258.345 25.6671 258.578 25.7937C258.818 25.9204 259.071 25.9837 259.338 25.9837C259.685 25.9837 259.975 25.9037 260.208 25.7437C260.441 25.5837 260.611 25.3671 260.718 25.0937H261.548C261.415 25.5537 261.158 25.9371 260.778 26.2437C260.405 26.5437 259.925 26.6937 259.338 26.6937ZM259.338 22.2037C258.938 22.2037 258.581 22.3271 258.268 22.5737C257.961 22.8137 257.785 23.1671 257.738 23.6337H260.858C260.838 23.1871 260.685 22.8371 260.398 22.5837C260.111 22.3304 259.758 22.2037 259.338 22.2037ZM265.448 26.5737V19.3737H266.288V26.5737H265.448ZM269.895 26.6937C269.421 26.6937 269.001 26.5871 268.635 26.3737C268.268 26.1537 267.978 25.8504 267.765 25.4637C267.558 25.0771 267.455 24.6204 267.455 24.0937C267.455 23.5737 267.558 23.1204 267.765 22.7337C267.971 22.3404 268.258 22.0371 268.625 21.8237C268.998 21.6037 269.428 21.4937 269.915 21.4937C270.395 21.4937 270.808 21.6037 271.155 21.8237C271.508 22.0371 271.778 22.3204 271.965 22.6737C272.151 23.0271 272.245 23.4071 272.245 23.8137C272.245 23.8871 272.241 23.9604 272.235 24.0337C272.235 24.1071 272.235 24.1904 272.235 24.2837H268.285C268.305 24.6637 268.391 24.9804 268.545 25.2337C268.705 25.4804 268.901 25.6671 269.135 25.7937C269.375 25.9204 269.628 25.9837 269.895 25.9837C270.241 25.9837 270.531 25.9037 270.765 25.7437C270.998 25.5837 271.168 25.3671 271.275 25.0937H272.105C271.971 25.5537 271.715 25.9371 271.335 26.2437C270.961 26.5437 270.481 26.6937 269.895 26.6937ZM269.895 22.2037C269.495 22.2037 269.138 22.3271 268.825 22.5737C268.518 22.8137 268.341 23.1671 268.295 23.6337H271.415C271.395 23.1871 271.241 22.8371 270.955 22.5837C270.668 22.3304 270.315 22.2037 269.895 22.2037ZM275.008 26.6937C274.595 26.6937 274.251 26.6237 273.978 26.4837C273.705 26.3437 273.501 26.1571 273.368 25.9237C273.235 25.6904 273.168 25.4371 273.168 25.1637C273.168 24.6571 273.361 24.2671 273.748 23.9937C274.135 23.7204 274.661 23.5837 275.328 23.5837H276.668V23.5237C276.668 23.0904 276.555 22.7637 276.328 22.5437C276.101 22.3171 275.798 22.2037 275.418 22.2037C275.091 22.2037 274.808 22.2871 274.568 22.4537C274.335 22.6137 274.188 22.8504 274.128 23.1637H273.268C273.301 22.8037 273.421 22.5004 273.628 22.2537C273.841 22.0071 274.105 21.8204 274.418 21.6937C274.731 21.5604 275.065 21.4937 275.418 21.4937C276.111 21.4937 276.631 21.6804 276.978 22.0537C277.331 22.4204 277.508 22.9104 277.508 23.5237V26.5737H276.758L276.708 25.6837C276.568 25.9637 276.361 26.2037 276.088 26.4037C275.821 26.5971 275.461 26.6937 275.008 26.6937ZM275.138 25.9837C275.458 25.9837 275.731 25.9004 275.958 25.7337C276.191 25.5671 276.368 25.3504 276.488 25.0837C276.608 24.8171 276.668 24.5371 276.668 24.2437V24.2337H275.398C274.905 24.2337 274.555 24.3204 274.348 24.4937C274.148 24.6604 274.048 24.8704 274.048 25.1237C274.048 25.3837 274.141 25.5937 274.328 25.7537C274.521 25.9071 274.791 25.9837 275.138 25.9837ZM278.768 26.5737V21.6137H279.528L279.598 22.5637C279.751 22.2371 279.985 21.9771 280.298 21.7837C280.611 21.5904 280.998 21.4937 281.458 21.4937V22.3737H281.228C280.935 22.3737 280.665 22.4271 280.418 22.5337C280.171 22.6337 279.975 22.8071 279.828 23.0537C279.681 23.3004 279.608 23.6404 279.608 24.0737V26.5737H278.768ZM282.401 26.5737V21.6137H283.161L283.211 22.5037C283.371 22.1904 283.601 21.9437 283.901 21.7637C284.201 21.5837 284.541 21.4937 284.921 21.4937C285.508 21.4937 285.974 21.6737 286.321 22.0337C286.674 22.3871 286.851 22.9337 286.851 23.6737V26.5737H286.011V23.7637C286.011 22.7304 285.584 22.2137 284.731 22.2137C284.304 22.2137 283.948 22.3704 283.661 22.6837C283.381 22.9904 283.241 23.4304 283.241 24.0037V26.5737H282.401ZM288.634 20.5137C288.467 20.5137 288.327 20.4604 288.214 20.3537C288.107 20.2404 288.054 20.1004 288.054 19.9337C288.054 19.7737 288.107 19.6404 288.214 19.5337C288.327 19.4271 288.467 19.3737 288.634 19.3737C288.794 19.3737 288.93 19.4271 289.044 19.5337C289.157 19.6404 289.214 19.7737 289.214 19.9337C289.214 20.1004 289.157 20.2404 289.044 20.3537C288.93 20.4604 288.794 20.5137 288.634 20.5137ZM288.214 26.5737V21.6137H289.054V26.5737H288.214ZM290.516 26.5737V21.6137H291.276L291.326 22.5037C291.486 22.1904 291.716 21.9437 292.016 21.7637C292.316 21.5837 292.656 21.4937 293.036 21.4937C293.623 21.4937 294.09 21.6737 294.436 22.0337C294.79 22.3871 294.966 22.9337 294.966 23.6737V26.5737H294.126V23.7637C294.126 22.7304 293.7 22.2137 292.846 22.2137C292.42 22.2137 292.063 22.3704 291.776 22.6837C291.496 22.9904 291.356 23.4304 291.356 24.0037V26.5737H290.516ZM298.199 25.0137C297.919 25.0137 297.662 24.9771 297.429 24.9037L296.929 25.3737C297.002 25.4271 297.092 25.4737 297.199 25.5137C297.312 25.5471 297.472 25.5804 297.679 25.6137C297.885 25.6404 298.175 25.6704 298.549 25.7037C299.215 25.7504 299.692 25.9037 299.979 26.1637C300.265 26.4237 300.409 26.7637 300.409 27.1837C300.409 27.4704 300.329 27.7437 300.169 28.0037C300.015 28.2637 299.775 28.4771 299.449 28.6437C299.129 28.8104 298.715 28.8937 298.209 28.8937C297.762 28.8937 297.365 28.8337 297.019 28.7137C296.672 28.6004 296.402 28.4237 296.209 28.1837C296.015 27.9504 295.919 27.6537 295.919 27.2937C295.919 27.1071 295.969 26.9037 296.069 26.6837C296.169 26.4704 296.355 26.2671 296.629 26.0737C296.482 26.0137 296.355 25.9504 296.249 25.8837C296.149 25.8104 296.055 25.7304 295.969 25.6437V25.4137L296.819 24.5737C296.425 24.2404 296.229 23.8004 296.229 23.2537C296.229 22.9271 296.305 22.6304 296.459 22.3637C296.612 22.0971 296.835 21.8871 297.129 21.7337C297.422 21.5737 297.779 21.4937 298.199 21.4937C298.485 21.4937 298.745 21.5337 298.979 21.6137H300.809V22.2437L299.879 22.2837C300.072 22.5637 300.169 22.8871 300.169 23.2537C300.169 23.5804 300.089 23.8771 299.929 24.1437C299.775 24.4104 299.552 24.6237 299.259 24.7837C298.972 24.9371 298.619 25.0137 298.199 25.0137ZM298.199 24.3237C298.552 24.3237 298.832 24.2337 299.039 24.0537C299.252 23.8671 299.359 23.6004 299.359 23.2537C299.359 22.9137 299.252 22.6537 299.039 22.4737C298.832 22.2871 298.552 22.1937 298.199 22.1937C297.839 22.1937 297.552 22.2871 297.339 22.4737C297.132 22.6537 297.029 22.9137 297.029 23.2537C297.029 23.6004 297.132 23.8671 297.339 24.0537C297.552 24.2337 297.839 24.3237 298.199 24.3237ZM296.739 27.2137C296.739 27.5471 296.879 27.7937 297.159 27.9537C297.439 28.1204 297.789 28.2037 298.209 28.2037C298.622 28.2037 298.952 28.1137 299.199 27.9337C299.452 27.7537 299.579 27.5137 299.579 27.2137C299.579 27.0004 299.492 26.8137 299.319 26.6537C299.145 26.5004 298.825 26.4104 298.359 26.3837C297.992 26.3571 297.675 26.3237 297.409 26.2837C297.135 26.4304 296.955 26.5871 296.869 26.7537C296.782 26.9271 296.739 27.0804 296.739 27.2137Z" fill="#08081A"/>
<rect x="215.5" y="13.0737" width="94" height="20" rx="7.5" stroke="#1C1C46"/>
<rect x="25.5" y="27.0737" width="61" height="78" rx="2.5" stroke="#E5E7F3" stroke-dasharray="6 6"/>
<rect x="112.5" y="-4.92627" width="53" height="63" rx="2.5" stroke="#E5E7F3" stroke-dasharray="6 6"/>
<rect x="112.5" y="-4.92627" width="53" height="63" rx="2.5" stroke="#E5E7F3" stroke-dasharray="6 6"/>
<rect x="184.5" y="53.0737" width="34" height="48" rx="2.5" stroke="#E5E7F3" stroke-dasharray="6 6"/>
<path d="M86.5 66.0737H99V31.5737H112" stroke="#E5E7F3" stroke-linecap="round" stroke-linejoin="round"/>
<path d="M165.5 20.5737H173V76.5737H183" stroke="#E5E7F3" stroke-linecap="round" stroke-linejoin="round"/>
<rect x="41.5" y="39.0737" width="36" height="7" rx="3.5" fill="#A965EE" stroke="#E5E7F3"/>
<rect x="34.5" y="58.0737" width="36" height="7" rx="3.5" fill="#A965EE" stroke="#E5E7F3"/>
<rect x="119.5" y="19.0737" width="26" height="7" rx="3.5" fill="#A965EE" stroke="#E5E7F3"/>
<rect x="188.5" y="59.0737" width="26" height="7" rx="3.5" fill="#A965EE" stroke="#E5E7F3"/>
<rect x="41.5" y="82.0737" width="36" height="7" rx="3.5" fill="#A965EE" stroke="#E5E7F3"/>
<rect x="124.5" y="35.0737" width="36" height="7" rx="3.5" fill="#A965EE" stroke="#E5E7F3"/>
</g>
<defs>
<clipPath id="clip0_85_612">
<rect y="0.57373" width="319" height="95" rx="6" fill="white"/>
</clipPath>
</defs>
</svg>
