<svg width="374" height="218" viewBox="0 0 374 218" fill="none" xmlns="http://www.w3.org/2000/svg">
<g filter="url(#filter0_d_998_1530)">
<rect x="17" y="13.5737" width="340" height="183" rx="8" fill="#303067" shape-rendering="crispEdges"/>
<rect x="17.5" y="14.0737" width="339" height="182" rx="7.5" stroke="#5552FF" shape-rendering="crispEdges"/>
<g clip-path="url(#clip0_998_1530)">
<rect x="27" y="33.5737" width="319" height="95" rx="6" fill="#1C1C46"/>
<rect x="242.5" y="46.0737" width="94" height="20" rx="7.5" stroke="#AD7BFF"/>
<path d="M250.74 59.5737V52.5737H251.72L254.24 57.4537L256.74 52.5737H257.73V59.5737H256.89V54.0737L254.55 58.5737H253.92L251.58 54.0837V59.5737H250.74ZM260.807 59.6937C260.393 59.6937 260.05 59.6237 259.777 59.4837C259.503 59.3437 259.3 59.1571 259.167 58.9237C259.033 58.6904 258.967 58.4371 258.967 58.1637C258.967 57.6571 259.16 57.2671 259.547 56.9937C259.933 56.7204 260.46 56.5837 261.127 56.5837H262.467V56.5237C262.467 56.0904 262.353 55.7637 262.127 55.5437C261.9 55.3171 261.597 55.2037 261.217 55.2037C260.89 55.2037 260.607 55.2871 260.367 55.4537C260.133 55.6137 259.987 55.8504 259.927 56.1637H259.067C259.1 55.8037 259.22 55.5004 259.427 55.2537C259.64 55.0071 259.903 54.8204 260.217 54.6937C260.53 54.5604 260.863 54.4937 261.217 54.4937C261.91 54.4937 262.43 54.6804 262.777 55.0537C263.13 55.4204 263.307 55.9104 263.307 56.5237V59.5737H262.557L262.507 58.6837C262.367 58.9637 262.16 59.2037 261.887 59.4037C261.62 59.5971 261.26 59.6937 260.807 59.6937ZM260.937 58.9837C261.257 58.9837 261.53 58.9004 261.757 58.7337C261.99 58.5671 262.167 58.3504 262.287 58.0837C262.407 57.8171 262.467 57.5371 262.467 57.2437V57.2337H261.197C260.703 57.2337 260.353 57.3204 260.147 57.4937C259.947 57.6604 259.847 57.8704 259.847 58.1237C259.847 58.3837 259.94 58.5937 260.127 58.7537C260.32 58.9071 260.59 58.9837 260.937 58.9837ZM266.847 59.6937C266.374 59.6937 265.947 59.5871 265.567 59.3737C265.194 59.1537 264.897 58.8504 264.677 58.4637C264.464 58.0704 264.357 57.6137 264.357 57.0937C264.357 56.5737 264.464 56.1204 264.677 55.7337C264.897 55.3404 265.194 55.0371 265.567 54.8237C265.947 54.6037 266.374 54.4937 266.847 54.4937C267.434 54.4937 267.927 54.6471 268.327 54.9537C268.734 55.2604 268.99 55.6704 269.097 56.1837H268.237C268.17 55.8771 268.007 55.6404 267.747 55.4737C267.487 55.3004 267.184 55.2137 266.837 55.2137C266.557 55.2137 266.294 55.2837 266.047 55.4237C265.8 55.5637 265.6 55.7737 265.447 56.0537C265.294 56.3337 265.217 56.6804 265.217 57.0937C265.217 57.5071 265.294 57.8537 265.447 58.1337C265.6 58.4137 265.8 58.6271 266.047 58.7737C266.294 58.9137 266.557 58.9837 266.837 58.9837C267.184 58.9837 267.487 58.9004 267.747 58.7337C268.007 58.5604 268.17 58.3171 268.237 58.0037H269.097C268.997 58.5037 268.744 58.9104 268.337 59.2237C267.93 59.5371 267.434 59.6937 266.847 59.6937ZM270.27 59.5737V52.3737H271.11V55.4637C271.277 55.1571 271.513 54.9204 271.82 54.7537C272.127 54.5804 272.46 54.4937 272.82 54.4937C273.393 54.4937 273.853 54.6737 274.2 55.0337C274.547 55.3871 274.72 55.9337 274.72 56.6737V59.5737H273.89V56.7637C273.89 55.7304 273.473 55.2137 272.64 55.2137C272.207 55.2137 271.843 55.3704 271.55 55.6837C271.257 55.9904 271.11 56.4304 271.11 57.0037V59.5737H270.27ZM276.503 53.5137C276.336 53.5137 276.196 53.4604 276.083 53.3537C275.976 53.2404 275.923 53.1004 275.923 52.9337C275.923 52.7737 275.976 52.6404 276.083 52.5337C276.196 52.4271 276.336 52.3737 276.503 52.3737C276.663 52.3737 276.799 52.4271 276.913 52.5337C277.026 52.6404 277.083 52.7737 277.083 52.9337C277.083 53.1004 277.026 53.2404 276.913 53.3537C276.799 53.4604 276.663 53.5137 276.503 53.5137ZM276.083 59.5737V54.6137H276.923V59.5737H276.083ZM278.385 59.5737V54.6137H279.145L279.195 55.5037C279.355 55.1904 279.585 54.9437 279.885 54.7637C280.185 54.5837 280.525 54.4937 280.905 54.4937C281.492 54.4937 281.959 54.6737 282.305 55.0337C282.659 55.3871 282.835 55.9337 282.835 56.6737V59.5737H281.995V56.7637C281.995 55.7304 281.569 55.2137 280.715 55.2137C280.289 55.2137 279.932 55.3704 279.645 55.6837C279.365 55.9904 279.225 56.4304 279.225 57.0037V59.5737H278.385ZM286.338 59.6937C285.865 59.6937 285.445 59.5871 285.078 59.3737C284.711 59.1537 284.421 58.8504 284.208 58.4637C284.001 58.0771 283.898 57.6204 283.898 57.0937C283.898 56.5737 284.001 56.1204 284.208 55.7337C284.415 55.3404 284.701 55.0371 285.068 54.8237C285.441 54.6037 285.871 54.4937 286.358 54.4937C286.838 54.4937 287.251 54.6037 287.598 54.8237C287.951 55.0371 288.221 55.3204 288.408 55.6737C288.595 56.0271 288.688 56.4071 288.688 56.8137C288.688 56.8871 288.685 56.9604 288.678 57.0337C288.678 57.1071 288.678 57.1904 288.678 57.2837H284.728C284.748 57.6637 284.835 57.9804 284.988 58.2337C285.148 58.4804 285.345 58.6671 285.578 58.7937C285.818 58.9204 286.071 58.9837 286.338 58.9837C286.685 58.9837 286.975 58.9037 287.208 58.7437C287.441 58.5837 287.611 58.3671 287.718 58.0937H288.548C288.415 58.5537 288.158 58.9371 287.778 59.2437C287.405 59.5437 286.925 59.6937 286.338 59.6937ZM286.338 55.2037C285.938 55.2037 285.581 55.3271 285.268 55.5737C284.961 55.8137 284.785 56.1671 284.738 56.6337H287.858C287.838 56.1871 287.685 55.8371 287.398 55.5837C287.111 55.3304 286.758 55.2037 286.338 55.2037ZM292.448 59.5737V52.3737H293.288V59.5737H292.448ZM296.895 59.6937C296.421 59.6937 296.001 59.5871 295.635 59.3737C295.268 59.1537 294.978 58.8504 294.765 58.4637C294.558 58.0771 294.455 57.6204 294.455 57.0937C294.455 56.5737 294.558 56.1204 294.765 55.7337C294.971 55.3404 295.258 55.0371 295.625 54.8237C295.998 54.6037 296.428 54.4937 296.915 54.4937C297.395 54.4937 297.808 54.6037 298.155 54.8237C298.508 55.0371 298.778 55.3204 298.965 55.6737C299.151 56.0271 299.245 56.4071 299.245 56.8137C299.245 56.8871 299.241 56.9604 299.235 57.0337C299.235 57.1071 299.235 57.1904 299.235 57.2837H295.285C295.305 57.6637 295.391 57.9804 295.545 58.2337C295.705 58.4804 295.901 58.6671 296.135 58.7937C296.375 58.9204 296.628 58.9837 296.895 58.9837C297.241 58.9837 297.531 58.9037 297.765 58.7437C297.998 58.5837 298.168 58.3671 298.275 58.0937H299.105C298.971 58.5537 298.715 58.9371 298.335 59.2437C297.961 59.5437 297.481 59.6937 296.895 59.6937ZM296.895 55.2037C296.495 55.2037 296.138 55.3271 295.825 55.5737C295.518 55.8137 295.341 56.1671 295.295 56.6337H298.415C298.395 56.1871 298.241 55.8371 297.955 55.5837C297.668 55.3304 297.315 55.2037 296.895 55.2037ZM302.008 59.6937C301.595 59.6937 301.251 59.6237 300.978 59.4837C300.705 59.3437 300.501 59.1571 300.368 58.9237C300.235 58.6904 300.168 58.4371 300.168 58.1637C300.168 57.6571 300.361 57.2671 300.748 56.9937C301.135 56.7204 301.661 56.5837 302.328 56.5837H303.668V56.5237C303.668 56.0904 303.555 55.7637 303.328 55.5437C303.101 55.3171 302.798 55.2037 302.418 55.2037C302.091 55.2037 301.808 55.2871 301.568 55.4537C301.335 55.6137 301.188 55.8504 301.128 56.1637H300.268C300.301 55.8037 300.421 55.5004 300.628 55.2537C300.841 55.0071 301.105 54.8204 301.418 54.6937C301.731 54.5604 302.065 54.4937 302.418 54.4937C303.111 54.4937 303.631 54.6804 303.978 55.0537C304.331 55.4204 304.508 55.9104 304.508 56.5237V59.5737H303.758L303.708 58.6837C303.568 58.9637 303.361 59.2037 303.088 59.4037C302.821 59.5971 302.461 59.6937 302.008 59.6937ZM302.138 58.9837C302.458 58.9837 302.731 58.9004 302.958 58.7337C303.191 58.5671 303.368 58.3504 303.488 58.0837C303.608 57.8171 303.668 57.5371 303.668 57.2437V57.2337H302.398C301.905 57.2337 301.555 57.3204 301.348 57.4937C301.148 57.6604 301.048 57.8704 301.048 58.1237C301.048 58.3837 301.141 58.5937 301.328 58.7537C301.521 58.9071 301.791 58.9837 302.138 58.9837ZM305.768 59.5737V54.6137H306.528L306.598 55.5637C306.751 55.2371 306.985 54.9771 307.298 54.7837C307.611 54.5904 307.998 54.4937 308.458 54.4937V55.3737H308.228C307.935 55.3737 307.665 55.4271 307.418 55.5337C307.171 55.6337 306.975 55.8071 306.828 56.0537C306.681 56.3004 306.608 56.6404 306.608 57.0737V59.5737H305.768ZM309.401 59.5737V54.6137H310.161L310.211 55.5037C310.371 55.1904 310.601 54.9437 310.901 54.7637C311.201 54.5837 311.541 54.4937 311.921 54.4937C312.508 54.4937 312.974 54.6737 313.321 55.0337C313.674 55.3871 313.851 55.9337 313.851 56.6737V59.5737H313.011V56.7637C313.011 55.7304 312.584 55.2137 311.731 55.2137C311.304 55.2137 310.948 55.3704 310.661 55.6837C310.381 55.9904 310.241 56.4304 310.241 57.0037V59.5737H309.401ZM315.634 53.5137C315.467 53.5137 315.327 53.4604 315.214 53.3537C315.107 53.2404 315.054 53.1004 315.054 52.9337C315.054 52.7737 315.107 52.6404 315.214 52.5337C315.327 52.4271 315.467 52.3737 315.634 52.3737C315.794 52.3737 315.93 52.4271 316.044 52.5337C316.157 52.6404 316.214 52.7737 316.214 52.9337C316.214 53.1004 316.157 53.2404 316.044 53.3537C315.93 53.4604 315.794 53.5137 315.634 53.5137ZM315.214 59.5737V54.6137H316.054V59.5737H315.214ZM317.516 59.5737V54.6137H318.276L318.326 55.5037C318.486 55.1904 318.716 54.9437 319.016 54.7637C319.316 54.5837 319.656 54.4937 320.036 54.4937C320.623 54.4937 321.09 54.6737 321.436 55.0337C321.79 55.3871 321.966 55.9337 321.966 56.6737V59.5737H321.126V56.7637C321.126 55.7304 320.7 55.2137 319.846 55.2137C319.42 55.2137 319.063 55.3704 318.776 55.6837C318.496 55.9904 318.356 56.4304 318.356 57.0037V59.5737H317.516ZM325.199 58.0137C324.919 58.0137 324.662 57.9771 324.429 57.9037L323.929 58.3737C324.002 58.4271 324.092 58.4737 324.199 58.5137C324.312 58.5471 324.472 58.5804 324.679 58.6137C324.885 58.6404 325.175 58.6704 325.549 58.7037C326.215 58.7504 326.692 58.9037 326.979 59.1637C327.265 59.4237 327.409 59.7637 327.409 60.1837C327.409 60.4704 327.329 60.7437 327.169 61.0037C327.015 61.2637 326.775 61.4771 326.449 61.6437C326.129 61.8104 325.715 61.8937 325.209 61.8937C324.762 61.8937 324.365 61.8337 324.019 61.7137C323.672 61.6004 323.402 61.4237 323.209 61.1837C323.015 60.9504 322.919 60.6537 322.919 60.2937C322.919 60.1071 322.969 59.9037 323.069 59.6837C323.169 59.4704 323.355 59.2671 323.629 59.0737C323.482 59.0137 323.355 58.9504 323.249 58.8837C323.149 58.8104 323.055 58.7304 322.969 58.6437V58.4137L323.819 57.5737C323.425 57.2404 323.229 56.8004 323.229 56.2537C323.229 55.9271 323.305 55.6304 323.459 55.3637C323.612 55.0971 323.835 54.8871 324.129 54.7337C324.422 54.5737 324.779 54.4937 325.199 54.4937C325.485 54.4937 325.745 54.5337 325.979 54.6137H327.809V55.2437L326.879 55.2837C327.072 55.5637 327.169 55.8871 327.169 56.2537C327.169 56.5804 327.089 56.8771 326.929 57.1437C326.775 57.4104 326.552 57.6237 326.259 57.7837C325.972 57.9371 325.619 58.0137 325.199 58.0137ZM325.199 57.3237C325.552 57.3237 325.832 57.2337 326.039 57.0537C326.252 56.8671 326.359 56.6004 326.359 56.2537C326.359 55.9137 326.252 55.6537 326.039 55.4737C325.832 55.2871 325.552 55.1937 325.199 55.1937C324.839 55.1937 324.552 55.2871 324.339 55.4737C324.132 55.6537 324.029 55.9137 324.029 56.2537C324.029 56.6004 324.132 56.8671 324.339 57.0537C324.552 57.2337 324.839 57.3237 325.199 57.3237ZM323.739 60.2137C323.739 60.5471 323.879 60.7937 324.159 60.9537C324.439 61.1204 324.789 61.2037 325.209 61.2037C325.622 61.2037 325.952 61.1137 326.199 60.9337C326.452 60.7537 326.579 60.5137 326.579 60.2137C326.579 60.0004 326.492 59.8137 326.319 59.6537C326.145 59.5004 325.825 59.4104 325.359 59.3837C324.992 59.3571 324.675 59.3237 324.409 59.2837C324.135 59.4304 323.955 59.5871 323.869 59.7537C323.782 59.9271 323.739 60.0804 323.739 60.2137Z" fill="white"/>
<rect x="52.5" y="60.0737" width="61" height="78" rx="2.5" stroke="#AD7BFF" stroke-dasharray="6 6"/>
<rect x="139.5" y="28.0737" width="53" height="63" rx="2.5" stroke="#AD7BFF" stroke-dasharray="6 6"/>
<rect x="139.5" y="28.0737" width="53" height="63" rx="2.5" stroke="#AD7BFF" stroke-dasharray="6 6"/>
<rect x="211.5" y="86.0737" width="34" height="48" rx="2.5" stroke="#AD7BFF" stroke-dasharray="6 6"/>
<path d="M113.5 99.0737H126V64.5737H139" stroke="#AD7BFF" stroke-linecap="round" stroke-linejoin="round"/>
<path d="M192.5 53.5737H200V109.574H210" stroke="#AD7BFF" stroke-linecap="round" stroke-linejoin="round"/>
<rect x="68.5" y="72.0737" width="36" height="7" rx="3.5" fill="#A965EE" stroke="white"/>
<rect x="61.5" y="91.0737" width="36" height="7" rx="3.5" fill="#A965EE" stroke="white"/>
<rect x="146.5" y="52.0737" width="26" height="7" rx="3.5" fill="#A965EE" stroke="white"/>
<rect x="215.5" y="92.0737" width="26" height="7" rx="3.5" fill="#A965EE" stroke="white"/>
<rect x="68.5" y="115.074" width="36" height="7" rx="3.5" fill="#A965EE" stroke="white"/>
<rect x="151.5" y="68.0737" width="36" height="7" rx="3.5" fill="#A965EE" stroke="white"/>
</g>
<path d="M28.184 154.574V143.374H32.12C32.9093 143.374 33.56 143.502 34.072 143.758C34.5947 144.003 34.984 144.344 35.24 144.782C35.496 145.208 35.624 145.688 35.624 146.222C35.624 146.947 35.4267 147.518 35.032 147.934C34.648 148.35 34.184 148.638 33.64 148.798C34.056 148.872 34.4347 149.038 34.776 149.294C35.1173 149.55 35.384 149.87 35.576 150.254C35.7787 150.638 35.88 151.059 35.88 151.518C35.88 152.083 35.7413 152.6 35.464 153.07C35.1867 153.528 34.776 153.896 34.232 154.174C33.688 154.44 33.0267 154.574 32.248 154.574H28.184ZM29.528 148.27H32.024C32.7387 148.27 33.288 148.104 33.672 147.774C34.056 147.432 34.248 146.963 34.248 146.366C34.248 145.8 34.056 145.347 33.672 145.006C33.2987 144.664 32.7333 144.494 31.976 144.494H29.528V148.27ZM29.528 153.454H32.104C32.872 153.454 33.464 153.278 33.88 152.926C34.296 152.563 34.504 152.062 34.504 151.422C34.504 150.792 34.2853 150.291 33.848 149.918C33.4107 149.534 32.8187 149.342 32.072 149.342H29.528V153.454ZM40.625 154.766C39.6863 154.766 38.9397 154.483 38.385 153.918C37.8303 153.342 37.553 152.462 37.553 151.278V146.638H38.897V151.134C38.897 152.787 39.5743 153.614 40.929 153.614C41.6223 153.614 42.193 153.368 42.641 152.878C43.0997 152.376 43.329 151.667 43.329 150.75V146.638H44.673V154.574H43.457L43.361 153.15C43.1157 153.651 42.7477 154.046 42.257 154.334C41.777 154.622 41.233 154.766 40.625 154.766ZM47.7013 144.878C47.4346 144.878 47.2106 144.792 47.0293 144.622C46.8586 144.44 46.7733 144.216 46.7733 143.95C46.7733 143.694 46.8586 143.48 47.0293 143.31C47.2106 143.139 47.4346 143.054 47.7013 143.054C47.9573 143.054 48.1759 143.139 48.3573 143.31C48.5386 143.48 48.6293 143.694 48.6293 143.95C48.6293 144.216 48.5386 144.44 48.3573 144.622C48.1759 144.792 47.9573 144.878 47.7013 144.878ZM47.0293 154.574V146.638H48.3733V154.574H47.0293ZM50.7134 154.574V143.054H52.0574V154.574H50.7134ZM57.8602 154.766C57.0709 154.766 56.3776 154.584 55.7803 154.222C55.1936 153.859 54.7349 153.363 54.4043 152.734C54.0843 152.104 53.9243 151.39 53.9243 150.59C53.9243 149.79 54.0896 149.08 54.4203 148.462C54.7509 147.832 55.2096 147.342 55.7963 146.99C56.3829 146.627 57.0763 146.446 57.8763 146.446C58.5269 146.446 59.1029 146.579 59.6043 146.846C60.1056 147.112 60.4949 147.486 60.7723 147.966V143.054H62.1163V154.574H60.9003L60.7723 153.262C60.5163 153.646 60.1483 153.992 59.6683 154.302C59.1883 154.611 58.5856 154.766 57.8602 154.766ZM58.0043 153.598C58.5376 153.598 59.0069 153.475 59.4123 153.23C59.8283 152.974 60.1483 152.622 60.3723 152.174C60.6069 151.726 60.7243 151.203 60.7243 150.606C60.7243 150.008 60.6069 149.486 60.3723 149.038C60.1483 148.59 59.8283 148.243 59.4123 147.998C59.0069 147.742 58.5376 147.614 58.0043 147.614C57.4816 147.614 57.0123 147.742 56.5963 147.998C56.1909 148.243 55.8709 148.59 55.6363 149.038C55.4123 149.486 55.3003 150.008 55.3003 150.606C55.3003 151.203 55.4123 151.726 55.6363 152.174C55.8709 152.622 56.1909 152.974 56.5963 153.23C57.0123 153.475 57.4816 153.598 58.0043 153.598ZM65.1231 144.878C64.8565 144.878 64.6325 144.792 64.4511 144.622C64.2805 144.44 64.1951 144.216 64.1951 143.95C64.1951 143.694 64.2805 143.48 64.4511 143.31C64.6325 143.139 64.8565 143.054 65.1231 143.054C65.3791 143.054 65.5978 143.139 65.7791 143.31C65.9605 143.48 66.0511 143.694 66.0511 143.95C66.0511 144.216 65.9605 144.44 65.7791 144.622C65.5978 144.792 65.3791 144.878 65.1231 144.878ZM64.4511 154.574V146.638H65.7951V154.574H64.4511ZM68.1353 154.574V146.638H69.3513L69.4313 148.062C69.6873 147.56 70.0553 147.166 70.5353 146.878C71.0153 146.59 71.5593 146.446 72.1673 146.446C73.1059 146.446 73.8526 146.734 74.4073 147.31C74.9726 147.875 75.2552 148.75 75.2552 149.934V154.574H73.9113V150.078C73.9113 148.424 73.2286 147.598 71.8633 147.598C71.1806 147.598 70.6099 147.848 70.1513 148.35C69.7033 148.84 69.4793 149.544 69.4793 150.462V154.574H68.1353ZM80.4275 152.078C79.9795 152.078 79.5688 152.019 79.1955 151.902L78.3955 152.654C78.5128 152.739 78.6568 152.814 78.8275 152.878C79.0088 152.931 79.2648 152.984 79.5955 153.038C79.9262 153.08 80.3902 153.128 80.9875 153.182C82.0542 153.256 82.8168 153.502 83.2755 153.918C83.7342 154.334 83.9635 154.878 83.9635 155.55C83.9635 156.008 83.8355 156.446 83.5795 156.862C83.3342 157.278 82.9502 157.619 82.4275 157.886C81.9155 158.152 81.2542 158.286 80.4435 158.286C79.7288 158.286 79.0942 158.19 78.5395 157.998C77.9848 157.816 77.5528 157.534 77.2435 157.15C76.9342 156.776 76.7795 156.302 76.7795 155.726C76.7795 155.427 76.8595 155.102 77.0195 154.75C77.1795 154.408 77.4782 154.083 77.9155 153.774C77.6808 153.678 77.4782 153.576 77.3075 153.47C77.1475 153.352 76.9982 153.224 76.8595 153.086V152.718L78.2195 151.374C77.5902 150.84 77.2755 150.136 77.2755 149.262C77.2755 148.739 77.3982 148.264 77.6435 147.838C77.8888 147.411 78.2462 147.075 78.7155 146.83C79.1848 146.574 79.7555 146.446 80.4275 146.446C80.8862 146.446 81.3022 146.51 81.6755 146.638H84.6035V147.646L83.1155 147.71C83.4248 148.158 83.5795 148.675 83.5795 149.262C83.5795 149.784 83.4515 150.259 83.1955 150.686C82.9502 151.112 82.5928 151.454 82.1235 151.71C81.6648 151.955 81.0995 152.078 80.4275 152.078ZM80.4275 150.974C80.9928 150.974 81.4408 150.83 81.7715 150.542C82.1128 150.243 82.2835 149.816 82.2835 149.262C82.2835 148.718 82.1128 148.302 81.7715 148.014C81.4408 147.715 80.9928 147.566 80.4275 147.566C79.8515 147.566 79.3928 147.715 79.0515 148.014C78.7208 148.302 78.5555 148.718 78.5555 149.262C78.5555 149.816 78.7208 150.243 79.0515 150.542C79.3928 150.83 79.8515 150.974 80.4275 150.974ZM78.0915 155.598C78.0915 156.131 78.3155 156.526 78.7635 156.782C79.2115 157.048 79.7715 157.182 80.4435 157.182C81.1048 157.182 81.6328 157.038 82.0275 156.75C82.4328 156.462 82.6355 156.078 82.6355 155.598C82.6355 155.256 82.4968 154.958 82.2195 154.702C81.9422 154.456 81.4302 154.312 80.6835 154.27C80.0968 154.227 79.5902 154.174 79.1635 154.11C78.7262 154.344 78.4382 154.595 78.2995 154.862C78.1608 155.139 78.0915 155.384 78.0915 155.598ZM94.002 154.766C93.1807 154.766 92.466 154.616 91.858 154.318C91.25 154.019 90.7807 153.603 90.45 153.07C90.1193 152.536 89.954 151.918 89.954 151.214H91.362C91.362 151.651 91.4633 152.056 91.666 152.43C91.8687 152.792 92.162 153.086 92.546 153.31C92.9407 153.523 93.426 153.63 94.002 153.63C94.7593 153.63 95.346 153.448 95.762 153.086C96.178 152.723 96.386 152.27 96.386 151.726C96.386 151.278 96.29 150.92 96.098 150.654C95.906 150.376 95.6447 150.152 95.314 149.982C94.994 149.811 94.6207 149.662 94.194 149.534C93.778 149.406 93.3407 149.262 92.882 149.102C92.018 148.803 91.378 148.435 90.962 147.998C90.546 147.55 90.338 146.968 90.338 146.254C90.3273 145.656 90.466 145.128 90.754 144.67C91.042 144.2 91.4473 143.838 91.97 143.582C92.5033 143.315 93.1327 143.182 93.858 143.182C94.5727 143.182 95.1913 143.315 95.714 143.582C96.2473 143.848 96.658 144.216 96.946 144.686C97.2447 145.155 97.3993 145.688 97.41 146.286H96.002C96.002 145.976 95.922 145.672 95.762 145.374C95.602 145.064 95.3567 144.814 95.026 144.622C94.706 144.43 94.3007 144.334 93.81 144.334C93.202 144.323 92.7007 144.478 92.306 144.798C91.922 145.118 91.73 145.56 91.73 146.126C91.73 146.606 91.8633 146.974 92.13 147.23C92.4073 147.486 92.7913 147.699 93.282 147.87C93.7727 148.03 94.338 148.216 94.978 148.43C95.5113 148.622 95.9913 148.846 96.418 149.102C96.8447 149.358 97.1753 149.688 97.41 150.094C97.6553 150.499 97.778 151.016 97.778 151.646C97.778 152.179 97.6393 152.686 97.362 153.166C97.0847 153.635 96.6633 154.019 96.098 154.318C95.5433 154.616 94.8447 154.766 94.002 154.766ZM103.252 154.766C102.495 154.766 101.812 154.595 101.204 154.254C100.607 153.902 100.132 153.416 99.78 152.798C99.4387 152.168 99.268 151.438 99.268 150.606C99.268 149.774 99.4387 149.048 99.78 148.43C100.132 147.8 100.607 147.315 101.204 146.974C101.812 146.622 102.495 146.446 103.252 146.446C104.191 146.446 104.98 146.691 105.62 147.182C106.271 147.672 106.681 148.328 106.852 149.15H105.476C105.369 148.659 105.108 148.28 104.692 148.014C104.276 147.736 103.791 147.598 103.236 147.598C102.788 147.598 102.367 147.71 101.972 147.934C101.577 148.158 101.257 148.494 101.012 148.942C100.767 149.39 100.644 149.944 100.644 150.606C100.644 151.267 100.767 151.822 101.012 152.27C101.257 152.718 101.577 153.059 101.972 153.294C102.367 153.518 102.788 153.63 103.236 153.63C103.791 153.63 104.276 153.496 104.692 153.23C105.108 152.952 105.369 152.563 105.476 152.062H106.852C106.692 152.862 106.287 153.512 105.636 154.014C104.985 154.515 104.191 154.766 103.252 154.766ZM111.369 154.766C110.708 154.766 110.158 154.654 109.721 154.43C109.284 154.206 108.958 153.907 108.745 153.534C108.532 153.16 108.425 152.755 108.425 152.318C108.425 151.507 108.734 150.883 109.353 150.446C109.972 150.008 110.814 149.79 111.881 149.79H114.025V149.694C114.025 149 113.844 148.478 113.481 148.126C113.118 147.763 112.633 147.582 112.025 147.582C111.502 147.582 111.049 147.715 110.665 147.982C110.292 148.238 110.057 148.616 109.961 149.118H108.585C108.638 148.542 108.83 148.056 109.161 147.662C109.502 147.267 109.924 146.968 110.425 146.766C110.926 146.552 111.46 146.446 112.025 146.446C113.134 146.446 113.966 146.744 114.521 147.342C115.086 147.928 115.369 148.712 115.369 149.694V154.574H114.169L114.089 153.15C113.865 153.598 113.534 153.982 113.097 154.302C112.67 154.611 112.094 154.766 111.369 154.766ZM111.577 153.63C112.089 153.63 112.526 153.496 112.889 153.23C113.262 152.963 113.545 152.616 113.737 152.19C113.929 151.763 114.025 151.315 114.025 150.846V150.83H111.993C111.204 150.83 110.644 150.968 110.313 151.246C109.993 151.512 109.833 151.848 109.833 152.254C109.833 152.67 109.982 153.006 110.281 153.262C110.59 153.507 111.022 153.63 111.577 153.63ZM117.385 154.574V143.054H118.729V154.574H117.385ZM123.572 154.766C122.911 154.766 122.361 154.654 121.924 154.43C121.487 154.206 121.161 153.907 120.948 153.534C120.735 153.16 120.628 152.755 120.628 152.318C120.628 151.507 120.937 150.883 121.556 150.446C122.175 150.008 123.017 149.79 124.084 149.79H126.228V149.694C126.228 149 126.047 148.478 125.684 148.126C125.321 147.763 124.836 147.582 124.228 147.582C123.705 147.582 123.252 147.715 122.868 147.982C122.495 148.238 122.26 148.616 122.164 149.118H120.788C120.841 148.542 121.033 148.056 121.364 147.662C121.705 147.267 122.127 146.968 122.628 146.766C123.129 146.552 123.663 146.446 124.228 146.446C125.337 146.446 126.169 146.744 126.724 147.342C127.289 147.928 127.572 148.712 127.572 149.694V154.574H126.372L126.292 153.15C126.068 153.598 125.737 153.982 125.3 154.302C124.873 154.611 124.297 154.766 123.572 154.766ZM123.78 153.63C124.292 153.63 124.729 153.496 125.092 153.23C125.465 152.963 125.748 152.616 125.94 152.19C126.132 151.763 126.228 151.315 126.228 150.846V150.83H124.196C123.407 150.83 122.847 150.968 122.516 151.246C122.196 151.512 122.036 151.848 122.036 152.254C122.036 152.67 122.185 153.006 122.484 153.262C122.793 153.507 123.225 153.63 123.78 153.63ZM133.828 154.766C133.178 154.766 132.596 154.632 132.084 154.366C131.583 154.099 131.199 153.726 130.932 153.246L130.804 154.574H129.588V143.054H130.932V147.95C131.188 147.566 131.551 147.219 132.02 146.91C132.5 146.6 133.108 146.446 133.844 146.446C134.634 146.446 135.322 146.627 135.908 146.99C136.495 147.352 136.948 147.848 137.268 148.478C137.599 149.107 137.764 149.822 137.764 150.622C137.764 151.422 137.599 152.136 137.268 152.766C136.948 153.384 136.49 153.875 135.892 154.238C135.306 154.59 134.618 154.766 133.828 154.766ZM133.684 153.598C134.218 153.598 134.687 153.475 135.092 153.23C135.498 152.974 135.818 152.622 136.052 152.174C136.287 151.726 136.404 151.203 136.404 150.606C136.404 150.008 136.287 149.486 136.052 149.038C135.818 148.59 135.498 148.243 135.092 147.998C134.687 147.742 134.218 147.614 133.684 147.614C133.151 147.614 132.682 147.742 132.276 147.998C131.871 148.243 131.551 148.59 131.316 149.038C131.082 149.486 130.964 150.008 130.964 150.606C130.964 151.203 131.082 151.726 131.316 152.174C131.551 152.622 131.871 152.974 132.276 153.23C132.682 153.475 133.151 153.598 133.684 153.598ZM139.635 154.574V143.054H140.979V154.574H139.635ZM146.75 154.766C145.993 154.766 145.321 154.595 144.734 154.254C144.147 153.902 143.683 153.416 143.342 152.798C143.011 152.179 142.846 151.448 142.846 150.606C142.846 149.774 143.011 149.048 143.342 148.43C143.673 147.8 144.131 147.315 144.718 146.974C145.315 146.622 146.003 146.446 146.782 146.446C147.55 146.446 148.211 146.622 148.766 146.974C149.331 147.315 149.763 147.768 150.062 148.334C150.361 148.899 150.51 149.507 150.51 150.158C150.51 150.275 150.505 150.392 150.494 150.51C150.494 150.627 150.494 150.76 150.494 150.91H144.174C144.206 151.518 144.345 152.024 144.59 152.43C144.846 152.824 145.161 153.123 145.534 153.326C145.918 153.528 146.323 153.63 146.75 153.63C147.305 153.63 147.769 153.502 148.142 153.246C148.515 152.99 148.787 152.643 148.958 152.206H150.286C150.073 152.942 149.662 153.555 149.054 154.046C148.457 154.526 147.689 154.766 146.75 154.766ZM146.75 147.582C146.11 147.582 145.539 147.779 145.038 148.174C144.547 148.558 144.265 149.123 144.19 149.87H149.182C149.15 149.155 148.905 148.595 148.446 148.19C147.987 147.784 147.422 147.582 146.75 147.582ZM155.902 154.574L160.03 143.374H161.454L165.566 154.574H164.142L163.118 151.694H158.35L157.31 154.574H155.902ZM158.75 150.606H162.718L160.734 145.07L158.75 150.606ZM167.231 154.574V143.374H170.911C171.786 143.374 172.506 143.518 173.071 143.806C173.636 144.094 174.052 144.483 174.319 144.974C174.596 145.464 174.735 146.019 174.735 146.638C174.735 147.246 174.602 147.795 174.335 148.286C174.068 148.776 173.652 149.171 173.087 149.47C172.522 149.758 171.796 149.902 170.911 149.902H168.575V154.574H167.231ZM168.575 148.766H170.879C171.775 148.766 172.41 148.579 172.783 148.206C173.167 147.822 173.359 147.299 173.359 146.638C173.359 145.966 173.167 145.443 172.783 145.07C172.41 144.686 171.775 144.494 170.879 144.494H168.575V148.766ZM176.497 154.574V143.374H177.841V154.574H176.497ZM184.45 154.574V143.374H188.386C189.175 143.374 189.826 143.502 190.338 143.758C190.86 144.003 191.25 144.344 191.506 144.782C191.762 145.208 191.89 145.688 191.89 146.222C191.89 146.947 191.692 147.518 191.298 147.934C190.914 148.35 190.45 148.638 189.906 148.798C190.322 148.872 190.7 149.038 191.042 149.294C191.383 149.55 191.65 149.87 191.842 150.254C192.044 150.638 192.146 151.059 192.146 151.518C192.146 152.083 192.007 152.6 191.73 153.07C191.452 153.528 191.042 153.896 190.498 154.174C189.954 154.44 189.292 154.574 188.514 154.574H184.45ZM185.794 148.27H188.29C189.004 148.27 189.554 148.104 189.938 147.774C190.322 147.432 190.514 146.963 190.514 146.366C190.514 145.8 190.322 145.347 189.938 145.006C189.564 144.664 188.999 144.494 188.242 144.494H185.794V148.27ZM185.794 153.454H188.37C189.138 153.454 189.73 153.278 190.146 152.926C190.562 152.563 190.77 152.062 190.77 151.422C190.77 150.792 190.551 150.291 190.114 149.918C189.676 149.534 189.084 149.342 188.338 149.342H185.794V153.454ZM196.635 154.766C195.973 154.766 195.424 154.654 194.987 154.43C194.549 154.206 194.224 153.907 194.011 153.534C193.797 153.16 193.691 152.755 193.691 152.318C193.691 151.507 194 150.883 194.619 150.446C195.237 150.008 196.08 149.79 197.147 149.79H199.291V149.694C199.291 149 199.109 148.478 198.747 148.126C198.384 147.763 197.899 147.582 197.291 147.582C196.768 147.582 196.315 147.715 195.931 147.982C195.557 148.238 195.323 148.616 195.227 149.118H193.851C193.904 148.542 194.096 148.056 194.427 147.662C194.768 147.267 195.189 146.968 195.691 146.766C196.192 146.552 196.725 146.446 197.291 146.446C198.4 146.446 199.232 146.744 199.787 147.342C200.352 147.928 200.635 148.712 200.635 149.694V154.574H199.435L199.355 153.15C199.131 153.598 198.8 153.982 198.363 154.302C197.936 154.611 197.36 154.766 196.635 154.766ZM196.843 153.63C197.355 153.63 197.792 153.496 198.155 153.23C198.528 152.963 198.811 152.616 199.003 152.19C199.195 151.763 199.291 151.315 199.291 150.846V150.83H197.259C196.469 150.83 195.909 150.968 195.579 151.246C195.259 151.512 195.099 151.848 195.099 152.254C195.099 152.67 195.248 153.006 195.547 153.262C195.856 153.507 196.288 153.63 196.843 153.63ZM206.299 154.766C205.542 154.766 204.859 154.595 204.251 154.254C203.654 153.902 203.179 153.416 202.827 152.798C202.486 152.168 202.315 151.438 202.315 150.606C202.315 149.774 202.486 149.048 202.827 148.43C203.179 147.8 203.654 147.315 204.251 146.974C204.859 146.622 205.542 146.446 206.299 146.446C207.238 146.446 208.027 146.691 208.667 147.182C209.318 147.672 209.728 148.328 209.899 149.15H208.523C208.416 148.659 208.155 148.28 207.739 148.014C207.323 147.736 206.838 147.598 206.283 147.598C205.835 147.598 205.414 147.71 205.019 147.934C204.624 148.158 204.304 148.494 204.059 148.942C203.814 149.39 203.691 149.944 203.691 150.606C203.691 151.267 203.814 151.822 204.059 152.27C204.304 152.718 204.624 153.059 205.019 153.294C205.414 153.518 205.835 153.63 206.283 153.63C206.838 153.63 207.323 153.496 207.739 153.23C208.155 152.952 208.416 152.563 208.523 152.062H209.899C209.739 152.862 209.334 153.512 208.683 154.014C208.032 154.515 207.238 154.766 206.299 154.766ZM211.776 154.574V143.054H213.12V149.982L216.368 146.638H218.016L214.496 150.222L218.464 154.574H216.752L213.12 150.462V154.574H211.776ZM222.828 154.766C222.071 154.766 221.399 154.595 220.812 154.254C220.226 153.902 219.762 153.416 219.42 152.798C219.09 152.179 218.924 151.448 218.924 150.606C218.924 149.774 219.09 149.048 219.42 148.43C219.751 147.8 220.21 147.315 220.796 146.974C221.394 146.622 222.082 146.446 222.86 146.446C223.628 146.446 224.29 146.622 224.844 146.974C225.41 147.315 225.842 147.768 226.14 148.334C226.439 148.899 226.588 149.507 226.588 150.158C226.588 150.275 226.583 150.392 226.572 150.51C226.572 150.627 226.572 150.76 226.572 150.91H220.252C220.284 151.518 220.423 152.024 220.668 152.43C220.924 152.824 221.239 153.123 221.612 153.326C221.996 153.528 222.402 153.63 222.828 153.63C223.383 153.63 223.847 153.502 224.22 153.246C224.594 152.99 224.866 152.643 225.036 152.206H226.364C226.151 152.942 225.74 153.555 225.132 154.046C224.535 154.526 223.767 154.766 222.828 154.766ZM222.828 147.582C222.188 147.582 221.618 147.779 221.116 148.174C220.626 148.558 220.343 149.123 220.268 149.87H225.26C225.228 149.155 224.983 148.595 224.524 148.19C224.066 147.784 223.5 147.582 222.828 147.582ZM228.37 154.574V146.638H229.586L229.666 148.062C229.922 147.56 230.29 147.166 230.77 146.878C231.25 146.59 231.794 146.446 232.402 146.446C233.34 146.446 234.087 146.734 234.642 147.31C235.207 147.875 235.49 148.75 235.49 149.934V154.574H234.146V150.078C234.146 148.424 233.463 147.598 232.098 147.598C231.415 147.598 230.844 147.848 230.386 148.35C229.938 148.84 229.714 149.544 229.714 150.462V154.574H228.37ZM241.126 154.766C240.337 154.766 239.643 154.584 239.046 154.222C238.459 153.859 238.001 153.363 237.67 152.734C237.35 152.104 237.19 151.39 237.19 150.59C237.19 149.79 237.355 149.08 237.686 148.462C238.017 147.832 238.475 147.342 239.062 146.99C239.649 146.627 240.342 146.446 241.142 146.446C241.793 146.446 242.369 146.579 242.87 146.846C243.371 147.112 243.761 147.486 244.038 147.966V143.054H245.382V154.574H244.166L244.038 153.262C243.782 153.646 243.414 153.992 242.934 154.302C242.454 154.611 241.851 154.766 241.126 154.766ZM241.27 153.598C241.803 153.598 242.273 153.475 242.678 153.23C243.094 152.974 243.414 152.622 243.638 152.174C243.873 151.726 243.99 151.203 243.99 150.606C243.99 150.008 243.873 149.486 243.638 149.038C243.414 148.59 243.094 148.243 242.678 147.998C242.273 147.742 241.803 147.614 241.27 147.614C240.747 147.614 240.278 147.742 239.862 147.998C239.457 148.243 239.137 148.59 238.902 149.038C238.678 149.486 238.566 150.008 238.566 150.606C238.566 151.203 238.678 151.726 238.902 152.174C239.137 152.622 239.457 152.974 239.862 153.23C240.278 153.475 240.747 153.598 241.27 153.598ZM250.613 154.766C249.663 154.766 248.874 154.526 248.245 154.046C247.615 153.566 247.247 152.915 247.141 152.094H248.517C248.602 152.51 248.821 152.872 249.173 153.182C249.535 153.48 250.021 153.63 250.629 153.63C251.194 153.63 251.61 153.512 251.877 153.278C252.143 153.032 252.277 152.744 252.277 152.414C252.277 151.934 252.101 151.614 251.749 151.454C251.407 151.294 250.922 151.15 250.293 151.022C249.866 150.936 249.439 150.814 249.013 150.654C248.586 150.494 248.229 150.27 247.941 149.982C247.653 149.683 247.509 149.294 247.509 148.814C247.509 148.12 247.765 147.555 248.277 147.118C248.799 146.67 249.503 146.446 250.389 146.446C251.231 146.446 251.919 146.659 252.453 147.086C252.997 147.502 253.311 148.099 253.397 148.878H252.069C252.015 148.472 251.839 148.158 251.541 147.934C251.253 147.699 250.863 147.582 250.373 147.582C249.893 147.582 249.519 147.683 249.253 147.886C248.997 148.088 248.869 148.355 248.869 148.686C248.869 149.006 249.034 149.256 249.365 149.438C249.706 149.619 250.165 149.774 250.741 149.902C251.231 150.008 251.695 150.142 252.133 150.302C252.581 150.451 252.943 150.68 253.221 150.99C253.509 151.288 253.653 151.726 253.653 152.302C253.663 153.016 253.391 153.608 252.837 154.078C252.293 154.536 251.551 154.766 250.613 154.766ZM261.407 154.574L259.087 146.638H260.431L262.111 152.862L263.967 146.638H265.487L267.359 152.862L269.023 146.638H270.383L268.063 154.574H266.687L264.735 148.03L262.783 154.574H261.407ZM272.686 144.878C272.419 144.878 272.195 144.792 272.014 144.622C271.843 144.44 271.758 144.216 271.758 143.95C271.758 143.694 271.843 143.48 272.014 143.31C272.195 143.139 272.419 143.054 272.686 143.054C272.942 143.054 273.16 143.139 273.342 143.31C273.523 143.48 273.614 143.694 273.614 143.95C273.614 144.216 273.523 144.44 273.342 144.622C273.16 144.792 272.942 144.878 272.686 144.878ZM272.014 154.574V146.638H273.358V154.574H272.014ZM278.834 154.574C278.108 154.574 277.538 154.398 277.122 154.046C276.706 153.694 276.498 153.059 276.498 152.142V147.774H275.122V146.638H276.498L276.674 144.734H277.842V146.638H280.178V147.774H277.842V152.142C277.842 152.643 277.943 152.984 278.146 153.166C278.348 153.336 278.706 153.422 279.218 153.422H280.05V154.574H278.834ZM281.885 154.574V143.054H283.229V147.998C283.496 147.507 283.875 147.128 284.365 146.862C284.856 146.584 285.389 146.446 285.965 146.446C286.883 146.446 287.619 146.734 288.173 147.31C288.728 147.875 289.005 148.75 289.005 149.934V154.574H287.677V150.078C287.677 148.424 287.011 147.598 285.677 147.598C284.984 147.598 284.403 147.848 283.933 148.35C283.464 148.84 283.229 149.544 283.229 150.462V154.574H281.885ZM33.096 175.766C31.9973 175.766 31.048 175.526 30.248 175.046C29.4587 174.555 28.8453 173.878 28.408 173.014C27.9707 172.139 27.752 171.126 27.752 169.974C27.752 168.832 27.9707 167.83 28.408 166.966C28.8453 166.091 29.4587 165.408 30.248 164.918C31.048 164.427 31.9973 164.182 33.096 164.182C34.376 164.182 35.416 164.491 36.216 165.11C37.0267 165.718 37.544 166.571 37.768 167.67H36.28C36.1093 166.976 35.7573 166.422 35.224 166.006C34.7013 165.579 33.992 165.366 33.096 165.366C32.296 165.366 31.5973 165.552 31 165.926C30.4027 166.288 29.9387 166.816 29.608 167.51C29.288 168.192 29.128 169.014 29.128 169.974C29.128 170.934 29.288 171.76 29.608 172.454C29.9387 173.136 30.4027 173.664 31 174.038C31.5973 174.4 32.296 174.582 33.096 174.582C33.992 174.582 34.7013 174.379 35.224 173.974C35.7573 173.558 36.1093 173.008 36.28 172.326H37.768C37.544 173.403 37.0267 174.246 36.216 174.854C35.416 175.462 34.376 175.766 33.096 175.766ZM43.2356 175.766C42.489 175.766 41.817 175.595 41.2196 175.254C40.6223 174.912 40.1476 174.432 39.7956 173.814C39.4543 173.184 39.2836 172.448 39.2836 171.606C39.2836 170.763 39.4596 170.032 39.8116 169.414C40.1636 168.784 40.6383 168.299 41.2356 167.958C41.8436 167.616 42.521 167.446 43.2676 167.446C44.0143 167.446 44.6863 167.616 45.2836 167.958C45.881 168.299 46.3503 168.784 46.6916 169.414C47.0436 170.032 47.2196 170.763 47.2196 171.606C47.2196 172.448 47.0436 173.184 46.6916 173.814C46.3396 174.432 45.8596 174.912 45.2516 175.254C44.6543 175.595 43.9823 175.766 43.2356 175.766ZM43.2356 174.614C43.6943 174.614 44.121 174.502 44.5156 174.278C44.9103 174.054 45.2303 173.718 45.4756 173.27C45.721 172.822 45.8436 172.267 45.8436 171.606C45.8436 170.944 45.721 170.39 45.4756 169.942C45.241 169.494 44.9263 169.158 44.5316 168.934C44.137 168.71 43.7156 168.598 43.2676 168.598C42.809 168.598 42.3823 168.71 41.9876 168.934C41.593 169.158 41.273 169.494 41.0276 169.942C40.7823 170.39 40.6596 170.944 40.6596 171.606C40.6596 172.267 40.7823 172.822 41.0276 173.27C41.273 173.718 41.5876 174.054 41.9716 174.278C42.3663 174.502 42.7876 174.614 43.2356 174.614ZM50.9701 175.574L47.9621 167.638H49.3701L51.7541 174.278L54.1541 167.638H55.5301L52.5221 175.574H50.9701ZM59.2596 175.766C58.5983 175.766 58.049 175.654 57.6116 175.43C57.1743 175.206 56.849 174.907 56.6356 174.534C56.4223 174.16 56.3156 173.755 56.3156 173.318C56.3156 172.507 56.625 171.883 57.2436 171.446C57.8623 171.008 58.705 170.79 59.7716 170.79H61.9156V170.694C61.9156 170 61.7343 169.478 61.3716 169.126C61.009 168.763 60.5236 168.582 59.9156 168.582C59.393 168.582 58.9396 168.715 58.5556 168.982C58.1823 169.238 57.9476 169.616 57.8516 170.118H56.4756C56.529 169.542 56.721 169.056 57.0516 168.662C57.393 168.267 57.8143 167.968 58.3156 167.766C58.817 167.552 59.3503 167.446 59.9156 167.446C61.025 167.446 61.857 167.744 62.4116 168.342C62.977 168.928 63.2596 169.712 63.2596 170.694V175.574H62.0596L61.9796 174.15C61.7556 174.598 61.425 174.982 60.9876 175.302C60.561 175.611 59.985 175.766 59.2596 175.766ZM59.4676 174.63C59.9796 174.63 60.417 174.496 60.7796 174.23C61.153 173.963 61.4356 173.616 61.6276 173.19C61.8196 172.763 61.9156 172.315 61.9156 171.846V171.83H59.8836C59.0943 171.83 58.5343 171.968 58.2036 172.246C57.8836 172.512 57.7236 172.848 57.7236 173.254C57.7236 173.67 57.873 174.006 58.1716 174.262C58.481 174.507 58.913 174.63 59.4676 174.63ZM65.2759 175.574V164.054H66.6199V175.574H65.2759ZM72.3908 175.766C71.6334 175.766 70.9614 175.595 70.3748 175.254C69.7881 174.902 69.3241 174.416 68.9828 173.798C68.6521 173.179 68.4868 172.448 68.4868 171.606C68.4868 170.774 68.6521 170.048 68.9828 169.43C69.3134 168.8 69.7721 168.315 70.3588 167.974C70.9561 167.622 71.6441 167.446 72.4227 167.446C73.1908 167.446 73.8521 167.622 74.4068 167.974C74.9721 168.315 75.4041 168.768 75.7028 169.334C76.0014 169.899 76.1508 170.507 76.1508 171.158C76.1508 171.275 76.1454 171.392 76.1348 171.51C76.1348 171.627 76.1348 171.76 76.1348 171.91H69.8148C69.8468 172.518 69.9854 173.024 70.2308 173.43C70.4868 173.824 70.8014 174.123 71.1748 174.326C71.5588 174.528 71.9641 174.63 72.3908 174.63C72.9454 174.63 73.4094 174.502 73.7828 174.246C74.1561 173.99 74.4281 173.643 74.5988 173.206H75.9268C75.7134 173.942 75.3028 174.555 74.6948 175.046C74.0974 175.526 73.3294 175.766 72.3908 175.766ZM72.3908 168.582C71.7508 168.582 71.1801 168.779 70.6788 169.174C70.1881 169.558 69.9054 170.123 69.8307 170.87H74.8228C74.7908 170.155 74.5454 169.595 74.0868 169.19C73.6281 168.784 73.0628 168.582 72.3908 168.582ZM77.9321 175.574V167.638H79.1481L79.2281 169.062C79.4841 168.56 79.8521 168.166 80.3321 167.878C80.8121 167.59 81.3561 167.446 81.9641 167.446C82.9028 167.446 83.6495 167.734 84.2041 168.31C84.7695 168.875 85.0521 169.75 85.0521 170.934V175.574H83.7081V171.078C83.7081 169.424 83.0255 168.598 81.6601 168.598C80.9775 168.598 80.4068 168.848 79.9481 169.35C79.5001 169.84 79.2761 170.544 79.2761 171.462V175.574H77.9321ZM90.2244 175.574C89.499 175.574 88.9284 175.398 88.5124 175.046C88.0964 174.694 87.8884 174.059 87.8884 173.142V168.774H86.5124V167.638H87.8884L88.0644 165.734H89.2324V167.638H91.5684V168.774H89.2324V173.142C89.2324 173.643 89.3337 173.984 89.5364 174.166C89.739 174.336 90.0964 174.422 90.6084 174.422H91.4404V175.574H90.2244ZM97.9423 175.574V168.774H96.7423V167.638H97.9423V166.262C97.9423 165.494 98.1343 164.934 98.5182 164.582C98.9023 164.23 99.4623 164.054 100.198 164.054H100.998V165.206H100.406C100.001 165.206 99.7129 165.291 99.5423 165.462C99.3716 165.622 99.2863 165.899 99.2863 166.294V167.638H101.238V168.774H99.2863V175.574H97.9423ZM106.142 175.766C105.395 175.766 104.723 175.595 104.126 175.254C103.529 174.912 103.054 174.432 102.702 173.814C102.361 173.184 102.19 172.448 102.19 171.606C102.19 170.763 102.366 170.032 102.718 169.414C103.07 168.784 103.545 168.299 104.142 167.958C104.75 167.616 105.427 167.446 106.174 167.446C106.921 167.446 107.593 167.616 108.19 167.958C108.787 168.299 109.257 168.784 109.598 169.414C109.95 170.032 110.126 170.763 110.126 171.606C110.126 172.448 109.95 173.184 109.598 173.814C109.246 174.432 108.766 174.912 108.158 175.254C107.561 175.595 106.889 175.766 106.142 175.766ZM106.142 174.614C106.601 174.614 107.027 174.502 107.422 174.278C107.817 174.054 108.137 173.718 108.382 173.27C108.627 172.822 108.75 172.267 108.75 171.606C108.75 170.944 108.627 170.39 108.382 169.942C108.147 169.494 107.833 169.158 107.438 168.934C107.043 168.71 106.622 168.598 106.174 168.598C105.715 168.598 105.289 168.71 104.894 168.934C104.499 169.158 104.179 169.494 103.934 169.942C103.689 170.39 103.566 170.944 103.566 171.606C103.566 172.267 103.689 172.822 103.934 173.27C104.179 173.718 104.494 174.054 104.878 174.278C105.273 174.502 105.694 174.614 106.142 174.614ZM111.995 175.574V167.638H113.211L113.323 169.158C113.568 168.635 113.941 168.219 114.443 167.91C114.944 167.6 115.563 167.446 116.299 167.446V168.854H115.931C115.461 168.854 115.029 168.939 114.635 169.11C114.24 169.27 113.925 169.547 113.691 169.942C113.456 170.336 113.339 170.88 113.339 171.574V175.574H111.995ZM122.122 175.574V164.374H123.466V174.502H128.682V175.574H122.122ZM130.528 175.574V164.374H131.872V174.502H137.088V175.574H130.528ZM138.934 175.574V164.374H140.502L144.534 172.182L148.534 164.374H150.118V175.574H148.774V166.774L145.03 173.974H144.022L140.278 166.79V175.574H138.934ZM159.275 175.766C158.614 175.766 158.065 175.654 157.627 175.43C157.19 175.206 156.865 174.907 156.651 174.534C156.438 174.16 156.331 173.755 156.331 173.318C156.331 172.507 156.641 171.883 157.259 171.446C157.878 171.008 158.721 170.79 159.787 170.79H161.931V170.694C161.931 170 161.75 169.478 161.387 169.126C161.025 168.763 160.539 168.582 159.931 168.582C159.409 168.582 158.955 168.715 158.571 168.982C158.198 169.238 157.963 169.616 157.867 170.118H156.491C156.545 169.542 156.737 169.056 157.067 168.662C157.409 168.267 157.83 167.968 158.331 167.766C158.833 167.552 159.366 167.446 159.931 167.446C161.041 167.446 161.873 167.744 162.427 168.342C162.993 168.928 163.275 169.712 163.275 170.694V175.574H162.075L161.995 174.15C161.771 174.598 161.441 174.982 161.003 175.302C160.577 175.611 160.001 175.766 159.275 175.766ZM159.483 174.63C159.995 174.63 160.433 174.496 160.795 174.23C161.169 173.963 161.451 173.616 161.643 173.19C161.835 172.763 161.931 172.315 161.931 171.846V171.83H159.899C159.11 171.83 158.55 171.968 158.219 172.246C157.899 172.512 157.739 172.848 157.739 173.254C157.739 173.67 157.889 174.006 158.187 174.262C158.497 174.507 158.929 174.63 159.483 174.63ZM165.292 175.574V167.638H166.508L166.588 169.062C166.844 168.56 167.212 168.166 167.692 167.878C168.172 167.59 168.716 167.446 169.324 167.446C170.262 167.446 171.009 167.734 171.564 168.31C172.129 168.875 172.411 169.75 172.411 170.934V175.574H171.068V171.078C171.068 169.424 170.385 168.598 169.02 168.598C168.337 168.598 167.766 168.848 167.308 169.35C166.86 169.84 166.636 170.544 166.636 171.462V175.574H165.292ZM178.048 175.766C177.258 175.766 176.565 175.584 175.968 175.222C175.381 174.859 174.922 174.363 174.592 173.734C174.272 173.104 174.112 172.39 174.112 171.59C174.112 170.79 174.277 170.08 174.608 169.462C174.938 168.832 175.397 168.342 175.984 167.99C176.57 167.627 177.264 167.446 178.064 167.446C178.714 167.446 179.29 167.579 179.792 167.846C180.293 168.112 180.682 168.486 180.96 168.966V164.054H182.304V175.574H181.088L180.96 174.262C180.704 174.646 180.336 174.992 179.856 175.302C179.376 175.611 178.773 175.766 178.048 175.766ZM178.192 174.598C178.725 174.598 179.194 174.475 179.6 174.23C180.016 173.974 180.336 173.622 180.56 173.174C180.794 172.726 180.912 172.203 180.912 171.606C180.912 171.008 180.794 170.486 180.56 170.038C180.336 169.59 180.016 169.243 179.6 168.998C179.194 168.742 178.725 168.614 178.192 168.614C177.669 168.614 177.2 168.742 176.784 168.998C176.378 169.243 176.058 169.59 175.824 170.038C175.6 170.486 175.488 171.008 175.488 171.606C175.488 172.203 175.6 172.726 175.824 173.174C176.058 173.622 176.378 173.974 176.784 174.23C177.2 174.475 177.669 174.598 178.192 174.598ZM193.625 175.766C192.58 175.766 191.662 175.526 190.873 175.046C190.084 174.555 189.47 173.878 189.033 173.014C188.596 172.139 188.377 171.131 188.377 169.99C188.377 168.848 188.596 167.84 189.033 166.966C189.481 166.091 190.11 165.408 190.921 164.918C191.742 164.427 192.708 164.182 193.817 164.182C195.076 164.182 196.121 164.486 196.953 165.094C197.796 165.702 198.34 166.539 198.585 167.606H197.033C196.884 166.934 196.526 166.4 195.961 166.006C195.406 165.611 194.692 165.414 193.817 165.414C192.996 165.414 192.281 165.6 191.673 165.974C191.065 166.336 190.59 166.859 190.249 167.542C189.918 168.224 189.753 169.04 189.753 169.99C189.753 170.939 189.918 171.755 190.249 172.438C190.58 173.12 191.038 173.648 191.625 174.022C192.212 174.384 192.894 174.566 193.673 174.566C194.868 174.566 195.769 174.219 196.377 173.526C196.985 172.822 197.332 171.862 197.417 170.646H194.185V169.59H198.793V175.574H197.561L197.449 173.734C197.044 174.384 196.548 174.886 195.961 175.238C195.374 175.59 194.596 175.766 193.625 175.766ZM204.406 175.766C203.649 175.766 202.977 175.595 202.39 175.254C201.804 174.902 201.34 174.416 200.998 173.798C200.668 173.179 200.502 172.448 200.502 171.606C200.502 170.774 200.668 170.048 200.998 169.43C201.329 168.8 201.788 168.315 202.374 167.974C202.972 167.622 203.66 167.446 204.438 167.446C205.206 167.446 205.868 167.622 206.422 167.974C206.988 168.315 207.42 168.768 207.718 169.334C208.017 169.899 208.166 170.507 208.166 171.158C208.166 171.275 208.161 171.392 208.15 171.51C208.15 171.627 208.15 171.76 208.15 171.91H201.83C201.862 172.518 202.001 173.024 202.246 173.43C202.502 173.824 202.817 174.123 203.19 174.326C203.574 174.528 203.98 174.63 204.406 174.63C204.961 174.63 205.425 174.502 205.798 174.246C206.172 173.99 206.444 173.643 206.614 173.206H207.942C207.729 173.942 207.318 174.555 206.71 175.046C206.113 175.526 205.345 175.766 204.406 175.766ZM204.406 168.582C203.766 168.582 203.196 168.779 202.694 169.174C202.204 169.558 201.921 170.123 201.846 170.87H206.838C206.806 170.155 206.561 169.595 206.102 169.19C205.644 168.784 205.078 168.582 204.406 168.582ZM209.948 175.574V167.638H211.164L211.244 169.062C211.5 168.56 211.868 168.166 212.348 167.878C212.828 167.59 213.372 167.446 213.98 167.446C214.918 167.446 215.665 167.734 216.22 168.31C216.785 168.875 217.068 169.75 217.068 170.934V175.574H215.724V171.078C215.724 169.424 215.041 168.598 213.676 168.598C212.993 168.598 212.422 168.848 211.964 169.35C211.516 169.84 211.292 170.544 211.292 171.462V175.574H209.948ZM222.672 175.766C221.915 175.766 221.243 175.595 220.656 175.254C220.069 174.902 219.605 174.416 219.264 173.798C218.933 173.179 218.768 172.448 218.768 171.606C218.768 170.774 218.933 170.048 219.264 169.43C219.595 168.8 220.053 168.315 220.64 167.974C221.237 167.622 221.925 167.446 222.704 167.446C223.472 167.446 224.133 167.622 224.688 167.974C225.253 168.315 225.685 168.768 225.984 169.334C226.283 169.899 226.432 170.507 226.432 171.158C226.432 171.275 226.427 171.392 226.416 171.51C226.416 171.627 226.416 171.76 226.416 171.91H220.096C220.128 172.518 220.267 173.024 220.512 173.43C220.768 173.824 221.083 174.123 221.456 174.326C221.84 174.528 222.245 174.63 222.672 174.63C223.227 174.63 223.691 174.502 224.064 174.246C224.437 173.99 224.709 173.643 224.88 173.206H226.208C225.995 173.942 225.584 174.555 224.976 175.046C224.379 175.526 223.611 175.766 222.672 175.766ZM222.672 168.582C222.032 168.582 221.461 168.779 220.96 169.174C220.469 169.558 220.187 170.123 220.112 170.87H225.104C225.072 170.155 224.827 169.595 224.368 169.19C223.909 168.784 223.344 168.582 222.672 168.582ZM228.213 175.574V167.638H229.429L229.541 169.158C229.787 168.635 230.16 168.219 230.661 167.91C231.163 167.6 231.781 167.446 232.517 167.446V168.854H232.149C231.68 168.854 231.248 168.939 230.853 169.11C230.459 169.27 230.144 169.547 229.909 169.942C229.675 170.336 229.557 170.88 229.557 171.574V175.574H228.213ZM236.666 175.766C236.005 175.766 235.455 175.654 235.018 175.43C234.581 175.206 234.255 174.907 234.042 174.534C233.829 174.16 233.722 173.755 233.722 173.318C233.722 172.507 234.031 171.883 234.65 171.446C235.269 171.008 236.111 170.79 237.178 170.79H239.322V170.694C239.322 170 239.141 169.478 238.778 169.126C238.415 168.763 237.93 168.582 237.322 168.582C236.799 168.582 236.346 168.715 235.962 168.982C235.589 169.238 235.354 169.616 235.258 170.118H233.882C233.935 169.542 234.127 169.056 234.458 168.662C234.799 168.267 235.221 167.968 235.722 167.766C236.223 167.552 236.757 167.446 237.322 167.446C238.431 167.446 239.263 167.744 239.818 168.342C240.383 168.928 240.666 169.712 240.666 170.694V175.574H239.466L239.386 174.15C239.162 174.598 238.831 174.982 238.394 175.302C237.967 175.611 237.391 175.766 236.666 175.766ZM236.874 174.63C237.386 174.63 237.823 174.496 238.186 174.23C238.559 173.963 238.842 173.616 239.034 173.19C239.226 172.763 239.322 172.315 239.322 171.846V171.83H237.29C236.501 171.83 235.941 171.968 235.61 172.246C235.29 172.512 235.13 172.848 235.13 173.254C235.13 173.67 235.279 174.006 235.578 174.262C235.887 174.507 236.319 174.63 236.874 174.63ZM245.599 175.574C244.874 175.574 244.303 175.398 243.887 175.046C243.471 174.694 243.263 174.059 243.263 173.142V168.774H241.887V167.638H243.263L243.439 165.734H244.607V167.638H246.943V168.774H244.607V173.142C244.607 173.643 244.709 173.984 244.911 174.166C245.114 174.336 245.471 174.422 245.983 174.422H246.815V175.574H245.599ZM249.467 165.878C249.2 165.878 248.976 165.792 248.795 165.622C248.624 165.44 248.539 165.216 248.539 164.95C248.539 164.694 248.624 164.48 248.795 164.31C248.976 164.139 249.2 164.054 249.467 164.054C249.723 164.054 249.942 164.139 250.123 164.31C250.304 164.48 250.395 164.694 250.395 164.95C250.395 165.216 250.304 165.44 250.123 165.622C249.942 165.792 249.723 165.878 249.467 165.878ZM248.795 175.574V167.638H250.139V175.574H248.795ZM254.767 175.574L251.759 167.638H253.167L255.551 174.278L257.951 167.638H259.327L256.319 175.574H254.767ZM263.985 175.766C263.227 175.766 262.555 175.595 261.969 175.254C261.382 174.902 260.918 174.416 260.577 173.798C260.246 173.179 260.081 172.448 260.081 171.606C260.081 170.774 260.246 170.048 260.577 169.43C260.907 168.8 261.366 168.315 261.953 167.974C262.55 167.622 263.238 167.446 264.016 167.446C264.785 167.446 265.446 167.622 266.001 167.974C266.566 168.315 266.998 168.768 267.297 169.334C267.595 169.899 267.745 170.507 267.745 171.158C267.745 171.275 267.739 171.392 267.729 171.51C267.729 171.627 267.729 171.76 267.729 171.91H261.409C261.441 172.518 261.579 173.024 261.825 173.43C262.081 173.824 262.395 174.123 262.769 174.326C263.153 174.528 263.558 174.63 263.985 174.63C264.539 174.63 265.003 174.502 265.377 174.246C265.75 173.99 266.022 173.643 266.193 173.206H267.521C267.307 173.942 266.897 174.555 266.289 175.046C265.691 175.526 264.923 175.766 263.985 175.766ZM263.985 168.582C263.345 168.582 262.774 168.779 262.273 169.174C261.782 169.558 261.499 170.123 261.424 170.87H266.417C266.385 170.155 266.139 169.595 265.681 169.19C265.222 168.784 264.657 168.582 263.985 168.582ZM273.136 175.574L277.264 164.374H278.688L282.8 175.574H281.376L280.352 172.694H275.584L274.544 175.574H273.136ZM275.984 171.606H279.952L277.968 166.07L275.984 171.606ZM284.465 175.574V164.374H285.809V175.574H284.465ZM288.568 175.654C288.301 175.654 288.077 175.568 287.896 175.398C287.725 175.216 287.64 174.998 287.64 174.742C287.64 174.486 287.725 174.272 287.896 174.102C288.077 173.92 288.301 173.83 288.568 173.83C288.824 173.83 289.037 173.92 289.208 174.102C289.389 174.272 289.48 174.486 289.48 174.742C289.48 174.998 289.389 175.216 289.208 175.398C289.037 175.568 288.824 175.654 288.568 175.654ZM291.693 175.654C291.426 175.654 291.202 175.568 291.021 175.398C290.85 175.216 290.765 174.998 290.765 174.742C290.765 174.486 290.85 174.272 291.021 174.102C291.202 173.92 291.426 173.83 291.693 173.83C291.949 173.83 292.162 173.92 292.333 174.102C292.514 174.272 292.605 174.486 292.605 174.742C292.605 174.998 292.514 175.216 292.333 175.398C292.162 175.568 291.949 175.654 291.693 175.654Z" fill="white"/>
</g>
<defs>
<filter id="filter0_d_998_1530" x="0" y="0.57373" width="374" height="217" filterUnits="userSpaceOnUse" color-interpolation-filters="sRGB">
<feFlood flood-opacity="0" result="BackgroundImageFix"/>
<feColorMatrix in="SourceAlpha" type="matrix" values="0 0 0 0 0 0 0 0 0 0 0 0 0 0 0 0 0 0 127 0" result="hardAlpha"/>
<feOffset dy="4"/>
<feGaussianBlur stdDeviation="8.5"/>
<feComposite in2="hardAlpha" operator="out"/>
<feColorMatrix type="matrix" values="0 0 0 0 0 0 0 0 0 0 0 0 0 0 0 0 0 0 0.47 0"/>
<feBlend mode="normal" in2="BackgroundImageFix" result="effect1_dropShadow_998_1530"/>
<feBlend mode="normal" in="SourceGraphic" in2="effect1_dropShadow_998_1530" result="shape"/>
</filter>
<clipPath id="clip0_998_1530">
<rect x="27" y="33.5737" width="319" height="95" rx="6" fill="white"/>
</clipPath>
</defs>
</svg>
