<svg width="160" height="53" viewBox="0 0 160 53" fill="none" xmlns="http://www.w3.org/2000/svg">
<g clip-path="url(#clip0_85_310)">
<path d="M70.5443 22.9766C70.5305 23.4102 70.5861 23.8432 70.7089 24.2592C70.8355 24.6156 70.9921 24.9606 71.1769 25.2906C71.2399 25.3893 71.2758 25.5029 71.2809 25.6199C71.2718 25.7076 71.2419 25.7919 71.1936 25.8658C71.1454 25.9396 71.0803 26.0009 71.0036 26.0446L70.1369 26.6512C70.0248 26.73 69.8925 26.7751 69.7556 26.7812C69.675 26.7783 69.5959 26.7592 69.5229 26.7249C69.4499 26.6907 69.3846 26.642 69.3309 26.5819C69.1296 26.3827 68.9548 26.1584 68.8109 25.9146C68.6665 25.6719 68.5191 25.383 68.3689 25.0479C67.8613 25.6814 67.2156 26.1904 66.481 26.5359C65.7464 26.8814 64.9426 27.0542 64.1309 27.0412C63.6068 27.07 63.0822 26.9935 62.588 26.8164C62.0939 26.6393 61.6401 26.3651 61.2536 26.0099C60.8955 25.6456 60.6167 25.2112 60.4347 24.7339C60.2527 24.2566 60.1715 23.7468 60.1963 23.2366C60.1733 22.682 60.275 22.1294 60.494 21.6194C60.713 21.1094 61.0437 20.6551 61.4616 20.2899C62.4651 19.4996 63.7222 19.1022 64.9976 19.1719C65.5081 19.1734 66.0178 19.211 66.5229 19.2846C67.0545 19.3597 67.6063 19.4637 68.1783 19.5966V18.5392C68.2624 17.7106 68.0164 16.8822 67.4936 16.2339C66.8247 15.7195 65.9843 15.4808 65.1449 15.5666C64.6221 15.5692 64.1015 15.6332 63.5936 15.7572C63.0651 15.8836 62.5465 16.0487 62.0423 16.2512C61.8792 16.3262 61.7113 16.3899 61.5396 16.4419H61.3143C61.112 16.4419 61.0109 16.2917 61.0109 15.9912V15.3066C60.9985 15.1326 61.0345 14.9586 61.1149 14.8039C61.2235 14.6707 61.3635 14.5665 61.5223 14.5006C62.1023 14.2227 62.7092 14.0049 63.3336 13.8506C64.0668 13.6623 64.8212 13.5691 65.5783 13.5732C66.9399 13.4526 68.2942 13.8729 69.3483 14.7432C69.7768 15.2226 70.1037 15.7839 70.3092 16.3931C70.5148 17.0023 70.5948 17.6469 70.5443 18.2879V22.9766ZM64.6943 25.1692C65.2025 25.1618 65.7061 25.0711 66.1849 24.9006C66.7128 24.7177 67.1824 24.3977 67.5456 23.9732C67.7693 23.7237 67.9351 23.4277 68.0309 23.1066C68.1307 22.6983 68.1773 22.2788 68.1696 21.8586V21.2519C67.7323 21.1471 67.2897 21.0661 66.8436 21.0092C66.3952 20.9519 65.9436 20.9229 65.4916 20.9226C64.7326 20.8656 63.9771 21.0706 63.3509 21.5032C63.1248 21.7028 62.9459 21.9502 62.8275 22.2276C62.7091 22.5049 62.654 22.8052 62.6663 23.1066C62.6458 23.3834 62.6821 23.6615 62.773 23.9239C62.8639 24.1862 63.0075 24.4271 63.1949 24.6319C63.3973 24.8156 63.6339 24.9576 63.8911 25.0498C64.1484 25.142 64.4213 25.1826 64.6943 25.1692ZM76.2643 26.7292C76.069 26.7471 75.8735 26.6982 75.7096 26.5906C75.5562 26.436 75.4508 26.2404 75.4063 26.0272L72.0349 14.8819C71.9695 14.694 71.9259 14.4991 71.9049 14.3012C71.8976 14.2529 71.9017 14.2035 71.917 14.157C71.9322 14.1106 71.9582 14.0683 71.9928 14.0337C72.0273 13.9992 72.0696 13.9732 72.116 13.9579C72.1625 13.9427 72.2119 13.9386 72.2603 13.9459H73.6729C73.8711 13.926 74.07 13.975 74.2363 14.0846C74.3797 14.2438 74.4783 14.4382 74.5223 14.6479L76.9403 24.1812L79.1849 14.6479C79.2196 14.4375 79.3196 14.2435 79.4709 14.0932C79.6446 13.986 79.8482 13.9374 80.0516 13.9546H81.2129C81.4163 13.9374 81.6199 13.986 81.7936 14.0932C81.9433 14.2469 82.0404 14.4442 82.0709 14.6566L84.3329 24.3112L86.8289 14.6566C86.8749 14.4458 86.9767 14.2512 87.1236 14.0932C87.2899 13.9837 87.4888 13.9347 87.6869 13.9546H89.0216C89.0699 13.9472 89.1193 13.9513 89.1658 13.9666C89.2123 13.9819 89.2545 14.0078 89.2891 14.0424C89.3237 14.077 89.3496 14.1192 89.3649 14.1657C89.3801 14.2121 89.3843 14.2615 89.3769 14.3099C89.3841 14.3848 89.3841 14.4603 89.3769 14.5352C89.3492 14.6556 89.3145 14.7743 89.2729 14.8906L85.8063 26.0359C85.7617 26.249 85.6563 26.4447 85.5029 26.5992C85.339 26.7069 85.1435 26.7557 84.9483 26.7379H83.6829C83.478 26.7594 83.2721 26.7071 83.1023 26.5906C82.9536 26.4293 82.8569 26.2269 82.8249 26.0099L80.5803 16.7279L78.3616 26.0012C78.3296 26.2183 78.2329 26.4206 78.0843 26.5819C77.9144 26.6985 77.7085 26.7507 77.5036 26.7292H76.2643ZM94.7763 27.1106C94.0295 27.1118 93.2851 27.0275 92.5576 26.8592C91.979 26.7427 91.4191 26.5474 90.8936 26.2786C90.7356 26.2116 90.601 26.0993 90.5069 25.9558C90.4128 25.8124 90.3633 25.6442 90.3649 25.4726V24.7446C90.3649 24.4441 90.4747 24.2939 90.6943 24.2939C90.7862 24.2953 90.8771 24.3129 90.9629 24.3459L91.3269 24.4932C91.8356 24.7183 92.3675 24.8869 92.9129 24.9959C93.4832 25.1131 94.0641 25.1711 94.6463 25.1692C95.3792 25.2127 96.1094 25.0474 96.7523 24.6926C96.9868 24.5532 97.1797 24.3534 97.3108 24.1141C97.4419 23.8747 97.5064 23.6046 97.4976 23.3319C97.5025 23.1468 97.4706 22.9626 97.4036 22.79C97.3367 22.6174 97.236 22.4599 97.1076 22.3266C96.6701 21.96 96.1541 21.699 95.5996 21.5639L93.5109 20.9052C92.6314 20.6609 91.848 20.1527 91.2663 19.4492C90.8017 18.8519 90.5487 18.1173 90.5469 17.3606C90.5348 16.8013 90.6693 16.2485 90.9369 15.7572C91.1959 15.2951 91.5469 14.891 91.9683 14.5699C92.41 14.234 92.9093 13.9814 93.4416 13.8246C94.0303 13.6547 94.6402 13.5701 95.2529 13.5732C95.5774 13.5729 95.9016 13.5932 96.2236 13.6339C96.5529 13.6743 96.8649 13.7292 97.1596 13.7986C97.4543 13.8679 97.7287 13.943 97.9829 14.0239C98.1922 14.0895 98.3952 14.1736 98.5896 14.2752C98.7537 14.3637 98.8982 14.4846 99.0143 14.6306C99.1059 14.7722 99.1513 14.9387 99.1443 15.1072V15.7919C99.1443 16.0923 99.0345 16.2426 98.8149 16.2426C98.6206 16.2209 98.4323 16.162 98.2603 16.0692C97.3857 15.6893 96.4403 15.5003 95.4869 15.5146C94.8238 15.4801 94.1633 15.6206 93.5716 15.9219C93.3499 16.0514 93.1685 16.2398 93.0477 16.4663C92.9268 16.6928 92.8711 16.9483 92.8869 17.2046C92.8826 17.3952 92.9181 17.5846 92.9913 17.7607C93.0644 17.9368 93.1735 18.0957 93.3116 18.2272C93.7787 18.6009 94.319 18.8725 94.8976 19.0246L96.9429 19.6399C97.809 19.865 98.586 20.3487 99.1703 21.0266C99.6285 21.6213 99.8673 22.3561 99.8463 23.1066C99.8539 23.6865 99.7232 24.2599 99.4649 24.7792C99.2125 25.2753 98.8546 25.7102 98.4163 26.0532C97.9385 26.4223 97.3941 26.6959 96.8129 26.8592C96.1497 27.0405 95.4637 27.1252 94.7763 27.1106Z" fill="#CBCBD7"/>
<path fill-rule="evenodd" clip-rule="evenodd" d="M97.498 34.209C92.7574 37.7103 85.876 39.5736 80 39.5736C72.0722 39.6258 64.4115 36.7106 58.524 31.401C58.082 31.0023 58.472 30.4563 59.0094 30.7596C65.5405 34.4956 72.9352 36.4586 80.4594 36.4536C86.0784 36.4235 91.6361 35.2836 96.8134 33.0996C97.6107 32.7616 98.2867 33.6283 97.498 34.209Z" fill="#CBCBD7"/>
<path fill-rule="evenodd" clip-rule="evenodd" d="M99.4737 31.9552C98.867 31.1752 95.461 31.5912 93.9357 31.7732C93.4763 31.8252 93.3983 31.4266 93.8143 31.1319C96.527 29.2252 100.982 29.7712 101.493 30.4126C102.004 31.0539 101.354 35.5172 98.815 37.6492C98.425 37.9786 98.0523 37.8052 98.2257 37.3719C98.7977 35.9332 100.08 32.7352 99.4737 31.9552Z" fill="#CBCBD7"/>
<path fill-rule="evenodd" clip-rule="evenodd" d="M97.498 34.209C92.7574 37.7103 85.876 39.5736 80 39.5736C72.0722 39.6258 64.4115 36.7106 58.524 31.401C58.082 31.0023 58.472 30.4563 59.0094 30.7596C65.5405 34.4956 72.9352 36.4586 80.4594 36.4536C86.0784 36.4235 91.6361 35.2836 96.8134 33.0996C97.6107 32.7616 98.2867 33.6283 97.498 34.209Z" fill="#FF9900"/>
<path fill-rule="evenodd" clip-rule="evenodd" d="M99.4737 31.9552C98.867 31.1752 95.461 31.5912 93.9357 31.7732C93.4763 31.8252 93.3983 31.4266 93.8143 31.1319C96.527 29.2252 100.982 29.7712 101.493 30.4126C102.004 31.0539 101.354 35.5172 98.815 37.6492C98.425 37.9786 98.0523 37.8052 98.2257 37.3719C98.7977 35.9332 100.08 32.7352 99.4737 31.9552Z" fill="#FF9900"/>
</g>
<rect x="0.5" y="1.07343" width="159" height="51" rx="7.5" stroke="#CBCBD7"/>
<defs>
<clipPath id="clip0_85_310">
<rect width="43.3333" height="26" fill="white" transform="translate(58.3333 13.5734)"/>
</clipPath>
</defs>
</svg>
