<svg width="160" height="53" viewBox="0 0 160 53" fill="none" xmlns="http://www.w3.org/2000/svg">
<rect x="0.5" y="1.07343" width="159" height="51" rx="7.5" fill="#08081A"/>
<rect x="0.5" y="1.07343" width="159" height="51" rx="7.5" stroke="#CBCBD7"/>
<g clip-path="url(#clip0_998_1236)">
<path d="M50.5078 37.6859C54.8146 36.9241 58.3717 36.2936 58.4125 36.285L58.4868 36.2692L54.4208 31.4262C52.1845 28.7625 50.3549 26.5729 50.3549 26.5602C50.3549 26.5363 54.5533 14.9588 54.5769 14.9176C54.5848 14.9038 57.442 19.8434 61.5029 26.8916C65.3048 33.4902 68.4393 38.9307 68.4684 38.9817L68.5214 39.0744L55.5994 39.0727L42.6774 39.0711L50.5078 37.6859ZM100.062 36.5147C98.0952 36.3884 96.9512 35.2668 96.648 33.1674C96.5674 32.609 96.5671 32.5945 96.5588 28.9689L96.5508 25.46H97.4214H98.2919L98.2987 28.8541C98.3049 31.913 98.3088 32.2716 98.338 32.4868C98.4565 33.3601 98.6925 33.9474 99.0942 34.369C99.4157 34.7063 99.7921 34.9039 100.313 35.0087C100.559 35.0582 101.258 35.0583 101.482 35.0089C102.011 34.8925 102.434 34.6623 102.807 34.2885C103.233 33.8624 103.548 33.2579 103.7 32.5743L103.752 32.3439L103.757 28.9211L103.763 25.4984H104.652H105.541V30.879V36.2597H104.661H103.781V35.406C103.781 34.8259 103.775 34.5544 103.762 34.5589C103.751 34.5625 103.705 34.6317 103.661 34.7127C103.358 35.2662 102.853 35.7725 102.3 36.0775C101.636 36.4431 100.971 36.573 100.062 36.5147ZM120.027 36.506C119.333 36.4537 118.602 36.2146 118.004 35.8445C116.745 35.0644 115.999 33.7784 115.781 32.0087C115.706 31.3963 115.697 30.5738 115.76 30.0534C115.9 28.8907 116.357 27.7493 117.006 26.9344C117.173 26.7256 117.551 26.3472 117.759 26.1804C118.323 25.73 118.982 25.4151 119.681 25.2619C120.089 25.1726 120.807 25.1306 121.24 25.1708C122.327 25.2718 123.325 25.7847 124.002 26.592C124.691 27.4122 125.069 28.5582 125.117 29.9694C125.125 30.1906 125.127 30.5784 125.121 30.8311L125.112 31.2907L121.302 31.2955L117.492 31.3003V31.4706C117.492 31.9889 117.618 32.5792 117.835 33.0815C118.023 33.5146 118.346 33.9876 118.61 34.2164C119.152 34.6857 119.816 34.9666 120.542 35.0342C120.811 35.0593 121.497 35.0329 121.804 34.9857C122.679 34.851 123.511 34.5072 124.183 34.0027C124.262 33.9434 124.338 33.8879 124.351 33.8795C124.371 33.8672 124.375 34.0223 124.375 34.6741L124.374 35.4841L124.194 35.5956C123.434 36.0664 122.563 36.3687 121.641 36.4819C121.366 36.5157 120.356 36.5307 120.027 36.506ZM123.343 29.6747C123.343 28.8065 122.978 27.842 122.461 27.3454C122.092 26.991 121.646 26.7744 121.115 26.6922C120.864 26.6532 120.336 26.6682 120.071 26.7218C119.512 26.8349 119.05 27.081 118.646 27.4802C118.222 27.9002 117.903 28.4104 117.703 28.9918C117.631 29.2008 117.547 29.544 117.521 29.7349L117.509 29.8258H120.426H123.343V29.6747ZM71.6606 36.2357C71.6651 36.2225 72.9589 32.819 74.5357 28.6722L77.4027 21.1327L78.3239 21.1326L79.2451 21.1326L79.3215 21.3288C79.5551 21.9286 85.0611 36.2433 85.0611 36.2507C85.0611 36.2556 84.62 36.2596 84.0811 36.2595L83.1011 36.2593L82.3075 34.1436L81.5139 32.0279L78.3187 32.0279L75.1235 32.0278L75.0957 32.0996C75.0804 32.1391 74.7414 33.0911 74.3423 34.2152L73.6166 36.2589L72.6346 36.2592C71.8572 36.2595 71.6542 36.2546 71.6606 36.2357ZM80.9307 30.4133C80.9307 30.41 80.3967 28.9602 79.744 27.1916C78.5229 23.8829 78.4546 23.6839 78.3581 23.1527C78.3129 22.9036 78.29 22.8967 78.2631 23.124C78.2439 23.2864 78.1607 23.6499 78.0965 23.8516C78.0647 23.9516 77.5148 25.463 76.8745 27.2101C76.2343 28.9572 75.7105 30.394 75.7105 30.403C75.7105 30.412 76.885 30.4194 78.3206 30.4194C79.7562 30.4194 80.9307 30.4167 80.9307 30.4133ZM85.6538 35.9841V35.7085L88.8372 31.3263L92.0207 26.944L89.1384 26.9344L86.2562 26.9249L86.2512 26.1925L86.2462 25.46H90.4149H94.5837V25.7074V25.9548L91.3999 30.3609C89.6489 32.7843 88.2162 34.7712 88.2162 34.7762C88.2162 34.7811 89.6317 34.7852 91.3617 34.7852H94.5073V35.5224V36.2596H90.0805H85.6538V35.9841ZM109.014 36.2469C109.007 36.2398 109.002 33.8099 109.002 30.8471V25.46H109.872H110.742V26.5706C110.742 27.1815 110.749 27.6812 110.758 27.6812C110.767 27.6812 110.81 27.5812 110.852 27.459C111.048 26.899 111.387 26.3758 111.824 25.9599C112.218 25.5853 112.668 25.3613 113.199 25.2755C113.348 25.2514 113.474 25.2468 113.773 25.2546C114.147 25.2644 114.343 25.2918 114.571 25.3664L114.643 25.3899V26.2942V27.1986L114.437 27.0955C114.074 26.9135 113.716 26.8415 113.285 26.8639C113.005 26.8785 112.821 26.9145 112.597 26.9988C112.135 27.172 111.761 27.4779 111.5 27.8954C111.122 28.4998 110.852 29.2767 110.772 29.9907C110.758 30.1189 110.75 31.1625 110.746 33.2198L110.741 36.2596H109.884C109.413 36.2596 109.021 36.2539 109.014 36.2469ZM35 36.209C35 36.2022 36.9159 32.8718 39.2575 28.8082L43.515 21.4198L48.4766 17.2502C51.2054 14.957 53.4455 13.0779 53.4545 13.0745C53.4635 13.0711 53.4276 13.1615 53.3747 13.2756C53.3219 13.3896 50.8974 18.5968 47.9871 24.8473L42.6956 36.2118L38.8478 36.2166C36.7315 36.2192 35 36.2158 35 36.209Z" fill="#CBCBD7"/>
<g clip-path="url(#clip1_998_1236)">
<path d="M50.5078 37.6859C54.8146 36.9241 58.3717 36.2936 58.4125 36.285L58.4868 36.2692L54.4208 31.4262C52.1845 28.7625 50.3549 26.5729 50.3549 26.5602C50.3549 26.5363 54.5533 14.9588 54.5769 14.9176C54.5848 14.9038 57.442 19.8434 61.5029 26.8916C65.3048 33.4902 68.4393 38.9307 68.4684 38.9817L68.5214 39.0744L55.5994 39.0727L42.6774 39.0711L50.5078 37.6859ZM100.062 36.5147C98.0952 36.3884 96.9512 35.2668 96.648 33.1674C96.5674 32.609 96.5671 32.5945 96.5588 28.9689L96.5508 25.46H97.4214H98.2919L98.2987 28.8541C98.3049 31.913 98.3088 32.2716 98.338 32.4868C98.4565 33.3601 98.6925 33.9474 99.0942 34.369C99.4157 34.7063 99.7921 34.9039 100.313 35.0087C100.559 35.0582 101.258 35.0583 101.482 35.0089C102.011 34.8925 102.434 34.6623 102.807 34.2885C103.233 33.8624 103.548 33.2579 103.7 32.5743L103.752 32.3439L103.757 28.9211L103.763 25.4984H104.652H105.541V30.879V36.2597H104.661H103.781V35.406C103.781 34.8259 103.775 34.5544 103.762 34.5589C103.751 34.5625 103.705 34.6317 103.661 34.7127C103.358 35.2662 102.853 35.7725 102.3 36.0775C101.636 36.4431 100.971 36.573 100.062 36.5147ZM120.027 36.506C119.333 36.4537 118.602 36.2146 118.004 35.8445C116.745 35.0644 115.999 33.7784 115.781 32.0087C115.706 31.3963 115.697 30.5738 115.76 30.0534C115.9 28.8907 116.357 27.7493 117.006 26.9344C117.173 26.7256 117.551 26.3472 117.759 26.1804C118.323 25.73 118.982 25.4151 119.681 25.2619C120.089 25.1726 120.807 25.1306 121.24 25.1708C122.327 25.2718 123.325 25.7847 124.002 26.592C124.691 27.4122 125.069 28.5582 125.117 29.9694C125.125 30.1906 125.127 30.5784 125.121 30.8311L125.112 31.2907L121.302 31.2955L117.492 31.3003V31.4706C117.492 31.9889 117.618 32.5792 117.835 33.0815C118.023 33.5146 118.346 33.9876 118.61 34.2164C119.152 34.6857 119.816 34.9666 120.542 35.0342C120.811 35.0593 121.497 35.0329 121.804 34.9857C122.679 34.851 123.511 34.5072 124.183 34.0027C124.262 33.9434 124.338 33.8879 124.351 33.8795C124.371 33.8672 124.375 34.0223 124.375 34.6741L124.374 35.4841L124.194 35.5956C123.434 36.0664 122.563 36.3687 121.641 36.4819C121.366 36.5157 120.356 36.5307 120.027 36.506ZM123.343 29.6747C123.343 28.8065 122.978 27.842 122.461 27.3454C122.092 26.991 121.646 26.7744 121.115 26.6922C120.864 26.6532 120.336 26.6682 120.071 26.7218C119.512 26.8349 119.05 27.081 118.646 27.4802C118.222 27.9002 117.903 28.4104 117.703 28.9918C117.631 29.2008 117.547 29.544 117.521 29.7349L117.509 29.8258H120.426H123.343V29.6747ZM71.6606 36.2357C71.6651 36.2225 72.9589 32.819 74.5357 28.6722L77.4027 21.1327L78.3239 21.1326L79.2451 21.1326L79.3215 21.3288C79.5551 21.9286 85.0611 36.2433 85.0611 36.2507C85.0611 36.2556 84.62 36.2596 84.0811 36.2595L83.1011 36.2593L82.3075 34.1436L81.5139 32.0279L78.3187 32.0279L75.1235 32.0278L75.0957 32.0996C75.0804 32.1391 74.7414 33.0911 74.3423 34.2152L73.6166 36.2589L72.6346 36.2592C71.8572 36.2595 71.6542 36.2546 71.6606 36.2357ZM80.9307 30.4133C80.9307 30.41 80.3967 28.9602 79.744 27.1916C78.5229 23.8829 78.4546 23.6839 78.3581 23.1527C78.3129 22.9036 78.29 22.8967 78.2631 23.124C78.2439 23.2864 78.1607 23.6499 78.0965 23.8516C78.0647 23.9516 77.5148 25.463 76.8745 27.2101C76.2343 28.9572 75.7105 30.394 75.7105 30.403C75.7105 30.412 76.885 30.4194 78.3206 30.4194C79.7562 30.4194 80.9307 30.4167 80.9307 30.4133ZM85.6538 35.9841V35.7085L88.8372 31.3263L92.0207 26.944L89.1384 26.9344L86.2562 26.9249L86.2512 26.1925L86.2462 25.46H90.4149H94.5837V25.7074V25.9548L91.3999 30.3609C89.6489 32.7843 88.2162 34.7712 88.2162 34.7762C88.2162 34.7811 89.6317 34.7852 91.3617 34.7852H94.5073V35.5224V36.2596H90.0805H85.6538V35.9841ZM109.014 36.2469C109.007 36.2398 109.002 33.8099 109.002 30.8471V25.46H109.872H110.742V26.5706C110.742 27.1815 110.749 27.6812 110.758 27.6812C110.767 27.6812 110.81 27.5812 110.852 27.459C111.048 26.899 111.387 26.3758 111.824 25.9599C112.218 25.5853 112.668 25.3613 113.199 25.2755C113.348 25.2514 113.474 25.2468 113.773 25.2546C114.147 25.2644 114.343 25.2918 114.571 25.3664L114.643 25.3899V26.2942V27.1986L114.437 27.0955C114.074 26.9135 113.716 26.8415 113.285 26.8639C113.005 26.8785 112.821 26.9145 112.597 26.9988C112.135 27.172 111.761 27.4779 111.5 27.8954C111.122 28.4998 110.852 29.2767 110.772 29.9907C110.758 30.1189 110.75 31.1625 110.746 33.2198L110.741 36.2596H109.884C109.413 36.2596 109.021 36.2539 109.014 36.2469ZM35 36.209C35 36.2022 36.9159 32.8718 39.2575 28.8082L43.515 21.4198L48.4766 17.2502C51.2054 14.957 53.4455 13.0779 53.4545 13.0745C53.4635 13.0711 53.4276 13.1615 53.3747 13.2756C53.3219 13.3896 50.8974 18.5968 47.9871 24.8473L42.6956 36.2118L38.8478 36.2166C36.7315 36.2192 35 36.2158 35 36.209Z" fill="#3B87D0"/>
</g>
</g>
<defs>
<clipPath id="clip0_998_1236">
<rect width="90" height="27" fill="white" transform="translate(35 13.0734)"/>
</clipPath>
<clipPath id="clip1_998_1236">
<rect width="35" height="27" fill="white" transform="translate(34 12.5734)"/>
</clipPath>
</defs>
</svg>
