<svg width="220" height="65" viewBox="0 0 220 65" fill="none" xmlns="http://www.w3.org/2000/svg">
<rect y="0.573242" width="220" height="64" rx="8" fill="#3C38FE"/>
<rect x="77.25" y="24.25" width="68.5" height="19.5" rx="4.75" fill="#0E1116" fill-opacity="0.3" stroke="#4085F9" stroke-width="0.5"/>
<path d="M85.0871 36.845C85.5211 36.845 85.8688 36.7703 86.1301 36.621C86.3961 36.467 86.5291 36.2523 86.5291 35.977C86.5291 35.795 86.4848 35.641 86.3961 35.515C86.3121 35.389 86.1441 35.2723 85.8921 35.165C85.6401 35.053 85.2621 34.9293 84.7581 34.794C84.2821 34.6727 83.8645 34.5233 83.5051 34.346C83.1505 34.164 82.8728 33.9307 82.6721 33.646C82.4761 33.3613 82.3781 33.002 82.3781 32.568C82.3781 32.134 82.4995 31.7537 82.7421 31.427C82.9848 31.0957 83.3348 30.839 83.7921 30.657C84.2541 30.4703 84.8095 30.377 85.4581 30.377C86.0928 30.377 86.6481 30.461 87.1241 30.629C87.6001 30.7923 88.0085 30.9977 88.3491 31.245L87.5931 32.372C87.2945 32.1807 86.9701 32.0267 86.6201 31.91C86.2748 31.7887 85.9015 31.728 85.5001 31.728C85.0661 31.728 84.7488 31.791 84.5481 31.917C84.3521 32.043 84.2541 32.218 84.2541 32.442C84.2541 32.6007 84.3031 32.736 84.4011 32.848C84.5038 32.9553 84.6858 33.0603 84.9471 33.163C85.2131 33.261 85.5911 33.38 86.0811 33.52C86.5618 33.6507 86.9795 33.8047 87.3341 33.982C87.6935 34.1593 87.9711 34.395 88.1671 34.689C88.3631 34.983 88.4611 35.368 88.4611 35.844C88.4611 36.3807 88.3048 36.824 87.9921 37.174C87.6795 37.524 87.2665 37.7853 86.7531 37.958C86.2445 38.126 85.6915 38.21 85.0941 38.21C84.3941 38.21 83.7828 38.1097 83.2601 37.909C82.7375 37.7083 82.2941 37.4493 81.9301 37.132L82.8891 36.054C83.1785 36.2827 83.5075 36.4717 83.8761 36.621C84.2495 36.7703 84.6531 36.845 85.0871 36.845ZM97.6537 30.587L95.1407 38.014C94.9353 38.6207 94.6693 39.141 94.3427 39.575C94.016 40.009 93.603 40.352 93.1037 40.604C92.609 40.8607 92.0023 41.0123 91.2837 41.059L91.0527 39.722C91.552 39.652 91.951 39.547 92.2497 39.407C92.5483 39.267 92.7863 39.0827 92.9637 38.854C93.1457 38.6253 93.302 38.3407 93.4327 38H92.8027L90.3737 30.587H92.3267L94.0067 36.768L95.7567 30.587H97.6537ZM102.436 36.845C102.87 36.845 103.218 36.7703 103.479 36.621C103.745 36.467 103.878 36.2523 103.878 35.977C103.878 35.795 103.834 35.641 103.745 35.515C103.661 35.389 103.493 35.2723 103.241 35.165C102.989 35.053 102.611 34.9293 102.107 34.794C101.631 34.6727 101.214 34.5233 100.854 34.346C100.5 34.164 100.222 33.9307 100.021 33.646C99.8252 33.3613 99.7272 33.002 99.7272 32.568C99.7272 32.134 99.8485 31.7537 100.091 31.427C100.334 31.0957 100.684 30.839 101.141 30.657C101.603 30.4703 102.159 30.377 102.807 30.377C103.442 30.377 103.997 30.461 104.473 30.629C104.949 30.7923 105.358 30.9977 105.698 31.245L104.942 32.372C104.644 32.1807 104.319 32.0267 103.969 31.91C103.624 31.7887 103.251 31.728 102.849 31.728C102.415 31.728 102.098 31.791 101.897 31.917C101.701 32.043 101.603 32.218 101.603 32.442C101.603 32.6007 101.652 32.736 101.75 32.848C101.853 32.9553 102.035 33.0603 102.296 33.163C102.562 33.261 102.94 33.38 103.43 33.52C103.911 33.6507 104.329 33.8047 104.683 33.982C105.043 34.1593 105.32 34.395 105.516 34.689C105.712 34.983 105.81 35.368 105.81 35.844C105.81 36.3807 105.654 36.824 105.341 37.174C105.029 37.524 104.616 37.7853 104.102 37.958C103.594 38.126 103.041 38.21 102.443 38.21C101.743 38.21 101.132 38.1097 100.609 37.909C100.087 37.7083 99.6432 37.4493 99.2792 37.132L100.238 36.054C100.528 36.2827 100.857 36.4717 101.225 36.621C101.599 36.7703 102.002 36.845 102.436 36.845ZM114.688 37.587C114.412 37.769 114.079 37.9183 113.687 38.035C113.295 38.1517 112.87 38.21 112.413 38.21C111.507 38.21 110.826 37.9767 110.369 37.51C109.911 37.0387 109.683 36.4133 109.683 35.634V31.896H108.073V30.587H109.683V28.956L111.531 28.732V30.587H113.981L113.792 31.896H111.531V35.627C111.531 36.0097 111.624 36.2897 111.811 36.467C111.997 36.6443 112.298 36.733 112.714 36.733C112.98 36.733 113.222 36.7027 113.442 36.642C113.666 36.5767 113.869 36.495 114.051 36.397L114.688 37.587ZM118.539 34.857C118.577 35.319 118.682 35.6947 118.854 35.984C119.032 36.2733 119.258 36.4857 119.533 36.621C119.809 36.7563 120.114 36.824 120.45 36.824C120.805 36.824 121.139 36.768 121.451 36.656C121.764 36.544 122.072 36.3877 122.375 36.187L123.145 37.244C122.8 37.5333 122.387 37.7667 121.906 37.944C121.43 38.1213 120.905 38.21 120.331 38.21C119.529 38.21 118.852 38.0443 118.301 37.713C117.755 37.3817 117.342 36.922 117.062 36.334C116.782 35.746 116.642 35.0693 116.642 34.304C116.642 33.5667 116.78 32.9017 117.055 32.309C117.331 31.7163 117.727 31.2473 118.245 30.902C118.763 30.552 119.389 30.377 120.121 30.377C120.803 30.377 121.391 30.5263 121.885 30.825C122.38 31.1237 122.763 31.553 123.033 32.113C123.304 32.6683 123.439 33.338 123.439 34.122C123.439 34.248 123.435 34.3763 123.425 34.507C123.421 34.6377 123.414 34.7543 123.404 34.857H118.539ZM120.128 31.679C119.68 31.679 119.312 31.84 119.022 32.162C118.738 32.4793 118.57 32.9833 118.518 33.674H121.64C121.631 33.0487 121.5 32.561 121.248 32.211C121.001 31.8563 120.628 31.679 120.128 31.679ZM130.91 30.377C131.227 30.377 131.498 30.4447 131.722 30.58C131.946 30.7107 132.118 30.9323 132.24 31.245C132.361 31.553 132.422 31.973 132.422 32.505V38H130.812V32.736C130.812 32.4 130.784 32.162 130.728 32.022C130.676 31.882 130.557 31.812 130.371 31.812C130.217 31.812 130.06 31.8587 129.902 31.952C129.748 32.0407 129.587 32.2017 129.419 32.435V38H128.026V32.736C128.026 32.4 127.998 32.162 127.942 32.022C127.89 31.882 127.771 31.812 127.585 31.812C127.426 31.812 127.27 31.8587 127.116 31.952C126.962 32.0407 126.801 32.2017 126.633 32.435V38H125.002V30.587H126.381L126.5 31.357C126.719 31.049 126.95 30.8087 127.193 30.636C127.435 30.4633 127.727 30.377 128.068 30.377C128.348 30.377 128.595 30.447 128.81 30.587C129.029 30.7223 129.185 30.9557 129.279 31.287C129.493 31.0163 129.734 30.797 130 30.629C130.266 30.461 130.569 30.377 130.91 30.377ZM138.611 27.43L140.459 27.626V38H138.821L138.709 37.125C138.481 37.4517 138.194 37.7153 137.848 37.916C137.503 38.112 137.102 38.21 136.644 38.21C136.019 38.21 135.501 38.0467 135.09 37.72C134.684 37.3933 134.381 36.936 134.18 36.348C133.984 35.7553 133.886 35.067 133.886 34.283C133.886 33.527 134.003 32.855 134.236 32.267C134.47 31.679 134.806 31.217 135.244 30.881C135.688 30.545 136.213 30.377 136.819 30.377C137.183 30.377 137.515 30.44 137.813 30.566C138.112 30.692 138.378 30.8787 138.611 31.126V27.43ZM137.316 31.756C136.85 31.756 136.481 31.959 136.21 32.365C135.944 32.7663 135.811 33.408 135.811 34.29C135.811 34.9107 135.867 35.4077 135.979 35.781C136.091 36.1497 136.25 36.4157 136.455 36.579C136.661 36.7423 136.903 36.824 137.183 36.824C137.491 36.824 137.762 36.733 137.995 36.551C138.233 36.3643 138.439 36.1333 138.611 35.858V32.484C138.439 32.2553 138.245 32.078 138.03 31.952C137.82 31.8213 137.582 31.756 137.316 31.756Z" fill="#DAC3FF"/>
</svg>
