<svg width="151" height="129" viewBox="0 0 151 129" fill="none" xmlns="http://www.w3.org/2000/svg">
<circle cx="70.4522" cy="32.5736" r="32" fill="#5452F6"/>
<rect x="51.4839" y="11.5736" width="61.0638" height="41.083" rx="2" fill="#5552FF"/>
<path d="M51.4839 16.8182H112.548V50.6566C112.548 51.7612 111.652 52.6566 110.548 52.6566H53.4839C52.3794 52.6566 51.4839 51.7612 51.4839 50.6566V16.8182Z" fill="#0F0F32"/>
<ellipse cx="54.9735" cy="14.1959" rx="0.872341" ry="0.874107" fill="#D9D9D9"/>
<ellipse cx="58.4626" cy="14.1959" rx="0.872341" ry="0.874107" fill="#AEB6FF"/>
<ellipse cx="61.9522" cy="14.1959" rx="0.872341" ry="0.874107" fill="#DAC3FF"/>
<path d="M66.9839 24.012L69.7291 26.8544L66.9839 29.6969L68.3565 31.113L72.4839 26.8544L68.3565 22.5958L66.9839 24.012Z" fill="#6D7CFF"/>
<path d="M61.4839 32.0338L65.9839 22.5338" stroke="#6D7CFF" stroke-linejoin="round"/>
<path d="M60.4839 24.012L57.7388 26.8544L60.4839 29.6969L59.1114 31.113L54.9839 26.8544L59.1114 22.5958L60.4839 24.012Z" fill="#6D7CFF"/>
<path d="M7.95946 95.5436C7.42746 95.5436 6.94679 95.6369 6.51746 95.8236C6.08813 96.0009 5.72413 96.2669 5.42546 96.6216C5.12679 96.9669 4.89813 97.3916 4.73946 97.8956C4.58079 98.3903 4.50146 98.9503 4.50146 99.5756C4.50146 100.397 4.62746 101.111 4.87946 101.718C5.14079 102.324 5.52346 102.791 6.02746 103.118C6.54079 103.444 7.18013 103.608 7.94546 103.608C8.38413 103.608 8.79946 103.57 9.19146 103.496C9.58346 103.421 9.96613 103.328 10.3395 103.216V104.308C9.96613 104.448 9.57879 104.55 9.17746 104.616C8.78546 104.681 8.31413 104.714 7.76346 104.714C6.74613 104.714 5.89679 104.504 5.21546 104.084C4.53413 103.664 4.02079 103.066 3.67546 102.292C3.33946 101.517 3.17146 100.607 3.17146 99.5616C3.17146 98.8056 3.27413 98.1149 3.47946 97.4896C3.69413 96.8643 4.00213 96.3229 4.40346 95.8656C4.81413 95.4083 5.31813 95.0583 5.91546 94.8156C6.51279 94.5636 7.19879 94.4376 7.97346 94.4376C8.48679 94.4376 8.98146 94.4889 9.45746 94.5916C9.93346 94.6943 10.3581 94.8389 10.7315 95.0256L10.2275 96.0896C9.91946 95.9496 9.57413 95.8236 9.19146 95.7116C8.81813 95.5996 8.40746 95.5436 7.95946 95.5436ZM19.1572 100.808C19.1572 101.433 19.0732 101.988 18.9052 102.474C18.7465 102.95 18.5132 103.356 18.2052 103.692C17.9065 104.028 17.5378 104.284 17.0992 104.462C16.6698 104.63 16.1892 104.714 15.6572 104.714C15.1625 104.714 14.7052 104.63 14.2852 104.462C13.8652 104.284 13.5012 104.028 13.1932 103.692C12.8852 103.356 12.6425 102.95 12.4652 102.474C12.2972 101.988 12.2132 101.433 12.2132 100.808C12.2132 99.9769 12.3532 99.2769 12.6332 98.7076C12.9132 98.1289 13.3145 97.6903 13.8372 97.3916C14.3598 97.0836 14.9805 96.9296 15.6992 96.9296C16.3805 96.9296 16.9778 97.0836 17.4912 97.3916C18.0138 97.6903 18.4198 98.1289 18.7092 98.7076C19.0078 99.2769 19.1572 99.9769 19.1572 100.808ZM13.4872 100.808C13.4872 101.396 13.5618 101.909 13.7112 102.348C13.8698 102.777 14.1125 103.108 14.4392 103.342C14.7658 103.575 15.1812 103.692 15.6852 103.692C16.1892 103.692 16.6045 103.575 16.9312 103.342C17.2578 103.108 17.4958 102.777 17.6452 102.348C17.8038 101.909 17.8832 101.396 17.8832 100.808C17.8832 100.21 17.8038 99.7016 17.6452 99.2816C17.4865 98.8616 17.2438 98.5396 16.9172 98.3156C16.5998 98.0823 16.1845 97.9656 15.6712 97.9656C14.9058 97.9656 14.3505 98.2176 14.0052 98.7216C13.6598 99.2256 13.4872 99.9209 13.4872 100.808ZM22.7683 104.574L19.9263 97.0696H21.2423L22.8383 101.494C22.913 101.699 22.9923 101.928 23.0763 102.18C23.1603 102.432 23.235 102.674 23.3003 102.908C23.3656 103.132 23.4123 103.323 23.4403 103.482H23.4963C23.5336 103.323 23.585 103.127 23.6503 102.894C23.725 102.66 23.8043 102.418 23.8883 102.166C23.9816 101.914 24.061 101.69 24.1263 101.494L25.7223 97.0696H27.0383L24.1823 104.574H22.7683ZM31.3477 96.9436C32.2623 96.9436 32.939 97.1443 33.3777 97.5456C33.8163 97.9469 34.0357 98.5863 34.0357 99.4636V104.574H33.1397L32.9017 103.51H32.8457C32.631 103.78 32.407 104.009 32.1737 104.196C31.9497 104.373 31.6883 104.504 31.3897 104.588C31.1003 104.672 30.7457 104.714 30.3257 104.714C29.8777 104.714 29.4717 104.634 29.1077 104.476C28.753 104.317 28.473 104.074 28.2677 103.748C28.0623 103.412 27.9597 102.992 27.9597 102.488C27.9597 101.741 28.2537 101.167 28.8417 100.766C29.4297 100.355 30.335 100.131 31.5577 100.094L32.8317 100.052V99.6036C32.8317 98.9783 32.6963 98.5443 32.4257 98.3016C32.155 98.0589 31.7723 97.9376 31.2777 97.9376C30.8857 97.9376 30.5123 97.9983 30.1577 98.1196C29.803 98.2316 29.4717 98.3623 29.1637 98.5116L28.7857 97.5876C29.1123 97.4103 29.4997 97.2609 29.9477 97.1396C30.3957 97.0089 30.8623 96.9436 31.3477 96.9436ZM31.7117 100.948C30.7783 100.985 30.1297 101.134 29.7657 101.396C29.411 101.657 29.2337 102.026 29.2337 102.502C29.2337 102.922 29.3597 103.23 29.6117 103.426C29.873 103.622 30.2043 103.72 30.6057 103.72C31.2403 103.72 31.7677 103.547 32.1877 103.202C32.6077 102.847 32.8177 102.306 32.8177 101.578V100.906L31.7117 100.948ZM37.8653 104.574H36.6333V93.9336H37.8653V104.574ZM43.4207 96.9296C44.0647 96.9296 44.6154 97.0696 45.0727 97.3496C45.5394 97.6296 45.894 98.0263 46.1367 98.5396C46.3887 99.0436 46.5147 99.6363 46.5147 100.318V101.06H41.3767C41.3954 101.909 41.61 102.558 42.0207 103.006C42.4407 103.444 43.024 103.664 43.7707 103.664C44.2467 103.664 44.6667 103.622 45.0307 103.538C45.404 103.444 45.7867 103.314 46.1787 103.146V104.224C45.796 104.392 45.418 104.513 45.0447 104.588C44.6714 104.672 44.228 104.714 43.7147 104.714C43.0054 104.714 42.3754 104.569 41.8247 104.28C41.2834 103.99 40.8587 103.561 40.5507 102.992C40.252 102.413 40.1027 101.708 40.1027 100.878C40.1027 100.056 40.238 99.3516 40.5087 98.7636C40.7887 98.1756 41.176 97.7229 41.6707 97.4056C42.1747 97.0883 42.758 96.9296 43.4207 96.9296ZM43.4067 97.9376C42.8187 97.9376 42.352 98.1289 42.0067 98.5116C41.6707 98.8849 41.47 99.4076 41.4047 100.08H45.2267C45.2267 99.6503 45.1614 99.2769 45.0307 98.9596C44.9 98.6423 44.6994 98.3949 44.4287 98.2176C44.1674 98.0309 43.8267 97.9376 43.4067 97.9376ZM52.317 96.9296C53.213 96.9296 53.8897 97.1489 54.347 97.5876C54.8044 98.0169 55.033 98.7169 55.033 99.6876V104.574H53.815V99.7716C53.815 99.1649 53.6797 98.7123 53.409 98.4136C53.1384 98.1149 52.7137 97.9656 52.135 97.9656C51.3044 97.9656 50.7304 98.1989 50.413 98.6656C50.0957 99.1323 49.937 99.8043 49.937 100.682V104.574H48.705V97.0696H49.699L49.881 98.0916H49.951C50.119 97.8303 50.3244 97.6156 50.567 97.4476C50.819 97.2703 51.0944 97.1396 51.393 97.0556C51.6917 96.9716 51.9997 96.9296 52.317 96.9296ZM60.1453 103.706C60.332 103.706 60.5233 103.692 60.7193 103.664C60.9153 103.626 61.074 103.589 61.1953 103.552V104.49C61.0647 104.555 60.878 104.606 60.6353 104.644C60.3927 104.69 60.1593 104.714 59.9353 104.714C59.5433 104.714 59.1793 104.648 58.8433 104.518C58.5167 104.378 58.2507 104.14 58.0453 103.804C57.84 103.468 57.7373 102.996 57.7373 102.39V98.0216H56.6733V97.4336L57.7513 96.9436L58.2413 95.3476H58.9693V97.0696H61.1393V98.0216H58.9693V102.362C58.9693 102.819 59.0767 103.16 59.2913 103.384C59.5153 103.598 59.8 103.706 60.1453 103.706ZM68.1267 97.0696V104.574H66.8947V97.0696H68.1267ZM67.5247 94.2556C67.7113 94.2556 67.8747 94.3209 68.0147 94.4516C68.164 94.5729 68.2387 94.7689 68.2387 95.0396C68.2387 95.3009 68.164 95.4969 68.0147 95.6276C67.8747 95.7583 67.7113 95.8236 67.5247 95.8236C67.3193 95.8236 67.1467 95.7583 67.0067 95.6276C66.8667 95.4969 66.7967 95.3009 66.7967 95.0396C66.7967 94.7689 66.8667 94.5729 67.0067 94.4516C67.1467 94.3209 67.3193 94.2556 67.5247 94.2556ZM74.396 96.9296C75.292 96.9296 75.9687 97.1489 76.426 97.5876C76.8834 98.0169 77.112 98.7169 77.112 99.6876V104.574H75.894V99.7716C75.894 99.1649 75.7587 98.7123 75.488 98.4136C75.2174 98.1149 74.7927 97.9656 74.214 97.9656C73.3834 97.9656 72.8094 98.1989 72.492 98.6656C72.1747 99.1323 72.016 99.8043 72.016 100.682V104.574H70.784V97.0696H71.778L71.96 98.0916H72.03C72.198 97.8303 72.4034 97.6156 72.646 97.4476C72.898 97.2703 73.1734 97.1396 73.472 97.0556C73.7707 96.9716 74.0787 96.9296 74.396 96.9296ZM86.141 103.706C86.3277 103.706 86.519 103.692 86.715 103.664C86.911 103.626 87.0697 103.589 87.191 103.552V104.49C87.0604 104.555 86.8737 104.606 86.631 104.644C86.3884 104.69 86.155 104.714 85.931 104.714C85.539 104.714 85.175 104.648 84.839 104.518C84.5124 104.378 84.2464 104.14 84.041 103.804C83.8357 103.468 83.733 102.996 83.733 102.39V98.0216H82.669V97.4336L83.747 96.9436L84.237 95.3476H84.965V97.0696H87.135V98.0216H84.965V102.362C84.965 102.819 85.0724 103.16 85.287 103.384C85.511 103.598 85.7957 103.706 86.141 103.706ZM90.2056 97.0556C90.2056 97.2329 90.1963 97.4149 90.1776 97.6016C90.1683 97.7883 90.1543 97.9563 90.1356 98.1056H90.2196C90.3783 97.8443 90.579 97.6296 90.8216 97.4616C91.0643 97.2936 91.335 97.1676 91.6336 97.0836C91.9323 96.9903 92.2403 96.9436 92.5576 96.9436C93.1643 96.9436 93.6683 97.0416 94.0696 97.2376C94.4803 97.4243 94.7883 97.7183 94.9936 98.1196C95.199 98.5209 95.3016 99.0436 95.3016 99.6876V104.574H94.0836V99.7716C94.0836 99.1649 93.9483 98.7123 93.6776 98.4136C93.407 98.1149 92.9823 97.9656 92.4036 97.9656C91.8436 97.9656 91.405 98.0729 91.0876 98.2876C90.7703 98.4929 90.5416 98.8009 90.4016 99.2116C90.271 99.6129 90.2056 100.108 90.2056 100.696V104.574H88.9736V93.9336H90.2056V97.0556ZM100.806 96.9296C101.45 96.9296 102.001 97.0696 102.458 97.3496C102.925 97.6296 103.279 98.0263 103.522 98.5396C103.774 99.0436 103.9 99.6363 103.9 100.318V101.06H98.7619C98.7806 101.909 98.9953 102.558 99.4059 103.006C99.8259 103.444 100.409 103.664 101.156 103.664C101.632 103.664 102.052 103.622 102.416 103.538C102.789 103.444 103.172 103.314 103.564 103.146V104.224C103.181 104.392 102.803 104.513 102.43 104.588C102.057 104.672 101.613 104.714 101.1 104.714C100.391 104.714 99.7606 104.569 99.2099 104.28C98.6686 103.99 98.2439 103.561 97.9359 102.992C97.6373 102.413 97.4879 101.708 97.4879 100.878C97.4879 100.056 97.6233 99.3516 97.8939 98.7636C98.1739 98.1756 98.5613 97.7229 99.0559 97.4056C99.5599 97.0883 100.143 96.9296 100.806 96.9296ZM100.792 97.9376C100.204 97.9376 99.7373 98.1289 99.3919 98.5116C99.0559 98.8849 98.8553 99.4076 98.7899 100.08H102.612C102.612 99.6503 102.547 99.2769 102.416 98.9596C102.285 98.6423 102.085 98.3949 101.814 98.2176C101.553 98.0309 101.212 97.9376 100.792 97.9376ZM112.905 96.9296C113.549 96.9296 114.1 97.0696 114.557 97.3496C115.024 97.6296 115.378 98.0263 115.621 98.5396C115.873 99.0436 115.999 99.6363 115.999 100.318V101.06H110.861C110.88 101.909 111.094 102.558 111.505 103.006C111.925 103.444 112.508 103.664 113.255 103.664C113.731 103.664 114.151 103.622 114.515 103.538C114.888 103.444 115.271 103.314 115.663 103.146V104.224C115.28 104.392 114.902 104.513 114.529 104.588C114.156 104.672 113.712 104.714 113.199 104.714C112.49 104.714 111.86 104.569 111.309 104.28C110.768 103.99 110.343 103.561 110.035 102.992C109.736 102.413 109.587 101.708 109.587 100.878C109.587 100.056 109.722 99.3516 109.993 98.7636C110.273 98.1756 110.66 97.7229 111.155 97.4056C111.659 97.0883 112.242 96.9296 112.905 96.9296ZM112.891 97.9376C112.303 97.9376 111.836 98.1289 111.491 98.5116C111.155 98.8849 110.954 99.4076 110.889 100.08H114.711C114.711 99.6503 114.646 99.2769 114.515 98.9596C114.384 98.6423 114.184 98.3949 113.913 98.2176C113.652 98.0309 113.311 97.9376 112.891 97.9376ZM121.689 96.9296C121.829 96.9296 121.979 96.9389 122.137 96.9576C122.305 96.9669 122.45 96.9856 122.571 97.0136L122.417 98.1476C122.296 98.1196 122.161 98.0963 122.011 98.0776C121.871 98.0589 121.736 98.0496 121.605 98.0496C121.316 98.0496 121.041 98.1103 120.779 98.2316C120.518 98.3529 120.285 98.5256 120.079 98.7496C119.874 98.9643 119.711 99.2256 119.589 99.5336C119.477 99.8416 119.421 100.187 119.421 100.57V104.574H118.189V97.0696H119.197L119.337 98.4416H119.393C119.552 98.1616 119.743 97.9096 119.967 97.6856C120.191 97.4523 120.448 97.2703 120.737 97.1396C121.027 96.9996 121.344 96.9296 121.689 96.9296ZM126.821 96.9436C127.736 96.9436 128.412 97.1443 128.851 97.5456C129.29 97.9469 129.509 98.5863 129.509 99.4636V104.574H128.613L128.375 103.51H128.319C128.104 103.78 127.88 104.009 127.647 104.196C127.423 104.373 127.162 104.504 126.863 104.588C126.574 104.672 126.219 104.714 125.799 104.714C125.351 104.714 124.945 104.634 124.581 104.476C124.226 104.317 123.946 104.074 123.741 103.748C123.536 103.412 123.433 102.992 123.433 102.488C123.433 101.741 123.727 101.167 124.315 100.766C124.903 100.355 125.808 100.131 127.031 100.094L128.305 100.052V99.6036C128.305 98.9783 128.17 98.5443 127.899 98.3016C127.628 98.0589 127.246 97.9376 126.751 97.9376C126.359 97.9376 125.986 97.9983 125.631 98.1196C125.276 98.2316 124.945 98.3623 124.637 98.5116L124.259 97.5876C124.586 97.4103 124.973 97.2609 125.421 97.1396C125.869 97.0089 126.336 96.9436 126.821 96.9436ZM127.185 100.948C126.252 100.985 125.603 101.134 125.239 101.396C124.884 101.657 124.707 102.026 124.707 102.502C124.707 102.922 124.833 103.23 125.085 103.426C125.346 103.622 125.678 103.72 126.079 103.72C126.714 103.72 127.241 103.547 127.661 103.202C128.081 102.847 128.291 102.306 128.291 101.578V100.906L127.185 100.948ZM142.547 100.808C142.547 101.433 142.463 101.988 142.295 102.474C142.137 102.95 141.903 103.356 141.595 103.692C141.297 104.028 140.928 104.284 140.489 104.462C140.06 104.63 139.579 104.714 139.047 104.714C138.553 104.714 138.095 104.63 137.675 104.462C137.255 104.284 136.891 104.028 136.583 103.692C136.275 103.356 136.033 102.95 135.855 102.474C135.687 101.988 135.603 101.433 135.603 100.808C135.603 99.9769 135.743 99.2769 136.023 98.7076C136.303 98.1289 136.705 97.6903 137.227 97.3916C137.75 97.0836 138.371 96.9296 139.089 96.9296C139.771 96.9296 140.368 97.0836 140.881 97.3916C141.404 97.6903 141.81 98.1289 142.099 98.7076C142.398 99.2769 142.547 99.9769 142.547 100.808ZM136.877 100.808C136.877 101.396 136.952 101.909 137.101 102.348C137.26 102.777 137.503 103.108 137.829 103.342C138.156 103.575 138.571 103.692 139.075 103.692C139.579 103.692 139.995 103.575 140.321 103.342C140.648 103.108 140.886 102.777 141.035 102.348C141.194 101.909 141.273 101.396 141.273 100.808C141.273 100.21 141.194 99.7016 141.035 99.2816C140.877 98.8616 140.634 98.5396 140.307 98.3156C139.99 98.0823 139.575 97.9656 139.061 97.9656C138.296 97.9656 137.741 98.2176 137.395 98.7216C137.05 99.2256 136.877 99.9209 136.877 100.808ZM148.238 98.0216H146.348V104.574H145.116V98.0216H143.8V97.4476L145.116 97.0276V96.5936C145.116 95.9496 145.209 95.4269 145.396 95.0256C145.592 94.6243 145.872 94.3303 146.236 94.1436C146.6 93.9569 147.039 93.8636 147.552 93.8636C147.851 93.8636 148.121 93.8916 148.364 93.9476C148.616 93.9943 148.831 94.0503 149.008 94.1156L148.686 95.0816C148.537 95.0349 148.364 94.9883 148.168 94.9416C147.972 94.8949 147.771 94.8716 147.566 94.8716C147.155 94.8716 146.847 95.0116 146.642 95.2916C146.446 95.5623 146.348 95.9916 146.348 96.5796V97.0696H148.238V98.0216ZM44.2945 123.714C43.6318 123.714 43.0392 123.578 42.5165 123.308C42.0032 123.037 41.5972 122.617 41.2985 122.048C41.0092 121.478 40.8645 120.75 40.8645 119.864C40.8645 118.94 41.0185 118.188 41.3265 117.61C41.6345 117.031 42.0498 116.606 42.5725 116.336C43.1045 116.065 43.7065 115.93 44.3785 115.93C44.7612 115.93 45.1298 115.972 45.4845 116.056C45.8392 116.13 46.1285 116.224 46.3525 116.336L45.9745 117.358C45.7505 117.274 45.4892 117.194 45.1905 117.12C44.8918 117.045 44.6118 117.008 44.3505 117.008C43.8465 117.008 43.4312 117.115 43.1045 117.33C42.7778 117.544 42.5352 117.862 42.3765 118.282C42.2178 118.702 42.1385 119.224 42.1385 119.85C42.1385 120.447 42.2178 120.956 42.3765 121.376C42.5352 121.796 42.7732 122.113 43.0905 122.328C43.4078 122.542 43.8045 122.65 44.2805 122.65C44.6912 122.65 45.0505 122.608 45.3585 122.524C45.6758 122.44 45.9652 122.337 46.2265 122.216V123.308C45.9745 123.438 45.6945 123.536 45.3865 123.602C45.0878 123.676 44.7238 123.714 44.2945 123.714ZM49.5231 123.574H48.2911V112.934H49.5231V123.574ZM58.7044 119.808C58.7044 120.433 58.6204 120.988 58.4524 121.474C58.2938 121.95 58.0604 122.356 57.7524 122.692C57.4538 123.028 57.0851 123.284 56.6464 123.462C56.2171 123.63 55.7364 123.714 55.2044 123.714C54.7098 123.714 54.2524 123.63 53.8324 123.462C53.4124 123.284 53.0484 123.028 52.7404 122.692C52.4324 122.356 52.1898 121.95 52.0124 121.474C51.8444 120.988 51.7604 120.433 51.7604 119.808C51.7604 118.977 51.9004 118.277 52.1804 117.708C52.4604 117.129 52.8618 116.69 53.3844 116.392C53.9071 116.084 54.5278 115.93 55.2464 115.93C55.9278 115.93 56.5251 116.084 57.0384 116.392C57.5611 116.69 57.9671 117.129 58.2564 117.708C58.5551 118.277 58.7044 118.977 58.7044 119.808ZM53.0344 119.808C53.0344 120.396 53.1091 120.909 53.2584 121.348C53.4171 121.777 53.6598 122.108 53.9864 122.342C54.3131 122.575 54.7284 122.692 55.2324 122.692C55.7364 122.692 56.1518 122.575 56.4784 122.342C56.8051 122.108 57.0431 121.777 57.1924 121.348C57.3511 120.909 57.4304 120.396 57.4304 119.808C57.4304 119.21 57.3511 118.702 57.1924 118.282C57.0338 117.862 56.7911 117.54 56.4644 117.316C56.1471 117.082 55.7318 116.966 55.2184 116.966C54.4531 116.966 53.8978 117.218 53.5524 117.722C53.2071 118.226 53.0344 118.921 53.0344 119.808ZM67.209 116.07V123.574H66.201L66.019 122.58H65.963C65.8043 122.841 65.599 123.056 65.347 123.224C65.095 123.392 64.8197 123.513 64.521 123.588C64.2223 123.672 63.9097 123.714 63.583 123.714C62.9857 123.714 62.4817 123.62 62.071 123.434C61.6697 123.238 61.3663 122.939 61.161 122.538C60.9557 122.136 60.853 121.618 60.853 120.984V116.07H62.099V120.9C62.099 121.497 62.2343 121.945 62.505 122.244C62.7757 122.542 63.1957 122.692 63.765 122.692C64.325 122.692 64.7637 122.589 65.081 122.384C65.4077 122.169 65.6363 121.861 65.767 121.46C65.907 121.049 65.977 120.554 65.977 119.976V116.07H67.209ZM72.5313 123.714C71.598 123.714 70.8513 123.392 70.2913 122.748C69.7313 122.094 69.4513 121.124 69.4513 119.836C69.4513 118.548 69.7313 117.577 70.2913 116.924C70.8606 116.261 71.612 115.93 72.5453 115.93C72.9373 115.93 73.278 115.981 73.5673 116.084C73.8566 116.177 74.1086 116.308 74.3233 116.476C74.538 116.644 74.72 116.83 74.8693 117.036H74.9533C74.944 116.914 74.9253 116.737 74.8973 116.504C74.8786 116.261 74.8693 116.07 74.8693 115.93V112.934H76.1013V123.574H75.1073L74.9253 122.566H74.8693C74.72 122.78 74.538 122.976 74.3233 123.154C74.1086 123.322 73.852 123.457 73.5533 123.56C73.264 123.662 72.9233 123.714 72.5313 123.714ZM72.7273 122.692C73.5206 122.692 74.076 122.477 74.3933 122.048C74.72 121.609 74.8833 120.951 74.8833 120.074V119.85C74.8833 118.916 74.7293 118.202 74.4213 117.708C74.1133 117.204 73.544 116.952 72.7133 116.952C72.0506 116.952 71.5513 117.218 71.2153 117.75C70.8886 118.272 70.7253 118.977 70.7253 119.864C70.7253 120.76 70.8886 121.455 71.2153 121.95C71.5513 122.444 72.0553 122.692 72.7273 122.692ZM78.1346 120.368V119.276H81.5226V120.368H78.1346ZM91.3683 123.574H90.1083V118.912H84.9843V123.574H83.7243V113.578H84.9843V117.806H90.1083V113.578H91.3683V123.574ZM97.0272 113.578C98.3339 113.578 99.2859 113.834 99.8832 114.348C100.481 114.861 100.779 115.584 100.779 116.518C100.779 116.928 100.709 117.325 100.569 117.708C100.439 118.081 100.219 118.417 99.9112 118.716C99.6032 119.014 99.1926 119.252 98.6792 119.43C98.1659 119.598 97.5359 119.682 96.7892 119.682H95.6412V123.574H94.3812V113.578H97.0272ZM96.9152 114.656H95.6412V118.604H96.6492C97.2839 118.604 97.8112 118.538 98.2312 118.408C98.6512 118.268 98.9639 118.048 99.1692 117.75C99.3746 117.451 99.4772 117.059 99.4772 116.574C99.4772 115.93 99.2719 115.449 98.8612 115.132C98.4506 114.814 97.8019 114.656 96.9152 114.656ZM107.422 114.544C106.89 114.544 106.409 114.637 105.98 114.824C105.55 115.001 105.186 115.267 104.888 115.622C104.589 115.967 104.36 116.392 104.202 116.896C104.043 117.39 103.964 117.95 103.964 118.576C103.964 119.397 104.09 120.111 104.342 120.718C104.603 121.324 104.986 121.791 105.49 122.118C106.003 122.444 106.642 122.608 107.408 122.608C107.846 122.608 108.262 122.57 108.654 122.496C109.046 122.421 109.428 122.328 109.802 122.216V123.308C109.428 123.448 109.041 123.55 108.64 123.616C108.248 123.681 107.776 123.714 107.226 123.714C106.208 123.714 105.359 123.504 104.678 123.084C103.996 122.664 103.483 122.066 103.138 121.292C102.802 120.517 102.634 119.607 102.634 118.562C102.634 117.806 102.736 117.115 102.942 116.49C103.156 115.864 103.464 115.323 103.866 114.866C104.276 114.408 104.78 114.058 105.378 113.816C105.975 113.564 106.661 113.438 107.436 113.438C107.949 113.438 108.444 113.489 108.92 113.592C109.396 113.694 109.82 113.839 110.194 114.026L109.69 115.09C109.382 114.95 109.036 114.824 108.654 114.712C108.28 114.6 107.87 114.544 107.422 114.544Z" fill="#F9F9F9"/>
<path d="M2.31746 106.324H148.686V107.024H2.31746V106.324ZM40.0945 125.324H110.908V126.024H40.0945V125.324Z" fill="#F9F9F9"/>
<a href="https://www.covalent.xyz/navigating-the-modern-hpc-landscape/">
<rect fill="black" fill-opacity="0" x="1.81746" width="150.005" height="19.068"/>
</a>
<a href="https://www.covalent.xyz/navigating-the-modern-hpc-landscape/">
<rect fill="black" fill-opacity="0" x="39.5945" y="19.068" width="70.5333" height="19.068"/>
</a>
</svg>
