<svg width="220" height="65" viewBox="0 0 220 65" fill="none" xmlns="http://www.w3.org/2000/svg">
<rect y="0.57373" width="220" height="64" rx="8" fill="#416FF8"/>
<path d="M54.112 34.8437C54.112 35.4317 53.9673 35.9404 53.678 36.3697C53.3887 36.7991 52.9687 37.1304 52.418 37.3637C51.8767 37.5971 51.228 37.7137 50.472 37.7137C50.108 37.7137 49.758 37.6904 49.422 37.6437C49.0953 37.6064 48.7827 37.5457 48.484 37.4617C48.1947 37.3777 47.924 37.2751 47.672 37.1537V35.4737C48.092 35.6604 48.554 35.8331 49.058 35.9917C49.562 36.1411 50.0753 36.2157 50.598 36.2157C50.9993 36.2157 51.326 36.1644 51.578 36.0617C51.8393 35.9497 52.0307 35.8004 52.152 35.6137C52.2733 35.4177 52.334 35.1937 52.334 34.9417C52.334 34.6617 52.2547 34.4237 52.096 34.2277C51.9373 34.0317 51.704 33.8497 51.396 33.6817C51.088 33.5137 50.7053 33.3364 50.248 33.1497C49.94 33.0191 49.6367 32.8744 49.338 32.7157C49.0487 32.5477 48.7873 32.3471 48.554 32.1137C48.3207 31.8804 48.134 31.6051 47.994 31.2877C47.854 30.9704 47.784 30.5971 47.784 30.1677C47.784 29.5984 47.9193 29.1084 48.19 28.6977C48.47 28.2871 48.8573 27.9744 49.352 27.7597C49.856 27.5451 50.4393 27.4377 51.102 27.4377C51.634 27.4377 52.1333 27.4937 52.6 27.6057C53.0667 27.7177 53.5287 27.8764 53.986 28.0817L53.412 29.5237C53.0013 29.3464 52.6047 29.2064 52.222 29.1037C51.8393 29.0011 51.4473 28.9497 51.046 28.9497C50.7287 28.9497 50.458 29.0011 50.234 29.1037C50.01 29.1971 49.842 29.3324 49.73 29.5097C49.618 29.6871 49.562 29.8924 49.562 30.1257C49.562 30.3964 49.632 30.6251 49.772 30.8117C49.912 30.9984 50.1267 31.1757 50.416 31.3437C50.7147 31.5024 51.0973 31.6844 51.564 31.8897C52.1053 32.1231 52.5627 32.3657 52.936 32.6177C53.3093 32.8697 53.5987 33.1731 53.804 33.5277C54.0093 33.8824 54.112 34.3211 54.112 34.8437ZM59.1633 29.8457C59.8446 29.8457 60.4279 29.9857 60.9133 30.2657C61.4079 30.5364 61.7906 30.9284 62.0613 31.4417C62.3319 31.9457 62.4673 32.5617 62.4673 33.2897V34.1857H57.4553C57.4739 34.8764 57.6653 35.4131 58.0293 35.7957C58.3933 36.1691 58.8973 36.3557 59.5413 36.3557C60.0359 36.3557 60.4746 36.3091 60.8573 36.2157C61.2493 36.1131 61.6506 35.9684 62.0613 35.7817V37.1957C61.6879 37.3731 61.3006 37.5037 60.8993 37.5877C60.4979 37.6717 60.0173 37.7137 59.4573 37.7137C58.7199 37.7137 58.0619 37.5737 57.4833 37.2937C56.9139 37.0044 56.4659 36.5704 56.1393 35.9917C55.8219 35.4131 55.6633 34.6944 55.6633 33.8357C55.6633 32.9677 55.8079 32.2397 56.0973 31.6517C56.3959 31.0544 56.8066 30.6064 57.3293 30.3077C57.8519 29.9997 58.4633 29.8457 59.1633 29.8457ZM59.1633 31.1477C58.6966 31.1477 58.3139 31.3017 58.0153 31.6097C57.7259 31.9084 57.5533 32.3564 57.4973 32.9537H60.7593C60.7593 32.5991 60.6986 32.2864 60.5773 32.0157C60.4653 31.7451 60.2926 31.5351 60.0593 31.3857C59.8259 31.2271 59.5273 31.1477 59.1633 31.1477ZM66.29 37.5737H64.526V26.9337H66.29V37.5737ZM72.7596 31.3157H70.9256V37.5737H69.1616V31.3157H67.9436V30.4757L69.1616 29.9717V29.4537C69.1616 28.8004 69.2642 28.2871 69.4696 27.9137C69.6749 27.5404 69.9736 27.2744 70.3656 27.1157C70.7576 26.9477 71.2196 26.8637 71.7516 26.8637C72.1249 26.8637 72.4609 26.8964 72.7596 26.9617C73.0582 27.0177 73.3056 27.0831 73.5016 27.1577L73.0536 28.4737C72.8949 28.4271 72.7176 28.3851 72.5216 28.3477C72.3349 28.3011 72.1296 28.2777 71.9056 28.2777C71.5696 28.2777 71.3222 28.3851 71.1636 28.5997C71.0049 28.8144 70.9256 29.1131 70.9256 29.4957V29.9857H72.7596V31.3157ZM73.6429 34.5637V33.0797H77.1989V34.5637H73.6429ZM80.8566 29.4677C80.8566 29.7664 80.8426 30.0604 80.8146 30.3497C80.7959 30.6297 80.7773 30.8397 80.7586 30.9797H80.8706C81.0293 30.7184 81.2253 30.5084 81.4586 30.3497C81.6919 30.1817 81.9486 30.0557 82.2286 29.9717C82.5179 29.8877 82.8166 29.8457 83.1246 29.8457C83.6939 29.8457 84.1839 29.9437 84.5946 30.1397C85.0053 30.3357 85.3179 30.6391 85.5326 31.0497C85.7566 31.4511 85.8686 31.9784 85.8686 32.6317V37.5737H84.1046V32.9817C84.1046 32.4031 83.9926 31.9737 83.7686 31.6937C83.5446 31.4137 83.1899 31.2737 82.7046 31.2737C82.2379 31.2737 81.8693 31.3764 81.5986 31.5817C81.3279 31.7777 81.1366 32.0717 81.0246 32.4637C80.9126 32.8464 80.8566 33.3177 80.8566 33.8777V37.5737H79.0926V26.9337H80.8566V29.4677ZM95.131 33.7657C95.131 34.4004 95.047 34.9604 94.879 35.4457C94.711 35.9311 94.4683 36.3464 94.151 36.6917C93.843 37.0277 93.4603 37.2844 93.003 37.4617C92.555 37.6297 92.0557 37.7137 91.505 37.7137C90.9823 37.7137 90.5017 37.6297 90.063 37.4617C89.6243 37.2844 89.2417 37.0277 88.915 36.6917C88.5977 36.3464 88.3503 35.9311 88.173 35.4457C87.9957 34.9604 87.907 34.4004 87.907 33.7657C87.907 32.9257 88.0517 32.2164 88.341 31.6377C88.6303 31.0497 89.0457 30.6064 89.587 30.3077C90.1377 29.9997 90.7863 29.8457 91.533 29.8457C92.2423 29.8457 92.863 29.9997 93.395 30.3077C93.9363 30.6064 94.361 31.0497 94.669 31.6377C94.977 32.2164 95.131 32.9257 95.131 33.7657ZM89.713 33.7657C89.713 34.2977 89.7737 34.7551 89.895 35.1377C90.0257 35.5111 90.2217 35.7957 90.483 35.9917C90.7537 36.1877 91.099 36.2857 91.519 36.2857C91.9483 36.2857 92.2937 36.1877 92.555 35.9917C92.8257 35.7957 93.0217 35.5111 93.143 35.1377C93.2643 34.7551 93.325 34.2977 93.325 33.7657C93.325 33.2244 93.2597 32.7717 93.129 32.4077C93.0077 32.0344 92.8117 31.7544 92.541 31.5677C92.2797 31.3717 91.939 31.2737 91.519 31.2737C90.8843 31.2737 90.4223 31.4884 90.133 31.9177C89.853 32.3471 89.713 32.9631 89.713 33.7657ZM102.401 35.3757C102.401 35.8797 102.279 36.3091 102.037 36.6637C101.794 37.0091 101.435 37.2704 100.959 37.4477C100.492 37.6251 99.918 37.7137 99.2366 37.7137C98.7046 37.7137 98.2473 37.6764 97.8646 37.6017C97.482 37.5271 97.118 37.4104 96.7726 37.2517V35.7537C97.146 35.9311 97.5613 36.0804 98.0186 36.2017C98.476 36.3231 98.9006 36.3837 99.2926 36.3837C99.778 36.3837 100.128 36.3091 100.343 36.1597C100.557 36.0104 100.665 35.8097 100.665 35.5577C100.665 35.4084 100.623 35.2731 100.539 35.1517C100.455 35.0304 100.291 34.9044 100.049 34.7737C99.806 34.6337 99.4373 34.4611 98.9426 34.2557C98.4573 34.0597 98.0513 33.8637 97.7246 33.6677C97.4073 33.4717 97.1646 33.2384 96.9966 32.9677C96.838 32.6877 96.7586 32.3377 96.7586 31.9177C96.7586 31.2364 97.0293 30.7231 97.5706 30.3777C98.112 30.0231 98.826 29.8457 99.7126 29.8457C100.179 29.8457 100.618 29.8924 101.029 29.9857C101.449 30.0697 101.869 30.2097 102.289 30.4057L101.729 31.7077C101.495 31.6051 101.262 31.5164 101.029 31.4417C100.805 31.3577 100.576 31.2924 100.343 31.2457C100.119 31.1991 99.89 31.1757 99.6566 31.1757C99.274 31.1757 98.9846 31.2364 98.7886 31.3577C98.5926 31.4697 98.4946 31.6284 98.4946 31.8337C98.4946 31.9924 98.5413 32.1324 98.6346 32.2537C98.7373 32.3657 98.91 32.4824 99.1526 32.6037C99.4046 32.7157 99.7593 32.8651 100.217 33.0517C100.674 33.2291 101.061 33.4157 101.379 33.6117C101.705 33.7984 101.957 34.0317 102.135 34.3117C102.312 34.5917 102.401 34.9464 102.401 35.3757ZM107.318 36.2997C107.542 36.2997 107.757 36.2811 107.962 36.2437C108.167 36.1971 108.359 36.1457 108.536 36.0897V37.4057C108.349 37.4897 108.107 37.5597 107.808 37.6157C107.509 37.6811 107.197 37.7137 106.87 37.7137C106.441 37.7137 106.049 37.6437 105.694 37.5037C105.349 37.3544 105.069 37.1024 104.854 36.7477C104.649 36.3931 104.546 35.8984 104.546 35.2637V31.3157H103.524V30.5457L104.644 29.9297L105.204 28.3197H106.31V29.9857H108.466V31.3157H106.31V35.2497C106.31 35.6044 106.403 35.8704 106.59 36.0477C106.777 36.2157 107.019 36.2997 107.318 36.2997ZM113.397 29.8457C114.079 29.8457 114.662 29.9857 115.147 30.2657C115.642 30.5364 116.025 30.9284 116.295 31.4417C116.566 31.9457 116.701 32.5617 116.701 33.2897V34.1857H111.689C111.708 34.8764 111.899 35.4131 112.263 35.7957C112.627 36.1691 113.131 36.3557 113.775 36.3557C114.27 36.3557 114.709 36.3091 115.091 36.2157C115.483 36.1131 115.885 35.9684 116.295 35.7817V37.1957C115.922 37.3731 115.535 37.5037 115.133 37.5877C114.732 37.6717 114.251 37.7137 113.691 37.7137C112.954 37.7137 112.296 37.5737 111.717 37.2937C111.148 37.0044 110.7 36.5704 110.373 35.9917C110.056 35.4131 109.897 34.6944 109.897 33.8357C109.897 32.9677 110.042 32.2397 110.331 31.6517C110.63 31.0544 111.041 30.6064 111.563 30.3077C112.086 29.9997 112.697 29.8457 113.397 29.8457ZM113.397 31.1477C112.931 31.1477 112.548 31.3017 112.249 31.6097C111.96 31.9084 111.787 32.3564 111.731 32.9537H114.993C114.993 32.5991 114.933 32.2864 114.811 32.0157C114.699 31.7451 114.527 31.5351 114.293 31.3857C114.06 31.2271 113.761 31.1477 113.397 31.1477ZM121.266 37.7137C120.389 37.7137 119.675 37.3871 119.124 36.7337C118.583 36.0711 118.312 35.0911 118.312 33.7937C118.312 32.4964 118.588 31.5164 119.138 30.8537C119.689 30.1817 120.412 29.8457 121.308 29.8457C121.682 29.8457 122.008 29.8971 122.288 29.9997C122.578 30.0931 122.825 30.2237 123.03 30.3917C123.236 30.5597 123.408 30.7464 123.548 30.9517H123.632C123.604 30.8211 123.576 30.6204 123.548 30.3497C123.52 30.0791 123.506 29.8271 123.506 29.5937V26.9337H125.27V37.5737H123.898L123.576 36.5797H123.506C123.366 36.7851 123.194 36.9764 122.988 37.1537C122.783 37.3217 122.54 37.4571 122.26 37.5597C121.98 37.6624 121.649 37.7137 121.266 37.7137ZM121.798 36.2857C122.452 36.2857 122.914 36.0991 123.184 35.7257C123.455 35.3524 123.59 34.7877 123.59 34.0317V33.8077C123.59 32.9864 123.46 32.3611 123.198 31.9317C122.946 31.5024 122.47 31.2877 121.77 31.2877C121.238 31.2877 120.828 31.5117 120.538 31.9597C120.249 32.3984 120.104 33.0191 120.104 33.8217C120.104 34.6244 120.249 35.2357 120.538 35.6557C120.828 36.0757 121.248 36.2857 121.798 36.2857ZM136.145 28.9497C135.687 28.9497 135.281 29.0337 134.927 29.2017C134.572 29.3697 134.269 29.6124 134.017 29.9297C133.774 30.2471 133.587 30.6297 133.457 31.0777C133.335 31.5257 133.275 32.0297 133.275 32.5897C133.275 33.3457 133.377 33.9944 133.583 34.5357C133.788 35.0677 134.101 35.4784 134.521 35.7677C134.95 36.0571 135.487 36.2017 136.131 36.2017C136.56 36.2017 136.971 36.1597 137.363 36.0757C137.764 35.9824 138.184 35.8611 138.623 35.7117V37.2377C138.212 37.4057 137.797 37.5271 137.377 37.6017C136.966 37.6764 136.49 37.7137 135.949 37.7137C134.922 37.7137 134.073 37.5037 133.401 37.0837C132.729 36.6544 132.229 36.0571 131.903 35.2917C131.576 34.5171 131.413 33.6117 131.413 32.5757C131.413 31.8197 131.515 31.1291 131.721 30.5037C131.935 29.8784 132.239 29.3371 132.631 28.8797C133.032 28.4224 133.527 28.0677 134.115 27.8157C134.703 27.5637 135.379 27.4377 136.145 27.4377C136.649 27.4377 137.143 27.4984 137.629 27.6197C138.123 27.7317 138.585 27.8904 139.015 28.0957L138.399 29.5657C138.044 29.4071 137.675 29.2671 137.293 29.1457C136.919 29.0151 136.537 28.9497 136.145 28.9497ZM142.651 37.5737H140.887V26.9337H142.651V37.5737ZM151.963 33.7657C151.963 34.4004 151.879 34.9604 151.711 35.4457C151.543 35.9311 151.3 36.3464 150.983 36.6917C150.675 37.0277 150.292 37.2844 149.835 37.4617C149.387 37.6297 148.887 37.7137 148.337 37.7137C147.814 37.7137 147.333 37.6297 146.895 37.4617C146.456 37.2844 146.073 37.0277 145.747 36.6917C145.429 36.3464 145.182 35.9311 145.005 35.4457C144.827 34.9604 144.739 34.4004 144.739 33.7657C144.739 32.9257 144.883 32.2164 145.173 31.6377C145.462 31.0497 145.877 30.6064 146.419 30.3077C146.969 29.9997 147.618 29.8457 148.365 29.8457C149.074 29.8457 149.695 29.9997 150.227 30.3077C150.768 30.6064 151.193 31.0497 151.501 31.6377C151.809 32.2164 151.963 32.9257 151.963 33.7657ZM146.545 33.7657C146.545 34.2977 146.605 34.7551 146.727 35.1377C146.857 35.5111 147.053 35.7957 147.315 35.9917C147.585 36.1877 147.931 36.2857 148.351 36.2857C148.78 36.2857 149.125 36.1877 149.387 35.9917C149.657 35.7957 149.853 35.5111 149.975 35.1377C150.096 34.7551 150.157 34.2977 150.157 33.7657C150.157 33.2244 150.091 32.7717 149.961 32.4077C149.839 32.0344 149.643 31.7544 149.373 31.5677C149.111 31.3717 148.771 31.2737 148.351 31.2737C147.716 31.2737 147.254 31.4884 146.965 31.9177C146.685 32.3471 146.545 32.9631 146.545 33.7657ZM160.8 29.9857V37.5737H159.414L159.176 36.5937H159.092C158.934 36.8551 158.728 37.0697 158.476 37.2377C158.224 37.3964 157.949 37.5131 157.65 37.5877C157.352 37.6717 157.044 37.7137 156.726 37.7137C156.166 37.7137 155.681 37.6157 155.27 37.4197C154.86 37.2237 154.547 36.9251 154.332 36.5237C154.118 36.1131 154.01 35.5857 154.01 34.9417V29.9857H155.774V34.5917C155.774 35.1517 155.886 35.5764 156.11 35.8657C156.334 36.1457 156.689 36.2857 157.174 36.2857C157.65 36.2857 158.024 36.1877 158.294 35.9917C158.565 35.7864 158.756 35.4924 158.868 35.1097C158.98 34.7271 159.036 34.2557 159.036 33.6957V29.9857H160.8ZM165.835 37.7137C164.958 37.7137 164.244 37.3871 163.693 36.7337C163.152 36.0711 162.881 35.0911 162.881 33.7937C162.881 32.4964 163.156 31.5164 163.707 30.8537C164.258 30.1817 164.981 29.8457 165.877 29.8457C166.25 29.8457 166.577 29.8971 166.857 29.9997C167.146 30.0931 167.394 30.2237 167.599 30.3917C167.804 30.5597 167.977 30.7464 168.117 30.9517H168.201C168.173 30.8211 168.145 30.6204 168.117 30.3497C168.089 30.0791 168.075 29.8271 168.075 29.5937V26.9337H169.839V37.5737H168.467L168.145 36.5797H168.075C167.935 36.7851 167.762 36.9764 167.557 37.1537C167.352 37.3217 167.109 37.4571 166.829 37.5597C166.549 37.6624 166.218 37.7137 165.835 37.7137ZM166.367 36.2857C167.02 36.2857 167.482 36.0991 167.753 35.7257C168.024 35.3524 168.159 34.7877 168.159 34.0317V33.8077C168.159 32.9864 168.028 32.3611 167.767 31.9317C167.515 31.5024 167.039 31.2877 166.339 31.2877C165.807 31.2877 165.396 31.5117 165.107 31.9597C164.818 32.3984 164.673 33.0191 164.673 33.8217C164.673 34.6244 164.818 35.2357 165.107 35.6557C165.396 36.0757 165.816 36.2857 166.367 36.2857Z" fill="#CBCBD7"/>
</svg>
