<svg width="154" height="149" viewBox="0 0 154 149" fill="none" xmlns="http://www.w3.org/2000/svg">
<rect y="0.57373" width="154" height="148" rx="8" fill="#1C1C46"/>
<circle cx="71.9521" cy="44.0737" r="32" fill="#5452F6"/>
<rect x="52.9839" y="23.0737" width="61.0638" height="41.083" rx="2" fill="#5552FF"/>
<path d="M52.9839 28.3184H114.048V62.1567C114.048 63.2613 113.152 64.1567 112.048 64.1567H54.9839C53.8793 64.1567 52.9839 63.2613 52.9839 62.1567V28.3184Z" fill="#0F0F32"/>
<ellipse cx="56.4734" cy="25.6959" rx="0.872341" ry="0.874107" fill="#D9D9D9"/>
<ellipse cx="59.9627" cy="25.6959" rx="0.872341" ry="0.874107" fill="#AEB6FF"/>
<ellipse cx="63.4524" cy="25.6959" rx="0.872341" ry="0.874107" fill="#DAC3FF"/>
<path d="M68.4839 35.5121L71.229 38.3546L68.4839 41.197L69.8565 42.6132L73.9839 38.3546L69.8565 34.0959L68.4839 35.5121Z" fill="#6D7CFF"/>
<path d="M62.9839 43.5339L67.4839 34.0339" stroke="#6D7CFF" stroke-linejoin="round"/>
<path d="M61.9839 35.5121L59.2388 38.3546L61.9839 41.197L60.6113 42.6132L56.4839 38.3546L60.6113 34.0959L61.9839 35.5121Z" fill="#6D7CFF"/>
<path d="M9.45946 104.044C8.92746 104.044 8.44679 104.137 8.01746 104.324C7.58813 104.501 7.22413 104.767 6.92546 105.122C6.62679 105.467 6.39813 105.892 6.23946 106.396C6.08079 106.89 6.00146 107.45 6.00146 108.076C6.00146 108.897 6.12746 109.611 6.37946 110.218C6.64079 110.824 7.02346 111.291 7.52746 111.618C8.04079 111.944 8.68013 112.108 9.44546 112.108C9.88413 112.108 10.2995 112.07 10.6915 111.996C11.0835 111.921 11.4661 111.828 11.8395 111.716V112.808C11.4661 112.948 11.0788 113.05 10.6775 113.116C10.2855 113.181 9.81413 113.214 9.26346 113.214C8.24613 113.214 7.39679 113.004 6.71546 112.584C6.03413 112.164 5.52079 111.566 5.17546 110.792C4.83946 110.017 4.67146 109.107 4.67146 108.062C4.67146 107.306 4.77413 106.615 4.97946 105.99C5.19413 105.364 5.50213 104.823 5.90346 104.366C6.31413 103.908 6.81813 103.558 7.41546 103.316C8.01279 103.064 8.69879 102.938 9.47346 102.938C9.98679 102.938 10.4815 102.989 10.9575 103.092C11.4335 103.194 11.8581 103.339 12.2315 103.526L11.7275 104.59C11.4195 104.45 11.0741 104.324 10.6915 104.212C10.3181 104.1 9.90746 104.044 9.45946 104.044ZM20.6572 109.308C20.6572 109.933 20.5732 110.488 20.4052 110.974C20.2465 111.45 20.0132 111.856 19.7052 112.192C19.4065 112.528 19.0378 112.784 18.5992 112.962C18.1698 113.13 17.6892 113.214 17.1572 113.214C16.6625 113.214 16.2052 113.13 15.7852 112.962C15.3652 112.784 15.0012 112.528 14.6932 112.192C14.3852 111.856 14.1425 111.45 13.9652 110.974C13.7972 110.488 13.7132 109.933 13.7132 109.308C13.7132 108.477 13.8532 107.777 14.1332 107.208C14.4132 106.629 14.8145 106.19 15.3372 105.892C15.8598 105.584 16.4805 105.43 17.1992 105.43C17.8805 105.43 18.4778 105.584 18.9912 105.892C19.5138 106.19 19.9198 106.629 20.2092 107.208C20.5078 107.777 20.6572 108.477 20.6572 109.308ZM14.9872 109.308C14.9872 109.896 15.0618 110.409 15.2112 110.848C15.3698 111.277 15.6125 111.608 15.9392 111.842C16.2658 112.075 16.6812 112.192 17.1852 112.192C17.6892 112.192 18.1045 112.075 18.4312 111.842C18.7578 111.608 18.9958 111.277 19.1452 110.848C19.3038 110.409 19.3832 109.896 19.3832 109.308C19.3832 108.71 19.3038 108.202 19.1452 107.782C18.9865 107.362 18.7438 107.04 18.4172 106.816C18.0998 106.582 17.6845 106.466 17.1712 106.466C16.4058 106.466 15.8505 106.718 15.5052 107.222C15.1598 107.726 14.9872 108.421 14.9872 109.308ZM24.2683 113.074L21.4263 105.57H22.7423L24.3383 109.994C24.413 110.199 24.4923 110.428 24.5763 110.68C24.6603 110.932 24.735 111.174 24.8003 111.408C24.8656 111.632 24.9123 111.823 24.9403 111.982H24.9963C25.0336 111.823 25.085 111.627 25.1503 111.394C25.225 111.16 25.3043 110.918 25.3883 110.666C25.4816 110.414 25.561 110.19 25.6263 109.994L27.2223 105.57H28.5383L25.6823 113.074H24.2683ZM32.8477 105.444C33.7623 105.444 34.439 105.644 34.8777 106.046C35.3163 106.447 35.5357 107.086 35.5357 107.964V113.074H34.6397L34.4017 112.01H34.3457C34.131 112.28 33.907 112.509 33.6737 112.696C33.4497 112.873 33.1883 113.004 32.8897 113.088C32.6003 113.172 32.2457 113.214 31.8257 113.214C31.3777 113.214 30.9717 113.134 30.6077 112.976C30.253 112.817 29.973 112.574 29.7677 112.248C29.5623 111.912 29.4597 111.492 29.4597 110.988C29.4597 110.241 29.7537 109.667 30.3417 109.266C30.9297 108.855 31.835 108.631 33.0577 108.594L34.3317 108.552V108.104C34.3317 107.478 34.1963 107.044 33.9257 106.802C33.655 106.559 33.2723 106.438 32.7777 106.438C32.3857 106.438 32.0123 106.498 31.6577 106.62C31.303 106.732 30.9717 106.862 30.6637 107.012L30.2857 106.088C30.6123 105.91 30.9997 105.761 31.4477 105.64C31.8957 105.509 32.3623 105.444 32.8477 105.444ZM33.2117 109.448C32.2783 109.485 31.6297 109.634 31.2657 109.896C30.911 110.157 30.7337 110.526 30.7337 111.002C30.7337 111.422 30.8597 111.73 31.1117 111.926C31.373 112.122 31.7043 112.22 32.1057 112.22C32.7403 112.22 33.2677 112.047 33.6877 111.702C34.1077 111.347 34.3177 110.806 34.3177 110.078V109.406L33.2117 109.448ZM39.3653 113.074H38.1333V102.434H39.3653V113.074ZM44.9207 105.43C45.5647 105.43 46.1154 105.57 46.5727 105.85C47.0394 106.13 47.394 106.526 47.6367 107.04C47.8887 107.544 48.0147 108.136 48.0147 108.818V109.56H42.8767C42.8954 110.409 43.11 111.058 43.5207 111.506C43.9407 111.944 44.524 112.164 45.2707 112.164C45.7467 112.164 46.1667 112.122 46.5307 112.038C46.904 111.944 47.2867 111.814 47.6787 111.646V112.724C47.296 112.892 46.918 113.013 46.5447 113.088C46.1714 113.172 45.728 113.214 45.2147 113.214C44.5054 113.214 43.8754 113.069 43.3247 112.78C42.7834 112.49 42.3587 112.061 42.0507 111.492C41.752 110.913 41.6027 110.208 41.6027 109.378C41.6027 108.556 41.738 107.852 42.0087 107.264C42.2887 106.676 42.676 106.223 43.1707 105.906C43.6747 105.588 44.258 105.43 44.9207 105.43ZM44.9067 106.438C44.3187 106.438 43.852 106.629 43.5067 107.012C43.1707 107.385 42.97 107.908 42.9047 108.58H46.7267C46.7267 108.15 46.6614 107.777 46.5307 107.46C46.4 107.142 46.1994 106.895 45.9287 106.718C45.6674 106.531 45.3267 106.438 44.9067 106.438ZM53.817 105.43C54.713 105.43 55.3897 105.649 55.847 106.088C56.3044 106.517 56.533 107.217 56.533 108.188V113.074H55.315V108.272C55.315 107.665 55.1797 107.212 54.909 106.914C54.6384 106.615 54.2137 106.466 53.635 106.466C52.8044 106.466 52.2304 106.699 51.913 107.166C51.5957 107.632 51.437 108.304 51.437 109.182V113.074H50.205V105.57H51.199L51.381 106.592H51.451C51.619 106.33 51.8244 106.116 52.067 105.948C52.319 105.77 52.5944 105.64 52.893 105.556C53.1917 105.472 53.4997 105.43 53.817 105.43ZM61.6453 112.206C61.832 112.206 62.0233 112.192 62.2193 112.164C62.4153 112.126 62.574 112.089 62.6953 112.052V112.99C62.5647 113.055 62.378 113.106 62.1353 113.144C61.8927 113.19 61.6593 113.214 61.4353 113.214C61.0433 113.214 60.6793 113.148 60.3433 113.018C60.0167 112.878 59.7507 112.64 59.5453 112.304C59.34 111.968 59.2373 111.496 59.2373 110.89V106.522H58.1733V105.934L59.2513 105.444L59.7413 103.848H60.4693V105.57H62.6393V106.522H60.4693V110.862C60.4693 111.319 60.5767 111.66 60.7913 111.884C61.0153 112.098 61.3 112.206 61.6453 112.206ZM69.6267 105.57V113.074H68.3947V105.57H69.6267ZM69.0247 102.756C69.2113 102.756 69.3747 102.821 69.5147 102.952C69.664 103.073 69.7387 103.269 69.7387 103.54C69.7387 103.801 69.664 103.997 69.5147 104.128C69.3747 104.258 69.2113 104.324 69.0247 104.324C68.8193 104.324 68.6467 104.258 68.5067 104.128C68.3667 103.997 68.2967 103.801 68.2967 103.54C68.2967 103.269 68.3667 103.073 68.5067 102.952C68.6467 102.821 68.8193 102.756 69.0247 102.756ZM75.896 105.43C76.792 105.43 77.4687 105.649 77.926 106.088C78.3834 106.517 78.612 107.217 78.612 108.188V113.074H77.394V108.272C77.394 107.665 77.2587 107.212 76.988 106.914C76.7174 106.615 76.2927 106.466 75.714 106.466C74.8834 106.466 74.3094 106.699 73.992 107.166C73.6747 107.632 73.516 108.304 73.516 109.182V113.074H72.284V105.57H73.278L73.46 106.592H73.53C73.698 106.33 73.9034 106.116 74.146 105.948C74.398 105.77 74.6734 105.64 74.972 105.556C75.2707 105.472 75.5787 105.43 75.896 105.43ZM87.641 112.206C87.8277 112.206 88.019 112.192 88.215 112.164C88.411 112.126 88.5697 112.089 88.691 112.052V112.99C88.5604 113.055 88.3737 113.106 88.131 113.144C87.8884 113.19 87.655 113.214 87.431 113.214C87.039 113.214 86.675 113.148 86.339 113.018C86.0124 112.878 85.7464 112.64 85.541 112.304C85.3357 111.968 85.233 111.496 85.233 110.89V106.522H84.169V105.934L85.247 105.444L85.737 103.848H86.465V105.57H88.635V106.522H86.465V110.862C86.465 111.319 86.5724 111.66 86.787 111.884C87.011 112.098 87.2957 112.206 87.641 112.206ZM91.7056 105.556C91.7056 105.733 91.6963 105.915 91.6776 106.102C91.6683 106.288 91.6543 106.456 91.6356 106.606H91.7196C91.8783 106.344 92.079 106.13 92.3216 105.962C92.5643 105.794 92.835 105.668 93.1336 105.584C93.4323 105.49 93.7403 105.444 94.0576 105.444C94.6643 105.444 95.1683 105.542 95.5696 105.738C95.9803 105.924 96.2883 106.218 96.4936 106.62C96.699 107.021 96.8016 107.544 96.8016 108.188V113.074H95.5836V108.272C95.5836 107.665 95.4483 107.212 95.1776 106.914C94.907 106.615 94.4823 106.466 93.9036 106.466C93.3436 106.466 92.905 106.573 92.5876 106.788C92.2703 106.993 92.0416 107.301 91.9016 107.712C91.771 108.113 91.7056 108.608 91.7056 109.196V113.074H90.4736V102.434H91.7056V105.556ZM102.306 105.43C102.95 105.43 103.501 105.57 103.958 105.85C104.425 106.13 104.779 106.526 105.022 107.04C105.274 107.544 105.4 108.136 105.4 108.818V109.56H100.262C100.281 110.409 100.495 111.058 100.906 111.506C101.326 111.944 101.909 112.164 102.656 112.164C103.132 112.164 103.552 112.122 103.916 112.038C104.289 111.944 104.672 111.814 105.064 111.646V112.724C104.681 112.892 104.303 113.013 103.93 113.088C103.557 113.172 103.113 113.214 102.6 113.214C101.891 113.214 101.261 113.069 100.71 112.78C100.169 112.49 99.7439 112.061 99.4359 111.492C99.1373 110.913 98.9879 110.208 98.9879 109.378C98.9879 108.556 99.1233 107.852 99.3939 107.264C99.6739 106.676 100.061 106.223 100.556 105.906C101.06 105.588 101.643 105.43 102.306 105.43ZM102.292 106.438C101.704 106.438 101.237 106.629 100.892 107.012C100.556 107.385 100.355 107.908 100.29 108.58H104.112C104.112 108.15 104.047 107.777 103.916 107.46C103.785 107.142 103.585 106.895 103.314 106.718C103.053 106.531 102.712 106.438 102.292 106.438ZM114.405 105.43C115.049 105.43 115.6 105.57 116.057 105.85C116.524 106.13 116.878 106.526 117.121 107.04C117.373 107.544 117.499 108.136 117.499 108.818V109.56H112.361C112.38 110.409 112.594 111.058 113.005 111.506C113.425 111.944 114.008 112.164 114.755 112.164C115.231 112.164 115.651 112.122 116.015 112.038C116.388 111.944 116.771 111.814 117.163 111.646V112.724C116.78 112.892 116.402 113.013 116.029 113.088C115.656 113.172 115.212 113.214 114.699 113.214C113.99 113.214 113.36 113.069 112.809 112.78C112.268 112.49 111.843 112.061 111.535 111.492C111.236 110.913 111.087 110.208 111.087 109.378C111.087 108.556 111.222 107.852 111.493 107.264C111.773 106.676 112.16 106.223 112.655 105.906C113.159 105.588 113.742 105.43 114.405 105.43ZM114.391 106.438C113.803 106.438 113.336 106.629 112.991 107.012C112.655 107.385 112.454 107.908 112.389 108.58H116.211C116.211 108.15 116.146 107.777 116.015 107.46C115.884 107.142 115.684 106.895 115.413 106.718C115.152 106.531 114.811 106.438 114.391 106.438ZM123.189 105.43C123.329 105.43 123.479 105.439 123.637 105.458C123.805 105.467 123.95 105.486 124.071 105.514L123.917 106.648C123.796 106.62 123.661 106.596 123.511 106.578C123.371 106.559 123.236 106.55 123.105 106.55C122.816 106.55 122.541 106.61 122.279 106.732C122.018 106.853 121.785 107.026 121.579 107.25C121.374 107.464 121.211 107.726 121.089 108.034C120.977 108.342 120.921 108.687 120.921 109.07V113.074H119.689V105.57H120.697L120.837 106.942H120.893C121.052 106.662 121.243 106.41 121.467 106.186C121.691 105.952 121.948 105.77 122.237 105.64C122.527 105.5 122.844 105.43 123.189 105.43ZM128.321 105.444C129.236 105.444 129.912 105.644 130.351 106.046C130.79 106.447 131.009 107.086 131.009 107.964V113.074H130.113L129.875 112.01H129.819C129.604 112.28 129.38 112.509 129.147 112.696C128.923 112.873 128.662 113.004 128.363 113.088C128.074 113.172 127.719 113.214 127.299 113.214C126.851 113.214 126.445 113.134 126.081 112.976C125.726 112.817 125.446 112.574 125.241 112.248C125.036 111.912 124.933 111.492 124.933 110.988C124.933 110.241 125.227 109.667 125.815 109.266C126.403 108.855 127.308 108.631 128.531 108.594L129.805 108.552V108.104C129.805 107.478 129.67 107.044 129.399 106.802C129.128 106.559 128.746 106.438 128.251 106.438C127.859 106.438 127.486 106.498 127.131 106.62C126.776 106.732 126.445 106.862 126.137 107.012L125.759 106.088C126.086 105.91 126.473 105.761 126.921 105.64C127.369 105.509 127.836 105.444 128.321 105.444ZM128.685 109.448C127.752 109.485 127.103 109.634 126.739 109.896C126.384 110.157 126.207 110.526 126.207 111.002C126.207 111.422 126.333 111.73 126.585 111.926C126.846 112.122 127.178 112.22 127.579 112.22C128.214 112.22 128.741 112.047 129.161 111.702C129.581 111.347 129.791 110.806 129.791 110.078V109.406L128.685 109.448ZM144.047 109.308C144.047 109.933 143.963 110.488 143.795 110.974C143.637 111.45 143.403 111.856 143.095 112.192C142.797 112.528 142.428 112.784 141.989 112.962C141.56 113.13 141.079 113.214 140.547 113.214C140.053 113.214 139.595 113.13 139.175 112.962C138.755 112.784 138.391 112.528 138.083 112.192C137.775 111.856 137.533 111.45 137.355 110.974C137.187 110.488 137.103 109.933 137.103 109.308C137.103 108.477 137.243 107.777 137.523 107.208C137.803 106.629 138.205 106.19 138.727 105.892C139.25 105.584 139.871 105.43 140.589 105.43C141.271 105.43 141.868 105.584 142.381 105.892C142.904 106.19 143.31 106.629 143.599 107.208C143.898 107.777 144.047 108.477 144.047 109.308ZM138.377 109.308C138.377 109.896 138.452 110.409 138.601 110.848C138.76 111.277 139.003 111.608 139.329 111.842C139.656 112.075 140.071 112.192 140.575 112.192C141.079 112.192 141.495 112.075 141.821 111.842C142.148 111.608 142.386 111.277 142.535 110.848C142.694 110.409 142.773 109.896 142.773 109.308C142.773 108.71 142.694 108.202 142.535 107.782C142.377 107.362 142.134 107.04 141.807 106.816C141.49 106.582 141.075 106.466 140.561 106.466C139.796 106.466 139.241 106.718 138.895 107.222C138.55 107.726 138.377 108.421 138.377 109.308ZM149.738 106.522H147.848V113.074H146.616V106.522H145.3V105.948L146.616 105.528V105.094C146.616 104.45 146.709 103.927 146.896 103.526C147.092 103.124 147.372 102.83 147.736 102.644C148.1 102.457 148.539 102.364 149.052 102.364C149.351 102.364 149.621 102.392 149.864 102.448C150.116 102.494 150.331 102.55 150.508 102.616L150.186 103.582C150.037 103.535 149.864 103.488 149.668 103.442C149.472 103.395 149.271 103.372 149.066 103.372C148.655 103.372 148.347 103.512 148.142 103.792C147.946 104.062 147.848 104.492 147.848 105.08V105.57H149.738V106.522ZM45.7945 132.214C45.1318 132.214 44.5392 132.078 44.0165 131.808C43.5032 131.537 43.0972 131.117 42.7985 130.548C42.5092 129.978 42.3645 129.25 42.3645 128.364C42.3645 127.44 42.5185 126.688 42.8265 126.11C43.1345 125.531 43.5498 125.106 44.0725 124.836C44.6045 124.565 45.2065 124.43 45.8785 124.43C46.2612 124.43 46.6298 124.472 46.9845 124.556C47.3392 124.63 47.6285 124.724 47.8525 124.836L47.4745 125.858C47.2505 125.774 46.9892 125.694 46.6905 125.62C46.3918 125.545 46.1118 125.508 45.8505 125.508C45.3465 125.508 44.9312 125.615 44.6045 125.83C44.2778 126.044 44.0352 126.362 43.8765 126.782C43.7178 127.202 43.6385 127.724 43.6385 128.35C43.6385 128.947 43.7178 129.456 43.8765 129.876C44.0352 130.296 44.2732 130.613 44.5905 130.828C44.9078 131.042 45.3045 131.15 45.7805 131.15C46.1912 131.15 46.5505 131.108 46.8585 131.024C47.1758 130.94 47.4652 130.837 47.7265 130.716V131.808C47.4745 131.938 47.1945 132.036 46.8865 132.102C46.5878 132.176 46.2238 132.214 45.7945 132.214ZM51.0231 132.074H49.7911V121.434H51.0231V132.074ZM60.2044 128.308C60.2044 128.933 60.1204 129.488 59.9524 129.974C59.7938 130.45 59.5604 130.856 59.2524 131.192C58.9538 131.528 58.5851 131.784 58.1464 131.962C57.7171 132.13 57.2364 132.214 56.7044 132.214C56.2098 132.214 55.7524 132.13 55.3324 131.962C54.9124 131.784 54.5484 131.528 54.2404 131.192C53.9324 130.856 53.6898 130.45 53.5124 129.974C53.3444 129.488 53.2604 128.933 53.2604 128.308C53.2604 127.477 53.4004 126.777 53.6804 126.208C53.9604 125.629 54.3618 125.19 54.8844 124.892C55.4071 124.584 56.0278 124.43 56.7464 124.43C57.4278 124.43 58.0251 124.584 58.5384 124.892C59.0611 125.19 59.4671 125.629 59.7564 126.208C60.0551 126.777 60.2044 127.477 60.2044 128.308ZM54.5344 128.308C54.5344 128.896 54.6091 129.409 54.7584 129.848C54.9171 130.277 55.1598 130.608 55.4864 130.842C55.8131 131.075 56.2284 131.192 56.7324 131.192C57.2364 131.192 57.6518 131.075 57.9784 130.842C58.3051 130.608 58.5431 130.277 58.6924 129.848C58.8511 129.409 58.9304 128.896 58.9304 128.308C58.9304 127.71 58.8511 127.202 58.6924 126.782C58.5338 126.362 58.2911 126.04 57.9644 125.816C57.6471 125.582 57.2318 125.466 56.7184 125.466C55.9531 125.466 55.3978 125.718 55.0524 126.222C54.7071 126.726 54.5344 127.421 54.5344 128.308ZM68.709 124.57V132.074H67.701L67.519 131.08H67.463C67.3043 131.341 67.099 131.556 66.847 131.724C66.595 131.892 66.3197 132.013 66.021 132.088C65.7223 132.172 65.4097 132.214 65.083 132.214C64.4857 132.214 63.9817 132.12 63.571 131.934C63.1697 131.738 62.8663 131.439 62.661 131.038C62.4557 130.636 62.353 130.118 62.353 129.484V124.57H63.599V129.4C63.599 129.997 63.7343 130.445 64.005 130.744C64.2757 131.042 64.6957 131.192 65.265 131.192C65.825 131.192 66.2637 131.089 66.581 130.884C66.9077 130.669 67.1363 130.361 67.267 129.96C67.407 129.549 67.477 129.054 67.477 128.476V124.57H68.709ZM74.0313 132.214C73.098 132.214 72.3513 131.892 71.7913 131.248C71.2313 130.594 70.9513 129.624 70.9513 128.336C70.9513 127.048 71.2313 126.077 71.7913 125.424C72.3606 124.761 73.112 124.43 74.0453 124.43C74.4373 124.43 74.778 124.481 75.0673 124.584C75.3566 124.677 75.6086 124.808 75.8233 124.976C76.038 125.144 76.22 125.33 76.3693 125.536H76.4533C76.444 125.414 76.4253 125.237 76.3973 125.004C76.3786 124.761 76.3693 124.57 76.3693 124.43V121.434H77.6013V132.074H76.6073L76.4253 131.066H76.3693C76.22 131.28 76.038 131.476 75.8233 131.654C75.6086 131.822 75.352 131.957 75.0533 132.06C74.764 132.162 74.4233 132.214 74.0313 132.214ZM74.2273 131.192C75.0206 131.192 75.576 130.977 75.8933 130.548C76.22 130.109 76.3833 129.451 76.3833 128.574V128.35C76.3833 127.416 76.2293 126.702 75.9213 126.208C75.6133 125.704 75.044 125.452 74.2133 125.452C73.5506 125.452 73.0513 125.718 72.7153 126.25C72.3886 126.772 72.2253 127.477 72.2253 128.364C72.2253 129.26 72.3886 129.955 72.7153 130.45C73.0513 130.944 73.5553 131.192 74.2273 131.192ZM79.6346 128.868V127.776H83.0226V128.868H79.6346ZM92.8683 132.074H91.6083V127.412H86.4843V132.074H85.2243V122.078H86.4843V126.306H91.6083V122.078H92.8683V132.074ZM98.5272 122.078C99.8339 122.078 100.786 122.334 101.383 122.848C101.981 123.361 102.279 124.084 102.279 125.018C102.279 125.428 102.209 125.825 102.069 126.208C101.939 126.581 101.719 126.917 101.411 127.216C101.103 127.514 100.693 127.752 100.179 127.93C99.6659 128.098 99.0359 128.182 98.2892 128.182H97.1412V132.074H95.8812V122.078H98.5272ZM98.4152 123.156H97.1412V127.104H98.1492C98.7839 127.104 99.3112 127.038 99.7312 126.908C100.151 126.768 100.464 126.548 100.669 126.25C100.875 125.951 100.977 125.559 100.977 125.074C100.977 124.43 100.772 123.949 100.361 123.632C99.9506 123.314 99.3019 123.156 98.4152 123.156ZM108.922 123.044C108.39 123.044 107.909 123.137 107.48 123.324C107.05 123.501 106.686 123.767 106.388 124.122C106.089 124.467 105.86 124.892 105.702 125.396C105.543 125.89 105.464 126.45 105.464 127.076C105.464 127.897 105.59 128.611 105.842 129.218C106.103 129.824 106.486 130.291 106.99 130.618C107.503 130.944 108.142 131.108 108.908 131.108C109.346 131.108 109.762 131.07 110.154 130.996C110.546 130.921 110.928 130.828 111.302 130.716V131.808C110.928 131.948 110.541 132.05 110.14 132.116C109.748 132.181 109.276 132.214 108.726 132.214C107.708 132.214 106.859 132.004 106.178 131.584C105.496 131.164 104.983 130.566 104.638 129.792C104.302 129.017 104.134 128.107 104.134 127.062C104.134 126.306 104.236 125.615 104.442 124.99C104.656 124.364 104.964 123.823 105.366 123.366C105.776 122.908 106.28 122.558 106.878 122.316C107.475 122.064 108.161 121.938 108.936 121.938C109.449 121.938 109.944 121.989 110.42 122.092C110.896 122.194 111.32 122.339 111.694 122.526L111.19 123.59C110.882 123.45 110.536 123.324 110.154 123.212C109.78 123.1 109.37 123.044 108.922 123.044Z" fill="#F9F9F9"/>
<path d="M3.81746 114.824H150.186V115.524H3.81746V114.824ZM41.5945 133.824H112.408V134.524H41.5945V133.824Z" fill="#F9F9F9"/>
<a href="https://www.covalent.xyz/navigating-the-modern-hpc-landscape/">
<rect fill="black" fill-opacity="0" x="1.81746" width="150.005" height="19.068"/>
</a>
<a href="https://www.covalent.xyz/navigating-the-modern-hpc-landscape/">
<rect fill="black" fill-opacity="0" x="39.5945" y="19.068" width="70.5333" height="19.068"/>
</a>
</svg>
