<svg width="229" height="46" viewBox="0 0 229 46" fill="none" xmlns="http://www.w3.org/2000/svg">
<rect width="229" height="46" rx="6" fill="#171B21"/>
<path d="M13.584 27.218V26.14C12.6693 26.0373 11.946 25.7107 11.414 25.16C10.882 24.6093 10.616 23.9093 10.616 23.06H11.848C11.848 23.5547 11.9927 23.998 12.282 24.39C12.5807 24.7727 13.0147 25.02 13.584 25.132V21.338C13.5187 21.3193 13.4487 21.3007 13.374 21.282C13.3087 21.254 13.2433 21.2307 13.178 21.212C12.422 20.9507 11.862 20.6287 11.498 20.246C11.134 19.854 10.952 19.3453 10.952 18.72C10.9427 17.992 11.1713 17.3853 11.638 16.9C12.114 16.4147 12.7627 16.1347 13.584 16.06V14.926H14.55V16.06C15.334 16.1533 15.9593 16.4473 16.426 16.942C16.8927 17.4367 17.1307 18.0387 17.14 18.748H15.908C15.908 18.4027 15.796 18.0713 15.572 17.754C15.348 17.4273 15.0073 17.208 14.55 17.096V20.484C14.6247 20.5027 14.6993 20.526 14.774 20.554C14.8487 20.582 14.928 20.6053 15.012 20.624C15.4787 20.792 15.8987 20.988 16.272 21.212C16.6453 21.436 16.9347 21.7253 17.14 22.08C17.3547 22.4347 17.462 22.8873 17.462 23.438C17.462 23.8767 17.3547 24.292 17.14 24.684C16.9253 25.076 16.5987 25.4073 16.16 25.678C15.7307 25.9487 15.194 26.1073 14.55 26.154V27.218H13.584ZM12.17 18.608C12.17 19.0373 12.296 19.364 12.548 19.588C12.8 19.8027 13.1453 19.9893 13.584 20.148V17.068C13.164 17.1333 12.8233 17.3013 12.562 17.572C12.3007 17.8333 12.17 18.1787 12.17 18.608ZM16.244 23.508C16.244 22.9667 16.0853 22.5653 15.768 22.304C15.4507 22.0427 15.0447 21.828 14.55 21.66V25.16C15.0913 25.0947 15.5067 24.908 15.796 24.6C16.0947 24.292 16.244 23.928 16.244 23.508ZM22.7648 29.08V19.056H23.8288L23.9408 20.204C24.1648 19.868 24.4822 19.5647 24.8928 19.294C25.3128 19.0233 25.8448 18.888 26.4888 18.888C27.1795 18.888 27.7815 19.0467 28.2948 19.364C28.8082 19.6813 29.2048 20.1153 29.4848 20.666C29.7742 21.2167 29.9188 21.842 29.9188 22.542C29.9188 23.242 29.7742 23.8673 29.4848 24.418C29.2048 24.9593 28.8035 25.3887 28.2808 25.706C27.7675 26.014 27.1655 26.168 26.4748 26.168C25.9055 26.168 25.3968 26.0513 24.9488 25.818C24.5102 25.5847 24.1742 25.258 23.9408 24.838V29.08H22.7648ZM26.3488 25.146C26.8155 25.146 27.2262 25.0387 27.5808 24.824C27.9355 24.6 28.2155 24.292 28.4208 23.9C28.6262 23.508 28.7288 23.0507 28.7288 22.528C28.7288 22.0053 28.6262 21.548 28.4208 21.156C28.2155 20.764 27.9355 20.4607 27.5808 20.246C27.2262 20.022 26.8155 19.91 26.3488 19.91C25.8822 19.91 25.4715 20.022 25.1168 20.246C24.7622 20.4607 24.4822 20.764 24.2768 21.156C24.0715 21.548 23.9688 22.0053 23.9688 22.528C23.9688 23.0507 24.0715 23.508 24.2768 23.9C24.4822 24.292 24.7622 24.6 25.1168 24.824C25.4715 25.0387 25.8822 25.146 26.3488 25.146ZM32.2698 17.516C32.0365 17.516 31.8405 17.4413 31.6818 17.292C31.5325 17.1333 31.4578 16.9373 31.4578 16.704C31.4578 16.48 31.5325 16.2933 31.6818 16.144C31.8405 15.9947 32.0365 15.92 32.2698 15.92C32.4938 15.92 32.6852 15.9947 32.8438 16.144C33.0025 16.2933 33.0818 16.48 33.0818 16.704C33.0818 16.9373 33.0025 17.1333 32.8438 17.292C32.6852 17.4413 32.4938 17.516 32.2698 17.516ZM31.6818 26V19.056H32.8578V26H31.6818ZM34.9055 29.08V19.056H35.9695L36.0815 20.204C36.3055 19.868 36.6228 19.5647 37.0335 19.294C37.4535 19.0233 37.9855 18.888 38.6295 18.888C39.3201 18.888 39.9221 19.0467 40.4355 19.364C40.9488 19.6813 41.3455 20.1153 41.6255 20.666C41.9148 21.2167 42.0595 21.842 42.0595 22.542C42.0595 23.242 41.9148 23.8673 41.6255 24.418C41.3455 24.9593 40.9441 25.3887 40.4215 25.706C39.9081 26.014 39.3061 26.168 38.6155 26.168C38.0461 26.168 37.5375 26.0513 37.0895 25.818C36.6508 25.5847 36.3148 25.258 36.0815 24.838V29.08H34.9055ZM38.4895 25.146C38.9561 25.146 39.3668 25.0387 39.7215 24.824C40.0761 24.6 40.3561 24.292 40.5615 23.9C40.7668 23.508 40.8695 23.0507 40.8695 22.528C40.8695 22.0053 40.7668 21.548 40.5615 21.156C40.3561 20.764 40.0761 20.4607 39.7215 20.246C39.3668 20.022 38.9561 19.91 38.4895 19.91C38.0228 19.91 37.6121 20.022 37.2575 20.246C36.9028 20.4607 36.6228 20.764 36.4175 21.156C36.2121 21.548 36.1095 22.0053 36.1095 22.528C36.1095 23.0507 36.2121 23.508 36.4175 23.9C36.6228 24.292 36.9028 24.6 37.2575 24.824C37.6121 25.0387 38.0228 25.146 38.4895 25.146ZM48.1155 17.516C47.8822 17.516 47.6862 17.4413 47.5275 17.292C47.3782 17.1333 47.3035 16.9373 47.3035 16.704C47.3035 16.48 47.3782 16.2933 47.5275 16.144C47.6862 15.9947 47.8822 15.92 48.1155 15.92C48.3395 15.92 48.5309 15.9947 48.6895 16.144C48.8482 16.2933 48.9275 16.48 48.9275 16.704C48.9275 16.9373 48.8482 17.1333 48.6895 17.292C48.5309 17.4413 48.3395 17.516 48.1155 17.516ZM47.5275 26V19.056H48.7035V26H47.5275ZM50.7512 26V19.056H51.8152L51.8852 20.302C52.1092 19.8633 52.4312 19.518 52.8512 19.266C53.2712 19.014 53.7472 18.888 54.2792 18.888C55.1005 18.888 55.7538 19.14 56.2392 19.644C56.7338 20.1387 56.9812 20.904 56.9812 21.94V26H55.8052V22.066C55.8052 20.6193 55.2078 19.896 54.0132 19.896C53.4158 19.896 52.9165 20.1153 52.5152 20.554C52.1232 20.9833 51.9272 21.5993 51.9272 22.402V26H50.7512ZM61.4229 26.168C60.5922 26.168 59.9015 25.958 59.3509 25.538C58.8002 25.118 58.4782 24.5487 58.3849 23.83H59.5889C59.6635 24.194 59.8549 24.5113 60.1629 24.782C60.4802 25.0433 60.9049 25.174 61.4369 25.174C61.9315 25.174 62.2955 25.0713 62.5289 24.866C62.7622 24.6513 62.8789 24.3993 62.8789 24.11C62.8789 23.69 62.7249 23.41 62.4169 23.27C62.1182 23.13 61.6935 23.004 61.1429 22.892C60.7695 22.8173 60.3962 22.71 60.0229 22.57C59.6495 22.43 59.3369 22.234 59.0849 21.982C58.8329 21.7207 58.7069 21.38 58.7069 20.96C58.7069 20.3533 58.9309 19.8587 59.3789 19.476C59.8362 19.084 60.4522 18.888 61.2269 18.888C61.9642 18.888 62.5662 19.0747 63.0329 19.448C63.5089 19.812 63.7842 20.3347 63.8589 21.016H62.6969C62.6502 20.6613 62.4962 20.386 62.2349 20.19C61.9829 19.9847 61.6422 19.882 61.2129 19.882C60.7929 19.882 60.4662 19.9707 60.2329 20.148C60.0089 20.3253 59.8969 20.5587 59.8969 20.848C59.8969 21.128 60.0415 21.3473 60.3309 21.506C60.6295 21.6647 61.0309 21.8 61.5349 21.912C61.9642 22.0053 62.3702 22.122 62.7529 22.262C63.1449 22.3927 63.4622 22.5933 63.7049 22.864C63.9569 23.1253 64.0829 23.508 64.0829 24.012C64.0922 24.6373 63.8542 25.1553 63.3689 25.566C62.8929 25.9673 62.2442 26.168 61.4229 26.168ZM68.1924 26C67.5578 26 67.0584 25.846 66.6944 25.538C66.3304 25.23 66.1484 24.6747 66.1484 23.872V20.05H64.9444V19.056H66.1484L66.3024 17.39H67.3244V19.056H69.3684V20.05H67.3244V23.872C67.3244 24.3107 67.4131 24.6093 67.5904 24.768C67.7678 24.9173 68.0804 24.992 68.5284 24.992H69.2564V26H68.1924ZM73.1725 26.168C72.5938 26.168 72.1132 26.07 71.7305 25.874C71.3478 25.678 71.0632 25.4167 70.8765 25.09C70.6898 24.7633 70.5965 24.4087 70.5965 24.026C70.5965 23.3167 70.8672 22.7707 71.4085 22.388C71.9498 22.0053 72.6872 21.814 73.6205 21.814H75.4965V21.73C75.4965 21.1233 75.3378 20.666 75.0205 20.358C74.7032 20.0407 74.2785 19.882 73.7465 19.882C73.2892 19.882 72.8925 19.9987 72.5565 20.232C72.2298 20.456 72.0245 20.7873 71.9405 21.226H70.7365C70.7832 20.722 70.9512 20.2973 71.2405 19.952C71.5392 19.6067 71.9078 19.3453 72.3465 19.168C72.7852 18.9813 73.2518 18.888 73.7465 18.888C74.7172 18.888 75.4452 19.1493 75.9305 19.672C76.4252 20.1853 76.6725 20.8713 76.6725 21.73V26H75.6225L75.5525 24.754C75.3565 25.146 75.0672 25.482 74.6845 25.762C74.3112 26.0327 73.8072 26.168 73.1725 26.168ZM73.3545 25.174C73.8025 25.174 74.1852 25.0573 74.5025 24.824C74.8292 24.5907 75.0765 24.2873 75.2445 23.914C75.4125 23.5407 75.4965 23.1487 75.4965 22.738V22.724H73.7185C73.0278 22.724 72.5378 22.8453 72.2485 23.088C71.9685 23.3213 71.8285 23.6153 71.8285 23.97C71.8285 24.334 71.9592 24.628 72.2205 24.852C72.4912 25.0667 72.8692 25.174 73.3545 25.174ZM78.4367 26V15.92H79.6127V26H78.4367ZM81.5402 26V15.92H82.7162V26H81.5402ZM91.5408 26.168C90.8781 26.168 90.2808 26.0187 89.7488 25.72C89.2261 25.412 88.8108 24.9873 88.5028 24.446C88.2041 23.8953 88.0548 23.256 88.0548 22.528C88.0548 21.8 88.2041 21.1653 88.5028 20.624C88.8108 20.0733 89.2261 19.6487 89.7488 19.35C90.2808 19.042 90.8781 18.888 91.5408 18.888C92.3621 18.888 93.0528 19.1027 93.6128 19.532C94.1821 19.9613 94.5415 20.5353 94.6908 21.254H93.4868C93.3935 20.8247 93.1648 20.4933 92.8008 20.26C92.4368 20.0173 92.0121 19.896 91.5268 19.896C91.1348 19.896 90.7661 19.994 90.4208 20.19C90.0755 20.386 89.7955 20.68 89.5808 21.072C89.3661 21.464 89.2588 21.9493 89.2588 22.528C89.2588 23.1067 89.3661 23.592 89.5808 23.984C89.7955 24.376 90.0755 24.6747 90.4208 24.88C90.7661 25.076 91.1348 25.174 91.5268 25.174C92.0121 25.174 92.4368 25.0573 92.8008 24.824C93.1648 24.5813 93.3935 24.2407 93.4868 23.802H94.6908C94.5508 24.502 94.1961 25.0713 93.6268 25.51C93.0575 25.9487 92.3621 26.168 91.5408 26.168ZM99.4972 26.168C98.8439 26.168 98.2559 26.0187 97.7332 25.72C97.2105 25.4213 96.7952 25.0013 96.4872 24.46C96.1885 23.9093 96.0392 23.2653 96.0392 22.528C96.0392 21.7907 96.1932 21.1513 96.5012 20.61C96.8092 20.0593 97.2245 19.6347 97.7472 19.336C98.2792 19.0373 98.8719 18.888 99.5252 18.888C100.179 18.888 100.767 19.0373 101.289 19.336C101.812 19.6347 102.223 20.0593 102.521 20.61C102.829 21.1513 102.983 21.7907 102.983 22.528C102.983 23.2653 102.829 23.9093 102.521 24.46C102.213 25.0013 101.793 25.4213 101.261 25.72C100.739 26.0187 100.151 26.168 99.4972 26.168ZM99.4972 25.16C99.8985 25.16 100.272 25.062 100.617 24.866C100.963 24.67 101.243 24.376 101.457 23.984C101.672 23.592 101.779 23.1067 101.779 22.528C101.779 21.9493 101.672 21.464 101.457 21.072C101.252 20.68 100.977 20.386 100.631 20.19C100.286 19.994 99.9172 19.896 99.5252 19.896C99.1239 19.896 98.7505 19.994 98.4052 20.19C98.0599 20.386 97.7799 20.68 97.5652 21.072C97.3505 21.464 97.2432 21.9493 97.2432 22.528C97.2432 23.1067 97.3505 23.592 97.5652 23.984C97.7799 24.376 98.0552 24.67 98.3912 24.866C98.7365 25.062 99.1052 25.16 99.4972 25.16ZM106.265 26L103.633 19.056H104.865L106.951 24.866L109.051 19.056H110.255L107.623 26H106.265ZM113.518 26.168C112.94 26.168 112.459 26.07 112.076 25.874C111.694 25.678 111.409 25.4167 111.222 25.09C111.036 24.7633 110.942 24.4087 110.942 24.026C110.942 23.3167 111.213 22.7707 111.754 22.388C112.296 22.0053 113.033 21.814 113.966 21.814H115.842V21.73C115.842 21.1233 115.684 20.666 115.366 20.358C115.049 20.0407 114.624 19.882 114.092 19.882C113.635 19.882 113.238 19.9987 112.902 20.232C112.576 20.456 112.37 20.7873 112.286 21.226H111.082C111.129 20.722 111.297 20.2973 111.586 19.952C111.885 19.6067 112.254 19.3453 112.692 19.168C113.131 18.9813 113.598 18.888 114.092 18.888C115.063 18.888 115.791 19.1493 116.276 19.672C116.771 20.1853 117.018 20.8713 117.018 21.73V26H115.968L115.898 24.754C115.702 25.146 115.413 25.482 115.03 25.762C114.657 26.0327 114.153 26.168 113.518 26.168ZM113.7 25.174C114.148 25.174 114.531 25.0573 114.848 24.824C115.175 24.5907 115.422 24.2873 115.59 23.914C115.758 23.5407 115.842 23.1487 115.842 22.738V22.724H114.064C113.374 22.724 112.884 22.8453 112.594 23.088C112.314 23.3213 112.174 23.6153 112.174 23.97C112.174 24.334 112.305 24.628 112.566 24.852C112.837 25.0667 113.215 25.174 113.7 25.174ZM118.782 26V15.92H119.958V26H118.782ZM125.008 26.168C124.345 26.168 123.757 26.0187 123.244 25.72C122.731 25.412 122.325 24.9873 122.026 24.446C121.737 23.9047 121.592 23.2653 121.592 22.528C121.592 21.8 121.737 21.1653 122.026 20.624C122.315 20.0733 122.717 19.6487 123.23 19.35C123.753 19.042 124.355 18.888 125.036 18.888C125.708 18.888 126.287 19.042 126.772 19.35C127.267 19.6487 127.645 20.0453 127.906 20.54C128.167 21.0347 128.298 21.5667 128.298 22.136C128.298 22.2387 128.293 22.3413 128.284 22.444C128.284 22.5467 128.284 22.6633 128.284 22.794H122.754C122.782 23.326 122.903 23.7693 123.118 24.124C123.342 24.4693 123.617 24.7307 123.944 24.908C124.28 25.0853 124.635 25.174 125.008 25.174C125.493 25.174 125.899 25.062 126.226 24.838C126.553 24.614 126.791 24.3107 126.94 23.928H128.102C127.915 24.572 127.556 25.1087 127.024 25.538C126.501 25.958 125.829 26.168 125.008 26.168ZM125.008 19.882C124.448 19.882 123.949 20.0547 123.51 20.4C123.081 20.736 122.833 21.2307 122.768 21.884H127.136C127.108 21.2587 126.893 20.7687 126.492 20.414C126.091 20.0593 125.596 19.882 125.008 19.882ZM129.857 26V19.056H130.921L130.991 20.302C131.215 19.8633 131.537 19.518 131.957 19.266C132.377 19.014 132.853 18.888 133.385 18.888C134.206 18.888 134.859 19.14 135.345 19.644C135.839 20.1387 136.087 20.904 136.087 21.94V26H134.911V22.066C134.911 20.6193 134.313 19.896 133.119 19.896C132.521 19.896 132.022 20.1153 131.621 20.554C131.229 20.9833 131.033 21.5993 131.033 22.402V26H129.857ZM140.612 26C139.978 26 139.478 25.846 139.114 25.538C138.75 25.23 138.568 24.6747 138.568 23.872V20.05H137.364V19.056H138.568L138.722 17.39H139.744V19.056H141.788V20.05H139.744V23.872C139.744 24.3107 139.833 24.6093 140.01 24.768C140.188 24.9173 140.5 24.992 140.948 24.992H141.676V26H140.612Z" fill="#89BEFA"/>
<rect x="197.5" y="12.5" width="15.0769" height="17.3333" rx="1.5" stroke="#86869A"/>
<rect x="203.423" y="16.1666" width="15.0769" height="17.3333" rx="1.5" stroke="#86869A"/>
</svg>
