<svg width="64" height="65" viewBox="0 0 64 65" fill="none" xmlns="http://www.w3.org/2000/svg">
<circle cx="32" cy="32.5734" r="32" fill="#D9D9D9"/>
<path d="M44.75 29.5734V35.9484H19.25V18.9484H26.6875V16.8234H19.25C18.6864 16.8234 18.1459 17.0473 17.7474 17.4458C17.3489 17.8443 17.125 18.3848 17.125 18.9484V35.9484C17.125 36.512 17.3489 37.0525 17.7474 37.451C18.1459 37.8495 18.6864 38.0734 19.25 38.0734H27.75V42.3234H23.5V44.4484H40.5V42.3234H36.25V38.0734H44.75C45.3136 38.0734 45.8541 37.8495 46.2526 37.451C46.6511 37.0525 46.875 36.512 46.875 35.9484V29.5734H44.75ZM34.125 42.3234H29.875V38.0734H34.125V42.3234Z" fill="#5552FF"/>
<path d="M39.4416 13.5107L39.4416 13.5107L39.4438 13.5112C40.4256 13.6992 41.3286 14.1772 42.036 14.8836C42.7434 15.5899 43.2229 16.492 43.4125 17.4735C43.4125 17.4736 43.4125 17.4736 43.4125 17.4737L43.5831 18.3595L43.6156 18.5282L43.7849 18.5583L44.6708 18.7158L44.6722 18.7161C45.505 18.8593 46.2533 19.3112 46.7678 19.9816C47.2823 20.652 47.5252 21.4916 47.4482 22.3332C47.3711 23.1747 46.9797 23.9563 46.352 24.5221C45.7243 25.0879 44.9064 25.3964 44.0614 25.3859V25.3859H44.0583H32.9217V25.3859L32.9187 25.3859C32.0737 25.3964 31.2558 25.0879 30.6281 24.5221C30.0004 23.9563 29.609 23.1747 29.5319 22.3332C29.4548 21.4916 29.6978 20.652 30.2123 19.9816C30.7268 19.3112 31.475 18.8593 32.3079 18.7161L32.3079 18.7161L32.3096 18.7158L33.1889 18.5583L33.3579 18.528L33.3904 18.3595L33.561 17.4735L33.561 17.4734C33.7813 16.3274 34.3955 15.2945 35.2972 14.5536C36.199 13.8128 37.3315 13.4108 38.4985 13.4172L38.4999 13.4172C38.8161 13.4171 39.1316 13.4484 39.4416 13.5107ZM38.501 11.6047L38.5001 11.6047C36.9145 11.6034 35.3782 12.1551 34.1558 13.1649C32.977 14.1387 32.1613 15.4796 31.8373 16.9705C30.6348 17.2294 29.5618 17.909 28.8136 18.89C28.0309 19.9162 27.6601 21.198 27.7741 22.4836C27.8882 23.7691 28.4788 24.9656 29.4299 25.838C30.3811 26.7104 31.624 27.1956 32.9146 27.1984H32.9152L44.0714 27.1984L44.072 27.1984C45.3626 27.1956 46.6056 26.7104 47.5567 25.838C48.5078 24.9656 49.0984 23.7691 49.2125 22.4836C49.3265 21.198 48.9558 19.9162 48.173 18.89C47.4248 17.909 46.3518 17.2294 45.1493 16.9705C44.872 15.6954 44.234 14.5254 43.3095 13.6009C42.3452 12.6366 41.1136 11.9839 39.7741 11.7273L39.7737 11.7272C39.3541 11.6476 38.928 11.6065 38.501 11.6047Z" fill="#5552FF" stroke="#5552FF" stroke-width="0.5"/>
</svg>
