<svg width="154" height="149" viewBox="0 0 154 149" fill="none" xmlns="http://www.w3.org/2000/svg">
<rect y="0.57373" width="154" height="148" rx="8" fill="#1C1C46"/>
<circle cx="77" cy="44.0493" r="32" fill="#6978FF"/>
<path d="M46.5 64.9553L46.5001 32.9173L105.045 64.9553H46.5Z" fill="#5552FF" stroke="#AEB6FF"/>
<path d="M53.21 59.1901L53.21 43.896L81.2491 59.1901H53.21Z" fill="#6978FF" stroke="#AEB6FF"/>
<line x1="49.6602" y1="45.3838" x2="46.6102" y2="45.3838" stroke="#AEB6FF"/>
<line x1="53.995" y1="36.5824" x2="52.5391" y2="39.2625" stroke="#AEB6FF"/>
<line x1="49.6602" y1="49.6538" x2="46.6102" y2="49.6538" stroke="#AEB6FF"/>
<line x1="57.7475" y1="38.6205" x2="56.2916" y2="41.3006" stroke="#AEB6FF"/>
<line x1="49.6602" y1="53.9238" x2="46.6102" y2="53.9238" stroke="#AEB6FF"/>
<line x1="61.4994" y1="40.6588" x2="60.0435" y2="43.3389" stroke="#AEB6FF"/>
<line x1="49.6602" y1="58.1938" x2="46.6102" y2="58.1938" stroke="#AEB6FF"/>
<line x1="65.2519" y1="42.6974" x2="63.7959" y2="45.3775" stroke="#AEB6FF"/>
<line x1="69.0038" y1="44.7355" x2="67.5479" y2="47.4156" stroke="#AEB6FF"/>
<line x1="72.7558" y1="46.7738" x2="71.2999" y2="49.4539" stroke="#AEB6FF"/>
<path d="M77 21.4614L96 10.0737L115 21.4614L96 33.1487V55.0249L77 44.5363V21.4614Z" fill="#4541F4"/>
<path d="M77 21.4614L96 10.0737L115 21.4614L96 33.1487M77 21.4614L96 33.1487M77 21.4614V44.5363L96 55.0249M96 33.1487V55.0249M96 55.0249L115 44.5363" stroke="#AEB6FF" stroke-linejoin="round"/>
<path d="M115 44.4917L115 21.4273" stroke="#AEB6FF" stroke-width="0.5" stroke-dasharray="5 5"/>
<path d="M21.0703 103.078C21.901 103.078 22.5963 103.157 23.1563 103.316C23.7257 103.474 24.1503 103.736 24.4303 104.1C24.7197 104.464 24.8643 104.949 24.8643 105.556C24.8643 105.948 24.7897 106.298 24.6403 106.606C24.5003 106.904 24.2857 107.156 23.9963 107.362C23.7163 107.558 23.371 107.693 22.9603 107.768V107.838C23.3803 107.903 23.7583 108.024 24.0943 108.202C24.4397 108.379 24.7103 108.631 24.9063 108.958C25.1023 109.284 25.2003 109.709 25.2003 110.232C25.2003 110.838 25.0603 111.356 24.7803 111.786C24.5003 112.206 24.099 112.528 23.5763 112.752C23.063 112.966 22.447 113.074 21.7283 113.074H18.2143V103.078H21.0703ZM21.3223 107.334C22.181 107.334 22.769 107.198 23.0863 106.928C23.4037 106.648 23.5623 106.237 23.5623 105.696C23.5623 105.145 23.3663 104.753 22.9743 104.52C22.5917 104.277 21.9757 104.156 21.1263 104.156H19.4743V107.334H21.3223ZM19.4743 108.384V112.01H21.4903C22.377 112.01 22.993 111.837 23.3383 111.492C23.6837 111.146 23.8563 110.694 23.8563 110.134C23.8563 109.779 23.777 109.471 23.6183 109.21C23.469 108.948 23.2123 108.748 22.8483 108.608C22.4937 108.458 22.0083 108.384 21.3923 108.384H19.4743ZM30.2738 105.444C31.1885 105.444 31.8651 105.644 32.3038 106.046C32.7425 106.447 32.9618 107.086 32.9618 107.964V113.074H32.0658L31.8278 112.01H31.7718C31.5571 112.28 31.3331 112.509 31.0998 112.696C30.8758 112.873 30.6145 113.004 30.3158 113.088C30.0265 113.172 29.6718 113.214 29.2518 113.214C28.8038 113.214 28.3978 113.134 28.0338 112.976C27.6791 112.817 27.3991 112.574 27.1938 112.248C26.9885 111.912 26.8858 111.492 26.8858 110.988C26.8858 110.241 27.1798 109.667 27.7678 109.266C28.3558 108.855 29.2611 108.631 30.4838 108.594L31.7578 108.552V108.104C31.7578 107.478 31.6225 107.044 31.3518 106.802C31.0811 106.559 30.6985 106.438 30.2038 106.438C29.8118 106.438 29.4385 106.498 29.0838 106.62C28.7291 106.732 28.3978 106.862 28.0898 107.012L27.7118 106.088C28.0385 105.91 28.4258 105.761 28.8738 105.64C29.3218 105.509 29.7885 105.444 30.2738 105.444ZM30.6378 109.448C29.7045 109.485 29.0558 109.634 28.6918 109.896C28.3371 110.157 28.1598 110.526 28.1598 111.002C28.1598 111.422 28.2858 111.73 28.5378 111.926C28.7991 112.122 29.1305 112.22 29.5318 112.22C30.1665 112.22 30.6938 112.047 31.1138 111.702C31.5338 111.347 31.7438 110.806 31.7438 110.078V109.406L30.6378 109.448ZM40.4455 111.002C40.4455 111.487 40.3241 111.893 40.0815 112.22C39.8388 112.546 39.4935 112.794 39.0455 112.962C38.5975 113.13 38.0655 113.214 37.4495 113.214C36.9268 113.214 36.4741 113.172 36.0915 113.088C35.7181 113.004 35.3868 112.887 35.0975 112.738V111.618C35.3961 111.767 35.7555 111.907 36.1755 112.038C36.6048 112.159 37.0388 112.22 37.4775 112.22C38.1028 112.22 38.5555 112.122 38.8355 111.926C39.1155 111.72 39.2555 111.45 39.2555 111.114C39.2555 110.927 39.2041 110.759 39.1015 110.61C38.9988 110.46 38.8121 110.311 38.5415 110.162C38.2801 110.012 37.9021 109.844 37.4075 109.658C36.9221 109.471 36.5068 109.284 36.1615 109.098C35.8161 108.911 35.5501 108.687 35.3635 108.426C35.1768 108.164 35.0835 107.828 35.0835 107.418C35.0835 106.783 35.3401 106.293 35.8535 105.948C36.3761 105.602 37.0575 105.43 37.8975 105.43C38.3548 105.43 38.7795 105.476 39.1715 105.57C39.5728 105.654 39.9461 105.775 40.2915 105.934L39.8715 106.914C39.6661 106.82 39.4468 106.741 39.2135 106.676C38.9895 106.601 38.7608 106.545 38.5275 106.508C38.2941 106.461 38.0561 106.438 37.8135 106.438C37.3095 106.438 36.9221 106.522 36.6515 106.69C36.3901 106.848 36.2595 107.068 36.2595 107.348C36.2595 107.553 36.3201 107.73 36.4415 107.88C36.5628 108.02 36.7635 108.16 37.0435 108.3C37.3328 108.43 37.7155 108.589 38.1915 108.776C38.6675 108.953 39.0735 109.135 39.4095 109.322C39.7455 109.508 40.0021 109.737 40.1795 110.008C40.3568 110.269 40.4455 110.6 40.4455 111.002ZM43.7707 105.57V113.074H42.5387V105.57H43.7707ZM43.1687 102.756C43.3553 102.756 43.5187 102.821 43.6587 102.952C43.808 103.073 43.8827 103.269 43.8827 103.54C43.8827 103.801 43.808 103.997 43.6587 104.128C43.5187 104.258 43.3553 104.324 43.1687 104.324C42.9633 104.324 42.7907 104.258 42.6507 104.128C42.5107 103.997 42.4407 103.801 42.4407 103.54C42.4407 103.269 42.5107 103.073 42.6507 102.952C42.7907 102.821 42.9633 102.756 43.1687 102.756ZM49.438 113.214C48.7754 113.214 48.1827 113.078 47.66 112.808C47.1467 112.537 46.7407 112.117 46.442 111.548C46.1527 110.978 46.008 110.25 46.008 109.364C46.008 108.44 46.162 107.688 46.47 107.11C46.778 106.531 47.1934 106.106 47.716 105.836C48.248 105.565 48.85 105.43 49.522 105.43C49.9047 105.43 50.2734 105.472 50.628 105.556C50.9827 105.63 51.272 105.724 51.496 105.836L51.118 106.858C50.894 106.774 50.6327 106.694 50.334 106.62C50.0354 106.545 49.7554 106.508 49.494 106.508C48.99 106.508 48.5747 106.615 48.248 106.83C47.9214 107.044 47.6787 107.362 47.52 107.782C47.3614 108.202 47.282 108.724 47.282 109.35C47.282 109.947 47.3614 110.456 47.52 110.876C47.6787 111.296 47.9167 111.613 48.234 111.828C48.5514 112.042 48.948 112.15 49.424 112.15C49.8347 112.15 50.194 112.108 50.502 112.024C50.8194 111.94 51.1087 111.837 51.37 111.716V112.808C51.118 112.938 50.838 113.036 50.53 113.102C50.2314 113.176 49.8674 113.214 49.438 113.214ZM61.8033 104.044C61.2713 104.044 60.7907 104.137 60.3613 104.324C59.932 104.501 59.568 104.767 59.2693 105.122C58.9707 105.467 58.742 105.892 58.5833 106.396C58.4247 106.89 58.3453 107.45 58.3453 108.076C58.3453 108.897 58.4713 109.611 58.7233 110.218C58.9847 110.824 59.3673 111.291 59.8713 111.618C60.3847 111.944 61.024 112.108 61.7893 112.108C62.228 112.108 62.6433 112.07 63.0353 111.996C63.4273 111.921 63.81 111.828 64.1833 111.716V112.808C63.81 112.948 63.4227 113.05 63.0213 113.116C62.6293 113.181 62.158 113.214 61.6073 113.214C60.59 113.214 59.7407 113.004 59.0593 112.584C58.378 112.164 57.8647 111.566 57.5193 110.792C57.1833 110.017 57.0153 109.107 57.0153 108.062C57.0153 107.306 57.118 106.615 57.3233 105.99C57.538 105.364 57.846 104.823 58.2473 104.366C58.658 103.908 59.162 103.558 59.7593 103.316C60.3567 103.064 61.0427 102.938 61.8173 102.938C62.3307 102.938 62.8253 102.989 63.3013 103.092C63.7773 103.194 64.202 103.339 64.5753 103.526L64.0713 104.59C63.7633 104.45 63.418 104.324 63.0353 104.212C62.662 104.1 62.2513 104.044 61.8033 104.044ZM73.001 109.308C73.001 109.933 72.917 110.488 72.749 110.974C72.5904 111.45 72.357 111.856 72.049 112.192C71.7504 112.528 71.3817 112.784 70.943 112.962C70.5137 113.13 70.033 113.214 69.501 113.214C69.0064 113.214 68.549 113.13 68.129 112.962C67.709 112.784 67.345 112.528 67.037 112.192C66.729 111.856 66.4864 111.45 66.309 110.974C66.141 110.488 66.057 109.933 66.057 109.308C66.057 108.477 66.197 107.777 66.477 107.208C66.757 106.629 67.1584 106.19 67.681 105.892C68.2037 105.584 68.8244 105.43 69.543 105.43C70.2244 105.43 70.8217 105.584 71.335 105.892C71.8577 106.19 72.2637 106.629 72.553 107.208C72.8517 107.777 73.001 108.477 73.001 109.308ZM67.331 109.308C67.331 109.896 67.4057 110.409 67.555 110.848C67.7137 111.277 67.9564 111.608 68.283 111.842C68.6097 112.075 69.025 112.192 69.529 112.192C70.033 112.192 70.4484 112.075 70.775 111.842C71.1017 111.608 71.3397 111.277 71.489 110.848C71.6477 110.409 71.727 109.896 71.727 109.308C71.727 108.71 71.6477 108.202 71.489 107.782C71.3304 107.362 71.0877 107.04 70.761 106.816C70.4437 106.582 70.0284 106.466 69.515 106.466C68.7497 106.466 68.1944 106.718 67.849 107.222C67.5037 107.726 67.331 108.421 67.331 109.308ZM78.8456 105.43C79.7416 105.43 80.4183 105.649 80.8756 106.088C81.3329 106.517 81.5616 107.217 81.5616 108.188V113.074H80.3436V108.272C80.3436 107.665 80.2083 107.212 79.9376 106.914C79.6669 106.615 79.2423 106.466 78.6636 106.466C77.8329 106.466 77.2589 106.699 76.9416 107.166C76.6243 107.632 76.4656 108.304 76.4656 109.182V113.074H75.2336V105.57H76.2276L76.4096 106.592H76.4796C76.6476 106.33 76.8529 106.116 77.0956 105.948C77.3476 105.77 77.6229 105.64 77.9216 105.556C78.2203 105.472 78.5283 105.43 78.8456 105.43ZM87.1779 113.214C86.5152 113.214 85.9226 113.078 85.3999 112.808C84.8866 112.537 84.4806 112.117 84.1819 111.548C83.8926 110.978 83.7479 110.25 83.7479 109.364C83.7479 108.44 83.9019 107.688 84.2099 107.11C84.5179 106.531 84.9332 106.106 85.4559 105.836C85.9879 105.565 86.5899 105.43 87.2619 105.43C87.6446 105.43 88.0132 105.472 88.3679 105.556C88.7226 105.63 89.0119 105.724 89.2359 105.836L88.8579 106.858C88.6339 106.774 88.3726 106.694 88.0739 106.62C87.7752 106.545 87.4952 106.508 87.2339 106.508C86.7299 106.508 86.3146 106.615 85.9879 106.83C85.6612 107.044 85.4186 107.362 85.2599 107.782C85.1012 108.202 85.0219 108.724 85.0219 109.35C85.0219 109.947 85.1012 110.456 85.2599 110.876C85.4186 111.296 85.6566 111.613 85.9739 111.828C86.2912 112.042 86.6879 112.15 87.1639 112.15C87.5746 112.15 87.9339 112.108 88.2419 112.024C88.5592 111.94 88.8486 111.837 89.1099 111.716V112.808C88.8579 112.938 88.5779 113.036 88.2699 113.102C87.9712 113.176 87.6072 113.214 87.1779 113.214ZM94.0725 105.43C94.7165 105.43 95.2671 105.57 95.7245 105.85C96.1911 106.13 96.5458 106.526 96.7885 107.04C97.0405 107.544 97.1665 108.136 97.1665 108.818V109.56H92.0285C92.0471 110.409 92.2618 111.058 92.6725 111.506C93.0925 111.944 93.6758 112.164 94.4225 112.164C94.8985 112.164 95.3185 112.122 95.6825 112.038C96.0558 111.944 96.4385 111.814 96.8305 111.646V112.724C96.4478 112.892 96.0698 113.013 95.6965 113.088C95.3231 113.172 94.8798 113.214 94.3665 113.214C93.6571 113.214 93.0271 113.069 92.4765 112.78C91.9351 112.49 91.5105 112.061 91.2025 111.492C90.9038 110.913 90.7545 110.208 90.7545 109.378C90.7545 108.556 90.8898 107.852 91.1605 107.264C91.4405 106.676 91.8278 106.223 92.3225 105.906C92.8265 105.588 93.4098 105.43 94.0725 105.43ZM94.0585 106.438C93.4705 106.438 93.0038 106.629 92.6585 107.012C92.3225 107.385 92.1218 107.908 92.0565 108.58H95.8785C95.8785 108.15 95.8131 107.777 95.6825 107.46C95.5518 107.142 95.3511 106.895 95.0805 106.718C94.8191 106.531 94.4785 106.438 94.0585 106.438ZM102.927 105.43C103.851 105.43 104.593 105.752 105.153 106.396C105.722 107.04 106.007 108.01 106.007 109.308C106.007 110.157 105.876 110.876 105.615 111.464C105.363 112.042 105.003 112.481 104.537 112.78C104.079 113.069 103.538 113.214 102.913 113.214C102.53 113.214 102.189 113.162 101.891 113.06C101.592 112.957 101.335 112.826 101.121 112.668C100.915 112.5 100.738 112.318 100.589 112.122H100.505C100.523 112.28 100.542 112.481 100.561 112.724C100.579 112.966 100.589 113.176 100.589 113.354V116.434H99.3568V105.57H100.365L100.533 106.592H100.589C100.738 106.377 100.915 106.181 101.121 106.004C101.335 105.826 101.587 105.686 101.877 105.584C102.175 105.481 102.525 105.43 102.927 105.43ZM102.703 106.466C102.199 106.466 101.793 106.564 101.485 106.76C101.177 106.946 100.953 107.231 100.813 107.614C100.673 107.996 100.598 108.482 100.589 109.07V109.308C100.589 109.924 100.654 110.446 100.785 110.876C100.915 111.305 101.135 111.632 101.443 111.856C101.76 112.08 102.189 112.192 102.731 112.192C103.188 112.192 103.561 112.066 103.851 111.814C104.149 111.562 104.369 111.221 104.509 110.792C104.658 110.353 104.733 109.854 104.733 109.294C104.733 108.435 104.565 107.749 104.229 107.236C103.902 106.722 103.393 106.466 102.703 106.466ZM110.756 112.206C110.943 112.206 111.134 112.192 111.33 112.164C111.526 112.126 111.685 112.089 111.806 112.052V112.99C111.675 113.055 111.489 113.106 111.246 113.144C111.003 113.19 110.77 113.214 110.546 113.214C110.154 113.214 109.79 113.148 109.454 113.018C109.127 112.878 108.861 112.64 108.656 112.304C108.451 111.968 108.348 111.496 108.348 110.89V106.522H107.284V105.934L108.362 105.444L108.852 103.848H109.58V105.57H111.75V106.522H109.58V110.862C109.58 111.319 109.687 111.66 109.902 111.884C110.126 112.098 110.411 112.206 110.756 112.206ZM118.475 111.002C118.475 111.487 118.353 111.893 118.111 112.22C117.868 112.546 117.523 112.794 117.075 112.962C116.627 113.13 116.095 113.214 115.479 113.214C114.956 113.214 114.503 113.172 114.121 113.088C113.747 113.004 113.416 112.887 113.127 112.738V111.618C113.425 111.767 113.785 111.907 114.205 112.038C114.634 112.159 115.068 112.22 115.507 112.22C116.132 112.22 116.585 112.122 116.865 111.926C117.145 111.72 117.285 111.45 117.285 111.114C117.285 110.927 117.233 110.759 117.131 110.61C117.028 110.46 116.841 110.311 116.571 110.162C116.309 110.012 115.931 109.844 115.437 109.658C114.951 109.471 114.536 109.284 114.191 109.098C113.845 108.911 113.579 108.687 113.393 108.426C113.206 108.164 113.113 107.828 113.113 107.418C113.113 106.783 113.369 106.293 113.883 105.948C114.405 105.602 115.087 105.43 115.927 105.43C116.384 105.43 116.809 105.476 117.201 105.57C117.602 105.654 117.975 105.775 118.321 105.934L117.901 106.914C117.695 106.82 117.476 106.741 117.243 106.676C117.019 106.601 116.79 106.545 116.557 106.508C116.323 106.461 116.085 106.438 115.843 106.438C115.339 106.438 114.951 106.522 114.681 106.69C114.419 106.848 114.289 107.068 114.289 107.348C114.289 107.553 114.349 107.73 114.471 107.88C114.592 108.02 114.793 108.16 115.073 108.3C115.362 108.43 115.745 108.589 116.221 108.776C116.697 108.953 117.103 109.135 117.439 109.322C117.775 109.508 118.031 109.737 118.209 110.008C118.386 110.269 118.475 110.6 118.475 111.002ZM131.009 109.308C131.009 109.933 130.925 110.488 130.757 110.974C130.598 111.45 130.365 111.856 130.057 112.192C129.758 112.528 129.389 112.784 128.951 112.962C128.521 113.13 128.041 113.214 127.509 113.214C127.014 113.214 126.557 113.13 126.137 112.962C125.717 112.784 125.353 112.528 125.045 112.192C124.737 111.856 124.494 111.45 124.317 110.974C124.149 110.488 124.065 109.933 124.065 109.308C124.065 108.477 124.205 107.777 124.485 107.208C124.765 106.629 125.166 106.19 125.689 105.892C126.211 105.584 126.832 105.43 127.551 105.43C128.232 105.43 128.829 105.584 129.343 105.892C129.865 106.19 130.271 106.629 130.561 107.208C130.859 107.777 131.009 108.477 131.009 109.308ZM125.339 109.308C125.339 109.896 125.413 110.409 125.563 110.848C125.721 111.277 125.964 111.608 126.291 111.842C126.617 112.075 127.033 112.192 127.537 112.192C128.041 112.192 128.456 112.075 128.783 111.842C129.109 111.608 129.347 111.277 129.497 110.848C129.655 110.409 129.735 109.896 129.735 109.308C129.735 108.71 129.655 108.202 129.497 107.782C129.338 107.362 129.095 107.04 128.769 106.816C128.451 106.582 128.036 106.466 127.523 106.466C126.757 106.466 126.202 106.718 125.857 107.222C125.511 107.726 125.339 108.421 125.339 109.308ZM136.699 106.522H134.809V113.074H133.577V106.522H132.261V105.948L133.577 105.528V105.094C133.577 104.45 133.671 103.927 133.857 103.526C134.053 103.124 134.333 102.83 134.697 102.644C135.061 102.457 135.5 102.364 136.013 102.364C136.312 102.364 136.583 102.392 136.825 102.448C137.077 102.494 137.292 102.55 137.469 102.616L137.147 103.582C136.998 103.535 136.825 103.488 136.629 103.442C136.433 103.395 136.233 103.372 136.027 103.372C135.617 103.372 135.309 103.512 135.103 103.792C134.907 104.062 134.809 104.492 134.809 105.08V105.57H136.699V106.522ZM52.9068 123.044C52.3748 123.044 51.8941 123.137 51.4648 123.324C51.0354 123.501 50.6714 123.767 50.3728 124.122C50.0741 124.467 49.8454 124.892 49.6868 125.396C49.5281 125.89 49.4488 126.45 49.4488 127.076C49.4488 127.897 49.5748 128.611 49.8268 129.218C50.0881 129.824 50.4708 130.291 50.9748 130.618C51.4881 130.944 52.1274 131.108 52.8928 131.108C53.3314 131.108 53.7468 131.07 54.1388 130.996C54.5308 130.921 54.9134 130.828 55.2868 130.716V131.808C54.9134 131.948 54.5261 132.05 54.1248 132.116C53.7328 132.181 53.2614 132.214 52.7108 132.214C51.6934 132.214 50.8441 132.004 50.1628 131.584C49.4814 131.164 48.9681 130.566 48.6228 129.792C48.2868 129.017 48.1188 128.107 48.1188 127.062C48.1188 126.306 48.2214 125.615 48.4268 124.99C48.6414 124.364 48.9494 123.823 49.3508 123.366C49.7614 122.908 50.2654 122.558 50.8628 122.316C51.4601 122.064 52.1461 121.938 52.9208 121.938C53.4341 121.938 53.9288 121.989 54.4048 122.092C54.8808 122.194 55.3054 122.339 55.6788 122.526L55.1748 123.59C54.8668 123.45 54.5214 123.324 54.1388 123.212C53.7654 123.1 53.3548 123.044 52.9068 123.044ZM64.1045 128.308C64.1045 128.933 64.0205 129.488 63.8525 129.974C63.6938 130.45 63.4605 130.856 63.1525 131.192C62.8538 131.528 62.4851 131.784 62.0465 131.962C61.6171 132.13 61.1365 132.214 60.6045 132.214C60.1098 132.214 59.6525 132.13 59.2325 131.962C58.8125 131.784 58.4485 131.528 58.1405 131.192C57.8325 130.856 57.5898 130.45 57.4125 129.974C57.2445 129.488 57.1605 128.933 57.1605 128.308C57.1605 127.477 57.3005 126.777 57.5805 126.208C57.8605 125.629 58.2618 125.19 58.7845 124.892C59.3071 124.584 59.9278 124.43 60.6465 124.43C61.3278 124.43 61.9251 124.584 62.4385 124.892C62.9611 125.19 63.3671 125.629 63.6565 126.208C63.9551 126.777 64.1045 127.477 64.1045 128.308ZM58.4345 128.308C58.4345 128.896 58.5091 129.409 58.6585 129.848C58.8171 130.277 59.0598 130.608 59.3865 130.842C59.7131 131.075 60.1285 131.192 60.6325 131.192C61.1365 131.192 61.5518 131.075 61.8785 130.842C62.2051 130.608 62.4431 130.277 62.5925 129.848C62.7511 129.409 62.8305 128.896 62.8305 128.308C62.8305 127.71 62.7511 127.202 62.5925 126.782C62.4338 126.362 62.1911 126.04 61.8645 125.816C61.5471 125.582 61.1318 125.466 60.6185 125.466C59.8531 125.466 59.2978 125.718 58.9525 126.222C58.6071 126.726 58.4345 127.421 58.4345 128.308ZM67.7156 132.074L64.8736 124.57H66.1896L67.7856 128.994C67.8603 129.199 67.9396 129.428 68.0236 129.68C68.1076 129.932 68.1823 130.174 68.2476 130.408C68.3129 130.632 68.3596 130.823 68.3876 130.982H68.4436C68.4809 130.823 68.5323 130.627 68.5976 130.394C68.6723 130.16 68.7516 129.918 68.8356 129.666C68.9289 129.414 69.0083 129.19 69.0736 128.994L70.6696 124.57H71.9856L69.1296 132.074H67.7156ZM76.295 124.444C77.2096 124.444 77.8863 124.644 78.325 125.046C78.7636 125.447 78.983 126.086 78.983 126.964V132.074H78.087L77.849 131.01H77.793C77.5783 131.28 77.3543 131.509 77.121 131.696C76.897 131.873 76.6356 132.004 76.337 132.088C76.0476 132.172 75.693 132.214 75.273 132.214C74.825 132.214 74.419 132.134 74.055 131.976C73.7003 131.817 73.4203 131.574 73.215 131.248C73.0096 130.912 72.907 130.492 72.907 129.988C72.907 129.241 73.201 128.667 73.789 128.266C74.377 127.855 75.2823 127.631 76.505 127.594L77.779 127.552V127.104C77.779 126.478 77.6436 126.044 77.373 125.802C77.1023 125.559 76.7196 125.438 76.225 125.438C75.833 125.438 75.4596 125.498 75.105 125.62C74.7503 125.732 74.419 125.862 74.111 126.012L73.733 125.088C74.0596 124.91 74.447 124.761 74.895 124.64C75.343 124.509 75.8096 124.444 76.295 124.444ZM76.659 128.448C75.7256 128.485 75.077 128.634 74.713 128.896C74.3583 129.157 74.181 129.526 74.181 130.002C74.181 130.422 74.307 130.73 74.559 130.926C74.8203 131.122 75.1516 131.22 75.553 131.22C76.1876 131.22 76.715 131.047 77.135 130.702C77.555 130.347 77.765 129.806 77.765 129.078V128.406L76.659 128.448ZM82.8126 132.074H81.5806V121.434H82.8126V132.074ZM88.368 124.43C89.012 124.43 89.5627 124.57 90.02 124.85C90.4867 125.13 90.8413 125.526 91.084 126.04C91.336 126.544 91.462 127.136 91.462 127.818V128.56H86.324C86.3427 129.409 86.5573 130.058 86.968 130.506C87.388 130.944 87.9713 131.164 88.718 131.164C89.194 131.164 89.614 131.122 89.978 131.038C90.3513 130.944 90.734 130.814 91.126 130.646V131.724C90.7433 131.892 90.3653 132.013 89.992 132.088C89.6187 132.172 89.1753 132.214 88.662 132.214C87.9527 132.214 87.3227 132.069 86.772 131.78C86.2307 131.49 85.806 131.061 85.498 130.492C85.1993 129.913 85.05 129.208 85.05 128.378C85.05 127.556 85.1853 126.852 85.456 126.264C85.736 125.676 86.1233 125.223 86.618 124.906C87.122 124.588 87.7053 124.43 88.368 124.43ZM88.354 125.438C87.766 125.438 87.2993 125.629 86.954 126.012C86.618 126.385 86.4173 126.908 86.352 127.58H90.174C90.174 127.15 90.1087 126.777 89.978 126.46C89.8473 126.142 89.6467 125.895 89.376 125.718C89.1147 125.531 88.774 125.438 88.354 125.438ZM97.2643 124.43C98.1603 124.43 98.837 124.649 99.2943 125.088C99.7517 125.517 99.9803 126.217 99.9803 127.188V132.074H98.7623V127.272C98.7623 126.665 98.627 126.212 98.3563 125.914C98.0857 125.615 97.661 125.466 97.0823 125.466C96.2517 125.466 95.6777 125.699 95.3603 126.166C95.043 126.632 94.8843 127.304 94.8843 128.182V132.074H93.6523V124.57H94.6463L94.8283 125.592H94.8983C95.0663 125.33 95.2717 125.116 95.5143 124.948C95.7663 124.77 96.0417 124.64 96.3403 124.556C96.639 124.472 96.947 124.43 97.2643 124.43ZM105.093 131.206C105.279 131.206 105.471 131.192 105.667 131.164C105.863 131.126 106.021 131.089 106.143 131.052V131.99C106.012 132.055 105.825 132.106 105.583 132.144C105.34 132.19 105.107 132.214 104.883 132.214C104.491 132.214 104.127 132.148 103.791 132.018C103.464 131.878 103.198 131.64 102.993 131.304C102.787 130.968 102.685 130.496 102.685 129.89V125.522H101.621V124.934L102.699 124.444L103.189 122.848H103.917V124.57H106.087V125.522H103.917V129.862C103.917 130.319 104.024 130.66 104.239 130.884C104.463 131.098 104.747 131.206 105.093 131.206Z" fill="#F9F9F9"/>
<path d="M16.8563 114.824H137.147V115.524H16.8563V114.824ZM47.2648 133.824H106.731V134.524H47.2648V133.824Z" fill="#F9F9F9"/>
<a href="https://docs.covalent.xyz/docs/user-documentation/concepts/covalent-basics">
<rect fill="black" fill-opacity="0" x="14.8563" width="123.927" height="19.068"/>
</a>
<a href="https://docs.covalent.xyz/docs/user-documentation/concepts/covalent-basics">
<rect fill="black" fill-opacity="0" x="45.2648" y="19.068" width="59.1859" height="19.068"/>
</a>
</svg>
