<svg width="71" height="67" viewBox="0 0 71 67" fill="none" xmlns="http://www.w3.org/2000/svg">
<circle cx="32.5" cy="34.5492" r="32" fill="#6978FF"/>
<path d="M2 55.4552L2.00011 23.4172L60.5448 55.4552H2Z" fill="#5552FF" stroke="#AEB6FF"/>
<path d="M8.71 49.69L8.71005 34.3959L36.7492 49.69H8.71Z" fill="#6978FF" stroke="#AEB6FF"/>
<line x1="5.16" y1="35.8836" x2="2.11" y2="35.8836" stroke="#AEB6FF"/>
<line x1="9.49526" y1="27.0823" x2="8.03935" y2="29.7624" stroke="#AEB6FF"/>
<line x1="5.16" y1="40.1536" x2="2.11" y2="40.1536" stroke="#AEB6FF"/>
<line x1="13.2473" y1="29.1205" x2="11.7914" y2="31.8006" stroke="#AEB6FF"/>
<line x1="5.16" y1="44.4236" x2="2.11" y2="44.4236" stroke="#AEB6FF"/>
<line x1="16.9993" y1="31.1587" x2="15.5434" y2="33.8388" stroke="#AEB6FF"/>
<line x1="5.16" y1="48.6936" x2="2.11" y2="48.6936" stroke="#AEB6FF"/>
<line x1="20.7517" y1="33.1972" x2="19.2957" y2="35.8773" stroke="#AEB6FF"/>
<line x1="24.5037" y1="35.2354" x2="23.0478" y2="37.9155" stroke="#AEB6FF"/>
<line x1="28.2557" y1="37.2737" x2="26.7998" y2="39.9538" stroke="#AEB6FF"/>
<path d="M32.5 11.9613L51.5 0.573608L70.5 11.9613L51.5 23.6486V45.5248L32.5 35.0362V11.9613Z" fill="#4541F4"/>
<path d="M32.5 11.9613L51.5 0.573608L70.5 11.9613L51.5 23.6486M32.5 11.9613L51.5 23.6486M32.5 11.9613V35.0362L51.5 45.5248M51.5 23.6486V45.5248M51.5 45.5248L70.5 35.0362" stroke="#AEB6FF" stroke-linejoin="round"/>
<path d="M70.5 34.9916L70.5 11.9273" stroke="#AEB6FF" stroke-width="0.5" stroke-dasharray="5 5"/>
</svg>
