<?xml version="1.0" encoding="UTF-8" standalone="no"?>
<!DOCTYPE svg PUBLIC "-//W3C//DTD SVG 1.1//EN"
 "http://www.w3.org/Graphics/SVG/1.1/DTD/svg11.dtd">
<!-- Generated by graphviz version 2.42.3 (20191010.1750)
 -->
<!-- Title: G Pages: 1 -->
<svg width="862pt" height="1277pt"
 viewBox="0.00 0.00 861.63 1277.12" xmlns="http://www.w3.org/2000/svg" xmlns:xlink="http://www.w3.org/1999/xlink">
<g id="graph0" class="graph" transform="scale(1 1) rotate(0) translate(4 1273.12)">
<title>G</title><style>.edge>path:hover{stroke-width:8}</style>
<polygon fill="white" stroke="transparent" points="-4,4 -4,-1273.12 857.63,-1273.12 857.63,4 -4,4"/>
<!-- covalent -->
<g id="node1" class="node">
<title>covalent</title><style>.edge>path:hover{stroke-width:8}</style>
<ellipse fill="#849b26" stroke="black" cx="405.35" cy="-507.22" rx="30.99" ry="18"/>
<text text-anchor="middle" x="405.35" y="-504.22" font-family="Helvetica,sans-Serif" font-size="10.00" fill="#000000">covalent</text>
</g>
<!-- covalentdispatcher -->
<g id="node16" class="node">
<title>covalentdispatcher</title><style>.edge>path:hover{stroke-width:8}</style>
<polygon fill="#49883a" stroke="black" points="280.24,-597.22 277.24,-601.22 256.24,-601.22 253.24,-597.22 180.47,-597.22 180.47,-561.22 280.24,-561.22 280.24,-597.22"/>
<text text-anchor="middle" x="230.35" y="-576.22" font-family="Helvetica,sans-Serif" font-size="10.00" fill="#ffffff">covalentdispatcher</text>
</g>
<!-- covalent&#45;&gt;covalentdispatcher -->
<g id="edge6" class="edge">
<title>covalent&#45;&gt;covalentdispatcher</title><style>.edge>path:hover{stroke-width:8}</style>
<path fill="none" stroke="black" d="M380.65,-518.1C355.27,-528.25 314.99,-544.37 282.51,-557.36"/>
<polygon fill="#849b26" stroke="black" points="281.13,-554.14 273.14,-561.1 283.73,-560.64 281.13,-554.14"/>
</g>
<!-- covalent__results_manager -->
<g id="node2" class="node">
<title>covalent__results_manager</title><style>.edge>path:hover{stroke-width:8}</style>
<ellipse fill="#a6ca16" stroke="black" cx="407.35" cy="-1249.32" rx="67.83" ry="19.6"/>
<text text-anchor="middle" x="407.35" y="-1251.32" font-family="Helvetica,sans-Serif" font-size="10.00" fill="#000000">covalent.</text>
<text text-anchor="middle" x="407.35" y="-1241.32" font-family="Helvetica,sans-Serif" font-size="10.00" fill="#000000">_results_manager</text>
</g>
<!-- covalent__results_manager&#45;&gt;covalent -->
<g id="edge7" class="edge">
<title>covalent__results_manager&#45;&gt;covalent</title><style>.edge>path:hover{stroke-width:8}</style>
<path fill="none" stroke="black" d="M114.35,-1165.65C52.36,-1116.88 114.35,-1067.05 114.35,-988.17 114.35,-820.83 114.35,-820.83 114.35,-820.83 114.35,-705.28 203.72,-704.9 294.35,-633.22 330.76,-604.42 357.16,-617.84 384.35,-580.22"/>
<path fill="none" stroke="black" d="M384.35,-578.22C395.73,-562.49 401.01,-540.56 403.41,-525.46"/>
</g>
<!-- covalent__workflow_lattice -->
<g id="node13" class="node">
<title>covalent__workflow_lattice</title><style>.edge>path:hover{stroke-width:8}</style>
<ellipse fill="#6d8217" stroke="black" cx="386.35" cy="-821.83" rx="44.16" ry="26.74"/>
<text text-anchor="middle" x="386.35" y="-828.83" font-family="Helvetica,sans-Serif" font-size="10.00" fill="#ffffff">covalent.</text>
<text text-anchor="middle" x="386.35" y="-818.83" font-family="Helvetica,sans-Serif" font-size="10.00" fill="#ffffff">_workflow.</text>
<text text-anchor="middle" x="386.35" y="-808.83" font-family="Helvetica,sans-Serif" font-size="10.00" fill="#ffffff">lattice</text>
</g>
<!-- covalent__results_manager&#45;&gt;covalent__workflow_lattice -->
<g id="edge8" class="edge">
<title>covalent__results_manager&#45;&gt;covalent__workflow_lattice</title><style>.edge>path:hover{stroke-width:8}</style>
<path fill="none" stroke="black" d="M419.56,-1229.78C425.8,-1219.49 432.97,-1206.23 437.35,-1193.52 454.32,-1144.29 456.35,-1129.98 456.35,-1077.91 456.35,-986.17 456.35,-986.17 456.35,-986.17 456.35,-940.29 456.78,-926.26 437.35,-884.7 432.01,-873.27 424.06,-862.18 416.02,-852.62"/>
<polygon fill="#a6ca16" stroke="black" points="418.53,-850.18 409.3,-844.98 413.27,-854.8 418.53,-850.18"/>
</g>
<!-- covalent__results_manager&#45;&gt;covalentdispatcher -->
<g id="edge9" class="edge">
<title>covalent__results_manager&#45;&gt;covalentdispatcher</title><style>.edge>path:hover{stroke-width:8}</style>
<path fill="none" stroke="black" d="M341.13,-1244.66C279.67,-1238.29 188.07,-1220.94 122.61,-1173.86"/>
<polygon fill="#a6ca16" stroke="black" points="124.45,-1170.86 114.35,-1167.65 120.24,-1176.46 124.45,-1170.86"/>
<path fill="none" stroke="black" d="M114.35,-1165.65C75.42,-1136.66 51.22,-1144.2 24.35,-1103.78 -4.69,-1060.07 0.35,-1040.65 0.35,-988.17 0.35,-739.96 0.35,-739.96 0.35,-739.96 0.35,-652.94 112.8,-609.51 180.45,-591.26"/>
</g>
<!-- covalent__results_manager_result -->
<g id="node3" class="node">
<title>covalent__results_manager_result</title><style>.edge>path:hover{stroke-width:8}</style>
<ellipse fill="#7d9324" stroke="black" cx="553.35" cy="-1076.91" rx="69.48" ry="26.74"/>
<text text-anchor="middle" x="553.35" y="-1083.91" font-family="Helvetica,sans-Serif" font-size="10.00" fill="#000000">covalent.</text>
<text text-anchor="middle" x="553.35" y="-1073.91" font-family="Helvetica,sans-Serif" font-size="10.00" fill="#000000">_results_manager.</text>
<text text-anchor="middle" x="553.35" y="-1063.91" font-family="Helvetica,sans-Serif" font-size="10.00" fill="#000000">result</text>
</g>
<!-- covalent__results_manager_result&#45;&gt;covalent__results_manager -->
<g id="edge10" class="edge">
<title>covalent__results_manager_result&#45;&gt;covalent__results_manager</title><style>.edge>path:hover{stroke-width:8}</style>
<path fill="none" stroke="black" d="M537.44,-1103.54C521.78,-1127.86 496.48,-1164.84 470.35,-1193.52 460.63,-1204.19 448.94,-1214.86 438.28,-1223.9"/>
<polygon fill="#7d9324" stroke="black" points="435.82,-1221.39 430.38,-1230.48 440.3,-1226.77 435.82,-1221.39"/>
</g>
<!-- covalent__results_manager_results_manager -->
<g id="node4" class="node">
<title>covalent__results_manager_results_manager</title><style>.edge>path:hover{stroke-width:8}</style>
<ellipse fill="#a6ca16" stroke="black" cx="359.35" cy="-1166.65" rx="69.48" ry="26.74"/>
<text text-anchor="middle" x="359.35" y="-1173.65" font-family="Helvetica,sans-Serif" font-size="10.00" fill="#000000">covalent.</text>
<text text-anchor="middle" x="359.35" y="-1163.65" font-family="Helvetica,sans-Serif" font-size="10.00" fill="#000000">_results_manager.</text>
<text text-anchor="middle" x="359.35" y="-1153.65" font-family="Helvetica,sans-Serif" font-size="10.00" fill="#000000">results_manager</text>
</g>
<!-- covalent__results_manager_result&#45;&gt;covalent__results_manager_results_manager -->
<g id="edge11" class="edge">
<title>covalent__results_manager_result&#45;&gt;covalent__results_manager_results_manager</title><style>.edge>path:hover{stroke-width:8}</style>
<path fill="none" stroke="black" d="M509.33,-1097.82C480.66,-1110.79 443.08,-1127.78 412.71,-1141.52"/>
<polygon fill="#7d9324" stroke="black" points="411.21,-1138.36 403.54,-1145.67 414.09,-1144.73 411.21,-1138.36"/>
</g>
<!-- covalent__results_manager_results_manager&#45;&gt;covalent -->
<g id="edge12" class="edge">
<title>covalent__results_manager_results_manager&#45;&gt;covalent</title><style>.edge>path:hover{stroke-width:8}</style>
<path fill="none" stroke="black" d="M314.35,-903.5C322.09,-868.49 308.61,-858.22 314.35,-822.83"/>
<path fill="none" stroke="black" d="M314.35,-820.83C321.96,-773.98 379.07,-788.86 386.35,-741.96"/>
<path fill="none" stroke="black" d="M386.35,-739.96C400.25,-670.33 343.17,-638.06 384.35,-580.22"/>
<path fill="none" stroke="black" d="M348.53,-1140.06C330.86,-1095.08 299.09,-998.69 312.54,-915.34"/>
<polygon fill="#a6ca16" stroke="black" points="315.98,-915.97 314.35,-905.5 309.1,-914.7 315.98,-915.97"/>
</g>
<!-- covalent__results_manager_results_manager&#45;&gt;covalent__results_manager -->
<g id="edge13" class="edge">
<title>covalent__results_manager_results_manager&#45;&gt;covalent__results_manager</title><style>.edge>path:hover{stroke-width:8}</style>
<path fill="none" stroke="black" d="M374.54,-1193.17C379.82,-1202.04 385.75,-1212.01 391.1,-1221.01"/>
<polygon fill="#a6ca16" stroke="black" points="388.1,-1222.8 396.22,-1229.61 394.12,-1219.22 388.1,-1222.8"/>
</g>
<!-- covalent__results_manager_results_manager&#45;&gt;covalent__workflow_lattice -->
<g id="edge14" class="edge">
<title>covalent__results_manager_results_manager&#45;&gt;covalent__workflow_lattice</title><style>.edge>path:hover{stroke-width:8}</style>
<path fill="none" stroke="black" d="M314.35,-903.5C319.6,-878.32 339.85,-856.99 357.54,-842.6"/>
</g>
<!-- covalent__results_manager_results_manager&#45;&gt;covalentdispatcher -->
<g id="edge15" class="edge">
<title>covalent__results_manager_results_manager&#45;&gt;covalentdispatcher</title><style>.edge>path:hover{stroke-width:8}</style>
<path fill="none" stroke="black" d="M303.83,-1150.47C275.76,-1140.67 242.6,-1125.59 218.35,-1103.78 174.38,-1064.2 152.35,-1047.33 152.35,-988.17 152.35,-820.83 152.35,-820.83 152.35,-820.83 152.35,-739.38 193.3,-649.66 215.86,-606.4"/>
<polygon fill="#a6ca16" stroke="black" points="219.03,-607.88 220.63,-597.41 212.85,-604.59 219.03,-607.88"/>
</g>
<!-- covalent__results_manager_utils -->
<g id="node5" class="node">
<title>covalent__results_manager_utils</title><style>.edge>path:hover{stroke-width:8}</style>
<ellipse fill="#a9c247" stroke="black" cx="670.35" cy="-987.17" rx="69.48" ry="26.74"/>
<text text-anchor="middle" x="670.35" y="-994.17" font-family="Helvetica,sans-Serif" font-size="10.00" fill="#000000">covalent.</text>
<text text-anchor="middle" x="670.35" y="-984.17" font-family="Helvetica,sans-Serif" font-size="10.00" fill="#000000">_results_manager.</text>
<text text-anchor="middle" x="670.35" y="-974.17" font-family="Helvetica,sans-Serif" font-size="10.00" fill="#000000">utils</text>
</g>
<!-- covalent__results_manager_utils&#45;&gt;covalent__results_manager_result -->
<g id="edge16" class="edge">
<title>covalent__results_manager_utils&#45;&gt;covalent__results_manager_result</title><style>.edge>path:hover{stroke-width:8}</style>
<path fill="none" stroke="black" d="M639.31,-1011.45C625.03,-1022.16 607.92,-1034.99 592.75,-1046.37"/>
<polygon fill="#a9c247" stroke="black" points="590.45,-1043.72 584.55,-1052.52 594.65,-1049.32 590.45,-1043.72"/>
</g>
<!-- covalent__shared_files -->
<g id="node6" class="node">
<title>covalent__shared_files</title><style>.edge>path:hover{stroke-width:8}</style>
<ellipse fill="#c0ef06" stroke="black" cx="361.35" cy="-262.61" rx="53.25" ry="19.6"/>
<text text-anchor="middle" x="361.35" y="-264.61" font-family="Helvetica,sans-Serif" font-size="10.00" fill="#000000">covalent.</text>
<text text-anchor="middle" x="361.35" y="-254.61" font-family="Helvetica,sans-Serif" font-size="10.00" fill="#000000">_shared_files</text>
</g>
<!-- covalent__shared_files&#45;&gt;covalent -->
<g id="edge17" class="edge">
<title>covalent__shared_files&#45;&gt;covalent</title><style>.edge>path:hover{stroke-width:8}</style>
<path fill="none" stroke="black" d="M455.35,-390.35C463.63,-416.57 471.63,-430.06 455.35,-452.22"/>
<path fill="none" stroke="black" d="M434.35,-326.48C442.85,-354.25 446.62,-360.66 455.35,-388.35"/>
</g>
<!-- covalent__shared_files&#45;&gt;covalent__results_manager_result -->
<g id="edge18" class="edge">
<title>covalent__shared_files&#45;&gt;covalent__results_manager_result</title><style>.edge>path:hover{stroke-width:8}</style>
<path fill="none" stroke="black" d="M563.35,-326.48C573.85,-339.87 553.29,-345.72 550.35,-362.48 546.24,-386.01 543.99,-393.2 550.35,-416.22 572.72,-497.11 647.35,-494.3 647.35,-578.22 647.35,-578.22 647.35,-578.22 647.35,-661.09 647.35,-769.12 605.39,-798.16 629.35,-903.5"/>
<path fill="none" stroke="black" d="M394.39,-278.16C403.95,-282.11 414.48,-286.19 424.35,-289.48 484.9,-309.65 520.76,-277.96 563.35,-325.48"/>
</g>
<!-- covalent__shared_files&#45;&gt;covalent__results_manager_results_manager -->
<g id="edge19" class="edge">
<title>covalent__shared_files&#45;&gt;covalent__results_manager_results_manager</title><style>.edge>path:hover{stroke-width:8}</style>
<path fill="none" stroke="black" d="M392.41,-278.81C409.31,-289.2 428.04,-304.83 434.35,-325.48"/>
<path fill="none" stroke="black" d="M434.35,-326.48C439.83,-344.39 301.19,-615.78 294.35,-633.22 262.3,-714.98 232.35,-733.01 232.35,-820.83 232.35,-820.83 232.35,-820.83 232.35,-988.17 232.35,-1049.36 282.91,-1103.99 320.22,-1135.97"/>
<polygon fill="#c0ef06" stroke="black" points="318.05,-1138.71 327.96,-1142.45 322.54,-1133.35 318.05,-1138.71"/>
</g>
<!-- covalent__workflow_electron -->
<g id="node12" class="node">
<title>covalent__workflow_electron</title><style>.edge>path:hover{stroke-width:8}</style>
<ellipse fill="#92ac2b" stroke="black" cx="603.35" cy="-389.35" rx="44.16" ry="26.74"/>
<text text-anchor="middle" x="603.35" y="-396.35" font-family="Helvetica,sans-Serif" font-size="10.00" fill="#000000">covalent.</text>
<text text-anchor="middle" x="603.35" y="-386.35" font-family="Helvetica,sans-Serif" font-size="10.00" fill="#000000">_workflow.</text>
<text text-anchor="middle" x="603.35" y="-376.35" font-family="Helvetica,sans-Serif" font-size="10.00" fill="#000000">electron</text>
</g>
<!-- covalent__shared_files&#45;&gt;covalent__workflow_electron -->
<g id="edge20" class="edge">
<title>covalent__shared_files&#45;&gt;covalent__workflow_electron</title><style>.edge>path:hover{stroke-width:8}</style>
<path fill="none" stroke="black" d="M563.35,-326.48C570.42,-335.5 577.44,-345.78 583.58,-355.34"/>
<polygon fill="#c0ef06" stroke="black" points="580.66,-357.26 588.95,-363.85 586.58,-353.53 580.66,-357.26"/>
</g>
<!-- covalent__shared_files&#45;&gt;covalent__workflow_lattice -->
<g id="edge21" class="edge">
<title>covalent__shared_files&#45;&gt;covalent__workflow_lattice</title><style>.edge>path:hover{stroke-width:8}</style>
<path fill="none" stroke="black" d="M493.35,-453.22C517.92,-487.18 558.55,-466.31 571.35,-506.22"/>
<path fill="none" stroke="black" d="M455.35,-390.35C465.06,-421.12 474.44,-426.07 493.35,-452.22"/>
<path fill="none" stroke="black" d="M571.35,-508.22C592.04,-572.68 534.72,-593.22 550.35,-659.09"/>
</g>
<!-- covalent__workflow_transport -->
<g id="node14" class="node">
<title>covalent__workflow_transport</title><style>.edge>path:hover{stroke-width:8}</style>
<ellipse fill="#99b42d" stroke="black" cx="269.35" cy="-389.35" rx="44.16" ry="26.74"/>
<text text-anchor="middle" x="269.35" y="-396.35" font-family="Helvetica,sans-Serif" font-size="10.00" fill="#000000">covalent.</text>
<text text-anchor="middle" x="269.35" y="-386.35" font-family="Helvetica,sans-Serif" font-size="10.00" fill="#000000">_workflow.</text>
<text text-anchor="middle" x="269.35" y="-376.35" font-family="Helvetica,sans-Serif" font-size="10.00" fill="#000000">transport</text>
</g>
<!-- covalent__shared_files&#45;&gt;covalent__workflow_transport -->
<g id="edge22" class="edge">
<title>covalent__shared_files&#45;&gt;covalent__workflow_transport</title><style>.edge>path:hover{stroke-width:8}</style>
<path fill="none" stroke="black" d="M356.34,-282.37C352.75,-294.83 347.49,-311.41 341.35,-325.48"/>
<path fill="none" stroke="black" d="M341.35,-326.48C334.76,-341.6 322.32,-354.35 309.61,-364.28"/>
<polygon fill="#c0ef06" stroke="black" points="307.27,-361.65 301.28,-370.39 311.41,-367.3 307.27,-361.65"/>
</g>
<!-- covalent__shared_files&#45;&gt;covalentdispatcher -->
<g id="edge23" class="edge">
<title>covalent__shared_files&#45;&gt;covalentdispatcher</title><style>.edge>path:hover{stroke-width:8}</style>
<path fill="none" stroke="black" d="M341.35,-326.48C325.06,-363.85 345.08,-382.38 322.35,-416.22 306.48,-439.86 269.35,-423.74 269.35,-452.22"/>
</g>
<!-- covalent__shared_files_context_managers -->
<g id="node7" class="node">
<title>covalent__shared_files_context_managers</title><style>.edge>path:hover{stroke-width:8}</style>
<ellipse fill="#b1ce3b" stroke="black" cx="502.35" cy="-262.61" rx="69.48" ry="26.74"/>
<text text-anchor="middle" x="502.35" y="-269.61" font-family="Helvetica,sans-Serif" font-size="10.00" fill="#000000">covalent.</text>
<text text-anchor="middle" x="502.35" y="-259.61" font-family="Helvetica,sans-Serif" font-size="10.00" fill="#000000">_shared_files.</text>
<text text-anchor="middle" x="502.35" y="-249.61" font-family="Helvetica,sans-Serif" font-size="10.00" fill="#000000">context_managers</text>
</g>
<!-- covalent__shared_files_context_managers&#45;&gt;covalent__workflow_electron -->
<g id="edge24" class="edge">
<title>covalent__shared_files_context_managers&#45;&gt;covalent__workflow_electron</title><style>.edge>path:hover{stroke-width:8}</style>
<path fill="none" stroke="black" d="M601.35,-326.48C604.31,-334.51 605.62,-343.53 606.02,-352.15"/>
<polygon fill="#b1ce3b" stroke="black" points="602.52,-352.4 606.11,-362.37 609.52,-352.34 602.52,-352.4"/>
<path fill="none" stroke="black" d="M554.46,-280.48C574.13,-290.06 593.63,-304.46 601.35,-325.48"/>
</g>
<!-- covalent__shared_files_context_managers&#45;&gt;covalent__workflow_lattice -->
<g id="edge25" class="edge">
<title>covalent__shared_files_context_managers&#45;&gt;covalent__workflow_lattice</title><style>.edge>path:hover{stroke-width:8}</style>
<path fill="none" stroke="black" d="M491.88,-289.34C477.8,-328.53 458.3,-403.74 493.35,-452.22"/>
</g>
<!-- covalent__shared_files_logger -->
<g id="node8" class="node">
<title>covalent__shared_files_logger</title><style>.edge>path:hover{stroke-width:8}</style>
<ellipse fill="#a9c247" stroke="black" cx="467.35" cy="-660.09" rx="55.18" ry="26.74"/>
<text text-anchor="middle" x="467.35" y="-667.09" font-family="Helvetica,sans-Serif" font-size="10.00" fill="#000000">covalent.</text>
<text text-anchor="middle" x="467.35" y="-657.09" font-family="Helvetica,sans-Serif" font-size="10.00" fill="#000000">_shared_files.</text>
<text text-anchor="middle" x="467.35" y="-647.09" font-family="Helvetica,sans-Serif" font-size="10.00" fill="#000000">logger</text>
</g>
<!-- covalent__shared_files_logger&#45;&gt;covalent__workflow_lattice -->
<g id="edge26" class="edge">
<title>covalent__shared_files_logger&#45;&gt;covalent__workflow_lattice</title><style>.edge>path:hover{stroke-width:8}</style>
<path fill="none" stroke="black" d="M507.88,-678.43C533.08,-692.13 559.15,-713.35 550.35,-739.96"/>
<path fill="none" stroke="black" d="M550.35,-741.96C535.51,-786.85 481.97,-806.21 440.06,-814.55"/>
<polygon fill="#a9c247" stroke="black" points="439.16,-811.15 429.95,-816.39 440.42,-818.04 439.16,-811.15"/>
</g>
<!-- covalent__shared_files_defaults -->
<g id="node9" class="node">
<title>covalent__shared_files_defaults</title><style>.edge>path:hover{stroke-width:8}</style>
<ellipse fill="#c8f906" stroke="black" cx="361.35" cy="-172.87" rx="83.8" ry="26.74"/>
<text text-anchor="middle" x="361.35" y="-179.87" font-family="Helvetica,sans-Serif" font-size="10.00" fill="#000000">covalent.</text>
<text text-anchor="middle" x="361.35" y="-169.87" font-family="Helvetica,sans-Serif" font-size="10.00" fill="#000000">_shared_files.</text>
<text text-anchor="middle" x="361.35" y="-159.87" font-family="Helvetica,sans-Serif" font-size="10.00" fill="#000000">defaults</text>
</g>
<!-- covalent__shared_files_defaults&#45;&gt;covalent -->
<g id="edge27" class="edge">
<title>covalent__shared_files_defaults&#45;&gt;covalent</title><style>.edge>path:hover{stroke-width:8}</style>
<path fill="none" stroke="black" d="M455.35,-453.22C447.4,-464.05 437.43,-475.02 428.5,-484.15"/>
<polygon fill="#c8f906" stroke="black" points="425.9,-481.8 421.3,-491.34 430.85,-486.75 425.9,-481.8"/>
<path fill="none" stroke="black" d="M273.35,-263.61C268.39,-279.14 286.65,-279.27 299.35,-289.48 322.41,-308.02 333.45,-305.59 355.35,-325.48 368.64,-337.54 465.97,-437.76 455.35,-452.22"/>
</g>
<!-- covalent__shared_files_defaults&#45;&gt;covalent__results_manager_result -->
<g id="edge28" class="edge">
<title>covalent__shared_files_defaults&#45;&gt;covalent__results_manager_result</title><style>.edge>path:hover{stroke-width:8}</style>
<path fill="none" stroke="black" d="M273.35,-263.61C263.43,-289.25 283.42,-299.89 273.35,-325.48"/>
<path fill="none" stroke="black" d="M273.35,-326.48C262.38,-354.36 239.63,-343.62 216.35,-362.48 147.06,-418.62 76.35,-417.04 76.35,-506.22 76.35,-506.22 76.35,-506.22 76.35,-741.96 76.35,-938.02 350.14,-1028.68 482.86,-1061.12"/>
<polygon fill="#c8f906" stroke="black" points="482.4,-1064.6 492.94,-1063.53 484.03,-1057.8 482.4,-1064.6"/>
</g>
<!-- covalent__shared_files_defaults&#45;&gt;covalent__results_manager_results_manager -->
<g id="edge29" class="edge">
<title>covalent__shared_files_defaults&#45;&gt;covalent__results_manager_results_manager</title><style>.edge>path:hover{stroke-width:8}</style>
<path fill="none" stroke="black" d="M314.04,-195.27C224.33,-239.47 38.35,-349.93 38.35,-506.22 38.35,-506.22 38.35,-506.22 38.35,-988.17 38.35,-1099.38 187.74,-1141.45 282.69,-1156.96"/>
<polygon fill="#c8f906" stroke="black" points="282.42,-1160.46 292.84,-1158.55 283.51,-1153.55 282.42,-1160.46"/>
</g>
<!-- covalent__shared_files_defaults&#45;&gt;covalent__shared_files -->
<g id="edge30" class="edge">
<title>covalent__shared_files_defaults&#45;&gt;covalent__shared_files</title><style>.edge>path:hover{stroke-width:8}</style>
<path fill="none" stroke="black" d="M361.35,-200.19C361.35,-210.31 361.35,-221.92 361.35,-232.29"/>
<polygon fill="#c8f906" stroke="black" points="357.85,-232.55 361.35,-242.55 364.85,-232.55 357.85,-232.55"/>
</g>
<!-- covalent__shared_files_defaults&#45;&gt;covalent__workflow_electron -->
<g id="edge31" class="edge">
<title>covalent__shared_files_defaults&#45;&gt;covalent__workflow_electron</title><style>.edge>path:hover{stroke-width:8}</style>
<path fill="none" stroke="black" d="M599.35,-263.61C612.01,-288.04 591.86,-299.66 601.35,-325.48"/>
<path fill="none" stroke="black" d="M443.79,-177.54C500.5,-185.17 570.58,-206.09 599.35,-261.61"/>
</g>
<!-- covalent__shared_files_defaults&#45;&gt;covalent__workflow_lattice -->
<g id="edge32" class="edge">
<title>covalent__shared_files_defaults&#45;&gt;covalent__workflow_lattice</title><style>.edge>path:hover{stroke-width:8}</style>
<path fill="none" stroke="black" d="M326.2,-197.35C306.36,-212.9 283.56,-235.25 273.35,-261.61"/>
<path fill="none" stroke="black" d="M308.35,-661.09C321.95,-693.4 288.47,-711.1 308.35,-739.96"/>
<path fill="none" stroke="black" d="M197.35,-326.48C120.11,-419.46 105.79,-495.67 171.35,-597.22 207.59,-653.35 282.45,-597.51 308.35,-659.09"/>
<path fill="none" stroke="black" d="M273.35,-263.61C257.63,-304.23 221.09,-288.96 197.35,-325.48"/>
</g>
<!-- covalent__shared_files_defaults&#45;&gt;covalent__workflow_transport -->
<g id="edge33" class="edge">
<title>covalent__shared_files_defaults&#45;&gt;covalent__workflow_transport</title><style>.edge>path:hover{stroke-width:8}</style>
<path fill="none" stroke="black" d="M273.35,-326.48C270.22,-334.46 268.64,-343.46 267.97,-352.07"/>
<polygon fill="#c8f906" stroke="black" points="264.46,-352.16 267.54,-362.29 271.45,-352.45 264.46,-352.16"/>
</g>
<!-- covalent__shared_files_defaults&#45;&gt;covalentdispatcher -->
<g id="edge34" class="edge">
<title>covalent__shared_files_defaults&#45;&gt;covalentdispatcher</title><style>.edge>path:hover{stroke-width:8}</style>
<path fill="none" stroke="black" d="M197.35,-326.48C170.84,-357.45 193.63,-382.38 216.35,-416.22 232.23,-439.86 268.38,-423.76 269.35,-452.22"/>
<path fill="none" stroke="black" d="M269.35,-453.22C270.1,-488.53 255.57,-527.03 244.04,-551.83"/>
<polygon fill="#c8f906" stroke="black" points="240.83,-550.42 239.65,-560.95 247.14,-553.46 240.83,-550.42"/>
</g>
<!-- covalent__shared_files_utils -->
<g id="node10" class="node">
<title>covalent__shared_files_utils</title><style>.edge>path:hover{stroke-width:8}</style>
<ellipse fill="#b8db2f" stroke="black" cx="599.35" cy="-172.87" rx="55.18" ry="26.74"/>
<text text-anchor="middle" x="599.35" y="-179.87" font-family="Helvetica,sans-Serif" font-size="10.00" fill="#000000">covalent.</text>
<text text-anchor="middle" x="599.35" y="-169.87" font-family="Helvetica,sans-Serif" font-size="10.00" fill="#000000">_shared_files.</text>
<text text-anchor="middle" x="599.35" y="-159.87" font-family="Helvetica,sans-Serif" font-size="10.00" fill="#000000">utils</text>
</g>
<!-- covalent__shared_files_utils&#45;&gt;covalent__shared_files -->
<g id="edge35" class="edge">
<title>covalent__shared_files_utils&#45;&gt;covalent__shared_files</title><style>.edge>path:hover{stroke-width:8}</style>
<path fill="none" stroke="black" d="M554.9,-188.9C519.39,-201.07 468.46,-218.9 424.35,-235.74 418.05,-238.15 411.42,-240.77 404.92,-243.39"/>
<polygon fill="#b8db2f" stroke="black" points="403.5,-240.19 395.56,-247.2 406.14,-246.67 403.5,-240.19"/>
</g>
<!-- covalent__shared_files_utils&#45;&gt;covalent__workflow_electron -->
<g id="edge36" class="edge">
<title>covalent__shared_files_utils&#45;&gt;covalent__workflow_electron</title><style>.edge>path:hover{stroke-width:8}</style>
<path fill="none" stroke="black" d="M593.31,-199.93C590.46,-218.21 589.54,-242.68 599.35,-261.61"/>
</g>
<!-- covalent__shared_files_utils&#45;&gt;covalent__workflow_lattice -->
<g id="edge37" class="edge">
<title>covalent__shared_files_utils&#45;&gt;covalent__workflow_lattice</title><style>.edge>path:hover{stroke-width:8}</style>
<path fill="none" stroke="black" d="M614.82,-198.67C640.6,-243.37 686.69,-339.91 656.35,-416.22 636.03,-467.35 557.46,-452.98 571.35,-506.22"/>
</g>
<!-- covalent__workflow -->
<g id="node11" class="node">
<title>covalent__workflow</title><style>.edge>path:hover{stroke-width:8}</style>
<ellipse fill="#aed024" stroke="black" cx="385.35" cy="-904.5" rx="42.5" ry="19.6"/>
<text text-anchor="middle" x="385.35" y="-906.5" font-family="Helvetica,sans-Serif" font-size="10.00" fill="#000000">covalent.</text>
<text text-anchor="middle" x="385.35" y="-896.5" font-family="Helvetica,sans-Serif" font-size="10.00" fill="#000000">_workflow</text>
</g>
<!-- covalent__workflow&#45;&gt;covalent -->
<g id="edge38" class="edge">
<title>covalent__workflow&#45;&gt;covalent</title><style>.edge>path:hover{stroke-width:8}</style>
<path fill="none" stroke="black" d="M358.33,-888.79C339.04,-876.34 316.13,-856.73 313.99,-832.91"/>
<polygon fill="#aed024" stroke="black" points="317.49,-832.95 314.35,-822.83 310.5,-832.7 317.49,-832.95"/>
</g>
<!-- covalent__workflow&#45;&gt;covalent__results_manager_result -->
<g id="edge39" class="edge">
<title>covalent__workflow&#45;&gt;covalent__results_manager_result</title><style>.edge>path:hover{stroke-width:8}</style>
<path fill="none" stroke="black" d="M402.39,-922.78C430.42,-951.22 486.7,-1008.3 522.07,-1044.17"/>
<polygon fill="#aed024" stroke="black" points="519.77,-1046.82 529.28,-1051.49 524.75,-1041.91 519.77,-1046.82"/>
</g>
<!-- covalent__workflow&#45;&gt;covalentdispatcher -->
<g id="edge40" class="edge">
<title>covalent__workflow&#45;&gt;covalentdispatcher</title><style>.edge>path:hover{stroke-width:8}</style>
<path fill="none" stroke="black" d="M354.41,-890.6C336.12,-881.46 313.95,-867.47 300.35,-848.7 245.9,-773.48 233.76,-659.29 231.09,-607.49"/>
<polygon fill="#aed024" stroke="black" points="234.58,-607.25 230.65,-597.41 227.59,-607.56 234.58,-607.25"/>
</g>
<!-- covalent__workflow_electron&#45;&gt;covalent -->
<g id="edge41" class="edge">
<title>covalent__workflow_electron&#45;&gt;covalent</title><style>.edge>path:hover{stroke-width:8}</style>
<path fill="none" stroke="black" d="M560.28,-396.21C526.02,-403.3 479.92,-418.78 455.35,-452.22"/>
</g>
<!-- covalent__workflow_electron&#45;&gt;covalent__workflow -->
<g id="edge42" class="edge">
<title>covalent__workflow_electron&#45;&gt;covalent__workflow</title><style>.edge>path:hover{stroke-width:8}</style>
<path fill="none" stroke="black" d="M607.24,-416.55C615.3,-479.98 628.16,-644.97 564.35,-758.96 531.55,-817.57 464.6,-861.55 422.53,-884.83"/>
<polygon fill="#92ac2b" stroke="black" points="420.82,-881.77 413.69,-889.62 424.15,-887.93 420.82,-881.77"/>
</g>
<!-- covalent__workflow_lattice&#45;&gt;covalent -->
<g id="edge43" class="edge">
<title>covalent__workflow_lattice&#45;&gt;covalent</title><style>.edge>path:hover{stroke-width:8}</style>
<path fill="none" stroke="black" d="M383.8,-794.65C383.09,-782.07 382.94,-766.59 384.76,-751.93"/>
<polygon fill="#6d8217" stroke="black" points="388.23,-752.39 386.35,-741.96 381.32,-751.28 388.23,-752.39"/>
</g>
<!-- covalent__workflow_lattice&#45;&gt;covalent__results_manager_result -->
<g id="edge44" class="edge">
<title>covalent__workflow_lattice&#45;&gt;covalent__results_manager_result</title><style>.edge>path:hover{stroke-width:8}</style>
<path fill="none" stroke="black" d="M629.35,-905.5C634.87,-934.36 605.39,-933.96 592.35,-960.3 579.67,-985.93 569.51,-1016.68 562.75,-1040.03"/>
<polygon fill="#6d8217" stroke="black" points="559.32,-1039.29 559.97,-1049.86 566.06,-1041.19 559.32,-1039.29"/>
<path fill="none" stroke="black" d="M429.41,-828.67C496.73,-839 620.21,-863.3 629.35,-903.5"/>
</g>
<!-- covalent__workflow_lattice&#45;&gt;covalent__workflow -->
<g id="edge45" class="edge">
<title>covalent__workflow_lattice&#45;&gt;covalent__workflow</title><style>.edge>path:hover{stroke-width:8}</style>
<path fill="none" stroke="black" d="M386.03,-848.8C385.93,-856.96 385.82,-866.02 385.72,-874.39"/>
<polygon fill="#6d8217" stroke="black" points="382.21,-874.44 385.59,-884.49 389.21,-874.53 382.21,-874.44"/>
</g>
<!-- covalent__workflow_transport&#45;&gt;covalent__workflow_lattice -->
<g id="edge46" class="edge">
<title>covalent__workflow_transport&#45;&gt;covalent__workflow_lattice</title><style>.edge>path:hover{stroke-width:8}</style>
<path fill="none" stroke="black" d="M275.81,-416.12C278.41,-427.18 281.29,-440.28 283.35,-452.22 291.25,-497.85 291.02,-616.15 308.35,-659.09"/>
</g>
<!-- covalent__workflow_transport&#45;&gt;covalentdispatcher -->
<g id="edge47" class="edge">
<title>covalent__workflow_transport&#45;&gt;covalentdispatcher</title><style>.edge>path:hover{stroke-width:8}</style>
<path fill="none" stroke="black" d="M269.35,-416.24C269.35,-427.32 269.35,-440.4 269.35,-452.22"/>
</g>
<!-- cloudpickle -->
<g id="node15" class="node">
<title>cloudpickle</title><style>.edge>path:hover{stroke-width:8}</style>
<polygon fill="#f3970c" stroke="black" points="789.33,-190.87 786.33,-194.87 765.33,-194.87 762.33,-190.87 723.38,-190.87 723.38,-154.87 789.33,-154.87 789.33,-190.87"/>
<text text-anchor="middle" x="756.35" y="-169.87" font-family="Helvetica,sans-Serif" font-size="10.00" fill="#000000">cloudpickle</text>
</g>
<!-- cloudpickle&#45;&gt;covalent__results_manager_result -->
<g id="edge1" class="edge">
<title>cloudpickle&#45;&gt;covalent__results_manager_result</title><style>.edge>path:hover{stroke-width:8}</style>
<path fill="none" stroke="black" d="M827.35,-661.09C765.52,-791.7 902.68,-859.38 833.35,-986.17"/>
<path fill="none" stroke="black" d="M833.35,-988.17C809.45,-1022.54 700.81,-1048.95 626.1,-1063.44"/>
<polygon fill="#f3970c" stroke="black" points="625.42,-1060.01 616.26,-1065.33 626.74,-1066.89 625.42,-1060.01"/>
</g>
<!-- cloudpickle&#45;&gt;covalent__results_manager_results_manager -->
<g id="edge2" class="edge">
<title>cloudpickle&#45;&gt;covalent__results_manager_results_manager</title><style>.edge>path:hover{stroke-width:8}</style>
<path fill="none" stroke="black" d="M833.35,-988.17C743.73,-1117.07 548.31,-1152.5 438.44,-1162.13"/>
<polygon fill="#f3970c" stroke="black" points="438.08,-1158.65 428.4,-1162.96 438.66,-1165.63 438.08,-1158.65"/>
</g>
<!-- cloudpickle&#45;&gt;covalent__workflow_electron -->
<g id="edge3" class="edge">
<title>cloudpickle&#45;&gt;covalent__workflow_electron</title><style>.edge>path:hover{stroke-width:8}</style>
<path fill="none" stroke="black" d="M775.49,-191.2C804.77,-219.91 854.59,-278.78 827.35,-325.48"/>
<path fill="none" stroke="black" d="M827.35,-326.48C811.05,-356.58 717.95,-373.96 657.02,-382.26"/>
<polygon fill="#f3970c" stroke="black" points="656.24,-378.83 646.79,-383.61 657.16,-385.77 656.24,-378.83"/>
</g>
<!-- cloudpickle&#45;&gt;covalent__workflow_lattice -->
<g id="edge4" class="edge">
<title>cloudpickle&#45;&gt;covalent__workflow_lattice</title><style>.edge>path:hover{stroke-width:8}</style>
<path fill="none" stroke="black" d="M827.35,-326.48C800.74,-375.62 827.35,-396.34 827.35,-452.22 827.35,-452.22 827.35,-452.22 827.35,-508.22 827.35,-575.27 847.08,-595 827.35,-659.09"/>
<path fill="none" stroke="black" d="M827.35,-661.09C813.85,-699.81 548.59,-776.49 436.1,-807.42"/>
<polygon fill="#f3970c" stroke="black" points="435.06,-804.08 426.34,-810.1 436.91,-810.83 435.06,-804.08"/>
</g>
<!-- cloudpickle&#45;&gt;covalent__workflow_transport -->
<g id="edge5" class="edge">
<title>cloudpickle&#45;&gt;covalent__workflow_transport</title><style>.edge>path:hover{stroke-width:8}</style>
<path fill="none" stroke="black" d="M734.74,-190.91C702.64,-215.52 639.76,-261.18 580.35,-289.48 492.9,-331.14 383.53,-361.25 320.54,-376.66"/>
<polygon fill="#f3970c" stroke="black" points="319.36,-373.35 310.46,-379.1 321,-380.15 319.36,-373.35"/>
</g>
<!-- covalentdispatcher&#45;&gt;covalent__workflow_lattice -->
<g id="edge48" class="edge">
<title>covalentdispatcher&#45;&gt;covalent__workflow_lattice</title><style>.edge>path:hover{stroke-width:8}</style>
<path fill="none" stroke="black" d="M255.74,-597.24C274.27,-611.33 297.9,-633.2 308.35,-659.09"/>
</g>
<!-- main -->
<g id="node17" class="node">
<title>main</title><style>.edge>path:hover{stroke-width:8}</style>
<polygon fill="#6b2e2e" stroke="black" points="799.35,-758.96 796.35,-762.96 775.35,-762.96 772.35,-758.96 745.35,-758.96 745.35,-722.96 799.35,-722.96 799.35,-758.96"/>
<text text-anchor="middle" x="772.35" y="-737.96" font-family="Helvetica,sans-Serif" font-size="10.00" fill="#ffffff">main</text>
</g>
<!-- pkgresources -->
<g id="node20" class="node">
<title>pkgresources</title><style>.edge>path:hover{stroke-width:8}</style>
<polygon fill="#3d6eb8" stroke="black" points="805.38,-839.83 802.38,-843.83 781.38,-843.83 778.38,-839.83 729.33,-839.83 729.33,-803.83 805.38,-803.83 805.38,-839.83"/>
<text text-anchor="middle" x="767.35" y="-818.83" font-family="Helvetica,sans-Serif" font-size="10.00" fill="#ffffff">pkgresources</text>
</g>
<!-- main&#45;&gt;pkgresources -->
<g id="edge49" class="edge">
<title>main&#45;&gt;pkgresources</title><style>.edge>path:hover{stroke-width:8}</style>
<path fill="none" stroke="black" d="M771.27,-759.07C770.63,-769.2 769.8,-782.26 769.07,-793.76"/>
<polygon fill="#6b2e2e" stroke="black" points="765.58,-793.55 768.44,-803.75 772.56,-793.99 765.58,-793.55"/>
</g>
<!-- matplotlib -->
<g id="node18" class="node">
<title>matplotlib</title><style>.edge>path:hover{stroke-width:8}</style>
<polygon fill="#31c46c" stroke="black" points="470.65,-597.22 467.65,-601.22 446.65,-601.22 443.65,-597.22 412.06,-597.22 412.06,-561.22 470.65,-561.22 470.65,-597.22"/>
<text text-anchor="middle" x="441.35" y="-576.22" font-family="Helvetica,sans-Serif" font-size="10.00" fill="#000000">matplotlib</text>
</g>
<!-- matplotlib&#45;&gt;covalent__workflow_lattice -->
<g id="edge50" class="edge">
<title>matplotlib&#45;&gt;covalent__workflow_lattice</title><style>.edge>path:hover{stroke-width:8}</style>
<path fill="none" stroke="black" d="M470.91,-593.76C489.51,-603.17 513.33,-616.93 531.35,-633.22 541.94,-642.78 547.06,-645.21 550.35,-659.09"/>
<path fill="none" stroke="black" d="M550.35,-661.09C558.45,-695.2 561.36,-706.68 550.35,-739.96"/>
</g>
<!-- networkx -->
<g id="node19" class="node">
<title>networkx</title><style>.edge>path:hover{stroke-width:8}</style>
<polygon fill="#33cccc" stroke="black" points="185.37,-190.87 182.37,-194.87 161.37,-194.87 158.37,-190.87 129.34,-190.87 129.34,-154.87 185.37,-154.87 185.37,-190.87"/>
<text text-anchor="middle" x="157.35" y="-169.87" font-family="Helvetica,sans-Serif" font-size="10.00" fill="#000000">networkx</text>
</g>
<!-- networkx&#45;&gt;covalent__workflow_lattice -->
<g id="edge51" class="edge">
<title>networkx&#45;&gt;covalent__workflow_lattice</title><style>.edge>path:hover{stroke-width:8}</style>
<path fill="none" stroke="black" d="M153.28,-191.12C141.78,-242.29 110.95,-397.56 128.35,-525.22 132.84,-558.13 130.81,-569.02 148.35,-597.22 198.7,-678.13 254.29,-661.49 308.35,-739.96"/>
<path fill="none" stroke="black" d="M308.35,-741.96C321.81,-759.95 339.2,-777.92 354.15,-792.16"/>
<polygon fill="#33cccc" stroke="black" points="352.02,-794.96 361.71,-799.24 356.8,-789.85 352.02,-794.96"/>
</g>
<!-- networkx&#45;&gt;covalent__workflow_transport -->
<g id="edge52" class="edge">
<title>networkx&#45;&gt;covalent__workflow_transport</title><style>.edge>path:hover{stroke-width:8}</style>
<path fill="none" stroke="black" d="M166.33,-191.06C184.78,-226.4 227.28,-307.78 251.54,-354.23"/>
<polygon fill="#33cccc" stroke="black" points="248.54,-356.06 256.28,-363.3 254.75,-352.82 248.54,-356.06"/>
</g>
<!-- pkgresources&#45;&gt;covalent__results_manager_result -->
<g id="edge53" class="edge">
<title>pkgresources&#45;&gt;covalent__results_manager_result</title><style>.edge>path:hover{stroke-width:8}</style>
<path fill="none" stroke="black" d="M765.43,-840.02C764.04,-856.48 763.06,-881.93 767.35,-903.5"/>
</g>
<!-- requests -->
<g id="node21" class="node">
<title>requests</title><style>.edge>path:hover{stroke-width:8}</style>
<polygon fill="#5940c0" stroke="black" points="543.71,-597.22 540.71,-601.22 519.71,-601.22 516.71,-597.22 489,-597.22 489,-561.22 543.71,-561.22 543.71,-597.22"/>
<text text-anchor="middle" x="516.35" y="-576.22" font-family="Helvetica,sans-Serif" font-size="10.00" fill="#ffffff">requests</text>
</g>
<!-- requests&#45;&gt;covalent__workflow_lattice -->
<g id="edge54" class="edge">
<title>requests&#45;&gt;covalent__workflow_lattice</title><style>.edge>path:hover{stroke-width:8}</style>
<path fill="none" stroke="black" d="M525.88,-597.47C533.97,-613.06 545.09,-636.89 550.35,-659.09"/>
</g>
<!-- sentinel -->
<g id="node22" class="node">
<title>sentinel</title><style>.edge>path:hover{stroke-width:8}</style>
<polygon fill="#a253b6" stroke="black" points="388.35,-36 385.35,-40 364.35,-40 361.35,-36 334.35,-36 334.35,0 388.35,0 388.35,-36"/>
<text text-anchor="middle" x="361.35" y="-15" font-family="Helvetica,sans-Serif" font-size="10.00" fill="#ffffff">sentinel</text>
</g>
<!-- sentinel&#45;&gt;covalent__shared_files_defaults -->
<g id="edge55" class="edge">
<title>sentinel&#45;&gt;covalent__shared_files_defaults</title><style>.edge>path:hover{stroke-width:8}</style>
<path fill="none" stroke="black" d="M361.35,-36.24C361.35,-60.23 361.35,-104.28 361.35,-135.66"/>
<polygon fill="#a253b6" stroke="black" points="357.85,-135.77 361.35,-145.77 364.85,-135.77 357.85,-135.77"/>
</g>
<!-- yaml -->
<g id="node23" class="node">
<title>yaml</title><style>.edge>path:hover{stroke-width:8}</style>
<polygon fill="#b6538e" stroke="black" points="711.35,-839.83 708.35,-843.83 687.35,-843.83 684.35,-839.83 657.35,-839.83 657.35,-803.83 711.35,-803.83 711.35,-839.83"/>
<text text-anchor="middle" x="684.35" y="-818.83" font-family="Helvetica,sans-Serif" font-size="10.00" fill="#ffffff">yaml</text>
</g>
<!-- yaml&#45;&gt;covalent__results_manager_result -->
<g id="edge56" class="edge">
<title>yaml&#45;&gt;covalent__results_manager_result</title><style>.edge>path:hover{stroke-width:8}</style>
<path fill="none" stroke="black" d="M767.35,-905.5C778.64,-953.15 780.59,-977.17 748.35,-1014.04 719.2,-1047.39 672.17,-1062.93 631.6,-1070.09"/>
<polygon fill="#b6538e" stroke="black" points="631.02,-1066.64 621.71,-1071.7 632.14,-1073.55 631.02,-1066.64"/>
<path fill="none" stroke="black" d="M707.14,-840C730.57,-858.43 764.12,-887.24 767.35,-903.5"/>
</g>
</g>
</svg>
