<svg width="154" height="149" viewBox="0 0 154 149" fill="none" xmlns="http://www.w3.org/2000/svg">
<rect y="0.57373" width="154" height="148" rx="8" fill="#1C1C46"/>
<circle cx="77" cy="44.5737" r="32" fill="#B1B9FF"/>
<rect x="-0.35" y="0.35" width="70.1615" height="12.3154" rx="1.65" transform="matrix(-1 0 0 1 100.161 43.3123)" fill="#6D7CFF" stroke="#6D7CFF" stroke-width="0.7"/>
<rect x="-0.35" y="0.35" width="51.3615" height="9.42308" rx="1.65" transform="matrix(-1 0 0 1 100.161 44.7583)" fill="#6D7CFF" stroke="#6D7CFF" stroke-width="0.7"/>
<path d="M100.861 36.0814C100.861 32.4873 97.9477 29.5737 94.3536 29.5737H29.9998V42.5891H94.3536C97.9477 42.5891 100.861 39.6755 100.861 36.0814Z" fill="#5552FF"/>
<path d="M82.7842 36.0813C82.7842 33.2859 80.5181 31.0198 77.7226 31.0198H29.9996V41.1429H77.7226C80.5181 41.1429 82.7842 38.8767 82.7842 36.0813Z" fill="#6D7CFF"/>
<path d="M91.8346 67.1737C91.8346 62.1755 87.7827 58.1237 82.7846 58.1237H30.35V76.2237H82.7846C87.7827 76.2237 91.8346 72.1719 91.8346 67.1737Z" fill="#5552FF" stroke="#5552FF" stroke-width="0.7"/>
<path d="M90.0151 67.1736C90.0151 63.1802 86.7778 59.9429 82.7844 59.9429H29.9998V74.4044H82.7844C86.7778 74.4044 90.0151 71.1671 90.0151 67.1736Z" fill="#6D7CFF"/>
<path d="M81.3384 62.3352C81.6145 62.3352 81.8384 62.5591 81.8384 62.8352C81.8384 63.1113 81.6145 63.3352 81.3384 63.3352L81.3384 62.3352ZM81.3384 63.3352L35.7845 63.3352L35.7845 62.3352L81.3384 62.3352L81.3384 63.3352Z" fill="#CBCBD7"/>
<path d="M77.7227 33.4121C77.9988 33.4121 78.2227 33.636 78.2227 33.9121C78.2227 34.1883 77.9988 34.4121 77.7227 34.4121L77.7227 33.4121ZM77.7227 34.4121L32.1688 34.4121L32.1688 33.4121L77.7227 33.4121L77.7227 34.4121Z" fill="#CBCBD7"/>
<path d="M82.7842 66.6738C83.0603 66.6738 83.2842 66.8977 83.2842 67.1738C83.2842 67.45 83.0603 67.6738 82.7842 67.6738L82.7842 66.6738ZM82.7842 67.6738L35.7842 67.6738L35.7842 66.6738L82.7842 66.6738L82.7842 67.6738Z" fill="#CBCBD7"/>
<path d="M79.1689 35.5815C79.4451 35.5815 79.6689 35.8054 79.6689 36.0815C79.6689 36.3577 79.4451 36.5815 79.1689 36.5815L79.1689 35.5815ZM79.1689 36.5815L32.1689 36.5815L32.1689 35.5815L79.1689 35.5815L79.1689 36.5815Z" fill="#CBCBD7"/>
<path d="M81.3384 71.0122C81.6145 71.0122 81.8384 71.2361 81.8384 71.5122C81.8384 71.7883 81.6145 72.0122 81.3384 72.0122L81.3384 71.0122ZM81.3384 72.0122L35.7845 72.0122L35.7845 71.0122L81.3384 71.0122L81.3384 72.0122Z" fill="#CBCBD7"/>
<path d="M77.7227 37.7507C77.9988 37.7507 78.2227 37.9746 78.2227 38.2507C78.2227 38.5269 77.9988 38.7507 77.7227 38.7507L77.7227 37.7507ZM77.7227 38.7507L32.1688 38.7507L32.1688 37.7507L77.7227 37.7507L77.7227 38.7507Z" fill="#CBCBD7"/>
<rect width="5.06154" height="13.0154" transform="matrix(-1 0 0 1 47.3535 43.3123)" fill="#5552FF"/>
<rect width="5.06154" height="13.0154" transform="matrix(-1 0 0 1 37.9536 43.3123)" fill="#5552FF"/>
<circle cx="2.16923" cy="2.16923" r="2.16923" transform="matrix(-1 0 0 1 90.7383 33.9121)" fill="#D9D9D9"/>
<path d="M20.7314 113.574H19.4714V108.912H14.3474V113.574H13.0874V103.578H14.3474V107.806H19.4714V103.578H20.7314V113.574ZM30.1003 109.808C30.1003 110.433 30.0163 110.988 29.8483 111.474C29.6897 111.95 29.4563 112.356 29.1483 112.692C28.8497 113.028 28.481 113.284 28.0423 113.462C27.613 113.63 27.1323 113.714 26.6003 113.714C26.1057 113.714 25.6483 113.63 25.2283 113.462C24.8083 113.284 24.4443 113.028 24.1363 112.692C23.8283 112.356 23.5857 111.95 23.4083 111.474C23.2403 110.988 23.1563 110.433 23.1563 109.808C23.1563 108.977 23.2963 108.277 23.5763 107.708C23.8563 107.129 24.2577 106.69 24.7803 106.392C25.303 106.084 25.9237 105.93 26.6423 105.93C27.3237 105.93 27.921 106.084 28.4343 106.392C28.957 106.69 29.363 107.129 29.6523 107.708C29.951 108.277 30.1003 108.977 30.1003 109.808ZM24.4303 109.808C24.4303 110.396 24.505 110.909 24.6543 111.348C24.813 111.777 25.0557 112.108 25.3823 112.342C25.709 112.575 26.1243 112.692 26.6283 112.692C27.1323 112.692 27.5477 112.575 27.8743 112.342C28.201 112.108 28.439 111.777 28.5883 111.348C28.747 110.909 28.8263 110.396 28.8263 109.808C28.8263 109.21 28.747 108.702 28.5883 108.282C28.4297 107.862 28.187 107.54 27.8603 107.316C27.543 107.082 27.1277 106.966 26.6143 106.966C25.849 106.966 25.2937 107.218 24.9483 107.722C24.603 108.226 24.4303 108.921 24.4303 109.808ZM36.9035 109.332C36.8475 109.136 36.7915 108.944 36.7355 108.758C36.6795 108.562 36.6281 108.38 36.5815 108.212C36.5441 108.034 36.5068 107.871 36.4695 107.722C36.4321 107.572 36.4041 107.446 36.3855 107.344H36.3295C36.3108 107.446 36.2828 107.572 36.2455 107.722C36.2175 107.871 36.1801 108.034 36.1335 108.212C36.0961 108.389 36.0495 108.576 35.9935 108.772C35.9468 108.958 35.8908 109.15 35.8255 109.346L34.4815 113.56H33.0815L31.0235 106.056H32.2975L33.3335 110.06C33.4081 110.33 33.4781 110.606 33.5435 110.886C33.6088 111.156 33.6648 111.418 33.7115 111.67C33.7675 111.912 33.8048 112.122 33.8235 112.3H33.8795C33.9075 112.188 33.9401 112.048 33.9775 111.88C34.0148 111.712 34.0521 111.534 34.0895 111.348C34.1361 111.161 34.1828 110.974 34.2295 110.788C34.2855 110.601 34.3368 110.433 34.3835 110.284L35.7135 106.056H37.0575L38.3455 110.284C38.4108 110.498 38.4761 110.727 38.5415 110.97C38.6161 111.212 38.6815 111.45 38.7375 111.684C38.7935 111.908 38.8308 112.108 38.8495 112.286H38.9055C38.9241 112.127 38.9568 111.931 39.0035 111.698C39.0595 111.455 39.1201 111.194 39.1855 110.914C39.2601 110.624 39.3348 110.34 39.4095 110.06L40.4595 106.056H41.7195L39.6335 113.56H38.1915L36.9035 109.332ZM49.922 113.714C48.9887 113.714 48.242 113.392 47.682 112.748C47.122 112.094 46.842 111.124 46.842 109.836C46.842 108.548 47.122 107.577 47.682 106.924C48.2514 106.261 49.0027 105.93 49.936 105.93C50.328 105.93 50.6687 105.981 50.958 106.084C51.2474 106.177 51.4994 106.308 51.714 106.476C51.9287 106.644 52.1107 106.83 52.26 107.036H52.344C52.3347 106.914 52.316 106.737 52.288 106.504C52.2694 106.261 52.26 106.07 52.26 105.93V102.934H53.492V113.574H52.498L52.316 112.566H52.26C52.1107 112.78 51.9287 112.976 51.714 113.154C51.4994 113.322 51.2427 113.457 50.944 113.56C50.6547 113.662 50.314 113.714 49.922 113.714ZM50.118 112.692C50.9114 112.692 51.4667 112.477 51.784 112.048C52.1107 111.609 52.274 110.951 52.274 110.074V109.85C52.274 108.916 52.12 108.202 51.812 107.708C51.504 107.204 50.9347 106.952 50.104 106.952C49.4414 106.952 48.942 107.218 48.606 107.75C48.2794 108.272 48.116 108.977 48.116 109.864C48.116 110.76 48.2794 111.455 48.606 111.95C48.942 112.444 49.446 112.692 50.118 112.692ZM62.6793 109.808C62.6793 110.433 62.5953 110.988 62.4273 111.474C62.2687 111.95 62.0353 112.356 61.7273 112.692C61.4287 113.028 61.06 113.284 60.6213 113.462C60.192 113.63 59.7113 113.714 59.1793 113.714C58.6847 113.714 58.2273 113.63 57.8073 113.462C57.3873 113.284 57.0233 113.028 56.7153 112.692C56.4073 112.356 56.1647 111.95 55.9873 111.474C55.8193 110.988 55.7353 110.433 55.7353 109.808C55.7353 108.977 55.8753 108.277 56.1553 107.708C56.4353 107.129 56.8367 106.69 57.3593 106.392C57.882 106.084 58.5027 105.93 59.2213 105.93C59.9027 105.93 60.5 106.084 61.0133 106.392C61.536 106.69 61.942 107.129 62.2313 107.708C62.53 108.277 62.6793 108.977 62.6793 109.808ZM57.0093 109.808C57.0093 110.396 57.084 110.909 57.2333 111.348C57.392 111.777 57.6347 112.108 57.9613 112.342C58.288 112.575 58.7033 112.692 59.2073 112.692C59.7113 112.692 60.1267 112.575 60.4533 112.342C60.78 112.108 61.018 111.777 61.1673 111.348C61.326 110.909 61.4053 110.396 61.4053 109.808C61.4053 109.21 61.326 108.702 61.1673 108.282C61.0087 107.862 60.766 107.54 60.4393 107.316C60.122 107.082 59.7067 106.966 59.1933 106.966C58.428 106.966 57.8727 107.218 57.5273 107.722C57.182 108.226 57.0093 108.921 57.0093 109.808ZM67.8099 105.93C68.4539 105.93 69.0045 106.07 69.4619 106.35C69.9285 106.63 70.2832 107.026 70.5259 107.54C70.7779 108.044 70.9039 108.636 70.9039 109.318V110.06H65.7659C65.7845 110.909 65.9992 111.558 66.4099 112.006C66.8299 112.444 67.4132 112.664 68.1599 112.664C68.6359 112.664 69.0559 112.622 69.4199 112.538C69.7932 112.444 70.1759 112.314 70.5679 112.146V113.224C70.1852 113.392 69.8072 113.513 69.4339 113.588C69.0605 113.672 68.6172 113.714 68.1039 113.714C67.3945 113.714 66.7645 113.569 66.2139 113.28C65.6725 112.99 65.2479 112.561 64.9399 111.992C64.6412 111.413 64.4919 110.708 64.4919 109.878C64.4919 109.056 64.6272 108.352 64.8979 107.764C65.1779 107.176 65.5652 106.723 66.0599 106.406C66.5639 106.088 67.1472 105.93 67.8099 105.93ZM67.7959 106.938C67.2079 106.938 66.7412 107.129 66.3959 107.512C66.0599 107.885 65.8592 108.408 65.7939 109.08H69.6159C69.6159 108.65 69.5505 108.277 69.4199 107.96C69.2892 107.642 69.0885 107.395 68.8179 107.218C68.5565 107.031 68.2159 106.938 67.7959 106.938ZM77.9802 111.502C77.9802 111.987 77.8589 112.393 77.6162 112.72C77.3736 113.046 77.0282 113.294 76.5802 113.462C76.1322 113.63 75.6002 113.714 74.9842 113.714C74.4616 113.714 74.0089 113.672 73.6262 113.588C73.2529 113.504 72.9216 113.387 72.6322 113.238V112.118C72.9309 112.267 73.2902 112.407 73.7102 112.538C74.1396 112.659 74.5736 112.72 75.0122 112.72C75.6376 112.72 76.0902 112.622 76.3702 112.426C76.6502 112.22 76.7902 111.95 76.7902 111.614C76.7902 111.427 76.7389 111.259 76.6362 111.11C76.5336 110.96 76.3469 110.811 76.0762 110.662C75.8149 110.512 75.4369 110.344 74.9422 110.158C74.4569 109.971 74.0416 109.784 73.6962 109.598C73.3509 109.411 73.0849 109.187 72.8982 108.926C72.7116 108.664 72.6182 108.328 72.6182 107.918C72.6182 107.283 72.8749 106.793 73.3882 106.448C73.9109 106.102 74.5922 105.93 75.4322 105.93C75.8896 105.93 76.3142 105.976 76.7062 106.07C77.1076 106.154 77.4809 106.275 77.8262 106.434L77.4062 107.414C77.2009 107.32 76.9816 107.241 76.7482 107.176C76.5242 107.101 76.2956 107.045 76.0622 107.008C75.8289 106.961 75.5909 106.938 75.3482 106.938C74.8442 106.938 74.4569 107.022 74.1862 107.19C73.9249 107.348 73.7942 107.568 73.7942 107.848C73.7942 108.053 73.8549 108.23 73.9762 108.38C74.0976 108.52 74.2982 108.66 74.5782 108.8C74.8676 108.93 75.2502 109.089 75.7262 109.276C76.2022 109.453 76.6082 109.635 76.9442 109.822C77.2802 110.008 77.5369 110.237 77.7142 110.508C77.8916 110.769 77.9802 111.1 77.9802 111.502ZM88.4422 104.544C87.9102 104.544 87.4295 104.637 87.0002 104.824C86.5708 105.001 86.2068 105.267 85.9082 105.622C85.6095 105.967 85.3808 106.392 85.2222 106.896C85.0635 107.39 84.9842 107.95 84.9842 108.576C84.9842 109.397 85.1102 110.111 85.3622 110.718C85.6235 111.324 86.0062 111.791 86.5102 112.118C87.0235 112.444 87.6628 112.608 88.4282 112.608C88.8668 112.608 89.2822 112.57 89.6742 112.496C90.0662 112.421 90.4488 112.328 90.8222 112.216V113.308C90.4488 113.448 90.0615 113.55 89.6602 113.616C89.2682 113.681 88.7968 113.714 88.2462 113.714C87.2288 113.714 86.3795 113.504 85.6982 113.084C85.0168 112.664 84.5035 112.066 84.1582 111.292C83.8222 110.517 83.6542 109.607 83.6542 108.562C83.6542 107.806 83.7568 107.115 83.9622 106.49C84.1768 105.864 84.4848 105.323 84.8862 104.866C85.2968 104.408 85.8008 104.058 86.3982 103.816C86.9955 103.564 87.6815 103.438 88.4562 103.438C88.9695 103.438 89.4642 103.489 89.9402 103.592C90.4162 103.694 90.8408 103.839 91.2142 104.026L90.7102 105.09C90.4022 104.95 90.0568 104.824 89.6742 104.712C89.3008 104.6 88.8902 104.544 88.4422 104.544ZM99.6399 109.808C99.6399 110.433 99.5559 110.988 99.3879 111.474C99.2292 111.95 98.9959 112.356 98.6879 112.692C98.3892 113.028 98.0205 113.284 97.5819 113.462C97.1525 113.63 96.6719 113.714 96.1399 113.714C95.6452 113.714 95.1879 113.63 94.7679 113.462C94.3479 113.284 93.9839 113.028 93.6759 112.692C93.3679 112.356 93.1252 111.95 92.9479 111.474C92.7799 110.988 92.6959 110.433 92.6959 109.808C92.6959 108.977 92.8359 108.277 93.1159 107.708C93.3959 107.129 93.7972 106.69 94.3199 106.392C94.8425 106.084 95.4632 105.93 96.1819 105.93C96.8632 105.93 97.4605 106.084 97.9739 106.392C98.4965 106.69 98.9025 107.129 99.1919 107.708C99.4905 108.277 99.6399 108.977 99.6399 109.808ZM93.9699 109.808C93.9699 110.396 94.0445 110.909 94.1939 111.348C94.3525 111.777 94.5952 112.108 94.9219 112.342C95.2485 112.575 95.6639 112.692 96.1679 112.692C96.6719 112.692 97.0872 112.575 97.4139 112.342C97.7405 112.108 97.9785 111.777 98.1279 111.348C98.2865 110.909 98.3659 110.396 98.3659 109.808C98.3659 109.21 98.2865 108.702 98.1279 108.282C97.9692 107.862 97.7265 107.54 97.3999 107.316C97.0825 107.082 96.6672 106.966 96.1539 106.966C95.3885 106.966 94.8332 107.218 94.4879 107.722C94.1425 108.226 93.9699 108.921 93.9699 109.808ZM103.251 113.574L100.409 106.07H101.725L103.321 110.494C103.396 110.699 103.475 110.928 103.559 111.18C103.643 111.432 103.718 111.674 103.783 111.908C103.848 112.132 103.895 112.323 103.923 112.482H103.979C104.016 112.323 104.068 112.127 104.133 111.894C104.208 111.66 104.287 111.418 104.371 111.166C104.464 110.914 104.544 110.69 104.609 110.494L106.205 106.07H107.521L104.665 113.574H103.251ZM111.83 105.944C112.745 105.944 113.422 106.144 113.86 106.546C114.299 106.947 114.518 107.586 114.518 108.464V113.574H113.622L113.384 112.51H113.328C113.114 112.78 112.89 113.009 112.656 113.196C112.432 113.373 112.171 113.504 111.872 113.588C111.583 113.672 111.228 113.714 110.808 113.714C110.36 113.714 109.954 113.634 109.59 113.476C109.236 113.317 108.956 113.074 108.75 112.748C108.545 112.412 108.442 111.992 108.442 111.488C108.442 110.741 108.736 110.167 109.324 109.766C109.912 109.355 110.818 109.131 112.04 109.094L113.314 109.052V108.604C113.314 107.978 113.179 107.544 112.908 107.302C112.638 107.059 112.255 106.938 111.76 106.938C111.368 106.938 110.995 106.998 110.64 107.12C110.286 107.232 109.954 107.362 109.646 107.512L109.268 106.588C109.595 106.41 109.982 106.261 110.43 106.14C110.878 106.009 111.345 105.944 111.83 105.944ZM112.194 109.948C111.261 109.985 110.612 110.134 110.248 110.396C109.894 110.657 109.716 111.026 109.716 111.502C109.716 111.922 109.842 112.23 110.094 112.426C110.356 112.622 110.687 112.72 111.088 112.72C111.723 112.72 112.25 112.547 112.67 112.202C113.09 111.847 113.3 111.306 113.3 110.578V109.906L112.194 109.948ZM118.348 113.574H117.116V102.934H118.348V113.574ZM123.903 105.93C124.547 105.93 125.098 106.07 125.555 106.35C126.022 106.63 126.377 107.026 126.619 107.54C126.871 108.044 126.997 108.636 126.997 109.318V110.06H121.859C121.878 110.909 122.093 111.558 122.503 112.006C122.923 112.444 123.507 112.664 124.253 112.664C124.729 112.664 125.149 112.622 125.513 112.538C125.887 112.444 126.269 112.314 126.661 112.146V113.224C126.279 113.392 125.901 113.513 125.527 113.588C125.154 113.672 124.711 113.714 124.197 113.714C123.488 113.714 122.858 113.569 122.307 113.28C121.766 112.99 121.341 112.561 121.033 111.992C120.735 111.413 120.585 110.708 120.585 109.878C120.585 109.056 120.721 108.352 120.991 107.764C121.271 107.176 121.659 106.723 122.153 106.406C122.657 106.088 123.241 105.93 123.903 105.93ZM123.889 106.938C123.301 106.938 122.835 107.129 122.489 107.512C122.153 107.885 121.953 108.408 121.887 109.08H125.709C125.709 108.65 125.644 108.277 125.513 107.96C125.383 107.642 125.182 107.395 124.911 107.218C124.65 107.031 124.309 106.938 123.889 106.938ZM132.8 105.93C133.696 105.93 134.372 106.149 134.83 106.588C135.287 107.017 135.516 107.717 135.516 108.688V113.574H134.298V108.772C134.298 108.165 134.162 107.712 133.892 107.414C133.621 107.115 133.196 106.966 132.618 106.966C131.787 106.966 131.213 107.199 130.896 107.666C130.578 108.132 130.42 108.804 130.42 109.682V113.574H129.188V106.07H130.182L130.364 107.092H130.434C130.602 106.83 130.807 106.616 131.05 106.448C131.302 106.27 131.577 106.14 131.876 106.056C132.174 105.972 132.482 105.93 132.8 105.93ZM140.628 112.706C140.815 112.706 141.006 112.692 141.202 112.664C141.398 112.626 141.557 112.589 141.678 112.552V113.49C141.547 113.555 141.361 113.606 141.118 113.644C140.875 113.69 140.642 113.714 140.418 113.714C140.026 113.714 139.662 113.648 139.326 113.518C138.999 113.378 138.733 113.14 138.528 112.804C138.323 112.468 138.22 111.996 138.22 111.39V107.022H137.156V106.434L138.234 105.944L138.724 104.348H139.452V106.07H141.622V107.022H139.452V111.362C139.452 111.819 139.559 112.16 139.774 112.384C139.998 112.598 140.283 112.706 140.628 112.706ZM62.9268 128.332C62.8708 128.136 62.8148 127.944 62.7588 127.758C62.7028 127.562 62.6514 127.38 62.6048 127.212C62.5674 127.034 62.5301 126.871 62.4928 126.722C62.4554 126.572 62.4274 126.446 62.4088 126.344H62.3528C62.3341 126.446 62.3061 126.572 62.2688 126.722C62.2408 126.871 62.2034 127.034 62.1568 127.212C62.1194 127.389 62.0728 127.576 62.0168 127.772C61.9701 127.958 61.9141 128.15 61.8488 128.346L60.5048 132.56H59.1048L57.0468 125.056H58.3208L59.3568 129.06C59.4314 129.33 59.5014 129.606 59.5668 129.886C59.6321 130.156 59.6881 130.418 59.7348 130.67C59.7908 130.912 59.8281 131.122 59.8468 131.3H59.9028C59.9308 131.188 59.9634 131.048 60.0008 130.88C60.0381 130.712 60.0754 130.534 60.1128 130.348C60.1594 130.161 60.2061 129.974 60.2528 129.788C60.3088 129.601 60.3601 129.433 60.4068 129.284L61.7368 125.056H63.0808L64.3688 129.284C64.4341 129.498 64.4994 129.727 64.5648 129.97C64.6394 130.212 64.7048 130.45 64.7608 130.684C64.8168 130.908 64.8541 131.108 64.8728 131.286H64.9288C64.9474 131.127 64.9801 130.931 65.0268 130.698C65.0828 130.455 65.1434 130.194 65.2088 129.914C65.2834 129.624 65.3581 129.34 65.4328 129.06L66.4828 125.056H67.7428L65.6568 132.56H64.2148L62.9268 128.332ZM75.8926 128.808C75.8926 129.433 75.8086 129.988 75.6406 130.474C75.482 130.95 75.2486 131.356 74.9406 131.692C74.642 132.028 74.2733 132.284 73.8346 132.462C73.4053 132.63 72.9246 132.714 72.3926 132.714C71.898 132.714 71.4406 132.63 71.0206 132.462C70.6006 132.284 70.2366 132.028 69.9286 131.692C69.6206 131.356 69.378 130.95 69.2006 130.474C69.0326 129.988 68.9486 129.433 68.9486 128.808C68.9486 127.977 69.0886 127.277 69.3686 126.708C69.6486 126.129 70.05 125.69 70.5726 125.392C71.0953 125.084 71.716 124.93 72.4346 124.93C73.116 124.93 73.7133 125.084 74.2266 125.392C74.7493 125.69 75.1553 126.129 75.4446 126.708C75.7433 127.277 75.8926 127.977 75.8926 128.808ZM70.2226 128.808C70.2226 129.396 70.2973 129.909 70.4466 130.348C70.6053 130.777 70.848 131.108 71.1746 131.342C71.5013 131.575 71.9166 131.692 72.4206 131.692C72.9246 131.692 73.34 131.575 73.6666 131.342C73.9933 131.108 74.2313 130.777 74.3806 130.348C74.5393 129.909 74.6186 129.396 74.6186 128.808C74.6186 128.21 74.5393 127.702 74.3806 127.282C74.222 126.862 73.9793 126.54 73.6526 126.316C73.3353 126.082 72.92 125.966 72.4066 125.966C71.6413 125.966 71.086 126.218 70.7406 126.722C70.3953 127.226 70.2226 127.921 70.2226 128.808ZM81.6252 124.93C81.7652 124.93 81.9145 124.939 82.0732 124.958C82.2412 124.967 82.3859 124.986 82.5072 125.014L82.3532 126.148C82.2319 126.12 82.0965 126.096 81.9472 126.078C81.8072 126.059 81.6719 126.05 81.5412 126.05C81.2519 126.05 80.9765 126.11 80.7152 126.232C80.4539 126.353 80.2205 126.526 80.0152 126.75C79.8099 126.964 79.6465 127.226 79.5252 127.534C79.4132 127.842 79.3572 128.187 79.3572 128.57V132.574H78.1252V125.07H79.1332L79.2732 126.442H79.3292C79.4879 126.162 79.6792 125.91 79.9032 125.686C80.1272 125.452 80.3839 125.27 80.6732 125.14C80.9625 125 81.2799 124.93 81.6252 124.93ZM85.4064 127.492C85.4064 127.641 85.3971 127.837 85.3784 128.08C85.3691 128.322 85.3597 128.532 85.3504 128.71H85.4064C85.4624 128.635 85.5464 128.528 85.6584 128.388C85.7704 128.248 85.8824 128.108 85.9944 127.968C86.1157 127.818 86.2184 127.697 86.3024 127.604L88.6964 125.07H90.1384L87.1004 128.276L90.3484 132.574H88.8644L86.2604 129.074L85.4064 129.816V132.574H84.1884V121.934H85.4064V127.492ZM92.7169 129.382C92.7169 129.027 92.7496 128.724 92.8149 128.472C92.8896 128.21 93.0109 127.963 93.1789 127.73C93.3562 127.496 93.5942 127.254 93.8929 127.002C94.2569 126.694 94.5369 126.437 94.7329 126.232C94.9382 126.026 95.0829 125.826 95.1669 125.63C95.2509 125.434 95.2929 125.196 95.2929 124.916C95.2929 124.468 95.1482 124.122 94.8589 123.88C94.5696 123.637 94.1496 123.516 93.5989 123.516C93.1416 123.516 92.7356 123.576 92.3809 123.698C92.0262 123.81 91.6856 123.945 91.3589 124.104L90.9249 123.124C91.2982 122.928 91.7089 122.764 92.1569 122.634C92.6142 122.503 93.1229 122.438 93.6829 122.438C94.5696 122.438 95.2556 122.657 95.7409 123.096C96.2262 123.534 96.4689 124.132 96.4689 124.888C96.4689 125.308 96.3989 125.667 96.2589 125.966C96.1282 126.255 95.9369 126.526 95.6849 126.778C95.4422 127.02 95.1529 127.282 94.8169 127.562C94.5089 127.823 94.2709 128.052 94.1029 128.248C93.9442 128.444 93.8369 128.64 93.7809 128.836C93.7249 129.022 93.6969 129.251 93.6969 129.522V129.76H92.7169V129.382ZM92.3949 131.818C92.3949 131.472 92.4742 131.23 92.6329 131.09C92.8009 130.95 93.0109 130.88 93.2629 130.88C93.4962 130.88 93.6969 130.95 93.8649 131.09C94.0329 131.23 94.1169 131.472 94.1169 131.818C94.1169 132.154 94.0329 132.396 93.8649 132.546C93.6969 132.695 93.4962 132.77 93.2629 132.77C93.0109 132.77 92.8009 132.695 92.6329 132.546C92.4742 132.396 92.3949 132.154 92.3949 131.818Z" fill="#F9F9F9"/>
<path d="M11.7294 115.324H142.266V116.024H11.7294V115.324ZM56.8928 134.324H97.1129V135.024H56.8928V134.324Z" fill="#F9F9F9"/>
<a href="https://github.com/AgnostiqHQ/covalent/blob/develop/README.md#how-does-it-work">
<rect fill="black" fill-opacity="0" x="9.72938" width="134.181" height="19.068"/>
</a>
<a href="https://github.com/AgnostiqHQ/covalent/blob/develop/README.md#how-does-it-work">
<rect fill="black" fill-opacity="0" x="54.8928" y="19.068" width="39.9401" height="19.068"/>
</a>
</svg>
