<svg width="160" height="53" viewBox="0 0 160 53" fill="none" xmlns="http://www.w3.org/2000/svg">
<rect x="0.5" y="1.07349" width="159" height="51" rx="7.5" stroke="#CBCBD7"/>
<g clip-path="url(#clip0_989_919)">
<path d="M49.7979 22.6834L55.4591 19.4263C55.5151 19.394 55.5496 19.3348 55.5496 19.2702L55.5502 17.3171C55.5502 17.0283 55.4314 16.7415 55.1998 16.5672C54.9007 16.3416 54.5166 16.3194 54.2006 16.5012L46.2816 21.0569C46.0035 21.2171 45.8313 21.5133 45.8313 21.8338L45.8286 32.1234C45.8286 32.4122 45.9474 32.6983 46.1783 32.8734C46.4774 33.0996 46.8623 33.1218 47.1783 32.94L48.8554 31.9753C48.9114 31.943 48.9458 31.8837 48.9458 31.8191L48.9478 24.1504C48.9478 23.5451 49.2719 22.9857 49.7979 22.6834Z" fill="#C1931D"/>
<path d="M63.3686 21.2071C63.2275 21.1256 63.0729 21.0852 62.9183 21.0852C62.7637 21.0852 62.6091 21.1256 62.4687 21.2071L54.5497 25.7635C54.2722 25.923 54.0994 26.2206 54.0994 26.5404L54.0967 36.869C54.0967 37.1935 54.2648 37.4843 54.5463 37.6466C54.8279 37.8088 55.1648 37.8088 55.4463 37.6466L63.3653 33.0902C63.6428 32.9306 63.8156 32.6331 63.8156 32.3133L63.819 21.9846C63.8183 21.6595 63.6502 21.3693 63.3686 21.2071Z" fill="#EF1161"/>
<path d="M54.15 25.0713L59.3758 22.0647C59.4318 22.0324 59.4662 21.9731 59.4662 21.9085L59.4669 19.6337C59.4669 19.3442 59.3474 19.058 59.1165 18.8837C58.8174 18.6582 58.4333 18.6359 58.1173 18.8177L55.9493 20.0652L50.1977 23.3741C49.9195 23.5343 49.7473 23.8306 49.7473 24.151L49.7453 31.9234L49.7446 34.4406C49.7446 34.7294 49.8635 35.0162 50.0944 35.1906C50.3935 35.4168 50.7783 35.439 51.0943 35.2572L53.2068 34.042C53.2629 34.0097 53.2973 33.9505 53.2973 33.8859L53.2993 26.5396C53.2993 25.9337 53.6234 25.3743 54.15 25.0713Z" fill="#FC6E6B"/>
<path d="M69.7002 29.1848V26.0583C69.7002 23.3755 71.2888 21.5383 73.683 21.5383C75.3985 21.5383 76.5429 22.4256 77.0088 23.2489V17.5878C77.0088 17.4397 77.0939 17.3131 77.2843 17.3131H79.3604C79.5298 17.3131 79.6358 17.4397 79.6358 17.5878V33.1346C79.6358 33.3036 79.5298 33.4093 79.3394 33.4093H77.3693C77.1999 33.4093 77.0939 33.3036 77.0939 33.1346V31.9517C76.6064 32.7758 75.4411 33.6415 73.789 33.6415C71.2679 33.6415 69.7002 31.8669 69.7002 29.1848ZM77.0081 28.8044V26.4387C77.0081 24.7913 75.9279 23.8407 74.5931 23.8407C73.1104 23.8407 72.3266 24.8122 72.3266 26.4387V28.8044C72.3266 30.4518 73.1104 31.3391 74.5931 31.3391C75.9285 31.3391 77.0081 30.4518 77.0081 28.8044Z" fill="white"/>
<path d="M91.1163 25.3615V33.1137C91.1163 33.3042 91.0103 33.4093 90.8192 33.4093H88.9551C88.7647 33.4093 88.6587 33.3036 88.6587 33.1137V31.741C87.9383 32.903 86.7521 33.6422 85.3113 33.6422C83.1082 33.6422 81.71 32.2055 81.71 30.1145C81.71 28.0019 83.1082 26.7766 86.1586 26.5659C86.985 26.5026 87.7688 26.5026 88.5527 26.545V25.4679C88.5527 24.1585 87.8323 23.63 86.6251 23.63C85.4173 23.63 84.9723 24.0736 84.6759 24.8977C84.5915 25.1299 84.5065 25.1723 84.2735 25.1091L82.431 24.6445C82.24 24.5812 82.1765 24.4756 82.24 24.3066C82.5789 22.6592 84.0831 21.5181 86.7311 21.5181C89.4642 21.5167 91.1163 22.8053 91.1163 25.3615ZM88.5534 29.6493V28.2126C87.8121 28.1918 87.0917 28.1918 86.3713 28.255C84.9946 28.4032 84.2101 28.8677 84.2101 29.9657C84.2101 30.9163 84.867 31.5289 85.9898 31.5289C87.1761 31.5289 88.0868 30.8322 88.5534 29.6493Z" fill="white"/>
<path d="M102.174 24.2628C102.237 24.4527 102.174 24.6008 101.962 24.6641L100.415 25.2134C100.182 25.2767 100.076 25.2134 100.013 25.002C99.6738 24.0514 98.9109 23.5869 97.7672 23.5869C96.5809 23.5869 95.8815 24.073 95.8815 24.833C95.8815 25.5514 96.3682 25.8469 98.6145 26.4804C101.262 27.2196 102.322 28.255 102.322 30.0923C102.322 32.2473 100.543 33.6624 97.8097 33.6624C95.3521 33.6624 93.5724 32.6485 93.0222 30.9163C92.9371 30.684 93.0222 30.5575 93.276 30.4518L94.6527 29.7759C94.9065 29.6917 95.0341 29.7335 95.1185 30.0297C95.4359 31.0011 96.4317 31.5929 97.724 31.5929C99.0371 31.5929 99.8001 31.086 99.8001 30.2619C99.8001 29.5012 99.1648 29.0999 96.961 28.4873C94.4191 27.769 93.3597 26.7766 93.3597 25.002C93.3597 22.911 95.076 21.5167 97.6814 21.5167C99.9709 21.5167 101.623 22.5306 102.174 24.2628Z" fill="white"/>
<path d="M113.91 33.4093H111.685C111.473 33.4093 111.388 33.3251 111.304 33.1555L108.656 28.2968L107.067 30.1556V33.1131C107.067 33.3036 106.961 33.4086 106.77 33.4086H104.737C104.546 33.4086 104.44 33.3029 104.44 33.1131V17.5878C104.44 17.4188 104.546 17.2922 104.737 17.2922H106.77C106.961 17.2922 107.067 17.4188 107.067 17.5878V26.9456L111.05 22.0452C111.241 21.8338 111.388 21.7497 111.643 21.7497H113.783C114.037 21.7497 114.101 22.0035 113.974 22.1509L110.414 26.2697L114.122 33.008C114.248 33.2194 114.121 33.4093 113.91 33.4093Z" fill="white"/>
</g>
<defs>
<clipPath id="clip0_989_919">
<rect width="72" height="21" fill="white" transform="translate(44 16.0735)"/>
</clipPath>
</defs>
</svg>

