<svg width="160" height="53" viewBox="0 0 160 53" fill="none" xmlns="http://www.w3.org/2000/svg">
<rect x="0.5" y="1.07343" width="159" height="51" rx="7.5" fill="#08081A"/>
<rect x="0.5" y="1.07343" width="159" height="51" rx="7.5" stroke="#CBCBD7"/>
<g clip-path="url(#clip0_998_1272)">
<path d="M49.7978 22.6834L55.459 19.4263C55.515 19.394 55.5494 19.3347 55.5494 19.2701L55.5501 17.3171C55.5501 17.0283 55.4313 16.7415 55.1997 16.5671C54.9006 16.3416 54.5164 16.3193 54.2005 16.5011L46.2815 21.0568C46.0034 21.2171 45.8312 21.5133 45.8312 21.8337L45.8285 32.1233C45.8285 32.4121 45.9473 32.6983 46.1782 32.8733C46.4773 33.0995 46.8622 33.1217 47.1781 32.94L48.8552 31.9752C48.9113 31.9429 48.9457 31.8837 48.9457 31.819L48.9477 24.1503C48.9477 23.5451 49.2718 22.9856 49.7978 22.6834Z" fill="#C1931D"/>
<path d="M63.3684 21.207C63.2273 21.1255 63.0727 21.0851 62.9181 21.0851C62.7635 21.0851 62.6088 21.1255 62.4684 21.207L54.5495 25.7634C54.272 25.9229 54.0991 26.2205 54.0991 26.5403L54.0964 36.8689C54.0964 37.1934 54.2646 37.4843 54.5461 37.6465C54.8276 37.8088 55.1645 37.8088 55.4461 37.6465L63.365 33.0901C63.6425 32.9306 63.8154 32.633 63.8154 32.3132L63.8187 21.9846C63.8181 21.6594 63.6499 21.3692 63.3684 21.207Z" fill="#EF1161"/>
<path d="M54.1498 25.0713L59.3755 22.0647C59.4316 22.0324 59.466 21.9731 59.466 21.9085L59.4667 19.6337C59.4667 19.3442 59.3472 19.058 59.1163 18.8837C58.8172 18.6582 58.433 18.6359 58.117 18.8177L55.9491 20.0652L50.1974 23.3741C49.9193 23.5343 49.7471 23.8306 49.7471 24.151L49.7451 31.9234L49.7444 34.4406C49.7444 34.7294 49.8632 35.0162 50.0941 35.1906C50.3932 35.4168 50.7781 35.439 51.094 35.2572L53.2066 34.042C53.2626 34.0097 53.2971 33.9505 53.2971 33.8859L53.2991 26.5396C53.2991 25.9337 53.6232 25.3743 54.1498 25.0713Z" fill="#FC6E6B"/>
<path d="M69.7001 29.1847V26.0583C69.7001 23.3755 71.2887 21.5382 73.6828 21.5382C75.3984 21.5382 76.5428 22.4255 77.0087 23.2489V17.5877C77.0087 17.4396 77.0937 17.313 77.2841 17.313H79.3602C79.5297 17.313 79.6357 17.4396 79.6357 17.5877V33.1345C79.6357 33.3035 79.5297 33.4092 79.3393 33.4092H77.3692C77.1997 33.4092 77.0937 33.3035 77.0937 33.1345V31.9517C76.6063 32.7757 75.441 33.6415 73.7888 33.6415C71.2678 33.6415 69.7001 31.8669 69.7001 29.1847ZM77.008 28.8043V26.4386C77.008 24.7912 75.9277 23.8407 74.593 23.8407C73.1103 23.8407 72.3264 24.8121 72.3264 26.4386V28.8043C72.3264 30.4517 73.1103 31.339 74.593 31.339C75.9284 31.339 77.008 30.4517 77.008 28.8043Z" fill="white"/>
<path d="M91.1162 25.3615V33.1137C91.1162 33.3042 91.0102 33.4092 90.8191 33.4092H88.955C88.7646 33.4092 88.6586 33.3035 88.6586 33.1137V31.7409C87.9382 32.9029 86.7519 33.6421 85.3111 33.6421C83.1081 33.6421 81.7098 32.2055 81.7098 30.1144C81.7098 28.0018 83.1081 26.7766 86.1585 26.5659C86.9849 26.5026 87.7687 26.5026 88.5526 26.545V25.4678C88.5526 24.1584 87.8322 23.6299 86.625 23.6299C85.4171 23.6299 84.9722 24.0736 84.6758 24.8976C84.5914 25.1299 84.5064 25.1723 84.2734 25.109L82.4309 24.6445C82.2398 24.5812 82.1764 24.4755 82.2398 24.3065C82.5788 22.6591 84.083 21.518 86.731 21.518C89.464 21.5167 91.1162 22.8052 91.1162 25.3615ZM88.5533 29.6492V28.2126C87.8119 28.1917 87.0915 28.1917 86.3711 28.255C84.9945 28.4031 84.21 28.8676 84.21 29.9656C84.21 30.9162 84.8669 31.5289 85.9897 31.5289C87.1759 31.5289 88.0867 30.8321 88.5533 29.6492Z" fill="white"/>
<path d="M102.174 24.2628C102.237 24.4526 102.174 24.6007 101.962 24.664L100.415 25.2133C100.182 25.2766 100.076 25.2133 100.013 25.002C99.6738 24.0514 98.9109 23.5868 97.7672 23.5868C96.5809 23.5868 95.8815 24.0729 95.8815 24.833C95.8815 25.5513 96.3682 25.8469 98.6145 26.4804C101.262 27.2196 102.322 28.255 102.322 30.0922C102.322 32.2472 100.543 33.6623 97.8097 33.6623C95.3521 33.6623 93.5724 32.6485 93.0222 30.9162C92.9371 30.684 93.0222 30.5574 93.276 30.4517L94.6527 29.7758C94.9065 29.6917 95.0341 29.7334 95.1185 30.0296C95.4359 31.0011 96.4317 31.5928 97.724 31.5928C99.0371 31.5928 99.8001 31.0859 99.8001 30.2619C99.8001 29.5011 99.1648 29.0999 96.961 28.4872C94.4191 27.7689 93.3597 26.7766 93.3597 25.002C93.3597 22.9109 95.076 21.5167 97.6814 21.5167C99.9709 21.5167 101.623 22.5305 102.174 24.2628Z" fill="white"/>
<path d="M113.91 33.4092H111.685C111.473 33.4092 111.388 33.3251 111.304 33.1554L108.656 28.2967L107.067 30.1555V33.113C107.067 33.3035 106.961 33.4085 106.77 33.4085H104.737C104.546 33.4085 104.44 33.3028 104.44 33.113V17.5877C104.44 17.4187 104.546 17.2922 104.737 17.2922H106.77C106.961 17.2922 107.067 17.4187 107.067 17.5877V26.9456L111.05 22.0452C111.241 21.8338 111.388 21.7496 111.643 21.7496H113.783C114.037 21.7496 114.101 22.0034 113.974 22.1508L110.414 26.2696L114.122 33.008C114.248 33.2194 114.121 33.4092 113.91 33.4092Z" fill="white"/>
</g>
<defs>
<clipPath id="clip0_998_1272">
<rect width="72" height="21" fill="white" transform="translate(44 16.0734)"/>
</clipPath>
</defs>
</svg>
