<svg width="64" height="65" viewBox="0 0 64 65" fill="none" xmlns="http://www.w3.org/2000/svg">
<circle cx="32" cy="32.5734" r="32" fill="#5452F6"/>
<path fill-rule="evenodd" clip-rule="evenodd" d="M32.6694 47.3741C32.7945 47.4236 32.9279 47.4488 33.0625 47.4485C33.3022 47.4471 33.5343 47.3647 33.7212 47.2147L39.0337 42.9647C39.159 42.8658 39.2603 42.7399 39.3302 42.5964C39.4001 42.453 39.4368 42.2956 39.4375 42.136V34.0716L43.4537 30.066C44.5427 28.9831 45.4058 27.6949 45.9931 26.2759C46.5804 24.8569 46.8802 23.3354 46.875 21.7997V19.8235C46.875 19.2599 46.6511 18.7194 46.2526 18.3209C45.8541 17.9224 45.3136 17.6985 44.75 17.6985H42.7737C41.238 17.6933 39.7166 17.9931 38.2976 18.5804C36.8786 19.1676 35.5904 20.0308 34.5075 21.1197L30.5019 25.136H22.4375C22.277 25.138 22.1191 25.1763 21.9756 25.2481C21.832 25.3198 21.7066 25.4232 21.6087 25.5504L17.3587 30.8629C17.2402 31.0098 17.1629 31.1857 17.1349 31.3725C17.1069 31.5592 17.1291 31.7501 17.1994 31.9254C17.2688 32.0994 17.383 32.2521 17.5304 32.3677C17.6778 32.4834 17.8532 32.5581 18.0387 32.5841L25.4762 33.6466L25.7737 31.5216L20.1744 30.7247L22.9475 27.261H30.9375C31.0773 27.2618 31.2159 27.235 31.3454 27.1821C31.4748 27.1292 31.5926 27.0513 31.6919 26.9529L36.0162 22.6285C36.9013 21.7374 37.9542 21.0307 39.1141 20.5493C40.274 20.0678 41.5179 19.8211 42.7737 19.8235H44.75V21.7997C44.7524 23.0556 44.5057 24.2995 44.0242 25.4594C43.5428 26.6193 42.836 27.6722 41.945 28.5572L37.6206 32.8816C37.5221 32.9809 37.4442 33.0986 37.3914 33.2281C37.3385 33.3575 37.3117 33.4962 37.3125 33.636V41.626L33.87 44.3991L33.0731 38.7997L30.9481 39.0972L32.0106 46.5347C32.0366 46.7203 32.1113 46.8957 32.227 47.0431C32.3427 47.1905 32.4953 47.3047 32.6694 47.3741ZM22.7436 40.3212L31.2408 31.824L32.7434 33.3266L24.2462 41.8238L22.7436 40.3212Z" fill="#CBCBD7"/>
</svg>
