<svg width="129" height="20" viewBox="0 0 129 20" fill="none" xmlns="http://www.w3.org/2000/svg">
<g clip-path="url(#clip0_85_236)">
<path d="M12 17C11.4067 17 10.8266 16.8241 10.3333 16.4944C9.83994 16.1648 9.45543 15.6962 9.22836 15.1481C9.0013 14.5999 8.94189 13.9967 9.05765 13.4147C9.1734 12.8328 9.45912 12.2982 9.87868 11.8787C10.2982 11.4591 10.8328 11.1734 11.4147 11.0576C11.9967 10.9419 12.5999 11.0013 13.1481 11.2284C13.6962 11.4554 14.1648 11.8399 14.4944 12.3333C14.8241 12.8266 15 13.4067 15 14C14.9991 14.7954 14.6828 15.5579 14.1203 16.1203C13.5579 16.6828 12.7954 16.9991 12 17ZM12 12C11.6044 12 11.2178 12.1173 10.8889 12.3371C10.56 12.5568 10.3036 12.8692 10.1522 13.2346C10.0009 13.6001 9.96126 14.0022 10.0384 14.3902C10.1156 14.7781 10.3061 15.1345 10.5858 15.4142C10.8655 15.6939 11.2219 15.8844 11.6098 15.9616C11.9978 16.0387 12.3999 15.9991 12.7654 15.8478C13.1308 15.6964 13.4432 15.44 13.6629 15.1111C13.8827 14.7822 14 14.3956 14 14C13.9994 13.4698 13.7885 12.9614 13.4136 12.5864C13.0386 12.2115 12.5303 12.0006 12 12Z" fill="#DAC3FF"/>
<path d="M8.5 12.5C9.39515 10.2621 10.3333 10 11.5 9.5L11 7L8 3.5L3 4V16.5H8C8 15.6667 8.05433 13.6142 8.5 12.5Z" fill="#8B31FF"/>
<path d="M8 13H4V14H8V13Z" fill="#DAC3FF"/>
<path d="M9 10H4V11H9V10Z" fill="#DAC3FF"/>
<path d="M8 16H3V4.00005H7V7.00005C7.00077 7.26503 7.10637 7.51894 7.29374 7.70631C7.48111 7.89368 7.73502 7.99928 8 8.00005H11V9.50005H12V7.00005C12.0018 6.93433 11.9893 6.86901 11.9634 6.80859C11.9375 6.74816 11.8988 6.69407 11.85 6.65005L8.35 3.15005C8.30599 3.10121 8.2519 3.06251 8.19147 3.03661C8.13104 3.01072 8.06572 2.99824 8 3.00005H3C2.73502 3.00081 2.48111 3.10642 2.29374 3.29379C2.10637 3.48116 2.00077 3.73507 2 4.00005V16C2.00077 16.265 2.10637 16.5189 2.29374 16.7063C2.48111 16.8937 2.73502 16.9993 3 17H8V16ZM8 4.20005L10.8 7.00005H8V4.20005Z" fill="#DAC3FF"/>
</g>
<path d="M29.8413 9.904C29.8413 11.024 29.6313 11.962 29.2113 12.718C28.7913 13.474 28.1846 14.0433 27.3913 14.426C26.6073 14.8087 25.6599 15 24.5493 15H21.7493V5.004H24.8433C25.8606 5.004 26.7426 5.19067 27.4893 5.564C28.2359 5.93733 28.8146 6.488 29.2253 7.216C29.6359 7.93467 29.8413 8.83067 29.8413 9.904ZM28.2593 9.946C28.2593 9.106 28.1239 8.41533 27.8533 7.874C27.5826 7.33267 27.1813 6.93133 26.6493 6.67C26.1266 6.40867 25.4919 6.278 24.7453 6.278H23.2613V13.726H24.4793C25.7393 13.726 26.6819 13.4087 27.3073 12.774C27.9419 12.1393 28.2593 11.1967 28.2593 9.946ZM38.7788 11.22C38.7788 11.8453 38.6948 12.4007 38.5268 12.886C38.3588 13.3713 38.1208 13.782 37.8128 14.118C37.5048 14.454 37.1315 14.7107 36.6928 14.888C36.2542 15.056 35.7595 15.14 35.2088 15.14C34.7048 15.14 34.2382 15.056 33.8088 14.888C33.3795 14.7107 33.0062 14.454 32.6888 14.118C32.3808 13.782 32.1382 13.3713 31.9608 12.886C31.7835 12.4007 31.6948 11.8407 31.6948 11.206C31.6948 10.3753 31.8348 9.67067 32.1148 9.092C32.4042 8.51333 32.8148 8.07467 33.3468 7.776C33.8882 7.468 34.5228 7.314 35.2508 7.314C35.9415 7.314 36.5482 7.468 37.0708 7.776C37.6028 8.07467 38.0182 8.51333 38.3168 9.092C38.6248 9.67067 38.7788 10.38 38.7788 11.22ZM33.2208 11.22C33.2208 11.78 33.2908 12.2653 33.4308 12.676C33.5708 13.0773 33.7902 13.3853 34.0888 13.6C34.3875 13.8147 34.7702 13.922 35.2368 13.922C35.7035 13.922 36.0862 13.8147 36.3848 13.6C36.6835 13.3853 36.9028 13.0773 37.0428 12.676C37.1828 12.2653 37.2528 11.78 37.2528 11.22C37.2528 10.6413 37.1782 10.156 37.0288 9.764C36.8888 9.372 36.6695 9.07333 36.3708 8.868C36.0815 8.65333 35.6988 8.546 35.2228 8.546C34.5228 8.546 34.0142 8.77933 33.6968 9.246C33.3795 9.71267 33.2208 10.3707 33.2208 11.22ZM43.9781 15.14C43.2874 15.14 42.6808 15.0047 42.1581 14.734C41.6354 14.4633 41.2294 14.0433 40.9401 13.474C40.6508 12.8953 40.5061 12.1627 40.5061 11.276C40.5061 10.3427 40.6601 9.58667 40.9681 9.008C41.2854 8.42933 41.7101 8.00467 42.2421 7.734C42.7834 7.454 43.3994 7.314 44.0901 7.314C44.5101 7.314 44.9021 7.36067 45.2661 7.454C45.6394 7.538 45.9474 7.636 46.1901 7.748L45.7421 8.952C45.4808 8.84933 45.2008 8.76067 44.9021 8.686C44.6128 8.61133 44.3374 8.574 44.0761 8.574C43.6094 8.574 43.2221 8.67667 42.9141 8.882C42.6154 9.078 42.3914 9.37667 42.2421 9.778C42.1021 10.17 42.0321 10.6647 42.0321 11.262C42.0321 11.8313 42.1068 12.312 42.2561 12.704C42.4054 13.096 42.6248 13.3947 42.9141 13.6C43.2128 13.796 43.5814 13.894 44.0201 13.894C44.4401 13.894 44.8088 13.8473 45.1261 13.754C45.4434 13.6607 45.7421 13.5393 46.0221 13.39V14.678C45.7514 14.8367 45.4574 14.9533 45.1401 15.028C44.8228 15.1027 44.4354 15.14 43.9781 15.14ZM54.5794 7.454V15H53.3894L53.1794 14.006H53.1094C52.9507 14.2673 52.7454 14.482 52.4934 14.65C52.2414 14.818 51.966 14.9393 51.6674 15.014C51.3687 15.098 51.0607 15.14 50.7434 15.14C50.1554 15.14 49.656 15.0467 49.2454 14.86C48.844 14.664 48.536 14.3653 48.3214 13.964C48.116 13.5533 48.0134 13.0307 48.0134 12.396V7.454H49.5114V12.172C49.5114 12.76 49.6327 13.1987 49.8754 13.488C50.1274 13.7773 50.5147 13.922 51.0374 13.922C51.56 13.922 51.9707 13.8193 52.2694 13.614C52.568 13.4087 52.778 13.11 52.8994 12.718C53.03 12.3167 53.0954 11.836 53.0954 11.276V7.454H54.5794ZM65.6377 7.314C66.4871 7.314 67.1264 7.53333 67.5557 7.972C67.9851 8.41067 68.1997 9.11533 68.1997 10.086V15H66.7157V10.282C66.7157 9.70333 66.5991 9.26933 66.3657 8.98C66.1417 8.68133 65.7871 8.532 65.3017 8.532C64.6297 8.532 64.1491 8.742 63.8597 9.162C63.5704 9.57267 63.4257 10.17 63.4257 10.954V15H61.9557V10.282C61.9557 9.89933 61.8997 9.57733 61.7877 9.316C61.6851 9.05467 61.5311 8.85867 61.3257 8.728C61.1204 8.59733 60.8544 8.532 60.5277 8.532C60.0611 8.532 59.6924 8.63467 59.4217 8.84C59.1511 9.04533 58.9551 9.34867 58.8337 9.75C58.7217 10.142 58.6657 10.6227 58.6657 11.192V15H57.1817V7.454H58.3577L58.5677 8.462H58.6517C58.8104 8.20067 59.0017 7.986 59.2257 7.818C59.4591 7.65 59.7157 7.524 59.9957 7.44C60.2757 7.356 60.5651 7.314 60.8637 7.314C61.4331 7.314 61.9137 7.41667 62.3057 7.622C62.6977 7.818 62.9824 8.12133 63.1597 8.532H63.2717C63.5144 8.112 63.8504 7.804 64.2797 7.608C64.7091 7.412 65.1617 7.314 65.6377 7.314ZM73.7188 7.314C74.3815 7.314 74.9508 7.454 75.4268 7.734C75.9028 8.00467 76.2668 8.39667 76.5188 8.91C76.7801 9.42333 76.9108 10.03 76.9108 10.73V11.542H71.8428C71.8615 12.3167 72.0621 12.9093 72.4448 13.32C72.8368 13.7307 73.3828 13.936 74.0828 13.936C74.5681 13.936 74.9975 13.894 75.3708 13.81C75.7535 13.7167 76.1455 13.5813 76.5468 13.404V14.636C76.1735 14.804 75.7908 14.93 75.3988 15.014C75.0161 15.098 74.5588 15.14 74.0268 15.14C73.2988 15.14 72.6548 14.9953 72.0948 14.706C71.5348 14.4167 71.0961 13.9873 70.7788 13.418C70.4708 12.8393 70.3168 12.13 70.3168 11.29C70.3168 10.4407 70.4568 9.722 70.7368 9.134C71.0261 8.546 71.4228 8.098 71.9268 7.79C72.4401 7.47267 73.0375 7.314 73.7188 7.314ZM73.7188 8.462C73.1868 8.462 72.7575 8.63467 72.4308 8.98C72.1135 9.32533 71.9268 9.81533 71.8708 10.45H75.4268C75.4268 10.058 75.3661 9.71267 75.2448 9.414C75.1235 9.11533 74.9368 8.882 74.6848 8.714C74.4328 8.546 74.1108 8.462 73.7188 8.462ZM82.8645 7.314C83.7418 7.314 84.4138 7.53333 84.8805 7.972C85.3472 8.41067 85.5805 9.11533 85.5805 10.086V15H84.1105V10.296C84.1105 9.708 83.9845 9.26933 83.7325 8.98C83.4898 8.68133 83.0978 8.532 82.5565 8.532C81.7912 8.532 81.2592 8.76067 80.9605 9.218C80.6712 9.67533 80.5265 10.3333 80.5265 11.192V15H79.0425V7.454H80.2185L80.4285 8.462H80.5125C80.6805 8.20067 80.8858 7.986 81.1285 7.818C81.3712 7.65 81.6418 7.524 81.9405 7.44C82.2392 7.356 82.5472 7.314 82.8645 7.314ZM90.8569 13.936C91.0529 13.936 91.2535 13.9173 91.4589 13.88C91.6642 13.8427 91.8415 13.8007 91.9909 13.754V14.874C91.8322 14.9487 91.6175 15.0093 91.3469 15.056C91.0762 15.112 90.8055 15.14 90.5349 15.14C90.1242 15.14 89.7462 15.07 89.4009 14.93C89.0649 14.79 88.7942 14.5473 88.5889 14.202C88.3835 13.8567 88.2809 13.376 88.2809 12.76V8.588H87.2309V7.916L88.3369 7.356L88.8549 5.76H89.7649V7.454H91.9209V8.588H89.7649V12.732C89.7649 13.1427 89.8629 13.446 90.0589 13.642C90.2642 13.838 90.5302 13.936 90.8569 13.936ZM96.7062 7.314C97.6582 7.314 98.3676 7.524 98.8342 7.944C99.3009 8.35467 99.5342 9.00333 99.5342 9.89V15H98.4842L98.1902 13.95H98.1342C97.9196 14.2207 97.6956 14.4447 97.4622 14.622C97.2382 14.7993 96.9769 14.93 96.6782 15.014C96.3889 15.098 96.0342 15.14 95.6142 15.14C95.1662 15.14 94.7602 15.0607 94.3962 14.902C94.0416 14.734 93.7616 14.482 93.5562 14.146C93.3509 13.8007 93.2482 13.3713 93.2482 12.858C93.2482 12.0927 93.5376 11.5093 94.1162 11.108C94.7042 10.7067 95.5956 10.4873 96.7902 10.45L98.0782 10.408V9.988C98.0782 9.428 97.9522 9.036 97.7002 8.812C97.4482 8.588 97.0936 8.476 96.6362 8.476C96.2442 8.476 95.8709 8.532 95.5162 8.644C95.1616 8.756 94.8256 8.89133 94.5082 9.05L94.0322 7.972C94.3869 7.78533 94.7929 7.63133 95.2502 7.51C95.7169 7.37933 96.2022 7.314 96.7062 7.314ZM97.0562 11.402C96.1976 11.4393 95.6002 11.584 95.2642 11.836C94.9376 12.0787 94.7742 12.424 94.7742 12.872C94.7742 13.264 94.8909 13.5487 95.1242 13.726C95.3669 13.9033 95.6702 13.992 96.0342 13.992C96.6222 13.992 97.1076 13.8287 97.4902 13.502C97.8729 13.1753 98.0642 12.6853 98.0642 12.032V11.374L97.0562 11.402ZM104.815 13.936C105.011 13.936 105.212 13.9173 105.417 13.88C105.623 13.8427 105.8 13.8007 105.949 13.754V14.874C105.791 14.9487 105.576 15.0093 105.305 15.056C105.035 15.112 104.764 15.14 104.493 15.14C104.083 15.14 103.705 15.07 103.359 14.93C103.023 14.79 102.753 14.5473 102.547 14.202C102.342 13.8567 102.239 13.376 102.239 12.76V8.588H101.189V7.916L102.295 7.356L102.813 5.76H103.723V7.454H105.879V8.588H103.723V12.732C103.723 13.1427 103.821 13.446 104.017 13.642C104.223 13.838 104.489 13.936 104.815 13.936ZM109.223 7.454V15H107.739V7.454H109.223ZM108.495 4.584C108.719 4.584 108.915 4.64933 109.083 4.78C109.251 4.91067 109.335 5.13 109.335 5.438C109.335 5.73667 109.251 5.956 109.083 6.096C108.915 6.22667 108.719 6.292 108.495 6.292C108.252 6.292 108.047 6.22667 107.879 6.096C107.72 5.956 107.641 5.73667 107.641 5.438C107.641 5.13 107.72 4.91067 107.879 4.78C108.047 4.64933 108.252 4.584 108.495 4.584ZM118.483 11.22C118.483 11.8453 118.399 12.4007 118.231 12.886C118.063 13.3713 117.825 13.782 117.517 14.118C117.209 14.454 116.836 14.7107 116.397 14.888C115.958 15.056 115.464 15.14 114.913 15.14C114.409 15.14 113.942 15.056 113.513 14.888C113.084 14.7107 112.71 14.454 112.393 14.118C112.085 13.782 111.842 13.3713 111.665 12.886C111.488 12.4007 111.399 11.8407 111.399 11.206C111.399 10.3753 111.539 9.67067 111.819 9.092C112.108 8.51333 112.519 8.07467 113.051 7.776C113.592 7.468 114.227 7.314 114.955 7.314C115.646 7.314 116.252 7.468 116.775 7.776C117.307 8.07467 117.722 8.51333 118.021 9.092C118.329 9.67067 118.483 10.38 118.483 11.22ZM112.925 11.22C112.925 11.78 112.995 12.2653 113.135 12.676C113.275 13.0773 113.494 13.3853 113.793 13.6C114.092 13.8147 114.474 13.922 114.941 13.922C115.408 13.922 115.79 13.8147 116.089 13.6C116.388 13.3853 116.607 13.0773 116.747 12.676C116.887 12.2653 116.957 11.78 116.957 11.22C116.957 10.6413 116.882 10.156 116.733 9.764C116.593 9.372 116.374 9.07333 116.075 8.868C115.786 8.65333 115.403 8.546 114.927 8.546C114.227 8.546 113.718 8.77933 113.401 9.246C113.084 9.71267 112.925 10.3707 112.925 11.22ZM124.466 7.314C125.344 7.314 126.016 7.53333 126.482 7.972C126.949 8.41067 127.182 9.11533 127.182 10.086V15H125.712V10.296C125.712 9.708 125.586 9.26933 125.334 8.98C125.092 8.68133 124.7 8.532 124.158 8.532C123.393 8.532 122.861 8.76067 122.562 9.218C122.273 9.67533 122.128 10.3333 122.128 11.192V15H120.644V7.454H121.82L122.03 8.462H122.114C122.282 8.20067 122.488 7.986 122.73 7.818C122.973 7.65 123.244 7.524 123.542 7.44C123.841 7.356 124.149 7.314 124.466 7.314Z" fill="#6D7CFF"/>
<defs>
<clipPath id="clip0_85_236">
<rect width="16" height="16" fill="white" transform="translate(0 2)"/>
</clipPath>
</defs>
</svg>
