<svg width="87" height="20" viewBox="0 0 87 20" fill="none" xmlns="http://www.w3.org/2000/svg">
<path d="M12 3H4C3.73478 3 3.48043 3.10536 3.29289 3.29289C3.10536 3.48043 3 3.73478 3 4V17L8 14.4731L13 17V4C13 3.73478 12.8946 3.48043 12.7071 3.29289C12.5196 3.10536 12.2652 3 12 3Z" fill="#55D899"/>
<path d="M27.3321 15H21.7041V5.004H27.3321V6.292H23.2161V9.148H27.0801V10.422H23.2161V13.698H27.3321V15ZM31.3311 11.15L28.7691 7.454H30.4631L32.2551 10.17L34.0471 7.454H35.7271L33.1651 11.15L35.8531 15H34.1731L32.2551 12.116L30.3231 15H28.6431L31.3311 11.15ZM40.4167 7.314C41.3687 7.314 42.078 7.524 42.5447 7.944C43.0113 8.35467 43.2447 9.00333 43.2447 9.89V15H42.1947L41.9007 13.95H41.8447C41.63 14.2207 41.406 14.4447 41.1727 14.622C40.9487 14.7993 40.6873 14.93 40.3887 15.014C40.0993 15.098 39.7447 15.14 39.3247 15.14C38.8767 15.14 38.4707 15.0607 38.1067 14.902C37.752 14.734 37.472 14.482 37.2667 14.146C37.0613 13.8007 36.9587 13.3713 36.9587 12.858C36.9587 12.0927 37.248 11.5093 37.8267 11.108C38.4147 10.7067 39.306 10.4873 40.5007 10.45L41.7887 10.408V9.988C41.7887 9.428 41.6627 9.036 41.4107 8.812C41.1587 8.588 40.804 8.476 40.3467 8.476C39.9547 8.476 39.5813 8.532 39.2267 8.644C38.872 8.756 38.536 8.89133 38.2187 9.05L37.7427 7.972C38.0973 7.78533 38.5033 7.63133 38.9607 7.51C39.4273 7.37933 39.9127 7.314 40.4167 7.314ZM40.7667 11.402C39.908 11.4393 39.3107 11.584 38.9747 11.836C38.648 12.0787 38.4847 12.424 38.4847 12.872C38.4847 13.264 38.6013 13.5487 38.8347 13.726C39.0773 13.9033 39.3807 13.992 39.7447 13.992C40.3327 13.992 40.818 13.8287 41.2007 13.502C41.5833 13.1753 41.7747 12.6853 41.7747 12.032V11.374L40.7667 11.402ZM54.2657 7.314C55.1151 7.314 55.7544 7.53333 56.1837 7.972C56.6131 8.41067 56.8277 9.11533 56.8277 10.086V15H55.3437V10.282C55.3437 9.70333 55.2271 9.26933 54.9937 8.98C54.7697 8.68133 54.4151 8.532 53.9297 8.532C53.2577 8.532 52.7771 8.742 52.4877 9.162C52.1984 9.57267 52.0537 10.17 52.0537 10.954V15H50.5837V10.282C50.5837 9.89933 50.5277 9.57733 50.4157 9.316C50.3131 9.05467 50.1591 8.85867 49.9537 8.728C49.7484 8.59733 49.4824 8.532 49.1557 8.532C48.6891 8.532 48.3204 8.63467 48.0497 8.84C47.7791 9.04533 47.5831 9.34867 47.4617 9.75C47.3497 10.142 47.2937 10.6227 47.2937 11.192V15H45.8097V7.454H46.9857L47.1957 8.462H47.2797C47.4384 8.20067 47.6297 7.986 47.8537 7.818C48.0871 7.65 48.3437 7.524 48.6237 7.44C48.9037 7.356 49.1931 7.314 49.4917 7.314C50.0611 7.314 50.5417 7.41667 50.9337 7.622C51.3257 7.818 51.6104 8.12133 51.7877 8.532H51.8997C52.1424 8.112 52.4784 7.804 52.9077 7.608C53.3371 7.412 53.7897 7.314 54.2657 7.314ZM63.1448 7.314C64.0501 7.314 64.7781 7.64067 65.3288 8.294C65.8888 8.94733 66.1688 9.92267 66.1688 11.22C66.1688 12.0693 66.0428 12.788 65.7908 13.376C65.5388 13.964 65.1841 14.4073 64.7268 14.706C64.2695 14.9953 63.7375 15.14 63.1308 15.14C62.7481 15.14 62.4121 15.0933 62.1228 15C61.8335 14.8973 61.5861 14.7667 61.3808 14.608C61.1848 14.44 61.0121 14.2627 60.8628 14.076H60.7648C60.7928 14.244 60.8161 14.4447 60.8348 14.678C60.8535 14.902 60.8628 15.1027 60.8628 15.28V18.36H59.3788V7.454H60.5828L60.7928 8.462H60.8628C61.0121 8.25667 61.1895 8.06533 61.3948 7.888C61.6001 7.71067 61.8475 7.57067 62.1368 7.468C62.4261 7.36533 62.7621 7.314 63.1448 7.314ZM62.7948 8.532C62.3281 8.532 61.9548 8.62533 61.6748 8.812C61.3948 8.98933 61.1895 9.26 61.0588 9.624C60.9375 9.97867 60.8721 10.4313 60.8628 10.982V11.206C60.8628 11.7847 60.9235 12.2793 61.0448 12.69C61.1661 13.0913 61.3668 13.3993 61.6468 13.614C61.9361 13.8193 62.3281 13.922 62.8228 13.922C63.2428 13.922 63.5835 13.81 63.8448 13.586C64.1155 13.3527 64.3161 13.0307 64.4468 12.62C64.5775 12.2093 64.6428 11.7333 64.6428 11.192C64.6428 10.3707 64.4935 9.722 64.1948 9.246C63.8961 8.77 63.4295 8.532 62.7948 8.532ZM69.8244 15H68.3404V4.36H69.8244V15ZM75.4029 7.314C76.0656 7.314 76.6349 7.454 77.1109 7.734C77.5869 8.00467 77.9509 8.39667 78.2029 8.91C78.4642 9.42333 78.5949 10.03 78.5949 10.73V11.542H73.5269C73.5456 12.3167 73.7462 12.9093 74.1289 13.32C74.5209 13.7307 75.0669 13.936 75.7669 13.936C76.2522 13.936 76.6816 13.894 77.0549 13.81C77.4376 13.7167 77.8296 13.5813 78.2309 13.404V14.636C77.8576 14.804 77.4749 14.93 77.0829 15.014C76.7002 15.098 76.2429 15.14 75.7109 15.14C74.9829 15.14 74.3389 14.9953 73.7789 14.706C73.2189 14.4167 72.7802 13.9873 72.4629 13.418C72.1549 12.8393 72.0009 12.13 72.0009 11.29C72.0009 10.4407 72.1409 9.722 72.4209 9.134C72.7102 8.546 73.1069 8.098 73.6109 7.79C74.1242 7.47267 74.7216 7.314 75.4029 7.314ZM75.4029 8.462C74.8709 8.462 74.4416 8.63467 74.1149 8.98C73.7976 9.32533 73.6109 9.81533 73.5549 10.45H77.1109C77.1109 10.058 77.0502 9.71267 76.9289 9.414C76.8076 9.11533 76.6209 8.882 76.3689 8.714C76.1169 8.546 75.7949 8.462 75.4029 8.462ZM85.7386 12.872C85.7386 13.3667 85.6173 13.782 85.3746 14.118C85.1319 14.454 84.7819 14.7107 84.3246 14.888C83.8673 15.056 83.3166 15.14 82.6726 15.14C82.1406 15.14 81.6833 15.098 81.3006 15.014C80.9273 14.9393 80.5819 14.8273 80.2646 14.678V13.376C80.6006 13.5347 80.9879 13.6793 81.4266 13.81C81.8653 13.9313 82.2946 13.992 82.7146 13.992C83.2746 13.992 83.6759 13.9033 83.9186 13.726C84.1706 13.5487 84.2966 13.3107 84.2966 13.012C84.2966 12.844 84.2499 12.6947 84.1566 12.564C84.0633 12.424 83.8859 12.284 83.6246 12.144C83.3726 11.9947 82.9993 11.8267 82.5046 11.64C82.0286 11.444 81.6226 11.2527 81.2866 11.066C80.9506 10.87 80.6939 10.6413 80.5166 10.38C80.3393 10.1093 80.2506 9.764 80.2506 9.344C80.2506 8.69067 80.5119 8.19133 81.0346 7.846C81.5666 7.49133 82.2666 7.314 83.1346 7.314C83.5919 7.314 84.0213 7.36067 84.4226 7.454C84.8333 7.538 85.2299 7.66867 85.6126 7.846L85.1226 8.98C84.9079 8.87733 84.6839 8.79333 84.4506 8.728C84.2266 8.65333 83.9979 8.59267 83.7646 8.546C83.5406 8.49933 83.3073 8.476 83.0646 8.476C82.6166 8.476 82.2759 8.546 82.0426 8.686C81.8093 8.826 81.6926 9.022 81.6926 9.274C81.6926 9.45133 81.7439 9.60533 81.8466 9.736C81.9586 9.86667 82.1499 9.99733 82.4206 10.128C82.6913 10.2587 83.0599 10.4173 83.5266 10.604C83.9933 10.7813 84.3899 10.9633 84.7166 11.15C85.0526 11.3367 85.3046 11.5653 85.4726 11.836C85.6499 12.1067 85.7386 12.452 85.7386 12.872Z" fill="#6D7CFF"/>
</svg>
