<svg width="128" height="20" viewBox="0 0 128 20" fill="none" xmlns="http://www.w3.org/2000/svg">
<path fill-rule="evenodd" clip-rule="evenodd" d="M8.315 16.965C8.3739 16.9883 8.43668 17.0002 8.5 17C8.61278 16.9994 8.72203 16.9606 8.81 16.89L11.31 14.89C11.3689 14.8435 11.4166 14.7842 11.4495 14.7167C11.4824 14.6492 11.4997 14.5751 11.5 14.5V10.705L13.39 8.82003C13.9024 8.31045 14.3086 7.7042 14.585 7.03645C14.8614 6.36869 15.0024 5.65271 15 4.93003V4.00003C15 3.73481 14.8946 3.48046 14.7071 3.29292C14.5196 3.10539 14.2652 3.00003 14 3.00003H13.07C12.3473 2.9976 11.6313 3.13865 10.9636 3.41503C10.2958 3.6914 9.68959 4.09758 9.18 4.61003L7.295 6.50003H3.5C3.42449 6.50097 3.35017 6.51901 3.28263 6.55278C3.21508 6.58655 3.15606 6.63519 3.11 6.69503L1.11 9.19503C1.0542 9.26419 1.01783 9.34697 1.00465 9.43485C0.991465 9.52274 1.00194 9.61254 1.035 9.69503C1.06766 9.77695 1.1214 9.84877 1.19077 9.90321C1.26014 9.95765 1.34267 9.99278 1.43 10.005L4.93 10.505L5.07 9.50503L2.435 9.13003L3.74 7.50003H7.5C7.56581 7.50041 7.63104 7.4878 7.69196 7.46292C7.75287 7.43803 7.80828 7.40137 7.855 7.35503L9.89 5.32003C10.3065 4.90071 10.802 4.56814 11.3478 4.34157C11.8937 4.11499 12.479 3.99891 13.07 4.00003H14V4.93003C14.0011 5.52103 13.885 6.10638 13.6585 6.65222C13.4319 7.19806 13.0993 7.69356 12.68 8.11003L10.645 10.145C10.5987 10.1918 10.562 10.2472 10.5371 10.3081C10.5122 10.369 10.4996 10.4342 10.5 10.5V14.26L8.88 15.565L8.505 12.93L7.505 13.07L8.005 16.57C8.01725 16.6574 8.05238 16.7399 8.10682 16.8093C8.16127 16.8786 8.23309 16.9324 8.315 16.965ZM3.64404 13.646L7.64273 9.64731L8.34984 10.3544L4.35115 14.3531L3.64404 13.646Z" fill="#FF6464"/>
<path d="M25.9274 9.624H29.5394V14.608C29.0074 14.7853 28.4614 14.916 27.9014 15C27.3507 15.0933 26.7207 15.14 26.0114 15.14C24.9941 15.14 24.1307 14.9347 23.4214 14.524C22.7214 14.1133 22.1847 13.5253 21.8114 12.76C21.4474 11.9947 21.2654 11.0753 21.2654 10.002C21.2654 8.95667 21.4707 8.05133 21.8814 7.286C22.2921 6.52067 22.8801 5.928 23.6454 5.508C24.4201 5.07867 25.3581 4.864 26.4594 4.864C27.0101 4.864 27.5374 4.92 28.0414 5.032C28.5454 5.13467 29.0121 5.27933 29.4414 5.466L28.8954 6.726C28.5501 6.56733 28.1627 6.43667 27.7334 6.334C27.3134 6.222 26.8701 6.166 26.4034 6.166C25.6661 6.166 25.0267 6.32467 24.4854 6.642C23.9534 6.95 23.5427 7.39333 23.2534 7.972C22.9734 8.54133 22.8334 9.22267 22.8334 10.016C22.8334 10.7627 22.9501 11.4253 23.1834 12.004C23.4167 12.5827 23.7854 13.0353 24.2894 13.362C24.7934 13.6887 25.4514 13.852 26.2634 13.852C26.5341 13.852 26.7721 13.8427 26.9774 13.824C27.1827 13.796 27.3694 13.768 27.5374 13.74C27.7147 13.7027 27.8827 13.67 28.0414 13.642V10.926H25.9274V9.624ZM35.0073 7.314C35.6699 7.314 36.2393 7.454 36.7153 7.734C37.1913 8.00467 37.5553 8.39667 37.8073 8.91C38.0686 9.42333 38.1993 10.03 38.1993 10.73V11.542H33.1313C33.1499 12.3167 33.3506 12.9093 33.7333 13.32C34.1253 13.7307 34.6713 13.936 35.3713 13.936C35.8566 13.936 36.2859 13.894 36.6593 13.81C37.0419 13.7167 37.4339 13.5813 37.8353 13.404V14.636C37.4619 14.804 37.0793 14.93 36.6873 15.014C36.3046 15.098 35.8473 15.14 35.3153 15.14C34.5873 15.14 33.9433 14.9953 33.3833 14.706C32.8233 14.4167 32.3846 13.9873 32.0673 13.418C31.7593 12.8393 31.6053 12.13 31.6053 11.29C31.6053 10.4407 31.7453 9.722 32.0253 9.134C32.3146 8.546 32.7113 8.098 33.2153 7.79C33.7286 7.47267 34.3259 7.314 35.0073 7.314ZM35.0073 8.462C34.4753 8.462 34.0459 8.63467 33.7193 8.98C33.4019 9.32533 33.2153 9.81533 33.1593 10.45H36.7153C36.7153 10.058 36.6546 9.71267 36.5333 9.414C36.4119 9.11533 36.2253 8.882 35.9733 8.714C35.7213 8.546 35.3993 8.462 35.0073 8.462ZM43.047 13.936C43.243 13.936 43.4437 13.9173 43.649 13.88C43.8543 13.8427 44.0317 13.8007 44.181 13.754V14.874C44.0223 14.9487 43.8077 15.0093 43.537 15.056C43.2663 15.112 42.9957 15.14 42.725 15.14C42.3143 15.14 41.9363 15.07 41.591 14.93C41.255 14.79 40.9843 14.5473 40.779 14.202C40.5737 13.8567 40.471 13.376 40.471 12.76V8.588H39.421V7.916L40.527 7.356L41.045 5.76H41.955V7.454H44.111V8.588H41.955V12.732C41.955 13.1427 42.053 13.446 42.249 13.642C42.4543 13.838 42.7203 13.936 43.047 13.936ZM48.6864 13.936C48.8824 13.936 49.083 13.9173 49.2884 13.88C49.4937 13.8427 49.671 13.8007 49.8204 13.754V14.874C49.6617 14.9487 49.447 15.0093 49.1764 15.056C48.9057 15.112 48.635 15.14 48.3644 15.14C47.9537 15.14 47.5757 15.07 47.2304 14.93C46.8944 14.79 46.6237 14.5473 46.4184 14.202C46.213 13.8567 46.1104 13.376 46.1104 12.76V8.588H45.0604V7.916L46.1664 7.356L46.6844 5.76H47.5944V7.454H49.7504V8.588H47.5944V12.732C47.5944 13.1427 47.6924 13.446 47.8884 13.642C48.0937 13.838 48.3597 13.936 48.6864 13.936ZM53.0937 7.454V15H51.6097V7.454H53.0937ZM52.3657 4.584C52.5897 4.584 52.7857 4.64933 52.9537 4.78C53.1217 4.91067 53.2057 5.13 53.2057 5.438C53.2057 5.73667 53.1217 5.956 52.9537 6.096C52.7857 6.22667 52.5897 6.292 52.3657 6.292C52.1231 6.292 51.9177 6.22667 51.7497 6.096C51.5911 5.956 51.5117 5.73667 51.5117 5.438C51.5117 5.13 51.5911 4.91067 51.7497 4.78C51.9177 4.64933 52.1231 4.584 52.3657 4.584ZM59.5262 7.314C60.4035 7.314 61.0755 7.53333 61.5422 7.972C62.0089 8.41067 62.2422 9.11533 62.2422 10.086V15H60.7722V10.296C60.7722 9.708 60.6462 9.26933 60.3942 8.98C60.1515 8.68133 59.7595 8.532 59.2182 8.532C58.4529 8.532 57.9209 8.76067 57.6222 9.218C57.3329 9.67533 57.1882 10.3333 57.1882 11.192V15H55.7042V7.454H56.8802L57.0902 8.462H57.1742C57.3422 8.20067 57.5475 7.986 57.7902 7.818C58.0329 7.65 58.3035 7.524 58.6022 7.44C58.9009 7.356 59.2089 7.314 59.5262 7.314ZM67.4065 7.314C67.8919 7.314 68.3305 7.40733 68.7225 7.594C69.1145 7.78067 69.4459 8.06533 69.7165 8.448H69.7865L69.9545 7.454H71.1585V15.098C71.1585 15.8073 71.0325 16.4047 70.7805 16.89C70.5285 17.3753 70.1412 17.7393 69.6185 17.982C69.1052 18.234 68.4565 18.36 67.6725 18.36C67.1312 18.36 66.6319 18.3227 66.1745 18.248C65.7172 18.1733 65.2972 18.0567 64.9145 17.898V16.596C65.1852 16.7267 65.4699 16.834 65.7685 16.918C66.0672 17.0113 66.3845 17.0767 66.7205 17.114C67.0565 17.1607 67.4019 17.184 67.7565 17.184C68.3725 17.184 68.8485 17.0067 69.1845 16.652C69.5205 16.3067 69.6885 15.8167 69.6885 15.182V14.93C69.6885 14.8087 69.6932 14.65 69.7025 14.454C69.7119 14.2487 69.7212 14.0993 69.7305 14.006H69.6745C69.4132 14.398 69.0912 14.6873 68.7085 14.874C68.3352 15.0513 67.9012 15.14 67.4065 15.14C66.4545 15.14 65.7079 14.7993 65.1665 14.118C64.6345 13.4273 64.3685 12.4707 64.3685 11.248C64.3685 10.4267 64.4899 9.72667 64.7325 9.148C64.9752 8.56 65.3205 8.10733 65.7685 7.79C66.2259 7.47267 66.7719 7.314 67.4065 7.314ZM67.7145 8.546C67.3225 8.546 66.9912 8.65333 66.7205 8.868C66.4499 9.07333 66.2445 9.37667 66.1045 9.778C65.9645 10.1793 65.8945 10.674 65.8945 11.262C65.8945 12.1393 66.0485 12.8067 66.3565 13.264C66.6739 13.7213 67.1359 13.95 67.7425 13.95C68.0972 13.95 68.3959 13.9033 68.6385 13.81C68.8905 13.7167 69.0959 13.572 69.2545 13.376C69.4225 13.18 69.5439 12.9327 69.6185 12.634C69.7025 12.326 69.7445 11.9573 69.7445 11.528V11.248C69.7445 10.604 69.6699 10.086 69.5205 9.694C69.3805 9.29267 69.1612 9.00333 68.8625 8.826C68.5639 8.63933 68.1812 8.546 67.7145 8.546ZM83.5889 12.298C83.5889 12.8953 83.4442 13.404 83.1549 13.824C82.8656 14.244 82.4502 14.5707 81.9089 14.804C81.3676 15.028 80.7236 15.14 79.9769 15.14C79.6129 15.14 79.2629 15.1167 78.9269 15.07C78.5909 15.0327 78.2782 14.9767 77.9889 14.902C77.6996 14.8273 77.4429 14.734 77.2189 14.622V13.194C77.5922 13.362 78.0309 13.516 78.5349 13.656C79.0389 13.7867 79.5522 13.852 80.0749 13.852C80.5229 13.852 80.8962 13.7913 81.1949 13.67C81.4936 13.5487 81.7176 13.3807 81.8669 13.166C82.0162 12.9513 82.0909 12.6993 82.0909 12.41C82.0909 12.102 82.0116 11.8453 81.8529 11.64C81.7036 11.4253 81.4656 11.2293 81.1389 11.052C80.8216 10.8653 80.3922 10.6693 79.8509 10.464C79.4776 10.324 79.1369 10.17 78.8289 10.002C78.5302 9.82467 78.2642 9.61933 78.0309 9.386C77.8069 9.15267 77.6342 8.882 77.5129 8.574C77.3916 8.266 77.3309 7.90667 77.3309 7.496C77.3309 6.94533 77.4662 6.474 77.7369 6.082C78.0169 5.69 78.3996 5.39133 78.8849 5.186C79.3702 4.97133 79.9349 4.864 80.5789 4.864C81.1202 4.864 81.6196 4.92 82.0769 5.032C82.5436 5.13467 82.9869 5.27933 83.4069 5.466L82.9309 6.712C82.5482 6.55333 82.1609 6.42267 81.7689 6.32C81.3769 6.21733 80.9662 6.166 80.5369 6.166C80.1636 6.166 79.8509 6.222 79.5989 6.334C79.3469 6.446 79.1556 6.6 79.0249 6.796C78.9036 6.992 78.8429 7.22067 78.8429 7.482C78.8429 7.79 78.9129 8.04667 79.0529 8.252C79.1929 8.45733 79.4169 8.64867 79.7249 8.826C80.0329 8.994 80.4389 9.18067 80.9429 9.386C81.5029 9.60067 81.9789 9.834 82.3709 10.086C82.7722 10.338 83.0756 10.6413 83.2809 10.996C83.4862 11.3413 83.5889 11.7753 83.5889 12.298ZM88.3742 13.936C88.5702 13.936 88.7708 13.9173 88.9762 13.88C89.1815 13.8427 89.3588 13.8007 89.5082 13.754V14.874C89.3495 14.9487 89.1348 15.0093 88.8642 15.056C88.5935 15.112 88.3228 15.14 88.0522 15.14C87.6415 15.14 87.2635 15.07 86.9182 14.93C86.5822 14.79 86.3115 14.5473 86.1062 14.202C85.9008 13.8567 85.7982 13.376 85.7982 12.76V8.588H84.7482V7.916L85.8542 7.356L86.3722 5.76H87.2822V7.454H89.4382V8.588H87.2822V12.732C87.2822 13.1427 87.3802 13.446 87.5762 13.642C87.7815 13.838 88.0475 13.936 88.3742 13.936ZM94.2236 7.314C95.1756 7.314 95.8849 7.524 96.3516 7.944C96.8182 8.35467 97.0516 9.00333 97.0516 9.89V15H96.0016L95.7076 13.95H95.6516C95.4369 14.2207 95.2129 14.4447 94.9796 14.622C94.7556 14.7993 94.4942 14.93 94.1956 15.014C93.9062 15.098 93.5516 15.14 93.1316 15.14C92.6836 15.14 92.2776 15.0607 91.9136 14.902C91.5589 14.734 91.2789 14.482 91.0736 14.146C90.8682 13.8007 90.7656 13.3713 90.7656 12.858C90.7656 12.0927 91.0549 11.5093 91.6336 11.108C92.2216 10.7067 93.1129 10.4873 94.3076 10.45L95.5956 10.408V9.988C95.5956 9.428 95.4696 9.036 95.2176 8.812C94.9656 8.588 94.6109 8.476 94.1536 8.476C93.7616 8.476 93.3882 8.532 93.0336 8.644C92.6789 8.756 92.3429 8.89133 92.0256 9.05L91.5496 7.972C91.9042 7.78533 92.3102 7.63133 92.7676 7.51C93.2342 7.37933 93.7196 7.314 94.2236 7.314ZM94.5736 11.402C93.7149 11.4393 93.1176 11.584 92.7816 11.836C92.4549 12.0787 92.2916 12.424 92.2916 12.872C92.2916 13.264 92.4082 13.5487 92.6416 13.726C92.8842 13.9033 93.1876 13.992 93.5516 13.992C94.1396 13.992 94.6249 13.8287 95.0076 13.502C95.3902 13.1753 95.5816 12.6853 95.5816 12.032V11.374L94.5736 11.402ZM103.341 7.314C103.471 7.314 103.616 7.32333 103.775 7.342C103.933 7.35133 104.064 7.36533 104.167 7.384L104.013 8.77C103.91 8.742 103.789 8.71867 103.649 8.7C103.509 8.68133 103.378 8.672 103.257 8.672C102.977 8.672 102.706 8.728 102.445 8.84C102.193 8.94267 101.964 9.09667 101.759 9.302C101.553 9.498 101.39 9.74067 101.269 10.03C101.157 10.3193 101.101 10.6507 101.101 11.024V15H99.6166V7.454H100.793L100.989 8.798H101.045C101.203 8.52733 101.395 8.28 101.619 8.056C101.843 7.832 102.099 7.65467 102.389 7.524C102.678 7.384 102.995 7.314 103.341 7.314ZM108.56 13.936C108.756 13.936 108.957 13.9173 109.162 13.88C109.367 13.8427 109.545 13.8007 109.694 13.754V14.874C109.535 14.9487 109.321 15.0093 109.05 15.056C108.779 15.112 108.509 15.14 108.238 15.14C107.827 15.14 107.449 15.07 107.104 14.93C106.768 14.79 106.497 14.5473 106.292 14.202C106.087 13.8567 105.984 13.376 105.984 12.76V8.588H104.934V7.916L106.04 7.356L106.558 5.76H107.468V7.454H109.624V8.588H107.468V12.732C107.468 13.1427 107.566 13.446 107.762 13.642C107.967 13.838 108.233 13.936 108.56 13.936ZM114.451 7.314C115.114 7.314 115.683 7.454 116.159 7.734C116.635 8.00467 116.999 8.39667 117.251 8.91C117.513 9.42333 117.643 10.03 117.643 10.73V11.542H112.575C112.594 12.3167 112.795 12.9093 113.177 13.32C113.569 13.7307 114.115 13.936 114.815 13.936C115.301 13.936 115.73 13.894 116.103 13.81C116.486 13.7167 116.878 13.5813 117.279 13.404V14.636C116.906 14.804 116.523 14.93 116.131 15.014C115.749 15.098 115.291 15.14 114.759 15.14C114.031 15.14 113.387 14.9953 112.827 14.706C112.267 14.4167 111.829 13.9873 111.511 13.418C111.203 12.8393 111.049 12.13 111.049 11.29C111.049 10.4407 111.189 9.722 111.469 9.134C111.759 8.546 112.155 8.098 112.659 7.79C113.173 7.47267 113.77 7.314 114.451 7.314ZM114.451 8.462C113.919 8.462 113.49 8.63467 113.163 8.98C112.846 9.32533 112.659 9.81533 112.603 10.45H116.159C116.159 10.058 116.099 9.71267 115.977 9.414C115.856 9.11533 115.669 8.882 115.417 8.714C115.165 8.546 114.843 8.462 114.451 8.462ZM122.365 15.14C121.46 15.14 120.727 14.8133 120.167 14.16C119.616 13.5067 119.341 12.536 119.341 11.248C119.341 9.95067 119.621 8.97067 120.181 8.308C120.741 7.64533 121.478 7.314 122.393 7.314C122.776 7.314 123.107 7.36533 123.387 7.468C123.676 7.56133 123.924 7.692 124.129 7.86C124.344 8.028 124.526 8.21467 124.675 8.42H124.759C124.74 8.28933 124.717 8.10267 124.689 7.86C124.661 7.608 124.647 7.384 124.647 7.188V4.36H126.131V15H124.969L124.717 13.992H124.647C124.507 14.2067 124.33 14.4027 124.115 14.58C123.91 14.748 123.662 14.8833 123.373 14.986C123.084 15.0887 122.748 15.14 122.365 15.14ZM122.715 13.922C123.443 13.922 123.956 13.7213 124.255 13.32C124.554 12.9093 124.703 12.298 124.703 11.486V11.262C124.703 10.3753 124.558 9.69867 124.269 9.232C123.989 8.76533 123.466 8.532 122.701 8.532C122.094 8.532 121.637 8.77933 121.329 9.274C121.021 9.75933 120.867 10.4267 120.867 11.276C120.867 12.1253 121.021 12.7787 121.329 13.236C121.637 13.6933 122.099 13.922 122.715 13.922Z" fill="#6D7CFF"/>
</svg>
