<svg width="160" height="53" viewBox="0 0 160 53" fill="none" xmlns="http://www.w3.org/2000/svg">
<g clip-path="url(#clip0_998_1245)">
<rect y="0.573425" width="160" height="52" rx="8" fill="#08081A"/>
<path d="M31.17 21.8718H31.899L33.977 19.7938L34.0789 18.9113C30.2114 15.4973 24.309 15.8661 20.895 19.7336C19.9464 20.807 19.259 22.0856 18.8831 23.469C19.1141 23.3743 19.371 23.3585 19.6121 23.426L23.768 22.74C23.768 22.74 23.9789 22.3899 24.0894 22.4114C25.9378 20.3808 29.049 20.144 31.1844 21.8718H31.17Z" fill="#D85140"/>
<path d="M36.9374 23.4688C36.4595 21.7094 35.4794 20.128 34.1161 18.9197L31.2 21.8357C32.4313 22.8417 33.133 24.3586 33.1029 25.9486V26.4667C34.5365 26.4667 35.6989 27.6291 35.6989 29.0627C35.6989 30.4963 34.5365 31.6587 33.1029 31.6587H27.9109L27.3928 32.1839V35.298L27.9109 35.8161H33.1029C36.8312 35.8448 39.8778 32.8455 39.9065 29.1172C39.9237 26.8527 38.8087 24.7345 36.9374 23.4688Z" fill="#5383EC"/>
<path d="M22.7118 35.7837H27.9038V31.6278H22.7118C22.3415 31.6278 21.977 31.5474 21.6398 31.3939L20.9108 31.6206L18.8185 33.6986L18.6362 34.4276C19.8087 35.3144 21.2409 35.7909 22.7118 35.7837Z" fill="#58A65C"/>
<path d="M22.7119 22.3019C18.9822 22.3234 15.9786 25.3643 16.0001 29.094C16.013 31.1763 16.9846 33.1366 18.6363 34.4052L21.6471 31.3944C20.3412 30.8046 19.76 29.2662 20.3498 27.9603C20.9396 26.6544 22.478 26.0732 23.7839 26.663C24.3593 26.9228 24.82 27.3849 25.0812 27.9603L28.0919 24.9496C26.8118 23.2734 24.82 22.2933 22.7119 22.3019Z" fill="#F1BF42"/>
<path d="M53.73 32.8815C51.9232 32.9044 50.1868 32.1912 48.9182 30.9054C47.608 29.6741 46.8761 27.9492 46.8991 26.151C46.8776 24.3529 47.6094 22.6294 48.9182 21.3967C50.1811 20.098 51.9189 19.3704 53.73 19.3847C55.4549 19.3618 57.1181 20.0319 58.3451 21.2446L57.0478 22.5648C56.1595 21.7052 54.9655 21.2345 53.73 21.2517C52.4341 21.236 51.1899 21.7655 50.303 22.7098C49.3817 23.6239 48.8737 24.8753 48.8952 26.1726C48.8838 27.4555 49.3918 28.6882 50.303 29.5923C52.1801 31.4636 55.2066 31.4995 57.1282 29.6727C57.7008 29.047 58.0509 28.2491 58.127 27.4053H53.7515V25.5397H59.9423C60.0026 25.9157 60.027 26.296 60.0155 26.6777C60.093 28.2692 59.5161 29.8234 58.4183 30.98C57.1971 32.2501 55.4922 32.9418 53.73 32.8815ZM68.1236 31.6416C66.3972 33.2962 63.6735 33.2962 61.9471 31.6416C61.1104 30.8308 60.6541 29.7071 60.6857 28.5433C60.6541 27.3795 61.1119 26.2558 61.9471 25.445C63.6749 23.7947 66.3958 23.7947 68.1236 25.445C68.9588 26.2558 69.4166 27.3795 69.385 28.5433C69.4151 29.7086 68.9545 30.8322 68.1164 31.6416H68.1236ZM63.3104 30.4247C64.2016 31.3775 65.6969 31.4263 66.6498 30.5337C66.6871 30.4978 66.7244 30.462 66.7588 30.4247C67.2453 29.9209 67.5079 29.2436 67.4878 28.5433C67.5094 27.8415 67.2468 27.1599 66.7588 26.6547C65.8418 25.699 64.3235 25.666 63.3664 26.583C63.342 26.606 63.3176 26.6304 63.2946 26.6547C62.8067 27.1599 62.5441 27.8415 62.5656 28.5433C62.5469 29.2436 62.8124 29.9224 63.3018 30.4247H63.3104ZM77.6165 31.6416C75.8901 33.2962 73.1664 33.2962 71.44 31.6416C70.6033 30.8308 70.147 29.7071 70.1786 28.5433C70.147 27.3795 70.6048 26.2558 71.44 25.445C73.1664 23.7904 75.8901 23.7904 77.6165 25.445C78.4517 26.2558 78.9095 27.3795 78.8779 28.5433C78.9109 29.7071 78.4531 30.8308 77.6165 31.6416ZM72.8047 30.4247C73.6959 31.3775 75.1912 31.4263 76.1441 30.5337C76.1814 30.4978 76.2187 30.462 76.2532 30.4247C76.7397 29.9209 77.0023 29.2436 76.9822 28.5433C77.0037 27.8415 76.7411 27.1599 76.2532 26.6547C75.3362 25.699 73.8179 25.666 72.8621 26.583C72.8377 26.606 72.8133 26.6304 72.7904 26.6547C72.3025 27.1599 72.0398 27.8415 72.0614 28.5433C72.0427 29.2436 72.3082 29.9224 72.7976 30.4247H72.8047ZM83.8575 36.7748C82.9836 36.8021 82.1269 36.5294 81.4294 36.0013C80.8105 35.5359 80.323 34.9178 80.0145 34.2075L81.6763 33.5143C81.8571 33.9391 82.1398 34.3122 82.5 34.6007C82.8846 34.9107 83.3682 35.0743 83.8633 35.0599C84.4976 35.0986 85.1175 34.859 85.5624 34.4041C86.0015 33.8745 86.2182 33.1943 86.168 32.5084V31.8812H86.102C85.538 32.55 84.6927 32.9145 83.8202 32.8657C82.7138 32.8686 81.6562 32.4093 80.9042 31.5971C80.0891 30.792 79.6385 29.6885 79.6571 28.5419C79.637 27.3895 80.0876 26.2788 80.9042 25.4651C81.6547 24.65 82.7124 24.1864 83.8202 24.1893C84.2837 24.1879 84.743 24.2912 85.162 24.4878C85.5251 24.6457 85.848 24.8824 86.1106 25.1809H86.1766V24.4878H87.9848V32.2529C88.0809 33.4942 87.6619 34.7212 86.8252 35.644C86.0288 36.406 84.9597 36.8135 83.8575 36.7748ZM83.9896 31.1752C84.6196 31.1895 85.2237 30.9212 85.637 30.4462C86.0862 29.931 86.3244 29.2637 86.3 28.5792C86.3273 27.8832 86.0905 27.2044 85.637 26.6763C85.2237 26.1998 84.6196 25.9329 83.9896 25.9473C83.3424 25.9343 82.721 26.1998 82.2833 26.6763C81.8011 27.1857 81.5385 27.8645 81.5543 28.5648C81.5399 29.2594 81.8011 29.931 82.2833 30.4318C82.7181 30.9126 83.3395 31.1838 83.9896 31.1752ZM91.2007 19.8741V32.6189H89.2978V19.8741H91.2007ZM96.4215 32.8815C95.2691 32.9116 94.1569 32.4596 93.3519 31.6344C92.5353 30.8164 92.089 29.6985 92.1192 28.5433C92.0761 27.3852 92.5052 26.2587 93.3074 25.422C94.0651 24.6241 95.1242 24.1821 96.2234 24.2037C96.7243 24.1979 97.2193 24.2955 97.6814 24.4878C98.0976 24.6557 98.4765 24.904 98.7965 25.2168C99.072 25.4823 99.316 25.7779 99.5255 26.0994C99.6948 26.3706 99.8383 26.6562 99.956 26.9518L100.153 27.4483L94.3205 29.8478C94.6822 30.6772 95.5159 31.1996 96.42 31.1608C97.294 31.1637 98.1048 30.7059 98.5568 29.9583L100.015 30.9427C99.6429 31.4756 99.1663 31.9273 98.6142 32.2701C97.9598 32.6834 97.1964 32.8958 96.4215 32.8815ZM93.9862 28.4113L97.8651 26.7997C97.746 26.5155 97.5322 26.2816 97.2595 26.1367C96.9553 25.9645 96.6109 25.8769 96.2607 25.8812C95.6681 25.897 95.1041 26.1453 94.6937 26.5744C94.1957 27.0508 93.9359 27.7239 93.9862 28.4113Z" fill="#CBCBD7"/>
<path d="M110.122 32.8813C106.804 32.9387 104.068 30.2954 104.011 26.9775C104.01 26.8971 104.01 26.8153 104.013 26.735C103.935 23.4171 106.563 20.6661 109.879 20.5886C109.959 20.5872 110.041 20.5872 110.122 20.5872C111.78 20.5355 113.373 21.2444 114.445 22.5116L113.395 23.5319C112.607 22.5403 111.393 21.9849 110.129 22.0366C108.916 22.0093 107.744 22.4786 106.884 23.3339C105.99 24.2337 105.512 25.4649 105.564 26.7321C105.511 27.9993 105.99 29.2305 106.884 30.1303C107.744 30.9871 108.916 31.4549 110.129 31.4276C111.541 31.4434 112.883 30.8149 113.774 29.7213L114.824 30.7718C114.275 31.4291 113.584 31.9543 112.805 32.3102C111.964 32.7005 111.047 32.8957 110.122 32.8813Z" fill="#CBCBD7"/>
<path d="M117.646 32.6191H116.136V20.843H117.646V32.6191Z" fill="#CBCBD7"/>
<path d="M120.111 25.531C121.757 23.8964 124.415 23.8964 126.061 25.531C126.841 26.3561 127.262 27.4582 127.228 28.5934C127.262 29.7285 126.841 30.8306 126.061 31.6558C124.415 33.2903 121.757 33.2903 120.111 31.6558C119.33 30.8306 118.91 29.7285 118.944 28.5934C118.91 27.4582 119.329 26.3561 120.111 25.531ZM121.233 30.7087C122.199 31.729 123.809 31.7735 124.831 30.8077C124.865 30.7761 124.898 30.7417 124.93 30.7087C125.462 30.1375 125.744 29.3755 125.711 28.5948C125.745 27.8141 125.464 27.0521 124.93 26.481C123.964 25.4606 122.354 25.4161 121.332 26.3819C121.298 26.4135 121.265 26.448 121.233 26.481C120.701 27.0521 120.42 27.8141 120.453 28.5948C120.422 29.374 120.707 30.1332 121.24 30.7015L121.233 30.7087Z" fill="#CBCBD7"/>
<path d="M135.59 32.619H134.132V31.504H134.088C133.829 31.9273 133.461 32.2746 133.024 32.51C132.57 32.7726 132.054 32.9118 131.528 32.9103C130.664 32.9692 129.822 32.6305 129.239 31.9919C128.687 31.293 128.41 30.4162 128.459 29.5279V24.5698H129.968V29.2509C129.968 30.7534 130.631 31.504 131.959 31.504C132.557 31.5226 133.127 31.2514 133.49 30.775C133.882 30.2799 134.09 29.6642 134.081 29.0328V24.5698H135.591V32.619H135.59Z" fill="#CBCBD7"/>
<path d="M140.716 32.8817C139.679 32.8846 138.694 32.4354 138.018 31.649C137.261 30.8138 136.857 29.7203 136.887 28.5938C136.857 27.4673 137.261 26.3737 138.018 25.5385C138.694 24.7536 139.679 24.3029 140.716 24.3058C141.29 24.2972 141.856 24.4321 142.363 24.699C142.809 24.9229 143.187 25.263 143.457 25.6835H143.523L143.457 24.5684V20.843H144.966V32.6191H143.508V31.5041H143.442C143.172 31.9246 142.795 32.2647 142.349 32.4885C141.846 32.7526 141.285 32.8889 140.716 32.8817ZM140.964 31.5041C141.654 31.5141 142.316 31.2271 142.779 30.7162C143.291 30.1322 143.554 29.3702 143.508 28.5938C143.554 27.8188 143.291 27.0554 142.779 26.4713C141.864 25.4639 140.305 25.3907 139.298 26.3077C139.24 26.3594 139.186 26.4154 139.134 26.4713C138.62 27.0511 138.358 27.8117 138.405 28.5852C138.358 29.3587 138.62 30.1193 139.134 30.699C139.599 31.2214 140.266 31.5141 140.964 31.5041Z" fill="#CBCBD7"/>
</g>
<rect x="0.5" y="1.07343" width="159" height="51" rx="7.5" stroke="#CBCBD7"/>
<defs>
<clipPath id="clip0_998_1245">
<rect y="0.573425" width="160" height="52" rx="8" fill="white"/>
</clipPath>
</defs>
</svg>
