<svg width="160" height="53" viewBox="0 0 160 53" fill="none" xmlns="http://www.w3.org/2000/svg">
<g clip-path="url(#clip0_989_892)">
<path d="M31.1698 21.8718H31.8988L33.9767 19.7938L34.0786 18.9113C30.2112 15.4973 24.3088 15.8661 20.8948 19.7336C19.9462 20.807 19.2588 22.0856 18.8828 23.469C19.1139 23.3743 19.3707 23.3585 19.6118 23.426L23.7677 22.74C23.7677 22.74 23.9787 22.3899 24.0892 22.4114C25.9376 20.3808 29.0488 20.144 31.1841 21.8718H31.1698Z" fill="#D85140"/>
<path d="M36.9371 23.4688C36.4593 21.7094 35.4791 20.128 34.1158 18.9197L31.1998 21.8357C32.4311 22.8417 33.1328 24.3586 33.1027 25.9486V26.4667C34.5363 26.4667 35.6987 27.6291 35.6987 29.0627C35.6987 30.4963 34.5363 31.6587 33.1027 31.6587H27.9106L27.3926 32.1839V35.298L27.9106 35.8161H33.1027C36.8309 35.8448 39.8776 32.8455 39.9063 29.1172C39.9235 26.8527 38.8085 24.7345 36.9371 23.4688Z" fill="#5383EC"/>
<path d="M22.7118 35.7837H27.9038V31.6277H22.7118C22.3415 31.6277 21.977 31.5474 21.6398 31.3938L20.9108 31.6205L18.8185 33.6985L18.6362 34.4275C19.8087 35.3144 21.2409 35.7908 22.7118 35.7837Z" fill="#58A65C"/>
<path d="M22.7119 22.3019C18.9822 22.3234 15.9786 25.3643 16.0001 29.094C16.013 31.1763 16.9846 33.1366 18.6363 34.4052L21.6471 31.3944C20.3412 30.8046 19.76 29.2662 20.3498 27.9603C20.9396 26.6544 22.478 26.0732 23.7839 26.663C24.3593 26.9228 24.82 27.3849 25.0812 27.9603L28.0919 24.9496C26.8118 23.2734 24.82 22.2933 22.7119 22.3019Z" fill="#F1BF42"/>
<path d="M53.7298 32.8815C51.9231 32.9044 50.1867 32.1912 48.9181 30.9054C47.6079 29.6741 46.876 27.9492 46.899 26.151C46.8774 24.3529 47.6093 22.6294 48.9181 21.3967C50.1809 20.098 51.9188 19.3704 53.7298 19.3847C55.4548 19.3618 57.118 20.0319 58.345 21.2446L57.0477 22.5648C56.1594 21.7052 54.9654 21.2345 53.7298 21.2517C52.434 21.236 51.1898 21.7655 50.3029 22.7098C49.3816 23.6239 48.8736 24.8753 48.8951 26.1726C48.8836 27.4555 49.3917 28.6882 50.3029 29.5923C52.18 31.4636 55.2065 31.4995 57.128 29.6727C57.7006 29.047 58.0508 28.2491 58.1268 27.4053H53.7514V25.5397H59.9422C60.0025 25.9157 60.0269 26.296 60.0154 26.6777C60.0929 28.2692 59.516 29.8234 58.4182 30.98C57.1969 32.2501 55.4921 32.9418 53.7298 32.8815ZM68.1235 31.6416C66.3971 33.2962 63.6733 33.2962 61.947 31.6416C61.1103 30.8308 60.654 29.7071 60.6856 28.5433C60.654 27.3795 61.1118 26.2558 61.947 25.445C63.6748 23.7947 66.3956 23.7947 68.1235 25.445C68.9587 26.2558 69.4164 27.3795 69.3849 28.5433C69.415 29.7086 68.9543 30.8322 68.1163 31.6416H68.1235ZM63.3103 30.4247C64.2014 31.3775 65.6968 31.4263 66.6496 30.5337C66.687 30.4978 66.7243 30.462 66.7587 30.4247C67.2452 29.9209 67.5078 29.2436 67.4877 28.5433C67.5092 27.8415 67.2466 27.1599 66.7587 26.6547C65.8417 25.699 64.3234 25.666 63.3662 26.583C63.3418 26.606 63.3174 26.6304 63.2945 26.6547C62.8066 27.1599 62.544 27.8415 62.5655 28.5433C62.5468 29.2436 62.8123 29.9224 63.3017 30.4247H63.3103ZM77.6164 31.6416C75.89 33.2962 73.1662 33.2962 71.4399 31.6416C70.6032 30.8308 70.1469 29.7071 70.1785 28.5433C70.1469 27.3795 70.6047 26.2558 71.4399 25.445C73.1662 23.7904 75.89 23.7904 77.6164 25.445C78.4516 26.2558 78.9093 27.3795 78.8778 28.5433C78.9108 29.7071 78.453 30.8308 77.6164 31.6416ZM72.8046 30.4247C73.6958 31.3775 75.1911 31.4263 76.144 30.5337C76.1813 30.4978 76.2186 30.462 76.253 30.4247C76.7395 29.9209 77.0021 29.2436 76.9821 28.5433C77.0036 27.8415 76.741 27.1599 76.253 26.6547C75.336 25.699 73.8178 25.666 72.862 26.583C72.8376 26.606 72.8132 26.6304 72.7903 26.6547C72.3023 27.1599 72.0397 27.8415 72.0612 28.5433C72.0426 29.2436 72.3081 29.9224 72.7974 30.4247H72.8046ZM83.8574 36.7748C82.9835 36.8021 82.1267 36.5294 81.4293 36.0013C80.8104 35.5359 80.3228 34.9178 80.0143 34.2075L81.6761 33.5143C81.8569 33.9391 82.1396 34.3122 82.4998 34.6007C82.8844 34.9107 83.3681 35.0743 83.8632 35.0599C84.4974 35.0986 85.1174 34.859 85.5623 34.4041C86.0014 33.8745 86.2181 33.1943 86.1679 32.5084V31.8812H86.1018C85.5379 32.55 84.6926 32.9145 83.8201 32.8657C82.7137 32.8686 81.656 32.4093 80.9041 31.5971C80.089 30.792 79.6383 29.6885 79.657 28.5419C79.6369 27.3895 80.0875 26.2788 80.9041 25.4651C81.6546 24.65 82.7122 24.1864 83.8201 24.1893C84.2836 24.1879 84.7428 24.2912 85.1619 24.4878C85.5249 24.6457 85.8478 24.8824 86.1105 25.1809H86.1765V24.4878H87.9846V32.2529C88.0808 33.4942 87.6617 34.7212 86.8251 35.644C86.0287 36.406 84.9595 36.8135 83.8574 36.7748ZM83.9894 31.1752C84.6194 31.1895 85.2236 30.9212 85.6369 30.4462C86.0861 29.931 86.3243 29.2637 86.2999 28.5792C86.3271 27.8832 86.0904 27.2044 85.6369 26.6763C85.2236 26.1998 84.6194 25.9329 83.9894 25.9473C83.3422 25.9343 82.7208 26.1998 82.2832 26.6763C81.801 27.1857 81.5384 27.8645 81.5541 28.5648C81.5398 29.2594 81.801 29.931 82.2832 30.4318C82.718 30.9126 83.3394 31.1838 83.9894 31.1752ZM91.2006 19.8741V32.6189H89.2977V19.8741H91.2006ZM96.4213 32.8815C95.269 32.9116 94.1568 32.4596 93.3518 31.6344C92.5352 30.8164 92.0889 29.6985 92.119 28.5433C92.076 27.3852 92.5051 26.2587 93.3073 25.422C94.065 24.6241 95.124 24.1821 96.2233 24.2037C96.7241 24.1979 97.2192 24.2955 97.6813 24.4878C98.0975 24.6557 98.4763 24.904 98.7964 25.2168C99.0719 25.4823 99.3158 25.7779 99.5254 26.0994C99.6947 26.3706 99.8382 26.6562 99.9559 26.9518L100.152 27.4483L94.3204 29.8478C94.682 30.6772 95.5158 31.1996 96.4199 31.1608C97.2938 31.1637 98.1047 30.7059 98.5567 29.9583L100.015 30.9427C99.6427 31.4756 99.1662 31.9273 98.6141 32.2701C97.9597 32.6834 97.1963 32.8958 96.4213 32.8815ZM93.986 28.4113L97.865 26.7997C97.7459 26.5155 97.5321 26.2816 97.2594 26.1367C96.9552 25.9645 96.6108 25.8769 96.2606 25.8812C95.6679 25.897 95.104 26.1453 94.6935 26.5744C94.1956 27.0508 93.9358 27.7239 93.986 28.4113Z" fill="#CBCBD7"/>
<path d="M110.122 32.8813C106.804 32.9387 104.069 30.2954 104.011 26.9775C104.01 26.8971 104.01 26.8153 104.013 26.735C103.935 23.4171 106.563 20.6661 109.879 20.5886C109.96 20.5872 110.041 20.5872 110.122 20.5872C111.781 20.5355 113.374 21.2444 114.445 22.5116L113.395 23.5319C112.607 22.5403 111.393 21.9849 110.129 22.0366C108.916 22.0093 107.744 22.4786 106.884 23.3339C105.99 24.2337 105.512 25.4649 105.564 26.7321C105.511 27.9993 105.99 29.2305 106.884 30.1303C107.744 30.9871 108.916 31.4549 110.129 31.4276C111.541 31.4434 112.883 30.8149 113.774 29.7213L114.824 30.7718C114.275 31.4291 113.584 31.9543 112.805 32.3102C111.964 32.7005 111.047 32.8957 110.122 32.8813Z" fill="#CBCBD7"/>
<path d="M117.645 32.6191H116.136V20.843H117.645V32.6191Z" fill="#CBCBD7"/>
<path d="M120.111 25.531C121.757 23.8964 124.415 23.8964 126.061 25.531C126.841 26.3561 127.262 27.4582 127.228 28.5934C127.262 29.7285 126.841 30.8306 126.061 31.6558C124.415 33.2903 121.757 33.2903 120.111 31.6558C119.33 30.8306 118.91 29.7285 118.944 28.5934C118.91 27.4582 119.329 26.3561 120.111 25.531ZM121.233 30.7087C122.199 31.729 123.809 31.7735 124.831 30.8077C124.865 30.7761 124.898 30.7417 124.93 30.7087C125.462 30.1375 125.744 29.3755 125.711 28.5948C125.745 27.8141 125.464 27.0521 124.93 26.481C123.964 25.4606 122.354 25.4161 121.332 26.3819C121.298 26.4135 121.265 26.448 121.233 26.481C120.701 27.0521 120.42 27.8141 120.453 28.5948C120.422 29.374 120.707 30.1332 121.24 30.7015L121.233 30.7087Z" fill="#CBCBD7"/>
<path d="M135.59 32.619H134.132V31.504H134.089C133.829 31.9273 133.462 32.2746 133.024 32.51C132.571 32.7726 132.054 32.9118 131.529 32.9103C130.665 32.9692 129.822 32.6305 129.24 31.9919C128.687 31.293 128.41 30.4162 128.459 29.5279V24.5698H129.969V29.2509C129.969 30.7534 130.632 31.504 131.959 31.504C132.558 31.5226 133.127 31.2514 133.49 30.775C133.882 30.2799 134.09 29.6642 134.082 29.0328V24.5698H135.591V32.619H135.59Z" fill="#CBCBD7"/>
<path d="M140.716 32.8817C139.679 32.8846 138.694 32.4354 138.018 31.649C137.261 30.8138 136.857 29.7203 136.887 28.5938C136.857 27.4673 137.261 26.3737 138.018 25.5385C138.694 24.7536 139.679 24.3029 140.716 24.3058C141.29 24.2972 141.856 24.4321 142.363 24.699C142.809 24.9229 143.187 25.263 143.457 25.6835H143.523L143.457 24.5684V20.843H144.966V32.6191H143.508V31.5041H143.442C143.172 31.9246 142.795 32.2647 142.349 32.4885C141.846 32.7526 141.285 32.8889 140.716 32.8817ZM140.964 31.5041C141.654 31.5141 142.316 31.2271 142.779 30.7162C143.291 30.1322 143.554 29.3702 143.508 28.5938C143.554 27.8188 143.291 27.0554 142.779 26.4713C141.864 25.4639 140.305 25.3907 139.298 26.3077C139.24 26.3594 139.186 26.4154 139.134 26.4713C138.62 27.0511 138.358 27.8117 138.405 28.5852C138.358 29.3587 138.62 30.1193 139.134 30.699C139.599 31.2214 140.266 31.5141 140.964 31.5041Z" fill="#CBCBD7"/>
</g>
<rect x="0.5" y="1.07343" width="159" height="51" rx="7.5" stroke="#CBCBD7"/>
<defs>
<clipPath id="clip0_989_892">
<rect y="0.573425" width="160" height="52" rx="8" fill="white"/>
</clipPath>
</defs>
</svg>

