<svg width="64" height="65" viewBox="0 0 64 65" fill="none" xmlns="http://www.w3.org/2000/svg">
<circle cx="32" cy="32.5734" r="32" fill="#B1B9FF"/>
<path d="M42.625 38.9484C41.8746 38.9521 41.1396 39.1616 40.5 39.5541L37.2169 36.2603C37.9808 35.1827 38.3911 33.8944 38.3911 32.5734C38.3911 31.2525 37.9808 29.9642 37.2169 28.8866L40.5 25.5928C41.1396 25.9853 41.8746 26.1948 42.625 26.1984C43.4656 26.1984 44.2873 25.9492 44.9862 25.4822C45.6851 25.0152 46.2298 24.3514 46.5515 23.5748C46.8732 22.7982 46.9573 21.9437 46.7933 21.1193C46.6293 20.2949 46.2246 19.5376 45.6302 18.9432C45.0358 18.3489 44.2786 17.9441 43.4541 17.7801C42.6297 17.6161 41.7752 17.7003 40.9986 18.0219C40.222 18.3436 39.5582 18.8883 39.0913 19.5873C38.6243 20.2862 38.375 21.1079 38.375 21.9484C38.3787 22.6988 38.5881 23.4338 38.9806 24.0734L35.6869 27.3566C34.6093 26.5926 33.3209 26.1823 32 26.1823C30.6791 26.1823 29.3907 26.5926 28.3131 27.3566L25.0194 24.0734C25.4119 23.4338 25.6213 22.6988 25.625 21.9484C25.625 21.1079 25.3757 20.2862 24.9087 19.5873C24.4417 18.8883 23.778 18.3436 23.0014 18.0219C22.2248 17.7003 21.3703 17.6161 20.5459 17.7801C19.7214 17.9441 18.9642 18.3489 18.3698 18.9432C17.7754 19.5376 17.3706 20.2949 17.2067 21.1193C17.0427 21.9437 17.1268 22.7982 17.4485 23.5748C17.7702 24.3514 18.3149 25.0152 19.0138 25.4822C19.7127 25.9492 20.5344 26.1984 21.375 26.1984C22.1254 26.1948 22.8604 25.9853 23.5 25.5928L26.7831 28.8866C26.0192 29.9642 25.6089 31.2525 25.6089 32.5734C25.6089 33.8944 26.0192 35.1827 26.7831 36.2603L23.5 39.5541C22.8604 39.1616 22.1254 38.9521 21.375 38.9484C20.5344 38.9484 19.7127 39.1977 19.0138 39.6647C18.3149 40.1317 17.7702 40.7954 17.4485 41.572C17.1268 42.3486 17.0427 43.2031 17.2067 44.0276C17.3706 44.852 17.7754 45.6093 18.3698 46.2036C18.9642 46.798 19.7214 47.2028 20.5459 47.3668C21.3703 47.5308 22.2248 47.4466 23.0014 47.1249C23.778 46.8032 24.4417 46.2585 24.9087 45.5596C25.3757 44.8607 25.625 44.039 25.625 43.1984C25.6213 42.448 25.4119 41.713 25.0194 41.0734L28.3131 37.7903C29.3907 38.5542 30.6791 38.9646 32 38.9646C33.3209 38.9646 34.6093 38.5542 35.6869 37.7903L38.9806 41.0734C38.5881 41.713 38.3787 42.448 38.375 43.1984C38.375 44.039 38.6243 44.8607 39.0913 45.5596C39.5582 46.2585 40.222 46.8032 40.9986 47.1249C41.7752 47.4466 42.6297 47.5308 43.4541 47.3668C44.2786 47.2028 45.0358 46.798 45.6302 46.2036C46.2246 45.6093 46.6293 44.852 46.7933 44.0276C46.9573 43.2031 46.8732 42.3486 46.5515 41.572C46.2298 40.7954 45.6851 40.1317 44.9862 39.6647C44.2873 39.1977 43.4656 38.9484 42.625 38.9484ZM42.625 19.8234C43.0453 19.8234 43.4561 19.9481 43.8056 20.1816C44.155 20.4151 44.4274 20.7469 44.5882 21.1352C44.7491 21.5235 44.7912 21.9508 44.7092 22.363C44.6272 22.7752 44.4248 23.1538 44.1276 23.451C43.8304 23.7482 43.4518 23.9506 43.0396 24.0326C42.6274 24.1146 42.2001 24.0725 41.8118 23.9117C41.4235 23.7508 41.0916 23.4785 40.8581 23.129C40.6246 22.7796 40.5 22.3687 40.5 21.9484C40.5 21.3848 40.7239 20.8443 41.1224 20.4458C41.5209 20.0473 42.0614 19.8234 42.625 19.8234ZM19.25 21.9484C19.25 21.5281 19.3746 21.1173 19.6081 20.7678C19.8416 20.4184 20.1735 20.146 20.5618 19.9852C20.9501 19.8243 21.3774 19.7823 21.7896 19.8643C22.2018 19.9463 22.5804 20.1486 22.8776 20.4458C23.1748 20.743 23.3772 21.1217 23.4592 21.5339C23.5412 21.9461 23.4991 22.3733 23.3382 22.7616C23.1774 23.1499 22.905 23.4818 22.5556 23.7153C22.2061 23.9488 21.7953 24.0734 21.375 24.0734C20.8114 24.0734 20.2709 23.8495 19.8724 23.451C19.4739 23.0525 19.25 22.512 19.25 21.9484ZM21.375 45.3234C20.9547 45.3234 20.5439 45.1988 20.1944 44.9653C19.845 44.7318 19.5726 44.3999 19.4118 44.0116C19.2509 43.6233 19.2088 43.1961 19.2908 42.7839C19.3728 42.3717 19.5752 41.993 19.8724 41.6958C20.1696 41.3986 20.5482 41.1963 20.9604 41.1143C21.3726 41.0323 21.7999 41.0743 22.1882 41.2352C22.5765 41.396 22.9084 41.6684 23.1419 42.0178C23.3754 42.3673 23.5 42.7781 23.5 43.1984C23.5 43.762 23.2761 44.3025 22.8776 44.701C22.4791 45.0995 21.9386 45.3234 21.375 45.3234ZM32 36.8234C31.1594 36.8234 30.3377 36.5742 29.6388 36.1072C28.9399 35.6402 28.3952 34.9764 28.0735 34.1998C27.7518 33.4232 27.6677 32.5687 27.8317 31.7443C27.9956 30.9199 28.4004 30.1626 28.9948 29.5682C29.5892 28.9739 30.3464 28.5691 31.1709 28.4051C31.9953 28.2411 32.8498 28.3253 33.6264 28.6469C34.403 28.9686 35.0667 29.5133 35.5337 30.2123C36.0007 30.9112 36.25 31.7329 36.25 32.5734C36.25 33.7006 35.8022 34.7816 35.0052 35.5786C34.2082 36.3757 33.1272 36.8234 32 36.8234ZM42.625 45.3234C42.2047 45.3234 41.7939 45.1988 41.4444 44.9653C41.095 44.7318 40.8226 44.3999 40.6618 44.0116C40.5009 43.6233 40.4588 43.1961 40.5408 42.7839C40.6228 42.3717 40.8252 41.993 41.1224 41.6958C41.4196 41.3986 41.7982 41.1963 42.2104 41.1143C42.6226 41.0323 43.0499 41.0743 43.4382 41.2352C43.8265 41.396 44.1584 41.6684 44.3919 42.0178C44.6254 42.3673 44.75 42.7781 44.75 43.1984C44.75 43.762 44.5261 44.3025 44.1276 44.701C43.7291 45.0995 43.1886 45.3234 42.625 45.3234Z" fill="#5552FF"/>
</svg>
