<svg width="75" height="65" viewBox="0 0 75 65" fill="none" xmlns="http://www.w3.org/2000/svg">
<circle cx="32.4522" cy="32.5736" r="32" fill="#5452F6"/>
<rect x="13.4839" y="11.5736" width="61.0638" height="41.083" rx="2" fill="#5552FF"/>
<path d="M13.4839 16.8182H74.5478V50.6566C74.5478 51.7612 73.6524 52.6566 72.5478 52.6566H15.4839C14.3794 52.6566 13.4839 51.7612 13.4839 50.6566V16.8182Z" fill="#0F0F32"/>
<ellipse cx="16.9735" cy="14.1959" rx="0.872341" ry="0.874107" fill="#D9D9D9"/>
<ellipse cx="20.4626" cy="14.1959" rx="0.872341" ry="0.874107" fill="#AEB6FF"/>
<ellipse cx="23.9522" cy="14.1959" rx="0.872341" ry="0.874107" fill="#DAC3FF"/>
<path d="M28.9839 24.012L31.7291 26.8544L28.9839 29.6969L30.3565 31.113L34.4839 26.8544L30.3565 22.5958L28.9839 24.012Z" fill="#6D7CFF"/>
<path d="M23.4839 32.0338L27.9839 22.5338" stroke="#6D7CFF" stroke-linejoin="round"/>
<path d="M22.4839 24.012L19.7388 26.8544L22.4839 29.6969L21.1114 31.113L16.9839 26.8544L21.1114 22.5958L22.4839 24.012Z" fill="#6D7CFF"/>
</svg>
