<svg width="160" height="53" viewBox="0 0 160 53" fill="none" xmlns="http://www.w3.org/2000/svg">
<rect x="0.5" y="1.07349" width="159" height="51" rx="7.5" stroke="#CBCBD7"/>
<g clip-path="url(#clip0_989_929)">
<path d="M61.017 27.5219C61.2118 27.298 61.4065 27.0741 61.6256 26.8502C61.8291 26.6187 62.032 26.3865 62.2341 26.1537C62.4289 25.9047 62.6236 25.6808 62.7942 25.4815C62.9648 25.2822 63.1349 25.0837 63.2565 24.9345H65.6178C65.1553 25.4817 64.6927 26.0292 64.2304 26.5266C63.7922 27.0243 63.3053 27.5468 62.7698 28.0941C63.0634 28.3751 63.3398 28.6742 63.5975 28.9898C63.8894 29.338 64.1573 29.6862 64.4251 30.0344C64.6906 30.3835 64.9344 30.7492 65.1553 31.1293C65.3744 31.5025 65.5693 31.8258 65.7153 32.1244H63.4271C63.2809 31.8753 63.1105 31.6268 62.9402 31.353C62.7621 31.0515 62.567 30.7608 62.3558 30.4825C62.1579 30.184 61.9383 29.9013 61.6987 29.6366C61.5047 29.3884 61.2843 29.1631 61.0414 28.9649V32.0995H59.0454V21.8248L61.0414 21.5012V27.5219" fill="white"/>
<path d="M72.6527 31.8756C72.2215 31.9985 71.7823 32.09 71.3384 32.1494C70.7832 32.242 70.221 32.2836 69.6585 32.2737C69.1444 32.2928 68.6316 32.2083 68.1494 32.0251C67.7865 31.8849 67.4655 31.6507 67.2179 31.3453C66.9704 31.04 66.8049 30.6741 66.7376 30.2835C66.6382 29.843 66.5892 29.3921 66.5914 28.94V24.9346H68.5876V28.6912C68.5876 29.338 68.6607 29.8108 68.8311 30.1094C69.0014 30.4081 69.3178 30.5573 69.7804 30.5573C69.9349 30.5607 70.0895 30.5524 70.2429 30.5324C70.4133 30.5075 70.5351 30.5075 70.6811 30.4825V24.9346H72.6771L72.6527 31.8756Z" fill="white"/>
<path d="M79.0553 28.4672C79.0553 27.1488 78.5927 26.502 77.6432 26.502C77.4382 26.5022 77.234 26.5272 77.0347 26.5764C76.864 26.6187 76.7001 26.6857 76.548 26.7755V30.4825C76.6452 30.5074 76.7671 30.5074 76.9131 30.5323C77.0591 30.5323 77.2294 30.5572 77.4 30.5572C77.6364 30.5681 77.8719 30.5219 78.0876 30.4225C78.3033 30.3231 78.493 30.1731 78.6415 29.9848C78.9326 29.5362 79.0775 29.005 79.0553 28.4672ZM81.0757 28.517C81.0859 29.0501 81.0035 29.5808 80.8322 30.0845C80.6857 30.5307 80.4447 30.9384 80.1264 31.2785C79.7947 31.6055 79.4068 31.867 78.9822 32.0499C78.4814 32.2268 77.9538 32.311 77.4241 32.2985C77.1809 32.2985 76.9374 32.2736 76.6696 32.249C76.4018 32.2243 76.1585 32.1991 75.8907 32.174C75.6472 32.1493 75.4038 32.0995 75.1603 32.0497C74.9521 32.0132 74.7482 31.9548 74.5518 31.8756V21.8245L76.548 21.5012V25.0837C76.7746 24.9831 77.0113 24.908 77.2538 24.8598C77.5105 24.8092 77.7715 24.7842 78.0329 24.7853C78.4854 24.7768 78.9341 24.8701 79.3473 25.0586C79.7245 25.2264 80.058 25.4821 80.3212 25.8053C80.6011 26.1534 80.8008 26.5616 80.9053 26.9994C81.0156 27.4975 81.0727 28.0063 81.0757 28.517Z" fill="white"/>
<path d="M82.2687 28.5917C82.2556 28.0217 82.3549 27.4548 82.5607 26.9249C82.7367 26.4818 82.9927 26.0765 83.3155 25.7303C83.6139 25.4096 83.9802 25.1629 84.3864 25.0092C84.7878 24.8408 85.2182 24.7561 85.6522 24.7602C86.0887 24.7397 86.5244 24.8134 86.9313 24.9763C87.3381 25.1391 87.7068 25.3877 88.0135 25.7057C88.5977 26.3276 88.8897 27.2485 88.8897 28.4423C88.8931 28.5755 88.885 28.7088 88.8655 28.8406C88.8655 28.9649 88.8412 29.0892 88.8412 29.2137H84.313C84.3328 29.4133 84.3955 29.6059 84.4965 29.7779C84.5975 29.9499 84.7344 30.097 84.8974 30.2088C85.3028 30.475 85.7792 30.6054 86.2605 30.5819C86.62 30.587 86.979 30.5537 87.3316 30.4825C87.6314 30.4309 87.9252 30.3474 88.208 30.2334L88.4756 31.9005C88.3784 31.9503 88.2324 32.0001 88.0377 32.0746C87.8407 32.1423 87.6361 32.1841 87.4289 32.1991C87.196 32.2478 86.9602 32.2809 86.7231 32.2983C86.4796 32.3234 86.212 32.3483 85.9683 32.3483C85.4027 32.3617 84.8401 32.2602 84.313 32.0499C83.878 31.8733 83.4811 31.6112 83.1447 31.2785C82.844 30.9294 82.6126 30.5238 82.4632 30.0845C82.3355 29.5976 82.27 29.0958 82.2683 28.5917M86.9665 27.7957C86.96 27.6256 86.9271 27.4576 86.8691 27.298C86.8209 27.1373 86.7468 26.986 86.65 26.8502C86.5345 26.7015 86.3858 26.5832 86.2164 26.5053C86.047 26.4274 85.8618 26.3921 85.6763 26.4023C85.4753 26.4025 85.2764 26.4448 85.0919 26.5266C84.9394 26.5907 84.8054 26.6935 84.7027 26.8253C84.5933 26.9566 84.5105 27.1088 84.459 27.2731C84.4071 27.4359 84.3664 27.6022 84.3374 27.7708H86.9665" fill="white"/>
<path d="M94.659 26.7259C94.452 26.6654 94.2402 26.6237 94.0261 26.6013C93.7695 26.5506 93.5086 26.5255 93.2472 26.5264C93.0922 26.5345 92.9378 26.5512 92.7846 26.5764C92.6536 26.5945 92.5236 26.6194 92.3952 26.6512V32.1491H90.3989V25.3076C90.8133 25.1644 91.236 25.0481 91.6648 24.9594C92.1996 24.8348 92.7472 24.7764 93.2957 24.7853C93.426 24.7826 93.5562 24.7908 93.6851 24.81C93.8403 24.8155 93.9948 24.8322 94.1477 24.8598C94.2939 24.8847 94.4399 24.9096 94.6103 24.9345C94.7563 24.9594 94.9025 25.0092 94.9997 25.0337L94.659 26.7259Z" fill="white"/>
<path d="M96.0708 25.1833C97.048 24.9198 98.0544 24.786 99.065 24.7853C99.5714 24.7637 100.077 24.8483 100.55 25.0339C100.922 25.162 101.251 25.3949 101.499 25.7056C101.728 26.017 101.894 26.3722 101.986 26.7503C102.088 27.1904 102.137 27.6417 102.132 28.094V32.1493H100.136V28.3429C100.136 27.696 100.063 27.2233 99.8927 26.9495C99.7223 26.6758 99.4058 26.5515 98.9432 26.5515C98.7886 26.548 98.634 26.5563 98.4806 26.5764C98.3335 26.5793 98.1869 26.596 98.0427 26.6262V32.1742H96.0708V25.1833Z" fill="white"/>
<path d="M103.617 28.5917C103.604 28.0217 103.703 27.4548 103.909 26.9249C104.085 26.4818 104.341 26.0765 104.664 25.7303C104.962 25.4095 105.329 25.1629 105.735 25.0092C106.136 24.8408 106.567 24.7561 107.001 24.7602C107.437 24.7397 107.873 24.8134 108.28 24.9763C108.686 25.1391 109.055 25.3877 109.362 25.7057C109.946 26.3276 110.238 27.2485 110.238 28.4423C110.241 28.5755 110.233 28.7088 110.214 28.8406C110.214 28.9649 110.189 29.0892 110.189 29.2137H105.662C105.681 29.4133 105.744 29.6059 105.845 29.7779C105.946 29.9499 106.083 30.097 106.246 30.2088C106.651 30.475 107.128 30.6054 107.609 30.5819C107.968 30.587 108.327 30.5537 108.68 30.4825C108.98 30.4309 109.274 30.3474 109.556 30.2334L109.824 31.9005C109.727 31.9503 109.581 32.0001 109.386 32.0746C109.189 32.1423 108.985 32.1841 108.777 32.1991C108.544 32.2478 108.309 32.2809 108.071 32.2983C107.828 32.3234 107.56 32.3483 107.317 32.3483C106.751 32.3617 106.189 32.2602 105.662 32.0499C105.227 31.8733 104.83 31.6112 104.493 31.2785C104.193 30.9294 103.961 30.5239 103.812 30.0845C103.684 29.5976 103.619 29.0958 103.617 28.5917ZM108.315 27.7957C108.308 27.6256 108.276 27.4576 108.218 27.298C108.169 27.1373 108.095 26.986 107.999 26.8502C107.883 26.7014 107.734 26.5832 107.565 26.5053C107.395 26.4273 107.21 26.392 107.025 26.4023C106.824 26.4025 106.625 26.4448 106.441 26.5266C106.288 26.5906 106.154 26.6934 106.051 26.8253C105.942 26.9566 105.859 27.1089 105.808 27.2731C105.756 27.4359 105.715 27.6022 105.686 27.7708H108.315" fill="white"/>
<path d="M111.723 23.1431L113.719 22.8198V24.9345H116.105V26.626H113.719V29.1636C113.703 29.5174 113.778 29.8694 113.938 30.1836C114.084 30.4327 114.401 30.557 114.839 30.557C115.059 30.5527 115.278 30.5361 115.496 30.5071C115.712 30.4671 115.923 30.4089 116.129 30.333L116.421 31.9251C116.163 32.0376 115.894 32.121 115.618 32.174C115.258 32.2509 114.89 32.2842 114.522 32.2731C114.058 32.2862 113.596 32.2104 113.16 32.0497C112.832 31.9136 112.54 31.7004 112.307 31.4275C112.082 31.1356 111.924 30.7955 111.845 30.4324C111.763 30.0146 111.723 29.5896 111.723 29.1636V23.1431Z" fill="white"/>
<path d="M117.127 28.5917C117.114 28.0217 117.213 27.4548 117.419 26.9249C117.595 26.4818 117.851 26.0766 118.174 25.7303C118.472 25.4095 118.839 25.1629 119.245 25.0092C119.646 24.8408 120.077 24.7561 120.511 24.7602C120.947 24.7397 121.383 24.8134 121.79 24.9763C122.197 25.1391 122.565 25.3877 122.872 25.7057C123.456 26.3276 123.748 27.2485 123.748 28.4423C123.752 28.5755 123.743 28.7088 123.724 28.8406C123.724 28.9649 123.7 29.0892 123.7 29.2137H119.172C119.192 29.4133 119.254 29.6059 119.355 29.7779C119.456 29.9499 119.593 30.097 119.756 30.2088C120.162 30.475 120.638 30.6054 121.119 30.5819C121.479 30.587 121.838 30.5537 122.19 30.4825C122.49 30.4309 122.784 30.3474 123.067 30.2334L123.334 31.9005C123.237 31.9503 123.091 32.0001 122.896 32.0746C122.699 32.1423 122.495 32.1841 122.288 32.1991C122.055 32.2478 121.819 32.2809 121.582 32.2983C121.338 32.3234 121.071 32.3483 120.827 32.3483C120.262 32.3617 119.699 32.2602 119.172 32.0499C118.737 31.8733 118.34 31.6112 118.004 31.2785C117.703 30.9294 117.471 30.5238 117.322 30.0845C117.183 29.6001 117.117 29.0966 117.127 28.5917ZM121.801 27.7957C121.795 27.6256 121.762 27.4576 121.704 27.298C121.655 27.1373 121.581 26.986 121.484 26.8502C121.369 26.7015 121.22 26.5832 121.051 26.5053C120.882 26.4274 120.696 26.3921 120.511 26.4023C120.31 26.4025 120.111 26.4448 119.926 26.5266C119.774 26.5906 119.64 26.6934 119.537 26.8253C119.428 26.9567 119.345 27.1089 119.294 27.2731C119.242 27.4359 119.201 27.6022 119.172 27.7708H121.801" fill="white"/>
<path d="M127.278 30.6566C127.542 30.6764 127.806 30.6426 128.057 30.5572C128.13 30.5162 128.19 30.4542 128.229 30.3791C128.267 30.3039 128.284 30.2187 128.276 30.134C128.276 29.9599 128.179 29.8356 127.984 29.7113C127.7 29.5376 127.398 29.3957 127.083 29.2881C126.767 29.1638 126.475 29.0395 126.232 28.915C125.999 28.801 125.785 28.6498 125.598 28.4672C125.419 28.282 125.279 28.062 125.185 27.8203C125.081 27.534 125.031 27.2301 125.039 26.9249C125.025 26.6189 125.085 26.3141 125.212 26.0368C125.339 25.7594 125.53 25.5178 125.769 25.3325C126.256 24.9345 126.937 24.7352 127.789 24.7352C128.206 24.7385 128.621 24.7802 129.031 24.8598C129.347 24.909 129.657 24.9925 129.956 25.1088L129.615 26.7009C129.372 26.626 129.128 26.5515 128.86 26.477C128.566 26.403 128.263 26.3695 127.96 26.3774C127.327 26.3774 127.035 26.5515 127.035 26.8997C127.039 26.9766 127.056 27.0523 127.083 27.1239C127.118 27.2073 127.177 27.2772 127.254 27.3229C127.327 27.3727 127.448 27.4472 127.57 27.5219C127.716 27.5964 127.887 27.6462 128.106 27.7458C128.482 27.8835 128.849 28.0498 129.201 28.2432C129.457 28.363 129.682 28.5418 129.858 28.7656C130.027 28.9364 130.145 29.152 130.199 29.3878C130.272 29.6463 130.305 29.9149 130.297 30.1838C130.312 30.4989 130.249 30.8127 130.112 31.0957C129.976 31.3787 129.771 31.6215 129.518 31.8011C129.006 32.1742 128.276 32.3483 127.302 32.3483C126.778 32.3648 126.253 32.3062 125.745 32.1742C125.452 32.1124 125.167 32.0207 124.893 31.9005L125.233 30.2336C125.574 30.3675 125.924 30.4756 126.28 30.5569C126.608 30.6282 126.943 30.6616 127.278 30.6566Z" fill="white"/>
<path d="M40.5 18.0735L34.5 20.5735L32 23.5735L31.5 30.0735L36 36.0735H45.5L50.5 29.5735L48 21.5735L40.5 18.0735Z" fill="#E5E7F3" stroke="#E5E7F3"/>
<path d="M42.7322 28.7249C42.7016 28.7187 42.6704 28.7163 42.6393 28.7177C42.5854 28.7206 42.5327 28.7346 42.4843 28.7588C42.3903 28.8051 42.3174 28.8868 42.2808 28.9867C42.2443 29.0866 42.2469 29.1971 42.2881 29.2951L42.2853 29.2992L43.2128 31.5892C44.1001 31.0105 44.7734 30.146 45.1262 29.1324L42.7363 28.7201L42.7322 28.7249ZM39.0135 29.0492C38.9934 28.9589 38.9442 28.8782 38.8739 28.8199C38.8035 28.7615 38.716 28.7291 38.6255 28.7276C38.5987 28.7272 38.572 28.7297 38.5457 28.7348L38.5417 28.7298L36.1726 29.1408C36.5284 30.1463 37.1989 31.0037 38.0801 31.58L38.9981 29.3128L38.991 29.3038C39.0249 29.2236 39.0328 29.1343 39.0135 29.0492ZM40.9977 29.9383C40.9631 29.8724 40.9116 29.8173 40.8487 29.779C40.7859 29.7406 40.714 29.7204 40.6408 29.7205C40.5676 29.7206 40.4958 29.741 40.4331 29.7795C40.3703 29.8181 40.319 29.8733 40.2846 29.9393H40.2827L39.1176 32.0924C39.9518 32.3827 40.8486 32.4298 41.7075 32.2286C41.8668 32.1915 42.0224 32.1471 42.1743 32.0953L41.0064 29.9383H40.9977ZM44.6859 24.9371L42.8934 26.5766L42.8943 26.5819C42.8393 26.6311 42.7983 26.6947 42.7757 26.7658C42.7531 26.8369 42.7498 26.9129 42.766 26.9857C42.7823 27.0586 42.8176 27.1256 42.8681 27.1797C42.9187 27.2337 42.9826 27.2727 43.0531 27.2926L43.0552 27.3023L45.3773 27.9862C45.4776 26.9199 45.2349 25.8496 44.6859 24.9371ZM41.3557 25.1207C41.359 25.1953 41.3821 25.2677 41.4225 25.3301C41.4629 25.3924 41.519 25.4424 41.585 25.4748C41.6509 25.5071 41.7242 25.5206 41.7971 25.5138C41.8699 25.5071 41.9396 25.4802 41.9988 25.4362L42.0059 25.4394L43.9673 24.018C43.2207 23.2705 42.2545 22.7943 41.2173 22.6628L41.3535 25.1197L41.3557 25.1207ZM39.2785 25.4454C39.3377 25.4894 39.4074 25.5161 39.4803 25.5228C39.5531 25.5295 39.6264 25.5159 39.6923 25.4834C39.7582 25.4509 39.8142 25.4007 39.8544 25.3382C39.8946 25.2758 39.9175 25.2033 39.9207 25.1286L39.9306 25.1238L40.0669 22.6631C39.9024 22.6832 39.739 22.712 39.5773 22.7492C38.7176 22.9467 37.9289 23.3859 37.3005 24.0173L39.2747 25.4476L39.2785 25.4454ZM38.2261 27.3047C38.2968 27.285 38.3609 27.2461 38.4116 27.192C38.4623 27.138 38.4977 27.0709 38.514 26.998C38.5303 26.925 38.527 26.8488 38.5042 26.7776C38.4815 26.7065 38.4404 26.6429 38.3851 26.5938L38.387 26.5841L36.5845 24.9364C36.0346 25.8511 35.7986 26.927 35.9137 27.9941L38.2242 27.3127L38.2261 27.3047ZM39.9767 28.0285L40.6416 28.3549L41.3046 28.0292L41.4692 27.2977L41.0105 26.7113H40.272L39.8118 27.2965L39.9767 28.0285Z" fill="#326CE5"/>
<path d="M51.6336 29.4694L49.7389 21.0584C49.6879 20.8408 49.5904 20.6375 49.4532 20.4631C49.3161 20.2887 49.1427 20.1476 48.9458 20.05L41.2764 16.3077C41.0777 16.2107 40.8602 16.1604 40.64 16.1604C40.4197 16.1604 40.2023 16.2107 40.0035 16.3077L32.3358 20.0519C32.1388 20.1495 31.9654 20.2906 31.8282 20.465C31.691 20.6393 31.5934 20.8427 31.5425 21.0603L29.6508 29.4711C29.6042 29.6837 29.604 29.9041 29.6504 30.1168C29.664 30.1816 29.6819 30.2454 29.7038 30.3078C29.7408 30.4142 29.7898 30.5159 29.8498 30.6108C29.8758 30.6514 29.9033 30.6906 29.9331 30.729L35.2406 37.4733C35.2638 37.5023 35.2894 37.5294 35.3147 37.5567C35.398 37.6473 35.492 37.7269 35.5946 37.7937C35.7244 37.8771 35.8659 37.9399 36.0141 37.9799C36.1356 38.014 36.261 38.0317 36.387 38.0326H36.4696L44.8984 38.0307C44.9496 38.0304 45.0008 38.0274 45.0517 38.0215C45.1247 38.013 45.197 37.9989 45.268 37.9794C45.3189 37.9657 45.369 37.9493 45.4182 37.9303C45.4568 37.9159 45.4947 37.8998 45.5318 37.8819C45.5872 37.8549 45.6409 37.8245 45.6927 37.7908C45.8262 37.7049 45.9452 37.5974 46.0448 37.4723L46.2066 37.2668L51.3504 30.7269C51.449 30.6005 51.5265 30.4583 51.5797 30.3061C51.6019 30.2436 51.6201 30.1796 51.6341 30.1146C51.6805 29.902 51.6804 29.6815 51.6336 29.4689V29.4694ZM43.6787 32.7407C43.7002 32.8054 43.7258 32.8687 43.7551 32.93C43.7083 33.0139 43.6955 33.1133 43.7196 33.2067C43.8312 33.4679 43.9675 33.7174 44.1266 33.9515C44.2156 34.0711 44.2978 34.196 44.3727 34.3253C44.3911 34.3604 44.4153 34.4146 44.4328 34.4516C44.4659 34.508 44.487 34.5709 44.4949 34.6362C44.5028 34.7015 44.4972 34.7677 44.4785 34.8307C44.4598 34.8936 44.4284 34.9519 44.3864 35.0017C44.3443 35.0515 44.2925 35.0918 44.2343 35.1199C44.1761 35.148 44.1128 35.1634 44.0485 35.165C43.9841 35.1666 43.9201 35.1544 43.8607 35.1292C43.8012 35.104 43.7475 35.0664 43.7032 35.0187C43.6588 34.9711 43.6247 34.9144 43.603 34.8525C43.5855 34.8157 43.5611 34.7669 43.5462 34.7323C43.4938 34.5917 43.4493 34.4482 43.413 34.3024C43.3334 34.0296 43.2279 33.7654 43.0981 33.5135C43.0416 33.4357 42.9575 33.3835 42.8638 33.3682C42.8492 33.3423 42.7947 33.2405 42.7656 33.1878C41.4004 33.7162 39.8925 33.7123 38.5299 33.1767L38.4261 33.3692C38.3519 33.3809 38.283 33.4152 38.2283 33.4676C38.0718 33.7301 37.9521 34.0138 37.8729 34.3103C37.8369 34.4562 37.7927 34.5997 37.7404 34.7403C37.7257 34.7746 37.7011 34.823 37.6836 34.8595V34.8605L37.6829 34.8614C37.6612 34.9234 37.6271 34.9801 37.5827 35.0278C37.5383 35.0755 37.4846 35.1132 37.4251 35.1384C37.3655 35.1636 37.3015 35.1757 37.2371 35.1741C37.1727 35.1724 37.1094 35.1569 37.0512 35.1287C36.993 35.1005 36.9412 35.0601 36.8992 35.0102C36.8572 34.9602 36.8259 34.9018 36.8074 34.8388C36.7888 34.7757 36.7834 34.7094 36.7915 34.6441C36.7996 34.5788 36.821 34.5159 36.8543 34.4595C36.8716 34.4223 36.8947 34.3684 36.913 34.3333C36.9879 34.2036 37.07 34.0785 37.159 33.9585C37.321 33.7182 37.4601 33.4626 37.5745 33.1953C37.5867 33.1047 37.5724 33.0124 37.5336 32.93L37.6171 32.7255C36.3609 31.9678 35.4194 30.7664 34.9702 29.348L34.7703 29.3829C34.6927 29.3266 34.6012 29.2937 34.5062 29.2878C34.2326 29.3413 33.9646 29.4219 33.7063 29.5284C33.5721 29.5902 33.4345 29.644 33.2943 29.6897C33.2612 29.6989 33.2134 29.7083 33.1755 29.7168C33.1725 29.7178 33.1699 29.7192 33.1668 29.7199L33.1597 29.7207C33.0988 29.7412 33.0343 29.7484 32.9705 29.742C32.9067 29.7356 32.8448 29.7156 32.789 29.6833C32.7332 29.6511 32.6845 29.6073 32.6462 29.5547C32.6079 29.5021 32.5808 29.4419 32.5665 29.378C32.5523 29.3141 32.5512 29.2478 32.5635 29.1835C32.5758 29.1192 32.601 29.0581 32.6377 29.0043C32.6743 28.9506 32.7216 28.9052 32.7764 28.8711C32.8312 28.8371 32.8924 28.8151 32.956 28.8066L32.9626 28.8049L32.9666 28.8037C33.005 28.7945 33.0542 28.7815 33.0892 28.7747C33.2352 28.754 33.3822 28.7419 33.5295 28.7384C33.8075 28.7198 34.083 28.6736 34.3522 28.6003C34.432 28.5484 34.4994 28.4789 34.5495 28.397L34.7416 28.3397C34.5331 26.8593 34.8667 25.3524 35.6784 24.1079L35.5312 23.9739C35.5258 23.8766 35.4939 23.7828 35.4389 23.7031C35.2275 23.5174 34.9989 23.3532 34.7563 23.2129C34.6253 23.1447 34.4983 23.0688 34.3758 22.9856C34.3479 22.9643 34.311 22.9324 34.2807 22.9073L34.2739 22.9024C34.1695 22.8258 34.099 22.71 34.0778 22.5804C34.0567 22.4509 34.0866 22.318 34.161 22.2109C34.205 22.1558 34.261 22.1122 34.3246 22.0835C34.3881 22.0547 34.4574 22.0417 34.5268 22.0454C34.6436 22.0506 34.7557 22.0938 34.8467 22.1688C34.8779 22.1939 34.9207 22.2273 34.9484 22.2517C35.0553 22.355 35.1563 22.4645 35.2508 22.5796C35.4384 22.7902 35.6456 22.9816 35.8695 23.151C35.9534 23.1961 36.0513 23.2059 36.1421 23.1781C36.1684 23.1979 36.2571 23.2627 36.3077 23.2983C37.1143 22.4222 38.1586 21.8124 39.3067 21.5473C39.58 21.484 39.8572 21.4404 40.1365 21.4167L40.1474 21.2184C40.2186 21.1538 40.2704 21.0696 40.2964 20.9759C40.3064 20.6913 40.2893 20.4064 40.2453 20.1252C40.2161 19.9778 40.1952 19.8289 40.1826 19.679C40.1814 19.6449 40.1833 19.5978 40.1838 19.5589C40.1838 19.5545 40.1826 19.5502 40.1826 19.5458C40.1761 19.4802 40.183 19.4139 40.2031 19.3512C40.2232 19.2886 40.2559 19.2309 40.2991 19.1819C40.3423 19.133 40.3951 19.0938 40.4541 19.067C40.513 19.0402 40.5768 19.0264 40.6414 19.0263C40.7059 19.0263 40.7697 19.0401 40.8287 19.0668C40.8877 19.0936 40.9405 19.1327 40.9838 19.1816C41.0271 19.2305 41.0598 19.2881 41.08 19.3508C41.1001 19.4134 41.1071 19.4797 41.1006 19.5453C41.1006 19.5864 41.103 19.6411 41.1016 19.6788C41.089 19.8286 41.068 19.9774 41.0387 20.1247C40.9944 20.406 40.9769 20.691 40.9866 20.9757C41.0047 21.0709 41.0586 21.155 41.1366 21.2102C41.1383 21.2441 41.1437 21.3572 41.1477 21.4196C42.5987 21.5545 43.9525 22.223 44.9576 23.301L45.1322 23.1735C45.226 23.19 45.3225 23.1792 45.4107 23.1426C45.6346 22.9728 45.8418 22.7812 46.0294 22.5704C46.1241 22.4552 46.2253 22.3457 46.3325 22.2425C46.3606 22.2179 46.4032 22.1845 46.4342 22.1596C46.4803 22.1132 46.5354 22.0772 46.5959 22.0539C46.6565 22.0306 46.7212 22.0207 46.7857 22.0246C46.8503 22.0286 46.9134 22.0464 46.9708 22.0768C47.0282 22.1073 47.0787 22.1497 47.119 22.2014C47.1593 22.2532 47.1886 22.313 47.2048 22.3769C47.221 22.4409 47.2239 22.5077 47.2133 22.5729C47.2026 22.6382 47.1787 22.7004 47.143 22.7555C47.1073 22.8106 47.0606 22.8575 47.0061 22.893C46.9753 22.9184 46.9346 22.954 46.9051 22.9764C46.7823 23.0597 46.655 23.1356 46.5236 23.2037C46.2811 23.3441 46.0525 23.5083 45.841 23.6939C45.7795 23.7676 45.7486 23.863 45.7549 23.9597C45.7294 23.9836 45.6397 24.0649 45.5921 24.1089C46.4061 25.3489 46.7463 26.8511 46.5483 28.3305L46.7335 28.3856C46.7798 28.4709 46.8484 28.5414 46.9316 28.5892C47.2008 28.6625 47.4764 28.7088 47.7545 28.7275C47.9017 28.731 48.0487 28.743 48.1946 28.7636C48.2331 28.7708 48.289 28.7865 48.3282 28.7957C48.3918 28.8043 48.4529 28.8264 48.5076 28.8605C48.5623 28.8946 48.6095 28.94 48.646 28.9938C48.6826 29.0476 48.7078 29.1086 48.72 29.1729C48.7322 29.2372 48.7311 29.3034 48.7169 29.3673C48.7026 29.4311 48.6754 29.4912 48.6371 29.5438C48.5989 29.5963 48.5503 29.6401 48.4945 29.6723C48.4387 29.7046 48.3769 29.7245 48.3131 29.731C48.2493 29.7374 48.1849 29.7302 48.124 29.7098L48.1174 29.7088C48.1143 29.7081 48.1115 29.7064 48.1084 29.7057C48.0706 29.6972 48.023 29.6888 47.9899 29.6798C47.8497 29.6338 47.7123 29.5795 47.5782 29.5173C47.3196 29.4107 47.0514 29.3301 46.7775 29.2767C46.6827 29.2736 46.5905 29.3086 46.5206 29.3742C46.4554 29.3613 46.39 29.3496 46.3244 29.3391C45.8806 30.7663 44.939 31.9769 43.6787 32.7407Z" fill="#326CE5"/>
</g>
<defs>
<clipPath id="clip0_989_929">
<rect width="104" height="21" fill="white" transform="translate(28 16.0735)"/>
</clipPath>
</defs>
</svg>

