<svg width="160" height="53" viewBox="0 0 160 53" fill="none" xmlns="http://www.w3.org/2000/svg">
<rect x="0.5" y="1.07343" width="159" height="51" rx="7.5" fill="#08081A"/>
<rect x="0.5" y="1.07343" width="159" height="51" rx="7.5" stroke="#CBCBD7"/>
<g clip-path="url(#clip0_998_1282)">
<path d="M61.017 27.5219C61.2118 27.298 61.4065 27.074 61.6256 26.8501C61.8291 26.6186 62.032 26.3864 62.2341 26.1537C62.4289 25.9046 62.6236 25.6807 62.7942 25.4814C62.9648 25.2822 63.1349 25.0837 63.2565 24.9345H65.6178C65.1553 25.4817 64.6927 26.0292 64.2304 26.5266C63.7922 27.0242 63.3053 27.5467 62.7698 28.094C63.0634 28.375 63.3398 28.6741 63.5975 28.9897C63.8894 29.3379 64.1573 29.6861 64.4251 30.0343C64.6906 30.3834 64.9344 30.7491 65.1553 31.1293C65.3744 31.5024 65.5693 31.8257 65.7153 32.1244H63.4271C63.2809 31.8753 63.1105 31.6267 62.9402 31.353C62.7621 31.0514 62.567 30.7607 62.3558 30.4824C62.1579 30.184 61.9383 29.9012 61.6987 29.6366C61.5047 29.3884 61.2843 29.1631 61.0414 28.9648V32.0994H59.0454V21.8247L61.0414 21.5012V27.5219" fill="white"/>
<path d="M72.6529 31.8755C72.2216 31.9984 71.7824 32.0899 71.3385 32.1493C70.7833 32.2419 70.2211 32.2835 69.6586 32.2735C69.1445 32.2926 68.6318 32.2082 68.1496 32.025C67.7866 31.8848 67.4656 31.6506 67.218 31.3452C66.9705 31.0399 66.805 30.6739 66.7377 30.2834C66.6384 29.8428 66.5893 29.392 66.5915 28.9399V24.9344H68.5877V28.6911C68.5877 29.3379 68.6609 29.8107 68.8312 30.1093C69.0016 30.4079 69.3179 30.5571 69.7805 30.5571C69.9351 30.5606 70.0897 30.5523 70.243 30.5322C70.4134 30.5073 70.5352 30.5073 70.6812 30.4824V24.9344H72.6772L72.6529 31.8755Z" fill="white"/>
<path d="M79.0552 28.4671C79.0552 27.1488 78.5926 26.5019 77.6431 26.5019C77.4381 26.5021 77.2338 26.5271 77.0346 26.5764C76.8639 26.6186 76.7 26.6857 76.5479 26.7754V30.4824C76.6451 30.5073 76.767 30.5073 76.913 30.5322C77.0589 30.5322 77.2293 30.5571 77.3999 30.5571C77.6363 30.568 77.8718 30.5219 78.0875 30.4225C78.3032 30.323 78.4929 30.1731 78.6414 29.9848C78.9325 29.5362 79.0774 29.005 79.0552 28.4671ZM81.0756 28.517C81.0858 29.05 81.0034 29.5808 80.8321 30.0844C80.6856 30.5306 80.4446 30.9383 80.1263 31.2785C79.7946 31.6054 79.4067 31.8669 78.9821 32.0499C78.4813 32.2268 77.9537 32.3109 77.424 32.2985C77.1808 32.2985 76.9373 32.2736 76.6695 32.2489C76.4017 32.2242 76.1584 32.1991 75.8906 32.1739C75.6471 32.1493 75.4037 32.0994 75.1602 32.0496C74.952 32.0131 74.7481 31.9548 74.5516 31.8755V21.8245L76.5479 21.5012V25.0837C76.7745 24.983 77.0111 24.9079 77.2537 24.8597C77.5104 24.8091 77.7714 24.7842 78.0328 24.7853C78.4852 24.7767 78.934 24.87 79.3472 25.0585C79.7243 25.2263 80.0579 25.4821 80.321 25.8052C80.601 26.1534 80.8007 26.5615 80.9052 26.9993C81.0155 27.4974 81.0726 28.0063 81.0756 28.517Z" fill="white"/>
<path d="M82.2687 28.5917C82.2556 28.0217 82.3549 27.4548 82.5607 26.9248C82.7367 26.4817 82.9927 26.0765 83.3155 25.7303C83.6139 25.4095 83.9802 25.1629 84.3864 25.0092C84.7878 24.8407 85.2182 24.756 85.6522 24.7601C86.0887 24.7397 86.5244 24.8133 86.9313 24.9762C87.3381 25.1391 87.7068 25.3876 88.0135 25.7056C88.5977 26.3276 88.8897 27.2484 88.8897 28.4422C88.8931 28.5755 88.885 28.7087 88.8655 28.8405C88.8655 28.9648 88.8412 29.0891 88.8412 29.2136H84.313C84.3328 29.4132 84.3955 29.6059 84.4965 29.7779C84.5975 29.9499 84.7344 30.097 84.8974 30.2087C85.3028 30.4749 85.7792 30.6054 86.2605 30.5818C86.62 30.5869 86.979 30.5536 87.3316 30.4824C87.6314 30.4308 87.9252 30.3473 88.208 30.2334L88.4756 31.9004C88.3784 31.9502 88.2324 32.0001 88.0377 32.0745C87.8407 32.1422 87.6361 32.1841 87.4289 32.1991C87.196 32.2477 86.9602 32.2808 86.7231 32.2982C86.4796 32.3234 86.212 32.3483 85.9683 32.3483C85.4027 32.3616 84.8401 32.2602 84.313 32.0499C83.878 31.8732 83.4811 31.6111 83.1447 31.2785C82.844 30.9293 82.6126 30.5238 82.4632 30.0844C82.3355 29.5975 82.27 29.0958 82.2683 28.5917M86.9665 27.7956C86.96 27.6255 86.9271 27.4575 86.8691 27.298C86.8209 27.1373 86.7468 26.9859 86.65 26.8501C86.5345 26.7014 86.3858 26.5832 86.2164 26.5053C86.047 26.4273 85.8618 26.392 85.6763 26.4023C85.4753 26.4024 85.2764 26.4447 85.0919 26.5266C84.9394 26.5906 84.8054 26.6934 84.7027 26.8252C84.5933 26.9566 84.5105 27.1088 84.459 27.2731C84.4071 27.4358 84.3664 27.6021 84.3374 27.7707H86.9665" fill="white"/>
<path d="M94.6588 26.7258C94.4518 26.6654 94.24 26.6237 94.0258 26.6013C93.7692 26.5505 93.5083 26.5254 93.2469 26.5263C93.092 26.5345 92.9376 26.5512 92.7844 26.5764C92.6534 26.5944 92.5234 26.6193 92.3949 26.6511V32.149H90.3987V25.3076C90.813 25.1643 91.2358 25.048 91.6645 24.9594C92.1994 24.8348 92.7469 24.7763 93.2954 24.7853C93.4257 24.7825 93.556 24.7908 93.6849 24.8099C93.84 24.8155 93.9946 24.8321 94.1475 24.8597C94.2937 24.8846 94.4397 24.9095 94.61 24.9345C94.756 24.9594 94.9022 25.0092 94.9995 25.0336L94.6588 26.7258Z" fill="white"/>
<path d="M96.0707 25.1833C97.0479 24.9198 98.0543 24.786 99.0649 24.7853C99.5713 24.7637 100.077 24.8483 100.55 25.0339C100.922 25.162 101.251 25.3949 101.499 25.7056C101.728 26.017 101.894 26.3722 101.986 26.7503C102.088 27.1904 102.137 27.6417 102.132 28.094V32.1493H100.136V28.3429C100.136 27.696 100.063 27.2233 99.8926 26.9495C99.7222 26.6758 99.4056 26.5515 98.9431 26.5515C98.7885 26.548 98.6339 26.5563 98.4805 26.5764C98.3333 26.5793 98.1867 26.596 98.0425 26.6262V32.1742H96.0707V25.1833Z" fill="white"/>
<path d="M103.617 28.5917C103.604 28.0217 103.703 27.4548 103.909 26.9248C104.085 26.4817 104.341 26.0765 104.664 25.7303C104.962 25.4095 105.329 25.1628 105.735 25.0092C106.136 24.8407 106.567 24.756 107.001 24.7601C107.437 24.7397 107.873 24.8133 108.28 24.9762C108.686 25.1391 109.055 25.3876 109.362 25.7056C109.946 26.3276 110.238 27.2484 110.238 28.4422C110.241 28.5755 110.233 28.7087 110.214 28.8405C110.214 28.9648 110.189 29.0891 110.189 29.2136H105.662C105.681 29.4132 105.744 29.6059 105.845 29.7779C105.946 29.9499 106.083 30.097 106.246 30.2087C106.651 30.4749 107.128 30.6053 107.609 30.5818C107.968 30.5869 108.327 30.5536 108.68 30.4824C108.98 30.4308 109.274 30.3473 109.556 30.2334L109.824 31.9004C109.727 31.9502 109.581 32.0001 109.386 32.0745C109.189 32.1422 108.985 32.1841 108.777 32.1991C108.544 32.2477 108.309 32.2808 108.071 32.2982C107.828 32.3234 107.56 32.3483 107.317 32.3483C106.751 32.3616 106.189 32.2602 105.662 32.0499C105.227 31.8732 104.83 31.6111 104.493 31.2785C104.193 30.9293 103.961 30.5238 103.812 30.0844C103.684 29.5975 103.619 29.0958 103.617 28.5917ZM108.315 27.7956C108.308 27.6255 108.276 27.4575 108.218 27.298C108.169 27.1373 108.095 26.9859 107.999 26.8501C107.883 26.7014 107.734 26.5831 107.565 26.5052C107.395 26.4273 107.21 26.392 107.025 26.4023C106.824 26.4025 106.625 26.4448 106.441 26.5266C106.288 26.5906 106.154 26.6934 106.051 26.8252C105.942 26.9566 105.859 27.1088 105.808 27.2731C105.756 27.4358 105.715 27.6021 105.686 27.7707H108.315" fill="white"/>
<path d="M111.723 23.1431L113.719 22.8198V24.9344H116.105V26.6259H113.719V29.1636C113.702 29.5174 113.778 29.8694 113.938 30.1835C114.084 30.4326 114.401 30.5569 114.839 30.5569C115.059 30.5527 115.278 30.536 115.496 30.5071C115.711 30.467 115.923 30.4088 116.129 30.333L116.421 31.9251C116.163 32.0375 115.894 32.1209 115.618 32.1739C115.258 32.2509 114.89 32.2841 114.522 32.2731C114.058 32.2861 113.596 32.2103 113.159 32.0496C112.831 31.9135 112.54 31.7004 112.307 31.4274C112.082 31.1356 111.924 30.7954 111.845 30.4324C111.763 30.0146 111.722 29.5896 111.723 29.1636V23.1431Z" fill="white"/>
<path d="M117.127 28.5917C117.114 28.0216 117.213 27.4548 117.419 26.9248C117.595 26.4818 117.851 26.0765 118.174 25.7303C118.472 25.4095 118.839 25.1628 119.245 25.0092C119.646 24.8407 120.077 24.756 120.511 24.7601C120.947 24.7397 121.383 24.8133 121.79 24.9762C122.197 25.1391 122.565 25.3876 122.872 25.7056C123.456 26.3276 123.748 27.2484 123.748 28.4422C123.752 28.5755 123.743 28.7087 123.724 28.8405C123.724 28.9648 123.7 29.0891 123.7 29.2136H119.172C119.192 29.4132 119.254 29.6059 119.355 29.7779C119.456 29.9499 119.593 30.097 119.756 30.2087C120.162 30.4749 120.638 30.6053 121.119 30.5818C121.479 30.5869 121.838 30.5536 122.19 30.4824C122.49 30.4308 122.784 30.3473 123.067 30.2334L123.334 31.9004C123.237 31.9502 123.091 32.0001 122.896 32.0745C122.699 32.1422 122.495 32.1841 122.288 32.1991C122.055 32.2477 121.819 32.2808 121.582 32.2982C121.338 32.3234 121.071 32.3483 120.827 32.3483C120.262 32.3616 119.699 32.2602 119.172 32.0499C118.737 31.8732 118.34 31.6111 118.004 31.2785C117.703 30.9293 117.471 30.5238 117.322 30.0844C117.183 29.6 117.117 29.0965 117.127 28.5917ZM121.801 27.7956C121.795 27.6255 121.762 27.4575 121.704 27.298C121.655 27.1373 121.581 26.9859 121.484 26.8501C121.369 26.7014 121.22 26.5832 121.051 26.5053C120.882 26.4273 120.696 26.392 120.511 26.4023C120.31 26.4024 120.111 26.4447 119.926 26.5266C119.774 26.5906 119.64 26.6934 119.537 26.8252C119.428 26.9566 119.345 27.1088 119.294 27.2731C119.242 27.4358 119.201 27.6021 119.172 27.7707H121.801" fill="white"/>
<path d="M127.278 30.6566C127.542 30.6764 127.806 30.6426 128.057 30.5572C128.13 30.5162 128.19 30.4542 128.229 30.3791C128.267 30.3039 128.284 30.2187 128.276 30.134C128.276 29.9599 128.179 29.8356 127.984 29.7113C127.7 29.5376 127.398 29.3957 127.083 29.2881C126.767 29.1638 126.475 29.0395 126.232 28.915C125.999 28.801 125.785 28.6498 125.598 28.4672C125.419 28.282 125.279 28.062 125.185 27.8203C125.081 27.534 125.031 27.2301 125.039 26.9249C125.025 26.6189 125.085 26.3141 125.212 26.0368C125.339 25.7594 125.53 25.5178 125.769 25.3325C126.256 24.9345 126.937 24.7352 127.789 24.7352C128.206 24.7385 128.621 24.7802 129.031 24.8598C129.347 24.909 129.657 24.9925 129.956 25.1088L129.615 26.7009C129.372 26.626 129.128 26.5515 128.86 26.477C128.566 26.403 128.263 26.3695 127.96 26.3774C127.327 26.3774 127.035 26.5515 127.035 26.8997C127.039 26.9766 127.056 27.0523 127.083 27.1239C127.118 27.2073 127.177 27.2772 127.254 27.3229C127.327 27.3727 127.448 27.4472 127.57 27.5219C127.716 27.5964 127.887 27.6462 128.106 27.7458C128.482 27.8835 128.849 28.0498 129.201 28.2432C129.457 28.363 129.682 28.5418 129.858 28.7656C130.027 28.9364 130.145 29.152 130.199 29.3878C130.272 29.6463 130.305 29.9149 130.297 30.1838C130.312 30.4989 130.249 30.8127 130.112 31.0957C129.976 31.3787 129.771 31.6215 129.518 31.8011C129.006 32.1742 128.276 32.3483 127.302 32.3483C126.778 32.3648 126.253 32.3062 125.745 32.1742C125.452 32.1124 125.167 32.0207 124.893 31.9005L125.233 30.2336C125.574 30.3675 125.924 30.4756 126.28 30.5569C126.608 30.6282 126.943 30.6616 127.278 30.6566Z" fill="white"/>
<path d="M40.5 18.0734L34.5 20.5734L32 23.5734L31.5 30.0734L36 36.0734H45.5L50.5 29.5734L48 21.5734L40.5 18.0734Z" fill="#E5E7F3" stroke="#E5E7F3"/>
<path d="M42.7324 28.7249C42.7018 28.7186 42.6705 28.7162 42.6394 28.7176C42.5855 28.7205 42.5328 28.7345 42.4844 28.7587C42.3904 28.8051 42.3175 28.8867 42.281 28.9866C42.2444 29.0866 42.247 29.197 42.2883 29.2951L42.2854 29.2992L43.2129 31.5892C44.1002 31.0104 44.7735 30.1459 45.1263 29.1323L42.7364 28.72L42.7324 28.7249ZM39.0136 29.0491C38.9935 28.9589 38.9443 28.8781 38.874 28.8198C38.8036 28.7615 38.7162 28.729 38.6256 28.7275C38.5988 28.7272 38.5721 28.7296 38.5459 28.7348L38.5418 28.7297L36.1727 29.1408C36.5285 30.1463 37.199 31.0037 38.0802 31.58L38.9983 29.3127L38.9912 29.3038C39.025 29.2235 39.0329 29.1343 39.0136 29.0491ZM40.9978 29.9383C40.9632 29.8724 40.9117 29.8173 40.8489 29.7789C40.786 29.7405 40.7142 29.7203 40.641 29.7204C40.5677 29.7205 40.4959 29.7409 40.4332 29.7795C40.3704 29.818 40.3191 29.8732 40.2847 29.9392H40.2828L39.1177 32.0924C39.9519 32.3826 40.8487 32.4298 41.7076 32.2285C41.8669 32.1914 42.0225 32.147 42.1744 32.0953L41.0066 29.9383H40.9978ZM44.686 24.9371L42.8935 26.5766L42.8944 26.5819C42.8394 26.6311 42.7984 26.6946 42.7758 26.7657C42.7532 26.8368 42.7499 26.9128 42.7662 26.9857C42.7824 27.0586 42.8177 27.1256 42.8683 27.1796C42.9188 27.2336 42.9827 27.2727 43.0532 27.2926L43.0553 27.3023L45.3774 27.9861C45.4778 26.9199 45.235 25.8495 44.686 24.9371ZM41.3558 25.1206C41.3592 25.1953 41.3823 25.2676 41.4226 25.33C41.463 25.3923 41.5192 25.4423 41.5851 25.4747C41.6511 25.5071 41.7243 25.5206 41.7972 25.5138C41.8701 25.507 41.9397 25.4802 41.9989 25.4362L42.006 25.4393L43.9674 24.0179C43.2208 23.2704 42.2546 22.7943 41.2174 22.6628L41.3537 25.1196L41.3558 25.1206ZM39.2786 25.4454C39.3378 25.4893 39.4075 25.5161 39.4804 25.5227C39.5533 25.5294 39.6265 25.5158 39.6924 25.4833C39.7583 25.4508 39.8143 25.4006 39.8546 25.3382C39.8948 25.2757 39.9176 25.2033 39.9208 25.1286L39.9307 25.1237L40.067 22.663C39.9025 22.6832 39.7391 22.7119 39.5775 22.7491C38.7177 22.9466 37.9291 23.3859 37.3006 24.0172L39.2748 25.4475L39.2786 25.4454ZM38.2262 27.3047C38.2969 27.285 38.361 27.246 38.4117 27.192C38.4624 27.138 38.4978 27.0709 38.5141 26.9979C38.5304 26.9249 38.5271 26.8488 38.5044 26.7776C38.4817 26.7064 38.4405 26.6429 38.3852 26.5937L38.3871 26.5841L36.5846 24.9363C36.0347 25.8511 35.7987 26.927 35.9139 27.9941L38.2243 27.3127L38.2262 27.3047ZM39.9769 28.0284L40.6417 28.3549L41.3047 28.0292L41.4694 27.2977L41.0106 26.7113H40.2721L39.8119 27.2964L39.9769 28.0284Z" fill="#326CE5"/>
<path d="M51.6336 29.4694L49.7389 21.0583C49.6879 20.8407 49.5904 20.6374 49.4532 20.463C49.3161 20.2887 49.1427 20.1476 48.9458 20.0499L41.2764 16.3076C41.0777 16.2106 40.8602 16.1603 40.64 16.1603C40.4197 16.1603 40.2023 16.2106 40.0035 16.3076L32.3358 20.0519C32.1388 20.1494 31.9654 20.2905 31.8282 20.4649C31.691 20.6393 31.5934 20.8426 31.5425 21.0602L29.6508 29.4711C29.6042 29.6836 29.604 29.9041 29.6504 30.1167C29.664 30.1815 29.6819 30.2453 29.7038 30.3077C29.7408 30.4142 29.7898 30.5159 29.8498 30.6107C29.8758 30.6514 29.9033 30.6905 29.9331 30.729L35.2406 37.4732C35.2638 37.5022 35.2894 37.5293 35.3147 37.5566C35.398 37.6472 35.492 37.7269 35.5946 37.7936C35.7244 37.877 35.8659 37.9398 36.0141 37.9798C36.1356 38.0139 36.261 38.0316 36.387 38.0325H36.4696L44.8984 38.0306C44.9496 38.0304 45.0008 38.0273 45.0517 38.0214C45.1247 38.013 45.197 37.9989 45.268 37.9793C45.3189 37.9657 45.369 37.9493 45.4182 37.9302C45.4568 37.9158 45.4947 37.8997 45.5318 37.8819C45.5872 37.8549 45.6409 37.8244 45.6927 37.7907C45.8262 37.7049 45.9452 37.5973 46.0448 37.4722L46.2066 37.2667L51.3504 30.7268C51.449 30.6004 51.5265 30.4583 51.5797 30.306C51.6019 30.2435 51.6201 30.1795 51.6341 30.1145C51.6805 29.9019 51.6804 29.6814 51.6336 29.4689V29.4694ZM43.6787 32.7406C43.7002 32.8053 43.7258 32.8686 43.7551 32.93C43.7083 33.0139 43.6955 33.1132 43.7196 33.2066C43.8312 33.4678 43.9675 33.7173 44.1266 33.9514C44.2156 34.0711 44.2978 34.1959 44.3727 34.3253C44.3911 34.3603 44.4153 34.4145 44.4328 34.4515C44.4659 34.5079 44.487 34.5708 44.4949 34.6361C44.5028 34.7014 44.4972 34.7677 44.4785 34.8306C44.4598 34.8936 44.4284 34.9518 44.3864 35.0017C44.3443 35.0515 44.2925 35.0917 44.2343 35.1199C44.1761 35.148 44.1128 35.1633 44.0485 35.1649C43.9841 35.1665 43.9201 35.1544 43.8607 35.1292C43.8012 35.104 43.7475 35.0663 43.7032 35.0187C43.6588 34.971 43.6247 34.9144 43.603 34.8524C43.5855 34.8157 43.5611 34.7668 43.5462 34.7322C43.4938 34.5917 43.4493 34.4481 43.413 34.3023C43.3334 34.0295 43.2279 33.7653 43.0981 33.5135C43.0416 33.4356 42.9575 33.3834 42.8638 33.3682C42.8492 33.3423 42.7947 33.2405 42.7656 33.1878C41.4004 33.7162 39.8925 33.7122 38.5299 33.1766L38.4261 33.3691C38.3519 33.3809 38.283 33.4152 38.2283 33.4675C38.0718 33.73 37.9521 34.0137 37.8729 34.3103C37.8369 34.4561 37.7927 34.5996 37.7404 34.7402C37.7257 34.7746 37.7011 34.8229 37.6836 34.8594V34.8604L37.6829 34.8614C37.6612 34.9234 37.6271 34.9801 37.5827 35.0278C37.5383 35.0755 37.4846 35.1131 37.4251 35.1383C37.3655 35.1635 37.3015 35.1757 37.2371 35.174C37.1727 35.1723 37.1094 35.1569 37.0512 35.1286C36.993 35.1004 36.9412 35.06 36.8992 35.0101C36.8572 34.9602 36.8259 34.9018 36.8074 34.8387C36.7888 34.7757 36.7834 34.7093 36.7915 34.644C36.7996 34.5787 36.821 34.5158 36.8543 34.4595C36.8716 34.4222 36.8947 34.3683 36.913 34.3332C36.9879 34.2036 37.07 34.0784 37.159 33.9584C37.321 33.7181 37.4601 33.4626 37.5745 33.1953C37.5867 33.1046 37.5724 33.0124 37.5336 32.93L37.6171 32.7254C36.3609 31.9677 35.4194 30.7663 34.9702 29.348L34.7703 29.3828C34.6927 29.3265 34.6012 29.2936 34.5062 29.2878C34.2326 29.3413 33.9646 29.4219 33.7063 29.5284C33.5721 29.5901 33.4345 29.6439 33.2943 29.6897C33.2612 29.6988 33.2134 29.7083 33.1755 29.7167C33.1725 29.7177 33.1699 29.7192 33.1668 29.7199L33.1597 29.7206C33.0988 29.7411 33.0343 29.7484 32.9705 29.7419C32.9067 29.7355 32.8448 29.7155 32.789 29.6833C32.7332 29.651 32.6845 29.6072 32.6462 29.5546C32.6079 29.502 32.5808 29.4419 32.5665 29.378C32.5523 29.314 32.5512 29.2478 32.5635 29.1834C32.5758 29.1191 32.601 29.0581 32.6377 29.0043C32.6743 28.9505 32.7216 28.9051 32.7764 28.8711C32.8312 28.837 32.8924 28.815 32.956 28.8066L32.9626 28.8049L32.9666 28.8036C33.005 28.7945 33.0542 28.7814 33.0892 28.7746C33.2352 28.7539 33.3822 28.7418 33.5295 28.7384C33.8075 28.7198 34.083 28.6735 34.3522 28.6003C34.432 28.5484 34.4994 28.4789 34.5495 28.3969L34.7416 28.3396C34.5331 26.8592 34.8667 25.3523 35.6784 24.1078L35.5312 23.9739C35.5258 23.8765 35.4939 23.7827 35.4389 23.703C35.2275 23.5173 34.9989 23.3532 34.7563 23.2129C34.6253 23.1446 34.4983 23.0687 34.3758 22.9856C34.3479 22.9643 34.311 22.9324 34.2807 22.9072L34.2739 22.9024C34.1695 22.8257 34.099 22.71 34.0778 22.5804C34.0567 22.4508 34.0866 22.3179 34.161 22.2108C34.205 22.1558 34.261 22.1121 34.3246 22.0834C34.3881 22.0547 34.4574 22.0416 34.5268 22.0454C34.6436 22.0505 34.7557 22.0937 34.8467 22.1687C34.8779 22.1939 34.9207 22.2272 34.9484 22.2517C35.0553 22.3549 35.1563 22.4644 35.2508 22.5796C35.4384 22.7901 35.6456 22.9815 35.8695 23.151C35.9534 23.1961 36.0513 23.2058 36.1421 23.1781C36.1684 23.1979 36.2571 23.2627 36.3077 23.2982C37.1143 22.4221 38.1586 21.8123 39.3067 21.5472C39.58 21.4839 39.8572 21.4403 40.1365 21.4167L40.1474 21.2184C40.2186 21.1537 40.2704 21.0695 40.2964 20.9758C40.3064 20.6912 40.2893 20.4063 40.2453 20.1251C40.2161 19.9778 40.1952 19.8288 40.1826 19.679C40.1814 19.6449 40.1833 19.5977 40.1838 19.5588C40.1838 19.5544 40.1826 19.5501 40.1826 19.5457C40.1761 19.4801 40.183 19.4139 40.2031 19.3512C40.2232 19.2885 40.2559 19.2308 40.2991 19.1819C40.3423 19.1329 40.3951 19.0938 40.4541 19.067C40.513 19.0402 40.5768 19.0263 40.6414 19.0263C40.7059 19.0262 40.7697 19.04 40.8287 19.0668C40.8877 19.0935 40.9405 19.1326 40.9838 19.1815C41.0271 19.2304 41.0598 19.2881 41.08 19.3507C41.1001 19.4134 41.1071 19.4796 41.1006 19.5453C41.1006 19.5864 41.103 19.641 41.1016 19.6787C41.089 19.8285 41.068 19.9774 41.0387 20.1246C40.9944 20.4059 40.9769 20.6909 40.9866 20.9756C41.0047 21.0708 41.0586 21.155 41.1366 21.2102C41.1383 21.244 41.1437 21.3572 41.1477 21.4196C42.5987 21.5544 43.9525 22.2229 44.9576 23.3009L45.1322 23.1735C45.226 23.1899 45.3225 23.1792 45.4107 23.1425C45.6346 22.9727 45.8418 22.7811 46.0294 22.5704C46.1241 22.4552 46.2253 22.3457 46.3325 22.2425C46.3606 22.2178 46.4032 22.1844 46.4342 22.1595C46.4803 22.1131 46.5354 22.0771 46.5959 22.0538C46.6565 22.0306 46.7212 22.0206 46.7857 22.0246C46.8503 22.0285 46.9134 22.0463 46.9708 22.0768C47.0282 22.1072 47.0787 22.1497 47.119 22.2014C47.1593 22.2531 47.1886 22.3129 47.2048 22.3769C47.221 22.4409 47.2239 22.5077 47.2133 22.5729C47.2026 22.6381 47.1787 22.7003 47.143 22.7554C47.1073 22.8106 47.0606 22.8574 47.0061 22.893C46.9753 22.9183 46.9346 22.9539 46.9051 22.9764C46.7823 23.0596 46.655 23.1355 46.5236 23.2037C46.2811 23.344 46.0525 23.5082 45.841 23.6938C45.7795 23.7675 45.7486 23.8629 45.7549 23.9596C45.7294 23.9835 45.6397 24.0648 45.5921 24.1088C46.4061 25.3488 46.7463 26.851 46.5483 28.3304L46.7335 28.3855C46.7798 28.4708 46.8484 28.5413 46.9316 28.5892C47.2008 28.6625 47.4764 28.7088 47.7545 28.7275C47.9017 28.7309 48.0487 28.743 48.1946 28.7635C48.2331 28.7708 48.289 28.7865 48.3282 28.7957C48.3918 28.8043 48.4529 28.8263 48.5076 28.8604C48.5623 28.8945 48.6095 28.9399 48.646 28.9937C48.6826 29.0475 48.7078 29.1085 48.72 29.1728C48.7322 29.2371 48.7311 29.3033 48.7169 29.3672C48.7026 29.4311 48.6754 29.4912 48.6371 29.5437C48.5989 29.5962 48.5503 29.64 48.4945 29.6723C48.4387 29.7045 48.3769 29.7245 48.3131 29.7309C48.2493 29.7374 48.1849 29.7302 48.124 29.7097L48.1174 29.7088C48.1143 29.708 48.1115 29.7063 48.1084 29.7056C48.0706 29.6972 48.023 29.6887 47.9899 29.6797C47.8497 29.6337 47.7123 29.5795 47.5782 29.5172C47.3196 29.4107 47.0514 29.3301 46.7775 29.2766C46.6827 29.2736 46.5905 29.3085 46.5206 29.3741C46.4554 29.3612 46.39 29.3495 46.3244 29.339C45.8806 30.7662 44.939 31.9768 43.6787 32.7406Z" fill="#326CE5"/>
</g>
<defs>
<clipPath id="clip0_998_1282">
<rect width="104" height="21" fill="white" transform="translate(28 16.0734)"/>
</clipPath>
</defs>
</svg>
