<svg width="220" height="65" viewBox="0 0 220 65" fill="none" xmlns="http://www.w3.org/2000/svg">
<rect y="0.573242" width="220" height="64" rx="8" fill="#2C0E7C"/>
<path d="M66.302 37.5732V27.5772H68.094V36.0612H72.266V37.5732H66.302ZM80.8873 33.7652C80.8873 34.3999 80.8033 34.9599 80.6353 35.4452C80.4673 35.9306 80.2246 36.3459 79.9073 36.6912C79.5993 37.0272 79.2166 37.2839 78.7593 37.4612C78.3113 37.6292 77.8119 37.7132 77.2613 37.7132C76.7386 37.7132 76.2579 37.6292 75.8193 37.4612C75.3806 37.2839 74.9979 37.0272 74.6713 36.6912C74.3539 36.3459 74.1066 35.9306 73.9293 35.4452C73.7519 34.9599 73.6633 34.3999 73.6633 33.7652C73.6633 32.9252 73.8079 32.2159 74.0973 31.6372C74.3866 31.0492 74.8019 30.6059 75.3433 30.3072C75.8939 29.9992 76.5426 29.8452 77.2893 29.8452C77.9986 29.8452 78.6193 29.9992 79.1513 30.3072C79.6926 30.6059 80.1173 31.0492 80.4253 31.6372C80.7333 32.2159 80.8873 32.9252 80.8873 33.7652ZM75.4693 33.7652C75.4693 34.2972 75.5299 34.7546 75.6513 35.1372C75.7819 35.5106 75.9779 35.7952 76.2393 35.9912C76.5099 36.1872 76.8553 36.2852 77.2753 36.2852C77.7046 36.2852 78.0499 36.1872 78.3113 35.9912C78.5819 35.7952 78.7779 35.5106 78.8993 35.1372C79.0206 34.7546 79.0813 34.2972 79.0813 33.7652C79.0813 33.2239 79.0159 32.7712 78.8853 32.4072C78.7639 32.0339 78.5679 31.7539 78.2973 31.5672C78.0359 31.3712 77.6953 31.2732 77.2753 31.2732C76.6406 31.2732 76.1786 31.4879 75.8893 31.9172C75.6093 32.3466 75.4693 32.9626 75.4693 33.7652ZM86.0569 37.7132C85.3382 37.7132 84.7129 37.5779 84.1809 37.3072C83.6582 37.0272 83.2522 36.6026 82.9629 36.0332C82.6829 35.4546 82.5429 34.7172 82.5429 33.8212C82.5429 32.8879 82.6969 32.1319 83.0049 31.5532C83.3222 30.9652 83.7562 30.5359 84.3069 30.2652C84.8575 29.9852 85.4875 29.8452 86.1969 29.8452C86.6729 29.8452 87.0975 29.8919 87.4709 29.9852C87.8442 30.0786 88.1615 30.1906 88.4229 30.3212L87.9049 31.7072C87.6155 31.5952 87.3262 31.5019 87.0369 31.4272C86.7475 31.3432 86.4675 31.3012 86.1969 31.3012C85.7769 31.3012 85.4269 31.3946 85.1469 31.5812C84.8762 31.7679 84.6755 32.0479 84.5449 32.4212C84.4142 32.7852 84.3489 33.2472 84.3489 33.8072C84.3489 34.3486 84.4142 34.8012 84.5449 35.1652C84.6849 35.5292 84.8902 35.8046 85.1609 35.9912C85.4315 36.1686 85.7675 36.2572 86.1689 36.2572C86.5982 36.2572 86.9762 36.2059 87.3029 36.1032C87.6295 36.0006 87.9375 35.8606 88.2269 35.6832V37.2092C87.9375 37.3866 87.6249 37.5126 87.2889 37.5872C86.9622 37.6712 86.5515 37.7132 86.0569 37.7132ZM93.3085 29.8452C94.2885 29.8452 95.0305 30.0599 95.5345 30.4892C96.0479 30.9092 96.3045 31.5719 96.3045 32.4772V37.5732H95.0585L94.7085 36.5232H94.6525C94.4379 36.7939 94.2139 37.0226 93.9805 37.2092C93.7565 37.3866 93.4952 37.5126 93.1965 37.5872C92.9072 37.6712 92.5525 37.7132 92.1325 37.7132C91.6845 37.7132 91.2785 37.6292 90.9145 37.4612C90.5599 37.2932 90.2799 37.0366 90.0745 36.6912C89.8692 36.3366 89.7665 35.8932 89.7665 35.3612C89.7665 34.5772 90.0512 33.9892 90.6205 33.5972C91.1992 33.1959 92.0719 32.9766 93.2385 32.9392L94.5545 32.8972V32.5192C94.5545 32.0339 94.4379 31.6886 94.2045 31.4832C93.9712 31.2779 93.6445 31.1752 93.2245 31.1752C92.8419 31.1752 92.4732 31.2312 92.1185 31.3432C91.7639 31.4552 91.4185 31.5859 91.0825 31.7352L90.5225 30.5032C90.8959 30.3072 91.3205 30.1486 91.7965 30.0272C92.2819 29.9059 92.7859 29.8452 93.3085 29.8452ZM93.6305 34.0172C92.8559 34.0452 92.3192 34.1806 92.0205 34.4232C91.7219 34.6566 91.5725 34.9739 91.5725 35.3752C91.5725 35.7299 91.6799 35.9866 91.8945 36.1452C92.1092 36.3039 92.3845 36.3832 92.7205 36.3832C93.2339 36.3832 93.6679 36.2386 94.0225 35.9492C94.3772 35.6506 94.5545 35.2119 94.5545 34.6332V33.9892L93.6305 34.0172ZM100.559 37.5732H98.795V26.9332H100.559V37.5732ZM107.179 37.5732V27.5772H108.971V36.0612H113.143V37.5732H107.179ZM118.013 29.8452C118.993 29.8452 119.735 30.0599 120.239 30.4892C120.752 30.9092 121.009 31.5719 121.009 32.4772V37.5732H119.763L119.413 36.5232H119.357C119.142 36.7939 118.918 37.0226 118.685 37.2092C118.461 37.3866 118.199 37.5126 117.901 37.5872C117.611 37.6712 117.257 37.7132 116.837 37.7132C116.389 37.7132 115.983 37.6292 115.619 37.4612C115.264 37.2932 114.984 37.0366 114.779 36.6912C114.573 36.3366 114.471 35.8932 114.471 35.3612C114.471 34.5772 114.755 33.9892 115.325 33.5972C115.903 33.1959 116.776 32.9766 117.943 32.9392L119.259 32.8972V32.5192C119.259 32.0339 119.142 31.6886 118.909 31.4832C118.675 31.2779 118.349 31.1752 117.929 31.1752C117.546 31.1752 117.177 31.2312 116.823 31.3432C116.468 31.4552 116.123 31.5859 115.787 31.7352L115.227 30.5032C115.6 30.3072 116.025 30.1486 116.501 30.0272C116.986 29.9059 117.49 29.8452 118.013 29.8452ZM118.335 34.0172C117.56 34.0452 117.023 34.1806 116.725 34.4232C116.426 34.6566 116.277 34.9739 116.277 35.3752C116.277 35.7299 116.384 35.9866 116.599 36.1452C116.813 36.3039 117.089 36.3832 117.425 36.3832C117.938 36.3832 118.372 36.2386 118.727 35.9492C119.081 35.6506 119.259 35.2119 119.259 34.6332V33.9892L118.335 34.0172ZM127.489 29.8452C128.376 29.8452 129.09 30.1766 129.631 30.8392C130.172 31.4926 130.443 32.4679 130.443 33.7652C130.443 34.6239 130.317 35.3472 130.065 35.9352C129.813 36.5232 129.463 36.9666 129.015 37.2652C128.567 37.5639 128.044 37.7132 127.447 37.7132C127.083 37.7132 126.761 37.6666 126.481 37.5732C126.201 37.4706 125.963 37.3446 125.767 37.1952C125.571 37.0366 125.403 36.8686 125.263 36.6912H125.151C125.188 36.8592 125.216 37.0506 125.235 37.2652C125.254 37.4706 125.263 37.6666 125.263 37.8532V40.9332H123.499V29.9852H124.927L125.179 30.9932H125.263C125.403 30.7786 125.571 30.5872 125.767 30.4192C125.972 30.2419 126.215 30.1019 126.495 29.9992C126.784 29.8966 127.116 29.8452 127.489 29.8452ZM126.985 31.2732C126.574 31.2732 126.243 31.3572 125.991 31.5252C125.739 31.6839 125.557 31.9312 125.445 32.2672C125.333 32.6032 125.272 33.0232 125.263 33.5272V33.7512C125.263 34.2926 125.314 34.7499 125.417 35.1232C125.529 35.4966 125.711 35.7812 125.963 35.9772C126.224 36.1732 126.574 36.2712 127.013 36.2712C127.386 36.2712 127.69 36.1686 127.923 35.9632C128.166 35.7579 128.343 35.4686 128.455 35.0952C128.576 34.7126 128.637 34.2599 128.637 33.7372C128.637 32.9532 128.502 32.3466 128.231 31.9172C127.97 31.4879 127.554 31.2732 126.985 31.2732ZM135.483 36.2992C135.707 36.2992 135.921 36.2806 136.127 36.2432C136.332 36.1966 136.523 36.1452 136.701 36.0892V37.4052C136.514 37.4892 136.271 37.5592 135.973 37.6152C135.674 37.6806 135.361 37.7132 135.035 37.7132C134.605 37.7132 134.213 37.6432 133.859 37.5032C133.513 37.3539 133.233 37.1019 133.019 36.7472C132.813 36.3926 132.711 35.8979 132.711 35.2632V31.3152H131.689V30.5452L132.809 29.9292L133.369 28.3192H134.475V29.9852H136.631V31.3152H134.475V35.2492C134.475 35.6039 134.568 35.8699 134.755 36.0472C134.941 36.2152 135.184 36.2992 135.483 36.2992ZM145.286 33.7652C145.286 34.3999 145.202 34.9599 145.034 35.4452C144.866 35.9306 144.624 36.3459 144.306 36.6912C143.998 37.0272 143.616 37.2839 143.158 37.4612C142.71 37.6292 142.211 37.7132 141.66 37.7132C141.138 37.7132 140.657 37.6292 140.218 37.4612C139.78 37.2839 139.397 37.0272 139.07 36.6912C138.753 36.3459 138.506 35.9306 138.328 35.4452C138.151 34.9599 138.062 34.3999 138.062 33.7652C138.062 32.9252 138.207 32.2159 138.496 31.6372C138.786 31.0492 139.201 30.6059 139.742 30.3072C140.293 29.9992 140.942 29.8452 141.688 29.8452C142.398 29.8452 143.018 29.9992 143.55 30.3072C144.092 30.6059 144.516 31.0492 144.824 31.6372C145.132 32.2159 145.286 32.9252 145.286 33.7652ZM139.868 33.7652C139.868 34.2972 139.929 34.7546 140.05 35.1372C140.181 35.5106 140.377 35.7952 140.638 35.9912C140.909 36.1872 141.254 36.2852 141.674 36.2852C142.104 36.2852 142.449 36.1872 142.71 35.9912C142.981 35.7952 143.177 35.5106 143.298 35.1372C143.42 34.7546 143.48 34.2972 143.48 33.7652C143.48 33.2239 143.415 32.7712 143.284 32.4072C143.163 32.0339 142.967 31.7539 142.696 31.5672C142.435 31.3712 142.094 31.2732 141.674 31.2732C141.04 31.2732 140.578 31.4879 140.288 31.9172C140.008 32.3466 139.868 32.9626 139.868 33.7652ZM151.38 29.8452C152.266 29.8452 152.98 30.1766 153.522 30.8392C154.063 31.4926 154.334 32.4679 154.334 33.7652C154.334 34.6239 154.208 35.3472 153.956 35.9352C153.704 36.5232 153.354 36.9666 152.906 37.2652C152.458 37.5639 151.935 37.7132 151.338 37.7132C150.974 37.7132 150.652 37.6666 150.372 37.5732C150.092 37.4706 149.854 37.3446 149.658 37.1952C149.462 37.0366 149.294 36.8686 149.154 36.6912H149.042C149.079 36.8592 149.107 37.0506 149.126 37.2652C149.144 37.4706 149.154 37.6666 149.154 37.8532V40.9332H147.39V29.9852H148.818L149.07 30.9932H149.154C149.294 30.7786 149.462 30.5872 149.658 30.4192C149.863 30.2419 150.106 30.1019 150.386 29.9992C150.675 29.8966 151.006 29.8452 151.38 29.8452ZM150.876 31.2732C150.465 31.2732 150.134 31.3572 149.882 31.5252C149.63 31.6839 149.448 31.9312 149.336 32.2672C149.224 32.6032 149.163 33.0232 149.154 33.5272V33.7512C149.154 34.2926 149.205 34.7499 149.308 35.1232C149.42 35.4966 149.602 35.7812 149.854 35.9772C150.115 36.1732 150.465 36.2712 150.904 36.2712C151.277 36.2712 151.58 36.1686 151.814 35.9632C152.056 35.7579 152.234 35.4686 152.346 35.0952C152.467 34.7126 152.528 34.2599 152.528 33.7372C152.528 32.9532 152.392 32.3466 152.122 31.9172C151.86 31.4879 151.445 31.2732 150.876 31.2732Z" fill="#CBCBD7"/>
</svg>
