<svg width="160" height="53" viewBox="0 0 160 53" fill="none" xmlns="http://www.w3.org/2000/svg">
<rect x="0.5" y="1.07349" width="159" height="51" rx="7.5" stroke="#CBCBD7"/>
<path d="M43.494 31.5735V21.7735H45.244L48.562 28.2975L51.866 21.7735H53.616V31.5735H52.132V24.3355L49.136 30.1735H47.988L44.978 24.3495V31.5735H43.494ZM57.9033 31.7415C57.3153 31.7415 56.8299 31.6435 56.4473 31.4475C56.0646 31.2515 55.7799 30.9948 55.5933 30.6775C55.4066 30.3508 55.3133 29.9962 55.3133 29.6135C55.3133 28.9415 55.5746 28.4095 56.0973 28.0175C56.6199 27.6255 57.3666 27.4295 58.3373 27.4295H60.1573V27.3035C60.1573 26.7622 60.0079 26.3562 59.7093 26.0855C59.4199 25.8148 59.0419 25.6795 58.5753 25.6795C58.1646 25.6795 57.8053 25.7822 57.4973 25.9875C57.1986 26.1835 57.0166 26.4775 56.9513 26.8695H55.4673C55.5139 26.3655 55.6819 25.9362 55.9713 25.5815C56.2699 25.2175 56.6433 24.9422 57.0913 24.7555C57.5486 24.5595 58.0479 24.4615 58.5893 24.4615C59.5599 24.4615 60.3113 24.7182 60.8433 25.2315C61.3753 25.7355 61.6413 26.4262 61.6413 27.3035V31.5735H60.3533L60.2273 30.3835C60.0313 30.7662 59.7466 31.0882 59.3733 31.3495C58.9999 31.6108 58.5099 31.7415 57.9033 31.7415ZM58.1973 30.5375C58.5986 30.5375 58.9346 30.4442 59.2053 30.2575C59.4853 30.0615 59.6999 29.8048 59.8493 29.4875C60.0079 29.1702 60.1059 28.8202 60.1433 28.4375H58.4913C57.9033 28.4375 57.4833 28.5402 57.2313 28.7455C56.9886 28.9508 56.8673 29.2075 56.8673 29.5155C56.8673 29.8328 56.9839 30.0848 57.2173 30.2715C57.4599 30.4488 57.7866 30.5375 58.1973 30.5375ZM63.3716 31.5735V24.6295H64.6876L64.7996 25.8475C65.0143 25.4182 65.3269 25.0822 65.7376 24.8395C66.1576 24.5875 66.6383 24.4615 67.1796 24.4615C68.0196 24.4615 68.6776 24.7228 69.1536 25.2455C69.6389 25.7682 69.8816 26.5475 69.8816 27.5835V31.5735H68.4116V27.7375C68.4116 26.3935 67.8609 25.7215 66.7596 25.7215C66.2089 25.7215 65.7516 25.9175 65.3876 26.3095C65.0329 26.7015 64.8556 27.2615 64.8556 27.9895V31.5735H63.3716ZM72.2227 34.6535L73.8887 30.9995H73.4827L70.7387 24.6295H72.3487L74.4767 29.7675L76.7027 24.6295H78.2707L73.7907 34.6535H72.2227ZM83.0181 31.5735V24.6295H84.3341L84.4601 25.6095C84.6841 25.2548 84.9781 24.9748 85.3421 24.7695C85.7154 24.5642 86.1447 24.4615 86.6301 24.4615C87.7314 24.4615 88.4967 24.8955 88.9261 25.7635C89.1781 25.3622 89.5141 25.0448 89.9341 24.8115C90.3634 24.5782 90.8254 24.4615 91.3201 24.4615C92.1881 24.4615 92.8694 24.7228 93.3641 25.2455C93.8587 25.7682 94.1061 26.5475 94.1061 27.5835V31.5735H92.6221V27.7375C92.6221 26.3935 92.1087 25.7215 91.0821 25.7215C90.5594 25.7215 90.1301 25.9175 89.7941 26.3095C89.4674 26.7015 89.3041 27.2615 89.3041 27.9895V31.5735H87.8201V27.7375C87.8201 26.3935 87.3021 25.7215 86.2661 25.7215C85.7527 25.7215 85.3281 25.9175 84.9921 26.3095C84.6654 26.7015 84.5021 27.2615 84.5021 27.9895V31.5735H83.0181ZM99.0903 31.7415C98.4276 31.7415 97.8303 31.5922 97.2983 31.2935C96.7756 30.9855 96.3603 30.5608 96.0523 30.0195C95.7443 29.4688 95.5903 28.8295 95.5903 28.1015C95.5903 27.3735 95.7443 26.7388 96.0523 26.1975C96.3696 25.6468 96.7943 25.2222 97.3263 24.9235C97.8583 24.6155 98.451 24.4615 99.1043 24.4615C99.767 24.4615 100.36 24.6155 100.882 24.9235C101.414 25.2222 101.834 25.6468 102.142 26.1975C102.46 26.7388 102.618 27.3735 102.618 28.1015C102.618 28.8295 102.46 29.4688 102.142 30.0195C101.834 30.5608 101.414 30.9855 100.882 31.2935C100.35 31.5922 99.753 31.7415 99.0903 31.7415ZM99.0903 30.4675C99.445 30.4675 99.7716 30.3788 100.07 30.2015C100.378 30.0242 100.626 29.7628 100.812 29.4175C100.999 29.0628 101.092 28.6242 101.092 28.1015C101.092 27.5788 100.999 27.1448 100.812 26.7995C100.635 26.4448 100.392 26.1788 100.084 26.0015C99.7856 25.8242 99.459 25.7355 99.1043 25.7355C98.7496 25.7355 98.4183 25.8242 98.1103 26.0015C97.8116 26.1788 97.569 26.4448 97.3823 26.7995C97.1956 27.1448 97.1023 27.5788 97.1023 28.1015C97.1023 28.6242 97.1956 29.0628 97.3823 29.4175C97.569 29.7628 97.8116 30.0242 98.1103 30.2015C98.409 30.3788 98.7356 30.4675 99.0903 30.4675ZM104.223 31.5735V24.6295H105.553L105.679 25.9455C105.922 25.4882 106.258 25.1288 106.687 24.8675C107.126 24.5968 107.653 24.4615 108.269 24.4615V26.0155H107.863C107.452 26.0155 107.084 26.0855 106.757 26.2255C106.44 26.3562 106.183 26.5848 105.987 26.9115C105.8 27.2288 105.707 27.6722 105.707 28.2415V31.5735H104.223ZM112.598 31.7415C111.917 31.7415 111.31 31.5922 110.778 31.2935C110.255 30.9855 109.845 30.5608 109.546 30.0195C109.247 29.4782 109.098 28.8482 109.098 28.1295C109.098 27.4015 109.243 26.7622 109.532 26.2115C109.831 25.6608 110.241 25.2315 110.764 24.9235C111.296 24.6155 111.912 24.4615 112.612 24.4615C113.293 24.4615 113.886 24.6155 114.39 24.9235C114.894 25.2222 115.286 25.6235 115.566 26.1275C115.846 26.6315 115.986 27.1868 115.986 27.7935C115.986 27.8868 115.981 27.9895 115.972 28.1015C115.972 28.2042 115.967 28.3208 115.958 28.4515H110.554C110.601 29.1235 110.82 29.6368 111.212 29.9915C111.613 30.3368 112.075 30.5095 112.598 30.5095C113.018 30.5095 113.368 30.4162 113.648 30.2295C113.937 30.0335 114.152 29.7722 114.292 29.4455H115.776C115.589 30.0988 115.216 30.6448 114.656 31.0835C114.105 31.5222 113.419 31.7415 112.598 31.7415ZM112.598 25.6795C112.103 25.6795 111.665 25.8288 111.282 26.1275C110.899 26.4168 110.666 26.8555 110.582 27.4435H114.502C114.474 26.9022 114.283 26.4728 113.928 26.1555C113.573 25.8382 113.13 25.6795 112.598 25.6795Z" fill="white"/>
</svg>

