<svg width="160" height="53" viewBox="0 0 160 53" fill="none" xmlns="http://www.w3.org/2000/svg">
<rect x="0.5" y="1.07343" width="159" height="51" rx="7.5" fill="#08081A"/>
<rect x="0.5" y="1.07343" width="159" height="51" rx="7.5" stroke="#CBCBD7"/>
<path d="M43.494 31.5734V21.7734H45.244L48.562 28.2974L51.866 21.7734H53.616V31.5734H52.132V24.3354L49.136 30.1734H47.988L44.978 24.3494V31.5734H43.494ZM57.9033 31.7414C57.3153 31.7414 56.8299 31.6434 56.4473 31.4474C56.0646 31.2514 55.7799 30.9948 55.5933 30.6774C55.4066 30.3508 55.3133 29.9961 55.3133 29.6134C55.3133 28.9414 55.5746 28.4094 56.0973 28.0174C56.6199 27.6254 57.3666 27.4294 58.3373 27.4294H60.1573V27.3034C60.1573 26.7621 60.0079 26.3561 59.7093 26.0854C59.4199 25.8148 59.0419 25.6794 58.5753 25.6794C58.1646 25.6794 57.8053 25.7821 57.4973 25.9874C57.1986 26.1834 57.0166 26.4774 56.9513 26.8694H55.4673C55.5139 26.3654 55.6819 25.9361 55.9713 25.5814C56.2699 25.2174 56.6433 24.9421 57.0913 24.7554C57.5486 24.5594 58.0479 24.4614 58.5893 24.4614C59.5599 24.4614 60.3113 24.7181 60.8433 25.2314C61.3753 25.7354 61.6413 26.4261 61.6413 27.3034V31.5734H60.3533L60.2273 30.3834C60.0313 30.7661 59.7466 31.0881 59.3733 31.3494C58.9999 31.6108 58.5099 31.7414 57.9033 31.7414ZM58.1973 30.5374C58.5986 30.5374 58.9346 30.4441 59.2053 30.2574C59.4853 30.0614 59.6999 29.8048 59.8493 29.4874C60.0079 29.1701 60.1059 28.8201 60.1433 28.4374H58.4913C57.9033 28.4374 57.4833 28.5401 57.2313 28.7454C56.9886 28.9508 56.8673 29.2074 56.8673 29.5154C56.8673 29.8328 56.9839 30.0848 57.2173 30.2714C57.4599 30.4488 57.7866 30.5374 58.1973 30.5374ZM63.3716 31.5734V24.6294H64.6876L64.7996 25.8474C65.0143 25.4181 65.3269 25.0821 65.7376 24.8394C66.1576 24.5874 66.6383 24.4614 67.1796 24.4614C68.0196 24.4614 68.6776 24.7228 69.1536 25.2454C69.6389 25.7681 69.8816 26.5474 69.8816 27.5834V31.5734H68.4116V27.7374C68.4116 26.3934 67.8609 25.7214 66.7596 25.7214C66.2089 25.7214 65.7516 25.9174 65.3876 26.3094C65.0329 26.7014 64.8556 27.2614 64.8556 27.9894V31.5734H63.3716ZM72.2227 34.6534L73.8887 30.9994H73.4827L70.7387 24.6294H72.3487L74.4767 29.7674L76.7027 24.6294H78.2707L73.7907 34.6534H72.2227ZM83.0181 31.5734V24.6294H84.3341L84.4601 25.6094C84.6841 25.2548 84.9781 24.9748 85.3421 24.7694C85.7154 24.5641 86.1447 24.4614 86.6301 24.4614C87.7314 24.4614 88.4967 24.8954 88.9261 25.7634C89.1781 25.3621 89.5141 25.0448 89.9341 24.8114C90.3634 24.5781 90.8254 24.4614 91.3201 24.4614C92.1881 24.4614 92.8694 24.7228 93.3641 25.2454C93.8587 25.7681 94.1061 26.5474 94.1061 27.5834V31.5734H92.6221V27.7374C92.6221 26.3934 92.1087 25.7214 91.0821 25.7214C90.5594 25.7214 90.1301 25.9174 89.7941 26.3094C89.4674 26.7014 89.3041 27.2614 89.3041 27.9894V31.5734H87.8201V27.7374C87.8201 26.3934 87.3021 25.7214 86.2661 25.7214C85.7527 25.7214 85.3281 25.9174 84.9921 26.3094C84.6654 26.7014 84.5021 27.2614 84.5021 27.9894V31.5734H83.0181ZM99.0903 31.7414C98.4276 31.7414 97.8303 31.5921 97.2983 31.2934C96.7756 30.9854 96.3603 30.5608 96.0523 30.0194C95.7443 29.4688 95.5903 28.8294 95.5903 28.1014C95.5903 27.3734 95.7443 26.7388 96.0523 26.1974C96.3696 25.6468 96.7943 25.2221 97.3263 24.9234C97.8583 24.6154 98.451 24.4614 99.1043 24.4614C99.767 24.4614 100.36 24.6154 100.882 24.9234C101.414 25.2221 101.834 25.6468 102.142 26.1974C102.46 26.7388 102.618 27.3734 102.618 28.1014C102.618 28.8294 102.46 29.4688 102.142 30.0194C101.834 30.5608 101.414 30.9854 100.882 31.2934C100.35 31.5921 99.753 31.7414 99.0903 31.7414ZM99.0903 30.4674C99.445 30.4674 99.7716 30.3788 100.07 30.2014C100.378 30.0241 100.626 29.7628 100.812 29.4174C100.999 29.0628 101.092 28.6241 101.092 28.1014C101.092 27.5788 100.999 27.1448 100.812 26.7994C100.635 26.4448 100.392 26.1788 100.084 26.0014C99.7856 25.8241 99.459 25.7354 99.1043 25.7354C98.7496 25.7354 98.4183 25.8241 98.1103 26.0014C97.8116 26.1788 97.569 26.4448 97.3823 26.7994C97.1956 27.1448 97.1023 27.5788 97.1023 28.1014C97.1023 28.6241 97.1956 29.0628 97.3823 29.4174C97.569 29.7628 97.8116 30.0241 98.1103 30.2014C98.409 30.3788 98.7356 30.4674 99.0903 30.4674ZM104.223 31.5734V24.6294H105.553L105.679 25.9454C105.922 25.4881 106.258 25.1288 106.687 24.8674C107.126 24.5968 107.653 24.4614 108.269 24.4614V26.0154H107.863C107.452 26.0154 107.084 26.0854 106.757 26.2254C106.44 26.3561 106.183 26.5848 105.987 26.9114C105.8 27.2288 105.707 27.6721 105.707 28.2414V31.5734H104.223ZM112.598 31.7414C111.917 31.7414 111.31 31.5921 110.778 31.2934C110.255 30.9854 109.845 30.5608 109.546 30.0194C109.247 29.4781 109.098 28.8481 109.098 28.1294C109.098 27.4014 109.243 26.7621 109.532 26.2114C109.831 25.6608 110.241 25.2314 110.764 24.9234C111.296 24.6154 111.912 24.4614 112.612 24.4614C113.293 24.4614 113.886 24.6154 114.39 24.9234C114.894 25.2221 115.286 25.6234 115.566 26.1274C115.846 26.6314 115.986 27.1868 115.986 27.7934C115.986 27.8868 115.981 27.9894 115.972 28.1014C115.972 28.2041 115.967 28.3208 115.958 28.4514H110.554C110.601 29.1234 110.82 29.6368 111.212 29.9914C111.613 30.3368 112.075 30.5094 112.598 30.5094C113.018 30.5094 113.368 30.4161 113.648 30.2294C113.937 30.0334 114.152 29.7721 114.292 29.4454H115.776C115.589 30.0988 115.216 30.6448 114.656 31.0834C114.105 31.5221 113.419 31.7414 112.598 31.7414ZM112.598 25.6794C112.103 25.6794 111.665 25.8288 111.282 26.1274C110.899 26.4168 110.666 26.8554 110.582 27.4434H114.502C114.474 26.9021 114.283 26.4728 113.928 26.1554C113.573 25.8381 113.13 25.6794 112.598 25.6794Z" fill="white"/>
</svg>
