<svg width="220" height="65" viewBox="0 0 220 65" fill="none" xmlns="http://www.w3.org/2000/svg">
<rect y="0.57373" width="220" height="64" rx="8" fill="#3C38FE"/>
<path d="M54.112 34.8437C54.112 35.4317 53.9673 35.9404 53.678 36.3697C53.3887 36.7991 52.9687 37.1304 52.418 37.3637C51.8767 37.5971 51.228 37.7137 50.472 37.7137C50.108 37.7137 49.758 37.6904 49.422 37.6437C49.0953 37.6064 48.7827 37.5457 48.484 37.4617C48.1947 37.3777 47.924 37.2751 47.672 37.1537V35.4737C48.092 35.6604 48.554 35.8331 49.058 35.9917C49.562 36.1411 50.0753 36.2157 50.598 36.2157C50.9993 36.2157 51.326 36.1644 51.578 36.0617C51.8393 35.9497 52.0307 35.8004 52.152 35.6137C52.2733 35.4177 52.334 35.1937 52.334 34.9417C52.334 34.6617 52.2547 34.4237 52.096 34.2277C51.9373 34.0317 51.704 33.8497 51.396 33.6817C51.088 33.5137 50.7053 33.3364 50.248 33.1497C49.94 33.0191 49.6367 32.8744 49.338 32.7157C49.0487 32.5477 48.7873 32.3471 48.554 32.1137C48.3207 31.8804 48.134 31.6051 47.994 31.2877C47.854 30.9704 47.784 30.5971 47.784 30.1677C47.784 29.5984 47.9193 29.1084 48.19 28.6977C48.47 28.2871 48.8573 27.9744 49.352 27.7597C49.856 27.5451 50.4393 27.4377 51.102 27.4377C51.634 27.4377 52.1333 27.4937 52.6 27.6057C53.0667 27.7177 53.5287 27.8764 53.986 28.0817L53.412 29.5237C53.0013 29.3464 52.6047 29.2064 52.222 29.1037C51.8393 29.0011 51.4473 28.9497 51.046 28.9497C50.7287 28.9497 50.458 29.0011 50.234 29.1037C50.01 29.1971 49.842 29.3324 49.73 29.5097C49.618 29.6871 49.562 29.8924 49.562 30.1257C49.562 30.3964 49.632 30.6251 49.772 30.8117C49.912 30.9984 50.1267 31.1757 50.416 31.3437C50.7147 31.5024 51.0973 31.6844 51.564 31.8897C52.1053 32.1231 52.5627 32.3657 52.936 32.6177C53.3093 32.8697 53.5987 33.1731 53.804 33.5277C54.0093 33.8824 54.112 34.3211 54.112 34.8437ZM59.1633 29.8457C59.8446 29.8457 60.4279 29.9857 60.9133 30.2657C61.4079 30.5364 61.7906 30.9284 62.0613 31.4417C62.3319 31.9457 62.4673 32.5617 62.4673 33.2897V34.1857H57.4553C57.4739 34.8764 57.6653 35.4131 58.0293 35.7957C58.3933 36.1691 58.8973 36.3557 59.5413 36.3557C60.0359 36.3557 60.4746 36.3091 60.8573 36.2157C61.2493 36.1131 61.6506 35.9684 62.0613 35.7817V37.1957C61.6879 37.3731 61.3006 37.5037 60.8993 37.5877C60.4979 37.6717 60.0173 37.7137 59.4573 37.7137C58.7199 37.7137 58.0619 37.5737 57.4833 37.2937C56.9139 37.0044 56.4659 36.5704 56.1393 35.9917C55.8219 35.4131 55.6633 34.6944 55.6633 33.8357C55.6633 32.9677 55.8079 32.2397 56.0973 31.6517C56.3959 31.0544 56.8066 30.6064 57.3293 30.3077C57.8519 29.9997 58.4633 29.8457 59.1633 29.8457ZM59.1633 31.1477C58.6966 31.1477 58.3139 31.3017 58.0153 31.6097C57.7259 31.9084 57.5533 32.3564 57.4973 32.9537H60.7593C60.7593 32.5991 60.6986 32.2864 60.5773 32.0157C60.4653 31.7451 60.2926 31.5351 60.0593 31.3857C59.8259 31.2271 59.5273 31.1477 59.1633 31.1477ZM66.29 37.5737H64.526V26.9337H66.29V37.5737ZM72.7596 31.3157H70.9256V37.5737H69.1616V31.3157H67.9436V30.4757L69.1616 29.9717V29.4537C69.1616 28.8004 69.2642 28.2871 69.4696 27.9137C69.6749 27.5404 69.9736 27.2744 70.3656 27.1157C70.7576 26.9477 71.2196 26.8637 71.7516 26.8637C72.1249 26.8637 72.4609 26.8964 72.7596 26.9617C73.0582 27.0177 73.3056 27.0831 73.5016 27.1577L73.0536 28.4737C72.8949 28.4271 72.7176 28.3851 72.5216 28.3477C72.3349 28.3011 72.1296 28.2777 71.9056 28.2777C71.5696 28.2777 71.3222 28.3851 71.1636 28.5997C71.0049 28.8144 70.9256 29.1131 70.9256 29.4957V29.9857H72.7596V31.3157ZM73.6429 34.5637V33.0797H77.1989V34.5637H73.6429ZM80.8566 29.4677C80.8566 29.7664 80.8426 30.0604 80.8146 30.3497C80.7959 30.6297 80.7773 30.8397 80.7586 30.9797H80.8706C81.0293 30.7184 81.2253 30.5084 81.4586 30.3497C81.6919 30.1817 81.9486 30.0557 82.2286 29.9717C82.5179 29.8877 82.8166 29.8457 83.1246 29.8457C83.6939 29.8457 84.1839 29.9437 84.5946 30.1397C85.0053 30.3357 85.3179 30.6391 85.5326 31.0497C85.7566 31.4511 85.8686 31.9784 85.8686 32.6317V37.5737H84.1046V32.9817C84.1046 32.4031 83.9926 31.9737 83.7686 31.6937C83.5446 31.4137 83.1899 31.2737 82.7046 31.2737C82.2379 31.2737 81.8693 31.3764 81.5986 31.5817C81.3279 31.7777 81.1366 32.0717 81.0246 32.4637C80.9126 32.8464 80.8566 33.3177 80.8566 33.8777V37.5737H79.0926V26.9337H80.8566V29.4677ZM95.131 33.7657C95.131 34.4004 95.047 34.9604 94.879 35.4457C94.711 35.9311 94.4683 36.3464 94.151 36.6917C93.843 37.0277 93.4603 37.2844 93.003 37.4617C92.555 37.6297 92.0557 37.7137 91.505 37.7137C90.9823 37.7137 90.5017 37.6297 90.063 37.4617C89.6243 37.2844 89.2417 37.0277 88.915 36.6917C88.5977 36.3464 88.3503 35.9311 88.173 35.4457C87.9957 34.9604 87.907 34.4004 87.907 33.7657C87.907 32.9257 88.0517 32.2164 88.341 31.6377C88.6303 31.0497 89.0457 30.6064 89.587 30.3077C90.1377 29.9997 90.7863 29.8457 91.533 29.8457C92.2423 29.8457 92.863 29.9997 93.395 30.3077C93.9363 30.6064 94.361 31.0497 94.669 31.6377C94.977 32.2164 95.131 32.9257 95.131 33.7657ZM89.713 33.7657C89.713 34.2977 89.7737 34.7551 89.895 35.1377C90.0257 35.5111 90.2217 35.7957 90.483 35.9917C90.7537 36.1877 91.099 36.2857 91.519 36.2857C91.9483 36.2857 92.2937 36.1877 92.555 35.9917C92.8257 35.7957 93.0217 35.5111 93.143 35.1377C93.2643 34.7551 93.325 34.2977 93.325 33.7657C93.325 33.2244 93.2597 32.7717 93.129 32.4077C93.0077 32.0344 92.8117 31.7544 92.541 31.5677C92.2797 31.3717 91.939 31.2737 91.519 31.2737C90.8843 31.2737 90.4223 31.4884 90.133 31.9177C89.853 32.3471 89.713 32.9631 89.713 33.7657ZM102.401 35.3757C102.401 35.8797 102.279 36.3091 102.037 36.6637C101.794 37.0091 101.435 37.2704 100.959 37.4477C100.492 37.6251 99.918 37.7137 99.2366 37.7137C98.7046 37.7137 98.2473 37.6764 97.8646 37.6017C97.482 37.5271 97.118 37.4104 96.7726 37.2517V35.7537C97.146 35.9311 97.5613 36.0804 98.0186 36.2017C98.476 36.3231 98.9006 36.3837 99.2926 36.3837C99.778 36.3837 100.128 36.3091 100.343 36.1597C100.557 36.0104 100.665 35.8097 100.665 35.5577C100.665 35.4084 100.623 35.2731 100.539 35.1517C100.455 35.0304 100.291 34.9044 100.049 34.7737C99.806 34.6337 99.4373 34.4611 98.9426 34.2557C98.4573 34.0597 98.0513 33.8637 97.7246 33.6677C97.4073 33.4717 97.1646 33.2384 96.9966 32.9677C96.838 32.6877 96.7586 32.3377 96.7586 31.9177C96.7586 31.2364 97.0293 30.7231 97.5706 30.3777C98.112 30.0231 98.826 29.8457 99.7126 29.8457C100.179 29.8457 100.618 29.8924 101.029 29.9857C101.449 30.0697 101.869 30.2097 102.289 30.4057L101.729 31.7077C101.495 31.6051 101.262 31.5164 101.029 31.4417C100.805 31.3577 100.576 31.2924 100.343 31.2457C100.119 31.1991 99.89 31.1757 99.6566 31.1757C99.274 31.1757 98.9846 31.2364 98.7886 31.3577C98.5926 31.4697 98.4946 31.6284 98.4946 31.8337C98.4946 31.9924 98.5413 32.1324 98.6346 32.2537C98.7373 32.3657 98.91 32.4824 99.1526 32.6037C99.4046 32.7157 99.7593 32.8651 100.217 33.0517C100.674 33.2291 101.061 33.4157 101.379 33.6117C101.705 33.7984 101.957 34.0317 102.135 34.3117C102.312 34.5917 102.401 34.9464 102.401 35.3757ZM107.318 36.2997C107.542 36.2997 107.757 36.2811 107.962 36.2437C108.167 36.1971 108.359 36.1457 108.536 36.0897V37.4057C108.349 37.4897 108.107 37.5597 107.808 37.6157C107.509 37.6811 107.197 37.7137 106.87 37.7137C106.441 37.7137 106.049 37.6437 105.694 37.5037C105.349 37.3544 105.069 37.1024 104.854 36.7477C104.649 36.3931 104.546 35.8984 104.546 35.2637V31.3157H103.524V30.5457L104.644 29.9297L105.204 28.3197H106.31V29.9857H108.466V31.3157H106.31V35.2497C106.31 35.6044 106.403 35.8704 106.59 36.0477C106.777 36.2157 107.019 36.2997 107.318 36.2997ZM113.397 29.8457C114.079 29.8457 114.662 29.9857 115.147 30.2657C115.642 30.5364 116.025 30.9284 116.295 31.4417C116.566 31.9457 116.701 32.5617 116.701 33.2897V34.1857H111.689C111.708 34.8764 111.899 35.4131 112.263 35.7957C112.627 36.1691 113.131 36.3557 113.775 36.3557C114.27 36.3557 114.709 36.3091 115.091 36.2157C115.483 36.1131 115.885 35.9684 116.295 35.7817V37.1957C115.922 37.3731 115.535 37.5037 115.133 37.5877C114.732 37.6717 114.251 37.7137 113.691 37.7137C112.954 37.7137 112.296 37.5737 111.717 37.2937C111.148 37.0044 110.7 36.5704 110.373 35.9917C110.056 35.4131 109.897 34.6944 109.897 33.8357C109.897 32.9677 110.042 32.2397 110.331 31.6517C110.63 31.0544 111.041 30.6064 111.563 30.3077C112.086 29.9997 112.697 29.8457 113.397 29.8457ZM113.397 31.1477C112.931 31.1477 112.548 31.3017 112.249 31.6097C111.96 31.9084 111.787 32.3564 111.731 32.9537H114.993C114.993 32.5991 114.933 32.2864 114.811 32.0157C114.699 31.7451 114.527 31.5351 114.293 31.3857C114.06 31.2271 113.761 31.1477 113.397 31.1477ZM121.266 37.7137C120.389 37.7137 119.675 37.3871 119.124 36.7337C118.583 36.0711 118.312 35.0911 118.312 33.7937C118.312 32.4964 118.588 31.5164 119.138 30.8537C119.689 30.1817 120.412 29.8457 121.308 29.8457C121.682 29.8457 122.008 29.8971 122.288 29.9997C122.578 30.0931 122.825 30.2237 123.03 30.3917C123.236 30.5597 123.408 30.7464 123.548 30.9517H123.632C123.604 30.8211 123.576 30.6204 123.548 30.3497C123.52 30.0791 123.506 29.8271 123.506 29.5937V26.9337H125.27V37.5737H123.898L123.576 36.5797H123.506C123.366 36.7851 123.194 36.9764 122.988 37.1537C122.783 37.3217 122.54 37.4571 122.26 37.5597C121.98 37.6624 121.649 37.7137 121.266 37.7137ZM121.798 36.2857C122.452 36.2857 122.914 36.0991 123.184 35.7257C123.455 35.3524 123.59 34.7877 123.59 34.0317V33.8077C123.59 32.9864 123.46 32.3611 123.198 31.9317C122.946 31.5024 122.47 31.2877 121.77 31.2877C121.238 31.2877 120.828 31.5117 120.538 31.9597C120.249 32.3984 120.104 33.0191 120.104 33.8217C120.104 34.6244 120.249 35.2357 120.538 35.6557C120.828 36.0757 121.248 36.2857 121.798 36.2857ZM140.821 32.5617C140.821 33.3364 140.723 34.0411 140.527 34.6757C140.34 35.3011 140.051 35.8424 139.659 36.2997C139.276 36.7571 138.786 37.1071 138.189 37.3497C137.601 37.5924 136.91 37.7137 136.117 37.7137C135.314 37.7137 134.614 37.5924 134.017 37.3497C133.429 37.0977 132.943 36.7477 132.561 36.2997C132.178 35.8424 131.889 35.2964 131.693 34.6617C131.506 34.0271 131.413 33.3224 131.413 32.5477C131.413 31.5117 131.581 30.6111 131.917 29.8457C132.262 29.0804 132.78 28.4877 133.471 28.0677C134.171 27.6384 135.057 27.4237 136.131 27.4237C137.185 27.4237 138.058 27.6384 138.749 28.0677C139.439 28.4877 139.957 29.0851 140.303 29.8597C140.648 30.6251 140.821 31.5257 140.821 32.5617ZM133.303 32.5617C133.303 33.3177 133.401 33.9664 133.597 34.5077C133.802 35.0491 134.11 35.4644 134.521 35.7537C134.941 36.0431 135.473 36.1877 136.117 36.1877C136.779 36.1877 137.316 36.0431 137.727 35.7537C138.137 35.4644 138.441 35.0491 138.637 34.5077C138.833 33.9664 138.931 33.3177 138.931 32.5617C138.931 31.4324 138.711 30.5457 138.273 29.9017C137.834 29.2577 137.12 28.9357 136.131 28.9357C135.477 28.9357 134.941 29.0804 134.521 29.3697C134.11 29.6591 133.802 30.0744 133.597 30.6157C133.401 31.1571 133.303 31.8057 133.303 32.5617ZM147.121 29.8457C147.97 29.8457 148.633 30.0651 149.109 30.5037C149.594 30.9424 149.837 31.6517 149.837 32.6317V37.5737H148.073V32.9817C148.073 32.4124 147.961 31.9877 147.737 31.7077C147.513 31.4184 147.158 31.2737 146.673 31.2737C145.964 31.2737 145.478 31.4977 145.217 31.9457C144.956 32.3844 144.825 33.0237 144.825 33.8637V37.5737H143.061V29.9857H144.419L144.671 30.9797H144.769C144.937 30.7184 145.142 30.5037 145.385 30.3357C145.628 30.1677 145.898 30.0464 146.197 29.9717C146.496 29.8877 146.804 29.8457 147.121 29.8457ZM160.23 29.8457C161.117 29.8457 161.831 30.1771 162.372 30.8397C162.914 31.4931 163.184 32.4684 163.184 33.7657C163.184 34.6244 163.058 35.3477 162.806 35.9357C162.554 36.5237 162.204 36.9671 161.756 37.2657C161.308 37.5644 160.786 37.7137 160.188 37.7137C159.824 37.7137 159.502 37.6671 159.222 37.5737C158.942 37.4711 158.704 37.3451 158.508 37.1957C158.312 37.0371 158.144 36.8691 158.004 36.6917H157.892C157.93 36.8597 157.958 37.0511 157.976 37.2657C157.995 37.4711 158.004 37.6671 158.004 37.8537V40.9337H156.24V29.9857H157.668L157.92 30.9937H158.004C158.144 30.7791 158.312 30.5877 158.508 30.4197C158.714 30.2424 158.956 30.1024 159.236 29.9997C159.526 29.8971 159.857 29.8457 160.23 29.8457ZM159.726 31.2737C159.316 31.2737 158.984 31.3577 158.732 31.5257C158.48 31.6844 158.298 31.9317 158.186 32.2677C158.074 32.6037 158.014 33.0237 158.004 33.5277V33.7517C158.004 34.2931 158.056 34.7504 158.158 35.1237C158.27 35.4971 158.452 35.7817 158.704 35.9777C158.966 36.1737 159.316 36.2717 159.754 36.2717C160.128 36.2717 160.431 36.1691 160.664 35.9637C160.907 35.7584 161.084 35.4691 161.196 35.0957C161.318 34.7131 161.378 34.2604 161.378 33.7377C161.378 32.9537 161.243 32.3471 160.972 31.9177C160.711 31.4884 160.296 31.2737 159.726 31.2737ZM169.26 29.8457C169.372 29.8457 169.503 29.8504 169.652 29.8597C169.801 29.8691 169.927 29.8877 170.03 29.9157L169.876 31.5537C169.792 31.5351 169.68 31.5211 169.54 31.5117C169.409 31.4931 169.293 31.4837 169.19 31.4837C168.91 31.4837 168.639 31.5304 168.378 31.6237C168.126 31.7077 167.897 31.8384 167.692 32.0157C167.496 32.1837 167.337 32.4031 167.216 32.6737C167.104 32.9444 167.048 33.2664 167.048 33.6397V37.5737H165.284V29.9857H166.642L166.894 31.3017H166.978C167.127 31.0311 167.314 30.7884 167.538 30.5737C167.762 30.3497 168.019 30.1724 168.308 30.0417C168.607 29.9111 168.924 29.8457 169.26 29.8457ZM174.495 29.8457C175.176 29.8457 175.759 29.9857 176.245 30.2657C176.739 30.5364 177.122 30.9284 177.393 31.4417C177.663 31.9457 177.799 32.5617 177.799 33.2897V34.1857H172.787C172.805 34.8764 172.997 35.4131 173.361 35.7957C173.725 36.1691 174.229 36.3557 174.873 36.3557C175.367 36.3557 175.806 36.3091 176.189 36.2157C176.581 36.1131 176.982 35.9684 177.393 35.7817V37.1957C177.019 37.3731 176.632 37.5037 176.231 37.5877C175.829 37.6717 175.349 37.7137 174.789 37.7137C174.051 37.7137 173.393 37.5737 172.815 37.2937C172.245 37.0044 171.797 36.5704 171.471 35.9917C171.153 35.4131 170.995 34.6944 170.995 33.8357C170.995 32.9677 171.139 32.2397 171.429 31.6517C171.727 31.0544 172.138 30.6064 172.661 30.3077C173.183 29.9997 173.795 29.8457 174.495 29.8457ZM174.495 31.1477C174.028 31.1477 173.645 31.3017 173.347 31.6097C173.057 31.9084 172.885 32.3564 172.829 32.9537H176.091C176.091 32.5991 176.03 32.2864 175.909 32.0157C175.797 31.7451 175.624 31.5351 175.391 31.3857C175.157 31.2271 174.859 31.1477 174.495 31.1477ZM188.552 29.8457C189.41 29.8457 190.054 30.0651 190.484 30.5037C190.922 30.9424 191.142 31.6517 191.142 32.6317V37.5737H189.378V32.9677C189.378 32.4077 189.275 31.9877 189.07 31.7077C188.864 31.4184 188.538 31.2737 188.09 31.2737C187.474 31.2737 187.035 31.4744 186.774 31.8757C186.512 32.2771 186.382 32.8604 186.382 33.6257V37.5737H184.618V32.9677C184.618 32.5944 184.571 32.2817 184.478 32.0297C184.384 31.7777 184.24 31.5911 184.044 31.4697C183.857 31.3391 183.614 31.2737 183.316 31.2737C182.896 31.2737 182.56 31.3764 182.308 31.5817C182.056 31.7777 181.878 32.0671 181.776 32.4497C181.673 32.8324 181.622 33.3037 181.622 33.8637V37.5737H179.858V29.9857H181.216L181.468 30.9797H181.566C181.724 30.7184 181.916 30.5037 182.14 30.3357C182.373 30.1677 182.63 30.0464 182.91 29.9717C183.199 29.8877 183.488 29.8457 183.778 29.8457C184.347 29.8457 184.828 29.9437 185.22 30.1397C185.612 30.3264 185.906 30.6204 186.102 31.0217H186.242C186.475 30.6111 186.802 30.3124 187.222 30.1257C187.651 29.9391 188.094 29.8457 188.552 29.8457Z" fill="#CBCBD7"/>
</svg>
