<svg width="220" height="65" viewBox="0 0 220 65" fill="none" xmlns="http://www.w3.org/2000/svg">
<rect y="0.573242" width="220" height="64" rx="8" fill="#795CFA"/>
<path d="M94.478 32.4772C94.478 33.5972 94.2633 34.5352 93.834 35.2912C93.414 36.0472 92.8027 36.6166 92 36.9992C91.2067 37.3819 90.2453 37.5732 89.116 37.5732H86.302V27.5772H89.41C90.446 27.5772 91.342 27.7639 92.098 28.1372C92.854 28.5106 93.4373 29.0612 93.848 29.7892C94.268 30.5079 94.478 31.4039 94.478 32.4772ZM92.602 32.5332C92.602 31.7399 92.4807 31.0866 92.238 30.5732C91.9953 30.0599 91.636 29.6819 91.16 29.4392C90.684 29.1872 90.1007 29.0612 89.41 29.0612H88.094V36.0752H89.172C90.3293 36.0752 91.188 35.7812 91.748 35.1932C92.3173 34.5959 92.602 33.7092 92.602 32.5332ZM103.499 33.7652C103.499 34.3999 103.415 34.9599 103.247 35.4452C103.079 35.9306 102.836 36.3459 102.519 36.6912C102.211 37.0272 101.828 37.2839 101.371 37.4612C100.923 37.6292 100.423 37.7132 99.8726 37.7132C99.3499 37.7132 98.8693 37.6292 98.4306 37.4612C97.9919 37.2839 97.6093 37.0272 97.2826 36.6912C96.9653 36.3459 96.7179 35.9306 96.5406 35.4452C96.3633 34.9599 96.2746 34.3999 96.2746 33.7652C96.2746 32.9252 96.4193 32.2159 96.7086 31.6372C96.9979 31.0492 97.4133 30.6059 97.9546 30.3072C98.5053 29.9992 99.1539 29.8452 99.9006 29.8452C100.61 29.8452 101.231 29.9992 101.763 30.3072C102.304 30.6059 102.729 31.0492 103.037 31.6372C103.345 32.2159 103.499 32.9252 103.499 33.7652ZM98.0806 33.7652C98.0806 34.2972 98.1413 34.7546 98.2626 35.1372C98.3933 35.5106 98.5893 35.7952 98.8506 35.9912C99.1213 36.1872 99.4666 36.2852 99.8866 36.2852C100.316 36.2852 100.661 36.1872 100.923 35.9912C101.193 35.7952 101.389 35.5106 101.511 35.1372C101.632 34.7546 101.693 34.2972 101.693 33.7652C101.693 33.2239 101.627 32.7712 101.497 32.4072C101.375 32.0339 101.179 31.7539 100.909 31.5672C100.647 31.3712 100.307 31.2732 99.8866 31.2732C99.2519 31.2732 98.7899 31.4879 98.5006 31.9172C98.2206 32.3466 98.0806 32.9626 98.0806 33.7652ZM108.668 37.7132C107.95 37.7132 107.324 37.5779 106.792 37.3072C106.27 37.0272 105.864 36.6026 105.574 36.0332C105.294 35.4546 105.154 34.7172 105.154 33.8212C105.154 32.8879 105.308 32.1319 105.616 31.5532C105.934 30.9652 106.368 30.5359 106.918 30.2652C107.469 29.9852 108.099 29.8452 108.808 29.8452C109.284 29.8452 109.709 29.8919 110.082 29.9852C110.456 30.0786 110.773 30.1906 111.034 30.3212L110.516 31.7072C110.227 31.5952 109.938 31.5019 109.648 31.4272C109.359 31.3432 109.079 31.3012 108.808 31.3012C108.388 31.3012 108.038 31.3946 107.758 31.5812C107.488 31.7679 107.287 32.0479 107.156 32.4212C107.026 32.7852 106.96 33.2472 106.96 33.8072C106.96 34.3486 107.026 34.8012 107.156 35.1652C107.296 35.5292 107.502 35.8046 107.772 35.9912C108.043 36.1686 108.379 36.2572 108.78 36.2572C109.21 36.2572 109.588 36.2059 109.914 36.1032C110.241 36.0006 110.549 35.8606 110.838 35.6832V37.2092C110.549 37.3866 110.236 37.5126 109.9 37.5872C109.574 37.6712 109.163 37.7132 108.668 37.7132ZM114.646 31.9872C114.646 32.2299 114.637 32.4866 114.618 32.7572C114.599 33.0186 114.581 33.2752 114.562 33.5272H114.604C114.679 33.4152 114.767 33.2939 114.87 33.1632C114.973 33.0232 115.075 32.8879 115.178 32.7572C115.29 32.6172 115.397 32.4912 115.5 32.3792L117.74 29.9852H119.742L116.704 33.2612L119.938 37.5732H117.88L115.528 34.3252L114.646 35.0532V37.5732H112.896V26.9332H114.646V31.9872ZM124.458 29.8452C125.14 29.8452 125.723 29.9852 126.208 30.2652C126.703 30.5359 127.086 30.9279 127.356 31.4412C127.627 31.9452 127.762 32.5612 127.762 33.2892V34.1852H122.75C122.769 34.8759 122.96 35.4126 123.324 35.7952C123.688 36.1686 124.192 36.3552 124.836 36.3552C125.331 36.3552 125.77 36.3086 126.152 36.2152C126.544 36.1126 126.946 35.9679 127.356 35.7812V37.1952C126.983 37.3726 126.596 37.5032 126.194 37.5872C125.793 37.6712 125.312 37.7132 124.752 37.7132C124.015 37.7132 123.357 37.5732 122.778 37.2932C122.209 37.0039 121.761 36.5699 121.434 35.9912C121.117 35.4126 120.958 34.6939 120.958 33.8352C120.958 32.9672 121.103 32.2392 121.392 31.6512C121.691 31.0539 122.102 30.6059 122.624 30.3072C123.147 29.9992 123.758 29.8452 124.458 29.8452ZM124.458 31.1472C123.992 31.1472 123.609 31.3012 123.31 31.6092C123.021 31.9079 122.848 32.3559 122.792 32.9532H126.054C126.054 32.5986 125.994 32.2859 125.872 32.0152C125.76 31.7446 125.588 31.5346 125.354 31.3852C125.121 31.2266 124.822 31.1472 124.458 31.1472ZM133.797 29.8452C133.909 29.8452 134.04 29.8499 134.189 29.8592C134.338 29.8686 134.464 29.8872 134.567 29.9152L134.413 31.5532C134.329 31.5346 134.217 31.5206 134.077 31.5112C133.946 31.4926 133.83 31.4832 133.727 31.4832C133.447 31.4832 133.176 31.5299 132.915 31.6232C132.663 31.7072 132.434 31.8379 132.229 32.0152C132.033 32.1832 131.874 32.4026 131.753 32.6732C131.641 32.9439 131.585 33.2659 131.585 33.6392V37.5732H129.821V29.9852H131.179L131.431 31.3012H131.515C131.664 31.0306 131.851 30.7879 132.075 30.5732C132.299 30.3492 132.556 30.1719 132.845 30.0412C133.144 29.9106 133.461 29.8452 133.797 29.8452Z" fill="#CBCBD7"/>
</svg>
