<svg width="64" height="65" viewBox="0 0 64 65" fill="none" xmlns="http://www.w3.org/2000/svg">
<circle cx="32" cy="32.5734" r="32" fill="#B1B9FF"/>
<path fill-rule="evenodd" clip-rule="evenodd" d="M41.8898 28.3797L40.6353 28.1528L40.3947 26.903C40.0962 25.2633 39.3306 23.7447 38.1898 22.5296C37.049 21.3146 35.5815 20.4548 33.9638 20.0537C32.915 19.8043 31.8281 19.7574 30.7617 19.9156C28.9849 20.2082 27.3423 21.0438 26.0595 22.3075C24.7767 23.5713 23.9167 25.2012 23.5975 26.9734L23.3704 28.1528L21.9373 28.4121C21.1783 28.5492 20.4538 28.8351 19.8057 29.2532C19.1575 29.6713 18.5985 30.2135 18.1606 30.8485C17.7228 31.4835 17.4149 32.1988 17.2545 32.9533C17.0942 33.7077 17.0846 34.4864 17.2264 35.2446C17.5095 36.6073 18.2587 37.8287 19.3452 38.6986C20.4316 39.5686 21.7873 40.0326 23.1789 40.0109H29.875V42.1359H23.2583C21.2743 42.164 19.348 41.4686 17.8394 40.1798C16.3308 38.8909 15.3432 37.0968 15.0612 35.1327C14.815 33.112 15.351 31.0736 16.5592 29.4353C17.7674 27.7969 19.5564 26.6827 21.5597 26.3208C21.8232 24.9493 22.3544 23.6433 23.123 22.4772C23.8915 21.3112 24.8824 20.3081 26.0389 19.5252C27.1954 18.7424 28.4948 18.1951 29.8629 17.9148C31.231 17.6344 32.641 17.6265 34.0122 17.8913C36.0997 18.2922 38.0191 19.3096 39.5226 20.8122C41.0262 22.3148 42.0448 24.2335 42.447 26.3208C44.3756 26.6696 46.1081 27.7168 47.3135 29.2622C48.5189 30.8076 49.1127 32.7429 48.9814 34.6984H46.8253C46.9247 33.736 46.7802 32.7641 46.405 31.8723C46.0298 30.9805 45.436 30.1976 44.6785 29.5957C43.8653 28.9634 42.9065 28.5453 41.8898 28.3797ZM41.5625 40.0109H46.875V42.1359H41.5625V47.4484H39.4375V42.1359H34.125V40.0109H39.4375V34.6984H41.5625V40.0109Z" fill="#5552FF"/>
</svg>
