<svg width="374" height="218" viewBox="0 0 374 218" fill="none" xmlns="http://www.w3.org/2000/svg">
<g filter="url(#filter0_d_997_959)">
<rect x="17" y="13.5737" width="340" height="183" rx="8" fill="#6D7CFF" shape-rendering="crispEdges"/>
<rect x="17.5" y="14.0737" width="339" height="182" rx="7.5" stroke="#5552FF" shape-rendering="crispEdges"/>
<g clip-path="url(#clip0_997_959)">
<rect x="27" y="33.5737" width="319" height="95" rx="6" fill="#1C1C46"/>
<rect x="242.5" y="46.0737" width="94" height="20" rx="7.5" stroke="#1C1C46"/>
<path d="M250.74 59.5737V52.5737H251.72L254.24 57.4537L256.74 52.5737H257.73V59.5737H256.89V54.0737L254.55 58.5737H253.92L251.58 54.0837V59.5737H250.74ZM260.807 59.6937C260.393 59.6937 260.05 59.6237 259.777 59.4837C259.503 59.3437 259.3 59.1571 259.167 58.9237C259.033 58.6904 258.967 58.4371 258.967 58.1637C258.967 57.6571 259.16 57.2671 259.547 56.9937C259.933 56.7204 260.46 56.5837 261.127 56.5837H262.467V56.5237C262.467 56.0904 262.353 55.7637 262.127 55.5437C261.9 55.3171 261.597 55.2037 261.217 55.2037C260.89 55.2037 260.607 55.2871 260.367 55.4537C260.133 55.6137 259.987 55.8504 259.927 56.1637H259.067C259.1 55.8037 259.22 55.5004 259.427 55.2537C259.64 55.0071 259.903 54.8204 260.217 54.6937C260.53 54.5604 260.863 54.4937 261.217 54.4937C261.91 54.4937 262.43 54.6804 262.777 55.0537C263.13 55.4204 263.307 55.9104 263.307 56.5237V59.5737H262.557L262.507 58.6837C262.367 58.9637 262.16 59.2037 261.887 59.4037C261.62 59.5971 261.26 59.6937 260.807 59.6937ZM260.937 58.9837C261.257 58.9837 261.53 58.9004 261.757 58.7337C261.99 58.5671 262.167 58.3504 262.287 58.0837C262.407 57.8171 262.467 57.5371 262.467 57.2437V57.2337H261.197C260.703 57.2337 260.353 57.3204 260.147 57.4937C259.947 57.6604 259.847 57.8704 259.847 58.1237C259.847 58.3837 259.94 58.5937 260.127 58.7537C260.32 58.9071 260.59 58.9837 260.937 58.9837ZM266.847 59.6937C266.374 59.6937 265.947 59.5871 265.567 59.3737C265.194 59.1537 264.897 58.8504 264.677 58.4637C264.464 58.0704 264.357 57.6137 264.357 57.0937C264.357 56.5737 264.464 56.1204 264.677 55.7337C264.897 55.3404 265.194 55.0371 265.567 54.8237C265.947 54.6037 266.374 54.4937 266.847 54.4937C267.434 54.4937 267.927 54.6471 268.327 54.9537C268.734 55.2604 268.99 55.6704 269.097 56.1837H268.237C268.17 55.8771 268.007 55.6404 267.747 55.4737C267.487 55.3004 267.184 55.2137 266.837 55.2137C266.557 55.2137 266.294 55.2837 266.047 55.4237C265.8 55.5637 265.6 55.7737 265.447 56.0537C265.294 56.3337 265.217 56.6804 265.217 57.0937C265.217 57.5071 265.294 57.8537 265.447 58.1337C265.6 58.4137 265.8 58.6271 266.047 58.7737C266.294 58.9137 266.557 58.9837 266.837 58.9837C267.184 58.9837 267.487 58.9004 267.747 58.7337C268.007 58.5604 268.17 58.3171 268.237 58.0037H269.097C268.997 58.5037 268.744 58.9104 268.337 59.2237C267.93 59.5371 267.434 59.6937 266.847 59.6937ZM270.27 59.5737V52.3737H271.11V55.4637C271.277 55.1571 271.513 54.9204 271.82 54.7537C272.127 54.5804 272.46 54.4937 272.82 54.4937C273.393 54.4937 273.853 54.6737 274.2 55.0337C274.547 55.3871 274.72 55.9337 274.72 56.6737V59.5737H273.89V56.7637C273.89 55.7304 273.473 55.2137 272.64 55.2137C272.207 55.2137 271.843 55.3704 271.55 55.6837C271.257 55.9904 271.11 56.4304 271.11 57.0037V59.5737H270.27ZM276.503 53.5137C276.336 53.5137 276.196 53.4604 276.083 53.3537C275.976 53.2404 275.923 53.1004 275.923 52.9337C275.923 52.7737 275.976 52.6404 276.083 52.5337C276.196 52.4271 276.336 52.3737 276.503 52.3737C276.663 52.3737 276.799 52.4271 276.913 52.5337C277.026 52.6404 277.083 52.7737 277.083 52.9337C277.083 53.1004 277.026 53.2404 276.913 53.3537C276.799 53.4604 276.663 53.5137 276.503 53.5137ZM276.083 59.5737V54.6137H276.923V59.5737H276.083ZM278.385 59.5737V54.6137H279.145L279.195 55.5037C279.355 55.1904 279.585 54.9437 279.885 54.7637C280.185 54.5837 280.525 54.4937 280.905 54.4937C281.492 54.4937 281.959 54.6737 282.305 55.0337C282.659 55.3871 282.835 55.9337 282.835 56.6737V59.5737H281.995V56.7637C281.995 55.7304 281.569 55.2137 280.715 55.2137C280.289 55.2137 279.932 55.3704 279.645 55.6837C279.365 55.9904 279.225 56.4304 279.225 57.0037V59.5737H278.385ZM286.338 59.6937C285.865 59.6937 285.445 59.5871 285.078 59.3737C284.711 59.1537 284.421 58.8504 284.208 58.4637C284.001 58.0771 283.898 57.6204 283.898 57.0937C283.898 56.5737 284.001 56.1204 284.208 55.7337C284.415 55.3404 284.701 55.0371 285.068 54.8237C285.441 54.6037 285.871 54.4937 286.358 54.4937C286.838 54.4937 287.251 54.6037 287.598 54.8237C287.951 55.0371 288.221 55.3204 288.408 55.6737C288.595 56.0271 288.688 56.4071 288.688 56.8137C288.688 56.8871 288.685 56.9604 288.678 57.0337C288.678 57.1071 288.678 57.1904 288.678 57.2837H284.728C284.748 57.6637 284.835 57.9804 284.988 58.2337C285.148 58.4804 285.345 58.6671 285.578 58.7937C285.818 58.9204 286.071 58.9837 286.338 58.9837C286.685 58.9837 286.975 58.9037 287.208 58.7437C287.441 58.5837 287.611 58.3671 287.718 58.0937H288.548C288.415 58.5537 288.158 58.9371 287.778 59.2437C287.405 59.5437 286.925 59.6937 286.338 59.6937ZM286.338 55.2037C285.938 55.2037 285.581 55.3271 285.268 55.5737C284.961 55.8137 284.785 56.1671 284.738 56.6337H287.858C287.838 56.1871 287.685 55.8371 287.398 55.5837C287.111 55.3304 286.758 55.2037 286.338 55.2037ZM292.448 59.5737V52.3737H293.288V59.5737H292.448ZM296.895 59.6937C296.421 59.6937 296.001 59.5871 295.635 59.3737C295.268 59.1537 294.978 58.8504 294.765 58.4637C294.558 58.0771 294.455 57.6204 294.455 57.0937C294.455 56.5737 294.558 56.1204 294.765 55.7337C294.971 55.3404 295.258 55.0371 295.625 54.8237C295.998 54.6037 296.428 54.4937 296.915 54.4937C297.395 54.4937 297.808 54.6037 298.155 54.8237C298.508 55.0371 298.778 55.3204 298.965 55.6737C299.151 56.0271 299.245 56.4071 299.245 56.8137C299.245 56.8871 299.241 56.9604 299.235 57.0337C299.235 57.1071 299.235 57.1904 299.235 57.2837H295.285C295.305 57.6637 295.391 57.9804 295.545 58.2337C295.705 58.4804 295.901 58.6671 296.135 58.7937C296.375 58.9204 296.628 58.9837 296.895 58.9837C297.241 58.9837 297.531 58.9037 297.765 58.7437C297.998 58.5837 298.168 58.3671 298.275 58.0937H299.105C298.971 58.5537 298.715 58.9371 298.335 59.2437C297.961 59.5437 297.481 59.6937 296.895 59.6937ZM296.895 55.2037C296.495 55.2037 296.138 55.3271 295.825 55.5737C295.518 55.8137 295.341 56.1671 295.295 56.6337H298.415C298.395 56.1871 298.241 55.8371 297.955 55.5837C297.668 55.3304 297.315 55.2037 296.895 55.2037ZM302.008 59.6937C301.595 59.6937 301.251 59.6237 300.978 59.4837C300.705 59.3437 300.501 59.1571 300.368 58.9237C300.235 58.6904 300.168 58.4371 300.168 58.1637C300.168 57.6571 300.361 57.2671 300.748 56.9937C301.135 56.7204 301.661 56.5837 302.328 56.5837H303.668V56.5237C303.668 56.0904 303.555 55.7637 303.328 55.5437C303.101 55.3171 302.798 55.2037 302.418 55.2037C302.091 55.2037 301.808 55.2871 301.568 55.4537C301.335 55.6137 301.188 55.8504 301.128 56.1637H300.268C300.301 55.8037 300.421 55.5004 300.628 55.2537C300.841 55.0071 301.105 54.8204 301.418 54.6937C301.731 54.5604 302.065 54.4937 302.418 54.4937C303.111 54.4937 303.631 54.6804 303.978 55.0537C304.331 55.4204 304.508 55.9104 304.508 56.5237V59.5737H303.758L303.708 58.6837C303.568 58.9637 303.361 59.2037 303.088 59.4037C302.821 59.5971 302.461 59.6937 302.008 59.6937ZM302.138 58.9837C302.458 58.9837 302.731 58.9004 302.958 58.7337C303.191 58.5671 303.368 58.3504 303.488 58.0837C303.608 57.8171 303.668 57.5371 303.668 57.2437V57.2337H302.398C301.905 57.2337 301.555 57.3204 301.348 57.4937C301.148 57.6604 301.048 57.8704 301.048 58.1237C301.048 58.3837 301.141 58.5937 301.328 58.7537C301.521 58.9071 301.791 58.9837 302.138 58.9837ZM305.768 59.5737V54.6137H306.528L306.598 55.5637C306.751 55.2371 306.985 54.9771 307.298 54.7837C307.611 54.5904 307.998 54.4937 308.458 54.4937V55.3737H308.228C307.935 55.3737 307.665 55.4271 307.418 55.5337C307.171 55.6337 306.975 55.8071 306.828 56.0537C306.681 56.3004 306.608 56.6404 306.608 57.0737V59.5737H305.768ZM309.401 59.5737V54.6137H310.161L310.211 55.5037C310.371 55.1904 310.601 54.9437 310.901 54.7637C311.201 54.5837 311.541 54.4937 311.921 54.4937C312.508 54.4937 312.974 54.6737 313.321 55.0337C313.674 55.3871 313.851 55.9337 313.851 56.6737V59.5737H313.011V56.7637C313.011 55.7304 312.584 55.2137 311.731 55.2137C311.304 55.2137 310.948 55.3704 310.661 55.6837C310.381 55.9904 310.241 56.4304 310.241 57.0037V59.5737H309.401ZM315.634 53.5137C315.467 53.5137 315.327 53.4604 315.214 53.3537C315.107 53.2404 315.054 53.1004 315.054 52.9337C315.054 52.7737 315.107 52.6404 315.214 52.5337C315.327 52.4271 315.467 52.3737 315.634 52.3737C315.794 52.3737 315.93 52.4271 316.044 52.5337C316.157 52.6404 316.214 52.7737 316.214 52.9337C316.214 53.1004 316.157 53.2404 316.044 53.3537C315.93 53.4604 315.794 53.5137 315.634 53.5137ZM315.214 59.5737V54.6137H316.054V59.5737H315.214ZM317.516 59.5737V54.6137H318.276L318.326 55.5037C318.486 55.1904 318.716 54.9437 319.016 54.7637C319.316 54.5837 319.656 54.4937 320.036 54.4937C320.623 54.4937 321.09 54.6737 321.436 55.0337C321.79 55.3871 321.966 55.9337 321.966 56.6737V59.5737H321.126V56.7637C321.126 55.7304 320.7 55.2137 319.846 55.2137C319.42 55.2137 319.063 55.3704 318.776 55.6837C318.496 55.9904 318.356 56.4304 318.356 57.0037V59.5737H317.516ZM325.199 58.0137C324.919 58.0137 324.662 57.9771 324.429 57.9037L323.929 58.3737C324.002 58.4271 324.092 58.4737 324.199 58.5137C324.312 58.5471 324.472 58.5804 324.679 58.6137C324.885 58.6404 325.175 58.6704 325.549 58.7037C326.215 58.7504 326.692 58.9037 326.979 59.1637C327.265 59.4237 327.409 59.7637 327.409 60.1837C327.409 60.4704 327.329 60.7437 327.169 61.0037C327.015 61.2637 326.775 61.4771 326.449 61.6437C326.129 61.8104 325.715 61.8937 325.209 61.8937C324.762 61.8937 324.365 61.8337 324.019 61.7137C323.672 61.6004 323.402 61.4237 323.209 61.1837C323.015 60.9504 322.919 60.6537 322.919 60.2937C322.919 60.1071 322.969 59.9037 323.069 59.6837C323.169 59.4704 323.355 59.2671 323.629 59.0737C323.482 59.0137 323.355 58.9504 323.249 58.8837C323.149 58.8104 323.055 58.7304 322.969 58.6437V58.4137L323.819 57.5737C323.425 57.2404 323.229 56.8004 323.229 56.2537C323.229 55.9271 323.305 55.6304 323.459 55.3637C323.612 55.0971 323.835 54.8871 324.129 54.7337C324.422 54.5737 324.779 54.4937 325.199 54.4937C325.485 54.4937 325.745 54.5337 325.979 54.6137H327.809V55.2437L326.879 55.2837C327.072 55.5637 327.169 55.8871 327.169 56.2537C327.169 56.5804 327.089 56.8771 326.929 57.1437C326.775 57.4104 326.552 57.6237 326.259 57.7837C325.972 57.9371 325.619 58.0137 325.199 58.0137ZM325.199 57.3237C325.552 57.3237 325.832 57.2337 326.039 57.0537C326.252 56.8671 326.359 56.6004 326.359 56.2537C326.359 55.9137 326.252 55.6537 326.039 55.4737C325.832 55.2871 325.552 55.1937 325.199 55.1937C324.839 55.1937 324.552 55.2871 324.339 55.4737C324.132 55.6537 324.029 55.9137 324.029 56.2537C324.029 56.6004 324.132 56.8671 324.339 57.0537C324.552 57.2337 324.839 57.3237 325.199 57.3237ZM323.739 60.2137C323.739 60.5471 323.879 60.7937 324.159 60.9537C324.439 61.1204 324.789 61.2037 325.209 61.2037C325.622 61.2037 325.952 61.1137 326.199 60.9337C326.452 60.7537 326.579 60.5137 326.579 60.2137C326.579 60.0004 326.492 59.8137 326.319 59.6537C326.145 59.5004 325.825 59.4104 325.359 59.3837C324.992 59.3571 324.675 59.3237 324.409 59.2837C324.135 59.4304 323.955 59.5871 323.869 59.7537C323.782 59.9271 323.739 60.0804 323.739 60.2137Z" fill="white"/>
<path opacity="0.6" d="M191.141 82.7695L150.128 59.9275L108.38 82.7695L150.128 107.869L191.141 82.7695Z" fill="#8D99FF"/>
<path d="M141.25 73.6001L132.805 82.4203L166.584 82.9833" stroke="#6361DE" stroke-linejoin="round"/>
<path d="M159.077 90.4898L132.992 82.6079" stroke="#6361DE"/>
<path d="M135.683 82.7957C135.683 83.359 135.348 83.9255 134.692 84.373C134.038 84.8188 133.107 85.1106 132.054 85.1106C131.001 85.1106 130.07 84.8188 129.416 84.373C128.76 83.9255 128.425 83.359 128.425 82.7957C128.425 82.2323 128.76 81.6658 129.416 81.2183C130.07 80.7725 131.001 80.4807 132.054 80.4807C133.107 80.4807 134.038 80.7725 134.692 81.2183C135.348 81.6658 135.683 82.2323 135.683 82.7957Z" stroke="#E5E7F3"/>
<path d="M145.441 73.7879C145.441 74.3512 145.106 74.9177 144.45 75.3652C143.796 75.811 142.865 76.1028 141.812 76.1028C140.759 76.1028 139.828 75.811 139.175 75.3652C138.518 74.9177 138.184 74.3512 138.184 73.7879C138.184 73.2245 138.518 72.658 139.175 72.2105C139.828 71.7647 140.759 71.4729 141.812 71.4729C142.865 71.4729 143.796 71.7647 144.45 72.2105C145.106 72.658 145.441 73.2245 145.441 73.7879Z" stroke="#E5E7F3"/>
<path d="M163.081 74.9138C163.081 75.4772 162.747 76.0437 162.091 76.4912C161.437 76.937 160.506 77.2288 159.453 77.2288C158.4 77.2288 157.469 76.937 156.815 76.4912C156.159 76.0437 155.824 75.4772 155.824 74.9138C155.824 74.3505 156.159 73.784 156.815 73.3365C157.469 72.8907 158.4 72.5989 159.453 72.5989C160.506 72.5989 161.437 72.8907 162.091 73.3365C162.747 73.784 163.081 74.3505 163.081 74.9138Z" stroke="#E5E7F3"/>
<path d="M170.588 82.7957C170.588 83.359 170.253 83.9255 169.597 84.373C168.943 84.8188 168.012 85.1106 166.959 85.1106C165.906 85.1106 164.975 84.8188 164.321 84.373C163.665 83.9255 163.331 83.359 163.331 82.7957C163.331 82.2323 163.665 81.6658 164.321 81.2183C164.975 80.7725 165.906 80.4807 166.959 80.4807C168.012 80.4807 168.943 80.7725 169.597 81.2183C170.253 81.6658 170.588 82.2323 170.588 82.7957Z" stroke="#E5E7F3"/>
<path d="M163.081 90.6775C163.081 91.2409 162.747 91.8074 162.091 92.2549C161.437 92.7006 160.506 92.9925 159.453 92.9925C158.4 92.9925 157.469 92.7006 156.815 92.2549C156.159 91.8074 155.824 91.2409 155.824 90.6775C155.824 90.1141 156.159 89.5476 156.815 89.1001C157.469 88.6544 158.4 88.3625 159.453 88.3625C160.506 88.3625 161.437 88.6544 162.091 89.1001C162.747 89.5476 163.081 90.1141 163.081 90.6775Z" stroke="#E5E7F3"/>
<path d="M166.459 82.4204C166.459 85.0224 164.673 87.467 161.593 89.2884C158.524 91.1033 154.252 92.2419 149.506 92.2419C144.761 92.2419 140.489 91.1033 137.42 89.2884C134.34 87.467 132.554 85.0224 132.554 82.4204C132.554 79.8184 134.34 77.3738 137.42 75.5524C140.489 73.7375 144.761 72.5989 149.506 72.5989C154.252 72.5989 158.524 73.7375 161.593 75.5524C164.673 77.3738 166.459 79.8184 166.459 82.4204Z" stroke="#E5E7F3"/>
<path opacity="0.7" d="M212 53.7279L179.638 36.5737L148.415 53.7279L180.676 70.8894L212 53.7279Z" fill="#9FA9FF"/>
<path d="M186.088 46.8953L168.823 52.7129L186.088 58.3428" stroke="#6361DE"/>
<path d="M189.904 58.155C189.904 58.7184 189.57 59.2849 188.913 59.7324C188.259 60.1782 187.328 60.47 186.276 60.47C185.223 60.47 184.292 60.1782 183.638 59.7324C182.982 59.2849 182.647 58.7184 182.647 58.155C182.647 57.5917 182.982 57.0252 183.638 56.5777C184.292 56.1319 185.223 55.8401 186.276 55.8401C187.328 55.8401 188.259 56.1319 188.913 56.5777C189.57 57.0252 189.904 57.5917 189.904 58.155Z" stroke="#E5E7F3"/>
<path d="M189.904 47.2705C189.904 47.8339 189.57 48.4004 188.913 48.8479C188.259 49.2937 187.328 49.5855 186.276 49.5855C185.223 49.5855 184.292 49.2937 183.638 48.8479C182.982 48.4004 182.647 47.8339 182.647 47.2705C182.647 46.7072 182.982 46.1407 183.638 45.6932C184.292 45.2474 185.223 44.9556 186.276 44.9556C187.328 44.9556 188.259 45.2474 188.913 45.6932C189.57 46.1407 189.904 46.7072 189.904 47.2705Z" stroke="#E5E7F3"/>
<path d="M172.64 52.9004C172.64 53.4638 172.305 54.0303 171.649 54.4778C170.995 54.9235 170.064 55.2154 169.011 55.2154C167.958 55.2154 167.027 54.9235 166.373 54.4778C165.717 54.0303 165.382 53.4638 165.382 52.9004C165.382 52.337 165.717 51.7705 166.373 51.323C167.027 50.8773 167.958 50.5854 169.011 50.5854C170.064 50.5854 170.995 50.8773 171.649 51.323C172.305 51.7705 172.64 52.337 172.64 52.9004Z" stroke="#E5E7F3"/>
<path d="M191.406 52.5251C191.406 54.1926 190.252 55.7929 188.19 57.0038C186.14 58.2079 183.275 58.9687 180.083 58.9687C176.891 58.9687 174.026 58.2079 171.976 57.0038C169.914 55.7929 168.76 54.1926 168.76 52.5251C168.76 50.8577 169.914 49.2573 171.976 48.0464C174.026 46.8424 176.891 46.0815 180.083 46.0815C183.275 46.0815 186.14 46.8424 188.19 48.0464C190.252 49.2573 191.406 50.8577 191.406 52.5251Z" stroke="#E5E7F3"/>
<path d="M165.096 53.2549L145.079 72.1603" stroke="#322AA1" stroke-linecap="round"/>
<path d="M172.881 53.811L170.657 82.1692" stroke="#322AA1" stroke-linecap="round"/>
<path opacity="0.4" d="M160.47 122.077L109.702 89.9536L55 122.077L108.204 152.529L160.47 122.077Z" fill="#6D7CFF"/>
<path d="M99.4763 108.241L86.9028 129.071L109.798 136.015" stroke="#6361DE"/>
<path d="M133.068 123.629L83.3374 121.189L121.058 134.138" stroke="#4040CA"/>
<path d="M83.3374 120.814L99.2888 107.865L122.559 109.554L131.567 117.248L83.3374 120.814Z" stroke="#9DA5FF"/>
<path d="M103.292 108.053C103.292 108.616 102.958 109.183 102.301 109.63C101.648 110.076 100.717 110.368 99.6638 110.368C98.6109 110.368 97.6799 110.076 97.0261 109.63C96.3697 109.183 96.0352 108.616 96.0352 108.053C96.0352 107.49 96.3697 106.923 97.0261 106.476C97.6799 106.03 98.6109 105.738 99.6638 105.738C100.717 105.738 101.648 106.03 102.301 106.476C102.958 106.923 103.292 107.49 103.292 108.053Z" stroke="#E5E7F3"/>
<path d="M132.943 121.752C132.943 125.652 130.293 129.27 125.822 131.939C121.361 134.602 115.166 136.266 108.296 136.266C101.427 136.266 95.2319 134.602 90.7711 131.939C86.2999 129.27 83.6494 125.652 83.6494 121.752C83.6494 117.852 86.2999 114.235 90.7711 111.566C95.2319 108.903 101.427 107.239 108.296 107.239C115.166 107.239 121.361 108.903 125.822 111.566C130.293 114.235 132.943 117.852 132.943 121.752Z" stroke="#E5E7F3"/>
<path d="M91.6576 112.932C91.6576 113.496 91.323 114.062 90.6667 114.51C90.0129 114.955 89.0818 115.247 88.029 115.247C86.9762 115.247 86.0451 114.955 85.3913 114.51C84.735 114.062 84.4004 113.496 84.4004 112.932C84.4004 112.369 84.735 111.802 85.3913 111.355C86.0451 110.909 86.9762 110.617 88.029 110.617C89.0818 110.617 90.0129 110.909 90.6667 111.355C91.323 111.802 91.6576 112.369 91.6576 112.932Z" stroke="#E5E7F3"/>
<path d="M85.6522 121.565C85.6522 122.128 85.3177 122.695 84.6613 123.142C84.0075 123.588 83.0765 123.88 82.0236 123.88C80.9708 123.88 80.0397 123.588 79.3859 123.142C78.7296 122.695 78.395 122.128 78.395 121.565C78.395 121.001 78.7296 120.435 79.3859 119.987C80.0397 119.542 80.9708 119.25 82.0236 119.25C83.0765 119.25 84.0075 119.542 84.6613 119.987C85.3177 120.435 85.6522 121.001 85.6522 121.565Z" stroke="#E5E7F3"/>
<path d="M89.7807 129.071C89.7807 129.635 89.4461 130.201 88.7897 130.649C88.136 131.094 87.2049 131.386 86.152 131.386C85.0992 131.386 84.1681 131.094 83.5143 130.649C82.858 130.201 82.5234 129.635 82.5234 129.071C82.5234 128.508 82.858 127.941 83.5143 127.494C84.1681 127.048 85.0992 126.756 86.152 126.756C87.2049 126.756 88.136 127.048 88.7897 127.494C89.4461 127.941 89.7807 128.508 89.7807 129.071Z" stroke="#E5E7F3"/>
<path d="M136.322 124.192C136.322 124.756 135.987 125.322 135.331 125.77C134.677 126.215 133.746 126.507 132.693 126.507C131.64 126.507 130.709 126.215 130.055 125.77C129.399 125.322 129.064 124.756 129.064 124.192C129.064 123.629 129.399 123.062 130.055 122.615C130.709 122.169 131.64 121.877 132.693 121.877C133.746 121.877 134.677 122.169 135.331 122.615C135.987 123.062 136.322 123.629 136.322 124.192Z" stroke="#E5E7F3"/>
<path d="M134.82 117.436C134.82 117.999 134.486 118.566 133.829 119.013C133.176 119.459 132.244 119.751 131.192 119.751C130.139 119.751 129.208 119.459 128.554 119.013C127.898 118.566 127.563 117.999 127.563 117.436C127.563 116.873 127.898 116.306 128.554 115.859C129.208 115.413 130.139 115.121 131.192 115.121C132.244 115.121 133.176 115.413 133.829 115.859C134.486 116.306 134.82 116.873 134.82 117.436Z" stroke="#E5E7F3"/>
<path d="M124.686 108.803C124.686 109.367 124.352 109.933 123.696 110.381C123.042 110.827 122.111 111.118 121.058 111.118C120.005 111.118 119.074 110.827 118.42 110.381C117.764 109.933 117.429 109.367 117.429 108.803C117.429 108.24 117.764 107.674 118.42 107.226C119.074 106.78 120.005 106.489 121.058 106.489C122.111 106.489 123.042 106.78 123.696 107.226C124.352 107.674 124.686 108.24 124.686 108.803Z" stroke="#E5E7F3"/>
<path d="M127.841 83.2812L91.6987 111.083" stroke="#322AA1" stroke-linecap="round"/>
<path d="M135.07 84.3933L132.846 122.204" stroke="#322AA1" stroke-linecap="round"/>
</g>
<path d="M28.184 154.574V143.374H31.624C33.5973 143.374 35.048 143.875 35.976 144.878C36.9147 145.88 37.384 147.256 37.384 149.006C37.384 150.723 36.9147 152.083 35.976 153.086C35.048 154.078 33.5973 154.574 31.624 154.574H28.184ZM29.528 153.454H31.592C32.68 153.454 33.544 153.278 34.184 152.926C34.8347 152.563 35.2987 152.051 35.576 151.39C35.8533 150.718 35.992 149.923 35.992 149.006C35.992 148.067 35.8533 147.262 35.576 146.59C35.2987 145.918 34.8347 145.4 34.184 145.038C33.544 144.675 32.68 144.494 31.592 144.494H29.528V153.454ZM40.1086 158.094L42.0766 153.806H41.6126L38.4606 146.638H39.9166L42.5406 152.814L45.3246 146.638H46.7166L41.5166 158.094H40.1086ZM48.1353 154.574V146.638H49.3513L49.4313 148.062C49.6873 147.56 50.0553 147.166 50.5353 146.878C51.0153 146.59 51.5593 146.446 52.1673 146.446C53.1059 146.446 53.8526 146.734 54.4073 147.31C54.9726 147.875 55.2552 148.75 55.2552 149.934V154.574H53.9113V150.078C53.9113 148.424 53.2286 147.598 51.8633 147.598C51.1806 147.598 50.6099 147.848 50.1513 148.35C49.7033 148.84 49.4793 149.544 49.4793 150.462V154.574H48.1353ZM59.9315 154.766C59.2702 154.766 58.7208 154.654 58.2835 154.43C57.8462 154.206 57.5208 153.907 57.3075 153.534C57.0942 153.16 56.9875 152.755 56.9875 152.318C56.9875 151.507 57.2968 150.883 57.9155 150.446C58.5342 150.008 59.3768 149.79 60.4435 149.79H62.5875V149.694C62.5875 149 62.4062 148.478 62.0435 148.126C61.6808 147.763 61.1955 147.582 60.5875 147.582C60.0648 147.582 59.6115 147.715 59.2275 147.982C58.8542 148.238 58.6195 148.616 58.5235 149.118H57.1475C57.2008 148.542 57.3928 148.056 57.7235 147.662C58.0648 147.267 58.4862 146.968 58.9875 146.766C59.4888 146.552 60.0222 146.446 60.5875 146.446C61.6968 146.446 62.5288 146.744 63.0835 147.342C63.6488 147.928 63.9315 148.712 63.9315 149.694V154.574H62.7315L62.6515 153.15C62.4275 153.598 62.0968 153.982 61.6595 154.302C61.2328 154.611 60.6568 154.766 59.9315 154.766ZM60.1395 153.63C60.6515 153.63 61.0888 153.496 61.4515 153.23C61.8248 152.963 62.1075 152.616 62.2995 152.19C62.4915 151.763 62.5875 151.315 62.5875 150.846V150.83H60.5555C59.7662 150.83 59.2062 150.968 58.8755 151.246C58.5555 151.512 58.3955 151.848 58.3955 152.254C58.3955 152.67 58.5448 153.006 58.8435 153.262C59.1528 153.507 59.5848 153.63 60.1395 153.63ZM65.9478 154.574V146.638H67.1638L67.2598 147.79C67.5158 147.363 67.8571 147.032 68.2838 146.798C68.7104 146.563 69.1904 146.446 69.7238 146.446C70.3531 146.446 70.8918 146.574 71.3398 146.83C71.7984 147.086 72.1504 147.475 72.3958 147.998C72.6731 147.518 73.0518 147.139 73.5318 146.862C74.0224 146.584 74.5504 146.446 75.1158 146.446C76.0651 146.446 76.8224 146.734 77.3878 147.31C77.9531 147.875 78.2358 148.75 78.2358 149.934V154.574H76.9078V150.078C76.9078 149.256 76.7424 148.638 76.4118 148.222C76.0811 147.806 75.6064 147.598 74.9878 147.598C74.3478 147.598 73.8144 147.848 73.3878 148.35C72.9718 148.84 72.7638 149.544 72.7638 150.462V154.574H71.4198V150.078C71.4198 149.256 71.2544 148.638 70.9238 148.222C70.5931 147.806 70.1184 147.598 69.4998 147.598C68.8704 147.598 68.3424 147.848 67.9158 148.35C67.4998 148.84 67.2918 149.544 67.2918 150.462V154.574H65.9478ZM81.0763 144.878C80.8096 144.878 80.5856 144.792 80.4043 144.622C80.2336 144.44 80.1483 144.216 80.1483 143.95C80.1483 143.694 80.2336 143.48 80.4043 143.31C80.5856 143.139 80.8096 143.054 81.0763 143.054C81.3323 143.054 81.5509 143.139 81.7323 143.31C81.9136 143.48 82.0043 143.694 82.0043 143.95C82.0043 144.216 81.9136 144.44 81.7323 144.622C81.5509 144.792 81.3323 144.878 81.0763 144.878ZM80.4043 154.574V146.638H81.7483V154.574H80.4043ZM87.7364 154.766C86.979 154.766 86.2964 154.595 85.6884 154.254C85.091 153.902 84.6164 153.416 84.2644 152.798C83.923 152.168 83.7524 151.438 83.7524 150.606C83.7524 149.774 83.923 149.048 84.2644 148.43C84.6164 147.8 85.091 147.315 85.6884 146.974C86.2964 146.622 86.979 146.446 87.7364 146.446C88.675 146.446 89.4644 146.691 90.1044 147.182C90.755 147.672 91.1657 148.328 91.3364 149.15H89.9604C89.8537 148.659 89.5924 148.28 89.1764 148.014C88.7604 147.736 88.275 147.598 87.7204 147.598C87.2724 147.598 86.851 147.71 86.4564 147.934C86.0617 148.158 85.7417 148.494 85.4964 148.942C85.251 149.39 85.1284 149.944 85.1284 150.606C85.1284 151.267 85.251 151.822 85.4964 152.27C85.7417 152.718 86.0617 153.059 86.4564 153.294C86.851 153.518 87.2724 153.63 87.7204 153.63C88.275 153.63 88.7604 153.496 89.1764 153.23C89.5924 152.952 89.8537 152.563 89.9604 152.062H91.3364C91.1764 152.862 90.771 153.512 90.1204 154.014C89.4697 154.515 88.675 154.766 87.7364 154.766ZM102.616 154.766C101.517 154.766 100.552 154.526 99.7198 154.046C98.8984 153.555 98.2531 152.872 97.7838 151.998C97.3251 151.123 97.0958 150.115 97.0958 148.974C97.0958 147.832 97.3251 146.83 97.7838 145.966C98.2531 145.091 98.8984 144.408 99.7198 143.918C100.552 143.427 101.517 143.182 102.616 143.182C103.725 143.182 104.69 143.427 105.512 143.918C106.344 144.408 106.989 145.091 107.448 145.966C107.906 146.83 108.136 147.832 108.136 148.974C108.136 150.115 107.906 151.123 107.448 151.998C106.989 152.862 106.36 153.534 105.56 154.014L108.392 156.734H106.648L104.376 154.526C103.832 154.686 103.245 154.766 102.616 154.766ZM102.616 153.582C103.437 153.582 104.157 153.4 104.776 153.038C105.405 152.664 105.89 152.136 106.232 151.454C106.584 150.76 106.76 149.934 106.76 148.974C106.76 148.014 106.584 147.192 106.232 146.51C105.89 145.827 105.405 145.304 104.776 144.942C104.157 144.568 103.437 144.382 102.616 144.382C101.794 144.382 101.069 144.568 100.44 144.942C99.8211 145.304 99.3358 145.827 98.9838 146.51C98.6424 147.192 98.4718 148.014 98.4718 148.974C98.4718 149.934 98.6424 150.76 98.9838 151.454C99.3358 152.136 99.8211 152.664 100.44 153.038C101.069 153.4 101.794 153.582 102.616 153.582ZM113.016 154.766C112.077 154.766 111.33 154.483 110.776 153.918C110.221 153.342 109.944 152.462 109.944 151.278V146.638H111.288V151.134C111.288 152.787 111.965 153.614 113.32 153.614C114.013 153.614 114.584 153.368 115.032 152.878C115.49 152.376 115.72 151.667 115.72 150.75V146.638H117.064V154.574H115.848L115.752 153.15C115.506 153.651 115.138 154.046 114.648 154.334C114.168 154.622 113.624 154.766 113.016 154.766ZM121.916 154.766C121.255 154.766 120.705 154.654 120.268 154.43C119.831 154.206 119.505 153.907 119.292 153.534C119.079 153.16 118.972 152.755 118.972 152.318C118.972 151.507 119.281 150.883 119.9 150.446C120.519 150.008 121.361 149.79 122.428 149.79H124.572V149.694C124.572 149 124.391 148.478 124.028 148.126C123.665 147.763 123.18 147.582 122.572 147.582C122.049 147.582 121.596 147.715 121.212 147.982C120.839 148.238 120.604 148.616 120.508 149.118H119.132C119.185 148.542 119.377 148.056 119.708 147.662C120.049 147.267 120.471 146.968 120.972 146.766C121.473 146.552 122.007 146.446 122.572 146.446C123.681 146.446 124.513 146.744 125.068 147.342C125.633 147.928 125.916 148.712 125.916 149.694V154.574H124.716L124.636 153.15C124.412 153.598 124.081 153.982 123.644 154.302C123.217 154.611 122.641 154.766 121.916 154.766ZM122.124 153.63C122.636 153.63 123.073 153.496 123.436 153.23C123.809 152.963 124.092 152.616 124.284 152.19C124.476 151.763 124.572 151.315 124.572 150.846V150.83H122.54C121.751 150.83 121.191 150.968 120.86 151.246C120.54 151.512 120.38 151.848 120.38 152.254C120.38 152.67 120.529 153.006 120.828 153.262C121.137 153.507 121.569 153.63 122.124 153.63ZM127.932 154.574V146.638H129.148L129.228 148.062C129.484 147.56 129.852 147.166 130.332 146.878C130.812 146.59 131.356 146.446 131.964 146.446C132.903 146.446 133.649 146.734 134.204 147.31C134.769 147.875 135.052 148.75 135.052 149.934V154.574H133.708V150.078C133.708 148.424 133.025 147.598 131.66 147.598C130.977 147.598 130.407 147.848 129.948 148.35C129.5 148.84 129.276 149.544 129.276 150.462V154.574H127.932ZM140.224 154.574C139.499 154.574 138.928 154.398 138.512 154.046C138.096 153.694 137.888 153.059 137.888 152.142V147.774H136.512V146.638H137.888L138.064 144.734H139.232V146.638H141.568V147.774H139.232V152.142C139.232 152.643 139.334 152.984 139.536 153.166C139.739 153.336 140.096 153.422 140.608 153.422H141.44V154.574H140.224ZM146.172 154.766C145.233 154.766 144.487 154.483 143.932 153.918C143.377 153.342 143.1 152.462 143.1 151.278V146.638H144.444V151.134C144.444 152.787 145.121 153.614 146.476 153.614C147.169 153.614 147.74 153.368 148.188 152.878C148.647 152.376 148.876 151.667 148.876 150.75V146.638H150.22V154.574H149.004L148.908 153.15C148.663 153.651 148.295 154.046 147.804 154.334C147.324 154.622 146.78 154.766 146.172 154.766ZM152.432 154.574V146.638H153.648L153.744 147.79C154 147.363 154.341 147.032 154.768 146.798C155.195 146.563 155.675 146.446 156.208 146.446C156.837 146.446 157.376 146.574 157.824 146.83C158.283 147.086 158.635 147.475 158.88 147.998C159.157 147.518 159.536 147.139 160.016 146.862C160.507 146.584 161.035 146.446 161.6 146.446C162.549 146.446 163.307 146.734 163.872 147.31C164.437 147.875 164.72 148.75 164.72 149.934V154.574H163.392V150.078C163.392 149.256 163.227 148.638 162.896 148.222C162.565 147.806 162.091 147.598 161.472 147.598C160.832 147.598 160.299 147.848 159.872 148.35C159.456 148.84 159.248 149.544 159.248 150.462V154.574H157.904V150.078C157.904 149.256 157.739 148.638 157.408 148.222C157.077 147.806 156.603 147.598 155.984 147.598C155.355 147.598 154.827 147.848 154.4 148.35C153.984 148.84 153.776 149.544 153.776 150.462V154.574H152.432ZM175.971 154.766C174.872 154.766 173.923 154.526 173.123 154.046C172.334 153.555 171.72 152.878 171.283 152.014C170.846 151.139 170.627 150.126 170.627 148.974C170.627 147.832 170.846 146.83 171.283 145.966C171.72 145.091 172.334 144.408 173.123 143.918C173.923 143.427 174.872 143.182 175.971 143.182C177.251 143.182 178.291 143.491 179.091 144.11C179.902 144.718 180.419 145.571 180.643 146.67H179.155C178.984 145.976 178.632 145.422 178.099 145.006C177.576 144.579 176.867 144.366 175.971 144.366C175.171 144.366 174.472 144.552 173.875 144.926C173.278 145.288 172.814 145.816 172.483 146.51C172.163 147.192 172.003 148.014 172.003 148.974C172.003 149.934 172.163 150.76 172.483 151.454C172.814 152.136 173.278 152.664 173.875 153.038C174.472 153.4 175.171 153.582 175.971 153.582C176.867 153.582 177.576 153.379 178.099 152.974C178.632 152.558 178.984 152.008 179.155 151.326H180.643C180.419 152.403 179.902 153.246 179.091 153.854C178.291 154.462 177.251 154.766 175.971 154.766ZM182.495 154.574V143.054H183.839V147.998C184.105 147.507 184.484 147.128 184.975 146.862C185.465 146.584 185.999 146.446 186.575 146.446C187.492 146.446 188.228 146.734 188.783 147.31C189.337 147.875 189.615 148.75 189.615 149.934V154.574H188.287V150.078C188.287 148.424 187.62 147.598 186.287 147.598C185.593 147.598 185.012 147.848 184.543 148.35C184.073 148.84 183.839 149.544 183.839 150.462V154.574H182.495ZM195.219 154.766C194.462 154.766 193.79 154.595 193.203 154.254C192.616 153.902 192.152 153.416 191.811 152.798C191.48 152.179 191.315 151.448 191.315 150.606C191.315 149.774 191.48 149.048 191.811 148.43C192.142 147.8 192.6 147.315 193.187 146.974C193.784 146.622 194.472 146.446 195.251 146.446C196.019 146.446 196.68 146.622 197.235 146.974C197.8 147.315 198.232 147.768 198.531 148.334C198.83 148.899 198.979 149.507 198.979 150.158C198.979 150.275 198.974 150.392 198.963 150.51C198.963 150.627 198.963 150.76 198.963 150.91H192.643C192.675 151.518 192.814 152.024 193.059 152.43C193.315 152.824 193.63 153.123 194.003 153.326C194.387 153.528 194.792 153.63 195.219 153.63C195.774 153.63 196.238 153.502 196.611 153.246C196.984 152.99 197.256 152.643 197.427 152.206H198.755C198.542 152.942 198.131 153.555 197.523 154.046C196.926 154.526 196.158 154.766 195.219 154.766ZM195.219 147.582C194.579 147.582 194.008 147.779 193.507 148.174C193.016 148.558 192.734 149.123 192.659 149.87H197.651C197.619 149.155 197.374 148.595 196.915 148.19C196.456 147.784 195.891 147.582 195.219 147.582ZM200.76 154.574V146.638H201.976L202.072 147.79C202.328 147.363 202.67 147.032 203.096 146.798C203.523 146.563 204.003 146.446 204.536 146.446C205.166 146.446 205.704 146.574 206.152 146.83C206.611 147.086 206.963 147.475 207.208 147.998C207.486 147.518 207.864 147.139 208.344 146.862C208.835 146.584 209.363 146.446 209.928 146.446C210.878 146.446 211.635 146.734 212.2 147.31C212.766 147.875 213.048 148.75 213.048 149.934V154.574H211.72V150.078C211.72 149.256 211.555 148.638 211.224 148.222C210.894 147.806 210.419 147.598 209.8 147.598C209.16 147.598 208.627 147.848 208.2 148.35C207.784 148.84 207.576 149.544 207.576 150.462V154.574H206.232V150.078C206.232 149.256 206.067 148.638 205.736 148.222C205.406 147.806 204.931 147.598 204.312 147.598C203.683 147.598 203.155 147.848 202.728 148.35C202.312 148.84 202.104 149.544 202.104 150.462V154.574H200.76ZM215.889 144.878C215.622 144.878 215.398 144.792 215.217 144.622C215.046 144.44 214.961 144.216 214.961 143.95C214.961 143.694 215.046 143.48 215.217 143.31C215.398 143.139 215.622 143.054 215.889 143.054C216.145 143.054 216.363 143.139 216.545 143.31C216.726 143.48 216.817 143.694 216.817 143.95C216.817 144.216 216.726 144.44 216.545 144.622C216.363 144.792 216.145 144.878 215.889 144.878ZM215.217 154.574V146.638H216.561V154.574H215.217ZM221.941 154.766C220.992 154.766 220.202 154.526 219.573 154.046C218.944 153.566 218.576 152.915 218.469 152.094H219.845C219.93 152.51 220.149 152.872 220.501 153.182C220.864 153.48 221.349 153.63 221.957 153.63C222.522 153.63 222.938 153.512 223.205 153.278C223.472 153.032 223.605 152.744 223.605 152.414C223.605 151.934 223.429 151.614 223.077 151.454C222.736 151.294 222.25 151.15 221.621 151.022C221.194 150.936 220.768 150.814 220.341 150.654C219.914 150.494 219.557 150.27 219.269 149.982C218.981 149.683 218.837 149.294 218.837 148.814C218.837 148.12 219.093 147.555 219.605 147.118C220.128 146.67 220.832 146.446 221.717 146.446C222.56 146.446 223.248 146.659 223.781 147.086C224.325 147.502 224.64 148.099 224.725 148.878H223.397C223.344 148.472 223.168 148.158 222.869 147.934C222.581 147.699 222.192 147.582 221.701 147.582C221.221 147.582 220.848 147.683 220.581 147.886C220.325 148.088 220.197 148.355 220.197 148.686C220.197 149.006 220.362 149.256 220.693 149.438C221.034 149.619 221.493 149.774 222.069 149.902C222.56 150.008 223.024 150.142 223.461 150.302C223.909 150.451 224.272 150.68 224.549 150.99C224.837 151.288 224.981 151.726 224.981 152.302C224.992 153.016 224.72 153.608 224.165 154.078C223.621 154.536 222.88 154.766 221.941 154.766ZM229.678 154.574C228.952 154.574 228.382 154.398 227.966 154.046C227.55 153.694 227.342 153.059 227.342 152.142V147.774H225.965V146.638H227.342L227.518 144.734H228.686V146.638H231.022V147.774H228.686V152.142C228.686 152.643 228.787 152.984 228.99 153.166C229.192 153.336 229.55 153.422 230.062 153.422H230.894V154.574H229.678ZM232.729 154.574V146.638H233.945L234.057 148.158C234.302 147.635 234.676 147.219 235.177 146.91C235.678 146.6 236.297 146.446 237.033 146.446V147.854H236.665C236.196 147.854 235.764 147.939 235.369 148.11C234.974 148.27 234.66 148.547 234.425 148.942C234.19 149.336 234.073 149.88 234.073 150.574V154.574H232.729ZM239.406 158.094L241.374 153.806H240.91L237.758 146.638H239.214L241.838 152.814L244.622 146.638H246.014L240.814 158.094H239.406ZM30.488 175.59L27.416 164.374H28.856L31.272 173.99L34.024 164.374H35.512L38.184 173.99L40.632 164.374H42.072L38.936 175.574H37.4L34.728 166.326L31.992 175.574L30.488 175.59ZM46.3763 175.766C45.6296 175.766 44.9576 175.595 44.3603 175.254C43.7629 174.912 43.2883 174.432 42.9363 173.814C42.5949 173.184 42.4243 172.448 42.4243 171.606C42.4243 170.763 42.6003 170.032 42.9523 169.414C43.3043 168.784 43.7789 168.299 44.3763 167.958C44.9843 167.616 45.6616 167.446 46.4083 167.446C47.1549 167.446 47.8269 167.616 48.4243 167.958C49.0216 168.299 49.4909 168.784 49.8323 169.414C50.1843 170.032 50.3603 170.763 50.3603 171.606C50.3603 172.448 50.1843 173.184 49.8323 173.814C49.4803 174.432 49.0003 174.912 48.3923 175.254C47.7949 175.595 47.1229 175.766 46.3763 175.766ZM46.3763 174.614C46.8349 174.614 47.2616 174.502 47.6563 174.278C48.0509 174.054 48.3709 173.718 48.6163 173.27C48.8616 172.822 48.9843 172.267 48.9843 171.606C48.9843 170.944 48.8616 170.39 48.6163 169.942C48.3816 169.494 48.0669 169.158 47.6723 168.934C47.2776 168.71 46.8563 168.598 46.4083 168.598C45.9496 168.598 45.5229 168.71 45.1283 168.934C44.7336 169.158 44.4136 169.494 44.1683 169.942C43.9229 170.39 43.8003 170.944 43.8003 171.606C43.8003 172.267 43.9229 172.822 44.1683 173.27C44.4136 173.718 44.7283 174.054 45.1123 174.278C45.5069 174.502 45.9283 174.614 46.3763 174.614ZM52.229 175.574V167.638H53.445L53.557 169.158C53.8023 168.635 54.1757 168.219 54.677 167.91C55.1783 167.6 55.797 167.446 56.533 167.446V168.854H56.165C55.6957 168.854 55.2637 168.939 54.869 169.11C54.4743 169.27 54.1597 169.547 53.925 169.942C53.6903 170.336 53.573 170.88 53.573 171.574V175.574H52.229ZM58.0415 175.574V164.054H59.3855V170.982L62.6335 167.638H64.2815L60.7615 171.222L64.7295 175.574H63.0175L59.3855 171.462V175.574H58.0415ZM66.536 175.574V168.774H65.336V167.638H66.536V166.262C66.536 165.494 66.728 164.934 67.112 164.582C67.496 164.23 68.056 164.054 68.792 164.054H69.592V165.206H69C68.5947 165.206 68.3067 165.291 68.136 165.462C67.9653 165.622 67.88 165.899 67.88 166.294V167.638H69.832V168.774H67.88V175.574H66.536ZM71.432 175.574V164.054H72.776V175.574H71.432ZM78.595 175.766C77.8483 175.766 77.1763 175.595 76.579 175.254C75.9817 174.912 75.507 174.432 75.155 173.814C74.8137 173.184 74.643 172.448 74.643 171.606C74.643 170.763 74.819 170.032 75.171 169.414C75.523 168.784 75.9977 168.299 76.595 167.958C77.203 167.616 77.8803 167.446 78.627 167.446C79.3737 167.446 80.0457 167.616 80.643 167.958C81.2403 168.299 81.7097 168.784 82.051 169.414C82.403 170.032 82.579 170.763 82.579 171.606C82.579 172.448 82.403 173.184 82.051 173.814C81.699 174.432 81.219 174.912 80.611 175.254C80.0137 175.595 79.3417 175.766 78.595 175.766ZM78.595 174.614C79.0537 174.614 79.4803 174.502 79.875 174.278C80.2697 174.054 80.5897 173.718 80.835 173.27C81.0803 172.822 81.203 172.267 81.203 171.606C81.203 170.944 81.0803 170.39 80.835 169.942C80.6003 169.494 80.2857 169.158 79.891 168.934C79.4963 168.71 79.075 168.598 78.627 168.598C78.1683 168.598 77.7417 168.71 77.347 168.934C76.9523 169.158 76.6323 169.494 76.387 169.942C76.1417 170.39 76.019 170.944 76.019 171.606C76.019 172.267 76.1417 172.822 76.387 173.27C76.6323 173.718 76.947 174.054 77.331 174.278C77.7257 174.502 78.147 174.614 78.595 174.614ZM85.7509 175.574L83.4309 167.638H84.7749L86.4549 173.862L88.3109 167.638H89.8309L91.7029 173.862L93.3669 167.638H94.7269L92.4069 175.574H91.0309L89.0789 169.03L87.1269 175.574H85.7509Z" fill="white"/>
</g>
<defs>
<filter id="filter0_d_997_959" x="0" y="0.57373" width="374" height="217" filterUnits="userSpaceOnUse" color-interpolation-filters="sRGB">
<feFlood flood-opacity="0" result="BackgroundImageFix"/>
<feColorMatrix in="SourceAlpha" type="matrix" values="0 0 0 0 0 0 0 0 0 0 0 0 0 0 0 0 0 0 127 0" result="hardAlpha"/>
<feOffset dy="4"/>
<feGaussianBlur stdDeviation="8.5"/>
<feComposite in2="hardAlpha" operator="out"/>
<feColorMatrix type="matrix" values="0 0 0 0 0 0 0 0 0 0 0 0 0 0 0 0 0 0 0.47 0"/>
<feBlend mode="normal" in2="BackgroundImageFix" result="effect1_dropShadow_997_959"/>
<feBlend mode="normal" in="SourceGraphic" in2="effect1_dropShadow_997_959" result="shape"/>
</filter>
<clipPath id="clip0_997_959">
<rect x="27" y="33.5737" width="319" height="95" rx="6" fill="white"/>
</clipPath>
</defs>
</svg>

