<svg width="374" height="218" viewBox="0 0 374 218" fill="none" xmlns="http://www.w3.org/2000/svg">
<g filter="url(#filter0_d_998_1443)">
<rect x="17" y="13.5737" width="340" height="183" rx="8" fill="#303067" shape-rendering="crispEdges"/>
<rect x="17.5" y="14.0737" width="339" height="182" rx="7.5" stroke="#303067" shape-rendering="crispEdges"/>
<g clip-path="url(#clip0_998_1443)">
<rect x="27" y="33.5737" width="319" height="95" rx="6" fill="#1C1C46"/>
<rect x="270.5" y="46.0737" width="64" height="20" rx="7.5" stroke="#464660"/>
<path d="M280.97 59.6937C280.457 59.6937 280.01 59.6004 279.63 59.4137C279.25 59.2271 278.957 58.9671 278.75 58.6337C278.543 58.3004 278.44 57.9137 278.44 57.4737H279.32C279.32 57.7471 279.383 58.0004 279.51 58.2337C279.637 58.4604 279.82 58.6437 280.06 58.7837C280.307 58.9171 280.61 58.9837 280.97 58.9837C281.443 58.9837 281.81 58.8704 282.07 58.6437C282.33 58.4171 282.46 58.1337 282.46 57.7937C282.46 57.5137 282.4 57.2904 282.28 57.1237C282.16 56.9504 281.997 56.8104 281.79 56.7037C281.59 56.5971 281.357 56.5037 281.09 56.4237C280.83 56.3437 280.557 56.2537 280.27 56.1537C279.73 55.9671 279.33 55.7371 279.07 55.4637C278.81 55.1837 278.68 54.8204 278.68 54.3737C278.673 54.0004 278.76 53.6704 278.94 53.3837C279.12 53.0904 279.373 52.8637 279.7 52.7037C280.033 52.5371 280.427 52.4537 280.88 52.4537C281.327 52.4537 281.713 52.5371 282.04 52.7037C282.373 52.8704 282.63 53.1004 282.81 53.3937C282.997 53.6871 283.093 54.0204 283.1 54.3937H282.22C282.22 54.2004 282.17 54.0104 282.07 53.8237C281.97 53.6304 281.817 53.4737 281.61 53.3537C281.41 53.2337 281.157 53.1737 280.85 53.1737C280.47 53.1671 280.157 53.2637 279.91 53.4637C279.67 53.6637 279.55 53.9404 279.55 54.2937C279.55 54.5937 279.633 54.8237 279.8 54.9837C279.973 55.1437 280.213 55.2771 280.52 55.3837C280.827 55.4837 281.18 55.6004 281.58 55.7337C281.913 55.8537 282.213 55.9937 282.48 56.1537C282.747 56.3137 282.953 56.5204 283.1 56.7737C283.253 57.0271 283.33 57.3504 283.33 57.7437C283.33 58.0771 283.243 58.3937 283.07 58.6937C282.897 58.9871 282.633 59.2271 282.28 59.4137C281.933 59.6004 281.497 59.6937 280.97 59.6937ZM284.981 53.5137C284.815 53.5137 284.675 53.4604 284.561 53.3537C284.455 53.2404 284.401 53.1004 284.401 52.9337C284.401 52.7737 284.455 52.6404 284.561 52.5337C284.675 52.4271 284.815 52.3737 284.981 52.3737C285.141 52.3737 285.278 52.4271 285.391 52.5337C285.505 52.6404 285.561 52.7737 285.561 52.9337C285.561 53.1004 285.505 53.2404 285.391 53.3537C285.278 53.4604 285.141 53.5137 284.981 53.5137ZM284.561 59.5737V54.6137H285.401V59.5737H284.561ZM286.864 59.5737V54.6137H287.624L287.684 55.3337C287.844 55.0671 288.057 54.8604 288.324 54.7137C288.59 54.5671 288.89 54.4937 289.224 54.4937C289.617 54.4937 289.954 54.5737 290.234 54.7337C290.52 54.8937 290.74 55.1371 290.894 55.4637C291.067 55.1637 291.304 54.9271 291.604 54.7537C291.91 54.5804 292.24 54.4937 292.594 54.4937C293.187 54.4937 293.66 54.6737 294.014 55.0337C294.367 55.3871 294.544 55.9337 294.544 56.6737V59.5737H293.714V56.7637C293.714 56.2504 293.61 55.8637 293.404 55.6037C293.197 55.3437 292.9 55.2137 292.514 55.2137C292.114 55.2137 291.78 55.3704 291.514 55.6837C291.254 55.9904 291.124 56.4304 291.124 57.0037V59.5737H290.284V56.7637C290.284 56.2504 290.18 55.8637 289.974 55.6037C289.767 55.3437 289.47 55.2137 289.084 55.2137C288.69 55.2137 288.36 55.3704 288.094 55.6837C287.834 55.9904 287.704 56.4304 287.704 57.0037V59.5737H286.864ZM297.619 59.6937C297.032 59.6937 296.566 59.5171 296.219 59.1637C295.872 58.8037 295.699 58.2537 295.699 57.5137V54.6137H296.539V57.4237C296.539 58.4571 296.962 58.9737 297.809 58.9737C298.242 58.9737 298.599 58.8204 298.879 58.5137C299.166 58.2004 299.309 57.7571 299.309 57.1837V54.6137H300.149V59.5737H299.389L299.329 58.6837C299.176 58.9971 298.946 59.2437 298.639 59.4237C298.339 59.6037 297.999 59.6937 297.619 59.6937ZM301.532 59.5737V52.3737H302.372V59.5737H301.532ZM305.399 59.6937C304.985 59.6937 304.642 59.6237 304.369 59.4837C304.095 59.3437 303.892 59.1571 303.759 58.9237C303.625 58.6904 303.559 58.4371 303.559 58.1637C303.559 57.6571 303.752 57.2671 304.139 56.9937C304.525 56.7204 305.052 56.5837 305.719 56.5837H307.059V56.5237C307.059 56.0904 306.945 55.7637 306.719 55.5437C306.492 55.3171 306.189 55.2037 305.809 55.2037C305.482 55.2037 305.199 55.2871 304.959 55.4537C304.725 55.6137 304.579 55.8504 304.519 56.1637H303.659C303.692 55.8037 303.812 55.5004 304.019 55.2537C304.232 55.0071 304.495 54.8204 304.809 54.6937C305.122 54.5604 305.455 54.4937 305.809 54.4937C306.502 54.4937 307.022 54.6804 307.369 55.0537C307.722 55.4204 307.899 55.9104 307.899 56.5237V59.5737H307.149L307.099 58.6837C306.959 58.9637 306.752 59.2037 306.479 59.4037C306.212 59.5971 305.852 59.6937 305.399 59.6937ZM305.529 58.9837C305.849 58.9837 306.122 58.9004 306.349 58.7337C306.582 58.5671 306.759 58.3504 306.879 58.0837C306.999 57.8171 307.059 57.5371 307.059 57.2437V57.2337H305.789C305.295 57.2337 304.945 57.3204 304.739 57.4937C304.539 57.6604 304.439 57.8704 304.439 58.1237C304.439 58.3837 304.532 58.5937 304.719 58.7537C304.912 58.9071 305.182 58.9837 305.529 58.9837ZM310.982 59.5737C310.529 59.5737 310.172 59.4637 309.912 59.2437C309.652 59.0237 309.522 58.6271 309.522 58.0537V55.3237H308.662V54.6137H309.522L309.632 53.4237H310.362V54.6137H311.822V55.3237H310.362V58.0537C310.362 58.3671 310.425 58.5804 310.552 58.6937C310.679 58.8004 310.902 58.8537 311.222 58.8537H311.742V59.5737H310.982ZM313.399 53.5137C313.233 53.5137 313.093 53.4604 312.979 53.3537C312.873 53.2404 312.819 53.1004 312.819 52.9337C312.819 52.7737 312.873 52.6404 312.979 52.5337C313.093 52.4271 313.233 52.3737 313.399 52.3737C313.559 52.3737 313.696 52.4271 313.809 52.5337C313.923 52.6404 313.979 52.7737 313.979 52.9337C313.979 53.1004 313.923 53.2404 313.809 53.3537C313.696 53.4604 313.559 53.5137 313.399 53.5137ZM312.979 59.5737V54.6137H313.819V59.5737H312.979ZM317.542 59.6937C317.075 59.6937 316.655 59.5871 316.282 59.3737C315.908 59.1604 315.612 58.8604 315.392 58.4737C315.178 58.0804 315.072 57.6204 315.072 57.0937C315.072 56.5671 315.182 56.1104 315.402 55.7237C315.622 55.3304 315.918 55.0271 316.292 54.8137C316.672 54.6004 317.095 54.4937 317.562 54.4937C318.028 54.4937 318.448 54.6004 318.822 54.8137C319.195 55.0271 319.488 55.3304 319.702 55.7237C319.922 56.1104 320.032 56.5671 320.032 57.0937C320.032 57.6204 319.922 58.0804 319.702 58.4737C319.482 58.8604 319.182 59.1604 318.802 59.3737C318.428 59.5871 318.008 59.6937 317.542 59.6937ZM317.542 58.9737C317.828 58.9737 318.095 58.9037 318.342 58.7637C318.588 58.6237 318.788 58.4137 318.942 58.1337C319.095 57.8537 319.172 57.5071 319.172 57.0937C319.172 56.6804 319.095 56.3337 318.942 56.0537C318.795 55.7737 318.598 55.5637 318.352 55.4237C318.105 55.2837 317.842 55.2137 317.562 55.2137C317.275 55.2137 317.008 55.2837 316.762 55.4237C316.515 55.5637 316.315 55.7737 316.162 56.0537C316.008 56.3337 315.932 56.6804 315.932 57.0937C315.932 57.5071 316.008 57.8537 316.162 58.1337C316.315 58.4137 316.512 58.6237 316.752 58.7637C316.998 58.9037 317.262 58.9737 317.542 58.9737ZM321.2 59.5737V54.6137H321.96L322.01 55.5037C322.17 55.1904 322.4 54.9437 322.7 54.7637C323 54.5837 323.34 54.4937 323.72 54.4937C324.306 54.4937 324.773 54.6737 325.12 55.0337C325.473 55.3871 325.65 55.9337 325.65 56.6737V59.5737H324.81V56.7637C324.81 55.7304 324.383 55.2137 323.53 55.2137C323.103 55.2137 322.746 55.3704 322.46 55.6837C322.18 55.9904 322.04 56.4304 322.04 57.0037V59.5737H321.2Z" fill="white"/>
<path opacity="0.6" d="M191.141 82.7695L150.128 59.9275L108.38 82.7695L150.128 107.869L191.141 82.7695Z" fill="#8D99FF"/>
<path d="M141.25 73.6002L132.805 82.4204L166.584 82.9834" stroke="#6361DE" stroke-linejoin="round"/>
<path d="M159.078 90.4899L132.992 82.608" stroke="#6361DE"/>
<path d="M135.683 82.7957C135.683 83.359 135.348 83.9255 134.692 84.373C134.038 84.8188 133.107 85.1106 132.054 85.1106C131.001 85.1106 130.07 84.8188 129.416 84.373C128.76 83.9255 128.425 83.359 128.425 82.7957C128.425 82.2323 128.76 81.6658 129.416 81.2183C130.07 80.7725 131.001 80.4807 132.054 80.4807C133.107 80.4807 134.038 80.7725 134.692 81.2183C135.348 81.6658 135.683 82.2323 135.683 82.7957Z" stroke="#E5E7F3"/>
<path d="M145.441 73.7878C145.441 74.3512 145.107 74.9177 144.45 75.3652C143.796 75.8109 142.865 76.1028 141.813 76.1028C140.76 76.1028 139.829 75.8109 139.175 75.3652C138.519 74.9177 138.184 74.3512 138.184 73.7878C138.184 73.2244 138.519 72.6579 139.175 72.2104C139.829 71.7647 140.76 71.4728 141.813 71.4728C142.865 71.4728 143.796 71.7647 144.45 72.2104C145.107 72.6579 145.441 73.2244 145.441 73.7878Z" stroke="#E5E7F3"/>
<path d="M163.082 74.9138C163.082 75.4771 162.747 76.0436 162.091 76.4911C161.437 76.9369 160.506 77.2287 159.453 77.2287C158.4 77.2287 157.469 76.9369 156.815 76.4911C156.159 76.0436 155.824 75.4771 155.824 74.9138C155.824 74.3504 156.159 73.7839 156.815 73.3364C157.469 72.8906 158.4 72.5988 159.453 72.5988C160.506 72.5988 161.437 72.8906 162.091 73.3364C162.747 73.7839 163.082 74.3504 163.082 74.9138Z" stroke="#E5E7F3"/>
<path d="M170.588 82.7957C170.588 83.359 170.254 83.9255 169.597 84.373C168.943 84.8188 168.012 85.1106 166.96 85.1106C165.907 85.1106 164.976 84.8188 164.322 84.373C163.666 83.9255 163.331 83.359 163.331 82.7957C163.331 82.2323 163.666 81.6658 164.322 81.2183C164.976 80.7725 165.907 80.4807 166.96 80.4807C168.012 80.4807 168.943 80.7725 169.597 81.2183C170.254 81.6658 170.588 82.2323 170.588 82.7957Z" stroke="#E5E7F3"/>
<path d="M163.082 90.6776C163.082 91.2409 162.747 91.8074 162.091 92.2549C161.437 92.7007 160.506 92.9925 159.453 92.9925C158.4 92.9925 157.469 92.7007 156.815 92.2549C156.159 91.8074 155.824 91.2409 155.824 90.6776C155.824 90.1142 156.159 89.5477 156.815 89.1002C157.469 88.6544 158.4 88.3626 159.453 88.3626C160.506 88.3626 161.437 88.6544 162.091 89.1002C162.747 89.5477 163.082 90.1142 163.082 90.6776Z" stroke="#E5E7F3"/>
<path d="M166.459 82.4203C166.459 85.0223 164.673 87.467 161.593 89.2884C158.524 91.1032 154.252 92.2419 149.507 92.2419C144.761 92.2419 140.489 91.1032 137.42 89.2884C134.34 87.467 132.554 85.0223 132.554 82.4203C132.554 79.8184 134.34 77.3737 137.42 75.5523C140.489 73.7374 144.761 72.5988 149.507 72.5988C154.252 72.5988 158.524 73.7374 161.593 75.5523C164.673 77.3737 166.459 79.8184 166.459 82.4203Z" stroke="#E5E7F3"/>
<path opacity="0.7" d="M212 53.7279L179.638 36.5737L148.415 53.7279L180.676 70.8894L212 53.7279Z" fill="#9FA9FF"/>
<path d="M186.088 46.8953L168.823 52.7129L186.088 58.3428" stroke="#6361DE"/>
<path d="M189.904 58.1551C189.904 58.7185 189.57 59.285 188.914 59.7325C188.26 60.1782 187.329 60.4701 186.276 60.4701C185.223 60.4701 184.292 60.1782 183.638 59.7325C182.982 59.285 182.647 58.7185 182.647 58.1551C182.647 57.5917 182.982 57.0252 183.638 56.5777C184.292 56.132 185.223 55.8401 186.276 55.8401C187.329 55.8401 188.26 56.132 188.914 56.5777C189.57 57.0252 189.904 57.5917 189.904 58.1551Z" stroke="#E5E7F3"/>
<path d="M189.904 47.2706C189.904 47.834 189.57 48.4005 188.914 48.848C188.26 49.2937 187.329 49.5855 186.276 49.5855C185.223 49.5855 184.292 49.2937 183.638 48.848C182.982 48.4005 182.647 47.834 182.647 47.2706C182.647 46.7072 182.982 46.1407 183.638 45.6932C184.292 45.2475 185.223 44.9556 186.276 44.9556C187.329 44.9556 188.26 45.2475 188.914 45.6932C189.57 46.1407 189.904 46.7072 189.904 47.2706Z" stroke="#E5E7F3"/>
<path d="M172.639 52.9005C172.639 53.4639 172.305 54.0304 171.648 54.4779C170.995 54.9237 170.064 55.2155 169.011 55.2155C167.958 55.2155 167.027 54.9237 166.373 54.4779C165.717 54.0304 165.382 53.4639 165.382 52.9005C165.382 52.3372 165.717 51.7707 166.373 51.3232C167.027 50.8774 167.958 50.5856 169.011 50.5856C170.064 50.5856 170.995 50.8774 171.648 51.3232C172.305 51.7707 172.639 52.3372 172.639 52.9005Z" stroke="#E5E7F3"/>
<path d="M191.406 52.5252C191.406 54.1926 190.251 55.793 188.19 57.0039C186.139 58.2079 183.274 58.9687 180.083 58.9687C176.891 58.9687 174.026 58.2079 171.976 57.0039C169.914 55.793 168.76 54.1926 168.76 52.5252C168.76 50.8577 169.914 49.2574 171.976 48.0465C174.026 46.8424 176.891 46.0816 180.083 46.0816C183.274 46.0816 186.139 46.8424 188.19 48.0465C190.251 49.2574 191.406 50.8577 191.406 52.5252Z" stroke="#E5E7F3"/>
<path d="M165.096 53.255L145.079 72.1604" stroke="#322AA1" stroke-linecap="round"/>
<path d="M172.881 53.811L170.657 82.1692" stroke="#322AA1" stroke-linecap="round"/>
<path opacity="0.4" d="M160.47 122.077L109.702 89.9537L55 122.077L108.204 152.529L160.47 122.077Z" fill="#6D7CFF"/>
<path d="M99.4763 108.241L86.9028 129.071L109.798 136.015" stroke="#6361DE"/>
<path d="M133.068 123.629L83.3373 121.19L121.058 134.138" stroke="#4040CA"/>
<path d="M83.3373 120.814L99.2887 107.865L122.559 109.554L131.567 117.249L83.3373 120.814Z" stroke="#9DA5FF"/>
<path d="M103.293 108.053C103.293 108.616 102.958 109.183 102.302 109.63C101.648 110.076 100.717 110.368 99.664 110.368C98.6112 110.368 97.6801 110.076 97.0263 109.63C96.37 109.183 96.0354 108.616 96.0354 108.053C96.0354 107.49 96.37 106.923 97.0263 106.476C97.6801 106.03 98.6112 105.738 99.664 105.738C100.717 105.738 101.648 106.03 102.302 106.476C102.958 106.923 103.293 107.49 103.293 108.053Z" stroke="#E5E7F3"/>
<path d="M132.944 121.753C132.944 125.652 130.293 129.27 125.822 131.939C121.361 134.602 115.166 136.266 108.297 136.266C101.427 136.266 95.232 134.602 90.7712 131.939C86.3001 129.27 83.6495 125.652 83.6495 121.753C83.6495 117.853 86.3001 114.235 90.7712 111.566C95.232 108.903 101.427 107.239 108.297 107.239C115.166 107.239 121.361 108.903 125.822 111.566C130.293 114.235 132.944 117.853 132.944 121.753Z" stroke="#E5E7F3"/>
<path d="M91.6575 112.932C91.6575 113.496 91.3229 114.062 90.6666 114.51C90.0128 114.955 89.0817 115.247 88.0289 115.247C86.976 115.247 86.045 114.955 85.3912 114.51C84.7348 114.062 84.4003 113.496 84.4003 112.932C84.4003 112.369 84.7348 111.802 85.3912 111.355C86.045 110.909 86.976 110.617 88.0289 110.617C89.0817 110.617 90.0128 110.909 90.6666 111.355C91.3229 111.802 91.6575 112.369 91.6575 112.932Z" stroke="#E5E7F3"/>
<path d="M85.6522 121.565C85.6522 122.128 85.3177 122.695 84.6613 123.142C84.0075 123.588 83.0765 123.88 82.0236 123.88C80.9708 123.88 80.0397 123.588 79.3859 123.142C78.7296 122.695 78.395 122.128 78.395 121.565C78.395 121.002 78.7296 120.435 79.3859 119.988C80.0397 119.542 80.9708 119.25 82.0236 119.25C83.0765 119.25 84.0075 119.542 84.6613 119.988C85.3177 120.435 85.6522 121.002 85.6522 121.565Z" stroke="#E5E7F3"/>
<path d="M89.7808 129.071C89.7808 129.635 89.4462 130.201 88.7899 130.649C88.1361 131.095 87.205 131.386 86.1522 131.386C85.0993 131.386 84.1683 131.095 83.5145 130.649C82.8581 130.201 82.5236 129.635 82.5236 129.071C82.5236 128.508 82.8581 127.942 83.5145 127.494C84.1683 127.048 85.0993 126.756 86.1522 126.756C87.205 126.756 88.1361 127.048 88.7899 127.494C89.4462 127.942 89.7808 128.508 89.7808 129.071Z" stroke="#E5E7F3"/>
<path d="M136.321 124.192C136.321 124.756 135.987 125.322 135.331 125.77C134.677 126.215 133.746 126.507 132.693 126.507C131.64 126.507 130.709 126.215 130.055 125.77C129.399 125.322 129.064 124.756 129.064 124.192C129.064 123.629 129.399 123.062 130.055 122.615C130.709 122.169 131.64 121.877 132.693 121.877C133.746 121.877 134.677 122.169 135.331 122.615C135.987 123.062 136.321 123.629 136.321 124.192Z" stroke="#E5E7F3"/>
<path d="M134.82 117.436C134.82 118 134.486 118.566 133.829 119.014C133.176 119.459 132.244 119.751 131.192 119.751C130.139 119.751 129.208 119.459 128.554 119.014C127.898 118.566 127.563 118 127.563 117.436C127.563 116.873 127.898 116.306 128.554 115.859C129.208 115.413 130.139 115.121 131.192 115.121C132.244 115.121 133.176 115.413 133.829 115.859C134.486 116.306 134.82 116.873 134.82 117.436Z" stroke="#E5E7F3"/>
<path d="M124.686 108.804C124.686 109.367 124.352 109.934 123.695 110.381C123.042 110.827 122.111 111.119 121.058 111.119C120.005 111.119 119.074 110.827 118.42 110.381C117.764 109.934 117.429 109.367 117.429 108.804C117.429 108.24 117.764 107.674 118.42 107.226C119.074 106.781 120.005 106.489 121.058 106.489C122.111 106.489 123.042 106.781 123.695 107.226C124.352 107.674 124.686 108.24 124.686 108.804Z" stroke="#E5E7F3"/>
<path d="M127.841 83.2812L91.6987 111.083" stroke="#322AA1" stroke-linecap="round"/>
<path d="M135.07 84.3933L132.846 122.204" stroke="#322AA1" stroke-linecap="round"/>
</g>
<path d="M28.184 154.574V143.374H31.624C33.5973 143.374 35.048 143.875 35.976 144.878C36.9147 145.88 37.384 147.256 37.384 149.006C37.384 150.723 36.9147 152.083 35.976 153.086C35.048 154.078 33.5973 154.574 31.624 154.574H28.184ZM29.528 153.454H31.592C32.68 153.454 33.544 153.278 34.184 152.926C34.8347 152.563 35.2987 152.051 35.576 151.39C35.8533 150.718 35.992 149.923 35.992 149.006C35.992 148.067 35.8533 147.262 35.576 146.59C35.2987 145.918 34.8347 145.4 34.184 145.038C33.544 144.675 32.68 144.494 31.592 144.494H29.528V153.454ZM40.1086 158.094L42.0766 153.806H41.6126L38.4606 146.638H39.9166L42.5406 152.814L45.3246 146.638H46.7166L41.5166 158.094H40.1086ZM48.1353 154.574V146.638H49.3513L49.4313 148.062C49.6873 147.56 50.0553 147.166 50.5353 146.878C51.0153 146.59 51.5593 146.446 52.1673 146.446C53.1059 146.446 53.8526 146.734 54.4073 147.31C54.9726 147.875 55.2552 148.75 55.2552 149.934V154.574H53.9113V150.078C53.9113 148.424 53.2286 147.598 51.8633 147.598C51.1806 147.598 50.6099 147.848 50.1513 148.35C49.7033 148.84 49.4793 149.544 49.4793 150.462V154.574H48.1353ZM59.9315 154.766C59.2702 154.766 58.7208 154.654 58.2835 154.43C57.8462 154.206 57.5208 153.907 57.3075 153.534C57.0942 153.16 56.9875 152.755 56.9875 152.318C56.9875 151.507 57.2968 150.883 57.9155 150.446C58.5342 150.008 59.3768 149.79 60.4435 149.79H62.5875V149.694C62.5875 149 62.4062 148.478 62.0435 148.126C61.6808 147.763 61.1955 147.582 60.5875 147.582C60.0648 147.582 59.6115 147.715 59.2275 147.982C58.8542 148.238 58.6195 148.616 58.5235 149.118H57.1475C57.2008 148.542 57.3928 148.056 57.7235 147.662C58.0648 147.267 58.4862 146.968 58.9875 146.766C59.4888 146.552 60.0222 146.446 60.5875 146.446C61.6968 146.446 62.5288 146.744 63.0835 147.342C63.6488 147.928 63.9315 148.712 63.9315 149.694V154.574H62.7315L62.6515 153.15C62.4275 153.598 62.0968 153.982 61.6595 154.302C61.2328 154.611 60.6568 154.766 59.9315 154.766ZM60.1395 153.63C60.6515 153.63 61.0888 153.496 61.4515 153.23C61.8248 152.963 62.1075 152.616 62.2995 152.19C62.4915 151.763 62.5875 151.315 62.5875 150.846V150.83H60.5555C59.7662 150.83 59.2062 150.968 58.8755 151.246C58.5555 151.512 58.3955 151.848 58.3955 152.254C58.3955 152.67 58.5448 153.006 58.8435 153.262C59.1528 153.507 59.5848 153.63 60.1395 153.63ZM65.9478 154.574V146.638H67.1638L67.2598 147.79C67.5158 147.363 67.8571 147.032 68.2838 146.798C68.7104 146.563 69.1904 146.446 69.7238 146.446C70.3531 146.446 70.8918 146.574 71.3398 146.83C71.7984 147.086 72.1504 147.475 72.3958 147.998C72.6731 147.518 73.0518 147.139 73.5318 146.862C74.0224 146.584 74.5504 146.446 75.1158 146.446C76.0651 146.446 76.8224 146.734 77.3878 147.31C77.9531 147.875 78.2358 148.75 78.2358 149.934V154.574H76.9078V150.078C76.9078 149.256 76.7424 148.638 76.4118 148.222C76.0811 147.806 75.6064 147.598 74.9878 147.598C74.3478 147.598 73.8144 147.848 73.3878 148.35C72.9718 148.84 72.7638 149.544 72.7638 150.462V154.574H71.4198V150.078C71.4198 149.256 71.2544 148.638 70.9238 148.222C70.5931 147.806 70.1184 147.598 69.4998 147.598C68.8704 147.598 68.3424 147.848 67.9158 148.35C67.4998 148.84 67.2918 149.544 67.2918 150.462V154.574H65.9478ZM81.0763 144.878C80.8096 144.878 80.5856 144.792 80.4043 144.622C80.2336 144.44 80.1483 144.216 80.1483 143.95C80.1483 143.694 80.2336 143.48 80.4043 143.31C80.5856 143.139 80.8096 143.054 81.0763 143.054C81.3323 143.054 81.5509 143.139 81.7323 143.31C81.9136 143.48 82.0043 143.694 82.0043 143.95C82.0043 144.216 81.9136 144.44 81.7323 144.622C81.5509 144.792 81.3323 144.878 81.0763 144.878ZM80.4043 154.574V146.638H81.7483V154.574H80.4043ZM87.7364 154.766C86.979 154.766 86.2964 154.595 85.6884 154.254C85.091 153.902 84.6164 153.416 84.2644 152.798C83.923 152.168 83.7524 151.438 83.7524 150.606C83.7524 149.774 83.923 149.048 84.2644 148.43C84.6164 147.8 85.091 147.315 85.6884 146.974C86.2964 146.622 86.979 146.446 87.7364 146.446C88.675 146.446 89.4644 146.691 90.1044 147.182C90.755 147.672 91.1657 148.328 91.3364 149.15H89.9604C89.8537 148.659 89.5924 148.28 89.1764 148.014C88.7604 147.736 88.275 147.598 87.7204 147.598C87.2724 147.598 86.851 147.71 86.4564 147.934C86.0617 148.158 85.7417 148.494 85.4964 148.942C85.251 149.39 85.1284 149.944 85.1284 150.606C85.1284 151.267 85.251 151.822 85.4964 152.27C85.7417 152.718 86.0617 153.059 86.4564 153.294C86.851 153.518 87.2724 153.63 87.7204 153.63C88.275 153.63 88.7604 153.496 89.1764 153.23C89.5924 152.952 89.8537 152.563 89.9604 152.062H91.3364C91.1764 152.862 90.771 153.512 90.1204 154.014C89.4697 154.515 88.675 154.766 87.7364 154.766ZM102.616 154.766C101.517 154.766 100.552 154.526 99.7198 154.046C98.8984 153.555 98.2531 152.872 97.7838 151.998C97.3251 151.123 97.0958 150.115 97.0958 148.974C97.0958 147.832 97.3251 146.83 97.7838 145.966C98.2531 145.091 98.8984 144.408 99.7198 143.918C100.552 143.427 101.517 143.182 102.616 143.182C103.725 143.182 104.69 143.427 105.512 143.918C106.344 144.408 106.989 145.091 107.448 145.966C107.906 146.83 108.136 147.832 108.136 148.974C108.136 150.115 107.906 151.123 107.448 151.998C106.989 152.862 106.36 153.534 105.56 154.014L108.392 156.734H106.648L104.376 154.526C103.832 154.686 103.245 154.766 102.616 154.766ZM102.616 153.582C103.437 153.582 104.157 153.4 104.776 153.038C105.405 152.664 105.89 152.136 106.232 151.454C106.584 150.76 106.76 149.934 106.76 148.974C106.76 148.014 106.584 147.192 106.232 146.51C105.89 145.827 105.405 145.304 104.776 144.942C104.157 144.568 103.437 144.382 102.616 144.382C101.794 144.382 101.069 144.568 100.44 144.942C99.8211 145.304 99.3358 145.827 98.9838 146.51C98.6424 147.192 98.4718 148.014 98.4718 148.974C98.4718 149.934 98.6424 150.76 98.9838 151.454C99.3358 152.136 99.8211 152.664 100.44 153.038C101.069 153.4 101.794 153.582 102.616 153.582ZM113.016 154.766C112.077 154.766 111.33 154.483 110.776 153.918C110.221 153.342 109.944 152.462 109.944 151.278V146.638H111.288V151.134C111.288 152.787 111.965 153.614 113.32 153.614C114.013 153.614 114.584 153.368 115.032 152.878C115.49 152.376 115.72 151.667 115.72 150.75V146.638H117.064V154.574H115.848L115.752 153.15C115.506 153.651 115.138 154.046 114.648 154.334C114.168 154.622 113.624 154.766 113.016 154.766ZM121.916 154.766C121.255 154.766 120.705 154.654 120.268 154.43C119.831 154.206 119.505 153.907 119.292 153.534C119.079 153.16 118.972 152.755 118.972 152.318C118.972 151.507 119.281 150.883 119.9 150.446C120.519 150.008 121.361 149.79 122.428 149.79H124.572V149.694C124.572 149 124.391 148.478 124.028 148.126C123.665 147.763 123.18 147.582 122.572 147.582C122.049 147.582 121.596 147.715 121.212 147.982C120.839 148.238 120.604 148.616 120.508 149.118H119.132C119.185 148.542 119.377 148.056 119.708 147.662C120.049 147.267 120.471 146.968 120.972 146.766C121.473 146.552 122.007 146.446 122.572 146.446C123.681 146.446 124.513 146.744 125.068 147.342C125.633 147.928 125.916 148.712 125.916 149.694V154.574H124.716L124.636 153.15C124.412 153.598 124.081 153.982 123.644 154.302C123.217 154.611 122.641 154.766 121.916 154.766ZM122.124 153.63C122.636 153.63 123.073 153.496 123.436 153.23C123.809 152.963 124.092 152.616 124.284 152.19C124.476 151.763 124.572 151.315 124.572 150.846V150.83H122.54C121.751 150.83 121.191 150.968 120.86 151.246C120.54 151.512 120.38 151.848 120.38 152.254C120.38 152.67 120.529 153.006 120.828 153.262C121.137 153.507 121.569 153.63 122.124 153.63ZM127.932 154.574V146.638H129.148L129.228 148.062C129.484 147.56 129.852 147.166 130.332 146.878C130.812 146.59 131.356 146.446 131.964 146.446C132.903 146.446 133.649 146.734 134.204 147.31C134.769 147.875 135.052 148.75 135.052 149.934V154.574H133.708V150.078C133.708 148.424 133.025 147.598 131.66 147.598C130.977 147.598 130.407 147.848 129.948 148.35C129.5 148.84 129.276 149.544 129.276 150.462V154.574H127.932ZM140.224 154.574C139.499 154.574 138.928 154.398 138.512 154.046C138.096 153.694 137.888 153.059 137.888 152.142V147.774H136.512V146.638H137.888L138.064 144.734H139.232V146.638H141.568V147.774H139.232V152.142C139.232 152.643 139.334 152.984 139.536 153.166C139.739 153.336 140.096 153.422 140.608 153.422H141.44V154.574H140.224ZM146.172 154.766C145.233 154.766 144.487 154.483 143.932 153.918C143.377 153.342 143.1 152.462 143.1 151.278V146.638H144.444V151.134C144.444 152.787 145.121 153.614 146.476 153.614C147.169 153.614 147.74 153.368 148.188 152.878C148.647 152.376 148.876 151.667 148.876 150.75V146.638H150.22V154.574H149.004L148.908 153.15C148.663 153.651 148.295 154.046 147.804 154.334C147.324 154.622 146.78 154.766 146.172 154.766ZM152.432 154.574V146.638H153.648L153.744 147.79C154 147.363 154.341 147.032 154.768 146.798C155.195 146.563 155.675 146.446 156.208 146.446C156.837 146.446 157.376 146.574 157.824 146.83C158.283 147.086 158.635 147.475 158.88 147.998C159.157 147.518 159.536 147.139 160.016 146.862C160.507 146.584 161.035 146.446 161.6 146.446C162.549 146.446 163.307 146.734 163.872 147.31C164.437 147.875 164.72 148.75 164.72 149.934V154.574H163.392V150.078C163.392 149.256 163.227 148.638 162.896 148.222C162.565 147.806 162.091 147.598 161.472 147.598C160.832 147.598 160.299 147.848 159.872 148.35C159.456 148.84 159.248 149.544 159.248 150.462V154.574H157.904V150.078C157.904 149.256 157.739 148.638 157.408 148.222C157.077 147.806 156.603 147.598 155.984 147.598C155.355 147.598 154.827 147.848 154.4 148.35C153.984 148.84 153.776 149.544 153.776 150.462V154.574H152.432ZM175.971 154.766C174.872 154.766 173.923 154.526 173.123 154.046C172.334 153.555 171.72 152.878 171.283 152.014C170.846 151.139 170.627 150.126 170.627 148.974C170.627 147.832 170.846 146.83 171.283 145.966C171.72 145.091 172.334 144.408 173.123 143.918C173.923 143.427 174.872 143.182 175.971 143.182C177.251 143.182 178.291 143.491 179.091 144.11C179.902 144.718 180.419 145.571 180.643 146.67H179.155C178.984 145.976 178.632 145.422 178.099 145.006C177.576 144.579 176.867 144.366 175.971 144.366C175.171 144.366 174.472 144.552 173.875 144.926C173.278 145.288 172.814 145.816 172.483 146.51C172.163 147.192 172.003 148.014 172.003 148.974C172.003 149.934 172.163 150.76 172.483 151.454C172.814 152.136 173.278 152.664 173.875 153.038C174.472 153.4 175.171 153.582 175.971 153.582C176.867 153.582 177.576 153.379 178.099 152.974C178.632 152.558 178.984 152.008 179.155 151.326H180.643C180.419 152.403 179.902 153.246 179.091 153.854C178.291 154.462 177.251 154.766 175.971 154.766ZM182.495 154.574V143.054H183.839V147.998C184.105 147.507 184.484 147.128 184.975 146.862C185.465 146.584 185.999 146.446 186.575 146.446C187.492 146.446 188.228 146.734 188.783 147.31C189.337 147.875 189.615 148.75 189.615 149.934V154.574H188.287V150.078C188.287 148.424 187.62 147.598 186.287 147.598C185.593 147.598 185.012 147.848 184.543 148.35C184.073 148.84 183.839 149.544 183.839 150.462V154.574H182.495ZM195.219 154.766C194.462 154.766 193.79 154.595 193.203 154.254C192.616 153.902 192.152 153.416 191.811 152.798C191.48 152.179 191.315 151.448 191.315 150.606C191.315 149.774 191.48 149.048 191.811 148.43C192.142 147.8 192.6 147.315 193.187 146.974C193.784 146.622 194.472 146.446 195.251 146.446C196.019 146.446 196.68 146.622 197.235 146.974C197.8 147.315 198.232 147.768 198.531 148.334C198.83 148.899 198.979 149.507 198.979 150.158C198.979 150.275 198.974 150.392 198.963 150.51C198.963 150.627 198.963 150.76 198.963 150.91H192.643C192.675 151.518 192.814 152.024 193.059 152.43C193.315 152.824 193.63 153.123 194.003 153.326C194.387 153.528 194.792 153.63 195.219 153.63C195.774 153.63 196.238 153.502 196.611 153.246C196.984 152.99 197.256 152.643 197.427 152.206H198.755C198.542 152.942 198.131 153.555 197.523 154.046C196.926 154.526 196.158 154.766 195.219 154.766ZM195.219 147.582C194.579 147.582 194.008 147.779 193.507 148.174C193.016 148.558 192.734 149.123 192.659 149.87H197.651C197.619 149.155 197.374 148.595 196.915 148.19C196.456 147.784 195.891 147.582 195.219 147.582ZM200.76 154.574V146.638H201.976L202.072 147.79C202.328 147.363 202.67 147.032 203.096 146.798C203.523 146.563 204.003 146.446 204.536 146.446C205.166 146.446 205.704 146.574 206.152 146.83C206.611 147.086 206.963 147.475 207.208 147.998C207.486 147.518 207.864 147.139 208.344 146.862C208.835 146.584 209.363 146.446 209.928 146.446C210.878 146.446 211.635 146.734 212.2 147.31C212.766 147.875 213.048 148.75 213.048 149.934V154.574H211.72V150.078C211.72 149.256 211.555 148.638 211.224 148.222C210.894 147.806 210.419 147.598 209.8 147.598C209.16 147.598 208.627 147.848 208.2 148.35C207.784 148.84 207.576 149.544 207.576 150.462V154.574H206.232V150.078C206.232 149.256 206.067 148.638 205.736 148.222C205.406 147.806 204.931 147.598 204.312 147.598C203.683 147.598 203.155 147.848 202.728 148.35C202.312 148.84 202.104 149.544 202.104 150.462V154.574H200.76ZM215.889 144.878C215.622 144.878 215.398 144.792 215.217 144.622C215.046 144.44 214.961 144.216 214.961 143.95C214.961 143.694 215.046 143.48 215.217 143.31C215.398 143.139 215.622 143.054 215.889 143.054C216.145 143.054 216.363 143.139 216.545 143.31C216.726 143.48 216.817 143.694 216.817 143.95C216.817 144.216 216.726 144.44 216.545 144.622C216.363 144.792 216.145 144.878 215.889 144.878ZM215.217 154.574V146.638H216.561V154.574H215.217ZM221.941 154.766C220.992 154.766 220.202 154.526 219.573 154.046C218.944 153.566 218.576 152.915 218.469 152.094H219.845C219.93 152.51 220.149 152.872 220.501 153.182C220.864 153.48 221.349 153.63 221.957 153.63C222.522 153.63 222.938 153.512 223.205 153.278C223.472 153.032 223.605 152.744 223.605 152.414C223.605 151.934 223.429 151.614 223.077 151.454C222.736 151.294 222.25 151.15 221.621 151.022C221.194 150.936 220.768 150.814 220.341 150.654C219.914 150.494 219.557 150.27 219.269 149.982C218.981 149.683 218.837 149.294 218.837 148.814C218.837 148.12 219.093 147.555 219.605 147.118C220.128 146.67 220.832 146.446 221.717 146.446C222.56 146.446 223.248 146.659 223.781 147.086C224.325 147.502 224.64 148.099 224.725 148.878H223.397C223.344 148.472 223.168 148.158 222.869 147.934C222.581 147.699 222.192 147.582 221.701 147.582C221.221 147.582 220.848 147.683 220.581 147.886C220.325 148.088 220.197 148.355 220.197 148.686C220.197 149.006 220.362 149.256 220.693 149.438C221.034 149.619 221.493 149.774 222.069 149.902C222.56 150.008 223.024 150.142 223.461 150.302C223.909 150.451 224.272 150.68 224.549 150.99C224.837 151.288 224.981 151.726 224.981 152.302C224.992 153.016 224.72 153.608 224.165 154.078C223.621 154.536 222.88 154.766 221.941 154.766ZM229.678 154.574C228.952 154.574 228.382 154.398 227.966 154.046C227.55 153.694 227.342 153.059 227.342 152.142V147.774H225.965V146.638H227.342L227.518 144.734H228.686V146.638H231.022V147.774H228.686V152.142C228.686 152.643 228.787 152.984 228.99 153.166C229.192 153.336 229.55 153.422 230.062 153.422H230.894V154.574H229.678ZM232.729 154.574V146.638H233.945L234.057 148.158C234.302 147.635 234.676 147.219 235.177 146.91C235.678 146.6 236.297 146.446 237.033 146.446V147.854H236.665C236.196 147.854 235.764 147.939 235.369 148.11C234.974 148.27 234.66 148.547 234.425 148.942C234.19 149.336 234.073 149.88 234.073 150.574V154.574H232.729ZM239.406 158.094L241.374 153.806H240.91L237.758 146.638H239.214L241.838 152.814L244.622 146.638H246.014L240.814 158.094H239.406ZM30.488 175.59L27.416 164.374H28.856L31.272 173.99L34.024 164.374H35.512L38.184 173.99L40.632 164.374H42.072L38.936 175.574H37.4L34.728 166.326L31.992 175.574L30.488 175.59ZM46.3763 175.766C45.6296 175.766 44.9576 175.595 44.3603 175.254C43.7629 174.912 43.2883 174.432 42.9363 173.814C42.5949 173.184 42.4243 172.448 42.4243 171.606C42.4243 170.763 42.6003 170.032 42.9523 169.414C43.3043 168.784 43.7789 168.299 44.3763 167.958C44.9843 167.616 45.6616 167.446 46.4083 167.446C47.1549 167.446 47.8269 167.616 48.4243 167.958C49.0216 168.299 49.4909 168.784 49.8323 169.414C50.1843 170.032 50.3603 170.763 50.3603 171.606C50.3603 172.448 50.1843 173.184 49.8323 173.814C49.4803 174.432 49.0003 174.912 48.3923 175.254C47.7949 175.595 47.1229 175.766 46.3763 175.766ZM46.3763 174.614C46.8349 174.614 47.2616 174.502 47.6563 174.278C48.0509 174.054 48.3709 173.718 48.6163 173.27C48.8616 172.822 48.9843 172.267 48.9843 171.606C48.9843 170.944 48.8616 170.39 48.6163 169.942C48.3816 169.494 48.0669 169.158 47.6723 168.934C47.2776 168.71 46.8563 168.598 46.4083 168.598C45.9496 168.598 45.5229 168.71 45.1283 168.934C44.7336 169.158 44.4136 169.494 44.1683 169.942C43.9229 170.39 43.8003 170.944 43.8003 171.606C43.8003 172.267 43.9229 172.822 44.1683 173.27C44.4136 173.718 44.7283 174.054 45.1123 174.278C45.5069 174.502 45.9283 174.614 46.3763 174.614ZM52.229 175.574V167.638H53.445L53.557 169.158C53.8023 168.635 54.1757 168.219 54.677 167.91C55.1783 167.6 55.797 167.446 56.533 167.446V168.854H56.165C55.6957 168.854 55.2637 168.939 54.869 169.11C54.4743 169.27 54.1597 169.547 53.925 169.942C53.6903 170.336 53.573 170.88 53.573 171.574V175.574H52.229ZM58.0415 175.574V164.054H59.3855V170.982L62.6335 167.638H64.2815L60.7615 171.222L64.7295 175.574H63.0175L59.3855 171.462V175.574H58.0415ZM66.536 175.574V168.774H65.336V167.638H66.536V166.262C66.536 165.494 66.728 164.934 67.112 164.582C67.496 164.23 68.056 164.054 68.792 164.054H69.592V165.206H69C68.5947 165.206 68.3067 165.291 68.136 165.462C67.9653 165.622 67.88 165.899 67.88 166.294V167.638H69.832V168.774H67.88V175.574H66.536ZM71.432 175.574V164.054H72.776V175.574H71.432ZM78.595 175.766C77.8483 175.766 77.1763 175.595 76.579 175.254C75.9817 174.912 75.507 174.432 75.155 173.814C74.8137 173.184 74.643 172.448 74.643 171.606C74.643 170.763 74.819 170.032 75.171 169.414C75.523 168.784 75.9977 168.299 76.595 167.958C77.203 167.616 77.8803 167.446 78.627 167.446C79.3737 167.446 80.0457 167.616 80.643 167.958C81.2403 168.299 81.7097 168.784 82.051 169.414C82.403 170.032 82.579 170.763 82.579 171.606C82.579 172.448 82.403 173.184 82.051 173.814C81.699 174.432 81.219 174.912 80.611 175.254C80.0137 175.595 79.3417 175.766 78.595 175.766ZM78.595 174.614C79.0537 174.614 79.4803 174.502 79.875 174.278C80.2697 174.054 80.5897 173.718 80.835 173.27C81.0803 172.822 81.203 172.267 81.203 171.606C81.203 170.944 81.0803 170.39 80.835 169.942C80.6003 169.494 80.2857 169.158 79.891 168.934C79.4963 168.71 79.075 168.598 78.627 168.598C78.1683 168.598 77.7417 168.71 77.347 168.934C76.9523 169.158 76.6323 169.494 76.387 169.942C76.1417 170.39 76.019 170.944 76.019 171.606C76.019 172.267 76.1417 172.822 76.387 173.27C76.6323 173.718 76.947 174.054 77.331 174.278C77.7257 174.502 78.147 174.614 78.595 174.614ZM85.7509 175.574L83.4309 167.638H84.7749L86.4549 173.862L88.3109 167.638H89.8309L91.7029 173.862L93.3669 167.638H94.7269L92.4069 175.574H91.0309L89.0789 169.03L87.1269 175.574H85.7509Z" fill="white"/>
</g>
<defs>
<filter id="filter0_d_998_1443" x="0" y="0.57373" width="374" height="217" filterUnits="userSpaceOnUse" color-interpolation-filters="sRGB">
<feFlood flood-opacity="0" result="BackgroundImageFix"/>
<feColorMatrix in="SourceAlpha" type="matrix" values="0 0 0 0 0 0 0 0 0 0 0 0 0 0 0 0 0 0 127 0" result="hardAlpha"/>
<feOffset dy="4"/>
<feGaussianBlur stdDeviation="8.5"/>
<feComposite in2="hardAlpha" operator="out"/>
<feColorMatrix type="matrix" values="0 0 0 0 0 0 0 0 0 0 0 0 0 0 0 0 0 0 0.47 0"/>
<feBlend mode="normal" in2="BackgroundImageFix" result="effect1_dropShadow_998_1443"/>
<feBlend mode="normal" in="SourceGraphic" in2="effect1_dropShadow_998_1443" result="shape"/>
</filter>
<clipPath id="clip0_998_1443">
<rect x="27" y="33.5737" width="319" height="95" rx="6" fill="white"/>
</clipPath>
</defs>
</svg>
