<svg width="672" height="188" viewBox="0 0 672 188" fill="none" xmlns="http://www.w3.org/2000/svg">
<g clip-path="url(#clip0_11_7)">
<mask id="mask0_11_7" style="mask-type:luminance" maskUnits="userSpaceOnUse" x="0" y="0" width="672" height="188">
<path d="M661.827 0H10.1737C4.65086 0 0.173706 4.47715 0.173706 10V177.573C0.173706 183.096 4.65086 187.573 10.1737 187.573H661.827C667.35 187.573 671.827 183.096 671.827 177.573V10C671.827 4.47715 667.35 0 661.827 0Z" fill="white"/>
</mask>
<g mask="url(#mask0_11_7)">
<path d="M661.827 0H10.1737C4.65086 0 0.173706 4.47715 0.173706 10V177.573C0.173706 183.096 4.65086 187.573 10.1737 187.573H661.827C667.35 187.573 671.827 183.096 671.827 177.573V10C671.827 4.47715 667.35 0 661.827 0Z" fill="#0E1116"/>
<path d="M27.1737 28C31.0397 28 34.1737 24.866 34.1737 21C34.1737 17.134 31.0397 14 27.1737 14C23.3077 14 20.1737 17.134 20.1737 21C20.1737 24.866 23.3077 28 27.1737 28Z" fill="#E96960"/>
<path d="M51.1737 28C55.0397 28 58.1737 24.866 58.1737 21C58.1737 17.134 55.0397 14 51.1737 14C47.3077 14 44.1737 17.134 44.1737 21C44.1737 24.866 47.3077 28 51.1737 28Z" fill="#F3BF50"/>
<path d="M75.1737 28C79.0397 28 82.1737 24.866 82.1737 21C82.1737 17.134 79.0397 14 75.1737 14C71.3077 14 68.1737 17.134 68.1737 21C68.1737 24.866 71.3077 28 75.1737 28Z" fill="#67C558"/>
<path d="M0.173706 43.5H671.826" stroke="#5552FF"/>
<path d="M21.0217 71.92C21.0217 69.36 22.6217 67.888 24.8777 67.888C27.1177 67.888 28.5897 69.312 28.5897 71.76V72.272H22.3017C22.3817 73.776 23.1017 75.072 25.0697 75.072C26.3817 75.072 27.2617 74.432 27.5497 73.216H28.8617C28.5577 74.448 27.5977 76.16 25.0697 76.16C22.2217 76.16 21.0217 74.208 21.0217 71.92ZM22.3017 71.28H27.3097C27.3097 70 26.4617 68.992 24.8777 68.992C23.3097 68.992 22.3017 70 22.3017 71.28ZM29.3461 76L32.3381 72.208V71.824L29.3461 68.048H30.8981L33.3141 71.248L35.7301 68.048H37.2821L34.2901 71.824V72.208L37.2821 76H35.7301L33.3141 72.784L30.8981 76H29.3461ZM37.803 71.92C37.803 69.36 39.403 67.888 41.659 67.888C43.899 67.888 45.371 69.312 45.371 71.76V72.272H39.083C39.163 73.776 39.883 75.072 41.851 75.072C43.163 75.072 44.043 74.432 44.331 73.216H45.643C45.339 74.448 44.379 76.16 41.851 76.16C39.003 76.16 37.803 74.208 37.803 71.92ZM39.083 71.28H44.091C44.091 70 43.243 68.992 41.659 68.992C40.091 68.992 39.083 70 39.083 71.28ZM47.1311 72.016C47.1311 69.728 48.6191 67.888 51.1951 67.888C52.7311 67.888 54.6991 68.752 54.9071 71.056H53.5791C53.3551 69.536 52.3471 69.008 51.1951 69.008C49.3071 69.008 48.4431 70.384 48.4431 72.016C48.4431 73.664 49.3071 75.04 51.1951 75.04C52.3471 75.04 53.3551 74.512 53.5791 72.992H54.9071C54.6991 75.296 52.7311 76.16 51.1951 76.16C48.6191 76.16 47.1311 74.32 47.1311 72.016ZM59.8847 75.04C61.5647 75.04 62.7487 73.712 62.7487 71.584V68.048H64.0447V76H62.7487V74.624L62.9567 73.712H62.5887C62.2687 75.152 61.2607 76.16 59.5327 76.16C57.7247 76.16 56.5567 75.12 56.5567 72.912V68.048H57.8687V72.736C57.8687 74.4 58.5087 75.04 59.8847 75.04ZM68.4883 75.056L71.2883 74.88V76L68.2803 76.16C67.5283 76.208 67.1923 75.808 67.1923 75.072V69.168H65.4323V68.048H67.1923V66L68.4883 65.6V68.048H70.9683V69.168H68.4883V75.056ZM72.3498 72.016C72.3498 69.712 74.0138 67.888 76.5578 67.888C79.0858 67.888 80.7338 69.712 80.7338 72.016C80.7338 74.336 79.0858 76.16 76.5578 76.16C74.0138 76.16 72.3498 74.336 72.3498 72.016ZM73.6618 72.016C73.6618 73.68 74.6698 75.04 76.5578 75.04C78.4298 75.04 79.4378 73.68 79.4378 72.016C79.4378 70.368 78.4298 69.008 76.5578 69.008C74.6698 69.008 73.6618 70.368 73.6618 72.016ZM82.5605 76V68.992C82.5605 68.24 82.9125 67.872 83.6645 67.904L88.0805 68.048V69.168L83.8725 69.024V76H82.5605Z" fill="#EC7A8B"/>
<path d="M95.0955 69.808H102.727V70.88H95.0955V69.808ZM95.0955 73.072H102.727V74.128H95.0955V73.072Z" fill="#E3CC71"/>
<path d="M118.561 76L117.137 71.584H112.609L111.201 76H109.889L113.537 64.72H116.225L119.857 76H118.561ZM112.977 70.464H116.785L115.057 65.088H114.689L112.977 70.464ZM119.499 64.72H120.747L123.051 75.632H123.435L125.723 64.72H128.427L130.715 75.632H131.099L133.403 64.72H134.651L132.251 76H129.579L127.259 65.088H126.891L124.587 76H121.915L119.499 64.72ZM144.817 73.152C144.817 74.832 143.809 76.16 140.481 76.16C136.545 76.16 135.377 74.416 135.377 71.776H136.689C136.689 74.448 138.113 75.04 140.481 75.04C142.401 75.04 143.505 74.576 143.505 73.216C143.505 71.504 141.521 71.152 139.729 70.624C137.505 69.952 135.889 69.344 135.889 67.344C135.889 65.616 137.105 64.56 139.889 64.56C143.217 64.56 144.353 66.592 144.353 68.432H143.041C143.041 66.512 141.617 65.68 139.889 65.68C138.337 65.68 137.201 66.064 137.201 67.312C137.201 68.496 138.193 68.928 140.049 69.504C142.257 70.192 144.817 70.8 144.817 73.152ZM146.639 76V64.72H153.631V65.84H147.951V69.792H152.831V70.912H147.951V74.88H153.631V76H146.639ZM154.987 76L157.979 72.208V71.824L154.987 68.048H156.539L158.955 71.248L161.371 68.048H162.923L159.931 71.824V72.208L162.923 76H161.371L158.955 72.784L156.539 76H154.987ZM163.444 71.92C163.444 69.36 165.044 67.888 167.3 67.888C169.54 67.888 171.012 69.312 171.012 71.76V72.272H164.724C164.804 73.776 165.524 75.072 167.492 75.072C168.804 75.072 169.684 74.432 169.972 73.216H171.284C170.98 74.448 170.02 76.16 167.492 76.16C164.644 76.16 163.444 74.208 163.444 71.92ZM164.724 71.28H169.732C169.732 70 168.884 68.992 167.3 68.992C165.732 68.992 164.724 70 164.724 71.28ZM172.772 72.016C172.772 69.728 174.26 67.888 176.836 67.888C178.372 67.888 180.34 68.752 180.548 71.056H179.22C178.996 69.536 177.988 69.008 176.836 69.008C174.948 69.008 174.084 70.384 174.084 72.016C174.084 73.664 174.948 75.04 176.836 75.04C177.988 75.04 178.996 74.512 179.22 72.992H180.548C180.34 75.296 178.372 76.16 176.836 76.16C174.26 76.16 172.772 74.32 172.772 72.016ZM185.525 75.04C187.205 75.04 188.389 73.712 188.389 71.584V68.048H189.685V76H188.389V74.624L188.597 73.712H188.229C187.909 75.152 186.901 76.16 185.173 76.16C183.365 76.16 182.197 75.12 182.197 72.912V68.048H183.509V72.736C183.509 74.4 184.149 75.04 185.525 75.04ZM194.129 75.056L196.929 74.88V76L193.921 76.16C193.169 76.208 192.833 75.808 192.833 75.072V69.168H191.073V68.048H192.833V66L194.129 65.6V68.048H196.609V69.168H194.129V75.056ZM197.99 72.016C197.99 69.712 199.654 67.888 202.198 67.888C204.726 67.888 206.374 69.712 206.374 72.016C206.374 74.336 204.726 76.16 202.198 76.16C199.654 76.16 197.99 74.336 197.99 72.016ZM199.302 72.016C199.302 73.68 200.31 75.04 202.198 75.04C204.07 75.04 205.078 73.68 205.078 72.016C205.078 70.368 204.07 69.008 202.198 69.008C200.31 69.008 199.302 70.368 199.302 72.016ZM208.201 76V68.992C208.201 68.24 208.553 67.872 209.305 67.904L213.721 68.048V69.168L209.513 69.024V76H208.201ZM37.9592 87.016C37.9592 84.728 39.4472 82.888 42.0232 82.888C43.5592 82.888 45.5272 83.752 45.7352 86.056H44.4072C44.1832 84.536 43.1752 84.008 42.0232 84.008C40.1352 84.008 39.2712 85.384 39.2712 87.016C39.2712 88.664 40.1352 90.04 42.0232 90.04C43.1752 90.04 44.1832 89.512 44.4072 87.992H45.7352C45.5272 90.296 43.5592 91.16 42.0232 91.16C39.4472 91.16 37.9592 89.32 37.9592 87.016ZM49.5196 90.056L52.3196 89.88V91L49.3116 91.16C48.5596 91.208 48.2236 90.808 48.2236 90.072V84.168H46.4636V83.048H48.2236V81L49.5196 80.6V83.048H51.9996V84.168H49.5196V90.056ZM59.1936 86.92C59.1936 84.36 60.7936 82.888 63.0496 82.888C65.2896 82.888 66.7616 84.312 66.7616 86.76V87.272H60.4736C60.5536 88.776 61.2736 90.072 63.2416 90.072C64.5536 90.072 65.4336 89.432 65.7216 88.216H67.0336C66.7296 89.448 65.7696 91.16 63.2416 91.16C60.3936 91.16 59.1936 89.208 59.1936 86.92ZM60.4736 86.28H65.4816C65.4816 85 64.6336 83.992 63.0496 83.992C61.4816 83.992 60.4736 85 60.4736 86.28ZM67.8148 91V89.88H70.0548V80.216L68.4068 80.36V79.24L70.2628 79.08C70.9988 79.016 71.3508 79.432 71.3508 80.184V89.88H73.5748V91H67.8148ZM74.4748 86.92C74.4748 84.36 76.0748 82.888 78.3308 82.888C80.5708 82.888 82.0428 84.312 82.0428 86.76V87.272H75.7548C75.8348 88.776 76.5548 90.072 78.5228 90.072C79.8348 90.072 80.7148 89.432 81.0028 88.216H82.3148C82.0108 89.448 81.0508 91.16 78.5228 91.16C75.6748 91.16 74.4748 89.208 74.4748 86.92ZM75.7548 86.28H80.7628C80.7628 85 79.9148 83.992 78.3308 83.992C76.7628 83.992 75.7548 85 75.7548 86.28ZM83.803 87.016C83.803 84.728 85.291 82.888 87.867 82.888C89.403 82.888 91.371 83.752 91.579 86.056H90.251C90.027 84.536 89.019 84.008 87.867 84.008C85.979 84.008 85.115 85.384 85.115 87.016C85.115 88.664 85.979 90.04 87.867 90.04C89.019 90.04 90.027 89.512 90.251 87.992H91.579C91.371 90.296 89.403 91.16 87.867 91.16C85.291 91.16 83.803 89.32 83.803 87.016ZM95.3633 90.056L98.1633 89.88V91L95.1553 91.16C94.4033 91.208 94.0673 90.808 94.0673 90.072V84.168H92.3073V83.048H94.0673V81L95.3633 80.6V83.048H97.8433V84.168H95.3633V90.056ZM99.9823 91V83.992C99.9823 83.24 100.334 82.872 101.086 82.904L105.502 83.048V84.168L101.294 84.024V91H99.9823ZM106.162 87.016C106.162 84.712 107.826 82.888 110.37 82.888C112.898 82.888 114.546 84.712 114.546 87.016C114.546 89.336 112.898 91.16 110.37 91.16C107.826 91.16 106.162 89.336 106.162 87.016ZM107.474 87.016C107.474 88.68 108.482 90.04 110.37 90.04C112.242 90.04 113.25 88.68 113.25 87.016C113.25 85.368 112.242 84.008 110.37 84.008C108.482 84.008 107.474 85.368 107.474 87.016ZM120.549 84.008C118.869 84.008 117.685 85.336 117.685 87.48V91H116.373V83.048H117.685V84.424L117.477 85.336H117.845C118.165 83.896 119.173 82.888 120.901 82.888C122.693 82.888 123.861 83.928 123.861 86.136V91H122.565V86.312C122.565 84.648 121.909 84.008 120.549 84.008Z" fill="#77B5EB"/>
<path d="M219.648 77.296V78.4C216.592 77.76 215.424 75.072 215.424 71.552C215.424 68.032 216.592 65.36 219.648 64.72V65.824C217.488 66.352 216.624 68.464 216.624 71.552C216.624 74.64 217.488 76.768 219.648 77.296ZM307.845 69.808H315.477V70.88H307.845V69.808ZM307.845 73.072H315.477V74.128H307.845V73.072ZM441.408 69.808H449.04V70.88H441.408V69.808ZM441.408 73.072H449.04V74.128H441.408V73.072ZM467.736 77.296C469.896 76.768 470.76 74.64 470.76 71.552C470.76 68.464 469.896 66.352 467.736 65.824V64.72C470.792 65.36 471.96 68.032 471.96 71.552C471.96 75.072 470.792 77.76 467.736 78.4V77.296ZM130.444 92.296V93.4C127.388 92.76 126.22 90.072 126.22 86.552C126.22 83.032 127.388 80.36 130.444 79.72V80.824C128.284 81.352 127.42 83.464 127.42 86.552C127.42 89.64 128.284 91.768 130.444 92.296ZM201.377 92.296C203.537 91.768 204.401 89.64 204.401 86.552C204.401 83.464 203.537 81.352 201.377 80.824V79.72C204.433 80.36 205.601 83.032 205.601 86.552C205.601 90.072 204.433 92.76 201.377 93.4V92.296ZM171.304 107.296V108.4C168.248 107.76 167.08 105.072 167.08 101.552C167.08 98.032 168.248 95.36 171.304 94.72V95.824C169.144 96.352 168.28 98.464 168.28 101.552C168.28 104.64 169.144 106.768 171.304 107.296ZM225.924 107.296C228.084 106.768 228.948 104.64 228.948 101.552C228.948 98.464 228.084 96.352 225.924 95.824V94.72C228.98 95.36 230.148 98.032 230.148 101.552C230.148 105.072 228.98 107.76 225.924 108.4V107.296Z" fill="#E4CD72"/>
<path d="M226.315 69.008C224.635 69.008 223.451 70.336 223.451 72.48V76H222.139V68.048H223.451V69.424L223.243 70.336H223.611C223.931 68.896 224.939 67.888 226.667 67.888C228.459 67.888 229.627 68.928 229.627 71.136V76H228.331V71.312C228.331 69.648 227.675 69.008 226.315 69.008ZM234.916 75.04C236.596 75.04 237.78 73.712 237.78 71.584V68.048H239.076V76H237.78V74.624L237.988 73.712H237.62C237.3 75.152 236.292 76.16 234.564 76.16C232.756 76.16 231.588 75.12 231.588 72.912V68.048H232.9V72.736C232.9 74.4 233.54 75.04 234.916 75.04ZM250.977 67.888C252.641 67.888 253.441 69.216 253.441 70.992V76H252.129V71.296C252.129 69.76 251.793 69.008 250.497 69.008C248.913 69.008 247.969 70.416 247.969 72.496V76H246.657V71.296C246.657 69.76 246.321 69.008 245.025 69.008C243.441 69.008 242.497 70.416 242.497 72.496V76H241.185V68.048H242.497V69.408L242.289 70.304H242.657C242.977 68.864 243.809 67.888 245.505 67.888C246.945 67.888 247.713 68.88 247.889 70.304H248.129C248.449 68.864 249.281 67.888 250.977 67.888ZM255.463 76.72H263.095V77.792H255.463V76.72ZM264.944 72.016C264.944 69.728 266.432 67.888 269.008 67.888C270.544 67.888 272.512 68.752 272.72 71.056H271.392C271.168 69.536 270.16 69.008 269.008 69.008C267.12 69.008 266.256 70.384 266.256 72.016C266.256 73.664 267.12 75.04 269.008 75.04C270.16 75.04 271.168 74.512 271.392 72.992H272.72C272.512 75.296 270.544 76.16 269.008 76.16C266.432 76.16 264.944 74.32 264.944 72.016ZM274.623 68.048H275.935V69.216L275.727 70.128H276.095C276.431 68.88 277.487 67.888 279.311 67.888C281.615 67.888 283.103 69.664 283.103 72.032C283.103 74.384 281.615 76.16 279.311 76.16C277.487 76.16 276.431 75.168 276.095 73.936H275.727L275.935 74.832V78.912H274.623V68.048ZM275.935 72.032C275.935 74.144 277.295 75.04 278.927 75.04C280.575 75.04 281.791 74.112 281.791 72.032C281.791 69.936 280.575 69.008 278.927 69.008C277.295 69.008 275.935 69.904 275.935 72.032ZM288.088 75.04C289.768 75.04 290.952 73.712 290.952 71.584V68.048H292.248V76H290.952V74.624L291.16 73.712H290.792C290.472 75.152 289.464 76.16 287.736 76.16C285.928 76.16 284.76 75.12 284.76 72.912V68.048H286.072V72.736C286.072 74.4 286.712 75.04 288.088 75.04ZM300.677 73.936C300.677 75.136 299.925 76.16 297.541 76.16C294.965 76.16 293.909 74.96 293.909 73.072H295.221C295.221 74.448 296.021 75.088 297.557 75.088C298.789 75.088 299.365 74.8 299.365 73.984C299.365 72.944 298.293 72.768 296.997 72.368C295.493 71.888 294.277 71.424 294.277 69.984C294.277 68.72 295.349 67.888 297.173 67.888C299.653 67.888 300.405 69.248 300.405 70.56H299.093C299.093 69.488 298.437 68.96 297.173 68.96C296.293 68.96 295.589 69.216 295.589 69.936C295.589 70.704 296.133 70.944 297.413 71.36C298.981 71.872 300.677 72.224 300.677 73.936Z" fill="#E591E7"/>
<path d="M323.119 70.72C323.119 67.056 324.447 64.192 328.079 64.56L331.343 64.88V66L328.079 65.68C325.375 65.408 324.479 67.488 324.175 69.728L323.807 70.64H324.175C324.495 69.008 326.111 67.888 328.127 67.888C330.655 67.888 332.159 69.584 332.159 71.952C332.159 74.4 330.447 76.16 327.647 76.16C324.943 76.16 323.119 74.352 323.119 70.72ZM324.431 72.112C324.431 73.552 325.599 75.04 327.647 75.04C329.679 75.04 330.847 73.92 330.847 71.952C330.847 70.176 329.823 69.008 327.951 69.008C325.951 69.008 324.431 70.192 324.431 72.112ZM342.731 72.384V73.504H341.275V76H339.963V73.504H333.979V71.168C336.539 70.08 338.667 67.824 339.003 64.72H340.315C339.899 67.872 338.171 70.528 334.363 72.224V72.608L335.291 72.384H339.963V68.288H341.275V72.384H342.731Z" fill="#F09967"/>
<path d="M345.516 73.392L346.684 73.696L345.436 78.336L344.268 78.016L345.516 73.392ZM55.6735 91.16C54.9215 91.16 54.3455 90.584 54.3455 89.816C54.3455 89.08 54.9215 88.504 55.6735 88.504C56.4095 88.504 57.0015 89.08 57.0015 89.816C57.0015 90.584 56.4095 91.16 55.6735 91.16ZM173.635 96.816L173.955 95.84L175.811 96.448L176.387 96.864L176.195 96.192V94.24H177.203V96.192L176.995 96.88L177.555 96.464L179.427 95.872L179.731 96.832L177.875 97.44L177.187 97.472L177.731 97.856L178.867 99.44L178.051 100.032L176.899 98.464L176.675 97.808L176.435 98.448L175.283 100.032L174.467 99.44L175.619 97.856L176.179 97.456L175.507 97.424L173.635 96.816ZM181.744 96.816L182.064 95.84L183.92 96.448L184.496 96.864L184.304 96.192V94.24H185.312V96.192L185.104 96.88L185.664 96.464L187.536 95.872L187.84 96.832L185.984 97.44L185.296 97.472L185.84 97.856L186.976 99.44L186.16 100.032L185.008 98.464L184.784 97.808L184.544 98.448L183.392 100.032L182.576 99.44L183.728 97.856L184.288 97.456L183.616 97.424L181.744 96.816ZM234.127 100.544C233.375 100.544 232.799 99.968 232.799 99.216C232.799 98.48 233.375 97.888 234.127 97.888C234.863 97.888 235.455 98.48 235.455 99.216C235.455 99.968 234.863 100.544 234.127 100.544ZM234.127 106.16C233.375 106.16 232.799 105.584 232.799 104.816C232.799 104.08 233.375 103.504 234.127 103.504C234.863 103.504 235.455 104.08 235.455 104.816C235.455 105.584 234.863 106.16 234.127 106.16ZM68.0167 114.072H64.5447L63.2807 117.848H66.4647V118.872H62.9287L61.4087 123.384L60.4007 123.032L61.8087 118.872H57.6487L56.1287 123.384L55.1207 123.032L56.5287 118.872H53.3767V117.848H56.8647L58.1447 114.072H54.9287V113.048H58.4967L59.9847 108.616L60.9927 108.968L59.6167 113.048H63.7767L65.2647 108.616L66.2727 108.968L64.8967 113.048H68.0167V114.072ZM62.1447 117.848L63.4247 114.072H59.2647L58.0007 117.848H62.1447ZM78.6892 121H77.3772V119.832L77.6012 118.936H77.2172C76.8812 120.168 75.8092 121.16 74.0012 121.16C71.6972 121.16 70.2092 119.384 70.2092 117.016C70.2092 114.664 71.6972 112.888 74.0012 112.888C75.8092 112.888 76.8812 113.88 77.2172 115.128H77.6012L77.3772 114.216V109.24H78.6892V121ZM77.3772 117.016C77.3772 114.904 76.0332 114.008 74.3852 114.008C72.7372 114.008 71.5212 114.904 71.5212 117.016C71.5212 119.144 72.7372 120.04 74.3852 120.04C76.0332 120.04 77.3772 119.144 77.3772 117.016ZM83.1933 111.784C82.5373 111.784 82.0413 111.304 82.0413 110.664C82.0413 110.056 82.5373 109.56 83.1933 109.56C83.8333 109.56 84.3453 110.056 84.3453 110.664C84.3453 111.304 83.8333 111.784 83.1933 111.784ZM80.5373 121V119.88H82.7773V114.024L81.1293 114.168V113.048L82.9693 112.888C83.7213 112.824 84.0093 113.24 84.0093 113.848V119.88H86.2493V121H80.5373ZM93.9578 118.936C93.9578 120.136 93.2058 121.16 90.8218 121.16C88.2458 121.16 87.1898 119.96 87.1898 118.072H88.5018C88.5018 119.448 89.3018 120.088 90.8378 120.088C92.0698 120.088 92.6458 119.8 92.6458 118.984C92.6458 117.944 91.5738 117.768 90.2778 117.368C88.7738 116.888 87.5578 116.424 87.5578 114.984C87.5578 113.72 88.6298 112.888 90.4538 112.888C92.9338 112.888 93.6858 114.248 93.6858 115.56H92.3738C92.3738 114.488 91.7178 113.96 90.4538 113.96C89.5738 113.96 88.8698 114.216 88.8698 114.936C88.8698 115.704 89.4138 115.944 90.6938 116.36C92.2618 116.872 93.9578 117.224 93.9578 118.936ZM97.879 120.056L100.679 119.88V121L97.671 121.16C96.919 121.208 96.583 120.808 96.583 120.072V114.168H94.823V113.048H96.583V111L97.879 110.6V113.048H100.359V114.168H97.879V120.056ZM102.498 121V113.992C102.498 113.24 102.85 112.872 103.602 112.904L108.018 113.048V114.168L103.81 114.024V121H102.498ZM111.896 111.784C111.24 111.784 110.744 111.304 110.744 110.664C110.744 110.056 111.24 109.56 111.896 109.56C112.536 109.56 113.048 110.056 113.048 110.664C113.048 111.304 112.536 111.784 111.896 111.784ZM109.24 121V119.88H111.48V114.024L109.832 114.168V113.048L111.672 112.888C112.424 112.824 112.712 113.24 112.712 113.848V119.88H114.952V121H109.24ZM116.607 121V109.24H117.919V114.216L117.711 115.128H118.079C118.415 113.88 119.487 112.888 121.311 112.888C123.615 112.888 125.087 114.664 125.087 117.016C125.087 119.384 123.615 121.16 121.311 121.16C119.487 121.16 118.415 120.168 118.079 118.936H117.711L117.919 119.832V121H116.607ZM117.919 117.016C117.919 119.144 119.279 120.04 120.911 120.04C122.559 120.04 123.775 119.144 123.775 117.016C123.775 114.904 122.559 114.008 120.911 114.008C119.279 114.008 117.919 114.904 117.919 117.016ZM130.072 120.04C131.752 120.04 132.936 118.712 132.936 116.584V113.048H134.232V121H132.936V119.624L133.144 118.712H132.776C132.456 120.152 131.448 121.16 129.72 121.16C127.912 121.16 126.744 120.12 126.744 117.912V113.048H128.056V117.736C128.056 119.4 128.696 120.04 130.072 120.04ZM138.676 120.056L141.476 119.88V121L138.468 121.16C137.716 121.208 137.38 120.808 137.38 120.072V114.168H135.62V113.048H137.38V111L138.676 110.6V113.048H141.156V114.168H138.676V120.056ZM142.537 116.92C142.537 114.36 144.137 112.888 146.393 112.888C148.633 112.888 150.105 114.312 150.105 116.76V117.272H143.817C143.897 118.776 144.617 120.072 146.585 120.072C147.897 120.072 148.777 119.432 149.065 118.216H150.377C150.073 119.448 149.113 121.16 146.585 121.16C143.737 121.16 142.537 119.208 142.537 116.92ZM143.817 116.28H148.825C148.825 115 147.977 113.992 146.393 113.992C144.825 113.992 143.817 115 143.817 116.28ZM160.345 121H159.033V119.832L159.257 118.936H158.873C158.537 120.168 157.465 121.16 155.657 121.16C153.353 121.16 151.865 119.384 151.865 117.016C151.865 114.664 153.353 112.888 155.657 112.888C157.465 112.888 158.537 113.88 158.873 115.128H159.257L159.033 114.216V109.24H160.345V121ZM159.033 117.016C159.033 114.904 157.689 114.008 156.041 114.008C154.393 114.008 153.177 114.904 153.177 117.016C153.177 119.144 154.393 120.04 156.041 120.04C157.689 120.04 159.033 119.144 159.033 117.016ZM172.542 112.888C174.334 112.888 175.502 113.928 175.502 116.136V121H174.206V116.312C174.206 114.648 173.55 114.008 172.19 114.008C170.51 114.008 169.326 115.336 169.326 117.48V121H168.014V109.24H169.326V114.424L169.118 115.336H169.486C169.806 113.896 170.814 112.888 172.542 112.888ZM179.834 111.784C179.178 111.784 178.682 111.304 178.682 110.664C178.682 110.056 179.178 109.56 179.834 109.56C180.474 109.56 180.986 110.056 180.986 110.664C180.986 111.304 180.474 111.784 179.834 111.784ZM177.178 121V119.88H179.418V114.024L177.77 114.168V113.048L179.61 112.888C180.362 112.824 180.65 113.24 180.65 113.848V119.88H182.89V121H177.178ZM192.162 113.048H192.866V114.168H192.194C191.746 114.168 191.458 114.264 191.154 114.488C191.49 114.904 191.698 115.48 191.698 116.168C191.698 117.88 190.354 118.952 187.954 119.832C189.81 119.528 191.602 119.784 191.602 121.544C191.602 123.656 189.426 123.928 184.098 123.928V122.808C188.658 122.808 190.29 122.696 190.29 121.448C190.29 119.688 186.786 120.536 184.818 121.128L184.546 120.216C185.826 119.864 187.09 119.496 188.322 119.112V118.744C185.762 119.4 183.522 118.568 183.522 116.104C183.522 113.912 185.314 112.888 187.602 112.888C188.562 112.888 189.554 113.128 190.306 113.656C191.138 113.128 191.442 113.048 192.162 113.048ZM187.618 118.28C189.298 118.28 190.386 117.688 190.386 116.136C190.386 114.6 189.298 114.008 187.618 114.008C185.954 114.008 184.834 114.6 184.834 116.136C184.834 117.688 185.954 118.28 187.618 118.28ZM198.901 112.888C200.693 112.888 201.861 113.928 201.861 116.136V121H200.565V116.312C200.565 114.648 199.909 114.008 198.549 114.008C196.869 114.008 195.685 115.336 195.685 117.48V121H194.373V109.24H195.685V114.424L195.477 115.336H195.845C196.165 113.896 197.173 112.888 198.901 112.888ZM209.053 117.016C209.053 114.728 210.541 112.888 213.117 112.888C214.653 112.888 216.621 113.752 216.829 116.056H215.501C215.277 114.536 214.269 114.008 213.117 114.008C211.229 114.008 210.365 115.384 210.365 117.016C210.365 118.664 211.229 120.04 213.117 120.04C214.269 120.04 215.277 119.512 215.501 117.992H216.829C216.621 120.296 214.653 121.16 213.117 121.16C210.541 121.16 209.053 119.32 209.053 117.016ZM218.319 117.016C218.319 114.712 219.983 112.888 222.527 112.888C225.055 112.888 226.703 114.712 226.703 117.016C226.703 119.336 225.055 121.16 222.527 121.16C219.983 121.16 218.319 119.336 218.319 117.016ZM219.631 117.016C219.631 118.68 220.639 120.04 222.527 120.04C224.399 120.04 225.407 118.68 225.407 117.016C225.407 115.368 224.399 114.008 222.527 114.008C220.639 114.008 219.631 115.368 219.631 117.016ZM238.321 112.888C239.985 112.888 240.785 114.216 240.785 115.992V121H239.473V116.296C239.473 114.76 239.137 114.008 237.841 114.008C236.257 114.008 235.313 115.416 235.313 117.496V121H234.001V116.296C234.001 114.76 233.665 114.008 232.369 114.008C230.785 114.008 229.841 115.416 229.841 117.496V121H228.529V113.048H229.841V114.408L229.633 115.304H230.001C230.321 113.864 231.153 112.888 232.849 112.888C234.289 112.888 235.057 113.88 235.233 115.304H235.473C235.793 113.864 236.625 112.888 238.321 112.888ZM242.889 113.048H244.201V114.216L243.993 115.128H244.361C244.697 113.88 245.753 112.888 247.577 112.888C249.881 112.888 251.369 114.664 251.369 117.032C251.369 119.384 249.881 121.16 247.577 121.16C245.753 121.16 244.697 120.168 244.361 118.936H243.993L244.201 119.832V123.912H242.889V113.048ZM244.201 117.032C244.201 119.144 245.561 120.04 247.193 120.04C248.841 120.04 250.057 119.112 250.057 117.032C250.057 114.936 248.841 114.008 247.193 114.008C245.561 114.008 244.201 114.904 244.201 117.032ZM256.353 120.04C258.033 120.04 259.217 118.712 259.217 116.584V113.048H260.513V121H259.217V119.624L259.425 118.712H259.057C258.737 120.152 257.729 121.16 256.001 121.16C254.193 121.16 253.025 120.12 253.025 117.912V113.048H254.337V117.736C254.337 119.4 254.977 120.04 256.353 120.04ZM264.957 120.056L267.757 119.88V121L264.749 121.16C263.997 121.208 263.661 120.808 263.661 120.072V114.168H261.901V113.048H263.661V111L264.957 110.6V113.048H267.437V114.168H264.957V120.056ZM268.819 116.92C268.819 114.36 270.419 112.888 272.675 112.888C274.915 112.888 276.387 114.312 276.387 116.76V117.272H270.099C270.179 118.776 270.899 120.072 272.867 120.072C274.179 120.072 275.059 119.432 275.347 118.216H276.659C276.355 119.448 275.395 121.16 272.867 121.16C270.019 121.16 268.819 119.208 268.819 116.92ZM270.099 116.28H275.107C275.107 115 274.259 113.992 272.675 113.992C271.107 113.992 270.099 115 270.099 116.28ZM286.238 120.056L289.038 119.88V121L286.03 121.16C285.278 121.208 284.942 120.808 284.942 120.072V114.168H283.182V113.048H284.942V111L286.238 110.6V113.048H288.718V114.168H286.238V120.056ZM290.857 121V113.992C290.857 113.24 291.209 112.872 291.961 112.904L296.377 113.048V114.168L292.169 114.024V121H290.857ZM297.553 118.792C297.553 117.528 298.305 116.664 300.161 116.472L303.329 116.168C303.249 114.712 302.465 113.992 301.089 113.992C299.937 113.992 298.865 114.504 298.865 116.008H297.585C297.585 114.36 298.833 112.888 301.089 112.888C303.313 112.888 304.641 114.36 304.641 116.488V119.88H305.809V121H304.401C303.793 121 303.457 120.664 303.457 120.072V119.64L303.665 118.808H303.281C302.977 120.024 302.129 121.16 300.209 121.16C297.905 121.16 297.553 119.624 297.553 118.792ZM298.865 118.632C298.865 119.544 299.441 120.04 300.369 120.04C302.177 120.04 303.329 118.792 303.329 117.144L300.385 117.448C299.377 117.544 298.865 117.848 298.865 118.632ZM309.678 111.784C309.022 111.784 308.526 111.304 308.526 110.664C308.526 110.056 309.022 109.56 309.678 109.56C310.318 109.56 310.83 110.056 310.83 110.664C310.83 111.304 310.318 111.784 309.678 111.784ZM307.022 121V119.88H309.262V114.024L307.614 114.168V113.048L309.454 112.888C310.206 112.824 310.494 113.24 310.494 113.848V119.88H312.734V121H307.022ZM318.565 114.008C316.885 114.008 315.701 115.336 315.701 117.48V121H314.389V113.048H315.701V114.424L315.493 115.336H315.861C316.181 113.896 317.189 112.888 318.917 112.888C320.709 112.888 321.877 113.928 321.877 116.136V121H320.581V116.312C320.581 114.648 319.925 114.008 318.565 114.008ZM326.209 111.784C325.553 111.784 325.057 111.304 325.057 110.664C325.057 110.056 325.553 109.56 326.209 109.56C326.849 109.56 327.361 110.056 327.361 110.664C327.361 111.304 326.849 111.784 326.209 111.784ZM323.553 121V119.88H325.793V114.024L324.145 114.168V113.048L325.985 112.888C326.737 112.824 327.025 113.24 327.025 113.848V119.88H329.265V121H323.553ZM335.096 114.008C333.416 114.008 332.232 115.336 332.232 117.48V121H330.92V113.048H332.232V114.424L332.024 115.336H332.392C332.712 113.896 333.72 112.888 335.448 112.888C337.24 112.888 338.408 113.928 338.408 116.136V121H337.112V116.312C337.112 114.648 336.456 114.008 335.096 114.008ZM348.693 113.048H349.397V114.168H348.725C348.277 114.168 347.989 114.264 347.685 114.488C348.021 114.904 348.229 115.48 348.229 116.168C348.229 117.88 346.885 118.952 344.485 119.832C346.341 119.528 348.133 119.784 348.133 121.544C348.133 123.656 345.957 123.928 340.629 123.928V122.808C345.189 122.808 346.821 122.696 346.821 121.448C346.821 119.688 343.317 120.536 341.349 121.128L341.077 120.216C342.357 119.864 343.621 119.496 344.853 119.112V118.744C342.293 119.4 340.053 118.568 340.053 116.104C340.053 113.912 341.845 112.888 344.133 112.888C345.093 112.888 346.085 113.128 346.837 113.656C347.669 113.128 347.973 113.048 348.693 113.048ZM344.149 118.28C345.829 118.28 346.917 117.688 346.917 116.136C346.917 114.6 345.829 114.008 344.149 114.008C342.485 114.008 341.365 114.6 341.365 116.136C341.365 117.688 342.485 118.28 344.149 118.28ZM356.248 121V113.992C356.248 113.24 356.6 112.872 357.352 112.904L361.768 113.048V114.168L357.56 114.024V121H356.248ZM366.478 120.04C368.158 120.04 369.342 118.712 369.342 116.584V113.048H370.638V121H369.342V119.624L369.55 118.712H369.182C368.862 120.152 367.854 121.16 366.126 121.16C364.318 121.16 363.15 120.12 363.15 117.912V113.048H364.462V117.736C364.462 119.4 365.102 120.04 366.478 120.04ZM376.924 114.008C375.244 114.008 374.06 115.336 374.06 117.48V121H372.748V113.048H374.06V114.424L373.852 115.336H374.22C374.54 113.896 375.548 112.888 377.276 112.888C379.068 112.888 380.236 113.928 380.236 116.136V121H378.94V116.312C378.94 114.648 378.284 114.008 376.924 114.008Z" fill="#434967"/>
<path d="M358.674 69.008C356.994 69.008 355.81 70.336 355.81 72.48V76H354.498V68.048H355.81V69.424L355.602 70.336H355.97C356.29 68.896 357.298 67.888 359.026 67.888C360.818 67.888 361.986 68.928 361.986 71.136V76H360.69V71.312C360.69 69.648 360.034 69.008 358.674 69.008ZM367.275 75.04C368.955 75.04 370.139 73.712 370.139 71.584V68.048H371.435V76H370.139V74.624L370.347 73.712H369.979C369.659 75.152 368.651 76.16 366.923 76.16C365.115 76.16 363.947 75.12 363.947 72.912V68.048H365.259V72.736C365.259 74.4 365.899 75.04 367.275 75.04ZM383.337 67.888C385.001 67.888 385.801 69.216 385.801 70.992V76H384.489V71.296C384.489 69.76 384.153 69.008 382.857 69.008C381.273 69.008 380.329 70.416 380.329 72.496V76H379.017V71.296C379.017 69.76 378.681 69.008 377.385 69.008C375.801 69.008 374.857 70.416 374.857 72.496V76H373.545V68.048H374.857V69.408L374.649 70.304H375.017C375.337 68.864 376.169 67.888 377.865 67.888C379.305 67.888 380.073 68.88 380.249 70.304H380.489C380.809 68.864 381.641 67.888 383.337 67.888ZM387.822 76.72H395.454V77.792H387.822V76.72ZM405.943 68.048H406.647V69.168H405.975C405.527 69.168 405.239 69.264 404.935 69.488C405.271 69.904 405.479 70.48 405.479 71.168C405.479 72.88 404.135 73.952 401.735 74.832C403.591 74.528 405.383 74.784 405.383 76.544C405.383 78.656 403.207 78.928 397.879 78.928V77.808C402.439 77.808 404.071 77.696 404.071 76.448C404.071 74.688 400.567 75.536 398.599 76.128L398.327 75.216C399.607 74.864 400.871 74.496 402.103 74.112V73.744C399.543 74.4 397.303 73.568 397.303 71.104C397.303 68.912 399.095 67.888 401.383 67.888C402.343 67.888 403.335 68.128 404.087 68.656C404.919 68.128 405.223 68.048 405.943 68.048ZM401.399 73.28C403.079 73.28 404.167 72.688 404.167 71.136C404.167 69.6 403.079 69.008 401.399 69.008C399.735 69.008 398.615 69.6 398.615 71.136C398.615 72.688 399.735 73.28 401.399 73.28ZM408.185 68.048H409.497V69.216L409.289 70.128H409.657C409.993 68.88 411.049 67.888 412.873 67.888C415.177 67.888 416.665 69.664 416.665 72.032C416.665 74.384 415.177 76.16 412.873 76.16C411.049 76.16 409.993 75.168 409.657 73.936H409.289L409.497 74.832V78.912H408.185V68.048ZM409.497 72.032C409.497 74.144 410.857 75.04 412.489 75.04C414.137 75.04 415.353 74.112 415.353 72.032C415.353 69.936 414.137 69.008 412.489 69.008C410.857 69.008 409.497 69.904 409.497 72.032ZM421.65 75.04C423.33 75.04 424.514 73.712 424.514 71.584V68.048H425.81V76H424.514V74.624L424.722 73.712H424.354C424.034 75.152 423.026 76.16 421.298 76.16C419.49 76.16 418.322 75.12 418.322 72.912V68.048H419.634V72.736C419.634 74.4 420.274 75.04 421.65 75.04ZM434.239 73.936C434.239 75.136 433.487 76.16 431.103 76.16C428.527 76.16 427.471 74.96 427.471 73.072H428.783C428.783 74.448 429.583 75.088 431.119 75.088C432.351 75.088 432.927 74.8 432.927 73.984C432.927 72.944 431.855 72.768 430.559 72.368C429.055 71.888 427.839 71.424 427.839 69.984C427.839 68.72 428.911 67.888 430.735 67.888C433.215 67.888 433.967 69.248 433.967 70.56H432.655C432.655 69.488 431.999 68.96 430.735 68.96C429.855 68.96 429.151 69.216 429.151 69.936C429.151 70.704 429.695 70.944 430.975 71.36C432.543 71.872 434.239 72.224 434.239 73.936ZM31.3097 89.496V89.016L31.5177 88.136H31.1497C30.8297 89.432 29.7097 90.408 27.9657 90.408C25.6777 90.408 24.1577 88.696 24.1577 86.28C24.1577 83.896 25.6777 82.168 27.9657 82.168C29.7097 82.168 30.8297 83.144 31.1497 84.456H31.5177L31.3097 83.544V82.728H32.5097V89.4H32.8777C34.3977 89.4 34.7497 87.784 34.7497 86.232C34.7497 82.952 32.3657 80.456 28.7497 80.456C25.1497 80.456 22.5417 83.08 22.5417 86.376C22.5417 89.816 25.0217 92.408 29.0217 92.12L34.3977 91.752V92.76L29.0217 93.144C24.4457 93.448 21.5017 90.504 21.5017 86.376C21.5017 82.344 24.5737 79.448 28.7497 79.448C32.9417 79.448 35.7897 82.312 35.7897 86.232C35.7897 88.104 35.1017 90.408 32.7817 90.408H32.1897C31.6297 90.408 31.3097 90.088 31.3097 89.496ZM28.1897 89.4C29.8377 89.4 31.1657 88.456 31.1657 86.28C31.1657 84.136 29.8377 83.192 28.1897 83.192C26.5577 83.192 25.3577 84.136 25.3577 86.28C25.3577 88.456 26.5577 89.4 28.1897 89.4Z" fill="#E18EE3"/>
<path d="M456.474 72.896C456.474 71.264 457.45 70.432 459.162 69.984V69.6C457.898 69.232 457.114 68.608 457.114 67.232C457.114 65.392 458.826 64.56 461.05 64.56C463.258 64.56 464.97 65.392 464.97 67.232C464.97 68.608 464.186 69.232 462.922 69.6V69.984C464.634 70.432 465.61 71.296 465.61 72.896C465.61 74.816 463.93 76.16 461.05 76.16C458.138 76.16 456.474 74.816 456.474 72.896ZM458.426 67.456C458.426 68.816 459.402 69.248 461.05 69.248C462.682 69.248 463.658 68.816 463.658 67.456C463.658 66.128 462.682 65.68 461.05 65.68C459.402 65.68 458.426 66.128 458.426 67.456ZM457.786 72.704C457.786 74.112 458.794 75.04 461.05 75.04C463.29 75.04 464.298 74.112 464.298 72.704C464.298 71.312 463.29 70.368 461.05 70.368C458.794 70.368 457.786 71.312 457.786 72.704Z" fill="#E19062"/>
<path d="M132.615 86.92C132.615 84.36 134.215 82.888 136.471 82.888C138.711 82.888 140.183 84.312 140.183 86.76V87.272H133.895C133.975 88.776 134.695 90.072 136.663 90.072C137.975 90.072 138.855 89.432 139.143 88.216H140.455C140.151 89.448 139.191 91.16 136.663 91.16C133.815 91.16 132.615 89.208 132.615 86.92ZM133.895 86.28H138.903C138.903 85 138.055 83.992 136.471 83.992C134.903 83.992 133.895 85 133.895 86.28ZM140.94 91L143.932 87.208V86.824L140.94 83.048H142.492L144.908 86.248L147.324 83.048H148.876L145.884 86.824V87.208L148.876 91H147.324L144.908 87.784L142.492 91H140.94ZM149.397 86.92C149.397 84.36 150.997 82.888 153.253 82.888C155.493 82.888 156.965 84.312 156.965 86.76V87.272H150.677C150.757 88.776 151.477 90.072 153.445 90.072C154.757 90.072 155.637 89.432 155.925 88.216H157.237C156.933 89.448 155.973 91.16 153.445 91.16C150.597 91.16 149.397 89.208 149.397 86.92ZM150.677 86.28H155.685C155.685 85 154.837 83.992 153.253 83.992C151.685 83.992 150.677 85 150.677 86.28ZM158.725 87.016C158.725 84.728 160.213 82.888 162.789 82.888C164.325 82.888 166.293 83.752 166.501 86.056H165.173C164.949 84.536 163.941 84.008 162.789 84.008C160.901 84.008 160.037 85.384 160.037 87.016C160.037 88.664 160.901 90.04 162.789 90.04C163.941 90.04 164.949 89.512 165.173 87.992H166.501C166.293 90.296 164.325 91.16 162.789 91.16C160.213 91.16 158.725 89.32 158.725 87.016ZM171.478 90.04C173.158 90.04 174.342 88.712 174.342 86.584V83.048H175.638V91H174.342V89.624L174.55 88.712H174.182C173.862 90.152 172.854 91.16 171.126 91.16C169.318 91.16 168.15 90.12 168.15 87.912V83.048H169.462V87.736C169.462 89.4 170.102 90.04 171.478 90.04ZM180.082 90.056L182.882 89.88V91L179.874 91.16C179.122 91.208 178.786 90.808 178.786 90.072V84.168H177.026V83.048H178.786V81L180.082 80.6V83.048H182.562V84.168H180.082V90.056ZM183.944 87.016C183.944 84.712 185.608 82.888 188.152 82.888C190.68 82.888 192.328 84.712 192.328 87.016C192.328 89.336 190.68 91.16 188.152 91.16C185.608 91.16 183.944 89.336 183.944 87.016ZM185.256 87.016C185.256 88.68 186.264 90.04 188.152 90.04C190.024 90.04 191.032 88.68 191.032 87.016C191.032 85.368 190.024 84.008 188.152 84.008C186.264 84.008 185.256 85.368 185.256 87.016ZM194.154 91V83.992C194.154 83.24 194.506 82.872 195.258 82.904L199.674 83.048V84.168L195.466 84.024V91H194.154ZM116.79 142.888C118.454 142.888 119.254 144.216 119.254 145.992V151H117.942V146.296C117.942 144.76 117.606 144.008 116.31 144.008C114.726 144.008 113.782 145.416 113.782 147.496V151H112.47V146.296C112.47 144.76 112.134 144.008 110.838 144.008C109.254 144.008 108.31 145.416 108.31 147.496V151H106.998V143.048H108.31V144.408L108.102 145.304H108.47C108.79 143.864 109.622 142.888 111.318 142.888C112.758 142.888 113.526 143.88 113.702 145.304H113.942C114.262 143.864 115.094 142.888 116.79 142.888ZM121.037 147.016C121.037 144.712 122.701 142.888 125.245 142.888C127.773 142.888 129.421 144.712 129.421 147.016C129.421 149.336 127.773 151.16 125.245 151.16C122.701 151.16 121.037 149.336 121.037 147.016ZM122.349 147.016C122.349 148.68 123.357 150.04 125.245 150.04C127.117 150.04 128.125 148.68 128.125 147.016C128.125 145.368 127.117 144.008 125.245 144.008C123.357 144.008 122.349 145.368 122.349 147.016ZM139.408 151H138.096V149.832L138.32 148.936H137.936C137.6 150.168 136.528 151.16 134.72 151.16C132.416 151.16 130.928 149.384 130.928 147.016C130.928 144.664 132.416 142.888 134.72 142.888C136.528 142.888 137.6 143.88 137.936 145.128H138.32L138.096 144.216V139.24H139.408V151ZM138.096 147.016C138.096 144.904 136.752 144.008 135.104 144.008C133.456 144.008 132.24 144.904 132.24 147.016C132.24 149.144 133.456 150.04 135.104 150.04C136.752 150.04 138.096 149.144 138.096 147.016ZM141.334 146.92C141.334 144.36 142.934 142.888 145.19 142.888C147.43 142.888 148.902 144.312 148.902 146.76V147.272H142.614C142.694 148.776 143.414 150.072 145.382 150.072C146.694 150.072 147.574 149.432 147.862 148.216H149.174C148.87 149.448 147.91 151.16 145.382 151.16C142.534 151.16 141.334 149.208 141.334 146.92ZM142.614 146.28H147.622C147.622 145 146.774 143.992 145.19 143.992C143.622 143.992 142.614 145 142.614 146.28ZM149.955 151V149.88H152.195V140.216L150.547 140.36V139.24L152.403 139.08C153.139 139.016 153.491 139.432 153.491 140.184V149.88H155.715V151H149.955Z" fill="#EE7B8C"/>
<path d="M29.5017 106H28.1897V104.832L28.4137 103.936H28.0297C27.6937 105.168 26.6217 106.16 24.8137 106.16C22.5097 106.16 21.0217 104.384 21.0217 102.016C21.0217 99.664 22.5097 97.888 24.8137 97.888C26.6217 97.888 27.6937 98.88 28.0297 100.128H28.4137L28.1897 99.216V94.24H29.5017V106ZM28.1897 102.016C28.1897 99.904 26.8457 99.008 25.1977 99.008C23.5497 99.008 22.3337 99.904 22.3337 102.016C22.3337 104.144 23.5497 105.04 25.1977 105.04C26.8457 105.04 28.1897 104.144 28.1897 102.016ZM31.428 101.92C31.428 99.36 33.028 97.888 35.284 97.888C37.524 97.888 38.996 99.312 38.996 101.76V102.272H32.708C32.788 103.776 33.508 105.072 35.476 105.072C36.788 105.072 37.668 104.432 37.956 103.216H39.268C38.964 104.448 38.004 106.16 35.476 106.16C32.628 106.16 31.428 104.208 31.428 101.92ZM32.708 101.28H37.716C37.716 100 36.868 98.992 35.284 98.992C33.716 98.992 32.708 100 32.708 101.28ZM44.8707 95.36C43.8627 95.36 43.5427 95.824 43.5427 96.864V98.048H45.8627V99.168H43.5427V104.88H45.8627V106H40.4867V104.88H42.2467V99.168H40.4867V98.048H42.2467V96.832C42.2467 95.248 43.0307 94.24 44.9347 94.24H46.3107V95.36H44.8707Z" fill="#70E9DB"/>
<path d="M61.0742 104.88H63.2662V106H52.6742V104.88H54.4502V99.136L52.6742 99.168V98.048L54.4502 98.016V96.832C54.4502 95.184 55.2182 93.984 57.1222 94.08L60.2262 94.24V95.36L57.0582 95.2C56.0502 95.152 55.7302 95.824 55.7302 96.864V97.984L60.0342 97.888C60.7702 97.872 61.0742 98.24 61.0742 98.976V104.88ZM59.7622 104.88V99.024L55.7302 99.104V104.88H59.7622ZM69.1115 99.008C67.4315 99.008 66.2475 100.336 66.2475 102.48V106H64.9355V98.048H66.2475V99.424L66.0395 100.336H66.4075C66.7275 98.896 67.7355 97.888 69.4635 97.888C71.2555 97.888 72.4235 98.928 72.4235 101.136V106H71.1275V101.312C71.1275 99.648 70.4715 99.008 69.1115 99.008ZM74.2248 101.92C74.2248 99.36 75.8248 97.888 78.0808 97.888C80.3208 97.888 81.7928 99.312 81.7928 101.76V102.272H75.5048C75.5848 103.776 76.3048 105.072 78.2728 105.072C79.5848 105.072 80.4648 104.432 80.7528 103.216H82.0648C81.7608 104.448 80.8008 106.16 78.2728 106.16C75.4248 106.16 74.2248 104.208 74.2248 101.92ZM75.5048 101.28H80.5128C80.5128 100 79.6648 98.992 78.0808 98.992C76.5128 98.992 75.5048 100 75.5048 101.28ZM83.9161 106.72H91.5481V107.792H83.9161V106.72ZM95.9727 105.056L98.7727 104.88V106L95.7647 106.16C95.0127 106.208 94.6767 105.808 94.6767 105.072V99.168H92.9167V98.048H94.6767V96L95.9727 95.6V98.048H98.4527V99.168H95.9727V105.056ZM103.65 105.04C105.33 105.04 106.514 103.712 106.514 101.584V98.048H107.81V106H106.514V104.624L106.722 103.712H106.354C106.034 105.152 105.026 106.16 103.298 106.16C101.49 106.16 100.322 105.12 100.322 102.912V98.048H101.634V102.736C101.634 104.4 102.274 105.04 103.65 105.04ZM114.096 99.008C112.416 99.008 111.232 100.336 111.232 102.48V106H109.92V98.048H111.232V99.424L111.024 100.336H111.392C111.712 98.896 112.72 97.888 114.448 97.888C116.24 97.888 117.408 98.928 117.408 101.136V106H116.112V101.312C116.112 99.648 115.456 99.008 114.096 99.008ZM119.209 101.92C119.209 99.36 120.809 97.888 123.065 97.888C125.305 97.888 126.777 99.312 126.777 101.76V102.272H120.489C120.569 103.776 121.289 105.072 123.257 105.072C124.569 105.072 125.449 104.432 125.737 103.216H127.049C126.745 104.448 125.785 106.16 123.257 106.16C120.409 106.16 119.209 104.208 119.209 101.92ZM120.489 101.28H125.497C125.497 100 124.649 98.992 123.065 98.992C121.497 98.992 120.489 100 120.489 101.28ZM128.9 106.72H136.532V107.792H128.9V106.72ZM138.221 106V104.88H140.461V95.216L138.813 95.36V94.24L140.669 94.08C141.405 94.016 141.757 94.432 141.757 95.184V104.88H143.981V106H138.221ZM145.205 106V104.88H147.445V95.216L145.797 95.36V94.24L147.653 94.08C148.389 94.016 148.741 94.432 148.741 95.184V104.88H150.965V106H145.205ZM162.274 97.888C163.938 97.888 164.738 99.216 164.738 100.992V106H163.426V101.296C163.426 99.76 163.09 99.008 161.794 99.008C160.21 99.008 159.266 100.416 159.266 102.496V106H157.954V101.296C157.954 99.76 157.618 99.008 156.322 99.008C154.738 99.008 153.794 100.416 153.794 102.496V106H152.482V98.048H153.794V99.408L153.586 100.304H153.954C154.274 98.864 155.106 97.888 156.802 97.888C158.242 97.888 159.01 98.88 159.186 100.304H159.426C159.746 98.864 160.578 97.888 162.274 97.888Z" fill="#7FC1FA"/>
<path d="M198.174 106H196.862V104.832L197.086 103.936H196.702C196.366 105.168 195.294 106.16 193.486 106.16C191.182 106.16 189.694 104.384 189.694 102.016C189.694 99.664 191.182 97.888 193.486 97.888C195.294 97.888 196.366 98.88 196.702 100.128H197.086L196.862 99.216V94.24H198.174V106ZM196.862 102.016C196.862 99.904 195.518 99.008 193.87 99.008C192.222 99.008 191.006 99.904 191.006 102.016C191.006 104.144 192.222 105.04 193.87 105.04C195.518 105.04 196.862 104.144 196.862 102.016ZM200.131 103.792C200.131 102.528 200.883 101.664 202.739 101.472L205.907 101.168C205.827 99.712 205.043 98.992 203.667 98.992C202.515 98.992 201.443 99.504 201.443 101.008H200.163C200.163 99.36 201.411 97.888 203.667 97.888C205.891 97.888 207.219 99.36 207.219 101.488V104.88H208.387V106H206.979C206.371 106 206.035 105.664 206.035 105.072V104.64L206.243 103.808H205.859C205.555 105.024 204.707 106.16 202.787 106.16C200.483 106.16 200.131 104.624 200.131 103.792ZM201.443 103.632C201.443 104.544 202.019 105.04 202.947 105.04C204.755 105.04 205.907 103.792 205.907 102.144L202.963 102.448C201.955 102.544 201.443 102.848 201.443 103.632ZM211.66 105.056L214.46 104.88V106L211.452 106.16C210.7 106.208 210.364 105.808 210.364 105.072V99.168H208.604V98.048H210.364V96L211.66 95.6V98.048H214.14V99.168H211.66V105.056ZM215.975 103.792C215.975 102.528 216.727 101.664 218.583 101.472L221.751 101.168C221.671 99.712 220.887 98.992 219.511 98.992C218.359 98.992 217.287 99.504 217.287 101.008H216.007C216.007 99.36 217.255 97.888 219.511 97.888C221.735 97.888 223.063 99.36 223.063 101.488V104.88H224.231V106H222.823C222.215 106 221.879 105.664 221.879 105.072V104.64L222.087 103.808H221.703C221.399 105.024 220.551 106.16 218.631 106.16C216.327 106.16 215.975 104.624 215.975 103.792ZM217.287 103.632C217.287 104.544 217.863 105.04 218.791 105.04C220.599 105.04 221.751 103.792 221.751 102.144L218.807 102.448C217.799 102.544 217.287 102.848 217.287 103.632Z" fill="#9D66A3"/>
<path d="M54.7047 136.16C53.9527 136.16 53.3767 135.584 53.3767 134.816C53.3767 134.08 53.9527 133.504 54.7047 133.504C55.4407 133.504 56.0327 134.08 56.0327 134.816C56.0327 135.584 55.4407 136.16 54.7047 136.16ZM60.0328 136.16C59.2808 136.16 58.7048 135.584 58.7048 134.816C58.7048 134.08 59.2808 133.504 60.0328 133.504C60.7688 133.504 61.3608 134.08 61.3608 134.816C61.3608 135.584 60.7688 136.16 60.0328 136.16ZM65.361 136.16C64.609 136.16 64.033 135.584 64.033 134.816C64.033 134.08 64.609 133.504 65.361 133.504C66.097 133.504 66.689 134.08 66.689 134.816C66.689 135.584 66.097 136.16 65.361 136.16Z" fill="#BA563C"/>
<path d="M53.2167 151V143.992C53.2167 143.24 53.5687 142.872 54.3207 142.904L58.7367 143.048V144.168L54.5287 144.024V151H53.2167ZM59.3967 146.92C59.3967 144.36 60.9967 142.888 63.2527 142.888C65.4927 142.888 66.9647 144.312 66.9647 146.76V147.272H60.6767C60.7567 148.776 61.4767 150.072 63.4447 150.072C64.7567 150.072 65.6367 149.432 65.9247 148.216H67.2367C66.9327 149.448 65.9727 151.16 63.4447 151.16C60.5967 151.16 59.3967 149.208 59.3967 146.92ZM60.6767 146.28H65.6847C65.6847 145 64.8367 143.992 63.2527 143.992C61.6847 143.992 60.6767 145 60.6767 146.28ZM71.0196 150.056L73.8196 149.88V151L70.8116 151.16C70.0596 151.208 69.7236 150.808 69.7236 150.072V144.168H67.9636V143.048H69.7236V141L71.0196 140.6V143.048H73.4996V144.168H71.0196V150.056ZM78.6972 150.04C80.3772 150.04 81.5612 148.712 81.5612 146.584V143.048H82.8572V151H81.5612V149.624L81.7692 148.712H81.4012C81.0812 150.152 80.0732 151.16 78.3452 151.16C76.5372 151.16 75.3692 150.12 75.3692 147.912V143.048H76.6812V147.736C76.6812 149.4 77.3212 150.04 78.6972 150.04ZM84.9667 151V143.992C84.9667 143.24 85.3187 142.872 86.0707 142.904L90.4867 143.048V144.168L86.2787 144.024V151H84.9667ZM96.174 144.008C94.494 144.008 93.31 145.336 93.31 147.48V151H91.998V143.048H93.31V144.424L93.102 145.336H93.47C93.79 143.896 94.798 142.888 96.526 142.888C98.318 142.888 99.486 143.928 99.486 146.136V151H98.19V146.312C98.19 144.648 97.534 144.008 96.174 144.008Z" fill="#E5CE72"/>
<path d="M537.674 44V187.573" stroke="#5552FF"/>
<path d="M601.291 66.5385C602.308 66.5385 603.301 66.8362 604.146 67.3941C604.992 67.9519 605.65 68.7448 606.039 69.6725C606.428 70.6002 606.53 71.621 606.332 72.6058C606.133 73.5907 605.644 74.4953 604.925 75.2053C604.206 75.9153 603.291 76.3989 602.294 76.5947C601.297 76.7906 600.264 76.6901 599.325 76.3058C598.385 75.9216 597.583 75.2709 597.018 74.436C596.453 73.6011 596.152 72.6195 596.152 71.6154C596.154 70.2694 596.696 68.9789 597.659 68.0271C598.622 67.0754 599.929 66.54 601.291 66.5385ZM601.291 64C599.767 64 598.276 64.4466 597.008 65.2834C595.741 66.1202 594.753 67.3096 594.169 68.7011C593.586 70.0926 593.433 71.6238 593.731 73.1011C594.028 74.5783 594.762 75.9352 595.84 77.0003C596.918 78.0653 598.292 78.7906 599.787 79.0844C601.283 79.3783 602.833 79.2275 604.241 78.6511C605.65 78.0747 606.854 77.0986 607.701 75.8463C608.548 74.5939 609 73.1216 609 71.6154C609 70.6153 608.801 69.625 608.413 68.7011C608.026 67.7772 607.458 66.9376 606.742 66.2305C606.026 65.5233 605.177 64.9624 604.241 64.5797C603.306 64.197 602.304 64 601.291 64Z" fill="#5552FF"/>
<path d="M612 64L627.418 79.2308H612V64Z" fill="#5552FF"/>
<path d="M609 81.2308H593.582V96.4616H609V81.2308Z" fill="#5552FF"/>
<path d="M619.709 83.7693C620.725 83.7693 621.719 84.0671 622.564 84.6249C623.409 85.1828 624.068 85.9757 624.457 86.9034C624.846 87.8311 624.948 88.8519 624.749 89.8367C624.551 90.8215 624.062 91.7261 623.343 92.4362C622.624 93.1462 621.708 93.6297 620.711 93.8256C619.715 94.0215 618.681 93.921 617.742 93.5367C616.803 93.1524 616 92.5017 615.436 91.6668C614.871 90.8319 614.57 89.8504 614.57 88.8462C614.571 87.5002 615.113 86.2098 616.077 85.258C617.04 84.3062 618.346 83.7708 619.709 83.7693ZM619.709 81.2308C618.184 81.2308 616.694 81.6775 615.426 82.5143C614.158 83.3511 613.17 84.5404 612.587 85.9319C612.003 87.3235 611.851 88.8547 612.148 90.3319C612.446 91.8092 613.18 93.1661 614.258 94.2311C615.336 95.2962 616.71 96.0214 618.205 96.3153C619.7 96.6091 621.25 96.4583 622.659 95.8819C624.067 95.3056 625.271 94.3295 626.118 93.0771C626.965 91.8248 627.418 90.3524 627.418 88.8462C627.418 86.8265 626.605 84.8895 625.16 83.4613C623.714 82.0332 621.753 81.2308 619.709 81.2308Z" fill="#5552FF"/>
<path d="M607.33 119.462L609.78 116.082V115.782L607.33 112.412H608.27L610.43 115.442L612.6 112.412H613.53L611.08 115.782V116.082L613.53 119.462H612.6L610.43 116.422L608.27 119.462H607.33Z" fill="white"/>
</g>
<g clip-path="url(#clip1_11_7)">
<path d="M604.211 147.403C604.197 147.837 604.253 148.27 604.376 148.686C604.502 149.042 604.659 149.387 604.844 149.717C604.907 149.816 604.942 149.929 604.948 150.046C604.938 150.134 604.909 150.219 604.86 150.292C604.812 150.366 604.747 150.428 604.67 150.471L603.804 151.078C603.691 151.157 603.559 151.202 603.422 151.208C603.342 151.205 603.263 151.186 603.19 151.152C603.117 151.117 603.051 151.069 602.998 151.008C602.796 150.809 602.622 150.585 602.478 150.341C602.333 150.098 602.186 149.81 602.036 149.474C601.528 150.108 600.882 150.617 600.148 150.962C599.413 151.308 598.609 151.481 597.798 151.468C597.273 151.497 596.749 151.42 596.255 151.243C595.761 151.066 595.307 150.792 594.92 150.436C594.562 150.072 594.283 149.638 594.101 149.16C593.919 148.683 593.838 148.173 593.863 147.663C593.84 147.109 593.942 146.556 594.161 146.046C594.38 145.536 594.71 145.082 595.128 144.716C596.132 143.926 597.389 143.529 598.664 143.598C599.175 143.6 599.684 143.638 600.19 143.711C600.721 143.786 601.273 143.89 601.845 144.023V142.966C601.929 142.137 601.683 141.309 601.16 140.66C600.491 140.146 599.651 139.907 598.812 139.993C598.289 139.996 597.768 140.06 597.26 140.184C596.732 140.31 596.213 140.475 595.709 140.678C595.546 140.753 595.378 140.816 595.206 140.868H594.981C594.779 140.868 594.678 140.718 594.678 140.418V139.733C594.665 139.559 594.701 139.385 594.782 139.23C594.89 139.097 595.03 138.993 595.189 138.927C595.769 138.649 596.376 138.431 597 138.277C597.733 138.089 598.488 137.996 599.245 138C600.607 137.879 601.961 138.299 603.015 139.17C603.443 139.649 603.77 140.21 603.976 140.82C604.181 141.429 604.261 142.073 604.211 142.714V147.403ZM598.361 149.596C598.869 149.588 599.373 149.498 599.852 149.327C600.379 149.144 600.849 148.824 601.212 148.4C601.436 148.15 601.602 147.854 601.698 147.533C601.797 147.125 601.844 146.705 601.836 146.285V145.678C601.399 145.574 600.956 145.493 600.51 145.436C600.062 145.378 599.61 145.349 599.158 145.349C598.399 145.292 597.644 145.497 597.018 145.93C596.791 146.129 596.613 146.377 596.494 146.654C596.376 146.932 596.321 147.232 596.333 147.533C596.312 147.81 596.349 148.088 596.44 148.35C596.531 148.613 596.674 148.854 596.862 149.058C597.064 149.242 597.301 149.384 597.558 149.476C597.815 149.569 598.088 149.609 598.361 149.596ZM609.931 151.156C609.736 151.174 609.54 151.125 609.376 151.017C609.223 150.863 609.117 150.667 609.073 150.454L605.702 139.308C605.636 139.121 605.593 138.926 605.572 138.728C605.564 138.679 605.568 138.63 605.584 138.584C605.599 138.537 605.625 138.495 605.659 138.46C605.694 138.426 605.736 138.4 605.783 138.385C605.829 138.369 605.879 138.365 605.927 138.372H607.34C607.538 138.353 607.737 138.402 607.903 138.511C608.046 138.67 608.145 138.865 608.189 139.074L610.607 148.608L612.852 139.074C612.886 138.864 612.986 138.67 613.138 138.52C613.311 138.413 613.515 138.364 613.718 138.381H614.88C615.083 138.364 615.287 138.413 615.46 138.52C615.61 138.674 615.707 138.871 615.738 139.083L618 148.738L620.496 139.083C620.542 138.872 620.643 138.678 620.79 138.52C620.957 138.41 621.155 138.361 621.354 138.381H622.688C622.737 138.374 622.786 138.378 622.832 138.393C622.879 138.408 622.921 138.434 622.956 138.469C622.99 138.504 623.016 138.546 623.032 138.592C623.047 138.639 623.051 138.688 623.044 138.736C623.051 138.811 623.051 138.887 623.044 138.962C623.016 139.082 622.981 139.201 622.94 139.317L619.473 150.462C619.428 150.676 619.323 150.871 619.17 151.026C619.006 151.133 618.81 151.182 618.615 151.164H617.35C617.145 151.186 616.939 151.134 616.769 151.017C616.62 150.856 616.524 150.653 616.492 150.436L614.247 141.154L612.028 150.428C611.996 150.645 611.9 150.847 611.751 151.008C611.581 151.125 611.375 151.177 611.17 151.156H609.931ZM628.443 151.537C627.696 151.538 626.952 151.454 626.224 151.286C625.646 151.169 625.086 150.974 624.56 150.705C624.402 150.638 624.268 150.526 624.174 150.382C624.079 150.239 624.03 150.071 624.032 149.899V149.171C624.032 148.871 624.141 148.72 624.361 148.72C624.453 148.722 624.544 148.739 624.63 148.772L624.994 148.92C625.502 149.145 626.034 149.313 626.58 149.422C627.15 149.54 627.731 149.598 628.313 149.596C629.046 149.639 629.776 149.474 630.419 149.119C630.654 148.98 630.846 148.78 630.977 148.541C631.109 148.301 631.173 148.031 631.164 147.758C631.169 147.573 631.137 147.389 631.07 147.217C631.003 147.044 630.903 146.886 630.774 146.753C630.337 146.387 629.821 146.126 629.266 145.99L627.178 145.332C626.298 145.087 625.515 144.579 624.933 143.876C624.468 143.279 624.215 142.544 624.214 141.787C624.201 141.228 624.336 140.675 624.604 140.184C624.863 139.722 625.214 139.318 625.635 138.996C626.077 138.661 626.576 138.408 627.108 138.251C627.697 138.081 628.307 137.997 628.92 138C629.244 138 629.568 138.02 629.89 138.06C630.22 138.101 630.532 138.156 630.826 138.225C631.121 138.294 631.395 138.37 631.65 138.45C631.859 138.516 632.062 138.6 632.256 138.702C632.42 138.79 632.565 138.911 632.681 139.057C632.773 139.199 632.818 139.365 632.811 139.534V140.218C632.811 140.519 632.701 140.669 632.482 140.669C632.287 140.647 632.099 140.589 631.927 140.496C631.052 140.116 630.107 139.927 629.154 139.941C628.49 139.907 627.83 140.047 627.238 140.348C627.017 140.478 626.835 140.666 626.714 140.893C626.593 141.119 626.538 141.375 626.554 141.631C626.549 141.822 626.585 142.011 626.658 142.187C626.731 142.363 626.84 142.522 626.978 142.654C627.445 143.027 627.986 143.299 628.564 143.451L630.61 144.066C631.476 144.292 632.253 144.775 632.837 145.453C633.295 146.048 633.534 146.783 633.513 147.533C633.521 148.113 633.39 148.686 633.132 149.206C632.879 149.702 632.521 150.137 632.083 150.48C631.605 150.849 631.061 151.122 630.48 151.286C629.816 151.467 629.13 151.552 628.443 151.537Z" fill="#CBCBD7"/>
<path fill-rule="evenodd" clip-rule="evenodd" d="M631.165 158.636C626.424 162.137 619.543 164 613.667 164C605.739 164.052 598.078 161.137 592.191 155.828C591.749 155.429 592.139 154.883 592.676 155.186C599.207 158.922 606.602 160.885 614.126 160.88C619.745 160.85 625.303 159.71 630.48 157.526C631.277 157.188 631.953 158.055 631.165 158.636Z" fill="#CBCBD7"/>
<path fill-rule="evenodd" clip-rule="evenodd" d="M633.14 156.382C632.534 155.602 629.128 156.018 627.602 156.2C627.143 156.252 627.065 155.853 627.481 155.558C630.194 153.652 634.648 154.198 635.16 154.839C635.671 155.48 635.021 159.944 632.482 162.076C632.092 162.405 631.719 162.232 631.892 161.798C632.464 160.36 633.747 157.162 633.14 156.382Z" fill="#CBCBD7"/>
<path fill-rule="evenodd" clip-rule="evenodd" d="M631.165 158.636C626.424 162.137 619.543 164 613.667 164C605.739 164.052 598.078 161.137 592.191 155.828C591.749 155.429 592.139 154.883 592.676 155.186C599.207 158.922 606.602 160.885 614.126 160.88C619.745 160.85 625.303 159.71 630.48 157.526C631.277 157.188 631.953 158.055 631.165 158.636Z" fill="#FF9900"/>
<path fill-rule="evenodd" clip-rule="evenodd" d="M633.14 156.382C632.534 155.602 629.128 156.018 627.602 156.2C627.143 156.252 627.065 155.853 627.481 155.558C630.194 153.652 634.648 154.198 635.16 154.839C635.671 155.48 635.021 159.944 632.482 162.076C632.092 162.405 631.719 162.232 631.892 161.798C632.464 160.36 633.747 157.162 633.14 156.382Z" fill="#FF9900"/>
</g>
<path d="M661.827 0.5H10.1737C4.927 0.5 0.673706 4.75329 0.673706 10V177.573C0.673706 182.82 4.927 187.073 10.1737 187.073H661.827C667.073 187.073 671.327 182.82 671.327 177.573V10C671.327 4.75329 667.073 0.5 661.827 0.5Z" stroke="#5552FF"/>
</g>
<defs>
<clipPath id="clip0_11_7">
<rect width="672" height="188" fill="white"/>
</clipPath>
<clipPath id="clip1_11_7">
<rect width="43.3333" height="26" fill="white" transform="translate(592 138)"/>
</clipPath>
</defs>
</svg>
