<svg width="722" height="262" viewBox="0 0 722 262" fill="none" xmlns="http://www.w3.org/2000/svg">
<rect x="1" y="1" width="720" height="260" rx="17" fill="white"/>
<rect x="1" y="1" width="720" height="260" rx="17" stroke="#6D7CFF" stroke-width="2"/>
<path d="M249.709 113.538C250.725 113.538 251.719 113.836 252.564 114.394C253.409 114.952 254.068 115.745 254.457 116.673C254.846 117.6 254.948 118.621 254.749 119.606C254.551 120.591 254.061 121.495 253.343 122.205C252.624 122.915 251.708 123.399 250.711 123.595C249.714 123.791 248.681 123.69 247.742 123.306C246.803 122.922 246 122.271 245.436 121.436C244.871 120.601 244.57 119.62 244.57 118.615C244.571 117.269 245.113 115.979 246.077 115.027C247.04 114.075 248.346 113.54 249.709 113.538ZM249.709 111C248.184 111 246.694 111.447 245.426 112.283C244.158 113.12 243.17 114.31 242.587 115.701C242.003 117.093 241.851 118.624 242.148 120.101C242.446 121.578 243.18 122.935 244.258 124C245.336 125.065 246.71 125.791 248.205 126.084C249.7 126.378 251.25 126.227 252.659 125.651C254.067 125.075 255.271 124.099 256.118 122.846C256.965 121.594 257.418 120.122 257.418 118.615C257.418 117.615 257.218 116.625 256.831 115.701C256.443 114.777 255.876 113.938 255.16 113.23C254.444 112.523 253.594 111.962 252.659 111.58C251.724 111.197 250.721 111 249.709 111V111Z" fill="#5552FF"/>
<path d="M267.696 131.308C268.713 131.308 269.706 131.605 270.551 132.163C271.396 132.721 272.055 133.514 272.444 134.442C272.833 135.369 272.935 136.39 272.737 137.375C272.538 138.36 272.049 139.264 271.33 139.974C270.611 140.685 269.696 141.168 268.699 141.364C267.702 141.56 266.668 141.459 265.729 141.075C264.79 140.691 263.988 140.04 263.423 139.205C262.858 138.37 262.557 137.389 262.557 136.385C262.558 135.039 263.1 133.748 264.064 132.796C265.027 131.845 266.334 131.309 267.696 131.308ZM267.696 128.769C266.171 128.769 264.681 129.216 263.413 130.053C262.146 130.889 261.158 132.079 260.574 133.47C259.991 134.862 259.838 136.393 260.135 137.87C260.433 139.347 261.167 140.704 262.245 141.769C263.323 142.834 264.697 143.56 266.192 143.854C267.688 144.147 269.238 143.997 270.646 143.42C272.055 142.844 273.259 141.868 274.106 140.615C274.953 139.363 275.405 137.891 275.405 136.385C275.405 134.365 274.593 132.428 273.147 131C271.701 129.572 269.741 128.769 267.696 128.769V128.769Z" fill="#5552FF"/>
<path d="M259.987 111L275.405 126.231H259.987V111Z" fill="#5552FF"/>
<path d="M257.418 128.769H242V144H257.418V128.769Z" fill="#5552FF"/>
<path d="M479.164 134.953C479.81 134.953 480.442 135.142 480.979 135.497C481.516 135.851 481.935 136.355 482.182 136.945C482.429 137.535 482.494 138.183 482.368 138.809C482.242 139.435 481.931 140.01 481.474 140.462C481.017 140.913 480.435 141.22 479.801 141.345C479.168 141.469 478.511 141.405 477.914 141.161C477.317 140.917 476.807 140.503 476.448 139.973C476.089 139.442 475.897 138.818 475.897 138.18C475.898 137.324 476.243 136.504 476.855 135.899C477.468 135.294 478.298 134.954 479.164 134.953ZM479.164 132.414C478.01 132.414 476.881 132.753 475.922 133.386C474.962 134.02 474.214 134.92 473.772 135.974C473.33 137.027 473.215 138.186 473.44 139.305C473.665 140.423 474.221 141.45 475.037 142.257C475.853 143.063 476.893 143.612 478.026 143.835C479.158 144.057 480.331 143.943 481.397 143.506C482.464 143.07 483.375 142.331 484.017 141.383C484.658 140.435 485 139.32 485 138.18C485 136.651 484.385 135.184 483.291 134.103C482.196 133.022 480.712 132.414 479.164 132.414Z" fill="#5552FF"/>
<path d="M284.763 127.486C284.763 118.248 291.482 111.117 301.288 111.117C308.915 111.117 314.271 115.243 315.952 120.804L309.732 123.181C308.37 119.369 305.737 116.768 301.197 116.768C295.477 116.768 291.981 120.67 291.981 127.486C291.981 134.303 295.386 138.25 301.197 138.25C305.737 138.25 308.551 135.559 309.913 131.792L315.996 134.214C313.681 140.268 308.869 143.945 301.197 143.945C291.255 143.945 284.763 137.039 284.763 127.486Z" fill="black"/>
<path d="M318.461 132.016C318.461 124.84 323.455 120.132 330.4 120.132C337.346 120.132 342.34 124.84 342.34 132.016C342.34 139.326 337.346 143.945 330.4 143.945C323.455 143.945 318.461 138.923 318.461 132.016ZM335.621 132.106C335.621 127.486 333.488 125.154 330.4 125.154C327.313 125.154 325.18 127.486 325.18 132.106C325.18 136.725 327.313 138.878 330.4 138.878C333.488 138.878 335.621 136.725 335.621 132.106V132.106Z" fill="black"/>
<path d="M350.467 143.228L341.751 120.804H348.515L351.647 129.998C352.873 133.63 353.055 135.379 353.146 139.371H355.552C355.643 135.379 355.733 133.406 356.868 129.998L359.865 120.804H366.447L358.184 143.228H350.467Z" fill="black"/>
<path d="M367.19 137.487C367.19 131.209 373.908 129.37 381.444 128.652V127.8C381.444 125.872 380.309 124.706 377.721 124.706C374.77 124.706 373.273 126.141 372.727 128.249L366.917 126.993C367.28 123.495 371.048 120.132 377.676 120.132C384.032 120.132 387.8 122.912 387.8 128.832V137.039C387.8 138.16 387.936 138.385 389.161 138.385H391.159V143.228H388.481C384.485 143.228 383.623 141.883 383.532 138.564H381.399C380.491 141.479 378.357 143.945 374.453 143.945C370.276 143.945 367.19 141.434 367.19 137.487ZM381.444 134.034V132.599C377.267 133.092 373.726 133.9 373.726 136.86C373.726 138.339 374.725 139.281 376.677 139.281C379.174 139.281 381.444 137.667 381.444 134.034Z" fill="black"/>
<path d="M394.038 143.228V111.109H400.485V143.228H394.038Z" fill="black"/>
<path d="M403.305 131.971C403.305 124.93 408.207 120.132 414.79 120.132C422.417 120.132 426.412 126.051 425.776 133.541H409.751C409.932 137.487 412.066 139.102 414.835 139.102C417.74 139.102 419.148 137.308 420.101 135.2L425.867 137.398C424.596 140.268 421.736 143.945 414.835 143.945C407.844 143.945 403.305 139.326 403.305 131.971ZM419.421 129.056C419.148 126.276 417.514 124.706 414.79 124.706C412.203 124.706 410.432 126.231 409.978 129.056H419.421Z" fill="black"/>
<path d="M428.567 143.228V120.804H434.377C434.333 122.284 433.379 124.213 432.153 125.962H434.968C436.012 122.778 438.282 120.132 441.914 120.132C446.907 120.132 449.631 123.405 449.631 128.383V143.228H443.185V129.594C443.185 126.634 441.777 125.379 439.553 125.379C435.059 125.379 435.013 130.222 435.013 132.599V143.228L428.567 143.228Z" fill="black"/>
<path d="M462.948 143.228C459.271 143.228 457.183 140.851 457.183 137.353V125.648H452.416V120.804H457.183V113.763H463.629V120.804H469.53V125.648H463.629V136.187C463.629 137.532 464.219 138.16 465.626 138.16H470.53V143.228H462.948Z" fill="black"/>
<rect x="520.009" y="57.9215" width="49.5" height="9.13067" fill="#FBFBFB"/>
<rect width="35.6926" height="35.6926" rx="10" transform="matrix(0.83205 0.5547 -0.830139 0.557556 544.633 47.1306)" fill="#FBFBFB"/>
<rect width="35.6926" height="35.6926" rx="10" transform="matrix(0.83205 0.5547 -0.830139 0.557556 544.63 38)" fill="#96C8DE"/>
<g clip-path="url(#clip0_901_57)">
<path d="M552.873 65.5301L550.095 63.6779L552.871 61.8134L551.482 60.8873L545.236 65.0823L534.122 57.6733L545.226 50.2155L551.477 54.3831L552.865 53.4509L550.087 51.5986L552.863 49.7342L551.474 48.8081L548.698 50.6725L546.614 49.2833C545.85 48.774 544.6 48.7767 543.837 49.2894L541.755 50.6878L538.977 48.8355L537.589 49.7677L540.367 51.62L536.203 54.4166L533.425 52.5644L532.037 53.4966L534.815 55.3489L532.733 56.7472C531.97 57.2599 531.97 58.0962 532.734 58.6055L534.818 59.9947L532.042 61.8592L533.431 62.7853L536.207 60.9209L540.375 63.6992L537.599 65.5637L538.988 66.4898L541.764 64.6254L543.848 66.0145C544.612 66.5239 545.862 66.5212 546.625 66.0084L548.707 64.6101L551.485 66.4624L552.873 65.5301Z" fill="white"/>
<path d="M533.453 52.5829L536.231 54.4352L539.007 52.5708L540.396 53.4969L534.15 57.6919L545.264 65.1009L556.367 57.6431L550.116 53.4755L551.504 52.5433L554.282 54.3956L557.058 52.5311L558.448 53.4572L555.672 55.3217L557.755 56.7109C558.52 57.2202 558.52 58.0565 557.757 58.5692L555.675 59.9675L558.453 61.8198L557.065 62.752L554.287 60.8998L550.123 63.6964L552.901 65.5487L551.513 66.4809L548.735 64.6287L546.653 66.027C545.889 66.5397 544.64 66.5425 543.876 66.0331L541.792 64.6439L539.016 66.5084L537.627 65.5822L540.403 63.7178L536.235 60.9394L533.459 62.8039L532.07 61.8777L534.846 60.0133L532.762 58.6241C531.998 58.1147 531.998 57.2785 532.761 56.7658L534.843 55.3674L532.065 53.5152L533.453 52.5829Z" fill="white"/>
<path d="M545.234 62.2948L538.288 57.6642L545.228 53.0031L552.174 57.6337L545.234 62.2948ZM541.065 57.6581L545.233 60.4364L549.397 57.6398L545.229 54.8614L541.065 57.6581Z" fill="white"/>
</g>
<path d="M495 101.347L524.688 81" stroke="#5552FF" stroke-dasharray="5 5"/>
<path d="M475 157L507.5 181.5" stroke="#5552FF" stroke-dasharray="5 5"/>
<path d="M141.5 108.492L173.932 134.762L217.9 101.842L229.329 111.891" stroke="#5552FF" stroke-dasharray="5 5"/>
<path d="M334.911 54.4862L368.191 75.1006L355.279 84.7764L376.155 95.942" stroke="#5552FF" stroke-dasharray="5 5"/>
<path d="M263 183.347L292.688 163" stroke="#5552FF" stroke-dasharray="5 5"/>
<rect x="293.009" y="32.9215" width="49.5" height="9.13067" fill="#CBCBD7"/>
<rect width="35.6926" height="35.6926" rx="10" transform="matrix(0.83205 0.5547 -0.830139 0.557556 317.633 22.1306)" fill="#CBCBD7"/>
<rect width="35.6926" height="35.6926" rx="10" transform="matrix(0.83205 0.5547 -0.830139 0.557556 317.63 13)" fill="#7CA7E9"/>
<path d="M300.977 33.4821C300.378 33.1362 300.377 32.2716 300.976 31.9242L317.739 22.1948C318.018 22.0331 318.362 22.0327 318.641 22.1938L335.504 31.9279C336.104 32.2738 336.105 33.1384 335.506 33.4858L318.742 43.2152C318.464 43.3769 318.12 43.3773 317.841 43.2162L300.977 33.4821ZM337.036 33.6588C337.768 33.2345 337.767 32.1771 337.034 31.7543L318.741 21.2023C318.4 21.0057 317.98 21.0061 317.639 21.2035L299.446 31.7512C298.714 32.1755 298.715 33.2329 299.448 33.6557L317.741 44.2077C318.082 44.4043 318.502 44.4039 318.843 44.2065L337.036 33.6588Z" fill="white" stroke="#FCFCFC" stroke-width="0.2"/>
<path d="M316.042 29.6537C315.548 29.3571 315.325 29.0014 315.325 28.6671C315.325 28.3324 315.549 27.9763 316.044 27.6794C316.535 27.3843 317.194 27.2337 317.858 27.2337C318.522 27.2337 319.18 27.3843 319.672 27.6794C320.167 27.9763 320.39 28.3324 320.39 28.6671C320.39 29.0012 320.167 29.3566 319.674 29.6532C319.155 29.9244 318.496 30.0621 317.839 30.0621C317.181 30.0621 316.535 29.9242 316.042 29.6537ZM320.437 27.0979C319.703 26.6784 318.752 26.4714 317.807 26.4714C316.861 26.4714 315.91 26.6784 315.176 27.0979C314.442 27.5172 314.052 28.0816 314.052 28.6671C314.052 29.2525 314.442 29.817 315.176 30.2362C315.91 30.6557 316.861 30.8627 317.807 30.8627C318.752 30.8627 319.703 30.6557 320.437 30.2362C321.171 29.817 321.561 29.2525 321.561 28.6671C321.561 28.0816 321.171 27.5172 320.437 27.0979Z" fill="white" stroke="#FCFCFC" stroke-width="0.2"/>
<path d="M316.502 38.0874C316.008 37.7908 315.785 37.4351 315.785 37.1008C315.785 36.7661 316.009 36.41 316.503 36.1131C316.995 35.818 317.654 35.6674 318.318 35.6674C318.982 35.6674 319.64 35.818 320.132 36.1131C320.627 36.41 320.85 36.7661 320.85 37.1008C320.85 37.4351 320.627 37.7908 320.133 38.0874C319.641 38.3578 318.982 38.4959 318.318 38.4959C317.653 38.4959 316.994 38.3578 316.502 38.0874ZM320.897 35.5317C320.163 35.1121 319.212 34.9051 318.267 34.9051C317.321 34.9051 316.37 35.1121 315.636 35.5317C314.902 35.9509 314.512 36.5153 314.512 37.1008C314.512 37.6862 314.902 38.2507 315.636 38.6699C316.37 39.0894 317.321 39.2964 318.267 39.2964C319.212 39.2964 320.163 39.0894 320.897 38.6699C321.631 38.2507 322.021 37.6862 322.021 37.1008C322.021 36.5153 321.631 35.9509 320.897 35.5317Z" fill="white" stroke="#FCFCFC" stroke-width="0.2"/>
<path d="M323.184 33.8422C322.776 33.6099 322.614 33.102 322.815 32.6765L323.011 32.2588C323.139 31.9874 323.393 31.7975 323.69 31.7523L325.83 31.4258C326.033 31.3949 326.24 31.4343 326.418 31.5375L327.538 32.1885C327.934 32.4189 328.094 32.9104 327.909 33.3298L327.725 33.747C327.6 34.0285 327.341 34.227 327.037 34.2734L324.907 34.5983C324.707 34.6289 324.502 34.5911 324.327 34.4912L323.184 33.8422ZM329.218 33.2261C329.472 32.7084 329.282 32.0829 328.784 31.7924L326.829 30.6516C326.609 30.5237 326.353 30.4756 326.102 30.5153L322.787 31.0408C322.427 31.098 322.118 31.3303 321.963 31.6609L321.451 32.7552C321.21 33.2707 321.401 33.885 321.893 34.1717L323.862 35.3201C324.081 35.4483 324.339 35.4964 324.59 35.4561L327.865 34.9304C328.218 34.8738 328.522 34.649 328.679 34.3278L329.218 33.2261Z" fill="white" stroke="#FCFCFC" stroke-width="0.2"/>
<path d="M308.655 33.5364C308.053 33.1903 308.053 32.3223 308.655 31.9762L310.381 30.9831C310.658 30.8233 311 30.8233 311.278 30.9831L313.004 31.9762C313.606 32.3223 313.606 33.1903 313.004 33.5364L311.278 34.5295C311 34.6893 310.658 34.6893 310.381 34.5295L308.655 33.5364ZM314.568 33.7122C315.293 33.2845 315.289 32.2341 314.56 31.8127L311.334 29.9465C310.99 29.7478 310.566 29.7496 310.224 29.9513L307.09 31.8004C306.365 32.2281 306.37 33.2785 307.099 33.6999L310.325 35.5661C310.668 35.7648 311.093 35.763 311.435 35.5613L314.568 33.7122Z" fill="white" stroke="#FCFCFC" stroke-width="0.2"/>
<rect x="103.009" y="84.9215" width="49.5" height="9.13067" fill="#CBCBD7"/>
<rect width="35.6926" height="35.6926" rx="10" transform="matrix(0.83205 0.5547 -0.830139 0.557556 127.633 74.1306)" fill="#CBCBD7"/>
<rect width="35.6926" height="35.6926" rx="10" transform="matrix(0.83205 0.5547 -0.830139 0.557556 127.63 65)" fill="#8965EE"/>
<g clip-path="url(#clip1_901_57)">
<path d="M134.178 86.888C134.536 86.5338 134.809 86.1544 134.997 85.7626C135.627 84.4732 135.351 83.0338 134.169 81.8739C133.938 81.6501 133.673 81.4359 133.395 81.2437L133.361 81.2217C132.936 80.9382 132.459 80.6959 131.949 80.5073C129.81 79.6932 127.069 79.7074 124.89 80.6963C122.907 79.7777 120.218 79.9402 118.507 81.083C118.092 81.3616 117.762 81.6779 117.532 82.0225C117.306 82.326 117.16 82.6578 117.094 82.9926C116.879 83.997 117.353 85.0509 118.505 85.8256L126.541 91.1828C126.607 91.2269 126.673 91.271 126.744 91.3056C128.464 92.332 131.021 92.4412 132.931 91.5507C133.181 91.4334 133.412 91.3036 133.619 91.1643C135.297 90.0373 135.587 88.237 134.178 86.888ZM132.165 90.8195C130.788 91.4597 128.948 91.3934 127.687 90.6724C127.621 90.6347 127.55 90.5937 127.484 90.5496L119.448 85.1925C118.891 84.8209 118.55 84.3605 118.427 83.8807C118.327 83.4862 118.369 83.0851 118.557 82.7059C118.726 82.3393 119.023 82.001 119.447 81.7161C120.705 80.8772 122.673 80.7569 124.137 81.4301L124.888 81.7793L125.647 81.4339C127.608 80.5401 130.213 80.6303 132.022 81.6155C132.159 81.6879 132.291 81.7698 132.419 81.8548C132.66 82.0154 132.872 82.1887 133.066 82.381C133.09 82.4031 133.109 82.422 133.128 82.4472C134.3 83.6514 134.284 85.1923 133.078 86.3879L132.969 86.4923L132.969 86.4986L132.564 86.8971L132.692 87.0201L132.872 87.1903L133.089 87.3983C133.642 87.9373 133.86 88.5873 133.687 89.2349C133.513 89.8825 132.976 90.4455 132.165 90.8195Z" fill="white"/>
</g>
<path d="M31.83 88.12C31.1367 88.12 30.5367 87.97 30.03 87.67C29.53 87.3633 29.1433 86.94 28.87 86.4C28.5967 85.8533 28.46 85.2233 28.46 84.51C28.46 83.79 28.5967 83.16 28.87 82.62C29.1433 82.0733 29.53 81.6467 30.03 81.34C30.5367 81.0333 31.1367 80.88 31.83 80.88C32.65 80.88 33.32 81.08 33.84 81.48C34.36 81.88 34.69 82.44 34.83 83.16H33.65C33.5567 82.7533 33.3567 82.43 33.05 82.19C32.7433 81.95 32.3333 81.83 31.82 81.83C31.12 81.83 30.5667 82.07 30.16 82.55C29.7533 83.0233 29.55 83.6767 29.55 84.51C29.55 85.3367 29.7533 85.9867 30.16 86.46C30.5667 86.9333 31.12 87.17 31.82 87.17C32.3333 87.17 32.7433 87.0567 33.05 86.83C33.3567 86.6033 33.5567 86.2933 33.65 85.9H34.83C34.69 86.5933 34.36 87.1367 33.84 87.53C33.32 87.9233 32.65 88.12 31.83 88.12ZM35.9552 88V80.8H37.0152V88H35.9552ZM40.0375 88.12C39.6175 88.12 39.2708 88.05 38.9975 87.91C38.7242 87.77 38.5208 87.5867 38.3875 87.36C38.2542 87.1267 38.1875 86.8733 38.1875 86.6C38.1875 86.12 38.3742 85.74 38.7475 85.46C39.1208 85.18 39.6542 85.04 40.3475 85.04H41.6475V84.95C41.6475 84.5633 41.5408 84.2733 41.3275 84.08C41.1208 83.8867 40.8508 83.79 40.5175 83.79C40.2242 83.79 39.9675 83.8633 39.7475 84.01C39.5342 84.15 39.4042 84.36 39.3575 84.64H38.2975C38.3308 84.28 38.4508 83.9733 38.6575 83.72C38.8708 83.46 39.1375 83.2633 39.4575 83.13C39.7842 82.99 40.1408 82.92 40.5275 82.92C41.2208 82.92 41.7575 83.1033 42.1375 83.47C42.5175 83.83 42.7075 84.3233 42.7075 84.95V88H41.7875L41.6975 87.15C41.5575 87.4233 41.3542 87.6533 41.0875 87.84C40.8208 88.0267 40.4708 88.12 40.0375 88.12ZM40.2475 87.26C40.5342 87.26 40.7742 87.1933 40.9675 87.06C41.1675 86.92 41.3208 86.7367 41.4275 86.51C41.5408 86.2833 41.6108 86.0333 41.6375 85.76H40.4575C40.0375 85.76 39.7375 85.8333 39.5575 85.98C39.3842 86.1267 39.2975 86.31 39.2975 86.53C39.2975 86.7567 39.3808 86.9367 39.5475 87.07C39.7208 87.1967 39.9542 87.26 40.2475 87.26ZM45.9234 88.12C45.2968 88.12 44.7801 87.9667 44.3734 87.66C43.9668 87.3533 43.7334 86.9467 43.6734 86.44H44.7434C44.7968 86.6667 44.9234 86.8633 45.1234 87.03C45.3234 87.19 45.5868 87.27 45.9134 87.27C46.2334 87.27 46.4668 87.2033 46.6134 87.07C46.7601 86.9367 46.8334 86.7833 46.8334 86.61C46.8334 86.3567 46.7301 86.1867 46.5234 86.1C46.3234 86.0067 46.0434 85.9233 45.6834 85.85C45.4034 85.79 45.1234 85.71 44.8434 85.61C44.5701 85.51 44.3401 85.37 44.1534 85.19C43.9734 85.0033 43.8834 84.7533 43.8834 84.44C43.8834 84.0067 44.0501 83.6467 44.3834 83.36C44.7168 83.0667 45.1834 82.92 45.7834 82.92C46.3368 82.92 46.7834 83.0533 47.1234 83.32C47.4701 83.5867 47.6734 83.9633 47.7334 84.45H46.7134C46.6801 84.2367 46.5801 84.07 46.4134 83.95C46.2534 83.83 46.0368 83.77 45.7634 83.77C45.4968 83.77 45.2901 83.8267 45.1434 83.94C44.9968 84.0467 44.9234 84.1867 44.9234 84.36C44.9234 84.5333 45.0234 84.67 45.2234 84.77C45.4301 84.87 45.7001 84.96 46.0334 85.04C46.3668 85.1133 46.6734 85.2 46.9534 85.3C47.2401 85.3933 47.4701 85.5333 47.6434 85.72C47.8168 85.9067 47.9034 86.18 47.9034 86.54C47.9101 86.9933 47.7334 87.37 47.3734 87.67C47.0201 87.97 46.5368 88.12 45.9234 88.12ZM51.0406 88.12C50.414 88.12 49.8973 87.9667 49.4906 87.66C49.084 87.3533 48.8506 86.9467 48.7906 86.44H49.8606C49.914 86.6667 50.0406 86.8633 50.2406 87.03C50.4406 87.19 50.704 87.27 51.0306 87.27C51.3506 87.27 51.584 87.2033 51.7306 87.07C51.8773 86.9367 51.9506 86.7833 51.9506 86.61C51.9506 86.3567 51.8473 86.1867 51.6406 86.1C51.4406 86.0067 51.1606 85.9233 50.8006 85.85C50.5206 85.79 50.2406 85.71 49.9606 85.61C49.6873 85.51 49.4573 85.37 49.2706 85.19C49.0906 85.0033 49.0006 84.7533 49.0006 84.44C49.0006 84.0067 49.1673 83.6467 49.5006 83.36C49.834 83.0667 50.3006 82.92 50.9006 82.92C51.454 82.92 51.9006 83.0533 52.2406 83.32C52.5873 83.5867 52.7906 83.9633 52.8506 84.45H51.8306C51.7973 84.2367 51.6973 84.07 51.5306 83.95C51.3706 83.83 51.154 83.77 50.8806 83.77C50.614 83.77 50.4073 83.8267 50.2606 83.94C50.114 84.0467 50.0406 84.1867 50.0406 84.36C50.0406 84.5333 50.1406 84.67 50.3406 84.77C50.5473 84.87 50.8173 84.96 51.1506 85.04C51.484 85.1133 51.7906 85.2 52.0706 85.3C52.3573 85.3933 52.5873 85.5333 52.7606 85.72C52.934 85.9067 53.0206 86.18 53.0206 86.54C53.0273 86.9933 52.8506 87.37 52.4906 87.67C52.1373 87.97 51.654 88.12 51.0406 88.12ZM54.7778 82.1C54.5778 82.1 54.4111 82.04 54.2778 81.92C54.1511 81.7933 54.0878 81.6367 54.0878 81.45C54.0878 81.2633 54.1511 81.11 54.2778 80.99C54.4111 80.8633 54.5778 80.8 54.7778 80.8C54.9778 80.8 55.1411 80.8633 55.2678 80.99C55.4011 81.11 55.4678 81.2633 55.4678 81.45C55.4678 81.6367 55.4011 81.7933 55.2678 81.92C55.1411 82.04 54.9778 82.1 54.7778 82.1ZM54.2478 88V83.04H55.3078V88H54.2478ZM59.0571 88.12C58.5704 88.12 58.1338 88.01 57.7471 87.79C57.3671 87.57 57.0671 87.2667 56.8471 86.88C56.6338 86.4867 56.5271 86.0333 56.5271 85.52C56.5271 85.0067 56.6338 84.5567 56.8471 84.17C57.0671 83.7767 57.3671 83.47 57.7471 83.25C58.1338 83.03 58.5704 82.92 59.0571 82.92C59.6704 82.92 60.1838 83.08 60.5971 83.4C61.0171 83.72 61.2871 84.1533 61.4071 84.7H60.2971C60.2304 84.4267 60.0838 84.2133 59.8571 84.06C59.6304 83.9067 59.3638 83.83 59.0571 83.83C58.7971 83.83 58.5571 83.8967 58.3371 84.03C58.1171 84.1567 57.9404 84.3467 57.8071 84.6C57.6738 84.8467 57.6071 85.1533 57.6071 85.52C57.6071 85.8867 57.6738 86.1967 57.8071 86.45C57.9404 86.6967 58.1171 86.8867 58.3371 87.02C58.5571 87.1533 58.7971 87.22 59.0571 87.22C59.3638 87.22 59.6304 87.1433 59.8571 86.99C60.0838 86.8367 60.2304 86.62 60.2971 86.34H61.4071C61.2938 86.8733 61.0271 87.3033 60.6071 87.63C60.1871 87.9567 59.6704 88.12 59.0571 88.12ZM64.2367 88.12C63.8167 88.12 63.4701 88.05 63.1967 87.91C62.9234 87.77 62.7201 87.5867 62.5867 87.36C62.4534 87.1267 62.3867 86.8733 62.3867 86.6C62.3867 86.12 62.5734 85.74 62.9467 85.46C63.3201 85.18 63.8534 85.04 64.5467 85.04H65.8467V84.95C65.8467 84.5633 65.7401 84.2733 65.5267 84.08C65.3201 83.8867 65.0501 83.79 64.7167 83.79C64.4234 83.79 64.1667 83.8633 63.9467 84.01C63.7334 84.15 63.6034 84.36 63.5567 84.64H62.4967C62.5301 84.28 62.6501 83.9733 62.8567 83.72C63.0701 83.46 63.3367 83.2633 63.6567 83.13C63.9834 82.99 64.3401 82.92 64.7267 82.92C65.4201 82.92 65.9567 83.1033 66.3367 83.47C66.7167 83.83 66.9067 84.3233 66.9067 84.95V88H65.9867L65.8967 87.15C65.7567 87.4233 65.5534 87.6533 65.2867 87.84C65.0201 88.0267 64.6701 88.12 64.2367 88.12ZM64.4467 87.26C64.7334 87.26 64.9734 87.1933 65.1667 87.06C65.3667 86.92 65.5201 86.7367 65.6267 86.51C65.7401 86.2833 65.8101 86.0333 65.8367 85.76H64.6567C64.2367 85.76 63.9367 85.8333 63.7567 85.98C63.5834 86.1267 63.4967 86.31 63.4967 86.53C63.4967 86.7567 63.5801 86.9367 63.7467 87.07C63.9201 87.1967 64.1534 87.26 64.4467 87.26ZM68.1427 88V80.8H69.2027V88H68.1427ZM28.71 101V94H31.16C31.7067 94 32.16 94.0933 32.52 94.28C32.88 94.46 33.1467 94.71 33.32 95.03C33.5 95.3433 33.59 95.7 33.59 96.1C33.59 96.48 33.5033 96.83 33.33 97.15C33.1633 97.4633 32.9 97.7133 32.54 97.9C32.18 98.0867 31.72 98.18 31.16 98.18H29.77V101H28.71ZM29.77 97.31H31.11C31.61 97.31 31.9667 97.2033 32.18 96.99C32.4 96.77 32.51 96.4733 32.51 96.1C32.51 95.7133 32.4 95.4133 32.18 95.2C31.9667 94.98 31.61 94.87 31.11 94.87H29.77V97.31ZM36.4277 101.12C35.8277 101.12 35.3544 100.933 35.0077 100.56C34.6677 100.187 34.4977 99.63 34.4977 98.89V96.04H35.5577V98.78C35.5577 99.74 35.9511 100.22 36.7377 100.22C37.1311 100.22 37.4544 100.08 37.7077 99.8C37.9611 99.52 38.0877 99.12 38.0877 98.6V96.04H39.1477V101H38.2077L38.1277 100.13C37.9744 100.437 37.7477 100.68 37.4477 100.86C37.1544 101.033 36.8144 101.12 36.4277 101.12ZM43.2862 101.12C42.8995 101.12 42.5562 101.043 42.2562 100.89C41.9628 100.737 41.7295 100.52 41.5562 100.24L41.4462 101H40.4962V93.8H41.5562V96.81C41.7162 96.5767 41.9362 96.37 42.2162 96.19C42.4962 96.01 42.8562 95.92 43.2962 95.92C43.7762 95.92 44.1995 96.0333 44.5662 96.26C44.9328 96.4867 45.2195 96.7967 45.4262 97.19C45.6395 97.5833 45.7462 98.03 45.7462 98.53C45.7462 99.03 45.6395 99.4767 45.4262 99.87C45.2195 100.257 44.9328 100.563 44.5662 100.79C44.1995 101.01 43.7728 101.12 43.2862 101.12ZM43.1062 100.2C43.5595 100.2 43.9328 100.047 44.2262 99.74C44.5195 99.4267 44.6662 99.02 44.6662 98.52C44.6662 98.1933 44.5995 97.9033 44.4662 97.65C44.3328 97.3967 44.1495 97.2 43.9162 97.06C43.6828 96.9133 43.4128 96.84 43.1062 96.84C42.6528 96.84 42.2795 96.9967 41.9862 97.31C41.6995 97.6233 41.5562 98.0267 41.5562 98.52C41.5562 99.02 41.6995 99.4267 41.9862 99.74C42.2795 100.047 42.6528 100.2 43.1062 100.2ZM46.8927 101V93.8H47.9527V101H46.8927ZM49.895 95.1C49.695 95.1 49.5283 95.04 49.395 94.92C49.2683 94.7933 49.205 94.6367 49.205 94.45C49.205 94.2633 49.2683 94.11 49.395 93.99C49.5283 93.8633 49.695 93.8 49.895 93.8C50.095 93.8 50.2583 93.8633 50.385 93.99C50.5183 94.11 50.585 94.2633 50.585 94.45C50.585 94.6367 50.5183 94.7933 50.385 94.92C50.2583 95.04 50.095 95.1 49.895 95.1ZM49.365 101V96.04H50.425V101H49.365ZM54.1743 101.12C53.6876 101.12 53.251 101.01 52.8643 100.79C52.4843 100.57 52.1843 100.267 51.9643 99.88C51.751 99.4867 51.6443 99.0333 51.6443 98.52C51.6443 98.0067 51.751 97.5567 51.9643 97.17C52.1843 96.7767 52.4843 96.47 52.8643 96.25C53.251 96.03 53.6876 95.92 54.1743 95.92C54.7876 95.92 55.301 96.08 55.7143 96.4C56.1343 96.72 56.4043 97.1533 56.5243 97.7H55.4143C55.3476 97.4267 55.201 97.2133 54.9743 97.06C54.7476 96.9067 54.481 96.83 54.1743 96.83C53.9143 96.83 53.6743 96.8967 53.4543 97.03C53.2343 97.1567 53.0576 97.3467 52.9243 97.6C52.791 97.8467 52.7243 98.1533 52.7243 98.52C52.7243 98.8867 52.791 99.1967 52.9243 99.45C53.0576 99.6967 53.2343 99.8867 53.4543 100.02C53.6743 100.153 53.9143 100.22 54.1743 100.22C54.481 100.22 54.7476 100.143 54.9743 99.99C55.201 99.8367 55.3476 99.62 55.4143 99.34H56.5243C56.411 99.8733 56.1443 100.303 55.7243 100.63C55.3043 100.957 54.7876 101.12 54.1743 101.12ZM63.3534 101.12C62.6601 101.12 62.0601 100.97 61.5534 100.67C61.0534 100.363 60.6668 99.94 60.3934 99.4C60.1201 98.8533 59.9834 98.2233 59.9834 97.51C59.9834 96.79 60.1201 96.16 60.3934 95.62C60.6668 95.0733 61.0534 94.6467 61.5534 94.34C62.0601 94.0333 62.6601 93.88 63.3534 93.88C64.1734 93.88 64.8434 94.08 65.3634 94.48C65.8834 94.88 66.2134 95.44 66.3534 96.16H65.1734C65.0801 95.7533 64.8801 95.43 64.5734 95.19C64.2668 94.95 63.8568 94.83 63.3434 94.83C62.6434 94.83 62.0901 95.07 61.6834 95.55C61.2768 96.0233 61.0734 96.6767 61.0734 97.51C61.0734 98.3367 61.2768 98.9867 61.6834 99.46C62.0901 99.9333 62.6434 100.17 63.3434 100.17C63.8568 100.17 64.2668 100.057 64.5734 99.83C64.8801 99.6033 65.0801 99.2933 65.1734 98.9H66.3534C66.2134 99.5933 65.8834 100.137 65.3634 100.53C64.8434 100.923 64.1734 101.12 63.3534 101.12ZM67.4786 101V93.8H68.5386V101H67.4786ZM72.2009 101.12C71.7276 101.12 71.3009 101.013 70.9209 100.8C70.5476 100.58 70.2509 100.277 70.0309 99.89C69.8109 99.4967 69.7009 99.04 69.7009 98.52C69.7009 98 69.8109 97.5467 70.0309 97.16C70.2576 96.7667 70.5609 96.4633 70.9409 96.25C71.3209 96.03 71.7443 95.92 72.2109 95.92C72.6843 95.92 73.1076 96.03 73.4809 96.25C73.8609 96.4633 74.1609 96.7667 74.3809 97.16C74.6076 97.5467 74.7209 98 74.7209 98.52C74.7209 99.04 74.6076 99.4967 74.3809 99.89C74.1609 100.277 73.8609 100.58 73.4809 100.8C73.1009 101.013 72.6743 101.12 72.2009 101.12ZM72.2009 100.21C72.4543 100.21 72.6876 100.147 72.9009 100.02C73.1209 99.8933 73.2976 99.7067 73.4309 99.46C73.5643 99.2067 73.6309 98.8933 73.6309 98.52C73.6309 98.1467 73.5643 97.8367 73.4309 97.59C73.3043 97.3367 73.1309 97.1467 72.9109 97.02C72.6976 96.8933 72.4643 96.83 72.2109 96.83C71.9576 96.83 71.7209 96.8933 71.5009 97.02C71.2876 97.1467 71.1143 97.3367 70.9809 97.59C70.8476 97.8367 70.7809 98.1467 70.7809 98.52C70.7809 98.8933 70.8476 99.2067 70.9809 99.46C71.1143 99.7067 71.2876 99.8933 71.5009 100.02C71.7143 100.147 71.9476 100.21 72.2009 100.21ZM77.6973 101.12C77.0973 101.12 76.6239 100.933 76.2773 100.56C75.9373 100.187 75.7673 99.63 75.7673 98.89V96.04H76.8273V98.78C76.8273 99.74 77.2206 100.22 78.0073 100.22C78.4006 100.22 78.7239 100.08 78.9773 99.8C79.2306 99.52 79.3573 99.12 79.3573 98.6V96.04H80.4173V101H79.4773L79.3973 100.13C79.2439 100.437 79.0173 100.68 78.7173 100.86C78.4239 101.033 78.0839 101.12 77.6973 101.12ZM84.0257 101.12C83.5457 101.12 83.1224 101.007 82.7557 100.78C82.389 100.553 82.1024 100.243 81.8957 99.85C81.689 99.4567 81.5857 99.01 81.5857 98.51C81.5857 98.01 81.689 97.5667 81.8957 97.18C82.1024 96.7867 82.389 96.48 82.7557 96.26C83.129 96.0333 83.5557 95.92 84.0357 95.92C84.429 95.92 84.7724 95.9967 85.0657 96.15C85.3657 96.3033 85.599 96.52 85.7657 96.8V93.8H86.8257V101H85.8757L85.7657 100.23C85.6057 100.463 85.3857 100.67 85.1057 100.85C84.8257 101.03 84.4657 101.12 84.0257 101.12ZM84.2157 100.2C84.669 100.2 85.039 100.043 85.3257 99.73C85.619 99.4167 85.7657 99.0133 85.7657 98.52C85.7657 98.02 85.619 97.6167 85.3257 97.31C85.039 96.9967 84.669 96.84 84.2157 96.84C83.7624 96.84 83.389 96.9967 83.0957 97.31C82.8024 97.6167 82.6557 98.02 82.6557 98.52C82.6557 98.8467 82.7224 99.1367 82.8557 99.39C82.989 99.6433 83.1724 99.8433 83.4057 99.99C83.6457 100.13 83.9157 100.2 84.2157 100.2ZM90.1422 101.12C89.5155 101.12 88.9989 100.967 88.5922 100.66C88.1855 100.353 87.9522 99.9467 87.8922 99.44H88.9622C89.0155 99.6667 89.1422 99.8633 89.3422 100.03C89.5422 100.19 89.8055 100.27 90.1322 100.27C90.4522 100.27 90.6855 100.203 90.8322 100.07C90.9789 99.9367 91.0522 99.7833 91.0522 99.61C91.0522 99.3567 90.9489 99.1867 90.7422 99.1C90.5422 99.0067 90.2622 98.9233 89.9022 98.85C89.6222 98.79 89.3422 98.71 89.0622 98.61C88.7889 98.51 88.5589 98.37 88.3722 98.19C88.1922 98.0033 88.1022 97.7533 88.1022 97.44C88.1022 97.0067 88.2689 96.6467 88.6022 96.36C88.9355 96.0667 89.4022 95.92 90.0022 95.92C90.5555 95.92 91.0022 96.0533 91.3422 96.32C91.6889 96.5867 91.8922 96.9633 91.9522 97.45H90.9322C90.8989 97.2367 90.7989 97.07 90.6322 96.95C90.4722 96.83 90.2555 96.77 89.9822 96.77C89.7155 96.77 89.5089 96.8267 89.3622 96.94C89.2155 97.0467 89.1422 97.1867 89.1422 97.36C89.1422 97.5333 89.2422 97.67 89.4422 97.77C89.6489 97.87 89.9189 97.96 90.2522 98.04C90.5855 98.1133 90.8922 98.2 91.1722 98.3C91.4589 98.3933 91.6889 98.5333 91.8622 98.72C92.0355 98.9067 92.1222 99.18 92.1222 99.54C92.1289 99.9933 91.9522 100.37 91.5922 100.67C91.2389 100.97 90.7555 101.12 90.1422 101.12Z" fill="black"/>
<rect x="209.009" y="192.922" width="49.5" height="9.13067" fill="#CBCBD7"/>
<rect width="35.6926" height="35.6926" rx="10" transform="matrix(0.83205 0.5547 -0.830139 0.557556 233.633 182.131)" fill="#CBCBD7"/>
<rect width="35.6926" height="35.6926" rx="10" transform="matrix(0.83205 0.5547 -0.830139 0.557556 233.63 173)" fill="#A965EE"/>
<g clip-path="url(#clip2_901_57)">
<path d="M242.4 194.528C242.279 194.365 242.157 194.203 242.023 194.048C242.175 193.987 242.333 193.922 242.484 193.852C244.914 192.774 246.268 191.507 245.871 190.527C245.499 189.588 243.51 188.977 240.761 188.86C240.488 188.848 240.22 188.84 239.947 188.837C239.947 188.715 239.934 188.593 239.922 188.471C239.748 186.526 238.785 185.112 237.32 184.85C235.915 184.605 234.129 185.454 232.588 186.986C232.436 187.137 232.29 187.292 232.151 187.451C231.877 187.349 231.597 187.252 231.317 187.163C228.884 186.386 226.75 186.28 225.73 186.965C224.71 187.651 224.852 189.208 226.089 190.894C226.187 191.033 226.296 191.163 226.406 191.301C226.157 191.403 225.908 191.505 225.665 191.619C223.436 192.644 222.216 193.83 222.594 194.765C222.979 195.729 225.053 196.388 227.862 196.505C228.081 196.513 228.312 196.521 228.543 196.52C228.549 196.72 228.562 196.915 228.586 197.11C228.79 198.912 229.716 200.204 231.109 200.45C232.55 200.704 234.452 199.826 236.011 198.265C236.133 198.143 236.248 198.016 236.363 197.89C236.503 197.943 236.643 197.987 236.777 198.036C239.38 198.902 241.697 199.049 242.766 198.331C243.792 197.641 243.595 196.177 242.388 194.528L242.4 194.528ZM240.69 189.543C243.043 189.649 244.648 190.143 244.88 190.704C245.125 191.305 244.014 192.344 241.918 193.272C241.778 193.333 241.645 193.39 241.499 193.447C240.92 192.834 240.275 192.241 239.581 191.689C239.774 190.973 239.894 190.248 239.936 189.52C240.185 189.524 240.434 189.527 240.684 189.539L240.69 189.543ZM229.889 190.908C229.744 191.21 229.616 191.515 229.489 191.82C229.362 192.134 229.247 192.447 229.15 192.765C228.676 192.375 228.237 191.969 227.829 191.551C228.467 191.326 229.154 191.109 229.889 190.908ZM231.601 189.758C231.892 189.278 232.202 188.826 232.535 188.406C233.131 188.657 233.74 188.941 234.348 189.257C233.886 189.323 233.425 189.405 232.969 189.483C232.507 189.565 232.057 189.656 231.607 189.754L231.601 189.758ZM231.129 190.589C231.821 190.425 232.52 190.281 233.225 190.15C233.93 190.019 234.647 189.912 235.371 189.817C235.912 190.129 236.46 190.462 236.983 190.811C237.507 191.16 238.012 191.521 238.475 191.886C238.336 192.362 238.172 192.839 237.985 193.315C237.797 193.791 237.585 194.259 237.355 194.724C236.662 194.887 235.951 195.031 235.246 195.162C234.541 195.294 233.83 195.405 233.113 195.504C232.571 195.191 232.03 194.855 231.494 194.498C230.958 194.141 230.465 193.787 230.003 193.438C230.142 192.954 230.299 192.474 230.493 191.993C230.68 191.517 230.898 191.045 231.135 190.585L231.129 190.589ZM235.509 195.825C235.977 195.739 236.438 195.649 236.906 195.546C236.64 196.018 236.324 196.483 235.979 196.935C235.34 196.663 234.719 196.372 234.117 196.059C234.585 195.989 235.047 195.907 235.509 195.825ZM238.582 194.412C238.722 194.107 238.855 193.797 238.976 193.488C239.097 193.187 239.212 192.882 239.309 192.572C239.784 192.978 240.216 193.388 240.588 193.79C239.931 194.019 239.263 194.224 238.576 194.408L238.582 194.412ZM238.902 189.53C238.867 190.026 238.801 190.519 238.698 191.011C238.059 190.544 237.39 190.098 236.684 189.668C237.449 189.594 238.197 189.548 238.902 189.53ZM237.053 185.518C237.953 185.679 238.746 186.833 238.894 188.509C238.907 188.615 238.913 188.725 238.913 188.838C237.825 188.869 236.737 188.948 235.667 189.08C234.834 188.614 233.957 188.192 233.039 187.799C233.172 187.652 233.306 187.514 233.445 187.371C234.762 186.055 236.208 185.369 237.053 185.518ZM227.299 190.953C227.202 190.832 227.104 190.71 227.013 190.584C226.464 189.836 226.147 189.137 226.079 188.547C226.017 188.027 226.163 187.636 226.454 187.44C227.074 187.024 228.794 187.107 230.874 187.778C231.136 187.863 231.392 187.952 231.641 188.045C231.137 188.693 230.695 189.357 230.325 190.045C229.286 190.303 228.277 190.606 227.305 190.949L227.299 190.953ZM227.928 195.81C226.687 195.755 225.617 195.594 224.826 195.343C224.121 195.116 223.695 194.841 223.591 194.576C223.365 194.011 224.336 193.058 226.25 192.18C226.474 192.078 226.705 191.98 226.942 191.886C227.533 192.499 228.19 193.084 228.903 193.64C228.715 194.36 228.601 195.097 228.554 195.829C228.347 195.829 228.14 195.821 227.934 195.814L227.928 195.81ZM229.587 195.811C229.611 195.331 229.683 194.826 229.791 194.305C230.108 194.533 230.431 194.756 230.771 194.983C231.112 195.21 231.465 195.437 231.824 195.652C231.083 195.727 230.341 195.785 229.587 195.811ZM232.992 199.438C232.342 199.736 231.777 199.847 231.375 199.774C230.53 199.625 229.781 198.589 229.614 197.047C229.589 196.869 229.583 196.685 229.576 196.502C230.664 196.464 231.746 196.373 232.822 196.236C233.668 196.711 234.556 197.141 235.487 197.534C235.378 197.648 235.275 197.766 235.166 197.872C234.474 198.565 233.721 199.103 232.998 199.434L232.992 199.438ZM237.25 197.409C237.128 197.368 237.001 197.324 236.873 197.279C237.376 196.623 237.801 195.947 238.164 195.255C239.179 195.005 240.17 194.715 241.117 194.379C241.239 194.526 241.355 194.676 241.465 194.822C242.501 196.236 242.655 197.42 242.041 197.832C241.379 198.276 239.489 198.153 237.244 197.405L237.25 197.409Z" fill="white"/>
<path d="M232.739 193.67C233.043 193.873 233.42 194.01 233.846 194.066C234.266 194.119 234.703 194.093 235.092 193.987C235.487 193.876 235.821 193.693 236.064 193.456C236.301 193.216 236.428 192.935 236.433 192.654C236.433 192.37 236.305 192.089 236.073 191.854C235.836 191.614 235.501 191.432 235.106 191.322C234.71 191.213 234.279 191.186 233.859 191.239C233.44 191.293 233.057 191.436 232.76 191.636C232.559 191.77 232.395 191.929 232.292 192.104C232.177 192.279 232.129 192.467 232.129 192.654C232.129 192.841 232.184 193.032 232.294 193.203C232.398 193.377 232.562 193.536 232.763 193.67L232.739 193.67Z" fill="white"/>
</g>
<rect x="508" y="193" width="49.5" height="9" fill="#CBCBD7"/>
<rect width="35.6926" height="35.6926" rx="10" transform="matrix(0.83205 0.5547 -0.830139 0.557556 532.633 182.131)" fill="#CBCBD7"/>
<rect width="35.6926" height="35.6926" rx="10" transform="matrix(0.83205 0.5547 -0.830139 0.557556 532.63 173)" fill="#7CA7E9"/>
<g clip-path="url(#clip3_901_57)">
<path d="M547.835 192.633L533.228 182.895C532.559 182.449 531.464 182.45 530.796 182.899L521.08 189.425C520.412 189.873 520.414 190.606 521.083 191.052L525.952 194.298L523.523 195.929L521.089 194.306L519.874 195.122L529.613 201.614L530.827 200.798L528.392 199.175L530.821 197.544L535.691 200.79C536.36 201.236 537.454 201.234 538.122 200.786L547.838 194.26C548.506 193.812 548.505 193.079 547.835 192.633ZM527.175 198.364L524.741 196.741L527.17 195.109L529.604 196.732L527.175 198.364ZM536.905 199.974L522.298 190.236L532.014 183.711L546.621 193.449L536.905 199.974Z" fill="white"/>
</g>
<path d="M580.081 54V47H581.141V50H584.531V47H585.591V54H584.531V50.87H581.141V54H580.081ZM587.015 54V47H589.465C590.011 47 590.465 47.0933 590.825 47.28C591.185 47.46 591.451 47.71 591.625 48.03C591.805 48.3433 591.895 48.7 591.895 49.1C591.895 49.48 591.808 49.83 591.635 50.15C591.468 50.4633 591.205 50.7133 590.845 50.9C590.485 51.0867 590.025 51.18 589.465 51.18H588.075V54H587.015ZM588.075 50.31H589.415C589.915 50.31 590.271 50.2033 590.485 49.99C590.705 49.77 590.815 49.4733 590.815 49.1C590.815 48.7133 590.705 48.4133 590.485 48.2C590.271 47.98 589.915 47.87 589.415 47.87H588.075V50.31ZM596.062 54.12C595.369 54.12 594.769 53.97 594.262 53.67C593.762 53.3633 593.376 52.94 593.102 52.4C592.829 51.8533 592.692 51.2233 592.692 50.51C592.692 49.79 592.829 49.16 593.102 48.62C593.376 48.0733 593.762 47.6467 594.262 47.34C594.769 47.0333 595.369 46.88 596.062 46.88C596.882 46.88 597.552 47.08 598.072 47.48C598.592 47.88 598.922 48.44 599.062 49.16H597.882C597.789 48.7533 597.589 48.43 597.282 48.19C596.976 47.95 596.566 47.83 596.052 47.83C595.352 47.83 594.799 48.07 594.392 48.55C593.986 49.0233 593.782 49.6767 593.782 50.51C593.782 51.3367 593.986 51.9867 594.392 52.46C594.799 52.9333 595.352 53.17 596.052 53.17C596.566 53.17 596.976 53.0567 597.282 52.83C597.589 52.6033 597.789 52.2933 597.882 51.9H599.062C598.922 52.5933 598.592 53.1367 598.072 53.53C597.552 53.9233 596.882 54.12 596.062 54.12ZM605.867 54.12C605.174 54.12 604.574 53.97 604.067 53.67C603.567 53.3633 603.18 52.94 602.907 52.4C602.634 51.8533 602.497 51.2233 602.497 50.51C602.497 49.79 602.634 49.16 602.907 48.62C603.18 48.0733 603.567 47.6467 604.067 47.34C604.574 47.0333 605.174 46.88 605.867 46.88C606.687 46.88 607.357 47.08 607.877 47.48C608.397 47.88 608.727 48.44 608.867 49.16H607.687C607.594 48.7533 607.394 48.43 607.087 48.19C606.78 47.95 606.37 47.83 605.857 47.83C605.157 47.83 604.604 48.07 604.197 48.55C603.79 49.0233 603.587 49.6767 603.587 50.51C603.587 51.3367 603.79 51.9867 604.197 52.46C604.604 52.9333 605.157 53.17 605.857 53.17C606.37 53.17 606.78 53.0567 607.087 52.83C607.394 52.6033 607.594 52.2933 607.687 51.9H608.867C608.727 52.5933 608.397 53.1367 607.877 53.53C607.357 53.9233 606.687 54.12 605.867 54.12ZM609.992 54V46.8H611.052V54H609.992ZM614.225 54.12C613.625 54.12 613.151 53.9333 612.805 53.56C612.465 53.1867 612.295 52.63 612.295 51.89V49.04H613.355V51.78C613.355 52.74 613.748 53.22 614.535 53.22C614.928 53.22 615.251 53.08 615.505 52.8C615.758 52.52 615.885 52.12 615.885 51.6V49.04H616.945V54H616.005L615.925 53.13C615.771 53.4367 615.545 53.68 615.245 53.86C614.951 54.0333 614.611 54.12 614.225 54.12ZM620.273 54.12C619.646 54.12 619.13 53.9667 618.723 53.66C618.316 53.3533 618.083 52.9467 618.023 52.44H619.093C619.146 52.6667 619.273 52.8633 619.473 53.03C619.673 53.19 619.936 53.27 620.263 53.27C620.583 53.27 620.816 53.2033 620.963 53.07C621.11 52.9367 621.183 52.7833 621.183 52.61C621.183 52.3567 621.08 52.1867 620.873 52.1C620.673 52.0067 620.393 51.9233 620.033 51.85C619.753 51.79 619.473 51.71 619.193 51.61C618.92 51.51 618.69 51.37 618.503 51.19C618.323 51.0033 618.233 50.7533 618.233 50.44C618.233 50.0067 618.4 49.6467 618.733 49.36C619.066 49.0667 619.533 48.92 620.133 48.92C620.686 48.92 621.133 49.0533 621.473 49.32C621.82 49.5867 622.023 49.9633 622.083 50.45H621.063C621.03 50.2367 620.93 50.07 620.763 49.95C620.603 49.83 620.386 49.77 620.113 49.77C619.846 49.77 619.64 49.8267 619.493 49.94C619.346 50.0467 619.273 50.1867 619.273 50.36C619.273 50.5333 619.373 50.67 619.573 50.77C619.78 50.87 620.05 50.96 620.383 51.04C620.716 51.1133 621.023 51.2 621.303 51.3C621.59 51.3933 621.82 51.5333 621.993 51.72C622.166 51.9067 622.253 52.18 622.253 52.54C622.26 52.9933 622.083 53.37 621.723 53.67C621.37 53.97 620.886 54.12 620.273 54.12ZM625.305 54C624.818 54 624.431 53.8833 624.145 53.65C623.858 53.41 623.715 52.9867 623.715 52.38V49.93H622.865V49.04H623.715L623.845 47.78H624.775V49.04H626.175V49.93H624.775V52.38C624.775 52.6533 624.831 52.8433 624.945 52.95C625.065 53.05 625.268 53.1 625.555 53.1H626.125V54H625.305ZM629.461 54.12C628.974 54.12 628.541 54.0133 628.161 53.8C627.787 53.58 627.494 53.2767 627.281 52.89C627.067 52.5033 626.961 52.0533 626.961 51.54C626.961 51.02 627.064 50.5633 627.271 50.17C627.484 49.7767 627.777 49.47 628.151 49.25C628.531 49.03 628.971 48.92 629.471 48.92C629.957 48.92 630.381 49.03 630.741 49.25C631.101 49.4633 631.381 49.75 631.581 50.11C631.781 50.47 631.881 50.8667 631.881 51.3C631.881 51.3667 631.877 51.44 631.871 51.52C631.871 51.5933 631.867 51.6767 631.861 51.77H628.001C628.034 52.25 628.191 52.6167 628.471 52.87C628.757 53.1167 629.087 53.24 629.461 53.24C629.761 53.24 630.011 53.1733 630.211 53.04C630.417 52.9 630.571 52.7133 630.671 52.48H631.731C631.597 52.9467 631.331 53.3367 630.931 53.65C630.537 53.9633 630.047 54.12 629.461 54.12ZM629.461 49.79C629.107 49.79 628.794 49.8967 628.521 50.11C628.247 50.3167 628.081 50.63 628.021 51.05H630.821C630.801 50.6633 630.664 50.3567 630.411 50.13C630.157 49.9033 629.841 49.79 629.461 49.79ZM632.981 54V49.04H633.931L634.021 49.98C634.194 49.6533 634.434 49.3967 634.741 49.21C635.054 49.0167 635.431 48.92 635.871 48.92V50.03H635.581C635.287 50.03 635.024 50.08 634.791 50.18C634.564 50.2733 634.381 50.4367 634.241 50.67C634.107 50.8967 634.041 51.2133 634.041 51.62V54H632.981ZM582.495 68.45C582.121 68.09 581.785 67.6667 581.485 67.18C581.191 66.7 580.955 66.1667 580.775 65.58C580.601 64.9867 580.515 64.35 580.515 63.67C580.515 62.99 580.601 62.3567 580.775 61.77C580.955 61.1767 581.191 60.64 581.485 60.16C581.785 59.6733 582.121 59.25 582.495 58.89H583.555V58.99C582.955 59.61 582.471 60.32 582.105 61.12C581.745 61.92 581.565 62.77 581.565 63.67C581.565 64.57 581.745 65.42 582.105 66.22C582.471 67.02 582.958 67.73 583.565 68.35V68.45H582.495ZM584.622 67V60H587.262C587.989 60 588.539 60.17 588.912 60.51C589.285 60.85 589.472 61.2767 589.472 61.79C589.472 62.2367 589.352 62.5933 589.112 62.86C588.872 63.12 588.582 63.2967 588.242 63.39C588.509 63.4433 588.745 63.55 588.952 63.71C589.165 63.87 589.332 64.07 589.452 64.31C589.572 64.55 589.632 64.81 589.632 65.09C589.632 65.45 589.542 65.7767 589.362 66.07C589.189 66.3567 588.932 66.5833 588.592 66.75C588.252 66.9167 587.835 67 587.342 67H584.622ZM585.682 63H587.132C587.539 63 587.849 62.9067 588.062 62.72C588.275 62.5267 588.382 62.2633 588.382 61.93C588.382 61.6033 588.275 61.3433 588.062 61.15C587.855 60.9567 587.539 60.86 587.112 60.86H585.682V63ZM585.682 66.13H587.202C587.629 66.13 587.959 66.03 588.192 65.83C588.432 65.63 588.552 65.35 588.552 64.99C588.552 64.63 588.429 64.3467 588.182 64.14C587.935 63.9267 587.602 63.82 587.182 63.82H585.682V66.13ZM592.434 67.12C592.014 67.12 591.667 67.05 591.394 66.91C591.121 66.77 590.917 66.5867 590.784 66.36C590.651 66.1267 590.584 65.8733 590.584 65.6C590.584 65.12 590.771 64.74 591.144 64.46C591.517 64.18 592.051 64.04 592.744 64.04H594.044V63.95C594.044 63.5633 593.937 63.2733 593.724 63.08C593.517 62.8867 593.247 62.79 592.914 62.79C592.621 62.79 592.364 62.8633 592.144 63.01C591.931 63.15 591.801 63.36 591.754 63.64H590.694C590.727 63.28 590.847 62.9733 591.054 62.72C591.267 62.46 591.534 62.2633 591.854 62.13C592.181 61.99 592.537 61.92 592.924 61.92C593.617 61.92 594.154 62.1033 594.534 62.47C594.914 62.83 595.104 63.3233 595.104 63.95V67H594.184L594.094 66.15C593.954 66.4233 593.751 66.6533 593.484 66.84C593.217 67.0267 592.867 67.12 592.434 67.12ZM592.644 66.26C592.931 66.26 593.171 66.1933 593.364 66.06C593.564 65.92 593.717 65.7367 593.824 65.51C593.937 65.2833 594.007 65.0333 594.034 64.76H592.854C592.434 64.76 592.134 64.8333 591.954 64.98C591.781 65.1267 591.694 65.31 591.694 65.53C591.694 65.7567 591.777 65.9367 591.944 66.07C592.117 66.1967 592.351 66.26 592.644 66.26ZM596.34 67V62.04H597.29L597.38 62.98C597.553 62.6533 597.793 62.3967 598.1 62.21C598.413 62.0167 598.79 61.92 599.23 61.92V63.03H598.94C598.647 63.03 598.383 63.08 598.15 63.18C597.923 63.2733 597.74 63.4367 597.6 63.67C597.467 63.8967 597.4 64.2133 597.4 64.62V67H596.34ZM602.322 67.12C601.835 67.12 601.402 67.0133 601.022 66.8C600.649 66.58 600.355 66.2767 600.142 65.89C599.929 65.5033 599.822 65.0533 599.822 64.54C599.822 64.02 599.925 63.5633 600.132 63.17C600.345 62.7767 600.639 62.47 601.012 62.25C601.392 62.03 601.832 61.92 602.332 61.92C602.819 61.92 603.242 62.03 603.602 62.25C603.962 62.4633 604.242 62.75 604.442 63.11C604.642 63.47 604.742 63.8667 604.742 64.3C604.742 64.3667 604.739 64.44 604.732 64.52C604.732 64.5933 604.729 64.6767 604.722 64.77H600.862C600.895 65.25 601.052 65.6167 601.332 65.87C601.619 66.1167 601.949 66.24 602.322 66.24C602.622 66.24 602.872 66.1733 603.072 66.04C603.279 65.9 603.432 65.7133 603.532 65.48H604.592C604.459 65.9467 604.192 66.3367 603.792 66.65C603.399 66.9633 602.909 67.12 602.322 67.12ZM602.322 62.79C601.969 62.79 601.655 62.8967 601.382 63.11C601.109 63.3167 600.942 63.63 600.882 64.05H603.682C603.662 63.6633 603.525 63.3567 603.272 63.13C603.019 62.9033 602.702 62.79 602.322 62.79ZM608.401 67V60H609.651L612.021 64.66L614.381 60H615.631V67H614.571V61.83L612.431 66H611.611L609.461 61.84V67H608.401ZM619.334 67.12C618.847 67.12 618.414 67.0133 618.034 66.8C617.66 66.58 617.367 66.2767 617.154 65.89C616.94 65.5033 616.834 65.0533 616.834 64.54C616.834 64.02 616.937 63.5633 617.144 63.17C617.357 62.7767 617.65 62.47 618.024 62.25C618.404 62.03 618.844 61.92 619.344 61.92C619.83 61.92 620.254 62.03 620.614 62.25C620.974 62.4633 621.254 62.75 621.454 63.11C621.654 63.47 621.754 63.8667 621.754 64.3C621.754 64.3667 621.75 64.44 621.744 64.52C621.744 64.5933 621.74 64.6767 621.734 64.77H617.874C617.907 65.25 618.064 65.6167 618.344 65.87C618.63 66.1167 618.96 66.24 619.334 66.24C619.634 66.24 619.884 66.1733 620.084 66.04C620.29 65.9 620.444 65.7133 620.544 65.48H621.604C621.47 65.9467 621.204 66.3367 620.804 66.65C620.41 66.9633 619.92 67.12 619.334 67.12ZM619.334 62.79C618.98 62.79 618.667 62.8967 618.394 63.11C618.12 63.3167 617.954 63.63 617.894 64.05H620.694C620.674 63.6633 620.537 63.3567 620.284 63.13C620.03 62.9033 619.714 62.79 619.334 62.79ZM624.807 67C624.32 67 623.933 66.8833 623.647 66.65C623.36 66.41 623.217 65.9867 623.217 65.38V62.93H622.367V62.04H623.217L623.347 60.78H624.277V62.04H625.677V62.93H624.277V65.38C624.277 65.6533 624.333 65.8433 624.447 65.95C624.567 66.05 624.77 66.1 625.057 66.1H625.627V67H624.807ZM628.45 67.12C628.03 67.12 627.683 67.05 627.41 66.91C627.136 66.77 626.933 66.5867 626.8 66.36C626.666 66.1267 626.6 65.8733 626.6 65.6C626.6 65.12 626.786 64.74 627.16 64.46C627.533 64.18 628.066 64.04 628.76 64.04H630.06V63.95C630.06 63.5633 629.953 63.2733 629.74 63.08C629.533 62.8867 629.263 62.79 628.93 62.79C628.636 62.79 628.38 62.8633 628.16 63.01C627.946 63.15 627.816 63.36 627.77 63.64H626.71C626.743 63.28 626.863 62.9733 627.07 62.72C627.283 62.46 627.55 62.2633 627.87 62.13C628.196 61.99 628.553 61.92 628.94 61.92C629.633 61.92 630.17 62.1033 630.55 62.47C630.93 62.83 631.12 63.3233 631.12 63.95V67H630.2L630.11 66.15C629.97 66.4233 629.766 66.6533 629.5 66.84C629.233 67.0267 628.883 67.12 628.45 67.12ZM628.66 66.26C628.946 66.26 629.186 66.1933 629.38 66.06C629.58 65.92 629.733 65.7367 629.84 65.51C629.953 65.2833 630.023 65.0333 630.05 64.76H628.87C628.45 64.76 628.15 64.8333 627.97 64.98C627.796 65.1267 627.71 65.31 627.71 65.53C627.71 65.7567 627.793 65.9367 627.96 66.07C628.133 66.1967 628.366 66.26 628.66 66.26ZM632.356 67V59.8H633.416V67H632.356ZM634.438 68.45V68.35C635.038 67.73 635.521 67.02 635.888 66.22C636.255 65.42 636.438 64.57 636.438 63.67C636.438 62.77 636.255 61.92 635.888 61.12C635.528 60.32 635.048 59.61 634.448 58.99V58.89H635.508C635.875 59.25 636.208 59.6733 636.508 60.16C636.808 60.64 637.045 61.1767 637.218 61.77C637.398 62.3567 637.488 62.99 637.488 63.67C637.488 64.35 637.398 64.9867 637.218 65.58C637.045 66.1667 636.808 66.7 636.508 67.18C636.208 67.6667 635.875 68.09 635.508 68.45H634.438Z" fill="black"/>
<path d="M359.75 38.12C359.09 38.12 358.513 37.97 358.02 37.67C357.527 37.37 357.143 36.95 356.87 36.41C356.597 35.87 356.46 35.24 356.46 34.52C356.46 33.8067 356.6 33.1767 356.88 32.63C357.16 32.0833 357.557 31.6567 358.07 31.35C358.59 31.0367 359.203 30.88 359.91 30.88C360.71 30.88 361.377 31.0733 361.91 31.46C362.443 31.8467 362.79 32.38 362.95 33.06H361.75C361.643 32.6867 361.433 32.3933 361.12 32.18C360.807 31.9667 360.403 31.86 359.91 31.86C359.177 31.86 358.6 32.0967 358.18 32.57C357.76 33.0433 357.55 33.6967 357.55 34.53C357.55 35.3633 357.757 36.0133 358.17 36.48C358.583 36.9467 359.133 37.18 359.82 37.18C360.513 37.18 361.033 36.9833 361.38 36.59C361.733 36.1967 361.94 35.6733 362 35.02H360.1V34.2H363.07V38H362.1L362.01 36.97C361.777 37.3367 361.483 37.62 361.13 37.82C360.777 38.02 360.317 38.12 359.75 38.12ZM364.356 38V31H366.806C367.353 31 367.806 31.0933 368.166 31.28C368.526 31.46 368.793 31.71 368.966 32.03C369.146 32.3433 369.236 32.7 369.236 33.1C369.236 33.48 369.15 33.83 368.976 34.15C368.81 34.4633 368.546 34.7133 368.186 34.9C367.826 35.0867 367.366 35.18 366.806 35.18H365.416V38H364.356ZM365.416 34.31H366.756C367.256 34.31 367.613 34.2033 367.826 33.99C368.046 33.77 368.156 33.4733 368.156 33.1C368.156 32.7133 368.046 32.4133 367.826 32.2C367.613 31.98 367.256 31.87 366.756 31.87H365.416V34.31ZM372.904 38.12C372.404 38.12 371.951 38.0233 371.544 37.83C371.144 37.63 370.824 37.3267 370.584 36.92C370.351 36.5133 370.234 35.9967 370.234 35.37V31H371.294V35.38C371.294 35.9933 371.441 36.4433 371.734 36.73C372.028 37.0167 372.424 37.16 372.924 37.16C373.418 37.16 373.811 37.0167 374.104 36.73C374.398 36.4433 374.544 35.9933 374.544 35.38V31H375.604V35.37C375.604 35.9967 375.481 36.5133 375.234 36.92C374.994 37.3267 374.668 37.63 374.254 37.83C373.848 38.0233 373.398 38.12 372.904 38.12ZM382.603 38.12C381.91 38.12 381.31 37.97 380.803 37.67C380.303 37.3633 379.917 36.94 379.643 36.4C379.37 35.8533 379.233 35.2233 379.233 34.51C379.233 33.79 379.37 33.16 379.643 32.62C379.917 32.0733 380.303 31.6467 380.803 31.34C381.31 31.0333 381.91 30.88 382.603 30.88C383.423 30.88 384.093 31.08 384.613 31.48C385.133 31.88 385.463 32.44 385.603 33.16H384.423C384.33 32.7533 384.13 32.43 383.823 32.19C383.517 31.95 383.107 31.83 382.593 31.83C381.893 31.83 381.34 32.07 380.933 32.55C380.527 33.0233 380.323 33.6767 380.323 34.51C380.323 35.3367 380.527 35.9867 380.933 36.46C381.34 36.9333 381.893 37.17 382.593 37.17C383.107 37.17 383.517 37.0567 383.823 36.83C384.13 36.6033 384.33 36.2933 384.423 35.9H385.603C385.463 36.5933 385.133 37.1367 384.613 37.53C384.093 37.9233 383.423 38.12 382.603 38.12ZM386.729 38V30.8H387.789V38H386.729ZM391.451 38.12C390.978 38.12 390.551 38.0133 390.171 37.8C389.798 37.58 389.501 37.2767 389.281 36.89C389.061 36.4967 388.951 36.04 388.951 35.52C388.951 35 389.061 34.5467 389.281 34.16C389.508 33.7667 389.811 33.4633 390.191 33.25C390.571 33.03 390.994 32.92 391.461 32.92C391.934 32.92 392.358 33.03 392.731 33.25C393.111 33.4633 393.411 33.7667 393.631 34.16C393.858 34.5467 393.971 35 393.971 35.52C393.971 36.04 393.858 36.4967 393.631 36.89C393.411 37.2767 393.111 37.58 392.731 37.8C392.351 38.0133 391.924 38.12 391.451 38.12ZM391.451 37.21C391.704 37.21 391.938 37.1467 392.151 37.02C392.371 36.8933 392.548 36.7067 392.681 36.46C392.814 36.2067 392.881 35.8933 392.881 35.52C392.881 35.1467 392.814 34.8367 392.681 34.59C392.554 34.3367 392.381 34.1467 392.161 34.02C391.948 33.8933 391.714 33.83 391.461 33.83C391.208 33.83 390.971 33.8933 390.751 34.02C390.538 34.1467 390.364 34.3367 390.231 34.59C390.098 34.8367 390.031 35.1467 390.031 35.52C390.031 35.8933 390.098 36.2067 390.231 36.46C390.364 36.7067 390.538 36.8933 390.751 37.02C390.964 37.1467 391.198 37.21 391.451 37.21ZM396.947 38.12C396.347 38.12 395.874 37.9333 395.527 37.56C395.187 37.1867 395.017 36.63 395.017 35.89V33.04H396.077V35.78C396.077 36.74 396.471 37.22 397.257 37.22C397.651 37.22 397.974 37.08 398.227 36.8C398.481 36.52 398.607 36.12 398.607 35.6V33.04H399.667V38H398.727L398.647 37.13C398.494 37.4367 398.267 37.68 397.967 37.86C397.674 38.0333 397.334 38.12 396.947 38.12ZM403.276 38.12C402.796 38.12 402.372 38.0067 402.006 37.78C401.639 37.5533 401.352 37.2433 401.146 36.85C400.939 36.4567 400.836 36.01 400.836 35.51C400.836 35.01 400.939 34.5667 401.146 34.18C401.352 33.7867 401.639 33.48 402.006 33.26C402.379 33.0333 402.806 32.92 403.286 32.92C403.679 32.92 404.022 32.9967 404.316 33.15C404.616 33.3033 404.849 33.52 405.016 33.8V30.8H406.076V38H405.126L405.016 37.23C404.856 37.4633 404.636 37.67 404.356 37.85C404.076 38.03 403.716 38.12 403.276 38.12ZM403.466 37.2C403.919 37.2 404.289 37.0433 404.576 36.73C404.869 36.4167 405.016 36.0133 405.016 35.52C405.016 35.02 404.869 34.6167 404.576 34.31C404.289 33.9967 403.919 33.84 403.466 33.84C403.012 33.84 402.639 33.9967 402.346 34.31C402.052 34.6167 401.906 35.02 401.906 35.52C401.906 35.8467 401.972 36.1367 402.106 36.39C402.239 36.6433 402.422 36.8433 402.656 36.99C402.896 37.13 403.166 37.2 403.466 37.2Z" fill="black"/>
<path d="M274.94 203.12C274.247 203.12 273.64 202.967 273.12 202.66C272.6 202.353 272.193 201.93 271.9 201.39C271.607 200.843 271.46 200.213 271.46 199.5C271.46 198.787 271.607 198.16 271.9 197.62C272.193 197.073 272.6 196.647 273.12 196.34C273.64 196.033 274.247 195.88 274.94 195.88C275.633 195.88 276.24 196.033 276.76 196.34C277.28 196.647 277.683 197.073 277.97 197.62C278.263 198.16 278.41 198.787 278.41 199.5C278.41 200.187 278.273 200.797 278 201.33C277.733 201.863 277.36 202.283 276.88 202.59L278.57 204.31H277.23L275.98 202.99C275.653 203.077 275.307 203.12 274.94 203.12ZM274.94 202.17C275.42 202.17 275.837 202.063 276.19 201.85C276.55 201.637 276.83 201.33 277.03 200.93C277.23 200.53 277.33 200.053 277.33 199.5C277.33 198.947 277.23 198.47 277.03 198.07C276.83 197.67 276.55 197.363 276.19 197.15C275.837 196.937 275.42 196.83 274.94 196.83C274.46 196.83 274.04 196.937 273.68 197.15C273.32 197.363 273.04 197.67 272.84 198.07C272.647 198.47 272.55 198.947 272.55 199.5C272.55 200.053 272.647 200.53 272.84 200.93C273.04 201.33 273.32 201.637 273.68 201.85C274.04 202.063 274.46 202.17 274.94 202.17ZM281.459 203.12C280.859 203.12 280.386 202.933 280.039 202.56C279.699 202.187 279.529 201.63 279.529 200.89V198.04H280.589V200.78C280.589 201.74 280.982 202.22 281.769 202.22C282.162 202.22 282.486 202.08 282.739 201.8C282.992 201.52 283.119 201.12 283.119 200.6V198.04H284.179V203H283.239L283.159 202.13C283.006 202.437 282.779 202.68 282.479 202.86C282.186 203.033 281.846 203.12 281.459 203.12ZM287.207 203.12C286.787 203.12 286.441 203.05 286.167 202.91C285.894 202.77 285.691 202.587 285.557 202.36C285.424 202.127 285.357 201.873 285.357 201.6C285.357 201.12 285.544 200.74 285.917 200.46C286.291 200.18 286.824 200.04 287.517 200.04H288.817V199.95C288.817 199.563 288.711 199.273 288.497 199.08C288.291 198.887 288.021 198.79 287.687 198.79C287.394 198.79 287.137 198.863 286.917 199.01C286.704 199.15 286.574 199.36 286.527 199.64H285.467C285.501 199.28 285.621 198.973 285.827 198.72C286.041 198.46 286.307 198.263 286.627 198.13C286.954 197.99 287.311 197.92 287.697 197.92C288.391 197.92 288.927 198.103 289.307 198.47C289.687 198.83 289.877 199.323 289.877 199.95V203H288.957L288.867 202.15C288.727 202.423 288.524 202.653 288.257 202.84C287.991 203.027 287.641 203.12 287.207 203.12ZM287.417 202.26C287.704 202.26 287.944 202.193 288.137 202.06C288.337 201.92 288.491 201.737 288.597 201.51C288.711 201.283 288.781 201.033 288.807 200.76H287.627C287.207 200.76 286.907 200.833 286.727 200.98C286.554 201.127 286.467 201.31 286.467 201.53C286.467 201.757 286.551 201.937 286.717 202.07C286.891 202.197 287.124 202.26 287.417 202.26ZM291.113 203V198.04H292.053L292.133 198.91C292.287 198.603 292.51 198.363 292.803 198.19C293.103 198.01 293.447 197.92 293.833 197.92C294.433 197.92 294.903 198.107 295.243 198.48C295.59 198.853 295.763 199.41 295.763 200.15V203H294.713V200.26C294.713 199.3 294.32 198.82 293.533 198.82C293.14 198.82 292.813 198.96 292.553 199.24C292.3 199.52 292.173 199.92 292.173 200.44V203H291.113ZM299.092 203C298.605 203 298.218 202.883 297.932 202.65C297.645 202.41 297.502 201.987 297.502 201.38V198.93H296.652V198.04H297.502L297.632 196.78H298.562V198.04H299.962V198.93H298.562V201.38C298.562 201.653 298.618 201.843 298.732 201.95C298.852 202.05 299.055 202.1 299.342 202.1H299.912V203H299.092ZM302.885 203.12C302.285 203.12 301.811 202.933 301.465 202.56C301.125 202.187 300.955 201.63 300.955 200.89V198.04H302.015V200.78C302.015 201.74 302.408 202.22 303.195 202.22C303.588 202.22 303.911 202.08 304.165 201.8C304.418 201.52 304.545 201.12 304.545 200.6V198.04H305.605V203H304.665L304.585 202.13C304.431 202.437 304.205 202.68 303.905 202.86C303.611 203.033 303.271 203.12 302.885 203.12ZM306.953 203V198.04H307.893L307.983 198.74C308.143 198.487 308.353 198.287 308.613 198.14C308.88 197.993 309.187 197.92 309.533 197.92C310.32 197.92 310.867 198.23 311.173 198.85C311.353 198.563 311.593 198.337 311.893 198.17C312.2 198.003 312.53 197.92 312.883 197.92C313.503 197.92 313.99 198.107 314.343 198.48C314.697 198.853 314.873 199.41 314.873 200.15V203H313.813V200.26C313.813 199.3 313.447 198.82 312.713 198.82C312.34 198.82 312.033 198.96 311.793 199.24C311.56 199.52 311.443 199.92 311.443 200.44V203H310.383V200.26C310.383 199.3 310.013 198.82 309.273 198.82C308.907 198.82 308.603 198.96 308.363 199.24C308.13 199.52 308.013 199.92 308.013 200.44V203H306.953ZM274.83 216.12C274.137 216.12 273.537 215.97 273.03 215.67C272.53 215.363 272.143 214.94 271.87 214.4C271.597 213.853 271.46 213.223 271.46 212.51C271.46 211.79 271.597 211.16 271.87 210.62C272.143 210.073 272.53 209.647 273.03 209.34C273.537 209.033 274.137 208.88 274.83 208.88C275.65 208.88 276.32 209.08 276.84 209.48C277.36 209.88 277.69 210.44 277.83 211.16H276.65C276.557 210.753 276.357 210.43 276.05 210.19C275.743 209.95 275.333 209.83 274.82 209.83C274.12 209.83 273.567 210.07 273.16 210.55C272.753 211.023 272.55 211.677 272.55 212.51C272.55 213.337 272.753 213.987 273.16 214.46C273.567 214.933 274.12 215.17 274.82 215.17C275.333 215.17 275.743 215.057 276.05 214.83C276.357 214.603 276.557 214.293 276.65 213.9H277.83C277.69 214.593 277.36 215.137 276.84 215.53C276.32 215.923 275.65 216.12 274.83 216.12ZM278.955 216V208.8H280.015V216H278.955ZM283.678 216.12C283.204 216.12 282.778 216.013 282.398 215.8C282.024 215.58 281.728 215.277 281.508 214.89C281.288 214.497 281.178 214.04 281.178 213.52C281.178 213 281.288 212.547 281.508 212.16C281.734 211.767 282.038 211.463 282.418 211.25C282.798 211.03 283.221 210.92 283.688 210.92C284.161 210.92 284.584 211.03 284.958 211.25C285.338 211.463 285.638 211.767 285.858 212.16C286.084 212.547 286.197 213 286.197 213.52C286.197 214.04 286.084 214.497 285.858 214.89C285.638 215.277 285.338 215.58 284.958 215.8C284.578 216.013 284.151 216.12 283.678 216.12ZM283.678 215.21C283.931 215.21 284.164 215.147 284.378 215.02C284.598 214.893 284.774 214.707 284.908 214.46C285.041 214.207 285.108 213.893 285.108 213.52C285.108 213.147 285.041 212.837 284.908 212.59C284.781 212.337 284.608 212.147 284.388 212.02C284.174 211.893 283.941 211.83 283.688 211.83C283.434 211.83 283.198 211.893 282.978 212.02C282.764 212.147 282.591 212.337 282.458 212.59C282.324 212.837 282.258 213.147 282.258 213.52C282.258 213.893 282.324 214.207 282.458 214.46C282.591 214.707 282.764 214.893 282.978 215.02C283.191 215.147 283.424 215.21 283.678 215.21ZM289.174 216.12C288.574 216.12 288.1 215.933 287.754 215.56C287.414 215.187 287.244 214.63 287.244 213.89V211.04H288.304V213.78C288.304 214.74 288.697 215.22 289.484 215.22C289.877 215.22 290.2 215.08 290.454 214.8C290.707 214.52 290.834 214.12 290.834 213.6V211.04H291.894V216H290.954L290.874 215.13C290.72 215.437 290.494 215.68 290.194 215.86C289.9 216.033 289.56 216.12 289.174 216.12ZM295.502 216.12C295.022 216.12 294.599 216.007 294.232 215.78C293.866 215.553 293.579 215.243 293.372 214.85C293.166 214.457 293.062 214.01 293.062 213.51C293.062 213.01 293.166 212.567 293.372 212.18C293.579 211.787 293.866 211.48 294.232 211.26C294.606 211.033 295.032 210.92 295.512 210.92C295.906 210.92 296.249 210.997 296.542 211.15C296.842 211.303 297.076 211.52 297.242 211.8V208.8H298.302V216H297.352L297.242 215.23C297.082 215.463 296.862 215.67 296.582 215.85C296.302 216.03 295.942 216.12 295.502 216.12ZM295.692 215.2C296.146 215.2 296.516 215.043 296.802 214.73C297.096 214.417 297.242 214.013 297.242 213.52C297.242 213.02 297.096 212.617 296.802 212.31C296.516 211.997 296.146 211.84 295.692 211.84C295.239 211.84 294.866 211.997 294.572 212.31C294.279 212.617 294.132 213.02 294.132 213.52C294.132 213.847 294.199 214.137 294.332 214.39C294.466 214.643 294.649 214.843 294.882 214.99C295.122 215.13 295.392 215.2 295.692 215.2Z" fill="black"/>
<defs>
<clipPath id="clip0_901_57">
<rect width="23.4077" height="23.4077" fill="white" transform="matrix(0.83205 0.5547 -0.830139 0.557556 545.222 44.6405)"/>
</clipPath>
<clipPath id="clip1_901_57">
<rect width="23.4077" height="23.4077" fill="white" transform="matrix(0.83205 0.5547 -0.830139 0.557556 128.222 71.6405)"/>
</clipPath>
<clipPath id="clip2_901_57">
<rect width="23.4077" height="23.4077" fill="white" transform="matrix(0.83205 0.5547 -0.830139 0.557556 234.222 179.641)"/>
</clipPath>
<clipPath id="clip3_901_57">
<rect width="23.4077" height="23.4077" fill="white" transform="matrix(0.83205 0.5547 -0.830139 0.557556 533.222 179.641)"/>
</clipPath>
</defs>
</svg>

