<svg width="722" height="262" viewBox="0 0 722 262" fill="none" xmlns="http://www.w3.org/2000/svg">
<path d="M249.709 113.538C250.725 113.538 251.719 113.836 252.564 114.394C253.409 114.952 254.068 115.745 254.457 116.673C254.846 117.6 254.948 118.621 254.749 119.606C254.551 120.591 254.061 121.495 253.343 122.205C252.624 122.915 251.708 123.399 250.711 123.595C249.714 123.791 248.681 123.69 247.742 123.306C246.803 122.922 246 122.271 245.436 121.436C244.871 120.601 244.57 119.62 244.57 118.615C244.571 117.269 245.113 115.979 246.077 115.027C247.04 114.075 248.346 113.54 249.709 113.538ZM249.709 111C248.184 111 246.694 111.447 245.426 112.283C244.158 113.12 243.17 114.31 242.587 115.701C242.003 117.093 241.851 118.624 242.148 120.101C242.446 121.578 243.18 122.935 244.258 124C245.336 125.065 246.71 125.791 248.205 126.084C249.7 126.378 251.25 126.227 252.659 125.651C254.067 125.075 255.271 124.099 256.118 122.846C256.965 121.594 257.418 120.122 257.418 118.615C257.418 117.615 257.218 116.625 256.831 115.701C256.443 114.777 255.876 113.938 255.16 113.23C254.444 112.523 253.594 111.962 252.659 111.58C251.724 111.197 250.721 111 249.709 111V111Z" fill="#5552FF"/>
<path d="M267.696 131.308C268.713 131.308 269.706 131.605 270.551 132.163C271.396 132.721 272.055 133.514 272.444 134.442C272.833 135.369 272.935 136.39 272.737 137.375C272.538 138.36 272.049 139.264 271.33 139.974C270.611 140.685 269.696 141.168 268.699 141.364C267.702 141.56 266.669 141.459 265.729 141.075C264.79 140.691 263.988 140.04 263.423 139.205C262.858 138.37 262.557 137.389 262.557 136.385C262.558 135.039 263.1 133.748 264.064 132.796C265.027 131.845 266.334 131.309 267.696 131.308ZM267.696 128.769C266.171 128.769 264.681 129.216 263.413 130.053C262.146 130.889 261.158 132.079 260.574 133.47C259.991 134.862 259.838 136.393 260.135 137.87C260.433 139.347 261.167 140.704 262.245 141.769C263.323 142.834 264.697 143.56 266.192 143.854C267.688 144.147 269.238 143.997 270.646 143.42C272.055 142.844 273.259 141.868 274.106 140.615C274.953 139.363 275.405 137.891 275.405 136.385C275.405 134.365 274.593 132.428 273.147 131C271.701 129.572 269.741 128.769 267.696 128.769V128.769Z" fill="#5552FF"/>
<path d="M259.987 111L275.405 126.231H259.987V111Z" fill="#5552FF"/>
<path d="M257.418 128.769H242V144H257.418V128.769Z" fill="#5552FF"/>
<path d="M479.164 134.953C479.81 134.953 480.442 135.142 480.979 135.497C481.516 135.851 481.935 136.355 482.182 136.945C482.429 137.535 482.494 138.183 482.368 138.809C482.242 139.435 481.931 140.01 481.474 140.462C481.017 140.913 480.435 141.22 479.801 141.345C479.168 141.469 478.511 141.405 477.914 141.161C477.317 140.917 476.807 140.503 476.448 139.973C476.089 139.442 475.897 138.818 475.897 138.18C475.898 137.324 476.243 136.504 476.855 135.899C477.468 135.294 478.298 134.954 479.164 134.953ZM479.164 132.414C478.01 132.414 476.881 132.753 475.922 133.386C474.962 134.02 474.214 134.92 473.772 135.974C473.33 137.027 473.215 138.186 473.44 139.305C473.665 140.423 474.221 141.45 475.037 142.257C475.853 143.063 476.893 143.612 478.026 143.835C479.158 144.057 480.331 143.943 481.397 143.506C482.464 143.07 483.375 142.331 484.017 141.383C484.658 140.435 485 139.32 485 138.18C485 136.651 484.385 135.184 483.291 134.103C482.196 133.022 480.712 132.414 479.164 132.414Z" fill="#5552FF"/>
<path d="M284.763 127.486C284.763 118.248 291.482 111.117 301.288 111.117C308.915 111.117 314.271 115.243 315.952 120.804L309.732 123.181C308.37 119.369 305.737 116.768 301.197 116.768C295.477 116.768 291.981 120.67 291.981 127.486C291.981 134.303 295.386 138.25 301.197 138.25C305.737 138.25 308.551 135.559 309.913 131.792L315.996 134.214C313.681 140.268 308.869 143.945 301.197 143.945C291.255 143.945 284.763 137.039 284.763 127.486Z" fill="#F9F9F9"/>
<path d="M318.461 132.016C318.461 124.84 323.455 120.132 330.4 120.132C337.346 120.132 342.34 124.84 342.34 132.016C342.34 139.326 337.346 143.945 330.4 143.945C323.455 143.945 318.461 138.923 318.461 132.016ZM335.621 132.106C335.621 127.486 333.488 125.154 330.4 125.154C327.313 125.154 325.18 127.486 325.18 132.106C325.18 136.725 327.313 138.878 330.4 138.878C333.488 138.878 335.621 136.725 335.621 132.106V132.106Z" fill="#F9F9F9"/>
<path d="M350.467 143.228L341.751 120.804H348.515L351.647 129.998C352.873 133.63 353.055 135.379 353.146 139.371H355.552C355.643 135.379 355.733 133.406 356.868 129.998L359.865 120.804H366.447L358.184 143.228H350.467Z" fill="#F9F9F9"/>
<path d="M367.19 137.487C367.19 131.209 373.908 129.37 381.444 128.652V127.8C381.444 125.872 380.309 124.706 377.721 124.706C374.77 124.706 373.273 126.141 372.727 128.249L366.917 126.993C367.28 123.495 371.048 120.132 377.676 120.132C384.032 120.132 387.8 122.912 387.8 128.832V137.039C387.8 138.16 387.936 138.385 389.161 138.385H391.159V143.228H388.481C384.485 143.228 383.623 141.883 383.532 138.564H381.399C380.491 141.479 378.357 143.945 374.453 143.945C370.276 143.945 367.19 141.434 367.19 137.487ZM381.444 134.034V132.599C377.267 133.092 373.726 133.9 373.726 136.86C373.726 138.339 374.725 139.281 376.677 139.281C379.174 139.281 381.444 137.667 381.444 134.034Z" fill="#F9F9F9"/>
<path d="M394.038 143.228V111.109H400.485V143.228H394.038Z" fill="#F9F9F9"/>
<path d="M403.305 131.971C403.305 124.93 408.207 120.132 414.79 120.132C422.416 120.132 426.412 126.051 425.776 133.541H409.751C409.932 137.487 412.066 139.102 414.835 139.102C417.74 139.102 419.148 137.308 420.101 135.2L425.866 137.398C424.596 140.268 421.736 143.945 414.835 143.945C407.844 143.945 403.305 139.326 403.305 131.971ZM419.42 129.056C419.148 126.276 417.514 124.706 414.79 124.706C412.203 124.706 410.432 126.231 409.978 129.056H419.42Z" fill="#F9F9F9"/>
<path d="M428.567 143.228V120.804H434.378C434.333 122.284 433.379 124.213 432.153 125.962H434.968C436.012 122.778 438.282 120.132 441.914 120.132C446.907 120.132 449.631 123.405 449.631 128.383V143.228H443.185V129.594C443.185 126.634 441.777 125.379 439.553 125.379C435.059 125.379 435.013 130.222 435.013 132.599V143.228L428.567 143.228Z" fill="#F9F9F9"/>
<path d="M462.948 143.228C459.271 143.228 457.183 140.851 457.183 137.353V125.648H452.416V120.804H457.183V113.763H463.629V120.804H469.53V125.648H463.629V136.187C463.629 137.532 464.219 138.16 465.626 138.16H470.53V143.228H462.948Z" fill="#F9F9F9"/>
<rect x="520.009" y="57.9215" width="49.5" height="9.13067" fill="#FBFBFB"/>
<rect width="35.6926" height="35.6926" rx="10" transform="matrix(0.83205 0.5547 -0.830139 0.557556 544.633 47.1306)" fill="#FBFBFB"/>
<rect width="35.6926" height="35.6926" rx="10" transform="matrix(0.83205 0.5547 -0.830139 0.557556 544.63 38)" fill="#96C8DE"/>
<g clip-path="url(#clip0_85_175)">
<path d="M552.873 65.53L550.095 63.6778L552.871 61.8133L551.482 60.8872L545.236 65.0822L534.122 57.6732L545.226 50.2154L551.477 54.383L552.865 53.4508L550.087 51.5985L552.863 49.7341L551.474 48.8079L548.698 50.6724L546.614 49.2832C545.85 48.7738 544.6 48.7766 543.837 49.2893L541.755 50.6876L538.977 48.8354L537.589 49.7676L540.367 51.6199L536.203 54.4165L533.425 52.5643L532.037 53.4965L534.815 55.3487L532.733 56.7471C531.97 57.2598 531.97 58.0961 532.734 58.6054L534.818 59.9946L532.042 61.8591L533.431 62.7852L536.207 60.9207L540.375 63.6991L537.599 65.5635L538.988 66.4897L541.764 64.6252L543.848 66.0144C544.612 66.5238 545.862 66.521 546.625 66.0083L548.707 64.61L551.485 66.4622L552.873 65.53Z" fill="white"/>
<path d="M533.453 52.5828L536.231 54.4351L539.007 52.5706L540.396 53.4968L534.15 57.6918L545.264 65.1007L556.367 57.643L550.116 53.4754L551.504 52.5432L554.282 54.3954L557.058 52.531L558.448 53.4571L555.672 55.3216L557.755 56.7107C558.52 57.2201 558.52 58.0564 557.757 58.5691L555.675 59.9674L558.453 61.8197L557.065 62.7519L554.287 60.8996L550.123 63.6963L552.901 65.5486L551.513 66.4808L548.735 64.6285L546.653 66.0269C545.889 66.5396 544.64 66.5423 543.876 66.033L541.792 64.6438L539.016 66.5082L537.627 65.5821L540.403 63.7177L536.235 60.9393L533.459 62.8037L532.07 61.8776L534.846 60.0132L532.762 58.624C531.998 58.1146 531.998 57.2784 532.761 56.7656L534.843 55.3673L532.065 53.515L533.453 52.5828Z" fill="white"/>
<path d="M545.234 62.2947L538.288 57.664L545.228 53.0029L552.174 57.6336L545.234 62.2947ZM541.065 57.6579L545.233 60.4363L549.397 57.6396L545.229 54.8613L541.065 57.6579Z" fill="white"/>
</g>
<path d="M495 101.347L524.688 81" stroke="#AEB6FF" stroke-dasharray="5 5"/>
<path d="M475 157L507.5 181.5" stroke="#AEB6FF" stroke-dasharray="5 5"/>
<path d="M141.5 108.492L173.932 134.762L217.9 101.842L229.329 111.891" stroke="#AEB6FF" stroke-dasharray="5 5"/>
<path d="M334.911 54.4862L368.191 75.1006L355.279 84.7764L376.155 95.942" stroke="#AEB6FF" stroke-dasharray="5 5"/>
<path d="M263 183.347L292.688 163" stroke="#AEB6FF" stroke-dasharray="5 5"/>
<rect x="293.009" y="32.9214" width="49.5" height="9.13067" fill="#FBFBFB"/>
<rect width="35.6926" height="35.6926" rx="10" transform="matrix(0.83205 0.5547 -0.830139 0.557556 317.633 22.1306)" fill="#FBFBFB"/>
<rect width="35.6926" height="35.6926" rx="10" transform="matrix(0.83205 0.5547 -0.830139 0.557556 317.63 13)" fill="#7CA7E9"/>
<path d="M300.977 33.4821C300.378 33.1362 300.377 32.2716 300.976 31.9242L317.739 22.1948C318.018 22.0331 318.362 22.0327 318.641 22.1938L335.504 31.9279C336.104 32.2738 336.105 33.1384 335.506 33.4858L318.742 43.2152C318.464 43.3769 318.12 43.3773 317.841 43.2162L300.977 33.4821ZM337.036 33.6588C337.768 33.2345 337.767 32.1771 337.034 31.7543L318.741 21.2023C318.4 21.0057 317.98 21.0061 317.639 21.2035L299.446 31.7512C298.714 32.1755 298.715 33.2329 299.448 33.6557L317.741 44.2077C318.082 44.4043 318.502 44.4039 318.843 44.2065L337.036 33.6588Z" fill="white" stroke="#FCFCFC" stroke-width="0.2"/>
<path d="M316.042 29.6536C315.548 29.3569 315.325 29.0013 315.325 28.6669C315.325 28.3322 315.549 27.9762 316.043 27.6793C316.535 27.3842 317.194 27.2335 317.858 27.2335C318.522 27.2335 319.18 27.3842 319.672 27.6793C320.167 27.9762 320.39 28.3322 320.39 28.6669C320.39 29.0011 320.167 29.3565 319.674 29.6531C319.155 29.9243 318.496 30.062 317.838 30.062C317.181 30.062 316.534 29.9241 316.042 29.6536ZM320.437 27.0978C319.703 26.6783 318.752 26.4713 317.807 26.4713C316.861 26.4713 315.91 26.6783 315.176 27.0978C314.442 27.5171 314.052 28.0815 314.052 28.6669C314.052 29.2524 314.442 29.8168 315.176 30.2361C315.91 30.6556 316.861 30.8626 317.807 30.8626C318.752 30.8626 319.703 30.6556 320.437 30.2361C321.171 29.8168 321.561 29.2524 321.561 28.6669C321.561 28.0815 321.171 27.5171 320.437 27.0978Z" fill="white" stroke="#FCFCFC" stroke-width="0.2"/>
<path d="M316.502 38.0874C316.008 37.7908 315.785 37.4351 315.785 37.1008C315.785 36.7661 316.009 36.41 316.503 36.1131C316.995 35.818 317.654 35.6674 318.318 35.6674C318.982 35.6674 319.64 35.818 320.132 36.1131C320.627 36.41 320.85 36.7661 320.85 37.1008C320.85 37.4351 320.627 37.7908 320.133 38.0874C319.641 38.3578 318.982 38.4959 318.318 38.4959C317.653 38.4959 316.994 38.3578 316.502 38.0874ZM320.897 35.5317C320.163 35.1121 319.212 34.9051 318.267 34.9051C317.321 34.9051 316.37 35.1121 315.636 35.5317C314.902 35.9509 314.512 36.5153 314.512 37.1008C314.512 37.6862 314.902 38.2507 315.636 38.6699C316.37 39.0894 317.321 39.2964 318.267 39.2964C319.212 39.2964 320.163 39.0894 320.897 38.6699C321.631 38.2507 322.021 37.6862 322.021 37.1008C322.021 36.5153 321.631 35.9509 320.897 35.5317Z" fill="white" stroke="#FCFCFC" stroke-width="0.2"/>
<path d="M323.184 33.8421C322.776 33.6098 322.614 33.1018 322.815 32.6763L323.011 32.2587C323.139 31.9873 323.393 31.7974 323.69 31.7522L325.83 31.4257C326.033 31.3948 326.24 31.4342 326.418 31.5374L327.538 32.1883C327.934 32.4187 328.094 32.9102 327.909 33.3297L327.725 33.7469C327.6 34.0284 327.341 34.2269 327.037 34.2733L324.907 34.5982C324.707 34.6287 324.502 34.591 324.327 34.491L323.184 33.8421ZM329.218 33.226C329.472 32.7083 329.282 32.0828 328.784 31.7923L326.829 30.6515C326.609 30.5236 326.353 30.4755 326.102 30.5152L322.787 31.0407C322.427 31.0979 322.118 31.3302 321.963 31.6608L321.451 32.7551C321.21 33.2705 321.401 33.8849 321.893 34.1716L323.862 35.32C324.082 35.4482 324.339 35.4963 324.59 35.4559L327.865 34.9303C328.218 34.8736 328.522 34.6489 328.679 34.3277L329.218 33.226Z" fill="white" stroke="#FCFCFC" stroke-width="0.2"/>
<path d="M308.655 33.5363C308.053 33.1902 308.053 32.3222 308.655 31.9761L310.381 30.983C310.659 30.8231 311 30.8231 311.278 30.983L313.004 31.9761C313.606 32.3222 313.606 33.1902 313.004 33.5363L311.278 34.5293C311 34.6892 310.659 34.6892 310.381 34.5293L308.655 33.5363ZM314.569 33.7121C315.294 33.2844 315.289 32.234 314.56 31.8125L311.334 29.9464C310.99 29.7476 310.566 29.7495 310.224 29.9512L307.09 31.8002C306.365 32.228 306.37 33.2783 307.099 33.6998L310.325 35.5659C310.669 35.7647 311.093 35.7629 311.435 35.5611L314.569 33.7121Z" fill="white" stroke="#FCFCFC" stroke-width="0.2"/>
<rect x="103.009" y="84.9215" width="49.5" height="9.13067" fill="#FBFBFB"/>
<rect width="35.6926" height="35.6926" rx="10" transform="matrix(0.83205 0.5547 -0.830139 0.557556 127.633 74.1306)" fill="#FBFBFB"/>
<rect width="35.6926" height="35.6926" rx="10" transform="matrix(0.83205 0.5547 -0.830139 0.557556 127.63 65)" fill="#8965EE"/>
<g clip-path="url(#clip1_85_175)">
<path d="M134.178 86.888C134.536 86.5338 134.809 86.1544 134.997 85.7626C135.627 84.4732 135.351 83.0338 134.169 81.8739C133.938 81.6501 133.673 81.4359 133.395 81.2437L133.361 81.2217C132.936 80.9382 132.459 80.6959 131.949 80.5073C129.81 79.6932 127.069 79.7074 124.89 80.6963C122.907 79.7777 120.218 79.9402 118.507 81.083C118.092 81.3616 117.762 81.6779 117.532 82.0225C117.306 82.326 117.16 82.6578 117.094 82.9926C116.879 83.997 117.353 85.0509 118.505 85.8256L126.541 91.1828C126.607 91.2269 126.673 91.271 126.744 91.3056C128.464 92.332 131.021 92.4412 132.931 91.5507C133.181 91.4334 133.412 91.3036 133.619 91.1643C135.297 90.0373 135.587 88.237 134.178 86.888ZM132.165 90.8195C130.788 91.4597 128.948 91.3934 127.687 90.6724C127.621 90.6347 127.55 90.5937 127.484 90.5496L119.448 85.1925C118.891 84.8209 118.55 84.3605 118.427 83.8807C118.327 83.4862 118.369 83.0851 118.557 82.7059C118.726 82.3393 119.023 82.001 119.447 81.7161C120.705 80.8772 122.673 80.7569 124.137 81.4301L124.888 81.7793L125.647 81.4339C127.608 80.5401 130.213 80.6303 132.022 81.6155C132.159 81.6879 132.291 81.7698 132.419 81.8548C132.66 82.0154 132.872 82.1887 133.066 82.381C133.09 82.4031 133.109 82.422 133.128 82.4472C134.3 83.6514 134.284 85.1923 133.078 86.3879L132.969 86.4923L132.969 86.4986L132.564 86.8971L132.692 87.0201L132.872 87.1903L133.089 87.3983C133.642 87.9373 133.86 88.5873 133.687 89.2349C133.513 89.8825 132.976 90.4455 132.165 90.8195Z" fill="white"/>
</g>
<path d="M31.81 88.12C31.1233 88.12 30.53 87.97 30.03 87.67C29.5367 87.3633 29.1533 86.94 28.88 86.4C28.6067 85.8533 28.47 85.22 28.47 84.5C28.47 83.7867 28.6067 83.16 28.88 82.62C29.1533 82.0733 29.5367 81.6467 30.03 81.34C30.53 81.0333 31.1233 80.88 31.81 80.88C32.61 80.88 33.26 81.0733 33.76 81.46C34.2667 81.84 34.59 82.3733 34.73 83.06H33.8C33.6933 82.6267 33.4733 82.28 33.14 82.02C32.8133 81.7533 32.37 81.62 31.81 81.62C31.31 81.62 30.8733 81.7367 30.5 81.97C30.1267 82.1967 29.8367 82.5267 29.63 82.96C29.43 83.3867 29.33 83.9 29.33 84.5C29.33 85.1 29.43 85.6167 29.63 86.05C29.8367 86.4767 30.1267 86.8067 30.5 87.04C30.8733 87.2667 31.31 87.38 31.81 87.38C32.37 87.38 32.8133 87.2533 33.14 87C33.4733 86.74 33.6933 86.3967 33.8 85.97H34.73C34.59 86.6433 34.2667 87.17 33.76 87.55C33.26 87.93 32.61 88.12 31.81 88.12ZM35.8873 88V80.8H36.7273V88H35.8873ZM39.7541 88.12C39.3407 88.12 38.9974 88.05 38.7241 87.91C38.4507 87.77 38.2474 87.5833 38.1141 87.35C37.9807 87.1167 37.9141 86.8633 37.9141 86.59C37.9141 86.0833 38.1074 85.6933 38.4941 85.42C38.8807 85.1467 39.4074 85.01 40.0741 85.01H41.4141V84.95C41.4141 84.5167 41.3007 84.19 41.0741 83.97C40.8474 83.7433 40.5441 83.63 40.1641 83.63C39.8374 83.63 39.5541 83.7133 39.3141 83.88C39.0807 84.04 38.9341 84.2767 38.8741 84.59H38.0141C38.0474 84.23 38.1674 83.9267 38.3741 83.68C38.5874 83.4333 38.8507 83.2467 39.1641 83.12C39.4774 82.9867 39.8107 82.92 40.1641 82.92C40.8574 82.92 41.3774 83.1067 41.7241 83.48C42.0774 83.8467 42.2541 84.3367 42.2541 84.95V88H41.5041L41.4541 87.11C41.3141 87.39 41.1074 87.63 40.8341 87.83C40.5674 88.0233 40.2074 88.12 39.7541 88.12ZM39.8841 87.41C40.2041 87.41 40.4774 87.3267 40.7041 87.16C40.9374 86.9933 41.1141 86.7767 41.2341 86.51C41.3541 86.2433 41.4141 85.9633 41.4141 85.67V85.66H40.1441C39.6507 85.66 39.3007 85.7467 39.0941 85.92C38.8941 86.0867 38.7941 86.2967 38.7941 86.55C38.7941 86.81 38.8874 87.02 39.0741 87.18C39.2674 87.3333 39.5374 87.41 39.8841 87.41ZM45.4142 88.12C44.8209 88.12 44.3276 87.97 43.9342 87.67C43.5409 87.37 43.3109 86.9633 43.2442 86.45H44.1042C44.1576 86.71 44.2942 86.9367 44.5142 87.13C44.7409 87.3167 45.0442 87.41 45.4242 87.41C45.7776 87.41 46.0376 87.3367 46.2042 87.19C46.3709 87.0367 46.4542 86.8567 46.4542 86.65C46.4542 86.35 46.3442 86.15 46.1242 86.05C45.9109 85.95 45.6076 85.86 45.2142 85.78C44.9476 85.7267 44.6809 85.65 44.4142 85.55C44.1476 85.45 43.9242 85.31 43.7442 85.13C43.5642 84.9433 43.4742 84.7 43.4742 84.4C43.4742 83.9667 43.6342 83.6133 43.9542 83.34C44.2809 83.06 44.7209 82.92 45.2742 82.92C45.8009 82.92 46.2309 83.0533 46.5642 83.32C46.9042 83.58 47.1009 83.9533 47.1542 84.44H46.3242C46.2909 84.1867 46.1809 83.99 45.9942 83.85C45.8142 83.7033 45.5709 83.63 45.2642 83.63C44.9642 83.63 44.7309 83.6933 44.5642 83.82C44.4042 83.9467 44.3242 84.1133 44.3242 84.32C44.3242 84.52 44.4276 84.6767 44.6342 84.79C44.8476 84.9033 45.1342 85 45.4942 85.08C45.8009 85.1467 46.0909 85.23 46.3642 85.33C46.6442 85.4233 46.8709 85.5667 47.0442 85.76C47.2242 85.9467 47.3142 86.22 47.3142 86.58C47.3209 87.0267 47.1509 87.3967 46.8042 87.69C46.4642 87.9767 46.0009 88.12 45.4142 88.12ZM50.4142 88.12C49.8209 88.12 49.3276 87.97 48.9342 87.67C48.5409 87.37 48.3109 86.9633 48.2442 86.45H49.1042C49.1576 86.71 49.2942 86.9367 49.5142 87.13C49.7409 87.3167 50.0442 87.41 50.4242 87.41C50.7776 87.41 51.0376 87.3367 51.2042 87.19C51.3709 87.0367 51.4542 86.8567 51.4542 86.65C51.4542 86.35 51.3442 86.15 51.1242 86.05C50.9109 85.95 50.6076 85.86 50.2142 85.78C49.9476 85.7267 49.6809 85.65 49.4142 85.55C49.1476 85.45 48.9242 85.31 48.7442 85.13C48.5642 84.9433 48.4742 84.7 48.4742 84.4C48.4742 83.9667 48.6342 83.6133 48.9542 83.34C49.2809 83.06 49.7209 82.92 50.2742 82.92C50.8009 82.92 51.2309 83.0533 51.5642 83.32C51.9042 83.58 52.1009 83.9533 52.1542 84.44H51.3242C51.2909 84.1867 51.1809 83.99 50.9942 83.85C50.8142 83.7033 50.5709 83.63 50.2642 83.63C49.9642 83.63 49.7309 83.6933 49.5642 83.82C49.4042 83.9467 49.3242 84.1133 49.3242 84.32C49.3242 84.52 49.4276 84.6767 49.6342 84.79C49.8476 84.9033 50.1342 85 50.4942 85.08C50.8009 85.1467 51.0909 85.23 51.3642 85.33C51.6442 85.4233 51.8709 85.5667 52.0442 85.76C52.2242 85.9467 52.3142 86.22 52.3142 86.58C52.3209 87.0267 52.1509 87.3967 51.8042 87.69C51.4642 87.9767 51.0009 88.12 50.4142 88.12ZM54.0242 81.94C53.8576 81.94 53.7176 81.8867 53.6042 81.78C53.4976 81.6667 53.4442 81.5267 53.4442 81.36C53.4442 81.2 53.4976 81.0667 53.6042 80.96C53.7176 80.8533 53.8576 80.8 54.0242 80.8C54.1842 80.8 54.3209 80.8533 54.4342 80.96C54.5476 81.0667 54.6042 81.2 54.6042 81.36C54.6042 81.5267 54.5476 81.6667 54.4342 81.78C54.3209 81.8867 54.1842 81.94 54.0242 81.94ZM53.6042 88V83.04H54.4442V88H53.6042ZM58.1868 88.12C57.7135 88.12 57.2868 88.0133 56.9068 87.8C56.5335 87.58 56.2368 87.2767 56.0168 86.89C55.8035 86.4967 55.6968 86.04 55.6968 85.52C55.6968 85 55.8035 84.5467 56.0168 84.16C56.2368 83.7667 56.5335 83.4633 56.9068 83.25C57.2868 83.03 57.7135 82.92 58.1868 82.92C58.7735 82.92 59.2668 83.0733 59.6668 83.38C60.0735 83.6867 60.3301 84.0967 60.4368 84.61H59.5768C59.5101 84.3033 59.3468 84.0667 59.0868 83.9C58.8268 83.7267 58.5235 83.64 58.1768 83.64C57.8968 83.64 57.6335 83.71 57.3868 83.85C57.1401 83.99 56.9401 84.2 56.7868 84.48C56.6335 84.76 56.5568 85.1067 56.5568 85.52C56.5568 85.9333 56.6335 86.28 56.7868 86.56C56.9401 86.84 57.1401 87.0533 57.3868 87.2C57.6335 87.34 57.8968 87.41 58.1768 87.41C58.5235 87.41 58.8268 87.3267 59.0868 87.16C59.3468 86.9867 59.5101 86.7433 59.5768 86.43H60.4368C60.3368 86.93 60.0835 87.3367 59.6768 87.65C59.2701 87.9633 58.7735 88.12 58.1868 88.12ZM63.2599 88.12C62.8466 88.12 62.5033 88.05 62.2299 87.91C61.9566 87.77 61.7533 87.5833 61.6199 87.35C61.4866 87.1167 61.4199 86.8633 61.4199 86.59C61.4199 86.0833 61.6133 85.6933 61.9999 85.42C62.3866 85.1467 62.9133 85.01 63.5799 85.01H64.9199V84.95C64.9199 84.5167 64.8066 84.19 64.5799 83.97C64.3533 83.7433 64.0499 83.63 63.6699 83.63C63.3433 83.63 63.0599 83.7133 62.8199 83.88C62.5866 84.04 62.4399 84.2767 62.3799 84.59H61.5199C61.5533 84.23 61.6733 83.9267 61.8799 83.68C62.0933 83.4333 62.3566 83.2467 62.6699 83.12C62.9833 82.9867 63.3166 82.92 63.6699 82.92C64.3633 82.92 64.8833 83.1067 65.2299 83.48C65.5833 83.8467 65.7599 84.3367 65.7599 84.95V88H65.0099L64.9599 87.11C64.8199 87.39 64.6133 87.63 64.3399 87.83C64.0733 88.0233 63.7133 88.12 63.2599 88.12ZM63.3899 87.41C63.7099 87.41 63.9833 87.3267 64.2099 87.16C64.4433 86.9933 64.6199 86.7767 64.7399 86.51C64.8599 86.2433 64.9199 85.9633 64.9199 85.67V85.66H63.6499C63.1566 85.66 62.8066 85.7467 62.5999 85.92C62.3999 86.0867 62.2999 86.2967 62.2999 86.55C62.2999 86.81 62.3933 87.02 62.5799 87.18C62.7733 87.3333 63.0433 87.41 63.3899 87.41ZM67.0201 88V80.8H67.8601V88H67.0201ZM28.74 101V94H31.04C31.5867 94 32.0367 94.09 32.39 94.27C32.7433 94.45 33.0033 94.6933 33.17 95C33.3433 95.3067 33.43 95.6533 33.43 96.04C33.43 96.42 33.3467 96.7633 33.18 97.07C33.0133 97.3767 32.7533 97.6233 32.4 97.81C32.0467 97.99 31.5933 98.08 31.04 98.08H29.58V101H28.74ZM29.58 97.37H31.02C31.58 97.37 31.9767 97.2533 32.21 97.02C32.45 96.78 32.57 96.4533 32.57 96.04C32.57 95.62 32.45 95.2933 32.21 95.06C31.9767 94.82 31.58 94.7 31.02 94.7H29.58V97.37ZM36.291 101.12C35.7043 101.12 35.2377 100.943 34.891 100.59C34.5443 100.23 34.371 99.68 34.371 98.94V96.04H35.211V98.85C35.211 99.8833 35.6343 100.4 36.481 100.4C36.9143 100.4 37.271 100.247 37.551 99.94C37.8377 99.6267 37.981 99.1833 37.981 98.61V96.04H38.821V101H38.061L38.001 100.11C37.8477 100.423 37.6177 100.67 37.311 100.85C37.011 101.03 36.671 101.12 36.291 101.12ZM42.8537 101.12C42.447 101.12 42.0837 101.037 41.7637 100.87C41.4503 100.703 41.2103 100.47 41.0437 100.17L40.9637 101H40.2037V93.8H41.0437V96.86C41.2037 96.62 41.4303 96.4033 41.7237 96.21C42.0237 96.0167 42.4037 95.92 42.8637 95.92C43.357 95.92 43.787 96.0333 44.1537 96.26C44.5203 96.4867 44.8037 96.7967 45.0037 97.19C45.2103 97.5833 45.3137 98.03 45.3137 98.53C45.3137 99.03 45.2103 99.4767 45.0037 99.87C44.8037 100.257 44.517 100.563 44.1437 100.79C43.777 101.01 43.347 101.12 42.8537 101.12ZM42.7637 100.39C43.097 100.39 43.3903 100.313 43.6437 100.16C43.897 100 44.097 99.78 44.2437 99.5C44.3903 99.22 44.4637 98.8933 44.4637 98.52C44.4637 98.1467 44.3903 97.82 44.2437 97.54C44.097 97.26 43.897 97.0433 43.6437 96.89C43.3903 96.73 43.097 96.65 42.7637 96.65C42.4303 96.65 42.137 96.73 41.8837 96.89C41.6303 97.0433 41.4303 97.26 41.2837 97.54C41.137 97.82 41.0637 98.1467 41.0637 98.52C41.0637 98.8933 41.137 99.22 41.2837 99.5C41.4303 99.78 41.6303 100 41.8837 100.16C42.137 100.313 42.4303 100.39 42.7637 100.39ZM46.483 101V93.8H47.323V101H46.483ZM49.2098 94.94C49.0431 94.94 48.9031 94.8867 48.7898 94.78C48.6831 94.6667 48.6298 94.5267 48.6298 94.36C48.6298 94.2 48.6831 94.0667 48.7898 93.96C48.9031 93.8533 49.0431 93.8 49.2098 93.8C49.3698 93.8 49.5064 93.8533 49.6198 93.96C49.7331 94.0667 49.7898 94.2 49.7898 94.36C49.7898 94.5267 49.7331 94.6667 49.6198 94.78C49.5064 94.8867 49.3698 94.94 49.2098 94.94ZM48.7898 101V96.04H49.6298V101H48.7898ZM53.3723 101.12C52.899 101.12 52.4723 101.013 52.0923 100.8C51.719 100.58 51.4223 100.277 51.2023 99.89C50.989 99.4967 50.8823 99.04 50.8823 98.52C50.8823 98 50.989 97.5467 51.2023 97.16C51.4223 96.7667 51.719 96.4633 52.0923 96.25C52.4723 96.03 52.899 95.92 53.3723 95.92C53.959 95.92 54.4523 96.0733 54.8523 96.38C55.259 96.6867 55.5157 97.0967 55.6223 97.61H54.7623C54.6957 97.3033 54.5323 97.0667 54.2723 96.9C54.0123 96.7267 53.709 96.64 53.3623 96.64C53.0823 96.64 52.819 96.71 52.5723 96.85C52.3257 96.99 52.1257 97.2 51.9723 97.48C51.819 97.76 51.7423 98.1067 51.7423 98.52C51.7423 98.9333 51.819 99.28 51.9723 99.56C52.1257 99.84 52.3257 100.053 52.5723 100.2C52.819 100.34 53.0823 100.41 53.3623 100.41C53.709 100.41 54.0123 100.327 54.2723 100.16C54.5323 99.9867 54.6957 99.7433 54.7623 99.43H55.6223C55.5223 99.93 55.269 100.337 54.8623 100.65C54.4557 100.963 53.959 101.12 53.3723 101.12ZM62.562 101.12C61.8753 101.12 61.282 100.97 60.782 100.67C60.2886 100.363 59.9053 99.94 59.632 99.4C59.3586 98.8533 59.222 98.22 59.222 97.5C59.222 96.7867 59.3586 96.16 59.632 95.62C59.9053 95.0733 60.2886 94.6467 60.782 94.34C61.282 94.0333 61.8753 93.88 62.562 93.88C63.362 93.88 64.012 94.0733 64.512 94.46C65.0186 94.84 65.342 95.3733 65.482 96.06H64.552C64.4453 95.6267 64.2253 95.28 63.892 95.02C63.5653 94.7533 63.122 94.62 62.562 94.62C62.062 94.62 61.6253 94.7367 61.252 94.97C60.8786 95.1967 60.5886 95.5267 60.382 95.96C60.182 96.3867 60.082 96.9 60.082 97.5C60.082 98.1 60.182 98.6167 60.382 99.05C60.5886 99.4767 60.8786 99.8067 61.252 100.04C61.6253 100.267 62.062 100.38 62.562 100.38C63.122 100.38 63.5653 100.253 63.892 100C64.2253 99.74 64.4453 99.3967 64.552 98.97H65.482C65.342 99.6433 65.0186 100.17 64.512 100.55C64.012 100.93 63.362 101.12 62.562 101.12ZM66.6392 101V93.8H67.4792V101H66.6392ZM71.116 101.12C70.6493 101.12 70.2293 101.013 69.856 100.8C69.4827 100.587 69.186 100.287 68.966 99.9C68.7527 99.5067 68.646 99.0467 68.646 98.52C68.646 97.9933 68.756 97.5367 68.976 97.15C69.196 96.7567 69.4927 96.4533 69.866 96.24C70.246 96.0267 70.6693 95.92 71.136 95.92C71.6027 95.92 72.0227 96.0267 72.396 96.24C72.7693 96.4533 73.0627 96.7567 73.276 97.15C73.496 97.5367 73.606 97.9933 73.606 98.52C73.606 99.0467 73.496 99.5067 73.276 99.9C73.056 100.287 72.756 100.587 72.376 100.8C72.0027 101.013 71.5827 101.12 71.116 101.12ZM71.116 100.4C71.4027 100.4 71.6693 100.33 71.916 100.19C72.1627 100.05 72.3627 99.84 72.516 99.56C72.6693 99.28 72.746 98.9333 72.746 98.52C72.746 98.1067 72.6693 97.76 72.516 97.48C72.3693 97.2 72.1727 96.99 71.926 96.85C71.6793 96.71 71.416 96.64 71.136 96.64C70.8493 96.64 70.5827 96.71 70.336 96.85C70.0893 96.99 69.8893 97.2 69.736 97.48C69.5827 97.76 69.506 98.1067 69.506 98.52C69.506 98.9333 69.5827 99.28 69.736 99.56C69.8893 99.84 70.086 100.05 70.326 100.19C70.5727 100.33 70.836 100.4 71.116 100.4ZM76.584 101.12C75.9973 101.12 75.5307 100.943 75.184 100.59C74.8373 100.23 74.664 99.68 74.664 98.94V96.04H75.504V98.85C75.504 99.8833 75.9273 100.4 76.774 100.4C77.2073 100.4 77.564 100.247 77.844 99.94C78.1307 99.6267 78.274 99.1833 78.274 98.61V96.04H79.114V101H78.354L78.294 100.11C78.1407 100.423 77.9107 100.67 77.604 100.85C77.304 101.03 76.964 101.12 76.584 101.12ZM82.7466 101.12C82.2533 101.12 81.82 101.007 81.4466 100.78C81.08 100.553 80.7933 100.243 80.5866 99.85C80.3866 99.4567 80.2866 99.01 80.2866 98.51C80.2866 98.01 80.39 97.5667 80.5966 97.18C80.8033 96.7867 81.09 96.48 81.4566 96.26C81.8233 96.0333 82.2566 95.92 82.7566 95.92C83.1633 95.92 83.5233 96.0033 83.8366 96.17C84.15 96.3367 84.3933 96.57 84.5666 96.87V93.8H85.4066V101H84.6466L84.5666 100.18C84.4066 100.42 84.1766 100.637 83.8766 100.83C83.5766 101.023 83.2 101.12 82.7466 101.12ZM82.8366 100.39C83.17 100.39 83.4633 100.313 83.7166 100.16C83.9766 100 84.1766 99.78 84.3166 99.5C84.4633 99.22 84.5366 98.8933 84.5366 98.52C84.5366 98.1467 84.4633 97.82 84.3166 97.54C84.1766 97.26 83.9766 97.0433 83.7166 96.89C83.4633 96.73 83.17 96.65 82.8366 96.65C82.51 96.65 82.2166 96.73 81.9566 96.89C81.7033 97.0433 81.5033 97.26 81.3566 97.54C81.2166 97.82 81.1466 98.1467 81.1466 98.52C81.1466 98.8933 81.2166 99.22 81.3566 99.5C81.5033 99.78 81.7033 100 81.9566 100.16C82.2166 100.313 82.51 100.39 82.8366 100.39ZM88.6759 101.12C88.0826 101.12 87.5893 100.97 87.1959 100.67C86.8026 100.37 86.5726 99.9633 86.5059 99.45H87.3659C87.4193 99.71 87.5559 99.9367 87.7759 100.13C88.0026 100.317 88.3059 100.41 88.6859 100.41C89.0393 100.41 89.2993 100.337 89.4659 100.19C89.6326 100.037 89.7159 99.8567 89.7159 99.65C89.7159 99.35 89.6059 99.15 89.3859 99.05C89.1726 98.95 88.8693 98.86 88.4759 98.78C88.2093 98.7267 87.9426 98.65 87.6759 98.55C87.4093 98.45 87.1859 98.31 87.0059 98.13C86.8259 97.9433 86.7359 97.7 86.7359 97.4C86.7359 96.9667 86.8959 96.6133 87.2159 96.34C87.5426 96.06 87.9826 95.92 88.5359 95.92C89.0626 95.92 89.4926 96.0533 89.8259 96.32C90.1659 96.58 90.3626 96.9533 90.4159 97.44H89.5859C89.5526 97.1867 89.4426 96.99 89.2559 96.85C89.0759 96.7033 88.8326 96.63 88.5259 96.63C88.2259 96.63 87.9926 96.6933 87.8259 96.82C87.6659 96.9467 87.5859 97.1133 87.5859 97.32C87.5859 97.52 87.6893 97.6767 87.8959 97.79C88.1093 97.9033 88.3959 98 88.7559 98.08C89.0626 98.1467 89.3526 98.23 89.6259 98.33C89.9059 98.4233 90.1326 98.5667 90.3059 98.76C90.4859 98.9467 90.5759 99.22 90.5759 99.58C90.5826 100.027 90.4126 100.397 90.0659 100.69C89.7259 100.977 89.2626 101.12 88.6759 101.12Z" fill="#E5E7F3"/>
<rect x="209.009" y="192.922" width="49.5" height="9.13067" fill="#FBFBFB"/>
<rect width="35.6926" height="35.6926" rx="10" transform="matrix(0.83205 0.5547 -0.830139 0.557556 233.633 182.131)" fill="#FBFBFB"/>
<rect width="35.6926" height="35.6926" rx="10" transform="matrix(0.83205 0.5547 -0.830139 0.557556 233.63 173)" fill="#A965EE"/>
<g clip-path="url(#clip2_85_175)">
<path d="M242.4 194.528C242.279 194.365 242.157 194.203 242.023 194.048C242.175 193.987 242.333 193.922 242.484 193.852C244.914 192.774 246.268 191.507 245.871 190.527C245.499 189.588 243.51 188.977 240.761 188.86C240.488 188.848 240.22 188.84 239.947 188.837C239.947 188.715 239.934 188.593 239.922 188.471C239.748 186.526 238.785 185.112 237.32 184.85C235.915 184.605 234.129 185.454 232.588 186.986C232.436 187.137 232.29 187.292 232.151 187.451C231.877 187.349 231.597 187.252 231.317 187.163C228.884 186.386 226.75 186.28 225.73 186.965C224.71 187.651 224.852 189.208 226.089 190.894C226.187 191.033 226.296 191.163 226.406 191.301C226.157 191.403 225.908 191.505 225.665 191.619C223.436 192.644 222.216 193.83 222.594 194.765C222.979 195.729 225.053 196.388 227.862 196.505C228.081 196.513 228.312 196.521 228.543 196.52C228.549 196.72 228.562 196.915 228.586 197.11C228.79 198.912 229.716 200.204 231.109 200.45C232.55 200.704 234.452 199.826 236.011 198.265C236.133 198.143 236.248 198.016 236.363 197.89C236.503 197.943 236.643 197.987 236.777 198.036C239.38 198.902 241.697 199.049 242.766 198.331C243.792 197.641 243.595 196.177 242.388 194.528L242.4 194.528ZM240.69 189.543C243.043 189.649 244.648 190.143 244.88 190.704C245.125 191.305 244.014 192.344 241.918 193.272C241.778 193.333 241.645 193.39 241.499 193.447C240.92 192.834 240.275 192.241 239.581 191.689C239.774 190.973 239.895 190.248 239.936 189.52C240.185 189.524 240.434 189.527 240.684 189.539L240.69 189.543ZM229.889 190.908C229.744 191.21 229.616 191.515 229.489 191.82C229.362 192.134 229.247 192.447 229.15 192.765C228.676 192.375 228.237 191.969 227.829 191.551C228.467 191.326 229.154 191.109 229.889 190.908ZM231.601 189.758C231.892 189.278 232.202 188.826 232.535 188.406C233.131 188.657 233.74 188.941 234.348 189.257C233.886 189.323 233.425 189.405 232.969 189.483C232.507 189.565 232.057 189.656 231.607 189.754L231.601 189.758ZM231.129 190.589C231.821 190.425 232.52 190.281 233.225 190.15C233.93 190.019 234.647 189.912 235.371 189.817C235.912 190.129 236.46 190.462 236.983 190.811C237.507 191.16 238.012 191.521 238.475 191.886C238.336 192.362 238.172 192.839 237.985 193.315C237.797 193.791 237.585 194.259 237.355 194.724C236.662 194.887 235.951 195.031 235.246 195.162C234.541 195.294 233.83 195.405 233.113 195.504C232.571 195.191 232.03 194.855 231.494 194.498C230.958 194.141 230.465 193.787 230.003 193.438C230.142 192.954 230.299 192.474 230.493 191.993C230.68 191.517 230.898 191.045 231.135 190.585L231.129 190.589ZM235.509 195.825C235.977 195.739 236.439 195.649 236.906 195.546C236.64 196.018 236.324 196.483 235.979 196.935C235.34 196.663 234.719 196.372 234.117 196.059C234.585 195.989 235.047 195.907 235.509 195.825ZM238.582 194.412C238.722 194.107 238.855 193.797 238.976 193.488C239.097 193.187 239.212 192.882 239.309 192.572C239.784 192.978 240.216 193.388 240.588 193.79C239.931 194.019 239.263 194.224 238.576 194.408L238.582 194.412ZM238.902 189.53C238.867 190.026 238.801 190.519 238.698 191.011C238.059 190.544 237.39 190.098 236.684 189.668C237.449 189.594 238.197 189.548 238.902 189.53ZM237.053 185.518C237.953 185.679 238.746 186.833 238.894 188.509C238.907 188.615 238.913 188.725 238.913 188.838C237.825 188.869 236.737 188.948 235.667 189.08C234.834 188.614 233.957 188.192 233.039 187.799C233.172 187.652 233.306 187.514 233.445 187.371C234.762 186.055 236.208 185.369 237.053 185.518ZM227.299 190.953C227.202 190.832 227.104 190.71 227.013 190.584C226.464 189.836 226.147 189.137 226.079 188.547C226.017 188.027 226.163 187.636 226.454 187.44C227.074 187.024 228.794 187.107 230.875 187.778C231.136 187.863 231.392 187.952 231.641 188.045C231.137 188.693 230.695 189.357 230.325 190.045C229.286 190.303 228.277 190.606 227.305 190.949L227.299 190.953ZM227.928 195.81C226.687 195.755 225.617 195.594 224.826 195.343C224.121 195.116 223.695 194.841 223.591 194.576C223.365 194.011 224.336 193.058 226.25 192.18C226.474 192.078 226.705 191.98 226.942 191.886C227.533 192.499 228.19 193.084 228.903 193.64C228.715 194.36 228.601 195.097 228.554 195.829C228.347 195.829 228.14 195.821 227.934 195.814L227.928 195.81ZM229.587 195.811C229.611 195.331 229.683 194.826 229.791 194.305C230.108 194.533 230.431 194.756 230.771 194.983C231.112 195.21 231.465 195.437 231.824 195.652C231.083 195.727 230.341 195.785 229.587 195.811ZM232.992 199.438C232.342 199.736 231.777 199.847 231.375 199.774C230.53 199.625 229.781 198.589 229.614 197.047C229.589 196.869 229.583 196.685 229.576 196.502C230.664 196.464 231.746 196.373 232.822 196.236C233.668 196.711 234.556 197.141 235.487 197.534C235.378 197.648 235.275 197.766 235.166 197.872C234.474 198.565 233.721 199.103 232.998 199.434L232.992 199.438ZM237.25 197.409C237.128 197.368 237.001 197.324 236.873 197.279C237.376 196.623 237.801 195.947 238.164 195.255C239.179 195.005 240.17 194.715 241.117 194.379C241.239 194.526 241.355 194.676 241.465 194.822C242.501 196.236 242.655 197.42 242.041 197.832C241.38 198.276 239.489 198.153 237.244 197.405L237.25 197.409Z" fill="white"/>
<path d="M232.739 193.67C233.043 193.873 233.42 194.01 233.846 194.066C234.266 194.119 234.703 194.093 235.092 193.987C235.487 193.876 235.821 193.693 236.064 193.456C236.301 193.216 236.428 192.935 236.433 192.654C236.433 192.37 236.305 192.089 236.073 191.854C235.836 191.614 235.501 191.432 235.106 191.322C234.71 191.213 234.279 191.186 233.859 191.239C233.44 191.293 233.057 191.436 232.76 191.636C232.559 191.77 232.395 191.929 232.292 192.104C232.177 192.279 232.129 192.467 232.129 192.654C232.129 192.841 232.185 193.032 232.294 193.203C232.398 193.377 232.562 193.536 232.763 193.67L232.739 193.67Z" fill="white"/>
</g>
<rect x="508" y="193" width="49.5" height="9" fill="#FBFBFB"/>
<rect width="35.6926" height="35.6926" rx="10" transform="matrix(0.83205 0.5547 -0.830139 0.557556 532.633 182.131)" fill="#FBFBFB"/>
<rect width="35.6926" height="35.6926" rx="10" transform="matrix(0.83205 0.5547 -0.830139 0.557556 532.63 173)" fill="#7CA7E9"/>
<g clip-path="url(#clip3_85_175)">
<path d="M547.835 192.633L533.228 182.895C532.559 182.449 531.464 182.45 530.796 182.899L521.08 189.425C520.412 189.873 520.414 190.606 521.083 191.052L525.952 194.298L523.523 195.929L521.089 194.306L519.874 195.122L529.613 201.614L530.827 200.798L528.392 199.175L530.821 197.544L535.691 200.79C536.36 201.236 537.454 201.234 538.122 200.786L547.838 194.26C548.506 193.812 548.505 193.079 547.835 192.633ZM527.175 198.364L524.741 196.741L527.17 195.109L529.604 196.732L527.175 198.364ZM536.905 199.974L522.298 190.236L532.014 183.711L546.621 193.449L536.905 199.974Z" fill="white"/>
</g>
<path d="M581.221 54V47H582.061V50.09H585.691V47H586.531V54H585.691V50.78H582.061V54H581.221ZM588.009 54V47H590.309C590.855 47 591.305 47.09 591.659 47.27C592.012 47.45 592.272 47.6933 592.439 48C592.612 48.3067 592.699 48.6533 592.699 49.04C592.699 49.42 592.615 49.7633 592.449 50.07C592.282 50.3767 592.022 50.6233 591.669 50.81C591.315 50.99 590.862 51.08 590.309 51.08H588.849V54H588.009ZM588.849 50.37H590.289C590.849 50.37 591.245 50.2533 591.479 50.02C591.719 49.78 591.839 49.4533 591.839 49.04C591.839 48.62 591.719 48.2933 591.479 48.06C591.245 47.82 590.849 47.7 590.289 47.7H588.849V50.37ZM596.87 54.12C596.183 54.12 595.59 53.97 595.09 53.67C594.596 53.3633 594.213 52.94 593.94 52.4C593.666 51.8533 593.53 51.22 593.53 50.5C593.53 49.7867 593.666 49.16 593.94 48.62C594.213 48.0733 594.596 47.6467 595.09 47.34C595.59 47.0333 596.183 46.88 596.87 46.88C597.67 46.88 598.32 47.0733 598.82 47.46C599.326 47.84 599.65 48.3733 599.79 49.06H598.86C598.753 48.6267 598.533 48.28 598.2 48.02C597.873 47.7533 597.43 47.62 596.87 47.62C596.37 47.62 595.933 47.7367 595.56 47.97C595.186 48.1967 594.896 48.5267 594.69 48.96C594.49 49.3867 594.39 49.9 594.39 50.5C594.39 51.1 594.49 51.6167 594.69 52.05C594.896 52.4767 595.186 52.8067 595.56 53.04C595.933 53.2667 596.37 53.38 596.87 53.38C597.43 53.38 597.873 53.2533 598.2 53C598.533 52.74 598.753 52.3967 598.86 51.97H599.79C599.65 52.6433 599.326 53.17 598.82 53.55C598.32 53.93 597.67 54.12 596.87 54.12ZM606.713 54.12C606.027 54.12 605.433 53.97 604.933 53.67C604.44 53.3633 604.057 52.94 603.783 52.4C603.51 51.8533 603.373 51.22 603.373 50.5C603.373 49.7867 603.51 49.16 603.783 48.62C604.057 48.0733 604.44 47.6467 604.933 47.34C605.433 47.0333 606.027 46.88 606.713 46.88C607.513 46.88 608.163 47.0733 608.663 47.46C609.17 47.84 609.493 48.3733 609.633 49.06H608.703C608.597 48.6267 608.377 48.28 608.043 48.02C607.717 47.7533 607.273 47.62 606.713 47.62C606.213 47.62 605.777 47.7367 605.403 47.97C605.03 48.1967 604.74 48.5267 604.533 48.96C604.333 49.3867 604.233 49.9 604.233 50.5C604.233 51.1 604.333 51.6167 604.533 52.05C604.74 52.4767 605.03 52.8067 605.403 53.04C605.777 53.2667 606.213 53.38 606.713 53.38C607.273 53.38 607.717 53.2533 608.043 53C608.377 52.74 608.597 52.3967 608.703 51.97H609.633C609.493 52.6433 609.17 53.17 608.663 53.55C608.163 53.93 607.513 54.12 606.713 54.12ZM610.791 54V46.8H611.631V54H610.791ZM614.817 54.12C614.231 54.12 613.764 53.9433 613.417 53.59C613.071 53.23 612.897 52.68 612.897 51.94V49.04H613.737V51.85C613.737 52.8833 614.161 53.4 615.007 53.4C615.441 53.4 615.797 53.2467 616.077 52.94C616.364 52.6267 616.507 52.1833 616.507 51.61V49.04H617.347V54H616.587L616.527 53.11C616.374 53.4233 616.144 53.67 615.837 53.85C615.537 54.03 615.197 54.12 614.817 54.12ZM620.63 54.12C620.037 54.12 619.543 53.97 619.15 53.67C618.757 53.37 618.527 52.9633 618.46 52.45H619.32C619.373 52.71 619.51 52.9367 619.73 53.13C619.957 53.3167 620.26 53.41 620.64 53.41C620.993 53.41 621.253 53.3367 621.42 53.19C621.587 53.0367 621.67 52.8567 621.67 52.65C621.67 52.35 621.56 52.15 621.34 52.05C621.127 51.95 620.823 51.86 620.43 51.78C620.163 51.7267 619.897 51.65 619.63 51.55C619.363 51.45 619.14 51.31 618.96 51.13C618.78 50.9433 618.69 50.7 618.69 50.4C618.69 49.9667 618.85 49.6133 619.17 49.34C619.497 49.06 619.937 48.92 620.49 48.92C621.017 48.92 621.447 49.0533 621.78 49.32C622.12 49.58 622.317 49.9533 622.37 50.44H621.54C621.507 50.1867 621.397 49.99 621.21 49.85C621.03 49.7033 620.787 49.63 620.48 49.63C620.18 49.63 619.947 49.6933 619.78 49.82C619.62 49.9467 619.54 50.1133 619.54 50.32C619.54 50.52 619.643 50.6767 619.85 50.79C620.063 50.9033 620.35 51 620.71 51.08C621.017 51.1467 621.307 51.23 621.58 51.33C621.86 51.4233 622.087 51.5667 622.26 51.76C622.44 51.9467 622.53 52.22 622.53 52.58C622.537 53.0267 622.367 53.3967 622.02 53.69C621.68 53.9767 621.217 54.12 620.63 54.12ZM625.465 54C625.012 54 624.655 53.89 624.395 53.67C624.135 53.45 624.005 53.0533 624.005 52.48V49.75H623.145V49.04H624.005L624.115 47.85H624.845V49.04H626.305V49.75H624.845V52.48C624.845 52.7933 624.909 53.0067 625.035 53.12C625.162 53.2267 625.385 53.28 625.705 53.28H626.225V54H625.465ZM629.466 54.12C628.993 54.12 628.573 54.0133 628.206 53.8C627.839 53.58 627.549 53.2767 627.336 52.89C627.129 52.5033 627.026 52.0467 627.026 51.52C627.026 51 627.129 50.5467 627.336 50.16C627.543 49.7667 627.829 49.4633 628.196 49.25C628.569 49.03 628.999 48.92 629.486 48.92C629.966 48.92 630.379 49.03 630.726 49.25C631.079 49.4633 631.349 49.7467 631.536 50.1C631.723 50.4533 631.816 50.8333 631.816 51.24C631.816 51.3133 631.813 51.3867 631.806 51.46C631.806 51.5333 631.806 51.6167 631.806 51.71H627.856C627.876 52.09 627.963 52.4067 628.116 52.66C628.276 52.9067 628.473 53.0933 628.706 53.22C628.946 53.3467 629.199 53.41 629.466 53.41C629.813 53.41 630.103 53.33 630.336 53.17C630.569 53.01 630.739 52.7933 630.846 52.52H631.676C631.543 52.98 631.286 53.3633 630.906 53.67C630.533 53.97 630.053 54.12 629.466 54.12ZM629.466 49.63C629.066 49.63 628.709 49.7533 628.396 50C628.089 50.24 627.913 50.5933 627.866 51.06H630.986C630.966 50.6133 630.813 50.2633 630.526 50.01C630.239 49.7567 629.886 49.63 629.466 49.63ZM632.929 54V49.04H633.689L633.759 49.99C633.913 49.6633 634.146 49.4033 634.459 49.21C634.773 49.0167 635.159 48.92 635.619 48.92V49.8H635.389C635.096 49.8 634.826 49.8533 634.579 49.96C634.333 50.06 634.136 50.2333 633.989 50.48C633.843 50.7267 633.769 51.0667 633.769 51.5V54H632.929ZM583.909 68.45C583.549 68.1033 583.215 67.69 582.909 67.21C582.602 66.7367 582.355 66.2033 582.169 65.61C581.989 65.01 581.899 64.3633 581.899 63.67C581.899 62.9767 581.989 62.3333 582.169 61.74C582.355 61.14 582.602 60.6033 582.909 60.13C583.215 59.65 583.549 59.2367 583.909 58.89H584.769V58.97C584.155 59.57 583.662 60.2733 583.289 61.08C582.922 61.88 582.739 62.7433 582.739 63.67C582.739 64.5967 582.925 65.4633 583.299 66.27C583.672 67.07 584.162 67.77 584.769 68.37V68.45H583.909ZM585.889 67V60H588.349C588.843 60 589.249 60.08 589.569 60.24C589.896 60.3933 590.139 60.6067 590.299 60.88C590.459 61.1467 590.539 61.4467 590.539 61.78C590.539 62.2333 590.416 62.59 590.169 62.85C589.929 63.11 589.639 63.29 589.299 63.39C589.559 63.4367 589.796 63.54 590.009 63.7C590.223 63.86 590.389 64.06 590.509 64.3C590.636 64.54 590.699 64.8033 590.699 65.09C590.699 65.4433 590.613 65.7667 590.439 66.06C590.266 66.3467 590.009 66.5767 589.669 66.75C589.329 66.9167 588.916 67 588.429 67H585.889ZM586.729 63.06H588.289C588.736 63.06 589.079 62.9567 589.319 62.75C589.559 62.5367 589.679 62.2433 589.679 61.87C589.679 61.5167 589.559 61.2333 589.319 61.02C589.086 60.8067 588.733 60.7 588.259 60.7H586.729V63.06ZM586.729 66.3H588.339C588.819 66.3 589.189 66.19 589.449 65.97C589.709 65.7433 589.839 65.43 589.839 65.03C589.839 64.6367 589.703 64.3233 589.429 64.09C589.156 63.85 588.786 63.73 588.319 63.73H586.729V66.3ZM593.505 67.12C593.092 67.12 592.748 67.05 592.475 66.91C592.202 66.77 591.998 66.5833 591.865 66.35C591.732 66.1167 591.665 65.8633 591.665 65.59C591.665 65.0833 591.858 64.6933 592.245 64.42C592.632 64.1467 593.158 64.01 593.825 64.01H595.165V63.95C595.165 63.5167 595.052 63.19 594.825 62.97C594.598 62.7433 594.295 62.63 593.915 62.63C593.588 62.63 593.305 62.7133 593.065 62.88C592.832 63.04 592.685 63.2767 592.625 63.59H591.765C591.798 63.23 591.918 62.9267 592.125 62.68C592.338 62.4333 592.602 62.2467 592.915 62.12C593.228 61.9867 593.562 61.92 593.915 61.92C594.608 61.92 595.128 62.1067 595.475 62.48C595.828 62.8467 596.005 63.3367 596.005 63.95V67H595.255L595.205 66.11C595.065 66.39 594.858 66.63 594.585 66.83C594.318 67.0233 593.958 67.12 593.505 67.12ZM593.635 66.41C593.955 66.41 594.228 66.3267 594.455 66.16C594.688 65.9933 594.865 65.7767 594.985 65.51C595.105 65.2433 595.165 64.9633 595.165 64.67V64.66H593.895C593.402 64.66 593.052 64.7467 592.845 64.92C592.645 65.0867 592.545 65.2967 592.545 65.55C592.545 65.81 592.638 66.02 592.825 66.18C593.018 66.3333 593.288 66.41 593.635 66.41ZM597.265 67V62.04H598.025L598.095 62.99C598.249 62.6633 598.482 62.4033 598.795 62.21C599.109 62.0167 599.495 61.92 599.955 61.92V62.8H599.725C599.432 62.8 599.162 62.8533 598.915 62.96C598.669 63.06 598.472 63.2333 598.325 63.48C598.179 63.7267 598.105 64.0667 598.105 64.5V67H597.265ZM602.942 67.12C602.469 67.12 602.049 67.0133 601.682 66.8C601.316 66.58 601.026 66.2767 600.812 65.89C600.606 65.5033 600.502 65.0467 600.502 64.52C600.502 64 600.606 63.5467 600.812 63.16C601.019 62.7667 601.306 62.4633 601.672 62.25C602.046 62.03 602.476 61.92 602.962 61.92C603.442 61.92 603.856 62.03 604.202 62.25C604.556 62.4633 604.826 62.7467 605.012 63.1C605.199 63.4533 605.292 63.8333 605.292 64.24C605.292 64.3133 605.289 64.3867 605.282 64.46C605.282 64.5333 605.282 64.6167 605.282 64.71H601.332C601.352 65.09 601.439 65.4067 601.592 65.66C601.752 65.9067 601.949 66.0933 602.182 66.22C602.422 66.3467 602.676 66.41 602.942 66.41C603.289 66.41 603.579 66.33 603.812 66.17C604.046 66.01 604.216 65.7933 604.322 65.52H605.152C605.019 65.98 604.762 66.3633 604.382 66.67C604.009 66.97 603.529 67.12 602.942 67.12ZM602.942 62.63C602.542 62.63 602.186 62.7533 601.872 63C601.566 63.24 601.389 63.5933 601.342 64.06H604.462C604.442 63.6133 604.289 63.2633 604.002 63.01C603.716 62.7567 603.362 62.63 602.942 62.63ZM609.102 67V60H610.082L612.602 64.88L615.102 60H616.092V67H615.252V61.5L612.912 66H612.282L609.942 61.51V67H609.102ZM619.749 67.12C619.276 67.12 618.856 67.0133 618.489 66.8C618.122 66.58 617.832 66.2767 617.619 65.89C617.412 65.5033 617.309 65.0467 617.309 64.52C617.309 64 617.412 63.5467 617.619 63.16C617.826 62.7667 618.112 62.4633 618.479 62.25C618.852 62.03 619.282 61.92 619.769 61.92C620.249 61.92 620.662 62.03 621.009 62.25C621.362 62.4633 621.632 62.7467 621.819 63.1C622.006 63.4533 622.099 63.8333 622.099 64.24C622.099 64.3133 622.096 64.3867 622.089 64.46C622.089 64.5333 622.089 64.6167 622.089 64.71H618.139C618.159 65.09 618.246 65.4067 618.399 65.66C618.559 65.9067 618.756 66.0933 618.989 66.22C619.229 66.3467 619.482 66.41 619.749 66.41C620.096 66.41 620.386 66.33 620.619 66.17C620.852 66.01 621.022 65.7933 621.129 65.52H621.959C621.826 65.98 621.569 66.3633 621.189 66.67C620.816 66.97 620.336 67.12 619.749 67.12ZM619.749 62.63C619.349 62.63 618.992 62.7533 618.679 63C618.372 63.24 618.196 63.5933 618.149 64.06H621.269C621.249 63.6133 621.096 63.2633 620.809 63.01C620.522 62.7567 620.169 62.63 619.749 62.63ZM625.006 67C624.553 67 624.196 66.89 623.936 66.67C623.676 66.45 623.546 66.0533 623.546 65.48V62.75H622.686V62.04H623.546L623.656 60.85H624.386V62.04H625.846V62.75H624.386V65.48C624.386 65.7933 624.45 66.0067 624.576 66.12C624.703 66.2267 624.926 66.28 625.246 66.28H625.766V67H625.006ZM628.564 67.12C628.15 67.12 627.807 67.05 627.534 66.91C627.26 66.77 627.057 66.5833 626.924 66.35C626.79 66.1167 626.724 65.8633 626.724 65.59C626.724 65.0833 626.917 64.6933 627.304 64.42C627.69 64.1467 628.217 64.01 628.884 64.01H630.224V63.95C630.224 63.5167 630.11 63.19 629.884 62.97C629.657 62.7433 629.354 62.63 628.974 62.63C628.647 62.63 628.364 62.7133 628.124 62.88C627.89 63.04 627.744 63.2767 627.684 63.59H626.824C626.857 63.23 626.977 62.9267 627.184 62.68C627.397 62.4333 627.66 62.2467 627.974 62.12C628.287 61.9867 628.62 61.92 628.974 61.92C629.667 61.92 630.187 62.1067 630.534 62.48C630.887 62.8467 631.064 63.3367 631.064 63.95V67H630.314L630.264 66.11C630.124 66.39 629.917 66.63 629.644 66.83C629.377 67.0233 629.017 67.12 628.564 67.12ZM628.694 66.41C629.014 66.41 629.287 66.3267 629.514 66.16C629.747 65.9933 629.924 65.7767 630.044 65.51C630.164 65.2433 630.224 64.9633 630.224 64.67V64.66H628.954C628.46 64.66 628.11 64.7467 627.904 64.92C627.704 65.0867 627.604 65.2967 627.604 65.55C627.604 65.81 627.697 66.02 627.884 66.18C628.077 66.3333 628.347 66.41 628.694 66.41ZM632.324 67V59.8H633.164V67H632.324ZM634.231 68.45V68.37C634.837 67.77 635.327 67.07 635.701 66.27C636.081 65.4633 636.271 64.5967 636.271 63.67C636.271 62.7433 636.084 61.88 635.711 61.08C635.337 60.2733 634.847 59.57 634.241 58.97V58.89H635.091C635.457 59.2367 635.791 59.65 636.091 60.13C636.397 60.6033 636.641 61.14 636.821 61.74C637.007 62.3333 637.101 62.9767 637.101 63.67C637.101 64.3633 637.007 65.01 636.821 65.61C636.641 66.2033 636.397 66.7367 636.091 67.21C635.791 67.69 635.457 68.1033 635.091 68.45H634.231Z" fill="#E5E7F3"/>
<path d="M359.75 38.12C359.097 38.12 358.523 37.97 358.03 37.67C357.537 37.3633 357.153 36.94 356.88 36.4C356.607 35.8533 356.47 35.2233 356.47 34.51C356.47 33.7967 356.607 33.1667 356.88 32.62C357.16 32.0733 357.553 31.6467 358.06 31.34C358.573 31.0333 359.177 30.88 359.87 30.88C360.657 30.88 361.31 31.07 361.83 31.45C362.357 31.83 362.697 32.3533 362.85 33.02H361.88C361.787 32.6 361.563 32.2667 361.21 32.02C360.863 31.7733 360.417 31.65 359.87 31.65C359.357 31.65 358.91 31.7667 358.53 32C358.15 32.2267 357.853 32.5533 357.64 32.98C357.433 33.4067 357.33 33.9167 357.33 34.51C357.33 35.1033 357.433 35.6133 357.64 36.04C357.847 36.4667 358.133 36.7967 358.5 37.03C358.867 37.2567 359.293 37.37 359.78 37.37C360.527 37.37 361.09 37.1533 361.47 36.72C361.85 36.28 362.067 35.68 362.12 34.92H360.1V34.26H362.98V38H362.21L362.14 36.85C361.887 37.2567 361.577 37.57 361.21 37.79C360.843 38.01 360.357 38.12 359.75 38.12ZM364.308 38V31H366.608C367.155 31 367.605 31.09 367.958 31.27C368.312 31.45 368.572 31.6933 368.738 32C368.912 32.3067 368.998 32.6533 368.998 33.04C368.998 33.42 368.915 33.7633 368.748 34.07C368.582 34.3767 368.322 34.6233 367.968 34.81C367.615 34.99 367.162 35.08 366.608 35.08H365.148V38H364.308ZM365.148 34.37H366.588C367.148 34.37 367.545 34.2533 367.778 34.02C368.018 33.78 368.138 33.4533 368.138 33.04C368.138 32.62 368.018 32.2933 367.778 32.06C367.545 31.82 367.148 31.7 366.588 31.7H365.148V34.37ZM372.629 38.12C372.149 38.12 371.713 38.0267 371.319 37.84C370.933 37.6467 370.623 37.35 370.389 36.95C370.156 36.55 370.039 36.04 370.039 35.42V31H370.879V35.43C370.879 36.11 371.043 36.6033 371.369 36.91C371.696 37.2167 372.123 37.37 372.649 37.37C373.176 37.37 373.599 37.2167 373.919 36.91C374.239 36.6033 374.399 36.11 374.399 35.43V31H375.239V35.42C375.239 36.04 375.123 36.55 374.889 36.95C374.656 37.35 374.343 37.6467 373.949 37.84C373.556 38.0267 373.116 38.12 372.629 38.12ZM382.378 38.12C381.692 38.12 381.098 37.97 380.598 37.67C380.105 37.3633 379.722 36.94 379.448 36.4C379.175 35.8533 379.038 35.22 379.038 34.5C379.038 33.7867 379.175 33.16 379.448 32.62C379.722 32.0733 380.105 31.6467 380.598 31.34C381.098 31.0333 381.692 30.88 382.378 30.88C383.178 30.88 383.828 31.0733 384.328 31.46C384.835 31.84 385.158 32.3733 385.298 33.06H384.368C384.262 32.6267 384.042 32.28 383.708 32.02C383.382 31.7533 382.938 31.62 382.378 31.62C381.878 31.62 381.442 31.7367 381.068 31.97C380.695 32.1967 380.405 32.5267 380.198 32.96C379.998 33.3867 379.898 33.9 379.898 34.5C379.898 35.1 379.998 35.6167 380.198 36.05C380.405 36.4767 380.695 36.8067 381.068 37.04C381.442 37.2667 381.878 37.38 382.378 37.38C382.938 37.38 383.382 37.2533 383.708 37C384.042 36.74 384.262 36.3967 384.368 35.97H385.298C385.158 36.6433 384.835 37.17 384.328 37.55C383.828 37.93 383.178 38.12 382.378 38.12ZM386.456 38V30.8H387.296V38H386.456ZM390.932 38.12C390.466 38.12 390.046 38.0133 389.672 37.8C389.299 37.5867 389.002 37.2867 388.782 36.9C388.569 36.5067 388.462 36.0467 388.462 35.52C388.462 34.9933 388.572 34.5367 388.792 34.15C389.012 33.7567 389.309 33.4533 389.682 33.24C390.062 33.0267 390.486 32.92 390.952 32.92C391.419 32.92 391.839 33.0267 392.212 33.24C392.586 33.4533 392.879 33.7567 393.092 34.15C393.312 34.5367 393.422 34.9933 393.422 35.52C393.422 36.0467 393.312 36.5067 393.092 36.9C392.872 37.2867 392.572 37.5867 392.192 37.8C391.819 38.0133 391.399 38.12 390.932 38.12ZM390.932 37.4C391.219 37.4 391.486 37.33 391.732 37.19C391.979 37.05 392.179 36.84 392.332 36.56C392.486 36.28 392.562 35.9333 392.562 35.52C392.562 35.1067 392.486 34.76 392.332 34.48C392.186 34.2 391.989 33.99 391.742 33.85C391.496 33.71 391.232 33.64 390.952 33.64C390.666 33.64 390.399 33.71 390.152 33.85C389.906 33.99 389.706 34.2 389.552 34.48C389.399 34.76 389.322 35.1067 389.322 35.52C389.322 35.9333 389.399 36.28 389.552 36.56C389.706 36.84 389.902 37.05 390.142 37.19C390.389 37.33 390.652 37.4 390.932 37.4ZM396.4 38.12C395.814 38.12 395.347 37.9433 395 37.59C394.654 37.23 394.48 36.68 394.48 35.94V33.04H395.32V35.85C395.32 36.8833 395.744 37.4 396.59 37.4C397.024 37.4 397.38 37.2467 397.66 36.94C397.947 36.6267 398.09 36.1833 398.09 35.61V33.04H398.93V38H398.17L398.11 37.11C397.957 37.4233 397.727 37.67 397.42 37.85C397.12 38.03 396.78 38.12 396.4 38.12ZM402.563 38.12C402.07 38.12 401.636 38.0067 401.263 37.78C400.896 37.5533 400.61 37.2433 400.403 36.85C400.203 36.4567 400.103 36.01 400.103 35.51C400.103 35.01 400.206 34.5667 400.413 34.18C400.62 33.7867 400.906 33.48 401.273 33.26C401.64 33.0333 402.073 32.92 402.573 32.92C402.98 32.92 403.34 33.0033 403.653 33.17C403.966 33.3367 404.21 33.57 404.383 33.87V30.8H405.223V38H404.463L404.383 37.18C404.223 37.42 403.993 37.6367 403.693 37.83C403.393 38.0233 403.016 38.12 402.563 38.12ZM402.653 37.39C402.986 37.39 403.28 37.3133 403.533 37.16C403.793 37 403.993 36.78 404.133 36.5C404.28 36.22 404.353 35.8933 404.353 35.52C404.353 35.1467 404.28 34.82 404.133 34.54C403.993 34.26 403.793 34.0433 403.533 33.89C403.28 33.73 402.986 33.65 402.653 33.65C402.326 33.65 402.033 33.73 401.773 33.89C401.52 34.0433 401.32 34.26 401.173 34.54C401.033 34.82 400.963 35.1467 400.963 35.52C400.963 35.8933 401.033 36.22 401.173 36.5C401.32 36.78 401.52 37 401.773 37.16C402.033 37.3133 402.326 37.39 402.653 37.39Z" fill="#E5E7F3"/>
<path d="M274.92 203.12C274.233 203.12 273.63 202.97 273.11 202.67C272.597 202.363 272.193 201.937 271.9 201.39C271.613 200.843 271.47 200.213 271.47 199.5C271.47 198.787 271.613 198.16 271.9 197.62C272.193 197.073 272.597 196.647 273.11 196.34C273.63 196.033 274.233 195.88 274.92 195.88C275.613 195.88 276.217 196.033 276.73 196.34C277.25 196.647 277.653 197.073 277.94 197.62C278.227 198.16 278.37 198.787 278.37 199.5C278.37 200.213 278.227 200.843 277.94 201.39C277.653 201.93 277.26 202.35 276.76 202.65L278.53 204.35H277.44L276.02 202.97C275.68 203.07 275.313 203.12 274.92 203.12ZM274.92 202.38C275.433 202.38 275.883 202.267 276.27 202.04C276.663 201.807 276.967 201.477 277.18 201.05C277.4 200.617 277.51 200.1 277.51 199.5C277.51 198.9 277.4 198.387 277.18 197.96C276.967 197.533 276.663 197.207 276.27 196.98C275.883 196.747 275.433 196.63 274.92 196.63C274.407 196.63 273.953 196.747 273.56 196.98C273.173 197.207 272.87 197.533 272.65 197.96C272.437 198.387 272.33 198.9 272.33 199.5C272.33 200.1 272.437 200.617 272.65 201.05C272.87 201.477 273.173 201.807 273.56 202.04C273.953 202.267 274.407 202.38 274.92 202.38ZM281.42 203.12C280.833 203.12 280.367 202.943 280.02 202.59C279.673 202.23 279.5 201.68 279.5 200.94V198.04H280.34V200.85C280.34 201.883 280.763 202.4 281.61 202.4C282.043 202.4 282.4 202.247 282.68 201.94C282.967 201.627 283.11 201.183 283.11 200.61V198.04H283.95V203H283.19L283.13 202.11C282.977 202.423 282.747 202.67 282.44 202.85C282.14 203.03 281.8 203.12 281.42 203.12ZM286.983 203.12C286.569 203.12 286.226 203.05 285.953 202.91C285.679 202.77 285.476 202.583 285.343 202.35C285.209 202.117 285.143 201.863 285.143 201.59C285.143 201.083 285.336 200.693 285.723 200.42C286.109 200.147 286.636 200.01 287.303 200.01H288.643V199.95C288.643 199.517 288.529 199.19 288.303 198.97C288.076 198.743 287.773 198.63 287.393 198.63C287.066 198.63 286.783 198.713 286.543 198.88C286.309 199.04 286.163 199.277 286.103 199.59H285.243C285.276 199.23 285.396 198.927 285.603 198.68C285.816 198.433 286.079 198.247 286.393 198.12C286.706 197.987 287.039 197.92 287.393 197.92C288.086 197.92 288.606 198.107 288.953 198.48C289.306 198.847 289.483 199.337 289.483 199.95V203H288.733L288.683 202.11C288.543 202.39 288.336 202.63 288.063 202.83C287.796 203.023 287.436 203.12 286.983 203.12ZM287.113 202.41C287.433 202.41 287.706 202.327 287.933 202.16C288.166 201.993 288.343 201.777 288.463 201.51C288.583 201.243 288.643 200.963 288.643 200.67V200.66H287.373C286.879 200.66 286.529 200.747 286.323 200.92C286.123 201.087 286.023 201.297 286.023 201.55C286.023 201.81 286.116 202.02 286.303 202.18C286.496 202.333 286.766 202.41 287.113 202.41ZM290.743 203V198.04H291.503L291.553 198.93C291.713 198.617 291.943 198.37 292.243 198.19C292.543 198.01 292.883 197.92 293.263 197.92C293.849 197.92 294.316 198.1 294.663 198.46C295.016 198.813 295.193 199.36 295.193 200.1V203H294.353V200.19C294.353 199.157 293.926 198.64 293.073 198.64C292.646 198.64 292.289 198.797 292.003 199.11C291.723 199.417 291.583 199.857 291.583 200.43V203H290.743ZM298.425 203C297.972 203 297.615 202.89 297.355 202.67C297.095 202.45 296.965 202.053 296.965 201.48V198.75H296.105V198.04H296.965L297.075 196.85H297.805V198.04H299.265V198.75H297.805V201.48C297.805 201.793 297.869 202.007 297.995 202.12C298.122 202.227 298.345 202.28 298.665 202.28H299.185V203H298.425ZM302.143 203.12C301.556 203.12 301.089 202.943 300.743 202.59C300.396 202.23 300.223 201.68 300.223 200.94V198.04H301.063V200.85C301.063 201.883 301.486 202.4 302.333 202.4C302.766 202.4 303.123 202.247 303.403 201.94C303.689 201.627 303.833 201.183 303.833 200.61V198.04H304.673V203H303.913L303.853 202.11C303.699 202.423 303.469 202.67 303.163 202.85C302.863 203.03 302.523 203.12 302.143 203.12ZM306.055 203V198.04H306.815L306.875 198.76C307.035 198.493 307.249 198.287 307.515 198.14C307.782 197.993 308.082 197.92 308.415 197.92C308.809 197.92 309.145 198 309.425 198.16C309.712 198.32 309.932 198.563 310.085 198.89C310.259 198.59 310.495 198.353 310.795 198.18C311.102 198.007 311.432 197.92 311.785 197.92C312.379 197.92 312.852 198.1 313.205 198.46C313.559 198.813 313.735 199.36 313.735 200.1V203H312.905V200.19C312.905 199.677 312.802 199.29 312.595 199.03C312.389 198.77 312.092 198.64 311.705 198.64C311.305 198.64 310.972 198.797 310.705 199.11C310.445 199.417 310.315 199.857 310.315 200.43V203H309.475V200.19C309.475 199.677 309.372 199.29 309.165 199.03C308.959 198.77 308.662 198.64 308.275 198.64C307.882 198.64 307.552 198.797 307.285 199.11C307.025 199.417 306.895 199.857 306.895 200.43V203H306.055ZM274.81 216.12C274.123 216.12 273.53 215.97 273.03 215.67C272.537 215.363 272.153 214.94 271.88 214.4C271.607 213.853 271.47 213.22 271.47 212.5C271.47 211.787 271.607 211.16 271.88 210.62C272.153 210.073 272.537 209.647 273.03 209.34C273.53 209.033 274.123 208.88 274.81 208.88C275.61 208.88 276.26 209.073 276.76 209.46C277.267 209.84 277.59 210.373 277.73 211.06H276.8C276.693 210.627 276.473 210.28 276.14 210.02C275.813 209.753 275.37 209.62 274.81 209.62C274.31 209.62 273.873 209.737 273.5 209.97C273.127 210.197 272.837 210.527 272.63 210.96C272.43 211.387 272.33 211.9 272.33 212.5C272.33 213.1 272.43 213.617 272.63 214.05C272.837 214.477 273.127 214.807 273.5 215.04C273.873 215.267 274.31 215.38 274.81 215.38C275.37 215.38 275.813 215.253 276.14 215C276.473 214.74 276.693 214.397 276.8 213.97H277.73C277.59 214.643 277.267 215.17 276.76 215.55C276.26 215.93 275.61 216.12 274.81 216.12ZM278.887 216V208.8H279.727V216H278.887ZM283.364 216.12C282.897 216.12 282.477 216.013 282.104 215.8C281.731 215.587 281.434 215.287 281.214 214.9C281.001 214.507 280.894 214.047 280.894 213.52C280.894 212.993 281.004 212.537 281.224 212.15C281.444 211.757 281.741 211.453 282.114 211.24C282.494 211.027 282.917 210.92 283.384 210.92C283.851 210.92 284.271 211.027 284.644 211.24C285.017 211.453 285.311 211.757 285.524 212.15C285.744 212.537 285.854 212.993 285.854 213.52C285.854 214.047 285.744 214.507 285.524 214.9C285.304 215.287 285.004 215.587 284.624 215.8C284.251 216.013 283.831 216.12 283.364 216.12ZM283.364 215.4C283.651 215.4 283.917 215.33 284.164 215.19C284.411 215.05 284.611 214.84 284.764 214.56C284.917 214.28 284.994 213.933 284.994 213.52C284.994 213.107 284.917 212.76 284.764 212.48C284.617 212.2 284.421 211.99 284.174 211.85C283.927 211.71 283.664 211.64 283.384 211.64C283.097 211.64 282.831 211.71 282.584 211.85C282.337 211.99 282.137 212.2 281.984 212.48C281.831 212.76 281.754 213.107 281.754 213.52C281.754 213.933 281.831 214.28 281.984 214.56C282.137 214.84 282.334 215.05 282.574 215.19C282.821 215.33 283.084 215.4 283.364 215.4ZM288.832 216.12C288.245 216.12 287.779 215.943 287.432 215.59C287.085 215.23 286.912 214.68 286.912 213.94V211.04H287.752V213.85C287.752 214.883 288.175 215.4 289.022 215.4C289.455 215.4 289.812 215.247 290.092 214.94C290.379 214.627 290.522 214.183 290.522 213.61V211.04H291.362V216H290.602L290.542 215.11C290.389 215.423 290.159 215.67 289.852 215.85C289.552 216.03 289.212 216.12 288.832 216.12ZM294.995 216.12C294.501 216.12 294.068 216.007 293.695 215.78C293.328 215.553 293.041 215.243 292.835 214.85C292.635 214.457 292.535 214.01 292.535 213.51C292.535 213.01 292.638 212.567 292.845 212.18C293.051 211.787 293.338 211.48 293.705 211.26C294.071 211.033 294.505 210.92 295.005 210.92C295.411 210.92 295.771 211.003 296.085 211.17C296.398 211.337 296.641 211.57 296.815 211.87V208.8H297.655V216H296.895L296.815 215.18C296.655 215.42 296.425 215.637 296.125 215.83C295.825 216.023 295.448 216.12 294.995 216.12ZM295.085 215.39C295.418 215.39 295.711 215.313 295.965 215.16C296.225 215 296.425 214.78 296.565 214.5C296.711 214.22 296.785 213.893 296.785 213.52C296.785 213.147 296.711 212.82 296.565 212.54C296.425 212.26 296.225 212.043 295.965 211.89C295.711 211.73 295.418 211.65 295.085 211.65C294.758 211.65 294.465 211.73 294.205 211.89C293.951 212.043 293.751 212.26 293.605 212.54C293.465 212.82 293.395 213.147 293.395 213.52C293.395 213.893 293.465 214.22 293.605 214.5C293.751 214.78 293.951 215 294.205 215.16C294.465 215.313 294.758 215.39 295.085 215.39Z" fill="#E5E7F3"/>
<rect x="1" y="1" width="720" height="260" rx="17" stroke="#5552FF" stroke-width="2"/>
<defs>
<clipPath id="clip0_85_175">
<rect width="23.4077" height="23.4077" fill="white" transform="matrix(0.83205 0.5547 -0.830139 0.557556 545.222 44.6404)"/>
</clipPath>
<clipPath id="clip1_85_175">
<rect width="23.4077" height="23.4077" fill="white" transform="matrix(0.83205 0.5547 -0.830139 0.557556 128.222 71.6405)"/>
</clipPath>
<clipPath id="clip2_85_175">
<rect width="23.4077" height="23.4077" fill="white" transform="matrix(0.83205 0.5547 -0.830139 0.557556 234.222 179.641)"/>
</clipPath>
<clipPath id="clip3_85_175">
<rect width="23.4077" height="23.4077" fill="white" transform="matrix(0.83205 0.5547 -0.830139 0.557556 533.222 179.641)"/>
</clipPath>
</defs>
</svg>
