<svg width="60" height="20" viewBox="0 0 60 20" fill="none" xmlns="http://www.w3.org/2000/svg">
<path d="M4.21053 12.6315C4.21053 13.7941 3.26784 14.7368 2.10526 14.7368C0.942689 14.7368 0 13.7941 0 12.6315C0 11.4689 0.942689 10.5262 2.10526 10.5262H4.21053V12.6315Z" fill="#E01E5A"/>
<path d="M5.26315 12.6315C5.26315 11.4689 6.20584 10.5262 7.36842 10.5262C8.53099 10.5262 9.47368 11.4689 9.47368 12.6315V17.8947C9.47368 19.0572 8.53099 19.9999 7.36842 19.9999C6.20584 19.9999 5.26315 19.0572 5.26315 17.8947V12.6315Z" fill="#E01E5A"/>
<path d="M7.36842 4.21053C6.20584 4.21053 5.26315 3.26784 5.26315 2.10526C5.26315 0.94269 6.20584 0 7.36842 0C8.53099 0 9.47368 0.94269 9.47368 2.10526V4.21053H7.36842Z" fill="#36C5F0"/>
<path d="M7.36842 5.26318C8.53099 5.26318 9.47368 6.20587 9.47368 7.36845C9.47368 8.53102 8.53099 9.47371 7.36842 9.47371H2.10526C0.942689 9.47371 0 8.53102 0 7.36845C0 6.20587 0.942689 5.26318 2.10526 5.26318H7.36842Z" fill="#36C5F0"/>
<path d="M15.7894 7.36845C15.7894 6.20587 16.7321 5.26318 17.8946 5.26318C19.0572 5.26318 19.9999 6.20587 19.9999 7.36845C19.9999 8.53102 19.0572 9.47371 17.8946 9.47371H15.7894V7.36845Z" fill="#2EB67D"/>
<path d="M14.7368 7.36842C14.7368 8.53099 13.7941 9.47368 12.6316 9.47368C11.469 9.47368 10.5263 8.53099 10.5263 7.36842V2.10526C10.5263 0.94269 11.469 0 12.6316 0C13.7941 0 14.7368 0.94269 14.7368 2.10526V7.36842Z" fill="#2EB67D"/>
<path d="M12.6315 15.7894C13.7941 15.7894 14.7367 16.7321 14.7367 17.8947C14.7367 19.0573 13.7941 20 12.6315 20C11.4689 20 10.5262 19.0573 10.5262 17.8947V15.7894H12.6315Z" fill="#ECB22E"/>
<path d="M12.6316 14.7368C11.469 14.7368 10.5263 13.7941 10.5263 12.6315C10.5263 11.4689 11.469 10.5262 12.6316 10.5262H17.8947C19.0573 10.5262 20 11.4689 20 12.6315C20 13.7941 19.0573 14.7368 17.8947 14.7368H12.6316Z" fill="#ECB22E"/>
<path d="M31.2528 12.298C31.2528 12.8953 31.1081 13.404 30.8188 13.824C30.5295 14.244 30.1141 14.5707 29.5728 14.804C29.0315 15.028 28.3875 15.14 27.6408 15.14C27.2768 15.14 26.9268 15.1167 26.5908 15.07C26.2548 15.0327 25.9421 14.9767 25.6528 14.902C25.3635 14.8273 25.1068 14.734 24.8828 14.622V13.194C25.2561 13.362 25.6948 13.516 26.1988 13.656C26.7028 13.7867 27.2161 13.852 27.7388 13.852C28.1868 13.852 28.5601 13.7913 28.8588 13.67C29.1575 13.5487 29.3815 13.3807 29.5308 13.166C29.6801 12.9513 29.7548 12.6993 29.7548 12.41C29.7548 12.102 29.6755 11.8453 29.5168 11.64C29.3675 11.4253 29.1295 11.2293 28.8028 11.052C28.4855 10.8653 28.0561 10.6693 27.5148 10.464C27.1415 10.324 26.8008 10.17 26.4928 10.002C26.1941 9.82467 25.9281 9.61933 25.6948 9.386C25.4708 9.15267 25.2981 8.882 25.1768 8.574C25.0555 8.266 24.9948 7.90667 24.9948 7.496C24.9948 6.94533 25.1301 6.474 25.4008 6.082C25.6808 5.69 26.0635 5.39133 26.5488 5.186C27.0341 4.97133 27.5988 4.864 28.2428 4.864C28.7841 4.864 29.2835 4.92 29.7408 5.032C30.2075 5.13467 30.6508 5.27933 31.0708 5.466L30.5948 6.712C30.2121 6.55333 29.8248 6.42267 29.4328 6.32C29.0408 6.21733 28.6301 6.166 28.2008 6.166C27.8275 6.166 27.5148 6.222 27.2628 6.334C27.0108 6.446 26.8195 6.6 26.6888 6.796C26.5675 6.992 26.5068 7.22067 26.5068 7.482C26.5068 7.79 26.5768 8.04667 26.7168 8.252C26.8568 8.45733 27.0808 8.64867 27.3888 8.826C27.6968 8.994 28.1028 9.18067 28.6068 9.386C29.1668 9.60067 29.6428 9.834 30.0348 10.086C30.4361 10.338 30.7395 10.6413 30.9448 10.996C31.1501 11.3413 31.2528 11.7753 31.2528 12.298ZM34.8061 15H33.3221V4.36H34.8061V15ZM40.3425 7.314C41.2945 7.314 42.0039 7.524 42.4705 7.944C42.9372 8.35467 43.1705 9.00333 43.1705 9.89V15H42.1205L41.8265 13.95H41.7705C41.5559 14.2207 41.3319 14.4447 41.0985 14.622C40.8745 14.7993 40.6132 14.93 40.3145 15.014C40.0252 15.098 39.6705 15.14 39.2505 15.14C38.8025 15.14 38.3965 15.0607 38.0325 14.902C37.6779 14.734 37.3979 14.482 37.1925 14.146C36.9872 13.8007 36.8845 13.3713 36.8845 12.858C36.8845 12.0927 37.1739 11.5093 37.7525 11.108C38.3405 10.7067 39.2319 10.4873 40.4265 10.45L41.7145 10.408V9.988C41.7145 9.428 41.5885 9.036 41.3365 8.812C41.0845 8.588 40.7299 8.476 40.2725 8.476C39.8805 8.476 39.5072 8.532 39.1525 8.644C38.7979 8.756 38.4619 8.89133 38.1445 9.05L37.6685 7.972C38.0232 7.78533 38.4292 7.63133 38.8865 7.51C39.3532 7.37933 39.8385 7.314 40.3425 7.314ZM40.6925 11.402C39.8339 11.4393 39.2365 11.584 38.9005 11.836C38.5739 12.0787 38.4105 12.424 38.4105 12.872C38.4105 13.264 38.5272 13.5487 38.7605 13.726C39.0032 13.9033 39.3065 13.992 39.6705 13.992C40.2585 13.992 40.7439 13.8287 41.1265 13.502C41.5092 13.1753 41.7005 12.6853 41.7005 12.032V11.374L40.6925 11.402ZM48.7736 15.14C48.0829 15.14 47.4763 15.0047 46.9536 14.734C46.4309 14.4633 46.0249 14.0433 45.7356 13.474C45.4463 12.8953 45.3016 12.1627 45.3016 11.276C45.3016 10.3427 45.4556 9.58667 45.7636 9.008C46.0809 8.42933 46.5056 8.00467 47.0376 7.734C47.5789 7.454 48.1949 7.314 48.8856 7.314C49.3056 7.314 49.6976 7.36067 50.0616 7.454C50.4349 7.538 50.7429 7.636 50.9856 7.748L50.5376 8.952C50.2763 8.84933 49.9963 8.76067 49.6976 8.686C49.4083 8.61133 49.1329 8.574 48.8716 8.574C48.4049 8.574 48.0176 8.67667 47.7096 8.882C47.4109 9.078 47.1869 9.37667 47.0376 9.778C46.8976 10.17 46.8276 10.6647 46.8276 11.262C46.8276 11.8313 46.9023 12.312 47.0516 12.704C47.2009 13.096 47.4203 13.3947 47.7096 13.6C48.0083 13.796 48.3769 13.894 48.8156 13.894C49.2356 13.894 49.6043 13.8473 49.9216 13.754C50.2389 13.6607 50.5376 13.5393 50.8176 13.39V14.678C50.5469 14.8367 50.2529 14.9533 49.9356 15.028C49.6183 15.1027 49.2309 15.14 48.7736 15.14ZM54.3489 9.68C54.3489 9.876 54.3395 10.1 54.3209 10.352C54.3115 10.604 54.2975 10.8373 54.2789 11.052H54.3209C54.3955 10.9587 54.4842 10.8467 54.5869 10.716C54.6989 10.576 54.8109 10.436 54.9229 10.296C55.0349 10.156 55.1375 10.0347 55.2309 9.932L57.5409 7.454H59.2629L56.2249 10.688L59.4589 15H57.7089L55.2169 11.626L54.3489 12.354V15H52.8789V4.36H54.3489V9.68Z" fill="#6D7CFF"/>
</svg>
