<svg width="160" height="53" viewBox="0 0 160 53" fill="none" xmlns="http://www.w3.org/2000/svg">
<rect x="0.5" y="1.07349" width="159" height="51" rx="7.5" stroke="#CBCBD7"/>
<g clip-path="url(#clip0_989_913)">
<path d="M53.0751 15.5735C52.3016 15.5735 51.6748 16.21 51.6748 16.9953V19.732C51.6748 20.5168 52.3016 21.154 53.0751 21.154H55.8566C56.6301 21.154 57.258 20.5168 57.258 19.732V16.9953C57.258 16.21 56.6301 15.5735 55.8566 15.5735H53.0751ZM59.9118 19.9037C59.3308 19.9037 58.8596 20.3904 58.8596 20.9892V23.0775C58.8596 23.6769 59.3308 24.1633 59.9118 24.1633H62.0016C62.5827 24.1633 63.0535 23.6769 63.0535 23.0775V20.9892C63.0535 20.3904 62.5827 19.9037 62.0016 19.9037H59.9118ZM46.9301 19.9037C46.3492 19.9037 45.878 20.3904 45.878 20.9892V23.0775C45.878 23.6769 46.3492 24.1633 46.9301 24.1633H49.0197C49.6005 24.1633 50.0719 23.6769 50.0719 23.0775V20.9892C50.0719 20.3904 49.6005 19.9037 49.0197 19.9037H46.9301ZM53.0751 22.299C52.3016 22.299 51.6748 22.9351 51.6748 23.7209V26.4574C51.6748 27.2426 52.3016 27.8796 53.0751 27.8796H55.8566C56.6301 27.8796 57.258 27.2426 57.258 26.4574V23.7209C57.258 22.9351 56.6301 22.299 55.8566 22.299H53.0751ZM65.2877 23.5819C64.8556 23.5819 64.5053 23.9432 64.5053 24.3895V25.943C64.5053 26.3883 64.8556 26.75 65.2877 26.75H66.8423C67.2742 26.75 67.6247 26.3883 67.6247 25.943V24.3895C67.6247 23.9432 67.2742 23.5819 66.8423 23.5819H65.2877ZM42.158 23.5819C41.726 23.5819 41.3753 23.9432 41.3753 24.3895V25.943C41.3753 26.3883 41.726 26.75 42.158 26.75H43.7122C44.1447 26.75 44.495 26.3883 44.495 25.943V24.3895C44.495 23.9432 44.1447 23.5819 43.7122 23.5819H42.158ZM59.9118 25.2169C59.3308 25.2169 58.8596 25.7028 58.8596 26.3017V28.3907C58.8596 28.9896 59.3308 29.4758 59.9118 29.4758H62.0016C62.5827 29.4758 63.0535 28.9896 63.0535 28.3907V26.3017C63.0535 25.7028 62.5827 25.2169 62.0016 25.2169H59.9118ZM46.9301 25.2169C46.3492 25.2169 45.878 25.7028 45.878 26.3017V28.3907C45.878 28.9896 46.3492 29.4758 46.9301 29.4758H49.0197C49.6005 29.4758 50.0719 28.9896 50.0719 28.3907V26.3017C50.0719 25.7028 49.6005 25.2169 49.0197 25.2169H46.9301ZM65.2877 27.8484C64.8556 27.8484 64.5053 28.2096 64.5053 28.6553V30.2088C64.5053 30.6542 64.8556 31.016 65.2877 31.016H66.8423C67.2742 31.016 67.6247 30.6542 67.6247 30.2088V28.6553C67.6247 28.2096 67.2742 27.8484 66.8423 27.8484H65.2877ZM42.158 27.8484C41.726 27.8484 41.3753 28.2096 41.3753 28.6553V30.2088C41.3753 30.6542 41.726 31.016 42.158 31.016H43.7122C44.1447 31.016 44.495 30.6542 44.495 30.2088V28.6553C44.495 28.2096 44.1447 27.8484 43.7122 27.8484H42.158ZM53.0751 28.9659C52.3016 28.9659 51.6748 29.6026 51.6748 30.3881V33.1247C51.6748 33.91 52.3016 34.5463 53.0751 34.5463H55.8566C56.6301 34.5463 57.258 33.91 57.258 33.1247V30.3881C57.258 29.6026 56.6301 28.9659 55.8566 28.9659H53.0751ZM69.8821 30.1351C69.5608 30.1351 69.3008 30.4037 69.3008 30.7345V31.8877C69.3008 32.2185 69.5608 32.4866 69.8821 32.4866H71.036C71.3564 32.4866 71.6162 32.2185 71.6162 31.8877V30.7345C71.6162 30.4037 71.3564 30.1351 71.036 30.1351H69.8821ZM37.9646 30.1351C37.6437 30.1351 37.3838 30.4037 37.3838 30.7345V31.8877C37.3838 32.2185 37.6437 32.4866 37.9646 32.4866H39.118C39.4391 32.4866 39.699 32.2185 39.699 31.8877V30.7345C39.699 30.4037 39.4391 30.1351 39.118 30.1351H37.9646ZM59.9118 30.531C59.3308 30.531 58.8596 31.0166 58.8596 31.6156V33.7042C58.8596 34.3036 59.3308 34.7897 59.9118 34.7897H62.0016C62.5827 34.7897 63.0535 34.3036 63.0535 33.7042V31.6156C63.0535 31.0166 62.5827 30.531 62.0016 30.531H59.9118ZM46.9301 30.531C46.3492 30.531 45.878 31.0166 45.878 31.6156V33.7042C45.878 34.3036 46.3492 34.7897 46.9301 34.7897H49.0197C49.6005 34.7897 50.0719 34.3036 50.0719 33.7042V31.6156C50.0719 31.0166 49.6005 30.531 49.0197 30.531H46.9301ZM65.2877 32.1468C64.8556 32.1468 64.5053 32.5089 64.5053 32.9551V34.5082C64.5053 34.9544 64.8556 35.3152 65.2877 35.3152H66.8423C67.2742 35.3152 67.6247 34.9544 67.6247 34.5082V32.9551C67.6247 32.5089 67.2742 32.1468 66.8423 32.1468H65.2877ZM42.158 32.1468C41.726 32.1468 41.3753 32.5089 41.3753 32.9551V34.5082C41.3753 34.9544 41.726 35.3152 42.158 35.3152H43.7122C44.1447 35.3152 44.495 34.9544 44.495 34.5082V32.9551C44.495 32.5089 44.1447 32.1468 43.7122 32.1468H42.158ZM69.8821 33.6473C69.5608 33.6473 69.3008 33.9156 69.3008 34.2465V35.3997C69.3008 35.7299 69.5608 35.9991 69.8821 35.9991H71.036C71.3564 35.9991 71.6162 35.7299 71.6162 35.3997V34.2465C71.6162 33.9156 71.3564 33.6473 71.036 33.6473H69.8821ZM37.9646 33.6473C37.6437 33.6473 37.3838 33.9156 37.3838 34.2465V35.3997C37.3838 35.7299 37.6437 35.9991 37.9646 35.9991H39.118C39.4391 35.9991 39.699 35.7299 39.699 35.3997V34.2465C39.699 33.9156 39.4391 33.6473 39.118 33.6473H37.9646ZM73.6917 34.7996C73.4495 34.7996 73.2527 35.002 73.2527 35.2517V36.1217C73.2527 36.3707 73.4495 36.5735 73.6917 36.5735H74.5621C74.8033 36.5735 75 36.3707 75 36.1217V35.2517C75 35.002 74.8033 34.7996 74.5621 34.7996H73.6917ZM34.4386 34.7996C34.1965 34.7996 34 35.002 34 35.2517V36.1217C34 36.3707 34.1965 36.5735 34.4386 36.5735H35.3084C35.5506 36.5735 35.7465 36.3707 35.7465 36.1217V35.2517C35.7465 35.002 35.5506 34.7996 35.3084 34.7996H34.4386Z" fill="#42AFEB"/>
<path d="M91.324 32.6726V36.6345H91.6392V35.2757C91.8268 35.4134 92.5874 35.9664 93.0425 36.291C93.3862 36.5191 93.3757 36.6052 93.3802 36.6345H93.8004C93.8004 36.4287 93.5711 36.3261 93.3126 36.146C93.1556 36.0357 91.9919 35.207 91.9919 35.207C91.9919 35.207 93.125 34.4464 93.2826 34.3368C93.5405 34.1563 93.7479 34.0543 93.7479 33.8482H93.3426C93.339 33.8766 93.3568 33.9633 93.0125 34.1917C92.582 34.5004 91.8718 35.0152 91.6392 35.1841V32.6726H91.324ZM94.2807 32.6726V36.6345H94.5959V32.6726H94.2807ZM103.691 32.6726V36.0009V36.0086V36.0467C103.691 36.0962 103.683 36.186 103.654 36.2452C103.618 36.3041 103.605 36.3322 103.511 36.3368H101.965C101.872 36.3322 101.858 36.3041 101.823 36.2452C101.801 36.2009 101.789 36.1423 101.785 36.0925V34.4665V34.4589V34.4284C101.784 34.3774 101.793 34.2815 101.823 34.2223C101.858 34.163 101.871 34.1371 101.965 34.1307H103.511V33.81H101.965C101.752 33.8046 101.593 33.9487 101.537 34.0848C101.475 34.2198 101.471 34.3517 101.47 34.4284V34.4818V35.9856V36.0467V36.1002V36.1536H101.477C101.485 36.2217 101.5 36.3075 101.537 36.3902C101.593 36.5255 101.752 36.6629 101.965 36.6574H103.511H103.526C103.732 36.6574 103.883 36.5228 103.939 36.3902C104 36.255 104.006 36.1224 104.006 36.0467V35.9856V32.6726H103.691ZM89.553 33.8253C89.3795 33.8507 89.2571 33.9738 89.2078 34.0925C89.1456 34.2274 89.1417 34.3597 89.1402 34.436V34.4971V36.6345H89.4554V34.4818V34.4742V34.436C89.4549 34.3847 89.4635 34.2888 89.4929 34.2299C89.5277 34.1706 89.5346 34.1517 89.628 34.1459H90.7987V33.8253H89.628C89.6014 33.8245 89.5777 33.8217 89.553 33.8253ZM106.678 33.8253C106.465 33.8198 106.307 33.9645 106.25 34.1001C106.188 34.2354 106.183 34.3676 106.183 34.4436V34.4971V36.6421H106.505V34.4818L106.498 34.4742V34.4436C106.498 34.3929 106.506 34.2974 106.535 34.2375C106.569 34.1783 106.585 34.1587 106.678 34.1535H107.894V36.6421H108.209V34.1535H109.439C109.533 34.1587 109.54 34.178 109.575 34.2375C109.604 34.2974 109.613 34.3929 109.612 34.4436V34.4742V34.4818V36.6421H109.927V34.4971V34.4436C109.926 34.3676 109.922 34.2351 109.86 34.1001C109.804 33.9645 109.653 33.8198 109.439 33.8253H106.678ZM114.242 33.8253C114.029 33.8201 113.871 33.9648 113.814 34.1001C113.753 34.2354 113.748 34.3676 113.747 34.4436V34.4971V36.6421H114.07V34.4818L114.062 34.4742V34.4436C114.06 34.3929 114.071 34.2974 114.1 34.2375C114.135 34.1786 114.148 34.1514 114.242 34.1459L115.736 34.1536C115.83 34.1588 115.844 34.178 115.878 34.2375C115.908 34.2974 115.917 34.393 115.916 34.4436V34.4742V34.4818V36.6422H116.231V34.4971V34.4437C116.23 34.3676 116.225 34.2351 116.163 34.1001C116.108 33.9649 115.948 33.8201 115.736 33.8253L114.242 33.8253ZM126.654 33.8253C126.481 33.8505 126.358 33.9736 126.309 34.0925C126.246 34.2274 126.243 34.3594 126.242 34.436V34.4971V36.6345H126.557V34.4818V34.4742V34.436C126.555 34.3844 126.564 34.2888 126.594 34.2299C126.627 34.1703 126.643 34.1514 126.737 34.1459H127.908V33.8253H126.737C126.71 33.8245 126.679 33.8217 126.654 33.8253ZM81.6884 33.8482V35.9856C81.6875 35.9954 81.6884 36.0189 81.6884 36.0467C81.6889 36.1224 81.6932 36.255 81.756 36.3902C81.8112 36.5227 81.9625 36.6574 82.1687 36.6574H82.1837H84.9378C85.1512 36.6629 85.3091 36.5255 85.3655 36.3902C85.4274 36.255 85.4325 36.1224 85.4331 36.0467V35.9856V33.8482H85.1179V36.0009V36.0085V36.0467C85.1189 36.0962 85.1092 36.186 85.0804 36.2452C85.0453 36.3044 85.0317 36.3322 84.9378 36.3368H83.7296V33.8482H83.4144V36.3368H82.1837C82.09 36.3322 82.0765 36.3044 82.0411 36.2452C82.0117 36.186 82.0027 36.0962 82.0036 36.0467V36.0085V36.0009V33.8482H81.6884ZM86.4011 33.8482C86.2279 33.8727 86.1051 33.9959 86.0559 34.1154C85.9932 34.2503 85.9887 34.3829 85.9884 34.4589V34.5123V35.9856V36.0467C85.9886 36.1224 85.9932 36.255 86.0559 36.3902C86.1106 36.5227 86.2622 36.6574 86.4687 36.6574H86.4837H88.0446C88.2577 36.6629 88.4159 36.5255 88.4723 36.3902C88.5348 36.255 88.5393 36.1224 88.5399 36.0467L88.5324 35.9933V34.5123L88.5399 34.4589C88.5394 34.3829 88.5348 34.2503 88.4723 34.1154C88.4159 33.9789 88.2577 33.8421 88.0446 33.8482H86.4837C86.4571 33.8474 86.4259 33.8447 86.4011 33.8482ZM95.5864 33.8482C95.4131 33.8727 95.2904 33.9959 95.2412 34.1154C95.1788 34.2503 95.1674 34.3829 95.1662 34.4589L95.1737 34.5123V35.9856L95.1662 36.0467C95.1674 36.1224 95.1788 36.255 95.2412 36.3902C95.2968 36.5227 95.4469 36.6574 95.654 36.6574H95.6615H97.2299C97.4415 36.6629 97.5937 36.5255 97.6501 36.3902C97.7123 36.255 97.7168 36.1224 97.7177 36.0467V35.9933V34.5123V34.4589C97.7167 34.3829 97.7123 34.2503 97.6501 34.1154C97.5937 33.9789 97.4415 33.8421 97.2299 33.8482H95.6615C95.6349 33.8474 95.6112 33.8447 95.5864 33.8482ZM98.318 33.8482V34.1688H100.419C100.513 34.174 100.527 34.1935 100.562 34.2528C100.591 34.312 100.601 34.4091 100.599 34.4589V34.4971V34.5047V36.0009V36.0086V36.0467C100.6 36.0962 100.591 36.186 100.562 36.2452C100.527 36.3044 100.513 36.3319 100.419 36.3368H98.7383C98.6317 36.3322 98.6239 36.3066 98.5957 36.2681C98.5714 36.2272 98.5582 36.1533 98.5582 36.1154V36.0925V36.0849V35.4971V35.4895V35.4513C98.5582 35.4015 98.566 35.3047 98.5957 35.2452C98.6299 35.1859 98.6443 35.1667 98.7383 35.1612H100.419V34.8406H98.7383C98.5248 34.8351 98.3679 34.9725 98.3105 35.1078C98.2484 35.2433 98.2436 35.3749 98.243 35.4513V35.5123V36.0696V36.1154C98.2435 36.1832 98.2511 36.3053 98.318 36.4284C98.3817 36.5533 98.5378 36.6626 98.7383 36.6574H100.419H100.434C100.641 36.6574 100.792 36.5224 100.847 36.3902C100.909 36.2547 100.914 36.1224 100.915 36.0467V35.9856V34.5123V34.4589C100.914 34.3829 100.909 34.2503 100.847 34.1154C100.791 33.9792 100.632 33.8424 100.419 33.8482L98.318 33.8482ZM110.565 33.8482V34.1688H112.674C112.766 34.174 112.774 34.1935 112.809 34.2528C112.838 34.312 112.846 34.4094 112.846 34.4589V34.4971V34.5047V36.0009V36.0086V36.0467C112.846 36.0962 112.838 36.186 112.809 36.2452C112.774 36.3044 112.766 36.3319 112.674 36.3368H110.985C110.891 36.3319 110.878 36.3044 110.843 36.2452C110.814 36.1857 110.805 36.0962 110.805 36.0467V36.0086V36.0009V35.4971V35.4894V35.4818V35.4513C110.804 35.4015 110.814 35.3047 110.843 35.2452C110.878 35.1859 110.891 35.1667 110.985 35.1612H112.674V34.8406H110.985C110.773 34.8351 110.614 34.9725 110.558 35.1078C110.496 35.2433 110.49 35.3749 110.49 35.4513V35.5123V35.9856V36.0467C110.491 36.1224 110.496 36.2546 110.558 36.3902C110.614 36.5252 110.773 36.6629 110.985 36.6574H112.674H112.681C112.888 36.6574 113.039 36.5224 113.094 36.3902C113.156 36.2546 113.161 36.1224 113.162 36.0467V35.9933V34.5123V34.4589C113.161 34.3825 113.156 34.2506 113.094 34.1154C113.039 33.9792 112.886 33.8424 112.674 33.8482H110.565ZM116.891 33.8482V34.1688H118.992C119.086 34.174 119.1 34.1935 119.135 34.2528C119.164 34.312 119.173 34.4094 119.173 34.4589V34.4971V34.5047V36.0009V36.0086V36.0467C119.174 36.0962 119.164 36.186 119.135 36.2452C119.1 36.3044 119.086 36.3319 118.992 36.3368H117.304C117.198 36.3322 117.188 36.3066 117.161 36.2681C117.136 36.2272 117.131 36.1533 117.131 36.1154V36.0925V36.0849V35.4971V35.4895V35.4818V35.4513C117.131 35.4015 117.138 35.3047 117.169 35.2452C117.203 35.1859 117.21 35.1667 117.304 35.1612H118.992V34.8406H117.304C117.091 34.8351 116.94 34.9725 116.884 35.1078C116.822 35.2433 116.817 35.3749 116.816 35.4513V35.5123V36.0696V36.1154C116.816 36.1832 116.824 36.305 116.891 36.4284C116.955 36.5527 117.111 36.6626 117.311 36.6574H118.992H119.007C119.213 36.6574 119.365 36.5224 119.42 36.3902C119.482 36.2546 119.487 36.1224 119.488 36.0467V35.9933V34.5123V34.4589C119.487 34.3825 119.482 34.2506 119.42 34.1154C119.363 33.9792 119.205 33.8424 118.992 33.8482H116.891ZM120.328 33.8482C120.155 33.8733 120.032 33.9962 119.983 34.1154C119.945 34.1984 119.93 34.2763 119.923 34.3444H119.916V34.4055V34.4589V34.5123V35.8101V35.8635C119.917 35.9398 119.921 36.0644 119.983 36.1994C120.038 36.3325 120.19 36.4742 120.396 36.4742H120.411H122.039V36.1536H120.411C120.318 36.1483 120.303 36.1212 120.268 36.062C120.239 36.0027 120.23 35.9145 120.231 35.8635V35.8253V35.8177V34.4131C120.235 34.363 120.248 34.2977 120.268 34.2528C120.303 34.1938 120.318 34.1743 120.411 34.1688H122.092C122.186 34.1743 122.199 34.1938 122.234 34.2528C122.264 34.3126 122.272 34.4091 122.272 34.4589V34.497V34.5047V36.9169V36.9246V36.9628C122.272 37.0131 122.264 37.1096 122.234 37.1689C122.199 37.2278 122.186 37.2477 122.092 37.2528H120.583V37.5735H122.092H122.107C122.313 37.5735 122.464 37.4385 122.52 37.3063C122.581 37.1704 122.586 37.0388 122.587 36.9628V36.9093V34.5123V34.4589C122.587 34.3829 122.581 34.2507 122.52 34.1154C122.463 33.9792 122.305 33.8424 122.092 33.8482H120.411C120.384 33.8474 120.353 33.8446 120.328 33.8482ZM123.518 33.8482C123.345 33.8729 123.223 33.9962 123.172 34.1154C123.111 34.2503 123.106 34.3829 123.105 34.4589V34.5123V35.9856V36.0467C123.105 36.1224 123.111 36.2546 123.172 36.3902C123.229 36.5252 123.388 36.6629 123.6 36.6574H125.701V36.3368H123.6C123.506 36.3319 123.493 36.3044 123.458 36.2452C123.429 36.1859 123.419 36.0962 123.42 36.0467V36.0085V36.0009V34.5047V34.497V34.4894V34.4588C123.419 34.4097 123.429 34.3126 123.458 34.2527C123.493 34.1935 123.506 34.174 123.6 34.1688H125.281C125.374 34.174 125.389 34.1935 125.424 34.2527C125.449 34.3053 125.459 34.3831 125.461 34.4359V35.0085V35.0161V35.0238V35.039C125.462 35.0702 125.453 35.1285 125.431 35.1612C125.408 35.1914 125.392 35.218 125.281 35.2222H123.6V35.5505H125.281H125.296C125.486 35.5505 125.635 35.4531 125.701 35.3367C125.77 35.2198 125.776 35.1029 125.776 35.039V34.9932V34.5123V34.4589C125.776 34.3825 125.771 34.2506 125.709 34.1153C125.653 33.9792 125.493 33.8424 125.281 33.8482H123.6C123.574 33.8474 123.542 33.8446 123.518 33.8482ZM86.4837 34.1688H88.0446C88.1373 34.174 88.1526 34.1932 88.1872 34.2528C88.2157 34.312 88.2253 34.4091 88.2247 34.4589L88.2172 34.4971V34.5047V36.0009V36.0086L88.2247 36.0467C88.2252 36.0962 88.2157 36.186 88.1872 36.2452C88.1526 36.3044 88.1373 36.3322 88.0446 36.3368H86.4837C86.3903 36.3322 86.3759 36.3044 86.3411 36.2452C86.3123 36.186 86.3027 36.0962 86.3036 36.0467V36.0086V36.0009V34.5047V34.4971V34.4589C86.3026 34.4091 86.3123 34.312 86.3411 34.2528C86.3759 34.1932 86.3897 34.174 86.4837 34.1688ZM95.6615 34.1688H97.2299C97.3226 34.174 97.3302 34.1932 97.365 34.2528C97.3944 34.312 97.4031 34.4091 97.4025 34.4589V34.4971V34.5047V36.0009V36.0086V36.0467C97.403 36.0962 97.3944 36.186 97.365 36.2452C97.3302 36.3044 97.3226 36.3322 97.2299 36.3368H95.6615C95.5678 36.3322 95.5615 36.3044 95.5264 36.2452C95.4979 36.186 95.488 36.0962 95.4889 36.0467V36.0086V36.0009V34.5047V34.4971V34.4589C95.4879 34.4091 95.4979 34.312 95.5264 34.2528C95.5615 34.1932 95.5678 34.174 95.6615 34.1688Z" fill="white"/>
<path d="M127.45 20.7632C127.1 20.4768 126.437 20.413 126.054 20.4005C125.877 20.3956 125.759 20.4005 125.759 20.4005H116.759C116.759 20.4005 116.486 20.3791 116.153 20.4005C115.827 20.4219 115.445 20.4839 115.205 20.6494C114.596 21.0668 114.52 21.7486 114.52 22.3672V30.2266H116.759V23.3263C116.759 22.3361 117.593 22.4445 117.593 22.4445H120.193V30.2172H122.327V22.4445H124.987C125.703 22.4445 125.756 23.0781 125.759 23.2201V23.2497V30.2266H128V22.4445V22.3892C127.996 22.1468 127.953 21.1749 127.45 20.7632ZM108.515 20.4005C108.189 20.4219 107.806 20.4839 107.566 20.6494C106.957 21.0668 106.882 21.7486 106.882 22.3672V30.2266H109.121V23.3263C109.121 22.3361 109.955 22.4445 109.955 22.4445H112.925V20.4005H109.121C109.121 20.4005 108.848 20.3791 108.515 20.4005ZM102.808 27.2919C102.808 28.2819 101.974 28.1741 101.974 28.1741H98.9163C98.2012 28.1741 98.1472 27.5395 98.1448 27.3969V27.3686V20.3901H95.9046V28.1741V28.2293C95.9073 28.4699 95.9508 29.4431 96.4542 29.855C96.8036 30.1411 97.4661 30.2052 97.8494 30.2172C98.0265 30.2229 98.1448 30.2172 98.1448 30.2172H102.808C102.808 30.2172 103.081 30.2391 103.414 30.2172C103.74 30.1961 104.122 30.1332 104.362 29.9683C104.97 29.55 105.048 28.87 105.048 28.2507V20.3901H102.808V27.2919ZM91.7154 30.2172H93.9547V16.2395H91.7154V30.2172ZM89.7274 25.7322C89.7274 25.7322 89.7478 25.01 89.3044 24.6983C88.8962 24.4137 88.3093 24.4137 88.3093 24.4137H84.2315C84.2315 24.4137 83.6176 24.4555 83.6176 23.7893V23.0894C83.6176 23.0894 83.5636 22.3501 84.344 22.3501H89.6322V20.3901H83.9109C83.9109 20.3901 82.9629 20.377 82.5865 20.4677C82.0882 20.5877 81.5449 20.8472 81.5449 22.0002V24.7816C81.5449 26.2922 82.9605 26.1337 82.9605 26.1337H86.7616C87.6625 26.1337 87.5985 26.8104 87.5985 26.8104V27.4791C87.5985 28.3631 86.6137 28.2223 86.6137 28.2223H81.5449V30.2172H88.1106C88.1106 30.2172 88.9703 30.2471 89.3656 29.7826C89.7616 29.3182 89.7274 28.5557 89.7274 28.5557V25.7322Z" fill="white"/>
</g>
<defs>
<clipPath id="clip0_989_913">
<rect width="97" height="22" fill="white" transform="translate(31.5 15.5735)"/>
</clipPath>
</defs>
</svg>

