<svg width="65" height="65" viewBox="0 0 65 65" fill="none" xmlns="http://www.w3.org/2000/svg">
<circle cx="32.5" cy="32.5736" r="32" fill="#D9D9D9"/>
<path d="M25.6123 19.7836C28.5756 19.7836 31.0001 22.1791 31.0001 25.107C31.0001 28.0349 28.5756 30.4305 25.6123 30.4305C22.649 30.4305 20.2245 28.0349 20.2245 25.107C20.2245 22.1791 22.649 19.7836 25.6123 19.7836ZM25.6123 18.5737C21.9633 18.5737 19 21.5016 19 25.107C19 28.7124 21.9633 31.6403 25.6123 31.6403C29.2613 31.6403 32.2246 28.7124 32.2246 25.107C32.2246 21.5016 29.2613 18.5737 25.6123 18.5737Z" fill="#5452F6"/>
<path d="M41.041 35.028C44.0043 35.028 46.4288 37.4235 46.4288 40.3514C46.4288 43.2793 44.0043 45.6748 41.041 45.6748C38.0777 45.6748 35.6532 43.2793 35.6532 40.3514C35.6532 37.4235 38.0777 35.028 41.041 35.028ZM41.041 33.8181C37.392 33.8181 34.4287 36.746 34.4287 40.3514C34.4287 43.9568 37.392 46.8847 41.041 46.8847C44.69 46.8847 47.6533 43.9568 47.6533 40.3514C47.6533 36.746 44.69 33.8181 41.041 33.8181Z" fill="#5452F6"/>
<path d="M34.4287 18.5736L47.6533 31.6402H34.4287V18.5736Z" fill="#5452F6"/>
<path d="M32.2246 33.818H19V46.8846H32.2246V33.818Z" fill="#5452F6"/>
</svg>
