<svg width="154" height="149" viewBox="0 0 154 149" fill="none" xmlns="http://www.w3.org/2000/svg">
<rect y="0.57373" width="154" height="148" rx="8" fill="#1C1C46"/>
<circle cx="77.5" cy="53.5737" r="32" fill="#D9D9D9"/>
<path d="M70.6123 40.7838C73.5756 40.7838 76.0001 43.1794 76.0001 46.1073C76.0001 49.0352 73.5756 51.4307 70.6123 51.4307C67.649 51.4307 65.2245 49.0352 65.2245 46.1073C65.2245 43.1794 67.649 40.7838 70.6123 40.7838ZM70.6123 39.574C66.9633 39.574 64 42.5019 64 46.1073C64 49.7127 66.9633 52.6406 70.6123 52.6406C74.2613 52.6406 77.2246 49.7127 77.2246 46.1073C77.2246 42.5019 74.2613 39.574 70.6123 39.574Z" fill="#5452F6"/>
<path d="M86.041 56.028C89.0043 56.028 91.4288 58.4235 91.4288 61.3514C91.4288 64.2793 89.0043 66.6748 86.041 66.6748C83.0777 66.6748 80.6532 64.2793 80.6532 61.3514C80.6532 58.4235 83.0777 56.028 86.041 56.028ZM86.041 54.8181C82.392 54.8181 79.4287 57.746 79.4287 61.3514C79.4287 64.9568 82.392 67.8847 86.041 67.8847C89.69 67.8847 92.6533 64.9568 92.6533 61.3514C92.6533 57.746 89.69 54.8181 86.041 54.8181Z" fill="#5452F6"/>
<path d="M79.4287 39.5737L92.6533 52.6403H79.4287V39.5737Z" fill="#5452F6"/>
<path d="M77.2246 54.8181H64V67.8847H77.2246V54.8181Z" fill="#5452F6"/>
<path d="M29.7285 112.578L27.0685 122.574H25.7945L23.8485 116.022C23.7925 115.826 23.7365 115.625 23.6805 115.42C23.6245 115.214 23.5732 115.018 23.5265 114.832C23.4798 114.645 23.4378 114.486 23.4005 114.356C23.3725 114.216 23.3538 114.113 23.3445 114.048C23.3352 114.113 23.3165 114.216 23.2885 114.356C23.2698 114.486 23.2372 114.645 23.1905 114.832C23.1438 115.018 23.0925 115.219 23.0365 115.434C22.9898 115.639 22.9338 115.849 22.8685 116.064L20.9785 122.574H19.7045L17.0585 112.578H18.3745L19.9285 118.682C19.9845 118.896 20.0358 119.111 20.0825 119.326C20.1292 119.531 20.1712 119.736 20.2085 119.942C20.2552 120.138 20.2925 120.329 20.3205 120.516C20.3485 120.702 20.3765 120.884 20.4045 121.062C20.4325 120.875 20.4605 120.684 20.4885 120.488C20.5258 120.292 20.5678 120.091 20.6145 119.886C20.6612 119.671 20.7125 119.456 20.7685 119.242C20.8245 119.027 20.8805 118.817 20.9365 118.612L22.7005 112.578H24.0025L25.8365 118.654C25.9018 118.868 25.9625 119.088 26.0185 119.312C26.0745 119.526 26.1258 119.736 26.1725 119.942C26.2192 120.147 26.2565 120.348 26.2845 120.544C26.3218 120.73 26.3545 120.903 26.3825 121.062C26.4105 120.828 26.4478 120.586 26.4945 120.334C26.5412 120.072 26.5972 119.802 26.6625 119.522C26.7278 119.242 26.7978 118.957 26.8725 118.668L28.4125 112.578H29.7285ZM32.6081 115.056C32.6081 115.233 32.5988 115.415 32.5801 115.602C32.5708 115.788 32.5568 115.956 32.5381 116.106H32.6221C32.7808 115.844 32.9815 115.63 33.2241 115.462C33.4668 115.294 33.7375 115.168 34.0361 115.084C34.3348 114.99 34.6428 114.944 34.9601 114.944C35.5668 114.944 36.0708 115.042 36.4721 115.238C36.8828 115.424 37.1908 115.718 37.3961 116.12C37.6015 116.521 37.7041 117.044 37.7041 117.688V122.574H36.4861V117.772C36.4861 117.165 36.3508 116.712 36.0801 116.414C35.8095 116.115 35.3848 115.966 34.8061 115.966C34.2461 115.966 33.8075 116.073 33.4901 116.288C33.1728 116.493 32.9441 116.801 32.8041 117.212C32.6735 117.613 32.6081 118.108 32.6081 118.696V122.574H31.3761V111.934H32.6081V115.056ZM43.1524 114.944C44.0671 114.944 44.7438 115.144 45.1824 115.546C45.6211 115.947 45.8404 116.586 45.8404 117.464V122.574H44.9444L44.7064 121.51H44.6504C44.4358 121.78 44.2118 122.009 43.9784 122.196C43.7544 122.373 43.4931 122.504 43.1944 122.588C42.9051 122.672 42.5504 122.714 42.1304 122.714C41.6824 122.714 41.2764 122.634 40.9124 122.476C40.5578 122.317 40.2778 122.074 40.0724 121.748C39.8671 121.412 39.7644 120.992 39.7644 120.488C39.7644 119.741 40.0584 119.167 40.6464 118.766C41.2344 118.355 42.1398 118.131 43.3624 118.094L44.6364 118.052V117.604C44.6364 116.978 44.5011 116.544 44.2304 116.302C43.9598 116.059 43.5771 115.938 43.0824 115.938C42.6904 115.938 42.3171 115.998 41.9624 116.12C41.6078 116.232 41.2764 116.362 40.9684 116.512L40.5904 115.588C40.9171 115.41 41.3044 115.261 41.7524 115.14C42.2004 115.009 42.6671 114.944 43.1524 114.944ZM43.5164 118.948C42.5831 118.985 41.9344 119.134 41.5704 119.396C41.2158 119.657 41.0384 120.026 41.0384 120.502C41.0384 120.922 41.1644 121.23 41.4164 121.426C41.6778 121.622 42.0091 121.72 42.4104 121.72C43.0451 121.72 43.5724 121.547 43.9924 121.202C44.4124 120.847 44.6224 120.306 44.6224 119.578V118.906L43.5164 118.948ZM50.9441 121.706C51.1308 121.706 51.3221 121.692 51.5181 121.664C51.7141 121.626 51.8728 121.589 51.9941 121.552V122.49C51.8634 122.555 51.6768 122.606 51.4341 122.644C51.1914 122.69 50.9581 122.714 50.7341 122.714C50.3421 122.714 49.9781 122.648 49.6421 122.518C49.3154 122.378 49.0494 122.14 48.8441 121.804C48.6388 121.468 48.5361 120.996 48.5361 120.39V116.022H47.4721V115.434L48.5501 114.944L49.0401 113.348H49.7681V115.07H51.9381V116.022H49.7681V120.362C49.7681 120.819 49.8754 121.16 50.0901 121.384C50.3141 121.598 50.5988 121.706 50.9441 121.706ZM58.9254 115.07V122.574H57.6934V115.07H58.9254ZM58.3234 112.256C58.5101 112.256 58.6734 112.321 58.8134 112.452C58.9627 112.573 59.0374 112.769 59.0374 113.04C59.0374 113.301 58.9627 113.497 58.8134 113.628C58.6734 113.758 58.5101 113.824 58.3234 113.824C58.1181 113.824 57.9454 113.758 57.8054 113.628C57.6654 113.497 57.5954 113.301 57.5954 113.04C57.5954 112.769 57.6654 112.573 57.8054 112.452C57.9454 112.321 58.1181 112.256 58.3234 112.256ZM66.4688 120.502C66.4688 120.987 66.3474 121.393 66.1048 121.72C65.8621 122.046 65.5168 122.294 65.0688 122.462C64.6208 122.63 64.0888 122.714 63.4728 122.714C62.9501 122.714 62.4974 122.672 62.1148 122.588C61.7414 122.504 61.4101 122.387 61.1208 122.238V121.118C61.4194 121.267 61.7788 121.407 62.1988 121.538C62.6281 121.659 63.0621 121.72 63.5008 121.72C64.1261 121.72 64.5788 121.622 64.8588 121.426C65.1388 121.22 65.2788 120.95 65.2788 120.614C65.2788 120.427 65.2274 120.259 65.1248 120.11C65.0221 119.96 64.8354 119.811 64.5648 119.662C64.3034 119.512 63.9254 119.344 63.4308 119.158C62.9454 118.971 62.5301 118.784 62.1848 118.598C61.8394 118.411 61.5734 118.187 61.3868 117.926C61.2001 117.664 61.1068 117.328 61.1068 116.918C61.1068 116.283 61.3634 115.793 61.8768 115.448C62.3994 115.102 63.0808 114.93 63.9208 114.93C64.3781 114.93 64.8028 114.976 65.1948 115.07C65.5961 115.154 65.9694 115.275 66.3148 115.434L65.8948 116.414C65.6894 116.32 65.4701 116.241 65.2368 116.176C65.0128 116.101 64.7841 116.045 64.5508 116.008C64.3174 115.961 64.0794 115.938 63.8368 115.938C63.3328 115.938 62.9454 116.022 62.6748 116.19C62.4134 116.348 62.2828 116.568 62.2828 116.848C62.2828 117.053 62.3434 117.23 62.4648 117.38C62.5861 117.52 62.7868 117.66 63.0668 117.8C63.3561 117.93 63.7388 118.089 64.2148 118.276C64.6908 118.453 65.0968 118.635 65.4328 118.822C65.7688 119.008 66.0254 119.237 66.2028 119.508C66.3801 119.769 66.4688 120.1 66.4688 120.502ZM76.9307 113.544C76.3987 113.544 75.918 113.637 75.4887 113.824C75.0594 114.001 74.6954 114.267 74.3967 114.622C74.098 114.967 73.8694 115.392 73.7107 115.896C73.552 116.39 73.4727 116.95 73.4727 117.576C73.4727 118.397 73.5987 119.111 73.8507 119.718C74.112 120.324 74.4947 120.791 74.9987 121.118C75.512 121.444 76.1514 121.608 76.9167 121.608C77.3554 121.608 77.7707 121.57 78.1627 121.496C78.5547 121.421 78.9374 121.328 79.3107 121.216V122.308C78.9374 122.448 78.55 122.55 78.1487 122.616C77.7567 122.681 77.2854 122.714 76.7347 122.714C75.7174 122.714 74.868 122.504 74.1867 122.084C73.5054 121.664 72.992 121.066 72.6467 120.292C72.3107 119.517 72.1427 118.607 72.1427 117.562C72.1427 116.806 72.2454 116.115 72.4507 115.49C72.6654 114.864 72.9734 114.323 73.3747 113.866C73.7854 113.408 74.2894 113.058 74.8867 112.816C75.484 112.564 76.17 112.438 76.9447 112.438C77.458 112.438 77.9527 112.489 78.4287 112.592C78.9047 112.694 79.3294 112.839 79.7027 113.026L79.1987 114.09C78.8907 113.95 78.5454 113.824 78.1627 113.712C77.7894 113.6 77.3787 113.544 76.9307 113.544ZM88.1284 118.808C88.1284 119.433 88.0444 119.988 87.8764 120.474C87.7177 120.95 87.4844 121.356 87.1764 121.692C86.8777 122.028 86.5091 122.284 86.0704 122.462C85.6411 122.63 85.1604 122.714 84.6284 122.714C84.1337 122.714 83.6764 122.63 83.2564 122.462C82.8364 122.284 82.4724 122.028 82.1644 121.692C81.8564 121.356 81.6137 120.95 81.4364 120.474C81.2684 119.988 81.1844 119.433 81.1844 118.808C81.1844 117.977 81.3244 117.277 81.6044 116.708C81.8844 116.129 82.2857 115.69 82.8084 115.392C83.3311 115.084 83.9517 114.93 84.6704 114.93C85.3517 114.93 85.9491 115.084 86.4624 115.392C86.9851 115.69 87.3911 116.129 87.6804 116.708C87.9791 117.277 88.1284 117.977 88.1284 118.808ZM82.4584 118.808C82.4584 119.396 82.5331 119.909 82.6824 120.348C82.8411 120.777 83.0837 121.108 83.4104 121.342C83.7371 121.575 84.1524 121.692 84.6564 121.692C85.1604 121.692 85.5757 121.575 85.9024 121.342C86.2291 121.108 86.4671 120.777 86.6164 120.348C86.7751 119.909 86.8544 119.396 86.8544 118.808C86.8544 118.21 86.7751 117.702 86.6164 117.282C86.4577 116.862 86.2151 116.54 85.8884 116.316C85.5711 116.082 85.1557 115.966 84.6424 115.966C83.8771 115.966 83.3217 116.218 82.9764 116.722C82.6311 117.226 82.4584 117.921 82.4584 118.808ZM91.7395 122.574L88.8975 115.07H90.2135L91.8095 119.494C91.8842 119.699 91.9635 119.928 92.0475 120.18C92.1315 120.432 92.2062 120.674 92.2715 120.908C92.3369 121.132 92.3835 121.323 92.4115 121.482H92.4675C92.5049 121.323 92.5562 121.127 92.6215 120.894C92.6962 120.66 92.7755 120.418 92.8595 120.166C92.9529 119.914 93.0322 119.69 93.0975 119.494L94.6935 115.07H96.0095L93.1535 122.574H91.7395ZM100.319 114.944C101.234 114.944 101.91 115.144 102.349 115.546C102.788 115.947 103.007 116.586 103.007 117.464V122.574H102.111L101.873 121.51H101.817C101.602 121.78 101.378 122.009 101.145 122.196C100.921 122.373 100.66 122.504 100.361 122.588C100.072 122.672 99.7169 122.714 99.2969 122.714C98.8489 122.714 98.4429 122.634 98.0789 122.476C97.7242 122.317 97.4442 122.074 97.2389 121.748C97.0336 121.412 96.9309 120.992 96.9309 120.488C96.9309 119.741 97.2249 119.167 97.8129 118.766C98.4009 118.355 99.3062 118.131 100.529 118.094L101.803 118.052V117.604C101.803 116.978 101.668 116.544 101.397 116.302C101.126 116.059 100.744 115.938 100.249 115.938C99.8569 115.938 99.4836 115.998 99.1289 116.12C98.7742 116.232 98.4429 116.362 98.1349 116.512L97.7569 115.588C98.0836 115.41 98.4709 115.261 98.9189 115.14C99.3669 115.009 99.8336 114.944 100.319 114.944ZM100.683 118.948C99.7496 118.985 99.1009 119.134 98.7369 119.396C98.3822 119.657 98.2049 120.026 98.2049 120.502C98.2049 120.922 98.3309 121.23 98.5829 121.426C98.8442 121.622 99.1756 121.72 99.5769 121.72C100.212 121.72 100.739 121.547 101.159 121.202C101.579 120.847 101.789 120.306 101.789 119.578V118.906L100.683 118.948ZM106.837 122.574H105.605V111.934H106.837V122.574ZM112.392 114.93C113.036 114.93 113.587 115.07 114.044 115.35C114.511 115.63 114.865 116.026 115.108 116.54C115.36 117.044 115.486 117.636 115.486 118.318V119.06H110.348C110.367 119.909 110.581 120.558 110.992 121.006C111.412 121.444 111.995 121.664 112.742 121.664C113.218 121.664 113.638 121.622 114.002 121.538C114.375 121.444 114.758 121.314 115.15 121.146V122.224C114.767 122.392 114.389 122.513 114.016 122.588C113.643 122.672 113.199 122.714 112.686 122.714C111.977 122.714 111.347 122.569 110.796 122.28C110.255 121.99 109.83 121.561 109.522 120.992C109.223 120.413 109.074 119.708 109.074 118.878C109.074 118.056 109.209 117.352 109.48 116.764C109.76 116.176 110.147 115.723 110.642 115.406C111.146 115.088 111.729 114.93 112.392 114.93ZM112.378 115.938C111.79 115.938 111.323 116.129 110.978 116.512C110.642 116.885 110.441 117.408 110.376 118.08H114.198C114.198 117.65 114.133 117.277 114.002 116.96C113.871 116.642 113.671 116.395 113.4 116.218C113.139 116.031 112.798 115.938 112.378 115.938ZM121.288 114.93C122.184 114.93 122.861 115.149 123.318 115.588C123.776 116.017 124.004 116.717 124.004 117.688V122.574H122.786V117.772C122.786 117.165 122.651 116.712 122.38 116.414C122.11 116.115 121.685 115.966 121.106 115.966C120.276 115.966 119.702 116.199 119.384 116.666C119.067 117.132 118.908 117.804 118.908 118.682V122.574H117.676V115.07H118.67L118.852 116.092H118.922C119.09 115.83 119.296 115.616 119.538 115.448C119.79 115.27 120.066 115.14 120.364 115.056C120.663 114.972 120.971 114.93 121.288 114.93ZM129.117 121.706C129.303 121.706 129.495 121.692 129.691 121.664C129.887 121.626 130.045 121.589 130.167 121.552V122.49C130.036 122.555 129.849 122.606 129.607 122.644C129.364 122.69 129.131 122.714 128.907 122.714C128.515 122.714 128.151 122.648 127.815 122.518C127.488 122.378 127.222 122.14 127.017 121.804C126.811 121.468 126.709 120.996 126.709 120.39V116.022H125.645V115.434L126.723 114.944L127.213 113.348H127.941V115.07H130.111V116.022H127.941V120.362C127.941 120.819 128.048 121.16 128.263 121.384C128.487 121.598 128.771 121.706 129.117 121.706ZM132.719 119.382C132.719 119.027 132.752 118.724 132.817 118.472C132.892 118.21 133.013 117.963 133.181 117.73C133.359 117.496 133.597 117.254 133.895 117.002C134.259 116.694 134.539 116.437 134.735 116.232C134.941 116.026 135.085 115.826 135.169 115.63C135.253 115.434 135.295 115.196 135.295 114.916C135.295 114.468 135.151 114.122 134.861 113.88C134.572 113.637 134.152 113.516 133.601 113.516C133.144 113.516 132.738 113.576 132.383 113.698C132.029 113.81 131.688 113.945 131.361 114.104L130.927 113.124C131.301 112.928 131.711 112.764 132.159 112.634C132.617 112.503 133.125 112.438 133.685 112.438C134.572 112.438 135.258 112.657 135.743 113.096C136.229 113.534 136.471 114.132 136.471 114.888C136.471 115.308 136.401 115.667 136.261 115.966C136.131 116.255 135.939 116.526 135.687 116.778C135.445 117.02 135.155 117.282 134.819 117.562C134.511 117.823 134.273 118.052 134.105 118.248C133.947 118.444 133.839 118.64 133.783 118.836C133.727 119.022 133.699 119.251 133.699 119.522V119.76H132.719V119.382ZM132.397 121.818C132.397 121.472 132.477 121.23 132.635 121.09C132.803 120.95 133.013 120.88 133.265 120.88C133.499 120.88 133.699 120.95 133.867 121.09C134.035 121.23 134.119 121.472 134.119 121.818C134.119 122.154 134.035 122.396 133.867 122.546C133.699 122.695 133.499 122.77 133.265 122.77C133.013 122.77 132.803 122.695 132.635 122.546C132.477 122.396 132.397 122.154 132.397 121.818Z" fill="#F9F9F9"/>
<path d="M16.8905 124.324H137.115V125.024H16.8905V124.324Z" fill="#F9F9F9"/>
<a href="https://www.covalent.xyz/what-is-covalent/">
<rect fill="black" fill-opacity="0" x="7.39051" width="119.945" height="19.068"/>
</a>
</svg>
