<svg width="136" height="110" viewBox="0 0 136 110" fill="none" xmlns="http://www.w3.org/2000/svg">
<circle cx="68.5" cy="32.5737" r="32" fill="#D9D9D9"/>
<path d="M61.6123 19.7837C64.5756 19.7837 67.0001 22.1793 67.0001 25.1071C67.0001 28.035 64.5756 30.4306 61.6123 30.4306C58.649 30.4306 56.2245 28.035 56.2245 25.1071C56.2245 22.1793 58.649 19.7837 61.6123 19.7837ZM61.6123 18.5739C57.9633 18.5739 55 21.5017 55 25.1071C55 28.7126 57.9633 31.6404 61.6123 31.6404C65.2613 31.6404 68.2246 28.7126 68.2246 25.1071C68.2246 21.5017 65.2613 18.5739 61.6123 18.5739Z" fill="#5452F6"/>
<path d="M77.041 35.0281C80.0043 35.0281 82.4288 37.4236 82.4288 40.3515C82.4288 43.2794 80.0043 45.6749 77.041 45.6749C74.0777 45.6749 71.6532 43.2794 71.6532 40.3515C71.6532 37.4236 74.0777 35.0281 77.041 35.0281ZM77.041 33.8182C73.392 33.8182 70.4287 36.7461 70.4287 40.3515C70.4287 43.9569 73.392 46.8848 77.041 46.8848C80.69 46.8848 83.6533 43.9569 83.6533 40.3515C83.6533 36.7461 80.69 33.8182 77.041 33.8182Z" fill="#5452F6"/>
<path d="M70.4287 18.5737L83.6533 31.6403H70.4287V18.5737Z" fill="#5452F6"/>
<path d="M68.2246 33.8181H55V46.8847H68.2246V33.8181Z" fill="#5452F6"/>
<path d="M20.7285 94.5777L18.0685 104.574H16.7945L14.8485 98.0217C14.7925 97.8257 14.7365 97.6251 14.6805 97.4197C14.6245 97.2144 14.5732 97.0184 14.5265 96.8317C14.4798 96.6451 14.4378 96.4864 14.4005 96.3557C14.3725 96.2157 14.3538 96.1131 14.3445 96.0477C14.3352 96.1131 14.3165 96.2157 14.2885 96.3557C14.2698 96.4864 14.2372 96.6451 14.1905 96.8317C14.1438 97.0184 14.0925 97.2191 14.0365 97.4337C13.9898 97.6391 13.9338 97.8491 13.8685 98.0637L11.9785 104.574H10.7045L8.05851 94.5777H9.37451L10.9285 100.682C10.9845 100.896 11.0358 101.111 11.0825 101.326C11.1292 101.531 11.1712 101.736 11.2085 101.942C11.2552 102.138 11.2925 102.329 11.3205 102.516C11.3485 102.702 11.3765 102.884 11.4045 103.062C11.4325 102.875 11.4605 102.684 11.4885 102.488C11.5258 102.292 11.5678 102.091 11.6145 101.886C11.6612 101.671 11.7125 101.456 11.7685 101.242C11.8245 101.027 11.8805 100.817 11.9365 100.612L13.7005 94.5777H15.0025L16.8365 100.654C16.9018 100.868 16.9625 101.088 17.0185 101.312C17.0745 101.526 17.1258 101.736 17.1725 101.942C17.2192 102.147 17.2565 102.348 17.2845 102.544C17.3218 102.73 17.3545 102.903 17.3825 103.062C17.4105 102.828 17.4478 102.586 17.4945 102.334C17.5412 102.072 17.5972 101.802 17.6625 101.522C17.7278 101.242 17.7978 100.957 17.8725 100.668L19.4125 94.5777H20.7285ZM23.6081 97.0557C23.6081 97.2331 23.5988 97.4151 23.5801 97.6017C23.5708 97.7884 23.5568 97.9564 23.5381 98.1057H23.6221C23.7808 97.8444 23.9815 97.6297 24.2241 97.4617C24.4668 97.2937 24.7375 97.1677 25.0361 97.0837C25.3348 96.9904 25.6428 96.9437 25.9601 96.9437C26.5668 96.9437 27.0708 97.0417 27.4721 97.2377C27.8828 97.4244 28.1908 97.7184 28.3961 98.1197C28.6015 98.5211 28.7041 99.0437 28.7041 99.6877V104.574H27.4861V99.7717C27.4861 99.1651 27.3508 98.7124 27.0801 98.4137C26.8095 98.1151 26.3848 97.9657 25.8061 97.9657C25.2461 97.9657 24.8075 98.0731 24.4901 98.2877C24.1728 98.4931 23.9441 98.8011 23.8041 99.2117C23.6735 99.6131 23.6081 100.108 23.6081 100.696V104.574H22.3761V93.9337H23.6081V97.0557ZM34.1524 96.9437C35.0671 96.9437 35.7438 97.1444 36.1824 97.5457C36.6211 97.9471 36.8404 98.5864 36.8404 99.4637V104.574H35.9444L35.7064 103.51H35.6504C35.4358 103.78 35.2118 104.009 34.9784 104.196C34.7544 104.373 34.4931 104.504 34.1944 104.588C33.9051 104.672 33.5504 104.714 33.1304 104.714C32.6824 104.714 32.2764 104.634 31.9124 104.476C31.5578 104.317 31.2778 104.074 31.0724 103.748C30.8671 103.412 30.7644 102.992 30.7644 102.488C30.7644 101.741 31.0584 101.167 31.6464 100.766C32.2344 100.355 33.1398 100.131 34.3624 100.094L35.6364 100.052V99.6037C35.6364 98.9784 35.5011 98.5444 35.2304 98.3017C34.9598 98.0591 34.5771 97.9377 34.0824 97.9377C33.6904 97.9377 33.3171 97.9984 32.9624 98.1197C32.6078 98.2317 32.2764 98.3624 31.9684 98.5117L31.5904 97.5877C31.9171 97.4104 32.3044 97.2611 32.7524 97.1397C33.2004 97.0091 33.6671 96.9437 34.1524 96.9437ZM34.5164 100.948C33.5831 100.985 32.9344 101.134 32.5704 101.396C32.2158 101.657 32.0384 102.026 32.0384 102.502C32.0384 102.922 32.1644 103.23 32.4164 103.426C32.6778 103.622 33.0091 103.72 33.4104 103.72C34.0451 103.72 34.5724 103.547 34.9924 103.202C35.4124 102.847 35.6224 102.306 35.6224 101.578V100.906L34.5164 100.948ZM41.9441 103.706C42.1308 103.706 42.3221 103.692 42.5181 103.664C42.7141 103.626 42.8728 103.589 42.9941 103.552V104.49C42.8634 104.555 42.6768 104.606 42.4341 104.644C42.1914 104.69 41.9581 104.714 41.7341 104.714C41.3421 104.714 40.9781 104.648 40.6421 104.518C40.3154 104.378 40.0494 104.14 39.8441 103.804C39.6388 103.468 39.5361 102.996 39.5361 102.39V98.0217H38.4721V97.4337L39.5501 96.9437L40.0401 95.3477H40.7681V97.0697H42.9381V98.0217H40.7681V102.362C40.7681 102.819 40.8754 103.16 41.0901 103.384C41.3141 103.598 41.5988 103.706 41.9441 103.706ZM49.9254 97.0697V104.574H48.6934V97.0697H49.9254ZM49.3234 94.2557C49.5101 94.2557 49.6734 94.3211 49.8134 94.4517C49.9627 94.5731 50.0374 94.7691 50.0374 95.0397C50.0374 95.3011 49.9627 95.4971 49.8134 95.6277C49.6734 95.7584 49.5101 95.8237 49.3234 95.8237C49.1181 95.8237 48.9454 95.7584 48.8054 95.6277C48.6654 95.4971 48.5954 95.3011 48.5954 95.0397C48.5954 94.7691 48.6654 94.5731 48.8054 94.4517C48.9454 94.3211 49.1181 94.2557 49.3234 94.2557ZM57.4688 102.502C57.4688 102.987 57.3474 103.393 57.1048 103.72C56.8621 104.046 56.5168 104.294 56.0688 104.462C55.6208 104.63 55.0888 104.714 54.4728 104.714C53.9501 104.714 53.4974 104.672 53.1148 104.588C52.7414 104.504 52.4101 104.387 52.1208 104.238V103.118C52.4194 103.267 52.7788 103.407 53.1988 103.538C53.6281 103.659 54.0621 103.72 54.5008 103.72C55.1261 103.72 55.5788 103.622 55.8588 103.426C56.1388 103.22 56.2788 102.95 56.2788 102.614C56.2788 102.427 56.2274 102.259 56.1248 102.11C56.0221 101.96 55.8354 101.811 55.5648 101.662C55.3034 101.512 54.9254 101.344 54.4308 101.158C53.9454 100.971 53.5301 100.784 53.1848 100.598C52.8394 100.411 52.5734 100.187 52.3868 99.9257C52.2001 99.6644 52.1068 99.3284 52.1068 98.9177C52.1068 98.2831 52.3634 97.7931 52.8768 97.4477C53.3994 97.1024 54.0808 96.9297 54.9208 96.9297C55.3781 96.9297 55.8028 96.9764 56.1948 97.0697C56.5961 97.1537 56.9694 97.2751 57.3148 97.4337L56.8948 98.4137C56.6894 98.3204 56.4701 98.2411 56.2368 98.1757C56.0128 98.1011 55.7841 98.0451 55.5508 98.0077C55.3174 97.9611 55.0794 97.9377 54.8368 97.9377C54.3328 97.9377 53.9454 98.0217 53.6748 98.1897C53.4134 98.3484 53.2828 98.5677 53.2828 98.8477C53.2828 99.0531 53.3434 99.2304 53.4648 99.3797C53.5861 99.5197 53.7868 99.6597 54.0668 99.7997C54.3561 99.9304 54.7388 100.089 55.2148 100.276C55.6908 100.453 56.0968 100.635 56.4328 100.822C56.7688 101.008 57.0254 101.237 57.2028 101.508C57.3801 101.769 57.4688 102.1 57.4688 102.502ZM67.9307 95.5437C67.3987 95.5437 66.918 95.6371 66.4887 95.8237C66.0594 96.0011 65.6954 96.2671 65.3967 96.6217C65.098 96.9671 64.8694 97.3917 64.7107 97.8957C64.552 98.3904 64.4727 98.9504 64.4727 99.5757C64.4727 100.397 64.5987 101.111 64.8507 101.718C65.112 102.324 65.4947 102.791 65.9987 103.118C66.512 103.444 67.1514 103.608 67.9167 103.608C68.3554 103.608 68.7707 103.57 69.1627 103.496C69.5547 103.421 69.9374 103.328 70.3107 103.216V104.308C69.9374 104.448 69.55 104.55 69.1487 104.616C68.7567 104.681 68.2854 104.714 67.7347 104.714C66.7174 104.714 65.868 104.504 65.1867 104.084C64.5054 103.664 63.992 103.066 63.6467 102.292C63.3107 101.517 63.1427 100.607 63.1427 99.5617C63.1427 98.8057 63.2454 98.1151 63.4507 97.4897C63.6654 96.8644 63.9734 96.3231 64.3747 95.8657C64.7854 95.4084 65.2894 95.0584 65.8867 94.8157C66.484 94.5637 67.17 94.4377 67.9447 94.4377C68.458 94.4377 68.9527 94.4891 69.4287 94.5917C69.9047 94.6944 70.3294 94.8391 70.7027 95.0257L70.1987 96.0897C69.8907 95.9497 69.5454 95.8237 69.1627 95.7117C68.7894 95.5997 68.3787 95.5437 67.9307 95.5437ZM79.1284 100.808C79.1284 101.433 79.0444 101.988 78.8764 102.474C78.7177 102.95 78.4844 103.356 78.1764 103.692C77.8777 104.028 77.5091 104.284 77.0704 104.462C76.6411 104.63 76.1604 104.714 75.6284 104.714C75.1337 104.714 74.6764 104.63 74.2564 104.462C73.8364 104.284 73.4724 104.028 73.1644 103.692C72.8564 103.356 72.6137 102.95 72.4364 102.474C72.2684 101.988 72.1844 101.433 72.1844 100.808C72.1844 99.9771 72.3244 99.2771 72.6044 98.7077C72.8844 98.1291 73.2857 97.6904 73.8084 97.3917C74.3311 97.0837 74.9517 96.9297 75.6704 96.9297C76.3517 96.9297 76.9491 97.0837 77.4624 97.3917C77.9851 97.6904 78.3911 98.1291 78.6804 98.7077C78.9791 99.2771 79.1284 99.9771 79.1284 100.808ZM73.4584 100.808C73.4584 101.396 73.5331 101.909 73.6824 102.348C73.8411 102.777 74.0837 103.108 74.4104 103.342C74.7371 103.575 75.1524 103.692 75.6564 103.692C76.1604 103.692 76.5757 103.575 76.9024 103.342C77.2291 103.108 77.4671 102.777 77.6164 102.348C77.7751 101.909 77.8544 101.396 77.8544 100.808C77.8544 100.21 77.7751 99.7017 77.6164 99.2817C77.4577 98.8617 77.2151 98.5397 76.8884 98.3157C76.5711 98.0824 76.1557 97.9657 75.6424 97.9657C74.8771 97.9657 74.3217 98.2177 73.9764 98.7217C73.6311 99.2257 73.4584 99.9211 73.4584 100.808ZM82.7395 104.574L79.8975 97.0697H81.2135L82.8095 101.494C82.8842 101.699 82.9635 101.928 83.0475 102.18C83.1315 102.432 83.2062 102.674 83.2715 102.908C83.3369 103.132 83.3835 103.323 83.4115 103.482H83.4675C83.5049 103.323 83.5562 103.127 83.6215 102.894C83.6962 102.66 83.7755 102.418 83.8595 102.166C83.9529 101.914 84.0322 101.69 84.0975 101.494L85.6935 97.0697H87.0095L84.1535 104.574H82.7395ZM91.3189 96.9437C92.2336 96.9437 92.9102 97.1444 93.3489 97.5457C93.7876 97.9471 94.0069 98.5864 94.0069 99.4637V104.574H93.1109L92.8729 103.51H92.8169C92.6022 103.78 92.3782 104.009 92.1449 104.196C91.9209 104.373 91.6596 104.504 91.3609 104.588C91.0716 104.672 90.7169 104.714 90.2969 104.714C89.8489 104.714 89.4429 104.634 89.0789 104.476C88.7242 104.317 88.4442 104.074 88.2389 103.748C88.0336 103.412 87.9309 102.992 87.9309 102.488C87.9309 101.741 88.2249 101.167 88.8129 100.766C89.4009 100.355 90.3062 100.131 91.5289 100.094L92.8029 100.052V99.6037C92.8029 98.9784 92.6676 98.5444 92.3969 98.3017C92.1262 98.0591 91.7436 97.9377 91.2489 97.9377C90.8569 97.9377 90.4836 97.9984 90.1289 98.1197C89.7742 98.2317 89.4429 98.3624 89.1349 98.5117L88.7569 97.5877C89.0836 97.4104 89.4709 97.2611 89.9189 97.1397C90.3669 97.0091 90.8336 96.9437 91.3189 96.9437ZM91.6829 100.948C90.7496 100.985 90.1009 101.134 89.7369 101.396C89.3822 101.657 89.2049 102.026 89.2049 102.502C89.2049 102.922 89.3309 103.23 89.5829 103.426C89.8442 103.622 90.1756 103.72 90.5769 103.72C91.2116 103.72 91.7389 103.547 92.1589 103.202C92.5789 102.847 92.7889 102.306 92.7889 101.578V100.906L91.6829 100.948ZM97.8366 104.574H96.6046V93.9337H97.8366V104.574ZM103.392 96.9297C104.036 96.9297 104.587 97.0697 105.044 97.3497C105.511 97.6297 105.865 98.0264 106.108 98.5397C106.36 99.0437 106.486 99.6364 106.486 100.318V101.06H101.348C101.367 101.909 101.581 102.558 101.992 103.006C102.412 103.444 102.995 103.664 103.742 103.664C104.218 103.664 104.638 103.622 105.002 103.538C105.375 103.444 105.758 103.314 106.15 103.146V104.224C105.767 104.392 105.389 104.513 105.016 104.588C104.643 104.672 104.199 104.714 103.686 104.714C102.977 104.714 102.347 104.569 101.796 104.28C101.255 103.99 100.83 103.561 100.522 102.992C100.223 102.413 100.074 101.708 100.074 100.878C100.074 100.056 100.209 99.3517 100.48 98.7637C100.76 98.1757 101.147 97.7231 101.642 97.4057C102.146 97.0884 102.729 96.9297 103.392 96.9297ZM103.378 97.9377C102.79 97.9377 102.323 98.1291 101.978 98.5117C101.642 98.8851 101.441 99.4077 101.376 100.08H105.198C105.198 99.6504 105.133 99.2771 105.002 98.9597C104.871 98.6424 104.671 98.3951 104.4 98.2177C104.139 98.0311 103.798 97.9377 103.378 97.9377ZM112.288 96.9297C113.184 96.9297 113.861 97.1491 114.318 97.5877C114.776 98.0171 115.004 98.7171 115.004 99.6877V104.574H113.786V99.7717C113.786 99.1651 113.651 98.7124 113.38 98.4137C113.11 98.1151 112.685 97.9657 112.106 97.9657C111.276 97.9657 110.702 98.1991 110.384 98.6657C110.067 99.1324 109.908 99.8044 109.908 100.682V104.574H108.676V97.0697H109.67L109.852 98.0917H109.922C110.09 97.8304 110.296 97.6157 110.538 97.4477C110.79 97.2704 111.066 97.1397 111.364 97.0557C111.663 96.9717 111.971 96.9297 112.288 96.9297ZM120.117 103.706C120.303 103.706 120.495 103.692 120.691 103.664C120.887 103.626 121.045 103.589 121.167 103.552V104.49C121.036 104.555 120.849 104.606 120.607 104.644C120.364 104.69 120.131 104.714 119.907 104.714C119.515 104.714 119.151 104.648 118.815 104.518C118.488 104.378 118.222 104.14 118.017 103.804C117.811 103.468 117.709 102.996 117.709 102.39V98.0217H116.645V97.4337L117.723 96.9437L118.213 95.3477H118.941V97.0697H121.111V98.0217H118.941V102.362C118.941 102.819 119.048 103.16 119.263 103.384C119.487 103.598 119.771 103.706 120.117 103.706ZM123.719 101.382C123.719 101.027 123.752 100.724 123.817 100.472C123.892 100.21 124.013 99.9631 124.181 99.7297C124.359 99.4964 124.597 99.2537 124.895 99.0017C125.259 98.6937 125.539 98.4371 125.735 98.2317C125.941 98.0264 126.085 97.8257 126.169 97.6297C126.253 97.4337 126.295 97.1957 126.295 96.9157C126.295 96.4677 126.151 96.1224 125.861 95.8797C125.572 95.6371 125.152 95.5157 124.601 95.5157C124.144 95.5157 123.738 95.5764 123.383 95.6977C123.029 95.8097 122.688 95.9451 122.361 96.1037L121.927 95.1237C122.301 94.9277 122.711 94.7644 123.159 94.6337C123.617 94.5031 124.125 94.4377 124.685 94.4377C125.572 94.4377 126.258 94.6571 126.743 95.0957C127.229 95.5344 127.471 96.1317 127.471 96.8877C127.471 97.3077 127.401 97.6671 127.261 97.9657C127.131 98.2551 126.939 98.5257 126.687 98.7777C126.445 99.0204 126.155 99.2817 125.819 99.5617C125.511 99.8231 125.273 100.052 125.105 100.248C124.947 100.444 124.839 100.64 124.783 100.836C124.727 101.022 124.699 101.251 124.699 101.522V101.76H123.719V101.382ZM123.397 103.818C123.397 103.472 123.477 103.23 123.635 103.09C123.803 102.95 124.013 102.88 124.265 102.88C124.499 102.88 124.699 102.95 124.867 103.09C125.035 103.23 125.119 103.472 125.119 103.818C125.119 104.154 125.035 104.396 124.867 104.546C124.699 104.695 124.499 104.77 124.265 104.77C124.013 104.77 123.803 104.695 123.635 104.546C123.477 104.396 123.397 104.154 123.397 103.818Z" fill="#08081A"/>
<path d="M7.89051 106.324H128.115V107.024H7.89051V106.324Z" fill="#08081A"/>
<a href="https://www.covalent.xyz/what-is-covalent/">
<rect fill="black" fill-opacity="0" x="7.39051" width="119.945" height="19.068"/>
</a>
</svg>

