<svg width="83" height="66" viewBox="0 0 83 66" fill="none" xmlns="http://www.w3.org/2000/svg">
<circle cx="47.5" cy="33.5736" r="32" fill="#B1B9FF"/>
<rect x="-0.35" y="0.35" width="70.1615" height="12.3154" rx="1.65" transform="matrix(-1 0 0 1 70.6613 32.3121)" fill="#6D7CFF" stroke="#6D7CFF" stroke-width="0.7"/>
<rect x="-0.35" y="0.35" width="51.3615" height="9.42308" rx="1.65" transform="matrix(-1 0 0 1 70.6613 33.7582)" fill="#6D7CFF" stroke="#6D7CFF" stroke-width="0.7"/>
<path d="M71.3613 25.0813C71.3613 21.4872 68.4477 18.5736 64.8536 18.5736H0.499786V31.589H64.8536C68.4477 31.589 71.3613 28.6754 71.3613 25.0813Z" fill="#5552FF"/>
<path d="M53.2844 25.0813C53.2844 22.2859 51.0183 20.0198 48.2229 20.0198H0.499779V30.1429H48.2229C51.0183 30.1429 53.2844 27.8767 53.2844 25.0813Z" fill="#6D7CFF"/>
<path d="M62.3344 56.1736C62.3344 51.1754 58.2826 47.1236 53.2844 47.1236H0.8498V65.2236H53.2844C58.2826 65.2236 62.3344 61.1718 62.3344 56.1736Z" fill="#5552FF" stroke="#5552FF" stroke-width="0.7"/>
<path d="M60.5152 56.1736C60.5152 52.1802 57.2778 48.9428 53.2844 48.9428H0.499783V63.4044H53.2844C57.2778 63.4044 60.5152 60.1671 60.5152 56.1736Z" fill="#6D7CFF"/>
<path d="M51.8383 51.3351C52.1144 51.3351 52.3383 51.559 52.3383 51.8351C52.3383 52.1113 52.1144 52.3351 51.8383 52.3351L51.8383 51.3351ZM51.8383 52.3351L6.28441 52.3351L6.28441 51.3351L51.8383 51.3351L51.8383 52.3351Z" fill="#CBCBD7"/>
<path d="M48.2229 22.4121C48.499 22.4121 48.7229 22.6359 48.7229 22.9121C48.7229 23.1882 48.499 23.4121 48.2229 23.4121L48.2229 22.4121ZM48.2229 23.4121L2.66902 23.4121L2.66902 22.4121L48.2229 22.4121L48.2229 23.4121Z" fill="#CBCBD7"/>
<path d="M53.2844 55.6736C53.5605 55.6736 53.7844 55.8975 53.7844 56.1736C53.7844 56.4498 53.5605 56.6736 53.2844 56.6736L53.2844 55.6736ZM53.2844 56.6736L6.28439 56.6736L6.28439 55.6736L53.2844 55.6736L53.2844 56.6736Z" fill="#CBCBD7"/>
<path d="M49.669 24.5813C49.9451 24.5813 50.169 24.8052 50.169 25.0813C50.169 25.3574 49.9451 25.5813 49.669 25.5813L49.669 24.5813ZM49.669 25.5813L2.66901 25.5813L2.66901 24.5813L49.669 24.5813L49.669 25.5813Z" fill="#CBCBD7"/>
<path d="M51.8383 60.0121C52.1144 60.0121 52.3383 60.2359 52.3383 60.5121C52.3383 60.7882 52.1144 61.0121 51.8383 61.0121L51.8383 60.0121ZM51.8383 61.0121L6.28441 61.0121L6.28441 60.0121L51.8383 60.0121L51.8383 61.0121Z" fill="#CBCBD7"/>
<path d="M48.2229 26.7505C48.499 26.7505 48.7229 26.9744 48.7229 27.2505C48.7229 27.5267 48.499 27.7505 48.2229 27.7505L48.2229 26.7505ZM48.2229 27.7505L2.66902 27.7505L2.66902 26.7505L48.2229 26.7505L48.2229 27.7505Z" fill="#CBCBD7"/>
<rect width="5.06154" height="13.0154" transform="matrix(-1 0 0 1 17.8536 32.3121)" fill="#5552FF"/>
<rect width="5.06154" height="13.0154" transform="matrix(-1 0 0 1 8.45364 32.3121)" fill="#5552FF"/>
<circle cx="2.16923" cy="2.16923" r="2.16923" transform="matrix(-1 0 0 1 61.2383 22.9121)" fill="#D9D9D9"/>
</svg>
