<svg width="64" height="65" viewBox="0 0 64 65" fill="none" xmlns="http://www.w3.org/2000/svg">
<circle cx="32" cy="32.5734" r="32" fill="#5552FF"/>
<g clip-path="url(#clip0_85_417)">
<path d="M32 44.2609C28.175 44.2609 24.4563 42.3484 22.225 38.9484H27.75V36.8234H19.25V45.3234H21.375V41.3922C24.0312 44.5797 27.8562 46.3859 32 46.3859V44.2609Z" fill="#CBCBD7"/>
<path d="M47.9375 40.0109V37.8859H45.7062C45.6 37.2484 45.2813 36.6109 44.9625 35.9734L46.5563 34.3797L45.0687 32.8922L43.475 34.4859C42.9437 34.1672 42.3062 33.8484 41.5625 33.7422V31.5109H39.4375V33.7422C38.8 33.8484 38.1625 34.1672 37.525 34.4859L35.9313 32.8922L34.4437 34.3797L36.0375 35.9734C35.7187 36.5047 35.4 37.1422 35.2938 37.8859H33.0625V40.0109H35.2938C35.4 40.6484 35.7187 41.2859 36.0375 41.9234L34.4437 43.5172L35.9313 45.0047L37.525 43.4109C38.0563 43.7297 38.6937 44.0484 39.4375 44.1547V46.3859H41.5625V44.1547C42.2 44.0484 42.8375 43.7297 43.475 43.4109L45.0687 45.0047L46.5563 43.5172L44.9625 41.9234C45.2813 41.3922 45.6 40.7547 45.7062 40.0109H47.9375ZM40.5 42.1359C38.6937 42.1359 37.3125 40.7547 37.3125 38.9484C37.3125 37.1422 38.6937 35.7609 40.5 35.7609C42.3062 35.7609 43.6875 37.1422 43.6875 38.9484C43.6875 40.7547 42.3062 42.1359 40.5 42.1359Z" fill="#CBCBD7"/>
<path d="M36.25 26.1984H41.775C38.2688 20.7797 31.0437 19.2922 25.625 22.7984C22.3313 24.9234 20.3125 28.6422 20.3125 32.5734H18.1875C18.1875 24.9234 24.35 18.7609 32 18.7609C36.1437 18.7609 39.9688 20.5672 42.625 23.7547V19.8234H44.75V28.3234H36.25V26.1984Z" fill="#CBCBD7"/>
</g>
<defs>
<clipPath id="clip0_85_417">
<rect width="34" height="34" fill="white" transform="translate(15 15.5734)"/>
</clipPath>
</defs>
</svg>
