<svg id="Layer_1" data-name="Layer 1" xmlns="http://www.w3.org/2000/svg" xmlns:xlink="http://www.w3.org/1999/xlink" viewBox="0 0 82.73 51.57"><defs><linearGradient id="linear-gradient" x1="1.36" y1="49.73" x2="80.69" y2="2.26" gradientUnits="userSpaceOnUse"><stop offset="0" stop-color="#47479d"/><stop offset="1" stop-color="#323267"/></linearGradient></defs><title>Linux</title><rect width="82.73" height="51.57" rx="2.7" fill="url(#linear-gradient)"/><g id="Layer_1-2" data-name="Layer 1-2"><path d="M38.75,21.42A1.75,1.75,0,1,1,37,23.17a1.76,1.76,0,0,1,1.75-1.75m0-.49A2.24,2.24,0,1,0,41,23.17,2.24,2.24,0,0,0,38.75,20.93Z" fill="#fff"/><path d="M44,26.65a1.75,1.75,0,1,1-1.75,1.75A1.76,1.76,0,0,1,44,26.65m0-.49a2.24,2.24,0,1,0,2.24,2.24A2.24,2.24,0,0,0,44,26.16Z" fill="#fff"/><polygon points="41.74 20.93 46.22 25.41 41.74 25.41 41.74 20.93" fill="#fff"/><rect x="36.51" y="26.16" width="4.48" height="4.48" fill="#fff"/></g><path d="M13.35,32.85h-.1a1.33,1.33,0,0,1-.87-.36.87.87,0,0,1-.17-.22l-.06-.08a.62.62,0,0,0-.21,0c-.66,0-1.3,0-1.92,0a1.26,1.26,0,0,0-.63.24,1.67,1.67,0,0,1-.78.37,1.34,1.34,0,0,1-.57,0H8l-.65-.22a6.59,6.59,0,0,0-.72-.22,4.55,4.55,0,0,0-.6-.12A6.63,6.63,0,0,1,5.27,32a.76.76,0,0,1-.59-.65,1.42,1.42,0,0,1,.13-.65,1.77,1.77,0,0,0,.08-.25,2,2,0,0,0-.06-.31,2.11,2.11,0,0,1-.08-.53.62.62,0,0,1,.43-.6A2.4,2.4,0,0,1,5.61,29l.28,0a.66.66,0,0,0,.2-.16.54.54,0,0,1,0-.11v-.05a.53.53,0,0,1,.12-.32,1.75,1.75,0,0,1,0-.56A2.29,2.29,0,0,1,6.5,27a1.82,1.82,0,0,0,.16-.31L6.94,26a4.36,4.36,0,0,1,.52-1.08,9.84,9.84,0,0,0,.93-1.32.74.74,0,0,0,.08-.17c-.05-.56-.07-1.1-.09-1.64l0-.5a3.35,3.35,0,0,1,.24-1.47,2.19,2.19,0,0,1,.89-.87,2,2,0,0,1,.92-.22h.27a2.71,2.71,0,0,1,1.54.53,2.51,2.51,0,0,1,.68.88,3.06,3.06,0,0,1,.31,1.08c0,.1,0,.2,0,.3v.12a4.62,4.62,0,0,0,.17,1.26A3.5,3.5,0,0,0,13.91,24q.13.18.3.36l.17.2a5.47,5.47,0,0,1,.93,1.67,5.25,5.25,0,0,1,.35,1.64,1.75,1.75,0,0,1-.09.63.71.71,0,0,1,.12.33,1.31,1.31,0,0,0,.24.75,1.14,1.14,0,0,0,.25.18,1.3,1.3,0,0,1,.46.37.72.72,0,0,1-.1,1,3.55,3.55,0,0,1-.9.56,5.06,5.06,0,0,0-.46.24,7.51,7.51,0,0,0-.72.54l-.08.07a1.14,1.14,0,0,1-.42.28,2,2,0,0,1-.58.08ZM11.19,31.4h.72a1.19,1.19,0,0,1,.75.23,1.34,1.34,0,0,1,.18.23l.06.09a.82.82,0,0,0,.42.15,2.3,2.3,0,0,0,.41,0,.92.92,0,0,0,.14-.11l.11-.11a7.4,7.4,0,0,1,.81-.6,5.36,5.36,0,0,1,.53-.28,2.85,2.85,0,0,0,.7-.43,1.27,1.27,0,0,0-.21-.14,1.78,1.78,0,0,1-.41-.3A1.69,1.69,0,0,1,15,29l-3.24,1.13,3.11-1.87a.89.89,0,0,0,.08-.44,4.13,4.13,0,0,0-.31-1.38A4.65,4.65,0,0,0,13.81,25l-.17-.2c-.12-.14-.24-.28-.34-.42a4,4,0,0,1-.63-1.33,4.92,4.92,0,0,1-.2-1.46V21.5a1.93,1.93,0,0,0,0-.24,2.38,2.38,0,0,0-.23-.8,1.8,1.8,0,0,0-.48-.62,2,2,0,0,0-1.11-.37h-.21a1.28,1.28,0,0,0-.57.13,1.33,1.33,0,0,0-.58.54,2.46,2.46,0,0,0-.17,1.11l0,.5c0,.53,0,1.05.09,1.57a1,1,0,0,1-.14.59,11.47,11.47,0,0,1-1,1.45,3.89,3.89,0,0,0-.43.89L7.37,27a3.48,3.48,0,0,1-.22.43,1.43,1.43,0,0,0-.18.41.74.74,0,0,0,0,.4l.15.31-.28.16a.88.88,0,0,1-.19.53,1.37,1.37,0,0,1-.51.38,2,2,0,0,1-.47.09l-.18,0c0,.08,0,.16.06.25a1.72,1.72,0,0,1,.07.57,2.45,2.45,0,0,1-.12.44,1.21,1.21,0,0,0-.09.3s0,0,.08,0a4.68,4.68,0,0,0,.67.15,4.67,4.67,0,0,1,.65.13,7.75,7.75,0,0,1,.78.24l.58.19a.88.88,0,0,0,.33.05,1.07,1.07,0,0,0,.43-.23,1.88,1.88,0,0,1,1-.38C10.37,31.41,10.78,31.4,11.19,31.4ZM16,30.52h0ZM5.4,29.74Zm.1-.11Z" fill="#fff"/><polygon points="9.09 20.28 10.78 19.6 11.97 19.86 12.61 21.9 13.02 23.44 14.45 26.47 14.9 28.3 13.94 31.47 12.61 31.88 11.04 31.45 9.16 31.93 6.92 28.12 7.31 26.38 7.66 25.46 8.69 24.47 9.08 23.06 8.92 20.66 9.09 20.28" fill="#fff"/><path d="M9.8,22.08a.72.72,0,0,1,.33,0,.46.46,0,0,1,.33,0l.11.07a1.3,1.3,0,0,1,.35.13l.26,0,.79.22-.18.67s0,.12-.38.14c-.1.18-.2.18-.2.18l-.59.32L10,24,9.5,23.7l-.58-.88.1-.44.32,0,.17-.14.16-.16Z" fill="#fc0"/><path d="M15,28.61s.25-.09.3.25a2,2,0,0,0,0,.7l.5.55.43.25v.3l-.16.19-.9.38-.84.56-.42.4-.65.09L12.68,32l-.07-.63.13-1-.13-.82.08-.69.14-.24.36-.14,1.26-.11Z" fill="#fc0"/><path d="M5.17,29.64l.21.81-.21.95.21.12L7.31,32l.75.36.77-.15.45-.36L9.15,31l-.53-1.1L7.18,28l-.54.41s-.18.11-.16.21a1.81,1.81,0,0,1,0,.37l-.36.4-.62,0Z" fill="#fc0"/><path d="M10.43,19.09h.25a2.48,2.48,0,0,1,1.3.45,2.11,2.11,0,0,1,.58.75,2.67,2.67,0,0,1,.28.95c0,.13,0,.26,0,.39A4.8,4.8,0,0,0,13,23a3.61,3.61,0,0,0,.58,1.2c.14.21.32.39.48.59A5,5,0,0,1,15,26.34a4.66,4.66,0,0,1,.34,1.51,1.46,1.46,0,0,1-.12.62c-.05.11-.18.14-.26.22s-.2.28-.33.4a.86.86,0,0,1-.58.26.6.6,0,0,1-.52-.16c-.17-.17-.2-.43-.38-.57a.15.15,0,0,0-.2,0,.62.62,0,0,0-.16.31,1.55,1.55,0,0,0,0,.74,3.5,3.5,0,0,1,0,1.25,2,2,0,0,0,0,.73.65.65,0,0,0,.5.47,1,1,0,0,0,.7-.18c.21-.16.4-.34.62-.48a5.45,5.45,0,0,1,1-.45,1.31,1.31,0,0,0,.56-.32.17.17,0,0,0,0-.23,1.34,1.34,0,0,0-.61-.36.78.78,0,0,1-.37-.54.88.88,0,0,1,.07-.69,1.45,1.45,0,0,0,.36,1c.19.21.49.28.67.51a.34.34,0,0,1-.06.46,8,8,0,0,1-1.3.76,7,7,0,0,0-.77.57,1.25,1.25,0,0,1-.37.28,2,2,0,0,1-.49.07h-.08a1,1,0,0,1-.63-.25c-.1-.09-.14-.22-.24-.31a.73.73,0,0,0-.45-.14c-.66,0-1.32,0-2,0a1.6,1.6,0,0,0-.82.3,1.32,1.32,0,0,1-.61.31,1.63,1.63,0,0,1-.75-.15c-.36-.11-.72-.25-1.09-.34s-.9-.15-1.34-.28a.44.44,0,0,1-.33-.33,3.22,3.22,0,0,1,.21-.81c0-.3-.14-.59-.13-.89a.24.24,0,0,1,.16-.25c.23-.07.48,0,.71-.11A1.08,1.08,0,0,0,6.38,29a.76.76,0,0,0,.1-.39.8.8,0,0,1,0,.53.71.71,0,0,1-.58.37c-.16,0-.32,0-.48,0a.17.17,0,0,0-.15.17c0,.3.25.54.24.84s-.19.46-.23.7a.19.19,0,0,0,.1.19,1.55,1.55,0,0,0,.42.12l1.09.23c.4.11.79.25,1.2.34a1.08,1.08,0,0,0,.73-.05.58.58,0,0,0,.34-.54,2.29,2.29,0,0,0-.43-1.18c-.23-.36-.47-.72-.71-1.07a6.33,6.33,0,0,0-.57-.71A.88.88,0,0,0,7,28.29a.56.56,0,0,0-.33.1,1.09,1.09,0,0,1,0-.62A5.74,5.74,0,0,1,7,26.86c.09-.24.18-.49.28-.73a4,4,0,0,1,.48-1,10.58,10.58,0,0,0,1-1.35.64.64,0,0,0,.12-.42c-.07-.7-.08-1.4-.1-2.1A2.85,2.85,0,0,1,8.94,20a1.78,1.78,0,0,1,.74-.7,1.73,1.73,0,0,1,.75-.18m1.07.78c-.07,0-.06.11-.06.17s-.07.15-.09.23,0,.05.06.05l.18-.12c.09-.05.21,0,.28-.09S11.76,20,11.7,20s-.12-.11-.2-.08m-.72,1.29a.58.58,0,0,0-.21.39,3.37,3.37,0,0,0,0,.55.83.83,0,0,0-.49-.07S10,22,10,22a1.23,1.23,0,0,0-.21-.79.33.33,0,0,0-.5,0,1.06,1.06,0,0,0-.17.67.85.85,0,0,0,.22.53.39.39,0,0,0,.15-.16.31.31,0,0,1-.15-.08.53.53,0,0,1-.09-.46.27.27,0,0,1,.14-.19.26.26,0,0,1,.32.05.76.76,0,0,1,.11.53,1.48,1.48,0,0,0-.29.27c-.11.13-.3.16-.38.32s-.07.19,0,.23a1,1,0,0,1,.28.27.6.6,0,0,0,.46.17A3.68,3.68,0,0,0,11,23.1a1,1,0,0,0,.4-.23.34.34,0,0,1,.09-.08c.06,0,.13.06.11.12a.19.19,0,0,1-.14.12c-.23.08-.45.17-.67.27a2.29,2.29,0,0,1-.76.22c-.18,0-.35,0-.53,0a.71.71,0,0,0,.66.31,3.06,3.06,0,0,0,1-.43.51.51,0,0,1,.27-.09.31.31,0,0,1,.07.09c-.09.13-.25.17-.38.25-.35.18-.64.46-1,.64a.36.36,0,0,1-.36,0,1.15,1.15,0,0,1-.32-.34,1.74,1.74,0,0,0-.33-.38c0,.1,0,.21-.05.32a9.8,9.8,0,0,0-.44,1,.66.66,0,0,0,.07.51,1,1,0,0,0-.31.39,7.34,7.34,0,0,0-.39.86,2.07,2.07,0,0,0-.12.59c0,.24,0,.47,0,.71,0,.08,0,.19-.11.23A.32.32,0,0,1,7.62,28a1.15,1.15,0,0,1-.22-.74c0-.16,0-.32,0-.48a.69.69,0,0,0-.16.43,1.66,1.66,0,0,0,.17.82,1,1,0,0,0,.3.33l.37.34,1.17,1a.45.45,0,0,1,0,.61.49.49,0,0,1-.34.17c.12.19.25.38.36.58a1.58,1.58,0,0,1,.12.68.32.32,0,0,0,.18-.29,1.36,1.36,0,0,0-.31-.65c.07,0,.14-.1.22-.07a2,2,0,0,0,.23.17,1.48,1.48,0,0,0,.83.14,3,3,0,0,0,1-.23,1.16,1.16,0,0,0,.51-.42c.07-.09.12-.21.23-.25s.09.09.1.16a2.13,2.13,0,0,1-.14.86.66.66,0,0,0-.06.36c0,.07.11.08.17.1.06-.3.12-.6.17-.9a2.07,2.07,0,0,0,0-.61,6.35,6.35,0,0,1-.09-1.07.75.75,0,0,1,.19-.49.56.56,0,0,1,.36-.12.61.61,0,0,1,.08-.25.59.59,0,0,1,.32-.19,1.13,1.13,0,0,1,.86.13.84.84,0,0,0-.42-.3,2.29,2.29,0,0,0,.1-1c0-.21-.08-.42-.13-.63a2.14,2.14,0,0,0-.35-.75,1.82,1.82,0,0,0-.52-.55,3.42,3.42,0,0,1,.54.87,2.92,2.92,0,0,1,.32,1.61.87.87,0,0,1-.14.39.44.44,0,0,1-.38.13.19.19,0,0,1-.18-.14,4,4,0,0,1-.07-.78,3.79,3.79,0,0,0-.23-1.15,1.73,1.73,0,0,0-.28-.56c-.06-.07-.14-.13-.16-.22a4,4,0,0,0-.32-.94,2.84,2.84,0,0,1-.38-.65c-.07-.26.09-.51.08-.77s-.15-.19-.26-.22a3.66,3.66,0,0,1-.62-.25s-.1,0-.12-.09a.78.78,0,0,1,.06-.56.35.35,0,0,1,.59,0,.57.57,0,0,1,.06.49s-.05.11,0,.17.15.06.22,0a.15.15,0,0,0,.11-.13,1.44,1.44,0,0,0-.14-.89.63.63,0,0,0-.49-.29.73.73,0,0,0-.45.16m.42.44.13.11a.62.62,0,0,1,.07.19l.07-.06c0-.13-.12-.31-.27-.24m-1.69,0c0,.05,0,.08.07.11s0,.22.08.24a.45.45,0,0,0,0-.28c0-.05-.07-.11-.12-.07m2.82,1.42a.26.26,0,0,0,0,.29.78.78,0,0,0,.31.29c.12,0,.18-.12.15-.21s-.11-.1-.18-.13-.19-.16-.28-.24M7.9,25.57c0,.11-.13.19-.16.3A.4.4,0,0,0,8,25.48C7.94,25.41,7.91,25.52,7.9,25.57Z"/><path d="M9.76,22.2a.49.49,0,0,1,.16-.05c-.06.05-.11.14-.19.18S9.72,22.23,9.76,22.2Z"/><path d="M10.39,22.18c.06,0,.13-.05.19,0s.06.1,0,.1A.48.48,0,0,0,10.39,22.18Z"/><circle cx="50.42" cy="25.79" r="1.42" fill="#dac3ff"/><polygon points="61.74 25.79 59.15 24.29 59.15 27.29 61.74 25.79" fill="#dac3ff"/><rect x="50.71" y="25.54" width="9.35" height="0.5" fill="#dac3ff"/><circle cx="21.51" cy="25.79" r="1.42" fill="#dac3ff"/><polygon points="32.83 25.79 30.24 24.29 30.24 27.29 32.83 25.79" fill="#dac3ff"/><rect x="21.81" y="25.54" width="9.35" height="0.5" fill="#dac3ff"/><rect x="64.52" y="19.05" width="13.48" height="13.48" rx="3.27" fill="#08081a"/><path d="M74.72,32.78H67.79a3.53,3.53,0,0,1-3.52-3.53V22.32a3.53,3.53,0,0,1,3.52-3.52h6.93a3.53,3.53,0,0,1,3.53,3.52v6.93A3.54,3.54,0,0,1,74.72,32.78ZM67.79,19.3a3,3,0,0,0-3,3v6.93a3,3,0,0,0,3,3h6.93a3,3,0,0,0,3-3V22.32a3,3,0,0,0-3-3Z" fill="#aa79fc"/><path d="M74.11,27h-5.7a.43.43,0,0,1-.43-.43V25a.43.43,0,0,1,.43-.43h5.7a.42.42,0,0,1,.42.43v1.65A.42.42,0,0,1,74.11,27Zm-5.7-2.11,0,1.68,5.73,0,0-1.68,0,0Zm4.82,1.45a.6.6,0,1,1,.6-.59A.6.6,0,0,1,73.23,26.38Zm0-.79a.19.19,0,0,0-.19.2.19.19,0,0,0,.19.19.2.2,0,1,0,0-.39Z" fill="#dac3ff"/><path d="M74.11,24.41h-5.7A.43.43,0,0,1,68,24V22.33a.43.43,0,0,1,.43-.43h5.7a.42.42,0,0,1,.42.43V24A.43.43,0,0,1,74.11,24.41Zm-5.7-2.11,0,1.68,5.73,0,0-1.68,0,0Zm4.82,1.45a.6.6,0,0,1-.6-.6.6.6,0,0,1,1.2,0A.6.6,0,0,1,73.23,23.75Zm0-.79a.18.18,0,0,0-.19.19.19.19,0,0,0,.19.2.2.2,0,0,0,.2-.2A.19.19,0,0,0,73.23,23Z" fill="#dac3ff"/><path d="M74.11,29.68h-5.7a.43.43,0,0,1-.43-.43V27.6a.43.43,0,0,1,.43-.43h5.7a.42.42,0,0,1,.42.43v1.65A.43.43,0,0,1,74.11,29.68Zm-5.7-2.11,0,1.68,5.73,0,0-1.68,0,0ZM73.23,29a.6.6,0,0,1-.6-.6.6.6,0,0,1,1.2,0A.6.6,0,0,1,73.23,29Zm0-.79a.18.18,0,0,0-.19.19.19.19,0,0,0,.19.2.2.2,0,0,0,.2-.2A.19.19,0,0,0,73.23,28.23Z" fill="#dac3ff"/><rect x="18.99" y="18.58" width="14.93" height="4.07" rx="0.54" fill="#55d899"/><path d="M21,21.33a1.19,1.19,0,0,0,.47.11c.29,0,.43-.1.43-.3a.28.28,0,0,0-.07-.19.32.32,0,0,0-.17-.1l-.22-.08-.23-.09a.64.64,0,0,1-.17-.16.46.46,0,0,1-.07-.25.47.47,0,0,1,.16-.37.66.66,0,0,1,.44-.13,1,1,0,0,1,.45.1v.2a1.05,1.05,0,0,0-.46-.12c-.25,0-.38.1-.38.3a.27.27,0,0,0,0,.18.28.28,0,0,0,.13.11.75.75,0,0,0,.18.07l.2.07a.75.75,0,0,1,.18.08.35.35,0,0,1,.13.14.36.36,0,0,1,.05.21.43.43,0,0,1-.16.37.72.72,0,0,1-.46.13,1.34,1.34,0,0,1-.48-.08Z" fill="#08081a"/><path d="M23.86,19.8,23.28,21v.63h-.19V21l-.58-1.17h.23l.44.94.45-.94Z" fill="#08081a"/><path d="M24.28,21.33a1.24,1.24,0,0,0,.48.11c.28,0,.43-.1.43-.3a.28.28,0,0,0-.07-.19.37.37,0,0,0-.17-.1l-.23-.08-.22-.09a.44.44,0,0,1-.17-.16.39.39,0,0,1-.07-.25.44.44,0,0,1,.16-.37.64.64,0,0,1,.44-.13,1,1,0,0,1,.45.1v.2a1.09,1.09,0,0,0-.46-.12q-.39,0-.39.3a.35.35,0,0,0,.05.18.3.3,0,0,0,.14.11.75.75,0,0,0,.18.07l.19.07.19.08a.44.44,0,0,1,.13.14.46.46,0,0,1,.05.21.44.44,0,0,1-.17.37.7.7,0,0,1-.46.13,1.42,1.42,0,0,1-.48-.08Z" fill="#08081a"/><path d="M27.11,19.8V20h-.55v1.62h-.2V20h-.55V19.8Z" fill="#08081a"/><path d="M28.69,20H27.8v.6h.8v.18h-.8v.66h.89v.18H27.6V19.8h1.09Z" fill="#08081a"/><path d="M30.39,21.59h-.2L30.13,20l-.34.75h-.11L29.34,20l-.06,1.56h-.2l.09-1.79h.25l.32.7.31-.7h.25Z" fill="#08081a"/><path d="M31.36,19.8c.45,0,.67.28.67.85s-.24.94-.72.94h-.5V19.8Zm0,1.61a.45.45,0,0,0,.39-.16,1.07,1.07,0,0,0,.11-.56,1,1,0,0,0-.11-.55.45.45,0,0,0-.39-.17H31v1.44Z" fill="#08081a"/></svg>
