<svg width="24" height="24" viewBox="0 0 24 24" fill="none" xmlns="http://www.w3.org/2000/svg">
<path fill-rule="evenodd" clip-rule="evenodd" d="M6 0C2.68629 0 0 2.68629 0 6V11.1112C0 14.4249 2.68629 17.1112 6 17.1112H11.1112C11.9544 17.1112 12.757 16.9373 13.485 16.6233C12.5748 15.826 12 14.6551 12 13.35C12 10.9476 13.9476 9 16.35 9C16.6097 9 16.864 9.02275 17.1112 9.06638V6C17.1112 2.68629 14.4249 0 11.1112 0H6Z" fill="#303067"/>
<path d="M13.5 10.4286V7.57143H10.6429V8.64286H8.85714V5.78571C8.85714 5.59627 8.78189 5.41459 8.64793 5.28064C8.51398 5.14668 8.3323 5.07143 8.14286 5.07143H6.35714V4H3.5V6.85714H6.35714V5.78571H8.14286V12.2143C8.14286 12.4037 8.21811 12.5854 8.35207 12.7194C8.48602 12.8533 8.6677 12.9286 8.85714 12.9286H10.6429V14H13.5V11.1429H10.6429V12.2143H8.85714V9.35714H10.6429V10.4286H13.5ZM5.64286 6.14286H4.21429V4.71429H5.64286V6.14286ZM11.3571 11.8571H12.7857V13.2857H11.3571V11.8571ZM11.3571 8.28571H12.7857V9.71429H11.3571V8.28571Z" fill="#CBCBD7"/>
<path d="M16.5 9.50008C15.9738 9.49681 15.4522 9.59805 14.9654 9.79791C14.4787 9.99777 14.0364 10.2923 13.6644 10.6644C13.2923 11.0364 12.9978 11.4787 12.7979 11.9654C12.598 12.4522 12.4968 12.9738 12.5001 13.5C12.4968 14.0262 12.598 14.5478 12.7979 15.0346C12.9978 15.5213 13.2923 15.9636 13.6644 16.3356C14.0364 16.7077 14.4787 17.0022 14.9654 17.2021C15.4522 17.402 15.9738 17.5032 16.5 17.4999C17.0262 17.5032 17.5478 17.402 18.0346 17.2021C18.5213 17.0022 18.9636 16.7077 19.3356 16.3356C19.7077 15.9636 20.0022 15.5213 20.2021 15.0346C20.402 14.5478 20.5032 14.0262 20.4999 13.5C20.5032 12.9738 20.402 12.4522 20.2021 11.9654C20.0022 11.4787 19.7077 11.0364 19.3356 10.6644C18.9636 10.2923 18.5213 9.99777 18.0346 9.79791C17.5478 9.59805 17.0262 9.49681 16.5 9.50008ZM18.0557 15.5L14.5 11.9445L14.9445 11.5L18.5 15.0556L18.0557 15.5Z" fill="#FF6464"/>
</svg>
