<svg width="128" height="124" viewBox="0 0 128 124" fill="none" xmlns="http://www.w3.org/2000/svg">
<g filter="url(#filter0_d_739_21795)">
<rect x="50" y="34" width="24" height="24" rx="8" fill="#303067" shape-rendering="crispEdges"/>
<path d="M69 48V44H65V45.5H62.5V41.5C62.5 41.2348 62.3946 40.9804 62.2071 40.7929C62.0196 40.6054 61.7652 40.5 61.5 40.5H59V39H55V43H59V41.5H61.5V50.5C61.5 50.7652 61.6054 51.0196 61.7929 51.2071C61.9804 51.3946 62.2348 51.5 62.5 51.5H65V53H69V49H65V50.5H62.5V46.5H65V48H69ZM58 42H56V40H58V42ZM66 50H68V52H66V50ZM66 45H68V47H66V45Z" fill="#CBCBD7"/>
</g>
<g clip-path="url(#clip0_739_21795)" filter="url(#filter1_d_739_21795)">
<path d="M72 46.2501C71.2442 46.2458 70.4951 46.3914 69.7959 46.6785C69.0958 46.9659 68.4597 47.3895 67.9246 47.9247C67.3894 48.4599 66.9658 49.0959 66.6784 49.796C66.3913 50.4952 66.2457 51.2443 66.25 52.0001C66.2457 52.7559 66.3913 53.505 66.6784 54.2042C66.9658 54.9043 67.3894 55.5403 67.9246 56.0755L68.2781 55.722L67.9246 56.0755C68.4597 56.6107 69.0958 57.0343 69.7959 57.3217C70.4951 57.6088 71.2442 57.7544 72 57.7501C72.7557 57.7544 73.5049 57.6088 74.204 57.3217C74.9041 57.0343 75.5402 56.6107 76.0754 56.0755C76.6105 55.5403 77.0341 54.9043 77.3216 54.2042C77.6087 53.505 77.7543 52.7559 77.75 52.0001C77.7543 51.2443 77.6087 50.4952 77.3216 49.796C77.0341 49.0959 76.6105 48.4599 76.0754 47.9247L75.7218 48.2782L76.0754 47.9247C75.5402 47.3895 74.9041 46.9659 74.204 46.6785C73.5049 46.3914 72.7557 46.2458 72 46.2501Z" fill="#FF6464" stroke="#08081A"/>
</g>
<defs>
<filter id="filter0_d_739_21795" x="0" y="0" width="124" height="124" filterUnits="userSpaceOnUse" color-interpolation-filters="sRGB">
<feFlood flood-opacity="0" result="BackgroundImageFix"/>
<feColorMatrix in="SourceAlpha" type="matrix" values="0 0 0 0 0 0 0 0 0 0 0 0 0 0 0 0 0 0 127 0" result="hardAlpha"/>
<feOffset dy="16"/>
<feGaussianBlur stdDeviation="25"/>
<feComposite in2="hardAlpha" operator="out"/>
<feColorMatrix type="matrix" values="0 0 0 0 0 0 0 0 0 0 0 0 0 0 0 0 0 0 0.2 0"/>
<feBlend mode="normal" in2="BackgroundImageFix" result="effect1_dropShadow_739_21795"/>
<feBlend mode="normal" in="SourceGraphic" in2="effect1_dropShadow_739_21795" result="shape"/>
</filter>
<filter id="filter1_d_739_21795" x="16" y="12" width="112" height="112" filterUnits="userSpaceOnUse" color-interpolation-filters="sRGB">
<feFlood flood-opacity="0" result="BackgroundImageFix"/>
<feColorMatrix in="SourceAlpha" type="matrix" values="0 0 0 0 0 0 0 0 0 0 0 0 0 0 0 0 0 0 127 0" result="hardAlpha"/>
<feOffset dy="16"/>
<feGaussianBlur stdDeviation="25"/>
<feComposite in2="hardAlpha" operator="out"/>
<feColorMatrix type="matrix" values="0 0 0 0 0 0 0 0 0 0 0 0 0 0 0 0 0 0 0.2 0"/>
<feBlend mode="normal" in2="BackgroundImageFix" result="effect1_dropShadow_739_21795"/>
<feBlend mode="normal" in="SourceGraphic" in2="effect1_dropShadow_739_21795" result="shape"/>
</filter>
<clipPath id="clip0_739_21795">
<rect width="12" height="12" fill="white" transform="translate(66 46)"/>
</clipPath>
</defs>
</svg>
