<svg width="24" height="24" viewBox="0 0 24 24" fill="none" xmlns="http://www.w3.org/2000/svg">
<rect width="17.1112" height="17.1112" rx="6" fill="#303067"/>
<path d="M14.0001 10.1112V7.00003H10.889V8.1667H8.9445V5.05557C8.9445 4.84929 8.86255 4.65146 8.71669 4.50559C8.57083 4.35973 8.37299 4.27779 8.16671 4.27779H6.22226V3.11111H3.11113V6.22224H6.22226V5.05557H8.16671V12.0556C8.16671 12.2619 8.24866 12.4597 8.39452 12.6056C8.54038 12.7514 8.73822 12.8334 8.9445 12.8334H10.889V14.0001H14.0001V10.8889H10.889V12.0556H8.9445V8.94448H10.889V10.1112H14.0001ZM5.44448 5.44446H3.88891V3.8889H5.44448V5.44446ZM11.6667 11.6667H13.2223V13.2223H11.6667V11.6667ZM11.6667 7.77781H13.2223V9.33337H11.6667V7.77781Z" fill="white"/>
<mask id="path-3-outside-1_8_2" maskUnits="userSpaceOnUse" x="10.4445" y="7.33337" width="12" height="12" fill="black">
<rect fill="white" x="10.4445" y="7.33337" width="12" height="12"/>
<path fill-rule="evenodd" clip-rule="evenodd" d="M15.274 9.53789L15.449 10.0921C15.7967 9.975 16.1613 9.91588 16.5282 9.91706V9.33373C16.1014 9.3279 15.6769 9.39701 15.274 9.53789ZM13.2324 11.0254C13.478 10.6826 13.7728 10.378 14.1074 10.1212L14.4574 10.5879C14.1686 10.8132 13.9132 11.0783 13.699 11.3754L13.2324 11.0254ZM12.649 12.1629L13.2032 12.3379C13.0861 12.6856 13.027 13.0502 13.0282 13.4171H12.4449C12.439 12.9903 12.5081 12.5658 12.649 12.1629ZM12.649 14.7004C12.7843 15.1071 12.981 15.4907 13.2324 15.8379L13.699 15.4879C13.4882 15.1927 13.3212 14.8685 13.2032 14.5254L12.649 14.7004ZM15.274 17.2963C14.8673 17.161 14.4837 16.9643 14.1365 16.7129L14.4865 16.2463C14.7818 16.4571 15.106 16.6241 15.449 16.7421L15.274 17.2963ZM19.8241 15.8088C19.568 16.1523 19.2634 16.4569 18.9199 16.7129L18.5699 16.2463C18.8743 16.0293 19.1405 15.7632 19.3574 15.4588L19.8241 15.8088ZM19.8532 14.4962L20.4074 14.6712C20.5343 14.2649 20.603 13.8427 20.6116 13.4171H20.0282C20.0294 13.784 19.9703 14.1485 19.8532 14.4962ZM19.7949 10.9962C20.0462 11.3434 20.243 11.727 20.3782 12.1337L19.8241 12.3087C19.7061 11.9657 19.5391 11.6415 19.3282 11.3462L19.7949 10.9962ZM18.8907 10.0921C18.5435 9.84071 18.1599 9.64399 17.7532 9.50872L17.5782 10.0629C17.9213 10.1809 18.2455 10.3479 18.5407 10.5587L18.8907 10.0921ZM17.6074 16.7421L17.7824 17.2963C17.3723 17.4068 16.9521 17.4752 16.5282 17.5004V16.9171C16.8951 16.9183 17.2597 16.8592 17.6074 16.7421Z"/>
</mask>
<path fill-rule="evenodd" clip-rule="evenodd" d="M15.274 9.53789L15.449 10.0921C15.7967 9.975 16.1613 9.91588 16.5282 9.91706V9.33373C16.1014 9.3279 15.6769 9.39701 15.274 9.53789ZM13.2324 11.0254C13.478 10.6826 13.7728 10.378 14.1074 10.1212L14.4574 10.5879C14.1686 10.8132 13.9132 11.0783 13.699 11.3754L13.2324 11.0254ZM12.649 12.1629L13.2032 12.3379C13.0861 12.6856 13.027 13.0502 13.0282 13.4171H12.4449C12.439 12.9903 12.5081 12.5658 12.649 12.1629ZM12.649 14.7004C12.7843 15.1071 12.981 15.4907 13.2324 15.8379L13.699 15.4879C13.4882 15.1927 13.3212 14.8685 13.2032 14.5254L12.649 14.7004ZM15.274 17.2963C14.8673 17.161 14.4837 16.9643 14.1365 16.7129L14.4865 16.2463C14.7818 16.4571 15.106 16.6241 15.449 16.7421L15.274 17.2963ZM19.8241 15.8088C19.568 16.1523 19.2634 16.4569 18.9199 16.7129L18.5699 16.2463C18.8743 16.0293 19.1405 15.7632 19.3574 15.4588L19.8241 15.8088ZM19.8532 14.4962L20.4074 14.6712C20.5343 14.2649 20.603 13.8427 20.6116 13.4171H20.0282C20.0294 13.784 19.9703 14.1485 19.8532 14.4962ZM19.7949 10.9962C20.0462 11.3434 20.243 11.727 20.3782 12.1337L19.8241 12.3087C19.7061 11.9657 19.5391 11.6415 19.3282 11.3462L19.7949 10.9962ZM18.8907 10.0921C18.5435 9.84071 18.1599 9.64399 17.7532 9.50872L17.5782 10.0629C17.9213 10.1809 18.2455 10.3479 18.5407 10.5587L18.8907 10.0921ZM17.6074 16.7421L17.7824 17.2963C17.3723 17.4068 16.9521 17.4752 16.5282 17.5004V16.9171C16.8951 16.9183 17.2597 16.8592 17.6074 16.7421Z" fill="#DAC3FF"/>
<path d="M15.449 10.0921L14.4955 10.3932L14.8023 11.3649L15.7681 11.0398L15.449 10.0921ZM15.274 9.53788L14.944 8.59393L14.0284 8.91409L14.3205 9.83901L15.274 9.53788ZM16.5282 9.91705L16.525 10.917L17.5282 10.9203V9.91705H16.5282ZM16.5282 9.33371H17.5282V8.34726L16.5419 8.33381L16.5282 9.33371ZM14.1074 10.1212L14.9074 9.52122L14.3007 8.71235L13.4986 9.32788L14.1074 10.1212ZM13.2324 11.0254L12.4195 10.4429L11.8496 11.2383L12.6324 11.8254L13.2324 11.0254ZM14.4574 10.5879L15.0724 11.3764L15.8461 10.7729L15.2574 9.98789L14.4574 10.5879ZM13.699 11.3754L13.099 12.1754L13.9142 12.7868L14.5102 11.9603L13.699 11.3754ZM13.2032 12.3379L14.1509 12.657L14.4761 11.6912L13.5043 11.3843L13.2032 12.3379ZM12.649 12.1629L12.9502 11.2093L12.0252 10.9172L11.7051 11.8328L12.649 12.1629ZM13.0282 13.4171V14.4171H14.0314L14.0282 13.4138L13.0282 13.4171ZM12.4449 13.4171L11.445 13.4307L11.4584 14.4171H12.4449V13.4171ZM13.2324 15.8379L12.4224 16.4243L13.0188 17.2481L13.8324 16.6379L13.2324 15.8379ZM12.649 14.7004L12.3479 13.7468L11.3797 14.0526L11.7001 15.016L12.649 14.7004ZM13.699 15.4879L14.299 16.2879L15.0806 15.7017L14.5128 14.9067L13.699 15.4879ZM13.2032 14.5254L14.1489 14.2002L13.8318 13.2782L12.9021 13.5718L13.2032 14.5254ZM14.1365 16.7129L13.3365 16.1129L12.7263 16.9265L13.5501 17.5229L14.1365 16.7129ZM15.274 17.2963L14.9585 18.2452L15.9219 18.5656L16.2276 17.5974L15.274 17.2963ZM14.4865 16.2463L15.0677 15.4325L14.2727 14.8647L13.6865 15.6463L14.4865 16.2463ZM15.449 16.7421L16.4026 17.0432L16.6962 16.1135L15.7742 15.7964L15.449 16.7421ZM18.9199 16.7129L18.1199 17.3129L18.7181 18.1105L19.5175 17.5147L18.9199 16.7129ZM19.8241 15.8087L20.6259 16.4063L21.2217 15.6069L20.4241 15.0087L19.8241 15.8087ZM18.5699 16.2462L17.9896 15.4318L17.155 16.0264L17.7699 16.8462L18.5699 16.2462ZM19.3574 15.4587L19.9574 14.6587L19.1376 14.0439L18.543 14.8785L19.3574 15.4587ZM20.4074 14.6712L20.1063 15.6248L21.0629 15.9269L21.362 14.9693L20.4074 14.6712ZM19.8532 14.4962L18.9055 14.1772L18.5804 15.1429L19.5521 15.4498L19.8532 14.4962ZM20.6116 13.4171L21.6114 13.4372L21.6319 12.4171H20.6116V13.4171ZM20.0282 13.4171V12.4171H19.025L19.0282 13.4203L20.0282 13.4171ZM20.3782 12.1337L20.6794 13.0873L21.6475 12.7816L21.3271 11.8181L20.3782 12.1337ZM19.7949 10.9962L20.6049 10.4098L20.0085 9.58602L19.1949 10.1962L19.7949 10.9962ZM19.8241 12.3087L18.8784 12.6339L19.1955 13.5559L20.1252 13.2623L19.8241 12.3087ZM19.3282 11.3462L18.7282 10.5462L17.9467 11.1324L18.5145 11.9274L19.3282 11.3462ZM17.7532 9.50871L18.0688 8.55981L17.1054 8.2394L16.7996 9.20758L17.7532 9.50871ZM18.8907 10.092L19.6907 10.692L20.3009 9.87844L19.4771 9.28204L18.8907 10.092ZM17.5782 10.0629L16.6246 9.76175L16.331 10.6915L17.253 11.0085L17.5782 10.0629ZM18.5407 10.5587L17.9595 11.3725L18.7546 11.9403L19.3407 11.1587L18.5407 10.5587ZM17.7824 17.2963L18.0426 18.2618L19.0502 17.9903L18.736 16.9951L17.7824 17.2963ZM17.6074 16.7421L18.561 16.441L18.2541 15.4692L17.2883 15.7944L17.6074 16.7421ZM16.5282 17.5004H15.5282V18.5618L16.5877 18.4987L16.5282 17.5004ZM16.5282 16.9171L16.5314 15.9171L15.5282 15.9139V16.9171H16.5282ZM16.4026 9.79092L16.2276 9.23675L14.3205 9.83901L14.4955 10.3932L16.4026 9.79092ZM16.5314 8.91706C16.055 8.91552 15.5815 8.9923 15.13 9.14432L15.7681 11.0398C16.012 10.9577 16.2677 10.9162 16.525 10.917L16.5314 8.91706ZM15.5282 9.33371V9.91705H17.5282V9.33371H15.5282ZM15.6041 10.4818C15.8966 10.3796 16.2048 10.3294 16.5146 10.3336L16.5419 8.33381C15.9981 8.32639 15.4573 8.41443 14.944 8.59393L15.6041 10.4818ZM13.4986 9.32788C13.086 9.64448 12.7224 10.0202 12.4195 10.4429L14.0452 11.6078C14.2336 11.345 14.4596 11.1114 14.7162 10.9146L13.4986 9.32788ZM15.2574 9.98789L14.9074 9.52122L13.3074 10.7212L13.6574 11.1879L15.2574 9.98789ZM14.5102 11.9603C14.669 11.74 14.8583 11.5434 15.0724 11.3764L13.8423 9.7994C13.4789 10.0829 13.1575 10.4166 12.8879 10.7905L14.5102 11.9603ZM12.6324 11.8254L13.099 12.1754L14.299 10.5754L13.8324 10.2254L12.6324 11.8254ZM13.5043 11.3843L12.9502 11.2093L12.3479 13.1165L12.9021 13.2915L13.5043 11.3843ZM14.0282 13.4138C14.0274 13.1565 14.0688 12.9008 14.1509 12.657L12.2555 12.0188C12.1034 12.4704 12.0267 12.9438 12.0282 13.4203L14.0282 13.4138ZM12.4449 14.4171H13.0282V12.4171H12.4449V14.4171ZM11.7051 11.8328C11.5256 12.3461 11.4375 12.887 11.445 13.4307L13.4448 13.4034C13.4405 13.0936 13.4907 12.7855 13.593 12.493L11.7051 11.8328ZM14.0424 15.2515C13.8509 14.987 13.701 14.6947 13.5979 14.3848L11.7001 15.016C11.8676 15.5195 12.1112 15.9945 12.4224 16.4243L14.0424 15.2515ZM13.099 14.6879L12.6324 15.0379L13.8324 16.6379L14.299 16.2879L13.099 14.6879ZM12.2575 14.8506C12.4069 15.2849 12.6183 15.6953 12.8853 16.0691L14.5128 14.9067C14.358 14.69 14.2354 14.452 14.1489 14.2002L12.2575 14.8506ZM12.9502 15.654L13.5043 15.479L12.9021 13.5718L12.3479 13.7468L12.9502 15.654ZM13.5501 17.5229C13.98 17.8341 14.4549 18.0777 14.9585 18.2452L15.5896 16.3474C15.2797 16.2443 14.9875 16.0944 14.7229 15.9029L13.5501 17.5229ZM13.6865 15.6463L13.3365 16.1129L14.9365 17.3129L15.2865 16.8463L13.6865 15.6463ZM15.7742 15.7964C15.5224 15.7098 15.2844 15.5873 15.0677 15.4325L13.9053 17.06C14.2791 17.327 14.6895 17.5384 15.1239 17.6877L15.7742 15.7964ZM16.2276 17.5974L16.4026 17.0432L14.4955 16.441L14.3205 16.9951L16.2276 17.5974ZM19.5175 17.5147C19.9386 17.2008 20.312 16.8275 20.6259 16.4063L19.0223 15.2112C18.824 15.4771 18.5883 15.7129 18.3223 15.9111L19.5175 17.5147ZM17.7699 16.8462L18.1199 17.3129L19.7199 16.1129L19.3699 15.6462L17.7699 16.8462ZM18.543 14.8785C18.3906 15.0924 18.2035 15.2794 17.9896 15.4318L19.1501 17.0607C19.5451 16.7793 19.8904 16.434 20.1718 16.039L18.543 14.8785ZM20.4241 15.0087L19.9574 14.6587L18.7574 16.2587L19.2241 16.6087L20.4241 15.0087ZM20.7085 13.7177L20.1544 13.5427L19.5521 15.4498L20.1063 15.6248L20.7085 13.7177ZM19.6118 13.397C19.6051 13.7282 19.5516 14.0569 19.4529 14.3732L21.362 14.9693C21.5169 14.4729 21.6009 13.9571 21.6114 13.4372L19.6118 13.397ZM20.0282 14.4171H20.6116V12.4171H20.0282V14.4171ZM20.801 14.8153C20.953 14.3638 21.0298 13.8903 21.0282 13.4138L19.0282 13.4203C19.0291 13.6776 18.9876 13.9333 18.9055 14.1772L20.801 14.8153ZM21.3271 11.8181C21.1597 11.3146 20.9161 10.8397 20.6049 10.4098L18.9849 11.5826C19.1764 11.8472 19.3263 12.1394 19.4293 12.4493L21.3271 11.8181ZM20.1252 13.2623L20.6794 13.0873L20.0771 11.1801L19.5229 11.3551L20.1252 13.2623ZM18.5145 11.9274C18.6692 12.1441 18.7918 12.3821 18.8784 12.6339L20.7697 11.9836C20.6204 11.5492 20.4089 11.1388 20.142 10.765L18.5145 11.9274ZM19.1949 10.1962L18.7282 10.5462L19.9282 12.1462L20.3949 11.7962L19.1949 10.1962ZM17.4376 10.4576C17.7475 10.5607 18.0398 10.7106 18.3043 10.9021L19.4771 9.28204C19.0473 8.97085 18.5724 8.72729 18.0688 8.55981L17.4376 10.4576ZM18.5318 10.364L18.7068 9.80984L16.7996 9.20758L16.6246 9.76175L18.5318 10.364ZM19.1219 9.74495C18.7482 9.47801 18.3377 9.26658 17.9034 9.11723L17.253 11.0085C17.5049 11.0951 17.7428 11.2177 17.9595 11.3725L19.1219 9.74495ZM18.0907 9.49205L17.7407 9.95872L19.3407 11.1587L19.6907 10.692L18.0907 9.49205ZM18.736 16.9951L18.561 16.441L16.6538 17.0432L16.8288 17.5974L18.736 16.9951ZM16.5877 18.4987C17.0794 18.4694 17.5669 18.39 18.0426 18.2618L17.5222 16.3307C17.1778 16.4235 16.8248 16.481 16.4687 16.5022L16.5877 18.4987ZM15.5282 16.9171V17.5004H17.5282V16.9171H15.5282ZM17.2883 15.7944C17.0444 15.8765 16.7887 15.9179 16.5314 15.9171L16.525 17.9171C17.0014 17.9186 17.4749 17.8419 17.9265 17.6898L17.2883 15.7944Z" fill="#08081A" mask="url(#path-3-outside-1_8_2)"/>
</svg>
