<svg width="128" height="124" viewBox="0 0 128 124" fill="none" xmlns="http://www.w3.org/2000/svg">
<g filter="url(#filter0_d_739_21808)">
<rect x="50" y="34" width="24" height="24" rx="8" fill="#303067" shape-rendering="crispEdges"/>
<path d="M69 48V44H65V45.5H62.5V41.5C62.5 41.2348 62.3946 40.9804 62.2071 40.7929C62.0196 40.6054 61.7652 40.5 61.5 40.5H59V39H55V43H59V41.5H61.5V50.5C61.5 50.7652 61.6054 51.0196 61.7929 51.2071C61.9804 51.3946 62.2348 51.5 62.5 51.5H65V53H69V49H65V50.5H62.5V46.5H65V48H69ZM58 42H56V40H58V42ZM66 50H68V52H66V50ZM66 45H68V47H66V45Z" fill="#CBCBD7"/>
</g>
<g clip-path="url(#clip0_739_21808)" filter="url(#filter1_d_739_21808)">
<mask id="path-3-outside-1_739_21808" maskUnits="userSpaceOnUse" x="64.7495" y="44.7495" width="14" height="14" fill="black">
<rect fill="white" x="64.7495" y="44.7495" width="14" height="14"/>
<path fill-rule="evenodd" clip-rule="evenodd" d="M70.3875 47.0124L70.6125 47.7249C71.0595 47.5744 71.5282 47.4984 72 47.4999V46.7499C71.4512 46.7425 70.9055 46.8313 70.3875 47.0124ZM67.7625 48.925C68.0782 48.4842 68.4573 48.0925 68.8875 47.7625L69.3375 48.3625C68.9661 48.6521 68.6379 48.993 68.3625 49.375L67.7625 48.925ZM67.0124 50.3875L67.7249 50.6125C67.5744 51.0595 67.4984 51.5282 67.4999 52H66.7499C66.7425 51.4512 66.8313 50.9055 67.0124 50.3875ZM67.0125 53.6499C67.1864 54.1729 67.4393 54.6661 67.7625 55.1124L68.3625 54.6624C68.0914 54.2829 67.8766 53.866 67.725 53.4249L67.0125 53.6499ZM70.3874 56.9875C69.8645 56.8135 69.3713 56.5606 68.9249 56.2375L69.3749 55.6375C69.7545 55.9085 70.1713 56.1233 70.6124 56.275L70.3874 56.9875ZM76.2374 55.0749C75.9082 55.5167 75.5167 55.9082 75.0749 56.2374L74.6249 55.6374C75.0164 55.3586 75.3586 55.0164 75.6374 54.6249L76.2374 55.0749ZM76.2749 53.3874L76.9874 53.6124C77.1506 53.09 77.2389 52.5471 77.2499 51.9999H76.4999C76.5015 52.4717 76.4255 52.9404 76.2749 53.3874ZM76.1999 48.8875C76.5231 49.3338 76.776 49.827 76.9499 50.35L76.2374 50.575C76.0858 50.1339 75.871 49.717 75.5999 49.3375L76.1999 48.8875ZM75.0374 47.7249C74.5911 47.4018 74.0979 47.1489 73.5749 46.9749L73.3499 47.6874C73.791 47.8391 74.2079 48.0539 74.5874 48.3249L75.0374 47.7249ZM73.3874 56.275L73.6124 56.9875C73.0853 57.1295 72.545 57.2175 71.9999 57.25V56.5C72.4717 56.5015 72.9404 56.4255 73.3874 56.275Z"/>
</mask>
<path fill-rule="evenodd" clip-rule="evenodd" d="M70.3875 47.0124L70.6125 47.7249C71.0595 47.5744 71.5282 47.4984 72 47.4999V46.7499C71.4512 46.7425 70.9055 46.8313 70.3875 47.0124ZM67.7625 48.925C68.0782 48.4842 68.4573 48.0925 68.8875 47.7625L69.3375 48.3625C68.9661 48.6521 68.6379 48.993 68.3625 49.375L67.7625 48.925ZM67.0124 50.3875L67.7249 50.6125C67.5744 51.0595 67.4984 51.5282 67.4999 52H66.7499C66.7425 51.4512 66.8313 50.9055 67.0124 50.3875ZM67.0125 53.6499C67.1864 54.1729 67.4393 54.6661 67.7625 55.1124L68.3625 54.6624C68.0914 54.2829 67.8766 53.866 67.725 53.4249L67.0125 53.6499ZM70.3874 56.9875C69.8645 56.8135 69.3713 56.5606 68.9249 56.2375L69.3749 55.6375C69.7545 55.9085 70.1713 56.1233 70.6124 56.275L70.3874 56.9875ZM76.2374 55.0749C75.9082 55.5167 75.5167 55.9082 75.0749 56.2374L74.6249 55.6374C75.0164 55.3586 75.3586 55.0164 75.6374 54.6249L76.2374 55.0749ZM76.2749 53.3874L76.9874 53.6124C77.1506 53.09 77.2389 52.5471 77.2499 51.9999H76.4999C76.5015 52.4717 76.4255 52.9404 76.2749 53.3874ZM76.1999 48.8875C76.5231 49.3338 76.776 49.827 76.9499 50.35L76.2374 50.575C76.0858 50.1339 75.871 49.717 75.5999 49.3375L76.1999 48.8875ZM75.0374 47.7249C74.5911 47.4018 74.0979 47.1489 73.5749 46.9749L73.3499 47.6874C73.791 47.8391 74.2079 48.0539 74.5874 48.3249L75.0374 47.7249ZM73.3874 56.275L73.6124 56.9875C73.0853 57.1295 72.545 57.2175 71.9999 57.25V56.5C72.4717 56.5015 72.9404 56.4255 73.3874 56.275Z" fill="#DAC3FF"/>
<path d="M70.6125 47.7249L69.6589 48.0261L69.9657 48.9978L70.9315 48.6727L70.6125 47.7249ZM70.3875 47.0124L70.0574 46.0685L69.1418 46.3887L69.4339 47.3136L70.3875 47.0124ZM72 47.4999L71.9967 48.4999L73 48.5032V47.4999H72ZM72 46.7499H73V45.7635L72.0136 45.75L72 46.7499ZM68.8875 47.7625L69.6875 47.1625L69.0808 46.3536L68.2787 46.9691L68.8875 47.7625ZM67.7625 48.925L66.9496 48.3425L66.3797 49.1379L67.1625 49.725L67.7625 48.925ZM69.3375 48.3625L69.9525 49.1509L70.7262 48.5474L70.1375 47.7625L69.3375 48.3625ZM68.3625 49.375L67.7625 50.175L68.5776 50.7863L69.1736 49.9598L68.3625 49.375ZM67.7249 50.6125L68.6727 50.9315L68.9978 49.9657L68.0261 49.6589L67.7249 50.6125ZM67.0124 50.3875L67.3136 49.4339L66.3887 49.1418L66.0685 50.0574L67.0124 50.3875ZM67.4999 52V53H68.5032L68.4999 51.9967L67.4999 52ZM66.7499 52L65.75 52.0136L65.7635 53H66.7499V52ZM67.7625 55.1124L66.9524 55.6989L67.5488 56.5227L68.3625 55.9124L67.7625 55.1124ZM67.0125 53.6499L66.7113 52.6964L65.7431 53.0021L66.0636 53.9655L67.0125 53.6499ZM68.3625 54.6624L68.9625 55.4624L69.744 54.8763L69.1762 54.0813L68.3625 54.6624ZM67.725 53.4249L68.6706 53.0998L68.3536 52.1778L67.4238 52.4714L67.725 53.4249ZM68.9249 56.2375L68.1249 55.6375L67.5147 56.4511L68.3385 57.0475L68.9249 56.2375ZM70.3874 56.9875L70.0719 57.9363L71.0353 58.2568L71.341 57.2886L70.3874 56.9875ZM69.3749 55.6375L69.9561 54.8237L69.1611 54.2559L68.5749 55.0375L69.3749 55.6375ZM70.6124 56.275L71.566 56.5761L71.8596 55.6463L70.9376 55.3293L70.6124 56.275ZM75.0749 56.2374L74.2749 56.8374L74.8731 57.635L75.6725 57.0393L75.0749 56.2374ZM76.2374 55.0749L77.0393 55.6725L77.635 54.8731L76.8374 54.2749L76.2374 55.0749ZM74.6249 55.6374L74.0447 54.823L73.2101 55.4176L73.8249 56.2374L74.6249 55.6374ZM75.6374 54.6249L76.2374 53.8249L75.4176 53.2101L74.823 54.0447L75.6374 54.6249ZM76.9874 53.6124L76.6863 54.566L77.643 54.8681L77.942 53.9105L76.9874 53.6124ZM76.2749 53.3874L75.3272 53.0684L75.0021 54.0342L75.9738 54.341L76.2749 53.3874ZM77.2499 51.9999L78.2497 52.02L78.2702 50.9999H77.2499V51.9999ZM76.4999 51.9999V50.9999H75.4967L75.5 52.0032L76.4999 51.9999ZM76.9499 50.35L77.2511 51.3035L78.2193 50.9978L77.8988 50.0344L76.9499 50.35ZM76.1999 48.8875L77.01 48.301L76.4136 47.4772L75.5999 48.0875L76.1999 48.8875ZM76.2374 50.575L75.2918 50.9001L75.6088 51.8221L76.5386 51.5285L76.2374 50.575ZM75.5999 49.3375L74.9999 48.5375L74.2184 49.1236L74.7862 49.9186L75.5999 49.3375ZM73.5749 46.9749L73.8905 46.0261L72.9271 45.7056L72.6214 46.6738L73.5749 46.9749ZM75.0374 47.7249L75.8374 48.3249L76.4477 47.5113L75.6239 46.9149L75.0374 47.7249ZM73.3499 47.6874L72.3964 47.3863L72.1028 48.3161L73.0248 48.6331L73.3499 47.6874ZM74.5874 48.3249L74.0063 49.1387L74.8013 49.7065L75.3874 48.9249L74.5874 48.3249ZM73.6124 56.9875L73.8727 57.953L74.8803 57.6815L74.566 56.6863L73.6124 56.9875ZM73.3874 56.275L74.341 55.9738L74.0342 55.0021L73.0684 55.3272L73.3874 56.275ZM71.9999 57.25H70.9999V58.3113L72.0594 58.2482L71.9999 57.25ZM71.9999 56.5L72.0032 55.5L70.9999 55.4967V56.5H71.9999ZM71.566 47.4238L71.341 46.7113L69.4339 47.3136L69.6589 48.0261L71.566 47.4238ZM72.0032 46.5C71.4219 46.4981 70.8443 46.5917 70.2934 46.7772L70.9315 48.6727C71.2747 48.5571 71.6346 48.4988 71.9967 48.4999L72.0032 46.5ZM71 46.7499V47.4999H73V46.7499H71ZM70.7175 47.9564C71.1251 47.8139 71.5546 47.744 71.9863 47.7499L72.0136 45.75C71.3479 45.741 70.6858 45.8487 70.0574 46.0685L70.7175 47.9564ZM68.2787 46.9691C67.7705 47.3591 67.3227 47.8218 66.9496 48.3425L68.5753 49.5074C68.8338 49.1466 69.1441 48.826 69.4962 48.5558L68.2787 46.9691ZM70.1375 47.7625L69.6875 47.1625L68.0875 48.3625L68.5375 48.9625L70.1375 47.7625ZM69.1736 49.9598C69.3936 49.6547 69.6559 49.3823 69.9525 49.1509L68.7224 47.574C68.2764 47.9218 67.8821 48.3313 67.5513 48.7901L69.1736 49.9598ZM67.1625 49.725L67.7625 50.175L68.9625 48.575L68.3625 48.125L67.1625 49.725ZM68.0261 49.6589L67.3136 49.4339L66.7113 51.341L67.4238 51.566L68.0261 49.6589ZM68.4999 51.9967C68.4988 51.6346 68.5571 51.2747 68.6727 50.9315L66.7772 50.2934C66.5917 50.8443 66.4981 51.4219 66.5 52.0032L68.4999 51.9967ZM66.7499 53H67.4999V51H66.7499V53ZM66.0685 50.0574C65.8487 50.6858 65.741 51.3479 65.75 52.0136L67.7499 51.9863C67.744 51.5546 67.8139 51.1251 67.9564 50.7175L66.0685 50.0574ZM68.5725 54.526C68.3091 54.1623 68.1031 53.7604 67.9613 53.3344L66.0636 53.9655C66.2697 54.5853 66.5694 55.1698 66.9524 55.6989L68.5725 54.526ZM67.7625 53.8624L67.1625 54.3124L68.3625 55.9124L68.9625 55.4624L67.7625 53.8624ZM66.7793 53.7501C66.9624 54.2825 67.2215 54.7855 67.5487 55.2436L69.1762 54.0813C68.9612 53.7802 68.7909 53.4496 68.6706 53.0998L66.7793 53.7501ZM67.3136 54.6035L68.0261 54.3785L67.4238 52.4714L66.7113 52.6964L67.3136 54.6035ZM68.3385 57.0475C68.8676 57.4305 69.4521 57.7302 70.0719 57.9363L70.703 56.0386C70.2769 55.8968 69.8751 55.6908 69.5114 55.4274L68.3385 57.0475ZM68.5749 55.0375L68.1249 55.6375L69.7249 56.8375L70.1749 56.2375L68.5749 55.0375ZM70.9376 55.3293C70.5878 55.209 70.2572 55.0387 69.9561 54.8237L68.7938 56.4512C69.2519 56.7784 69.7549 57.0375 70.2873 57.2206L70.9376 55.3293ZM71.341 57.2886L71.566 56.5761L69.6589 55.9738L69.4339 56.6863L71.341 57.2886ZM75.6725 57.0393C76.1918 56.6522 76.6522 56.1918 77.0393 55.6725L75.4356 54.4774C75.1643 54.8415 74.8415 55.1643 74.4774 55.4356L75.6725 57.0393ZM73.8249 56.2374L74.2749 56.8374L75.8749 55.6374L75.4249 55.0374L73.8249 56.2374ZM74.823 54.0447C74.6086 54.3456 74.3456 54.6086 74.0447 54.823L75.2052 56.4519C75.6872 56.1085 76.1085 55.6872 76.4519 55.2052L74.823 54.0447ZM76.8374 54.2749L76.2374 53.8249L75.0374 55.4249L75.6374 55.8749L76.8374 54.2749ZM77.2886 52.6589L76.5761 52.4339L75.9738 54.341L76.6863 54.566L77.2886 52.6589ZM76.2501 51.9799C76.241 52.4327 76.1679 52.882 76.0329 53.3144L77.942 53.9105C78.1332 53.298 78.2368 52.6616 78.2497 52.02L76.2501 51.9799ZM76.4999 52.9999H77.2499V50.9999H76.4999V52.9999ZM77.2227 53.7065C77.4081 53.1556 77.5018 52.578 77.4999 51.9967L75.5 52.0032C75.5011 52.3653 75.4428 52.7252 75.3272 53.0684L77.2227 53.7065ZM77.8988 50.0344C77.6927 49.4146 77.393 48.8301 77.01 48.301L75.3899 49.4739C75.6533 49.8376 75.8593 50.2395 76.0011 50.6655L77.8988 50.0344ZM76.5386 51.5285L77.2511 51.3035L76.6488 49.3964L75.9363 49.6214L76.5386 51.5285ZM74.7862 49.9186C75.0012 50.2197 75.1715 50.5503 75.2918 50.9001L77.1831 50.2498C77 49.7174 76.7409 49.2144 76.4137 48.7563L74.7862 49.9186ZM75.5999 48.0875L74.9999 48.5375L76.1999 50.1375L76.7999 49.6875L75.5999 48.0875ZM73.2594 47.9238C73.6854 48.0656 74.0873 48.2716 74.451 48.535L75.6239 46.9149C75.0948 46.5319 74.5103 46.2322 73.8905 46.0261L73.2594 47.9238ZM74.3035 47.9886L74.5285 47.2761L72.6214 46.6738L72.3964 47.3863L74.3035 47.9886ZM75.1686 47.5112C74.7105 47.184 74.2075 46.9249 73.6751 46.7418L73.0248 48.6331C73.3746 48.7534 73.7052 48.9237 74.0063 49.1387L75.1686 47.5112ZM74.2374 47.1249L73.7874 47.7249L75.3874 48.9249L75.8374 48.3249L74.2374 47.1249ZM74.566 56.6863L74.341 55.9738L72.4339 56.5761L72.6589 57.2886L74.566 56.6863ZM72.0594 58.2482C72.6723 58.2117 73.2798 58.1128 73.8727 57.953L73.3522 56.0219C72.8907 56.1463 72.4176 56.2233 71.9405 56.2517L72.0594 58.2482ZM70.9999 56.5V57.25H72.9999V56.5H70.9999ZM73.0684 55.3272C72.7252 55.4428 72.3653 55.5011 72.0032 55.5L71.9967 57.5C72.578 57.5018 73.1556 57.4082 73.7065 57.2227L73.0684 55.3272Z" fill="#08081A" mask="url(#path-3-outside-1_739_21808)"/>
</g>
<defs>
<filter id="filter0_d_739_21808" x="0" y="0" width="124" height="124" filterUnits="userSpaceOnUse" color-interpolation-filters="sRGB">
<feFlood flood-opacity="0" result="BackgroundImageFix"/>
<feColorMatrix in="SourceAlpha" type="matrix" values="0 0 0 0 0 0 0 0 0 0 0 0 0 0 0 0 0 0 127 0" result="hardAlpha"/>
<feOffset dy="16"/>
<feGaussianBlur stdDeviation="25"/>
<feComposite in2="hardAlpha" operator="out"/>
<feColorMatrix type="matrix" values="0 0 0 0 0 0 0 0 0 0 0 0 0 0 0 0 0 0 0.2 0"/>
<feBlend mode="normal" in2="BackgroundImageFix" result="effect1_dropShadow_739_21808"/>
<feBlend mode="normal" in="SourceGraphic" in2="effect1_dropShadow_739_21808" result="shape"/>
</filter>
<filter id="filter1_d_739_21808" x="16" y="12" width="112" height="112" filterUnits="userSpaceOnUse" color-interpolation-filters="sRGB">
<feFlood flood-opacity="0" result="BackgroundImageFix"/>
<feColorMatrix in="SourceAlpha" type="matrix" values="0 0 0 0 0 0 0 0 0 0 0 0 0 0 0 0 0 0 127 0" result="hardAlpha"/>
<feOffset dy="16"/>
<feGaussianBlur stdDeviation="25"/>
<feComposite in2="hardAlpha" operator="out"/>
<feColorMatrix type="matrix" values="0 0 0 0 0 0 0 0 0 0 0 0 0 0 0 0 0 0 0.2 0"/>
<feBlend mode="normal" in2="BackgroundImageFix" result="effect1_dropShadow_739_21808"/>
<feBlend mode="normal" in="SourceGraphic" in2="effect1_dropShadow_739_21808" result="shape"/>
</filter>
<clipPath id="clip0_739_21808">
<rect width="12" height="12" fill="white" transform="translate(66 46)"/>
</clipPath>
</defs>
</svg>
