<svg width="24" height="24" viewBox="0 0 24 24" fill="none" xmlns="http://www.w3.org/2000/svg">
<path fill-rule="evenodd" clip-rule="evenodd" d="M6 0C2.68629 0 0 2.68629 0 6V11.1112C0 14.4249 2.68629 17.1112 6 17.1112H11.1112C11.9544 17.1112 12.757 16.9373 13.485 16.6233C12.5748 15.826 12 14.6551 12 13.35C12 10.9476 13.9476 9 16.35 9C16.6097 9 16.864 9.02275 17.1112 9.06638V6C17.1112 2.68629 14.4249 0 11.1112 0H6Z" fill="#303067"/>
<path d="M16.5 9.5C15.7089 9.5 14.9355 9.7346 14.2777 10.1741C13.6199 10.6136 13.1072 11.2384 12.8045 11.9693C12.5017 12.7002 12.4225 13.5044 12.5769 14.2804C12.7312 15.0563 13.1122 15.769 13.6716 16.3284C14.231 16.8878 14.9437 17.2688 15.7196 17.4231C16.4956 17.5775 17.2998 17.4983 18.0307 17.1955C18.7616 16.8928 19.3864 16.3801 19.8259 15.7223C20.2654 15.0645 20.5 14.2911 20.5 13.5C20.5 12.4391 20.0786 11.4217 19.3284 10.6716C18.5783 9.92143 17.5609 9.5 16.5 9.5ZM15.9286 15.0974L14.5 13.6688L14.9545 13.2143L15.9286 14.1883L18.0457 12.0714L18.5016 12.5245L15.9286 15.0974Z" fill="#55D899"/>
<path fill-rule="evenodd" clip-rule="evenodd" d="M12.2362 10.4286H11.1429V9.35714H9.35714V12.2143H11.1429V11.1429H11.849C11.843 11.157 11.837 11.1711 11.8311 11.1853C11.5019 11.9802 11.4157 12.8548 11.5836 13.6986C11.6038 13.8001 11.6275 13.9007 11.6548 14H11.1429V12.9286H9.35714C9.1677 12.9286 8.98602 12.8533 8.85207 12.7194C8.71811 12.5854 8.64286 12.4037 8.64286 12.2143V5.78571H6.85714V6.85714H4V4H6.85714V5.07143H8.64286C8.8323 5.07143 9.01398 5.14668 9.14793 5.28064C9.28189 5.41459 9.35714 5.59627 9.35714 5.78571V8.64286H11.1429V7.57143H14V8.91299C13.8042 9.00502 13.6147 9.1119 13.4333 9.23311C13.3833 9.26649 13.3341 9.30086 13.2857 9.33618V8.28571H11.8571V9.71429H12.8351C12.6104 9.9303 12.4096 10.1698 12.2362 10.4286ZM14 12.7085V13.3586L13.675 13.0336L14 12.7085ZM4.71429 6.14286H6.14286V4.71429H4.71429V6.14286Z" fill="#CBCBD7"/>
</svg>
