<svg width="569" height="134" viewBox="0 0 569 134" fill="none" xmlns="http://www.w3.org/2000/svg">
<g clip-path="url(#clip0_30_1104)">
<rect width="569" height="134" fill="#5552FF"/>
<g clip-path="url(#clip1_30_1104)">
<path d="M273.573 36.6938C277.667 36.6938 281.016 40.0476 281.016 44.1466C281.016 48.2456 277.667 51.5994 273.573 51.5994C269.479 51.5994 266.13 48.2456 266.13 44.1466C266.13 40.0476 269.479 36.6938 273.573 36.6938ZM273.573 35C268.532 35 264.438 39.099 264.438 44.1466C264.438 49.1942 268.532 53.2932 273.573 53.2932C278.614 53.2932 282.708 49.1942 282.708 44.1466C282.708 39.099 278.614 35 273.573 35Z" fill="#BEC5FF"/>
<path d="M294.888 58.0359C298.982 58.0359 302.331 61.3896 302.331 65.4886C302.331 69.5877 298.982 72.9414 294.888 72.9414C290.794 72.9414 287.445 69.5877 287.445 65.4886C287.445 61.3896 290.794 58.0359 294.888 58.0359ZM294.888 56.342C289.847 56.342 285.753 60.4411 285.753 65.4886C285.753 70.5362 289.847 74.6352 294.888 74.6352C299.929 74.6352 304.023 70.5362 304.023 65.4886C304.023 60.4411 299.929 56.342 294.888 56.342Z" fill="#BEC5FF"/>
<path d="M285.753 35L304.023 53.2932H285.753V35Z" fill="#BEC5FF"/>
<path d="M282.708 56.342H264.438V74.6352H282.708V56.342Z" fill="#BEC5FF"/>
<path d="M337.18 93.4365C338.059 93.4365 338.77 94.1479 338.77 95.0287C338.77 95.9095 338.059 96.6209 337.18 96.6209C336.3 96.6209 335.589 95.9095 335.589 95.0287C335.589 94.1479 336.3 93.4365 337.18 93.4365ZM337.18 91.7427C335.353 91.7427 333.898 93.1994 333.898 95.0287C333.898 96.858 335.353 98.3147 337.18 98.3147C339.007 98.3147 340.461 96.858 340.461 95.0287C340.461 93.1994 338.973 91.7427 337.18 91.7427Z" fill="#BEC5FF"/>
<path d="M228 88.931C228 83.6801 231.789 79.615 237.27 79.615C241.567 79.615 244.578 81.9525 245.492 85.1368L242.007 86.4919C241.229 84.3238 239.774 82.8332 237.203 82.8332C233.988 82.8332 232.026 85.0691 232.026 88.931C232.026 92.7929 233.955 95.0626 237.203 95.0626C239.74 95.0626 241.33 93.5382 242.108 91.3701L245.526 92.759C244.24 96.2144 241.533 98.3147 237.236 98.3147C231.654 98.3147 228 94.3851 228 88.931Z" fill="#FBFBFB"/>
<path d="M246.913 91.5397C246.913 87.4406 249.721 84.7644 253.612 84.7644C257.502 84.7644 260.311 87.4406 260.311 91.5397C260.311 95.7065 257.502 98.3149 253.612 98.3149C249.721 98.3149 246.913 95.4693 246.913 91.5397ZM256.555 91.5735C256.555 88.9312 255.371 87.61 253.612 87.61C251.886 87.61 250.668 88.9312 250.668 91.5735C250.668 94.2159 251.852 95.4354 253.612 95.4354C255.371 95.4354 256.555 94.2159 256.555 91.5735Z" fill="#FBFBFB"/>
<path d="M264.912 97.9083L260.006 85.137H263.795L265.554 90.3539C266.231 92.4204 266.333 93.4028 266.4 95.6725H267.754C267.821 93.4028 267.855 92.2849 268.498 90.3539L270.19 85.137H273.877L269.242 97.9083H264.912Z" fill="#FBFBFB"/>
<path d="M274.284 94.6222C274.284 91.0652 278.073 90.015 282.302 89.6085V89.1343C282.302 88.0502 281.659 87.3727 280.204 87.3727C278.547 87.3727 277.701 88.1857 277.396 89.4053L274.148 88.6939C274.351 86.6952 276.483 84.7981 280.204 84.7981C283.791 84.7981 285.888 86.3903 285.888 89.744V94.419C285.888 95.0626 285.956 95.1981 286.666 95.1981H287.783V97.9421H286.294C284.061 97.9421 283.554 97.1629 283.52 95.2998H282.336C281.828 96.9597 280.644 98.3486 278.445 98.3486C276.009 98.3147 274.284 96.8919 274.284 94.6222ZM282.302 92.6574V91.8444C279.967 92.1154 277.971 92.5896 277.971 94.2835C277.971 95.1304 278.547 95.6724 279.629 95.6724C281.016 95.6724 282.302 94.7239 282.302 92.6574Z" fill="#FBFBFB"/>
<path d="M289.373 97.9082V79.615H292.993V97.9082H289.373Z" fill="#FBFBFB"/>
<path d="M294.583 91.5058C294.583 87.5084 297.324 84.7644 301.046 84.7644C305.342 84.7644 307.575 88.1182 307.203 92.3866H298.204C298.305 94.6224 299.489 95.5371 301.046 95.5371C302.67 95.5371 303.482 94.5208 303.989 93.3012L307.237 94.5547C306.527 96.1807 304.903 98.2811 301.046 98.2811C297.121 98.3149 294.583 95.6726 294.583 91.5058ZM303.617 89.8459C303.448 88.2537 302.534 87.3729 301.012 87.3729C299.557 87.3729 298.576 88.2537 298.305 89.8459H303.617Z" fill="#FBFBFB"/>
<path d="M308.76 97.9084V85.137H312.008C311.974 85.984 311.432 87.068 310.756 88.0843H312.346C312.921 86.255 314.207 84.7644 316.237 84.7644C319.045 84.7644 320.567 86.6276 320.567 89.4732V97.9084H316.981V90.1507C316.981 88.4569 316.203 87.7455 314.951 87.7455C312.413 87.7455 312.413 90.4895 312.413 91.8446V97.9084H308.76Z" fill="#FBFBFB"/>
<path d="M328.078 97.9082C326.014 97.9082 324.83 96.5531 324.83 94.5544V87.8808H322.157V85.1368H324.83V81.1394H328.45V85.1368H331.766V87.8808H328.45V93.8769C328.45 94.6561 328.789 94.9948 329.567 94.9948H332.307V97.8743H328.078V97.9082Z" fill="#FBFBFB"/>
</g>
<path d="M109.516 76.9673L250.549 218H109.516V76.9673Z" fill="#4541F4"/>
<path d="M381 55.0327L522.033 -86L522.033 55.0327L381 55.0327Z" fill="#4541F4"/>
<path d="M176.727 -14.4836C176.727 22.6359 146.636 52.7273 109.516 52.7273C72.3968 52.7273 42.3055 22.6359 42.3055 -14.4836C42.3055 -51.6032 72.3968 -81.6945 109.516 -81.6945C146.636 -81.6945 176.727 -51.6032 176.727 -14.4836Z" stroke="#4541F4" stroke-width="6.61091"/>
<path d="M454.822 146.484C454.822 109.364 484.913 79.2727 522.032 79.2727C559.152 79.2727 589.243 109.364 589.243 146.484C589.243 183.603 559.152 213.695 522.032 213.695C484.913 213.695 454.822 183.603 454.822 146.484Z" stroke="#4541F4" stroke-width="6.61091"/>
</g>
<defs>
<clipPath id="clip0_30_1104">
<rect width="569" height="134" fill="white"/>
</clipPath>
<clipPath id="clip1_30_1104">
<rect width="112.461" height="63.3148" fill="white" transform="translate(228 35)"/>
</clipPath>
</defs>
</svg>
