<svg width="530" height="20" viewBox="0 0 530 20" fill="none" xmlns="http://www.w3.org/2000/svg">
<path fill-rule="evenodd" clip-rule="evenodd" d="M8.315 16.965C8.3739 16.9883 8.43668 17.0002 8.5 17C8.61278 16.9994 8.72203 16.9606 8.81 16.89L11.31 14.89C11.3689 14.8435 11.4166 14.7842 11.4495 14.7167C11.4824 14.6492 11.4997 14.5751 11.5 14.5V10.705L13.39 8.82003C13.9024 8.31045 14.3086 7.7042 14.585 7.03645C14.8614 6.36869 15.0024 5.65271 15 4.93003V4.00003C15 3.73481 14.8946 3.48046 14.7071 3.29292C14.5196 3.10539 14.2652 3.00003 14 3.00003H13.07C12.3473 2.9976 11.6313 3.13865 10.9636 3.41503C10.2958 3.6914 9.68959 4.09758 9.18 4.61003L7.295 6.50003H3.5C3.42449 6.50097 3.35017 6.51901 3.28263 6.55278C3.21508 6.58655 3.15606 6.63519 3.11 6.69503L1.11 9.19503C1.0542 9.26419 1.01783 9.34697 1.00465 9.43485C0.991465 9.52274 1.00194 9.61254 1.035 9.69503C1.06766 9.77695 1.1214 9.84877 1.19077 9.90321C1.26014 9.95765 1.34267 9.99278 1.43 10.005L4.93 10.505L5.07 9.50503L2.435 9.13003L3.74 7.50003H7.5C7.56581 7.50041 7.63104 7.4878 7.69196 7.46292C7.75287 7.43803 7.80828 7.40137 7.855 7.35503L9.89 5.32003C10.3065 4.90071 10.802 4.56814 11.3478 4.34157C11.8937 4.11499 12.479 3.99891 13.07 4.00003H14V4.93003C14.0011 5.52103 13.885 6.10638 13.6585 6.65222C13.4319 7.19806 13.0993 7.69356 12.68 8.11003L10.645 10.145C10.5987 10.1918 10.562 10.2472 10.5371 10.3081C10.5122 10.369 10.4996 10.4342 10.5 10.5V14.26L8.88 15.565L8.505 12.93L7.505 13.07L8.005 16.57C8.01725 16.6574 8.05238 16.7399 8.10682 16.8093C8.16127 16.8786 8.23309 16.9324 8.315 16.965ZM3.64404 13.646L7.64273 9.64731L8.34984 10.3544L4.35115 14.3531L3.64404 13.646Z" fill="#FF6464"/>
<path d="M25.9274 9.624H29.5394V14.608C29.0074 14.7853 28.4614 14.916 27.9014 15C27.3507 15.0933 26.7207 15.14 26.0114 15.14C24.9941 15.14 24.1307 14.9347 23.4214 14.524C22.7214 14.1133 22.1847 13.5253 21.8114 12.76C21.4474 11.9947 21.2654 11.0753 21.2654 10.002C21.2654 8.95667 21.4707 8.05133 21.8814 7.286C22.2921 6.52067 22.8801 5.928 23.6454 5.508C24.4201 5.07867 25.3581 4.864 26.4594 4.864C27.0101 4.864 27.5374 4.92 28.0414 5.032C28.5454 5.13467 29.0121 5.27933 29.4414 5.466L28.8954 6.726C28.5501 6.56733 28.1627 6.43667 27.7334 6.334C27.3134 6.222 26.8701 6.166 26.4034 6.166C25.6661 6.166 25.0267 6.32467 24.4854 6.642C23.9534 6.95 23.5427 7.39333 23.2534 7.972C22.9734 8.54133 22.8334 9.22267 22.8334 10.016C22.8334 10.7627 22.9501 11.4253 23.1834 12.004C23.4167 12.5827 23.7854 13.0353 24.2894 13.362C24.7934 13.6887 25.4514 13.852 26.2634 13.852C26.5341 13.852 26.7721 13.8427 26.9774 13.824C27.1827 13.796 27.3694 13.768 27.5374 13.74C27.7147 13.7027 27.8827 13.67 28.0414 13.642V10.926H25.9274V9.624ZM35.0073 7.314C35.6699 7.314 36.2393 7.454 36.7153 7.734C37.1913 8.00467 37.5553 8.39667 37.8073 8.91C38.0686 9.42333 38.1993 10.03 38.1993 10.73V11.542H33.1313C33.1499 12.3167 33.3506 12.9093 33.7333 13.32C34.1253 13.7307 34.6713 13.936 35.3713 13.936C35.8566 13.936 36.2859 13.894 36.6593 13.81C37.0419 13.7167 37.4339 13.5813 37.8353 13.404V14.636C37.4619 14.804 37.0793 14.93 36.6873 15.014C36.3046 15.098 35.8473 15.14 35.3153 15.14C34.5873 15.14 33.9433 14.9953 33.3833 14.706C32.8233 14.4167 32.3846 13.9873 32.0673 13.418C31.7593 12.8393 31.6053 12.13 31.6053 11.29C31.6053 10.4407 31.7453 9.722 32.0253 9.134C32.3146 8.546 32.7113 8.098 33.2153 7.79C33.7286 7.47267 34.3259 7.314 35.0073 7.314ZM35.0073 8.462C34.4753 8.462 34.0459 8.63467 33.7193 8.98C33.4019 9.32533 33.2153 9.81533 33.1593 10.45H36.7153C36.7153 10.058 36.6546 9.71267 36.5333 9.414C36.4119 9.11533 36.2253 8.882 35.9733 8.714C35.7213 8.546 35.3993 8.462 35.0073 8.462ZM43.047 13.936C43.243 13.936 43.4437 13.9173 43.649 13.88C43.8543 13.8427 44.0317 13.8007 44.181 13.754V14.874C44.0223 14.9487 43.8077 15.0093 43.537 15.056C43.2663 15.112 42.9957 15.14 42.725 15.14C42.3143 15.14 41.9363 15.07 41.591 14.93C41.255 14.79 40.9843 14.5473 40.779 14.202C40.5737 13.8567 40.471 13.376 40.471 12.76V8.588H39.421V7.916L40.527 7.356L41.045 5.76H41.955V7.454H44.111V8.588H41.955V12.732C41.955 13.1427 42.053 13.446 42.249 13.642C42.4543 13.838 42.7203 13.936 43.047 13.936ZM48.6864 13.936C48.8824 13.936 49.083 13.9173 49.2884 13.88C49.4937 13.8427 49.671 13.8007 49.8204 13.754V14.874C49.6617 14.9487 49.447 15.0093 49.1764 15.056C48.9057 15.112 48.635 15.14 48.3644 15.14C47.9537 15.14 47.5757 15.07 47.2304 14.93C46.8944 14.79 46.6237 14.5473 46.4184 14.202C46.213 13.8567 46.1104 13.376 46.1104 12.76V8.588H45.0604V7.916L46.1664 7.356L46.6844 5.76H47.5944V7.454H49.7504V8.588H47.5944V12.732C47.5944 13.1427 47.6924 13.446 47.8884 13.642C48.0937 13.838 48.3597 13.936 48.6864 13.936ZM53.0937 7.454V15H51.6097V7.454H53.0937ZM52.3657 4.584C52.5897 4.584 52.7857 4.64933 52.9537 4.78C53.1217 4.91067 53.2057 5.13 53.2057 5.438C53.2057 5.73667 53.1217 5.956 52.9537 6.096C52.7857 6.22667 52.5897 6.292 52.3657 6.292C52.1231 6.292 51.9177 6.22667 51.7497 6.096C51.5911 5.956 51.5117 5.73667 51.5117 5.438C51.5117 5.13 51.5911 4.91067 51.7497 4.78C51.9177 4.64933 52.1231 4.584 52.3657 4.584ZM59.5262 7.314C60.4035 7.314 61.0755 7.53333 61.5422 7.972C62.0089 8.41067 62.2422 9.11533 62.2422 10.086V15H60.7722V10.296C60.7722 9.708 60.6462 9.26933 60.3942 8.98C60.1515 8.68133 59.7595 8.532 59.2182 8.532C58.4529 8.532 57.9209 8.76067 57.6222 9.218C57.3329 9.67533 57.1882 10.3333 57.1882 11.192V15H55.7042V7.454H56.8802L57.0902 8.462H57.1742C57.3422 8.20067 57.5475 7.986 57.7902 7.818C58.0329 7.65 58.3035 7.524 58.6022 7.44C58.9009 7.356 59.2089 7.314 59.5262 7.314ZM67.4065 7.314C67.8919 7.314 68.3305 7.40733 68.7225 7.594C69.1145 7.78067 69.4459 8.06533 69.7165 8.448H69.7865L69.9545 7.454H71.1585V15.098C71.1585 15.8073 71.0325 16.4047 70.7805 16.89C70.5285 17.3753 70.1412 17.7393 69.6185 17.982C69.1052 18.234 68.4565 18.36 67.6725 18.36C67.1312 18.36 66.6319 18.3227 66.1745 18.248C65.7172 18.1733 65.2972 18.0567 64.9145 17.898V16.596C65.1852 16.7267 65.4699 16.834 65.7685 16.918C66.0672 17.0113 66.3845 17.0767 66.7205 17.114C67.0565 17.1607 67.4019 17.184 67.7565 17.184C68.3725 17.184 68.8485 17.0067 69.1845 16.652C69.5205 16.3067 69.6885 15.8167 69.6885 15.182V14.93C69.6885 14.8087 69.6932 14.65 69.7025 14.454C69.7119 14.2487 69.7212 14.0993 69.7305 14.006H69.6745C69.4132 14.398 69.0912 14.6873 68.7085 14.874C68.3352 15.0513 67.9012 15.14 67.4065 15.14C66.4545 15.14 65.7079 14.7993 65.1665 14.118C64.6345 13.4273 64.3685 12.4707 64.3685 11.248C64.3685 10.4267 64.4899 9.72667 64.7325 9.148C64.9752 8.56 65.3205 8.10733 65.7685 7.79C66.2259 7.47267 66.7719 7.314 67.4065 7.314ZM67.7145 8.546C67.3225 8.546 66.9912 8.65333 66.7205 8.868C66.4499 9.07333 66.2445 9.37667 66.1045 9.778C65.9645 10.1793 65.8945 10.674 65.8945 11.262C65.8945 12.1393 66.0485 12.8067 66.3565 13.264C66.6739 13.7213 67.1359 13.95 67.7425 13.95C68.0972 13.95 68.3959 13.9033 68.6385 13.81C68.8905 13.7167 69.0959 13.572 69.2545 13.376C69.4225 13.18 69.5439 12.9327 69.6185 12.634C69.7025 12.326 69.7445 11.9573 69.7445 11.528V11.248C69.7445 10.604 69.6699 10.086 69.5205 9.694C69.3805 9.29267 69.1612 9.00333 68.8625 8.826C68.5639 8.63933 68.1812 8.546 67.7145 8.546ZM83.5889 12.298C83.5889 12.8953 83.4442 13.404 83.1549 13.824C82.8656 14.244 82.4502 14.5707 81.9089 14.804C81.3676 15.028 80.7236 15.14 79.9769 15.14C79.6129 15.14 79.2629 15.1167 78.9269 15.07C78.5909 15.0327 78.2782 14.9767 77.9889 14.902C77.6996 14.8273 77.4429 14.734 77.2189 14.622V13.194C77.5922 13.362 78.0309 13.516 78.5349 13.656C79.0389 13.7867 79.5522 13.852 80.0749 13.852C80.5229 13.852 80.8962 13.7913 81.1949 13.67C81.4936 13.5487 81.7176 13.3807 81.8669 13.166C82.0162 12.9513 82.0909 12.6993 82.0909 12.41C82.0909 12.102 82.0116 11.8453 81.8529 11.64C81.7036 11.4253 81.4656 11.2293 81.1389 11.052C80.8216 10.8653 80.3922 10.6693 79.8509 10.464C79.4776 10.324 79.1369 10.17 78.8289 10.002C78.5302 9.82467 78.2642 9.61933 78.0309 9.386C77.8069 9.15267 77.6342 8.882 77.5129 8.574C77.3916 8.266 77.3309 7.90667 77.3309 7.496C77.3309 6.94533 77.4662 6.474 77.7369 6.082C78.0169 5.69 78.3996 5.39133 78.8849 5.186C79.3702 4.97133 79.9349 4.864 80.5789 4.864C81.1202 4.864 81.6196 4.92 82.0769 5.032C82.5436 5.13467 82.9869 5.27933 83.4069 5.466L82.9309 6.712C82.5482 6.55333 82.1609 6.42267 81.7689 6.32C81.3769 6.21733 80.9662 6.166 80.5369 6.166C80.1636 6.166 79.8509 6.222 79.5989 6.334C79.3469 6.446 79.1556 6.6 79.0249 6.796C78.9036 6.992 78.8429 7.22067 78.8429 7.482C78.8429 7.79 78.9129 8.04667 79.0529 8.252C79.1929 8.45733 79.4169 8.64867 79.7249 8.826C80.0329 8.994 80.4389 9.18067 80.9429 9.386C81.5029 9.60067 81.9789 9.834 82.3709 10.086C82.7722 10.338 83.0756 10.6413 83.2809 10.996C83.4862 11.3413 83.5889 11.7753 83.5889 12.298ZM88.3742 13.936C88.5702 13.936 88.7708 13.9173 88.9762 13.88C89.1815 13.8427 89.3588 13.8007 89.5082 13.754V14.874C89.3495 14.9487 89.1348 15.0093 88.8642 15.056C88.5935 15.112 88.3228 15.14 88.0522 15.14C87.6415 15.14 87.2635 15.07 86.9182 14.93C86.5822 14.79 86.3115 14.5473 86.1062 14.202C85.9008 13.8567 85.7982 13.376 85.7982 12.76V8.588H84.7482V7.916L85.8542 7.356L86.3722 5.76H87.2822V7.454H89.4382V8.588H87.2822V12.732C87.2822 13.1427 87.3802 13.446 87.5762 13.642C87.7815 13.838 88.0475 13.936 88.3742 13.936ZM94.2236 7.314C95.1756 7.314 95.8849 7.524 96.3516 7.944C96.8182 8.35467 97.0516 9.00333 97.0516 9.89V15H96.0016L95.7076 13.95H95.6516C95.4369 14.2207 95.2129 14.4447 94.9796 14.622C94.7556 14.7993 94.4942 14.93 94.1956 15.014C93.9062 15.098 93.5516 15.14 93.1316 15.14C92.6836 15.14 92.2776 15.0607 91.9136 14.902C91.5589 14.734 91.2789 14.482 91.0736 14.146C90.8682 13.8007 90.7656 13.3713 90.7656 12.858C90.7656 12.0927 91.0549 11.5093 91.6336 11.108C92.2216 10.7067 93.1129 10.4873 94.3076 10.45L95.5956 10.408V9.988C95.5956 9.428 95.4696 9.036 95.2176 8.812C94.9656 8.588 94.6109 8.476 94.1536 8.476C93.7616 8.476 93.3882 8.532 93.0336 8.644C92.6789 8.756 92.3429 8.89133 92.0256 9.05L91.5496 7.972C91.9042 7.78533 92.3102 7.63133 92.7676 7.51C93.2342 7.37933 93.7196 7.314 94.2236 7.314ZM94.5736 11.402C93.7149 11.4393 93.1176 11.584 92.7816 11.836C92.4549 12.0787 92.2916 12.424 92.2916 12.872C92.2916 13.264 92.4082 13.5487 92.6416 13.726C92.8842 13.9033 93.1876 13.992 93.5516 13.992C94.1396 13.992 94.6249 13.8287 95.0076 13.502C95.3902 13.1753 95.5816 12.6853 95.5816 12.032V11.374L94.5736 11.402ZM103.341 7.314C103.471 7.314 103.616 7.32333 103.775 7.342C103.933 7.35133 104.064 7.36533 104.167 7.384L104.013 8.77C103.91 8.742 103.789 8.71867 103.649 8.7C103.509 8.68133 103.378 8.672 103.257 8.672C102.977 8.672 102.706 8.728 102.445 8.84C102.193 8.94267 101.964 9.09667 101.759 9.302C101.553 9.498 101.39 9.74067 101.269 10.03C101.157 10.3193 101.101 10.6507 101.101 11.024V15H99.6166V7.454H100.793L100.989 8.798H101.045C101.203 8.52733 101.395 8.28 101.619 8.056C101.843 7.832 102.099 7.65467 102.389 7.524C102.678 7.384 102.995 7.314 103.341 7.314ZM108.56 13.936C108.756 13.936 108.957 13.9173 109.162 13.88C109.367 13.8427 109.545 13.8007 109.694 13.754V14.874C109.535 14.9487 109.321 15.0093 109.05 15.056C108.779 15.112 108.509 15.14 108.238 15.14C107.827 15.14 107.449 15.07 107.104 14.93C106.768 14.79 106.497 14.5473 106.292 14.202C106.087 13.8567 105.984 13.376 105.984 12.76V8.588H104.934V7.916L106.04 7.356L106.558 5.76H107.468V7.454H109.624V8.588H107.468V12.732C107.468 13.1427 107.566 13.446 107.762 13.642C107.967 13.838 108.233 13.936 108.56 13.936ZM114.451 7.314C115.114 7.314 115.683 7.454 116.159 7.734C116.635 8.00467 116.999 8.39667 117.251 8.91C117.513 9.42333 117.643 10.03 117.643 10.73V11.542H112.575C112.594 12.3167 112.795 12.9093 113.177 13.32C113.569 13.7307 114.115 13.936 114.815 13.936C115.301 13.936 115.73 13.894 116.103 13.81C116.486 13.7167 116.878 13.5813 117.279 13.404V14.636C116.906 14.804 116.523 14.93 116.131 15.014C115.749 15.098 115.291 15.14 114.759 15.14C114.031 15.14 113.387 14.9953 112.827 14.706C112.267 14.4167 111.829 13.9873 111.511 13.418C111.203 12.8393 111.049 12.13 111.049 11.29C111.049 10.4407 111.189 9.722 111.469 9.134C111.759 8.546 112.155 8.098 112.659 7.79C113.173 7.47267 113.77 7.314 114.451 7.314ZM114.451 8.462C113.919 8.462 113.49 8.63467 113.163 8.98C112.846 9.32533 112.659 9.81533 112.603 10.45H116.159C116.159 10.058 116.099 9.71267 115.977 9.414C115.856 9.11533 115.669 8.882 115.417 8.714C115.165 8.546 114.843 8.462 114.451 8.462ZM122.365 15.14C121.46 15.14 120.727 14.8133 120.167 14.16C119.616 13.5067 119.341 12.536 119.341 11.248C119.341 9.95067 119.621 8.97067 120.181 8.308C120.741 7.64533 121.478 7.314 122.393 7.314C122.776 7.314 123.107 7.36533 123.387 7.468C123.676 7.56133 123.924 7.692 124.129 7.86C124.344 8.028 124.526 8.21467 124.675 8.42H124.759C124.74 8.28933 124.717 8.10267 124.689 7.86C124.661 7.608 124.647 7.384 124.647 7.188V4.36H126.131V15H124.969L124.717 13.992H124.647C124.507 14.2067 124.33 14.4027 124.115 14.58C123.91 14.748 123.662 14.8833 123.373 14.986C123.084 15.0887 122.748 15.14 122.365 15.14ZM122.715 13.922C123.443 13.922 123.956 13.7213 124.255 13.32C124.554 12.9093 124.703 12.298 124.703 11.486V11.262C124.703 10.3753 124.558 9.69867 124.269 9.232C123.989 8.76533 123.466 8.532 122.701 8.532C122.094 8.532 121.637 8.77933 121.329 9.274C121.021 9.75933 120.867 10.4267 120.867 11.276C120.867 12.1253 121.021 12.7787 121.329 13.236C121.637 13.6933 122.099 13.922 122.715 13.922Z" fill="#6D7CFF"/>
<line x1="149.5" y1="1" x2="149.5" y2="20" stroke="#D1D0CF"/>
<g clip-path="url(#clip0_85_228)">
<path d="M182 17C181.407 17 180.827 16.8241 180.333 16.4944C179.84 16.1648 179.455 15.6962 179.228 15.1481C179.001 14.5999 178.942 13.9967 179.058 13.4147C179.173 12.8328 179.459 12.2982 179.879 11.8787C180.298 11.4591 180.833 11.1734 181.415 11.0576C181.997 10.9419 182.6 11.0013 183.148 11.2284C183.696 11.4554 184.165 11.8399 184.494 12.3333C184.824 12.8266 185 13.4067 185 14C184.999 14.7954 184.683 15.5579 184.12 16.1203C183.558 16.6828 182.795 16.9991 182 17ZM182 12C181.604 12 181.218 12.1173 180.889 12.3371C180.56 12.5568 180.304 12.8692 180.152 13.2346C180.001 13.6001 179.961 14.0022 180.038 14.3902C180.116 14.7781 180.306 15.1345 180.586 15.4142C180.865 15.6939 181.222 15.8844 181.61 15.9616C181.998 16.0387 182.4 15.9991 182.765 15.8478C183.131 15.6964 183.443 15.44 183.663 15.1111C183.883 14.7822 184 14.3956 184 14C183.999 13.4698 183.789 12.9614 183.414 12.5864C183.039 12.2115 182.53 12.0006 182 12Z" fill="#DAC3FF"/>
<path d="M178.5 12.5C179.395 10.2621 180.333 10 181.5 9.5L181 7L178 3.5L173 4V16.5H178C178 15.6667 178.054 13.6142 178.5 12.5Z" fill="#8B31FF"/>
<path d="M178 13H174V14H178V13Z" fill="#DAC3FF"/>
<path d="M179 10H174V11H179V10Z" fill="#DAC3FF"/>
<path d="M178 16H173V4.00005H177V7.00005C177.001 7.26503 177.106 7.51894 177.294 7.70631C177.481 7.89368 177.735 7.99928 178 8.00005H181V9.50005H182V7.00005C182.002 6.93433 181.989 6.86901 181.963 6.80859C181.938 6.74816 181.899 6.69407 181.85 6.65005L178.35 3.15005C178.306 3.10121 178.252 3.06251 178.191 3.03661C178.131 3.01072 178.066 2.99824 178 3.00005H173C172.735 3.00081 172.481 3.10642 172.294 3.29379C172.106 3.48116 172.001 3.73507 172 4.00005V16C172.001 16.265 172.106 16.5189 172.294 16.7063C172.481 16.8937 172.735 16.9993 173 17H178V16ZM178 4.20005L180.8 7.00005H178V4.20005Z" fill="#DAC3FF"/>
</g>
<path d="M199.841 9.904C199.841 11.024 199.631 11.962 199.211 12.718C198.791 13.474 198.185 14.0433 197.391 14.426C196.607 14.8087 195.66 15 194.549 15H191.749V5.004H194.843C195.861 5.004 196.743 5.19067 197.489 5.564C198.236 5.93733 198.815 6.488 199.225 7.216C199.636 7.93467 199.841 8.83067 199.841 9.904ZM198.259 9.946C198.259 9.106 198.124 8.41533 197.853 7.874C197.583 7.33267 197.181 6.93133 196.649 6.67C196.127 6.40867 195.492 6.278 194.745 6.278H193.261V13.726H194.479C195.739 13.726 196.682 13.4087 197.307 12.774C197.942 12.1393 198.259 11.1967 198.259 9.946ZM208.779 11.22C208.779 11.8453 208.695 12.4007 208.527 12.886C208.359 13.3713 208.121 13.782 207.813 14.118C207.505 14.454 207.132 14.7107 206.693 14.888C206.254 15.056 205.76 15.14 205.209 15.14C204.705 15.14 204.238 15.056 203.809 14.888C203.38 14.7107 203.006 14.454 202.689 14.118C202.381 13.782 202.138 13.3713 201.961 12.886C201.784 12.4007 201.695 11.8407 201.695 11.206C201.695 10.3753 201.835 9.67067 202.115 9.092C202.404 8.51333 202.815 8.07467 203.347 7.776C203.888 7.468 204.523 7.314 205.251 7.314C205.942 7.314 206.548 7.468 207.071 7.776C207.603 8.07467 208.018 8.51333 208.317 9.092C208.625 9.67067 208.779 10.38 208.779 11.22ZM203.221 11.22C203.221 11.78 203.291 12.2653 203.431 12.676C203.571 13.0773 203.79 13.3853 204.089 13.6C204.388 13.8147 204.77 13.922 205.237 13.922C205.704 13.922 206.086 13.8147 206.385 13.6C206.684 13.3853 206.903 13.0773 207.043 12.676C207.183 12.2653 207.253 11.78 207.253 11.22C207.253 10.6413 207.178 10.156 207.029 9.764C206.889 9.372 206.67 9.07333 206.371 8.868C206.082 8.65333 205.699 8.546 205.223 8.546C204.523 8.546 204.014 8.77933 203.697 9.246C203.38 9.71267 203.221 10.3707 203.221 11.22ZM213.978 15.14C213.287 15.14 212.681 15.0047 212.158 14.734C211.635 14.4633 211.229 14.0433 210.94 13.474C210.651 12.8953 210.506 12.1627 210.506 11.276C210.506 10.3427 210.66 9.58667 210.968 9.008C211.285 8.42933 211.71 8.00467 212.242 7.734C212.783 7.454 213.399 7.314 214.09 7.314C214.51 7.314 214.902 7.36067 215.266 7.454C215.639 7.538 215.947 7.636 216.19 7.748L215.742 8.952C215.481 8.84933 215.201 8.76067 214.902 8.686C214.613 8.61133 214.337 8.574 214.076 8.574C213.609 8.574 213.222 8.67667 212.914 8.882C212.615 9.078 212.391 9.37667 212.242 9.778C212.102 10.17 212.032 10.6647 212.032 11.262C212.032 11.8313 212.107 12.312 212.256 12.704C212.405 13.096 212.625 13.3947 212.914 13.6C213.213 13.796 213.581 13.894 214.02 13.894C214.44 13.894 214.809 13.8473 215.126 13.754C215.443 13.6607 215.742 13.5393 216.022 13.39V14.678C215.751 14.8367 215.457 14.9533 215.14 15.028C214.823 15.1027 214.435 15.14 213.978 15.14ZM224.579 7.454V15H223.389L223.179 14.006H223.109C222.951 14.2673 222.745 14.482 222.493 14.65C222.241 14.818 221.966 14.9393 221.667 15.014C221.369 15.098 221.061 15.14 220.743 15.14C220.155 15.14 219.656 15.0467 219.245 14.86C218.844 14.664 218.536 14.3653 218.321 13.964C218.116 13.5533 218.013 13.0307 218.013 12.396V7.454H219.511V12.172C219.511 12.76 219.633 13.1987 219.875 13.488C220.127 13.7773 220.515 13.922 221.037 13.922C221.56 13.922 221.971 13.8193 222.269 13.614C222.568 13.4087 222.778 13.11 222.899 12.718C223.03 12.3167 223.095 11.836 223.095 11.276V7.454H224.579ZM235.638 7.314C236.487 7.314 237.126 7.53333 237.556 7.972C237.985 8.41067 238.2 9.11533 238.2 10.086V15H236.716V10.282C236.716 9.70333 236.599 9.26933 236.366 8.98C236.142 8.68133 235.787 8.532 235.302 8.532C234.63 8.532 234.149 8.742 233.86 9.162C233.57 9.57267 233.426 10.17 233.426 10.954V15H231.956V10.282C231.956 9.89933 231.9 9.57733 231.788 9.316C231.685 9.05467 231.531 8.85867 231.326 8.728C231.12 8.59733 230.854 8.532 230.528 8.532C230.061 8.532 229.692 8.63467 229.422 8.84C229.151 9.04533 228.955 9.34867 228.834 9.75C228.722 10.142 228.666 10.6227 228.666 11.192V15H227.182V7.454H228.358L228.568 8.462H228.652C228.81 8.20067 229.002 7.986 229.226 7.818C229.459 7.65 229.716 7.524 229.996 7.44C230.276 7.356 230.565 7.314 230.864 7.314C231.433 7.314 231.914 7.41667 232.306 7.622C232.698 7.818 232.982 8.12133 233.16 8.532H233.272C233.514 8.112 233.85 7.804 234.28 7.608C234.709 7.412 235.162 7.314 235.638 7.314ZM243.719 7.314C244.381 7.314 244.951 7.454 245.427 7.734C245.903 8.00467 246.267 8.39667 246.519 8.91C246.78 9.42333 246.911 10.03 246.911 10.73V11.542H241.843C241.861 12.3167 242.062 12.9093 242.445 13.32C242.837 13.7307 243.383 13.936 244.083 13.936C244.568 13.936 244.997 13.894 245.371 13.81C245.753 13.7167 246.145 13.5813 246.547 13.404V14.636C246.173 14.804 245.791 14.93 245.399 15.014C245.016 15.098 244.559 15.14 244.027 15.14C243.299 15.14 242.655 14.9953 242.095 14.706C241.535 14.4167 241.096 13.9873 240.779 13.418C240.471 12.8393 240.317 12.13 240.317 11.29C240.317 10.4407 240.457 9.722 240.737 9.134C241.026 8.546 241.423 8.098 241.927 7.79C242.44 7.47267 243.037 7.314 243.719 7.314ZM243.719 8.462C243.187 8.462 242.757 8.63467 242.431 8.98C242.113 9.32533 241.927 9.81533 241.871 10.45H245.427C245.427 10.058 245.366 9.71267 245.245 9.414C245.123 9.11533 244.937 8.882 244.685 8.714C244.433 8.546 244.111 8.462 243.719 8.462ZM252.865 7.314C253.742 7.314 254.414 7.53333 254.881 7.972C255.347 8.41067 255.581 9.11533 255.581 10.086V15H254.111V10.296C254.111 9.708 253.985 9.26933 253.733 8.98C253.49 8.68133 253.098 8.532 252.557 8.532C251.791 8.532 251.259 8.76067 250.961 9.218C250.671 9.67533 250.527 10.3333 250.527 11.192V15H249.043V7.454H250.219L250.429 8.462H250.513C250.681 8.20067 250.886 7.986 251.129 7.818C251.371 7.65 251.642 7.524 251.941 7.44C252.239 7.356 252.547 7.314 252.865 7.314ZM260.857 13.936C261.053 13.936 261.254 13.9173 261.459 13.88C261.664 13.8427 261.842 13.8007 261.991 13.754V14.874C261.832 14.9487 261.618 15.0093 261.347 15.056C261.076 15.112 260.806 15.14 260.535 15.14C260.124 15.14 259.746 15.07 259.401 14.93C259.065 14.79 258.794 14.5473 258.589 14.202C258.384 13.8567 258.281 13.376 258.281 12.76V8.588H257.231V7.916L258.337 7.356L258.855 5.76H259.765V7.454H261.921V8.588H259.765V12.732C259.765 13.1427 259.863 13.446 260.059 13.642C260.264 13.838 260.53 13.936 260.857 13.936ZM266.706 7.314C267.658 7.314 268.368 7.524 268.834 7.944C269.301 8.35467 269.534 9.00333 269.534 9.89V15H268.484L268.19 13.95H268.134C267.92 14.2207 267.696 14.4447 267.462 14.622C267.238 14.7993 266.977 14.93 266.678 15.014C266.389 15.098 266.034 15.14 265.614 15.14C265.166 15.14 264.76 15.0607 264.396 14.902C264.042 14.734 263.762 14.482 263.556 14.146C263.351 13.8007 263.248 13.3713 263.248 12.858C263.248 12.0927 263.538 11.5093 264.116 11.108C264.704 10.7067 265.596 10.4873 266.79 10.45L268.078 10.408V9.988C268.078 9.428 267.952 9.036 267.7 8.812C267.448 8.588 267.094 8.476 266.636 8.476C266.244 8.476 265.871 8.532 265.516 8.644C265.162 8.756 264.826 8.89133 264.508 9.05L264.032 7.972C264.387 7.78533 264.793 7.63133 265.25 7.51C265.717 7.37933 266.202 7.314 266.706 7.314ZM267.056 11.402C266.198 11.4393 265.6 11.584 265.264 11.836C264.938 12.0787 264.774 12.424 264.774 12.872C264.774 13.264 264.891 13.5487 265.124 13.726C265.367 13.9033 265.67 13.992 266.034 13.992C266.622 13.992 267.108 13.8287 267.49 13.502C267.873 13.1753 268.064 12.6853 268.064 12.032V11.374L267.056 11.402ZM274.815 13.936C275.011 13.936 275.212 13.9173 275.417 13.88C275.623 13.8427 275.8 13.8007 275.949 13.754V14.874C275.791 14.9487 275.576 15.0093 275.305 15.056C275.035 15.112 274.764 15.14 274.493 15.14C274.083 15.14 273.705 15.07 273.359 14.93C273.023 14.79 272.753 14.5473 272.547 14.202C272.342 13.8567 272.239 13.376 272.239 12.76V8.588H271.189V7.916L272.295 7.356L272.813 5.76H273.723V7.454H275.879V8.588H273.723V12.732C273.723 13.1427 273.821 13.446 274.017 13.642C274.223 13.838 274.489 13.936 274.815 13.936ZM279.223 7.454V15H277.739V7.454H279.223ZM278.495 4.584C278.719 4.584 278.915 4.64933 279.083 4.78C279.251 4.91067 279.335 5.13 279.335 5.438C279.335 5.73667 279.251 5.956 279.083 6.096C278.915 6.22667 278.719 6.292 278.495 6.292C278.252 6.292 278.047 6.22667 277.879 6.096C277.72 5.956 277.641 5.73667 277.641 5.438C277.641 5.13 277.72 4.91067 277.879 4.78C278.047 4.64933 278.252 4.584 278.495 4.584ZM288.483 11.22C288.483 11.8453 288.399 12.4007 288.231 12.886C288.063 13.3713 287.825 13.782 287.517 14.118C287.209 14.454 286.836 14.7107 286.397 14.888C285.958 15.056 285.464 15.14 284.913 15.14C284.409 15.14 283.942 15.056 283.513 14.888C283.084 14.7107 282.71 14.454 282.393 14.118C282.085 13.782 281.842 13.3713 281.665 12.886C281.488 12.4007 281.399 11.8407 281.399 11.206C281.399 10.3753 281.539 9.67067 281.819 9.092C282.108 8.51333 282.519 8.07467 283.051 7.776C283.592 7.468 284.227 7.314 284.955 7.314C285.646 7.314 286.252 7.468 286.775 7.776C287.307 8.07467 287.722 8.51333 288.021 9.092C288.329 9.67067 288.483 10.38 288.483 11.22ZM282.925 11.22C282.925 11.78 282.995 12.2653 283.135 12.676C283.275 13.0773 283.494 13.3853 283.793 13.6C284.092 13.8147 284.474 13.922 284.941 13.922C285.408 13.922 285.79 13.8147 286.089 13.6C286.388 13.3853 286.607 13.0773 286.747 12.676C286.887 12.2653 286.957 11.78 286.957 11.22C286.957 10.6413 286.882 10.156 286.733 9.764C286.593 9.372 286.374 9.07333 286.075 8.868C285.786 8.65333 285.403 8.546 284.927 8.546C284.227 8.546 283.718 8.77933 283.401 9.246C283.084 9.71267 282.925 10.3707 282.925 11.22ZM294.466 7.314C295.344 7.314 296.016 7.53333 296.482 7.972C296.949 8.41067 297.182 9.11533 297.182 10.086V15H295.712V10.296C295.712 9.708 295.586 9.26933 295.334 8.98C295.092 8.68133 294.7 8.532 294.158 8.532C293.393 8.532 292.861 8.76067 292.562 9.218C292.273 9.67533 292.128 10.3333 292.128 11.192V15H290.644V7.454H291.82L292.03 8.462H292.114C292.282 8.20067 292.488 7.986 292.73 7.818C292.973 7.65 293.244 7.524 293.542 7.44C293.841 7.356 294.149 7.314 294.466 7.314Z" fill="#6D7CFF"/>
<line x1="320.5" y1="1" x2="320.5" y2="20" stroke="#D1D0CF"/>
<path d="M353 3H345C344.735 3 344.48 3.10536 344.293 3.29289C344.105 3.48043 344 3.73478 344 4V17L349 14.4731L354 17V4C354 3.73478 353.895 3.48043 353.707 3.29289C353.52 3.10536 353.265 3 353 3Z" fill="#55D899"/>
<path d="M368.332 15H362.704V5.004H368.332V6.292H364.216V9.148H368.08V10.422H364.216V13.698H368.332V15ZM372.331 11.15L369.769 7.454H371.463L373.255 10.17L375.047 7.454H376.727L374.165 11.15L376.853 15H375.173L373.255 12.116L371.323 15H369.643L372.331 11.15ZM381.417 7.314C382.369 7.314 383.078 7.524 383.545 7.944C384.011 8.35467 384.245 9.00333 384.245 9.89V15H383.195L382.901 13.95H382.845C382.63 14.2207 382.406 14.4447 382.173 14.622C381.949 14.7993 381.687 14.93 381.389 15.014C381.099 15.098 380.745 15.14 380.325 15.14C379.877 15.14 379.471 15.0607 379.107 14.902C378.752 14.734 378.472 14.482 378.267 14.146C378.061 13.8007 377.959 13.3713 377.959 12.858C377.959 12.0927 378.248 11.5093 378.827 11.108C379.415 10.7067 380.306 10.4873 381.501 10.45L382.789 10.408V9.988C382.789 9.428 382.663 9.036 382.411 8.812C382.159 8.588 381.804 8.476 381.347 8.476C380.955 8.476 380.581 8.532 380.227 8.644C379.872 8.756 379.536 8.89133 379.219 9.05L378.743 7.972C379.097 7.78533 379.503 7.63133 379.961 7.51C380.427 7.37933 380.913 7.314 381.417 7.314ZM381.767 11.402C380.908 11.4393 380.311 11.584 379.975 11.836C379.648 12.0787 379.485 12.424 379.485 12.872C379.485 13.264 379.601 13.5487 379.835 13.726C380.077 13.9033 380.381 13.992 380.745 13.992C381.333 13.992 381.818 13.8287 382.201 13.502C382.583 13.1753 382.775 12.6853 382.775 12.032V11.374L381.767 11.402ZM395.266 7.314C396.115 7.314 396.754 7.53333 397.184 7.972C397.613 8.41067 397.828 9.11533 397.828 10.086V15H396.344V10.282C396.344 9.70333 396.227 9.26933 395.994 8.98C395.77 8.68133 395.415 8.532 394.93 8.532C394.258 8.532 393.777 8.742 393.488 9.162C393.198 9.57267 393.054 10.17 393.054 10.954V15H391.584V10.282C391.584 9.89933 391.528 9.57733 391.416 9.316C391.313 9.05467 391.159 8.85867 390.954 8.728C390.748 8.59733 390.482 8.532 390.156 8.532C389.689 8.532 389.32 8.63467 389.05 8.84C388.779 9.04533 388.583 9.34867 388.462 9.75C388.35 10.142 388.294 10.6227 388.294 11.192V15H386.81V7.454H387.986L388.196 8.462H388.28C388.438 8.20067 388.63 7.986 388.854 7.818C389.087 7.65 389.344 7.524 389.624 7.44C389.904 7.356 390.193 7.314 390.492 7.314C391.061 7.314 391.542 7.41667 391.934 7.622C392.326 7.818 392.61 8.12133 392.788 8.532H392.9C393.142 8.112 393.478 7.804 393.908 7.608C394.337 7.412 394.79 7.314 395.266 7.314ZM404.145 7.314C405.05 7.314 405.778 7.64067 406.329 8.294C406.889 8.94733 407.169 9.92267 407.169 11.22C407.169 12.0693 407.043 12.788 406.791 13.376C406.539 13.964 406.184 14.4073 405.727 14.706C405.269 14.9953 404.737 15.14 404.131 15.14C403.748 15.14 403.412 15.0933 403.123 15C402.833 14.8973 402.586 14.7667 402.381 14.608C402.185 14.44 402.012 14.2627 401.863 14.076H401.765C401.793 14.244 401.816 14.4447 401.835 14.678C401.853 14.902 401.863 15.1027 401.863 15.28V18.36H400.379V7.454H401.583L401.793 8.462H401.863C402.012 8.25667 402.189 8.06533 402.395 7.888C402.6 7.71067 402.847 7.57067 403.137 7.468C403.426 7.36533 403.762 7.314 404.145 7.314ZM403.795 8.532C403.328 8.532 402.955 8.62533 402.675 8.812C402.395 8.98933 402.189 9.26 402.059 9.624C401.937 9.97867 401.872 10.4313 401.863 10.982V11.206C401.863 11.7847 401.923 12.2793 402.045 12.69C402.166 13.0913 402.367 13.3993 402.647 13.614C402.936 13.8193 403.328 13.922 403.823 13.922C404.243 13.922 404.583 13.81 404.845 13.586C405.115 13.3527 405.316 13.0307 405.447 12.62C405.577 12.2093 405.643 11.7333 405.643 11.192C405.643 10.3707 405.493 9.722 405.195 9.246C404.896 8.77 404.429 8.532 403.795 8.532ZM410.824 15H409.34V4.36H410.824V15ZM416.403 7.314C417.066 7.314 417.635 7.454 418.111 7.734C418.587 8.00467 418.951 8.39667 419.203 8.91C419.464 9.42333 419.595 10.03 419.595 10.73V11.542H414.527C414.546 12.3167 414.746 12.9093 415.129 13.32C415.521 13.7307 416.067 13.936 416.767 13.936C417.252 13.936 417.682 13.894 418.055 13.81C418.438 13.7167 418.83 13.5813 419.231 13.404V14.636C418.858 14.804 418.475 14.93 418.083 15.014C417.7 15.098 417.243 15.14 416.711 15.14C415.983 15.14 415.339 14.9953 414.779 14.706C414.219 14.4167 413.78 13.9873 413.463 13.418C413.155 12.8393 413.001 12.13 413.001 11.29C413.001 10.4407 413.141 9.722 413.421 9.134C413.71 8.546 414.107 8.098 414.611 7.79C415.124 7.47267 415.722 7.314 416.403 7.314ZM416.403 8.462C415.871 8.462 415.442 8.63467 415.115 8.98C414.798 9.32533 414.611 9.81533 414.555 10.45H418.111C418.111 10.058 418.05 9.71267 417.929 9.414C417.808 9.11533 417.621 8.882 417.369 8.714C417.117 8.546 416.795 8.462 416.403 8.462ZM426.739 12.872C426.739 13.3667 426.617 13.782 426.375 14.118C426.132 14.454 425.782 14.7107 425.325 14.888C424.867 15.056 424.317 15.14 423.673 15.14C423.141 15.14 422.683 15.098 422.301 15.014C421.927 14.9393 421.582 14.8273 421.265 14.678V13.376C421.601 13.5347 421.988 13.6793 422.427 13.81C422.865 13.9313 423.295 13.992 423.715 13.992C424.275 13.992 424.676 13.9033 424.919 13.726C425.171 13.5487 425.297 13.3107 425.297 13.012C425.297 12.844 425.25 12.6947 425.157 12.564C425.063 12.424 424.886 12.284 424.625 12.144C424.373 11.9947 423.999 11.8267 423.505 11.64C423.029 11.444 422.623 11.2527 422.287 11.066C421.951 10.87 421.694 10.6413 421.517 10.38C421.339 10.1093 421.251 9.764 421.251 9.344C421.251 8.69067 421.512 8.19133 422.035 7.846C422.567 7.49133 423.267 7.314 424.135 7.314C424.592 7.314 425.021 7.36067 425.423 7.454C425.833 7.538 426.23 7.66867 426.613 7.846L426.123 8.98C425.908 8.87733 425.684 8.79333 425.451 8.728C425.227 8.65333 424.998 8.59267 424.765 8.546C424.541 8.49933 424.307 8.476 424.065 8.476C423.617 8.476 423.276 8.546 423.043 8.686C422.809 8.826 422.693 9.022 422.693 9.274C422.693 9.45133 422.744 9.60533 422.847 9.736C422.959 9.86667 423.15 9.99733 423.421 10.128C423.691 10.2587 424.06 10.4173 424.527 10.604C424.993 10.7813 425.39 10.9633 425.717 11.15C426.053 11.3367 426.305 11.5653 426.473 11.836C426.65 12.1067 426.739 12.452 426.739 12.872Z" fill="#6D7CFF"/>
<line x1="449.5" y1="1" x2="449.5" y2="20" stroke="#D1D0CF"/>
<path d="M474.211 12.6315C474.211 13.7941 473.268 14.7368 472.105 14.7368C470.943 14.7368 470 13.7941 470 12.6315C470 11.4689 470.943 10.5262 472.105 10.5262H474.211V12.6315Z" fill="#E01E5A"/>
<path d="M475.263 12.6315C475.263 11.4689 476.206 10.5262 477.368 10.5262C478.531 10.5262 479.474 11.4689 479.474 12.6315V17.8947C479.474 19.0572 478.531 19.9999 477.368 19.9999C476.206 19.9999 475.263 19.0572 475.263 17.8947V12.6315Z" fill="#E01E5A"/>
<path d="M477.368 4.21053C476.206 4.21053 475.263 3.26784 475.263 2.10526C475.263 0.94269 476.206 0 477.368 0C478.531 0 479.474 0.94269 479.474 2.10526V4.21053H477.368Z" fill="#36C5F0"/>
<path d="M477.368 5.26318C478.531 5.26318 479.474 6.20587 479.474 7.36845C479.474 8.53102 478.531 9.47371 477.368 9.47371H472.105C470.943 9.47371 470 8.53102 470 7.36845C470 6.20587 470.943 5.26318 472.105 5.26318H477.368Z" fill="#36C5F0"/>
<path d="M485.789 7.36845C485.789 6.20587 486.732 5.26318 487.895 5.26318C489.057 5.26318 490 6.20587 490 7.36845C490 8.53102 489.057 9.47371 487.895 9.47371H485.789V7.36845Z" fill="#2EB67D"/>
<path d="M484.737 7.36842C484.737 8.53099 483.794 9.47368 482.632 9.47368C481.469 9.47368 480.526 8.53099 480.526 7.36842V2.10526C480.526 0.94269 481.469 0 482.632 0C483.794 0 484.737 0.94269 484.737 2.10526V7.36842Z" fill="#2EB67D"/>
<path d="M482.631 15.7894C483.794 15.7894 484.737 16.7321 484.737 17.8947C484.737 19.0573 483.794 20 482.631 20C481.469 20 480.526 19.0573 480.526 17.8947V15.7894H482.631Z" fill="#ECB22E"/>
<path d="M482.632 14.7368C481.469 14.7368 480.526 13.7941 480.526 12.6315C480.526 11.4689 481.469 10.5262 482.632 10.5262H487.895C489.057 10.5262 490 11.4689 490 12.6315C490 13.7941 489.057 14.7368 487.895 14.7368H482.632Z" fill="#ECB22E"/>
<path d="M501.253 12.298C501.253 12.8953 501.108 13.404 500.819 13.824C500.529 14.244 500.114 14.5707 499.573 14.804C499.031 15.028 498.387 15.14 497.641 15.14C497.277 15.14 496.927 15.1167 496.591 15.07C496.255 15.0327 495.942 14.9767 495.653 14.902C495.363 14.8273 495.107 14.734 494.883 14.622V13.194C495.256 13.362 495.695 13.516 496.199 13.656C496.703 13.7867 497.216 13.852 497.739 13.852C498.187 13.852 498.56 13.7913 498.859 13.67C499.157 13.5487 499.381 13.3807 499.531 13.166C499.68 12.9513 499.755 12.6993 499.755 12.41C499.755 12.102 499.675 11.8453 499.517 11.64C499.367 11.4253 499.129 11.2293 498.803 11.052C498.485 10.8653 498.056 10.6693 497.515 10.464C497.141 10.324 496.801 10.17 496.493 10.002C496.194 9.82467 495.928 9.61933 495.695 9.386C495.471 9.15267 495.298 8.882 495.177 8.574C495.055 8.266 494.995 7.90667 494.995 7.496C494.995 6.94533 495.13 6.474 495.401 6.082C495.681 5.69 496.063 5.39133 496.549 5.186C497.034 4.97133 497.599 4.864 498.243 4.864C498.784 4.864 499.283 4.92 499.741 5.032C500.207 5.13467 500.651 5.27933 501.071 5.466L500.595 6.712C500.212 6.55333 499.825 6.42267 499.433 6.32C499.041 6.21733 498.63 6.166 498.201 6.166C497.827 6.166 497.515 6.222 497.263 6.334C497.011 6.446 496.819 6.6 496.689 6.796C496.567 6.992 496.507 7.22067 496.507 7.482C496.507 7.79 496.577 8.04667 496.717 8.252C496.857 8.45733 497.081 8.64867 497.389 8.826C497.697 8.994 498.103 9.18067 498.607 9.386C499.167 9.60067 499.643 9.834 500.035 10.086C500.436 10.338 500.739 10.6413 500.945 10.996C501.15 11.3413 501.253 11.7753 501.253 12.298ZM504.806 15H503.322V4.36H504.806V15ZM510.343 7.314C511.295 7.314 512.004 7.524 512.471 7.944C512.937 8.35467 513.171 9.00333 513.171 9.89V15H512.121L511.827 13.95H511.771C511.556 14.2207 511.332 14.4447 511.099 14.622C510.875 14.7993 510.613 14.93 510.315 15.014C510.025 15.098 509.671 15.14 509.251 15.14C508.803 15.14 508.397 15.0607 508.033 14.902C507.678 14.734 507.398 14.482 507.193 14.146C506.987 13.8007 506.885 13.3713 506.885 12.858C506.885 12.0927 507.174 11.5093 507.753 11.108C508.341 10.7067 509.232 10.4873 510.427 10.45L511.715 10.408V9.988C511.715 9.428 511.589 9.036 511.337 8.812C511.085 8.588 510.73 8.476 510.273 8.476C509.881 8.476 509.507 8.532 509.153 8.644C508.798 8.756 508.462 8.89133 508.145 9.05L507.669 7.972C508.023 7.78533 508.429 7.63133 508.887 7.51C509.353 7.37933 509.839 7.314 510.343 7.314ZM510.693 11.402C509.834 11.4393 509.237 11.584 508.901 11.836C508.574 12.0787 508.411 12.424 508.411 12.872C508.411 13.264 508.527 13.5487 508.761 13.726C509.003 13.9033 509.307 13.992 509.671 13.992C510.259 13.992 510.744 13.8287 511.127 13.502C511.509 13.1753 511.701 12.6853 511.701 12.032V11.374L510.693 11.402ZM518.774 15.14C518.083 15.14 517.476 15.0047 516.954 14.734C516.431 14.4633 516.025 14.0433 515.736 13.474C515.446 12.8953 515.302 12.1627 515.302 11.276C515.302 10.3427 515.456 9.58667 515.764 9.008C516.081 8.42933 516.506 8.00467 517.038 7.734C517.579 7.454 518.195 7.314 518.886 7.314C519.306 7.314 519.698 7.36067 520.062 7.454C520.435 7.538 520.743 7.636 520.986 7.748L520.538 8.952C520.276 8.84933 519.996 8.76067 519.698 8.686C519.408 8.61133 519.133 8.574 518.872 8.574C518.405 8.574 518.018 8.67667 517.71 8.882C517.411 9.078 517.187 9.37667 517.038 9.778C516.898 10.17 516.828 10.6647 516.828 11.262C516.828 11.8313 516.902 12.312 517.052 12.704C517.201 13.096 517.42 13.3947 517.71 13.6C518.008 13.796 518.377 13.894 518.816 13.894C519.236 13.894 519.604 13.8473 519.922 13.754C520.239 13.6607 520.538 13.5393 520.818 13.39V14.678C520.547 14.8367 520.253 14.9533 519.936 15.028C519.618 15.1027 519.231 15.14 518.774 15.14ZM524.349 9.68C524.349 9.876 524.34 10.1 524.321 10.352C524.312 10.604 524.298 10.8373 524.279 11.052H524.321C524.396 10.9587 524.484 10.8467 524.587 10.716C524.699 10.576 524.811 10.436 524.923 10.296C525.035 10.156 525.138 10.0347 525.231 9.932L527.541 7.454H529.263L526.225 10.688L529.459 15H527.709L525.217 11.626L524.349 12.354V15H522.879V4.36H524.349V9.68Z" fill="#6D7CFF"/>
<defs>
<clipPath id="clip0_85_228">
<rect width="16" height="16" fill="white" transform="translate(170 2)"/>
</clipPath>
</defs>
</svg>
