<svg width="686" height="65" viewBox="0 0 686 65" fill="none" xmlns="http://www.w3.org/2000/svg">
<rect y="0.57373" width="220" height="64" rx="8" fill="#416FF8"/>
<path d="M54.112 34.8437C54.112 35.4317 53.9673 35.9404 53.678 36.3697C53.3887 36.7991 52.9687 37.1304 52.418 37.3637C51.8767 37.5971 51.228 37.7137 50.472 37.7137C50.108 37.7137 49.758 37.6904 49.422 37.6437C49.0953 37.6064 48.7827 37.5457 48.484 37.4617C48.1947 37.3777 47.924 37.2751 47.672 37.1537V35.4737C48.092 35.6604 48.554 35.8331 49.058 35.9917C49.562 36.1411 50.0753 36.2157 50.598 36.2157C50.9993 36.2157 51.326 36.1644 51.578 36.0617C51.8393 35.9497 52.0307 35.8004 52.152 35.6137C52.2733 35.4177 52.334 35.1937 52.334 34.9417C52.334 34.6617 52.2547 34.4237 52.096 34.2277C51.9373 34.0317 51.704 33.8497 51.396 33.6817C51.088 33.5137 50.7053 33.3364 50.248 33.1497C49.94 33.0191 49.6367 32.8744 49.338 32.7157C49.0487 32.5477 48.7873 32.3471 48.554 32.1137C48.3207 31.8804 48.134 31.6051 47.994 31.2877C47.854 30.9704 47.784 30.5971 47.784 30.1677C47.784 29.5984 47.9193 29.1084 48.19 28.6977C48.47 28.2871 48.8573 27.9744 49.352 27.7597C49.856 27.5451 50.4393 27.4377 51.102 27.4377C51.634 27.4377 52.1333 27.4937 52.6 27.6057C53.0667 27.7177 53.5287 27.8764 53.986 28.0817L53.412 29.5237C53.0013 29.3464 52.6047 29.2064 52.222 29.1037C51.8393 29.0011 51.4473 28.9497 51.046 28.9497C50.7287 28.9497 50.458 29.0011 50.234 29.1037C50.01 29.1971 49.842 29.3324 49.73 29.5097C49.618 29.6871 49.562 29.8924 49.562 30.1257C49.562 30.3964 49.632 30.6251 49.772 30.8117C49.912 30.9984 50.1267 31.1757 50.416 31.3437C50.7147 31.5024 51.0973 31.6844 51.564 31.8897C52.1053 32.1231 52.5627 32.3657 52.936 32.6177C53.3093 32.8697 53.5987 33.1731 53.804 33.5277C54.0093 33.8824 54.112 34.3211 54.112 34.8437ZM59.1633 29.8457C59.8446 29.8457 60.4279 29.9857 60.9133 30.2657C61.4079 30.5364 61.7906 30.9284 62.0613 31.4417C62.3319 31.9457 62.4673 32.5617 62.4673 33.2897V34.1857H57.4553C57.4739 34.8764 57.6653 35.4131 58.0293 35.7957C58.3933 36.1691 58.8973 36.3557 59.5413 36.3557C60.0359 36.3557 60.4746 36.3091 60.8573 36.2157C61.2493 36.1131 61.6506 35.9684 62.0613 35.7817V37.1957C61.6879 37.3731 61.3006 37.5037 60.8993 37.5877C60.4979 37.6717 60.0173 37.7137 59.4573 37.7137C58.7199 37.7137 58.0619 37.5737 57.4833 37.2937C56.9139 37.0044 56.4659 36.5704 56.1393 35.9917C55.8219 35.4131 55.6633 34.6944 55.6633 33.8357C55.6633 32.9677 55.8079 32.2397 56.0973 31.6517C56.3959 31.0544 56.8066 30.6064 57.3293 30.3077C57.8519 29.9997 58.4633 29.8457 59.1633 29.8457ZM59.1633 31.1477C58.6966 31.1477 58.3139 31.3017 58.0153 31.6097C57.7259 31.9084 57.5533 32.3564 57.4973 32.9537H60.7593C60.7593 32.5991 60.6986 32.2864 60.5773 32.0157C60.4653 31.7451 60.2926 31.5351 60.0593 31.3857C59.8259 31.2271 59.5273 31.1477 59.1633 31.1477ZM66.29 37.5737H64.526V26.9337H66.29V37.5737ZM72.7596 31.3157H70.9256V37.5737H69.1616V31.3157H67.9436V30.4757L69.1616 29.9717V29.4537C69.1616 28.8004 69.2642 28.2871 69.4696 27.9137C69.6749 27.5404 69.9736 27.2744 70.3656 27.1157C70.7576 26.9477 71.2196 26.8637 71.7516 26.8637C72.1249 26.8637 72.4609 26.8964 72.7596 26.9617C73.0582 27.0177 73.3056 27.0831 73.5016 27.1577L73.0536 28.4737C72.8949 28.4271 72.7176 28.3851 72.5216 28.3477C72.3349 28.3011 72.1296 28.2777 71.9056 28.2777C71.5696 28.2777 71.3222 28.3851 71.1636 28.5997C71.0049 28.8144 70.9256 29.1131 70.9256 29.4957V29.9857H72.7596V31.3157ZM73.6429 34.5637V33.0797H77.1989V34.5637H73.6429ZM80.8566 29.4677C80.8566 29.7664 80.8426 30.0604 80.8146 30.3497C80.7959 30.6297 80.7773 30.8397 80.7586 30.9797H80.8706C81.0293 30.7184 81.2253 30.5084 81.4586 30.3497C81.6919 30.1817 81.9486 30.0557 82.2286 29.9717C82.5179 29.8877 82.8166 29.8457 83.1246 29.8457C83.6939 29.8457 84.1839 29.9437 84.5946 30.1397C85.0053 30.3357 85.3179 30.6391 85.5326 31.0497C85.7566 31.4511 85.8686 31.9784 85.8686 32.6317V37.5737H84.1046V32.9817C84.1046 32.4031 83.9926 31.9737 83.7686 31.6937C83.5446 31.4137 83.1899 31.2737 82.7046 31.2737C82.2379 31.2737 81.8693 31.3764 81.5986 31.5817C81.3279 31.7777 81.1366 32.0717 81.0246 32.4637C80.9126 32.8464 80.8566 33.3177 80.8566 33.8777V37.5737H79.0926V26.9337H80.8566V29.4677ZM95.131 33.7657C95.131 34.4004 95.047 34.9604 94.879 35.4457C94.711 35.9311 94.4683 36.3464 94.151 36.6917C93.843 37.0277 93.4603 37.2844 93.003 37.4617C92.555 37.6297 92.0557 37.7137 91.505 37.7137C90.9823 37.7137 90.5017 37.6297 90.063 37.4617C89.6243 37.2844 89.2417 37.0277 88.915 36.6917C88.5977 36.3464 88.3503 35.9311 88.173 35.4457C87.9957 34.9604 87.907 34.4004 87.907 33.7657C87.907 32.9257 88.0517 32.2164 88.341 31.6377C88.6303 31.0497 89.0457 30.6064 89.587 30.3077C90.1377 29.9997 90.7863 29.8457 91.533 29.8457C92.2423 29.8457 92.863 29.9997 93.395 30.3077C93.9363 30.6064 94.361 31.0497 94.669 31.6377C94.977 32.2164 95.131 32.9257 95.131 33.7657ZM89.713 33.7657C89.713 34.2977 89.7737 34.7551 89.895 35.1377C90.0257 35.5111 90.2217 35.7957 90.483 35.9917C90.7537 36.1877 91.099 36.2857 91.519 36.2857C91.9483 36.2857 92.2937 36.1877 92.555 35.9917C92.8257 35.7957 93.0217 35.5111 93.143 35.1377C93.2643 34.7551 93.325 34.2977 93.325 33.7657C93.325 33.2244 93.2597 32.7717 93.129 32.4077C93.0077 32.0344 92.8117 31.7544 92.541 31.5677C92.2797 31.3717 91.939 31.2737 91.519 31.2737C90.8843 31.2737 90.4223 31.4884 90.133 31.9177C89.853 32.3471 89.713 32.9631 89.713 33.7657ZM102.401 35.3757C102.401 35.8797 102.279 36.3091 102.037 36.6637C101.794 37.0091 101.435 37.2704 100.959 37.4477C100.492 37.6251 99.918 37.7137 99.2366 37.7137C98.7046 37.7137 98.2473 37.6764 97.8646 37.6017C97.482 37.5271 97.118 37.4104 96.7726 37.2517V35.7537C97.146 35.9311 97.5613 36.0804 98.0186 36.2017C98.476 36.3231 98.9006 36.3837 99.2926 36.3837C99.778 36.3837 100.128 36.3091 100.343 36.1597C100.557 36.0104 100.665 35.8097 100.665 35.5577C100.665 35.4084 100.623 35.2731 100.539 35.1517C100.455 35.0304 100.291 34.9044 100.049 34.7737C99.806 34.6337 99.4373 34.4611 98.9426 34.2557C98.4573 34.0597 98.0513 33.8637 97.7246 33.6677C97.4073 33.4717 97.1646 33.2384 96.9966 32.9677C96.838 32.6877 96.7586 32.3377 96.7586 31.9177C96.7586 31.2364 97.0293 30.7231 97.5706 30.3777C98.112 30.0231 98.826 29.8457 99.7126 29.8457C100.179 29.8457 100.618 29.8924 101.029 29.9857C101.449 30.0697 101.869 30.2097 102.289 30.4057L101.729 31.7077C101.495 31.6051 101.262 31.5164 101.029 31.4417C100.805 31.3577 100.576 31.2924 100.343 31.2457C100.119 31.1991 99.89 31.1757 99.6566 31.1757C99.274 31.1757 98.9846 31.2364 98.7886 31.3577C98.5926 31.4697 98.4946 31.6284 98.4946 31.8337C98.4946 31.9924 98.5413 32.1324 98.6346 32.2537C98.7373 32.3657 98.91 32.4824 99.1526 32.6037C99.4046 32.7157 99.7593 32.8651 100.217 33.0517C100.674 33.2291 101.061 33.4157 101.379 33.6117C101.705 33.7984 101.957 34.0317 102.135 34.3117C102.312 34.5917 102.401 34.9464 102.401 35.3757ZM107.318 36.2997C107.542 36.2997 107.757 36.2811 107.962 36.2437C108.167 36.1971 108.359 36.1457 108.536 36.0897V37.4057C108.349 37.4897 108.107 37.5597 107.808 37.6157C107.509 37.6811 107.197 37.7137 106.87 37.7137C106.441 37.7137 106.049 37.6437 105.694 37.5037C105.349 37.3544 105.069 37.1024 104.854 36.7477C104.649 36.3931 104.546 35.8984 104.546 35.2637V31.3157H103.524V30.5457L104.644 29.9297L105.204 28.3197H106.31V29.9857H108.466V31.3157H106.31V35.2497C106.31 35.6044 106.403 35.8704 106.59 36.0477C106.777 36.2157 107.019 36.2997 107.318 36.2997ZM113.397 29.8457C114.079 29.8457 114.662 29.9857 115.147 30.2657C115.642 30.5364 116.025 30.9284 116.295 31.4417C116.566 31.9457 116.701 32.5617 116.701 33.2897V34.1857H111.689C111.708 34.8764 111.899 35.4131 112.263 35.7957C112.627 36.1691 113.131 36.3557 113.775 36.3557C114.27 36.3557 114.709 36.3091 115.091 36.2157C115.483 36.1131 115.885 35.9684 116.295 35.7817V37.1957C115.922 37.3731 115.535 37.5037 115.133 37.5877C114.732 37.6717 114.251 37.7137 113.691 37.7137C112.954 37.7137 112.296 37.5737 111.717 37.2937C111.148 37.0044 110.7 36.5704 110.373 35.9917C110.056 35.4131 109.897 34.6944 109.897 33.8357C109.897 32.9677 110.042 32.2397 110.331 31.6517C110.63 31.0544 111.041 30.6064 111.563 30.3077C112.086 29.9997 112.697 29.8457 113.397 29.8457ZM113.397 31.1477C112.931 31.1477 112.548 31.3017 112.249 31.6097C111.96 31.9084 111.787 32.3564 111.731 32.9537H114.993C114.993 32.5991 114.933 32.2864 114.811 32.0157C114.699 31.7451 114.527 31.5351 114.293 31.3857C114.06 31.2271 113.761 31.1477 113.397 31.1477ZM121.266 37.7137C120.389 37.7137 119.675 37.3871 119.124 36.7337C118.583 36.0711 118.312 35.0911 118.312 33.7937C118.312 32.4964 118.588 31.5164 119.138 30.8537C119.689 30.1817 120.412 29.8457 121.308 29.8457C121.682 29.8457 122.008 29.8971 122.288 29.9997C122.578 30.0931 122.825 30.2237 123.03 30.3917C123.236 30.5597 123.408 30.7464 123.548 30.9517H123.632C123.604 30.8211 123.576 30.6204 123.548 30.3497C123.52 30.0791 123.506 29.8271 123.506 29.5937V26.9337H125.27V37.5737H123.898L123.576 36.5797H123.506C123.366 36.7851 123.194 36.9764 122.988 37.1537C122.783 37.3217 122.54 37.4571 122.26 37.5597C121.98 37.6624 121.649 37.7137 121.266 37.7137ZM121.798 36.2857C122.452 36.2857 122.914 36.0991 123.184 35.7257C123.455 35.3524 123.59 34.7877 123.59 34.0317V33.8077C123.59 32.9864 123.46 32.3611 123.198 31.9317C122.946 31.5024 122.47 31.2877 121.77 31.2877C121.238 31.2877 120.828 31.5117 120.538 31.9597C120.249 32.3984 120.104 33.0191 120.104 33.8217C120.104 34.6244 120.249 35.2357 120.538 35.6557C120.828 36.0757 121.248 36.2857 121.798 36.2857ZM136.145 28.9497C135.687 28.9497 135.281 29.0337 134.927 29.2017C134.572 29.3697 134.269 29.6124 134.017 29.9297C133.774 30.2471 133.587 30.6297 133.457 31.0777C133.335 31.5257 133.275 32.0297 133.275 32.5897C133.275 33.3457 133.377 33.9944 133.583 34.5357C133.788 35.0677 134.101 35.4784 134.521 35.7677C134.95 36.0571 135.487 36.2017 136.131 36.2017C136.56 36.2017 136.971 36.1597 137.363 36.0757C137.764 35.9824 138.184 35.8611 138.623 35.7117V37.2377C138.212 37.4057 137.797 37.5271 137.377 37.6017C136.966 37.6764 136.49 37.7137 135.949 37.7137C134.922 37.7137 134.073 37.5037 133.401 37.0837C132.729 36.6544 132.229 36.0571 131.903 35.2917C131.576 34.5171 131.413 33.6117 131.413 32.5757C131.413 31.8197 131.515 31.1291 131.721 30.5037C131.935 29.8784 132.239 29.3371 132.631 28.8797C133.032 28.4224 133.527 28.0677 134.115 27.8157C134.703 27.5637 135.379 27.4377 136.145 27.4377C136.649 27.4377 137.143 27.4984 137.629 27.6197C138.123 27.7317 138.585 27.8904 139.015 28.0957L138.399 29.5657C138.044 29.4071 137.675 29.2671 137.293 29.1457C136.919 29.0151 136.537 28.9497 136.145 28.9497ZM142.651 37.5737H140.887V26.9337H142.651V37.5737ZM151.963 33.7657C151.963 34.4004 151.879 34.9604 151.711 35.4457C151.543 35.9311 151.3 36.3464 150.983 36.6917C150.675 37.0277 150.292 37.2844 149.835 37.4617C149.387 37.6297 148.887 37.7137 148.337 37.7137C147.814 37.7137 147.333 37.6297 146.895 37.4617C146.456 37.2844 146.073 37.0277 145.747 36.6917C145.429 36.3464 145.182 35.9311 145.005 35.4457C144.827 34.9604 144.739 34.4004 144.739 33.7657C144.739 32.9257 144.883 32.2164 145.173 31.6377C145.462 31.0497 145.877 30.6064 146.419 30.3077C146.969 29.9997 147.618 29.8457 148.365 29.8457C149.074 29.8457 149.695 29.9997 150.227 30.3077C150.768 30.6064 151.193 31.0497 151.501 31.6377C151.809 32.2164 151.963 32.9257 151.963 33.7657ZM146.545 33.7657C146.545 34.2977 146.605 34.7551 146.727 35.1377C146.857 35.5111 147.053 35.7957 147.315 35.9917C147.585 36.1877 147.931 36.2857 148.351 36.2857C148.78 36.2857 149.125 36.1877 149.387 35.9917C149.657 35.7957 149.853 35.5111 149.975 35.1377C150.096 34.7551 150.157 34.2977 150.157 33.7657C150.157 33.2244 150.091 32.7717 149.961 32.4077C149.839 32.0344 149.643 31.7544 149.373 31.5677C149.111 31.3717 148.771 31.2737 148.351 31.2737C147.716 31.2737 147.254 31.4884 146.965 31.9177C146.685 32.3471 146.545 32.9631 146.545 33.7657ZM160.8 29.9857V37.5737H159.414L159.176 36.5937H159.092C158.934 36.8551 158.728 37.0697 158.476 37.2377C158.224 37.3964 157.949 37.5131 157.65 37.5877C157.352 37.6717 157.044 37.7137 156.726 37.7137C156.166 37.7137 155.681 37.6157 155.27 37.4197C154.86 37.2237 154.547 36.9251 154.332 36.5237C154.118 36.1131 154.01 35.5857 154.01 34.9417V29.9857H155.774V34.5917C155.774 35.1517 155.886 35.5764 156.11 35.8657C156.334 36.1457 156.689 36.2857 157.174 36.2857C157.65 36.2857 158.024 36.1877 158.294 35.9917C158.565 35.7864 158.756 35.4924 158.868 35.1097C158.98 34.7271 159.036 34.2557 159.036 33.6957V29.9857H160.8ZM165.835 37.7137C164.958 37.7137 164.244 37.3871 163.693 36.7337C163.152 36.0711 162.881 35.0911 162.881 33.7937C162.881 32.4964 163.156 31.5164 163.707 30.8537C164.258 30.1817 164.981 29.8457 165.877 29.8457C166.25 29.8457 166.577 29.8971 166.857 29.9997C167.146 30.0931 167.394 30.2237 167.599 30.3917C167.804 30.5597 167.977 30.7464 168.117 30.9517H168.201C168.173 30.8211 168.145 30.6204 168.117 30.3497C168.089 30.0791 168.075 29.8271 168.075 29.5937V26.9337H169.839V37.5737H168.467L168.145 36.5797H168.075C167.935 36.7851 167.762 36.9764 167.557 37.1537C167.352 37.3217 167.109 37.4571 166.829 37.5597C166.549 37.6624 166.218 37.7137 165.835 37.7137ZM166.367 36.2857C167.02 36.2857 167.482 36.0991 167.753 35.7257C168.024 35.3524 168.159 34.7877 168.159 34.0317V33.8077C168.159 32.9864 168.028 32.3611 167.767 31.9317C167.515 31.5024 167.039 31.2877 166.339 31.2877C165.807 31.2877 165.396 31.5117 165.107 31.9597C164.818 32.3984 164.673 33.0191 164.673 33.8217C164.673 34.6244 164.818 35.2357 165.107 35.6557C165.396 36.0757 165.816 36.2857 166.367 36.2857Z" fill="#CBCBD7"/>
<rect x="233" y="0.57373" width="220" height="64" rx="8" fill="#3C38FE"/>
<path d="M287.112 34.8437C287.112 35.4317 286.967 35.9404 286.678 36.3697C286.389 36.7991 285.969 37.1304 285.418 37.3637C284.877 37.5971 284.228 37.7137 283.472 37.7137C283.108 37.7137 282.758 37.6904 282.422 37.6437C282.095 37.6064 281.783 37.5457 281.484 37.4617C281.195 37.3777 280.924 37.2751 280.672 37.1537V35.4737C281.092 35.6604 281.554 35.8331 282.058 35.9917C282.562 36.1411 283.075 36.2157 283.598 36.2157C283.999 36.2157 284.326 36.1644 284.578 36.0617C284.839 35.9497 285.031 35.8004 285.152 35.6137C285.273 35.4177 285.334 35.1937 285.334 34.9417C285.334 34.6617 285.255 34.4237 285.096 34.2277C284.937 34.0317 284.704 33.8497 284.396 33.6817C284.088 33.5137 283.705 33.3364 283.248 33.1497C282.94 33.0191 282.637 32.8744 282.338 32.7157C282.049 32.5477 281.787 32.3471 281.554 32.1137C281.321 31.8804 281.134 31.6051 280.994 31.2877C280.854 30.9704 280.784 30.5971 280.784 30.1677C280.784 29.5984 280.919 29.1084 281.19 28.6977C281.47 28.2871 281.857 27.9744 282.352 27.7597C282.856 27.5451 283.439 27.4377 284.102 27.4377C284.634 27.4377 285.133 27.4937 285.6 27.6057C286.067 27.7177 286.529 27.8764 286.986 28.0817L286.412 29.5237C286.001 29.3464 285.605 29.2064 285.222 29.1037C284.839 29.0011 284.447 28.9497 284.046 28.9497C283.729 28.9497 283.458 29.0011 283.234 29.1037C283.01 29.1971 282.842 29.3324 282.73 29.5097C282.618 29.6871 282.562 29.8924 282.562 30.1257C282.562 30.3964 282.632 30.6251 282.772 30.8117C282.912 30.9984 283.127 31.1757 283.416 31.3437C283.715 31.5024 284.097 31.6844 284.564 31.8897C285.105 32.1231 285.563 32.3657 285.936 32.6177C286.309 32.8697 286.599 33.1731 286.804 33.5277C287.009 33.8824 287.112 34.3211 287.112 34.8437ZM292.163 29.8457C292.845 29.8457 293.428 29.9857 293.913 30.2657C294.408 30.5364 294.791 30.9284 295.061 31.4417C295.332 31.9457 295.467 32.5617 295.467 33.2897V34.1857H290.455C290.474 34.8764 290.665 35.4131 291.029 35.7957C291.393 36.1691 291.897 36.3557 292.541 36.3557C293.036 36.3557 293.475 36.3091 293.857 36.2157C294.249 36.1131 294.651 35.9684 295.061 35.7817V37.1957C294.688 37.3731 294.301 37.5037 293.899 37.5877C293.498 37.6717 293.017 37.7137 292.457 37.7137C291.72 37.7137 291.062 37.5737 290.483 37.2937C289.914 37.0044 289.466 36.5704 289.139 35.9917C288.822 35.4131 288.663 34.6944 288.663 33.8357C288.663 32.9677 288.808 32.2397 289.097 31.6517C289.396 31.0544 289.807 30.6064 290.329 30.3077C290.852 29.9997 291.463 29.8457 292.163 29.8457ZM292.163 31.1477C291.697 31.1477 291.314 31.3017 291.015 31.6097C290.726 31.9084 290.553 32.3564 290.497 32.9537H293.759C293.759 32.5991 293.699 32.2864 293.577 32.0157C293.465 31.7451 293.293 31.5351 293.059 31.3857C292.826 31.2271 292.527 31.1477 292.163 31.1477ZM299.29 37.5737H297.526V26.9337H299.29V37.5737ZM305.76 31.3157H303.926V37.5737H302.162V31.3157H300.944V30.4757L302.162 29.9717V29.4537C302.162 28.8004 302.264 28.2871 302.47 27.9137C302.675 27.5404 302.974 27.2744 303.366 27.1157C303.758 26.9477 304.22 26.8637 304.752 26.8637C305.125 26.8637 305.461 26.8964 305.76 26.9617C306.058 27.0177 306.306 27.0831 306.502 27.1577L306.054 28.4737C305.895 28.4271 305.718 28.3851 305.522 28.3477C305.335 28.3011 305.13 28.2777 304.906 28.2777C304.57 28.2777 304.322 28.3851 304.164 28.5997C304.005 28.8144 303.926 29.1131 303.926 29.4957V29.9857H305.76V31.3157ZM306.643 34.5637V33.0797H310.199V34.5637H306.643ZM313.857 29.4677C313.857 29.7664 313.843 30.0604 313.815 30.3497C313.796 30.6297 313.777 30.8397 313.759 30.9797H313.871C314.029 30.7184 314.225 30.5084 314.459 30.3497C314.692 30.1817 314.949 30.0557 315.229 29.9717C315.518 29.8877 315.817 29.8457 316.125 29.8457C316.694 29.8457 317.184 29.9437 317.595 30.1397C318.005 30.3357 318.318 30.6391 318.533 31.0497C318.757 31.4511 318.869 31.9784 318.869 32.6317V37.5737H317.105V32.9817C317.105 32.4031 316.993 31.9737 316.769 31.6937C316.545 31.4137 316.19 31.2737 315.705 31.2737C315.238 31.2737 314.869 31.3764 314.599 31.5817C314.328 31.7777 314.137 32.0717 314.025 32.4637C313.913 32.8464 313.857 33.3177 313.857 33.8777V37.5737H312.093V26.9337H313.857V29.4677ZM328.131 33.7657C328.131 34.4004 328.047 34.9604 327.879 35.4457C327.711 35.9311 327.468 36.3464 327.151 36.6917C326.843 37.0277 326.46 37.2844 326.003 37.4617C325.555 37.6297 325.056 37.7137 324.505 37.7137C323.982 37.7137 323.502 37.6297 323.063 37.4617C322.624 37.2844 322.242 37.0277 321.915 36.6917C321.598 36.3464 321.35 35.9311 321.173 35.4457C320.996 34.9604 320.907 34.4004 320.907 33.7657C320.907 32.9257 321.052 32.2164 321.341 31.6377C321.63 31.0497 322.046 30.6064 322.587 30.3077C323.138 29.9997 323.786 29.8457 324.533 29.8457C325.242 29.8457 325.863 29.9997 326.395 30.3077C326.936 30.6064 327.361 31.0497 327.669 31.6377C327.977 32.2164 328.131 32.9257 328.131 33.7657ZM322.713 33.7657C322.713 34.2977 322.774 34.7551 322.895 35.1377C323.026 35.5111 323.222 35.7957 323.483 35.9917C323.754 36.1877 324.099 36.2857 324.519 36.2857C324.948 36.2857 325.294 36.1877 325.555 35.9917C325.826 35.7957 326.022 35.5111 326.143 35.1377C326.264 34.7551 326.325 34.2977 326.325 33.7657C326.325 33.2244 326.26 32.7717 326.129 32.4077C326.008 32.0344 325.812 31.7544 325.541 31.5677C325.28 31.3717 324.939 31.2737 324.519 31.2737C323.884 31.2737 323.422 31.4884 323.133 31.9177C322.853 32.3471 322.713 32.9631 322.713 33.7657ZM335.401 35.3757C335.401 35.8797 335.279 36.3091 335.037 36.6637C334.794 37.0091 334.435 37.2704 333.959 37.4477C333.492 37.6251 332.918 37.7137 332.237 37.7137C331.705 37.7137 331.247 37.6764 330.865 37.6017C330.482 37.5271 330.118 37.4104 329.773 37.2517V35.7537C330.146 35.9311 330.561 36.0804 331.019 36.2017C331.476 36.3231 331.901 36.3837 332.293 36.3837C332.778 36.3837 333.128 36.3091 333.343 36.1597C333.557 36.0104 333.665 35.8097 333.665 35.5577C333.665 35.4084 333.623 35.2731 333.539 35.1517C333.455 35.0304 333.291 34.9044 333.049 34.7737C332.806 34.6337 332.437 34.4611 331.943 34.2557C331.457 34.0597 331.051 33.8637 330.725 33.6677C330.407 33.4717 330.165 33.2384 329.997 32.9677C329.838 32.6877 329.759 32.3377 329.759 31.9177C329.759 31.2364 330.029 30.7231 330.571 30.3777C331.112 30.0231 331.826 29.8457 332.713 29.8457C333.179 29.8457 333.618 29.8924 334.029 29.9857C334.449 30.0697 334.869 30.2097 335.289 30.4057L334.729 31.7077C334.495 31.6051 334.262 31.5164 334.029 31.4417C333.805 31.3577 333.576 31.2924 333.343 31.2457C333.119 31.1991 332.89 31.1757 332.657 31.1757C332.274 31.1757 331.985 31.2364 331.789 31.3577C331.593 31.4697 331.495 31.6284 331.495 31.8337C331.495 31.9924 331.541 32.1324 331.635 32.2537C331.737 32.3657 331.91 32.4824 332.153 32.6037C332.405 32.7157 332.759 32.8651 333.217 33.0517C333.674 33.2291 334.061 33.4157 334.379 33.6117C334.705 33.7984 334.957 34.0317 335.135 34.3117C335.312 34.5917 335.401 34.9464 335.401 35.3757ZM340.318 36.2997C340.542 36.2997 340.757 36.2811 340.962 36.2437C341.167 36.1971 341.359 36.1457 341.536 36.0897V37.4057C341.349 37.4897 341.107 37.5597 340.808 37.6157C340.509 37.6811 340.197 37.7137 339.87 37.7137C339.441 37.7137 339.049 37.6437 338.694 37.5037C338.349 37.3544 338.069 37.1024 337.854 36.7477C337.649 36.3931 337.546 35.8984 337.546 35.2637V31.3157H336.524V30.5457L337.644 29.9297L338.204 28.3197H339.31V29.9857H341.466V31.3157H339.31V35.2497C339.31 35.6044 339.403 35.8704 339.59 36.0477C339.777 36.2157 340.019 36.2997 340.318 36.2997ZM346.397 29.8457C347.079 29.8457 347.662 29.9857 348.147 30.2657C348.642 30.5364 349.025 30.9284 349.295 31.4417C349.566 31.9457 349.701 32.5617 349.701 33.2897V34.1857H344.689C344.708 34.8764 344.899 35.4131 345.263 35.7957C345.627 36.1691 346.131 36.3557 346.775 36.3557C347.27 36.3557 347.709 36.3091 348.091 36.2157C348.483 36.1131 348.885 35.9684 349.295 35.7817V37.1957C348.922 37.3731 348.535 37.5037 348.133 37.5877C347.732 37.6717 347.251 37.7137 346.691 37.7137C345.954 37.7137 345.296 37.5737 344.717 37.2937C344.148 37.0044 343.7 36.5704 343.373 35.9917C343.056 35.4131 342.897 34.6944 342.897 33.8357C342.897 32.9677 343.042 32.2397 343.331 31.6517C343.63 31.0544 344.041 30.6064 344.563 30.3077C345.086 29.9997 345.697 29.8457 346.397 29.8457ZM346.397 31.1477C345.931 31.1477 345.548 31.3017 345.249 31.6097C344.96 31.9084 344.787 32.3564 344.731 32.9537H347.993C347.993 32.5991 347.933 32.2864 347.811 32.0157C347.699 31.7451 347.527 31.5351 347.293 31.3857C347.06 31.2271 346.761 31.1477 346.397 31.1477ZM354.266 37.7137C353.389 37.7137 352.675 37.3871 352.124 36.7337C351.583 36.0711 351.312 35.0911 351.312 33.7937C351.312 32.4964 351.588 31.5164 352.138 30.8537C352.689 30.1817 353.412 29.8457 354.308 29.8457C354.682 29.8457 355.008 29.8971 355.288 29.9997C355.578 30.0931 355.825 30.2237 356.03 30.3917C356.236 30.5597 356.408 30.7464 356.548 30.9517H356.632C356.604 30.8211 356.576 30.6204 356.548 30.3497C356.52 30.0791 356.506 29.8271 356.506 29.5937V26.9337H358.27V37.5737H356.898L356.576 36.5797H356.506C356.366 36.7851 356.194 36.9764 355.988 37.1537C355.783 37.3217 355.54 37.4571 355.26 37.5597C354.98 37.6624 354.649 37.7137 354.266 37.7137ZM354.798 36.2857C355.452 36.2857 355.914 36.0991 356.184 35.7257C356.455 35.3524 356.59 34.7877 356.59 34.0317V33.8077C356.59 32.9864 356.46 32.3611 356.198 31.9317C355.946 31.5024 355.47 31.2877 354.77 31.2877C354.238 31.2877 353.828 31.5117 353.538 31.9597C353.249 32.3984 353.104 33.0191 353.104 33.8217C353.104 34.6244 353.249 35.2357 353.538 35.6557C353.828 36.0757 354.248 36.2857 354.798 36.2857ZM373.821 32.5617C373.821 33.3364 373.723 34.0411 373.527 34.6757C373.34 35.3011 373.051 35.8424 372.659 36.2997C372.276 36.7571 371.786 37.1071 371.189 37.3497C370.601 37.5924 369.91 37.7137 369.117 37.7137C368.314 37.7137 367.614 37.5924 367.017 37.3497C366.429 37.0977 365.943 36.7477 365.561 36.2997C365.178 35.8424 364.889 35.2964 364.693 34.6617C364.506 34.0271 364.413 33.3224 364.413 32.5477C364.413 31.5117 364.581 30.6111 364.917 29.8457C365.262 29.0804 365.78 28.4877 366.471 28.0677C367.171 27.6384 368.057 27.4237 369.131 27.4237C370.185 27.4237 371.058 27.6384 371.749 28.0677C372.439 28.4877 372.957 29.0851 373.303 29.8597C373.648 30.6251 373.821 31.5257 373.821 32.5617ZM366.303 32.5617C366.303 33.3177 366.401 33.9664 366.597 34.5077C366.802 35.0491 367.11 35.4644 367.521 35.7537C367.941 36.0431 368.473 36.1877 369.117 36.1877C369.779 36.1877 370.316 36.0431 370.727 35.7537C371.137 35.4644 371.441 35.0491 371.637 34.5077C371.833 33.9664 371.931 33.3177 371.931 32.5617C371.931 31.4324 371.711 30.5457 371.273 29.9017C370.834 29.2577 370.12 28.9357 369.131 28.9357C368.477 28.9357 367.941 29.0804 367.521 29.3697C367.11 29.6591 366.802 30.0744 366.597 30.6157C366.401 31.1571 366.303 31.8057 366.303 32.5617ZM380.121 29.8457C380.97 29.8457 381.633 30.0651 382.109 30.5037C382.594 30.9424 382.837 31.6517 382.837 32.6317V37.5737H381.073V32.9817C381.073 32.4124 380.961 31.9877 380.737 31.7077C380.513 31.4184 380.158 31.2737 379.673 31.2737C378.964 31.2737 378.478 31.4977 378.217 31.9457C377.956 32.3844 377.825 33.0237 377.825 33.8637V37.5737H376.061V29.9857H377.419L377.671 30.9797H377.769C377.937 30.7184 378.142 30.5037 378.385 30.3357C378.628 30.1677 378.898 30.0464 379.197 29.9717C379.496 29.8877 379.804 29.8457 380.121 29.8457ZM393.23 29.8457C394.117 29.8457 394.831 30.1771 395.372 30.8397C395.914 31.4931 396.184 32.4684 396.184 33.7657C396.184 34.6244 396.058 35.3477 395.806 35.9357C395.554 36.5237 395.204 36.9671 394.756 37.2657C394.308 37.5644 393.786 37.7137 393.188 37.7137C392.824 37.7137 392.502 37.6671 392.222 37.5737C391.942 37.4711 391.704 37.3451 391.508 37.1957C391.312 37.0371 391.144 36.8691 391.004 36.6917H390.892C390.93 36.8597 390.958 37.0511 390.976 37.2657C390.995 37.4711 391.004 37.6671 391.004 37.8537V40.9337H389.24V29.9857H390.668L390.92 30.9937H391.004C391.144 30.7791 391.312 30.5877 391.508 30.4197C391.714 30.2424 391.956 30.1024 392.236 29.9997C392.526 29.8971 392.857 29.8457 393.23 29.8457ZM392.726 31.2737C392.316 31.2737 391.984 31.3577 391.732 31.5257C391.48 31.6844 391.298 31.9317 391.186 32.2677C391.074 32.6037 391.014 33.0237 391.004 33.5277V33.7517C391.004 34.2931 391.056 34.7504 391.158 35.1237C391.27 35.4971 391.452 35.7817 391.704 35.9777C391.966 36.1737 392.316 36.2717 392.754 36.2717C393.128 36.2717 393.431 36.1691 393.664 35.9637C393.907 35.7584 394.084 35.4691 394.196 35.0957C394.318 34.7131 394.378 34.2604 394.378 33.7377C394.378 32.9537 394.243 32.3471 393.972 31.9177C393.711 31.4884 393.296 31.2737 392.726 31.2737ZM402.26 29.8457C402.372 29.8457 402.503 29.8504 402.652 29.8597C402.801 29.8691 402.927 29.8877 403.03 29.9157L402.876 31.5537C402.792 31.5351 402.68 31.5211 402.54 31.5117C402.409 31.4931 402.293 31.4837 402.19 31.4837C401.91 31.4837 401.639 31.5304 401.378 31.6237C401.126 31.7077 400.897 31.8384 400.692 32.0157C400.496 32.1837 400.337 32.4031 400.216 32.6737C400.104 32.9444 400.048 33.2664 400.048 33.6397V37.5737H398.284V29.9857H399.642L399.894 31.3017H399.978C400.127 31.0311 400.314 30.7884 400.538 30.5737C400.762 30.3497 401.019 30.1724 401.308 30.0417C401.607 29.9111 401.924 29.8457 402.26 29.8457ZM407.495 29.8457C408.176 29.8457 408.759 29.9857 409.245 30.2657C409.739 30.5364 410.122 30.9284 410.393 31.4417C410.663 31.9457 410.799 32.5617 410.799 33.2897V34.1857H405.787C405.805 34.8764 405.997 35.4131 406.361 35.7957C406.725 36.1691 407.229 36.3557 407.873 36.3557C408.367 36.3557 408.806 36.3091 409.189 36.2157C409.581 36.1131 409.982 35.9684 410.393 35.7817V37.1957C410.019 37.3731 409.632 37.5037 409.231 37.5877C408.829 37.6717 408.349 37.7137 407.789 37.7137C407.051 37.7137 406.393 37.5737 405.815 37.2937C405.245 37.0044 404.797 36.5704 404.471 35.9917C404.153 35.4131 403.995 34.6944 403.995 33.8357C403.995 32.9677 404.139 32.2397 404.429 31.6517C404.727 31.0544 405.138 30.6064 405.661 30.3077C406.183 29.9997 406.795 29.8457 407.495 29.8457ZM407.495 31.1477C407.028 31.1477 406.645 31.3017 406.347 31.6097C406.057 31.9084 405.885 32.3564 405.829 32.9537H409.091C409.091 32.5991 409.03 32.2864 408.909 32.0157C408.797 31.7451 408.624 31.5351 408.391 31.3857C408.157 31.2271 407.859 31.1477 407.495 31.1477ZM421.552 29.8457C422.41 29.8457 423.054 30.0651 423.484 30.5037C423.922 30.9424 424.142 31.6517 424.142 32.6317V37.5737H422.378V32.9677C422.378 32.4077 422.275 31.9877 422.07 31.7077C421.864 31.4184 421.538 31.2737 421.09 31.2737C420.474 31.2737 420.035 31.4744 419.774 31.8757C419.512 32.2771 419.382 32.8604 419.382 33.6257V37.5737H417.618V32.9677C417.618 32.5944 417.571 32.2817 417.478 32.0297C417.384 31.7777 417.24 31.5911 417.044 31.4697C416.857 31.3391 416.614 31.2737 416.316 31.2737C415.896 31.2737 415.56 31.3764 415.308 31.5817C415.056 31.7777 414.878 32.0671 414.776 32.4497C414.673 32.8324 414.622 33.3037 414.622 33.8637V37.5737H412.858V29.9857H414.216L414.468 30.9797H414.566C414.724 30.7184 414.916 30.5037 415.14 30.3357C415.373 30.1677 415.63 30.0464 415.91 29.9717C416.199 29.8877 416.488 29.8457 416.778 29.8457C417.347 29.8457 417.828 29.9437 418.22 30.1397C418.612 30.3264 418.906 30.6204 419.102 31.0217H419.242C419.475 30.6111 419.802 30.3124 420.222 30.1257C420.651 29.9391 421.094 29.8457 421.552 29.8457Z" fill="#CBCBD7"/>
<rect x="466" y="0.57373" width="220" height="64" rx="8" fill="#2C0E7C"/>
<path d="M520.112 34.8437C520.112 35.4317 519.967 35.9404 519.678 36.3697C519.389 36.7991 518.969 37.1304 518.418 37.3637C517.877 37.5971 517.228 37.7137 516.472 37.7137C516.108 37.7137 515.758 37.6904 515.422 37.6437C515.095 37.6064 514.783 37.5457 514.484 37.4617C514.195 37.3777 513.924 37.2751 513.672 37.1537V35.4737C514.092 35.6604 514.554 35.8331 515.058 35.9917C515.562 36.1411 516.075 36.2157 516.598 36.2157C516.999 36.2157 517.326 36.1644 517.578 36.0617C517.839 35.9497 518.031 35.8004 518.152 35.6137C518.273 35.4177 518.334 35.1937 518.334 34.9417C518.334 34.6617 518.255 34.4237 518.096 34.2277C517.937 34.0317 517.704 33.8497 517.396 33.6817C517.088 33.5137 516.705 33.3364 516.248 33.1497C515.94 33.0191 515.637 32.8744 515.338 32.7157C515.049 32.5477 514.787 32.3471 514.554 32.1137C514.321 31.8804 514.134 31.6051 513.994 31.2877C513.854 30.9704 513.784 30.5971 513.784 30.1677C513.784 29.5984 513.919 29.1084 514.19 28.6977C514.47 28.2871 514.857 27.9744 515.352 27.7597C515.856 27.5451 516.439 27.4377 517.102 27.4377C517.634 27.4377 518.133 27.4937 518.6 27.6057C519.067 27.7177 519.529 27.8764 519.986 28.0817L519.412 29.5237C519.001 29.3464 518.605 29.2064 518.222 29.1037C517.839 29.0011 517.447 28.9497 517.046 28.9497C516.729 28.9497 516.458 29.0011 516.234 29.1037C516.01 29.1971 515.842 29.3324 515.73 29.5097C515.618 29.6871 515.562 29.8924 515.562 30.1257C515.562 30.3964 515.632 30.6251 515.772 30.8117C515.912 30.9984 516.127 31.1757 516.416 31.3437C516.715 31.5024 517.097 31.6844 517.564 31.8897C518.105 32.1231 518.563 32.3657 518.936 32.6177C519.309 32.8697 519.599 33.1731 519.804 33.5277C520.009 33.8824 520.112 34.3211 520.112 34.8437ZM525.163 29.8457C525.845 29.8457 526.428 29.9857 526.913 30.2657C527.408 30.5364 527.791 30.9284 528.061 31.4417C528.332 31.9457 528.467 32.5617 528.467 33.2897V34.1857H523.455C523.474 34.8764 523.665 35.4131 524.029 35.7957C524.393 36.1691 524.897 36.3557 525.541 36.3557C526.036 36.3557 526.475 36.3091 526.857 36.2157C527.249 36.1131 527.651 35.9684 528.061 35.7817V37.1957C527.688 37.3731 527.301 37.5037 526.899 37.5877C526.498 37.6717 526.017 37.7137 525.457 37.7137C524.72 37.7137 524.062 37.5737 523.483 37.2937C522.914 37.0044 522.466 36.5704 522.139 35.9917C521.822 35.4131 521.663 34.6944 521.663 33.8357C521.663 32.9677 521.808 32.2397 522.097 31.6517C522.396 31.0544 522.807 30.6064 523.329 30.3077C523.852 29.9997 524.463 29.8457 525.163 29.8457ZM525.163 31.1477C524.697 31.1477 524.314 31.3017 524.015 31.6097C523.726 31.9084 523.553 32.3564 523.497 32.9537H526.759C526.759 32.5991 526.699 32.2864 526.577 32.0157C526.465 31.7451 526.293 31.5351 526.059 31.3857C525.826 31.2271 525.527 31.1477 525.163 31.1477ZM532.29 37.5737H530.526V26.9337H532.29V37.5737ZM538.76 31.3157H536.926V37.5737H535.162V31.3157H533.944V30.4757L535.162 29.9717V29.4537C535.162 28.8004 535.264 28.2871 535.47 27.9137C535.675 27.5404 535.974 27.2744 536.366 27.1157C536.758 26.9477 537.22 26.8637 537.752 26.8637C538.125 26.8637 538.461 26.8964 538.76 26.9617C539.058 27.0177 539.306 27.0831 539.502 27.1577L539.054 28.4737C538.895 28.4271 538.718 28.3851 538.522 28.3477C538.335 28.3011 538.13 28.2777 537.906 28.2777C537.57 28.2777 537.322 28.3851 537.164 28.5997C537.005 28.8144 536.926 29.1131 536.926 29.4957V29.9857H538.76V31.3157ZM539.643 34.5637V33.0797H543.199V34.5637H539.643ZM546.857 29.4677C546.857 29.7664 546.843 30.0604 546.815 30.3497C546.796 30.6297 546.777 30.8397 546.759 30.9797H546.871C547.029 30.7184 547.225 30.5084 547.459 30.3497C547.692 30.1817 547.949 30.0557 548.229 29.9717C548.518 29.8877 548.817 29.8457 549.125 29.8457C549.694 29.8457 550.184 29.9437 550.595 30.1397C551.005 30.3357 551.318 30.6391 551.533 31.0497C551.757 31.4511 551.869 31.9784 551.869 32.6317V37.5737H550.105V32.9817C550.105 32.4031 549.993 31.9737 549.769 31.6937C549.545 31.4137 549.19 31.2737 548.705 31.2737C548.238 31.2737 547.869 31.3764 547.599 31.5817C547.328 31.7777 547.137 32.0717 547.025 32.4637C546.913 32.8464 546.857 33.3177 546.857 33.8777V37.5737H545.093V26.9337H546.857V29.4677ZM561.131 33.7657C561.131 34.4004 561.047 34.9604 560.879 35.4457C560.711 35.9311 560.468 36.3464 560.151 36.6917C559.843 37.0277 559.46 37.2844 559.003 37.4617C558.555 37.6297 558.056 37.7137 557.505 37.7137C556.982 37.7137 556.502 37.6297 556.063 37.4617C555.624 37.2844 555.242 37.0277 554.915 36.6917C554.598 36.3464 554.35 35.9311 554.173 35.4457C553.996 34.9604 553.907 34.4004 553.907 33.7657C553.907 32.9257 554.052 32.2164 554.341 31.6377C554.63 31.0497 555.046 30.6064 555.587 30.3077C556.138 29.9997 556.786 29.8457 557.533 29.8457C558.242 29.8457 558.863 29.9997 559.395 30.3077C559.936 30.6064 560.361 31.0497 560.669 31.6377C560.977 32.2164 561.131 32.9257 561.131 33.7657ZM555.713 33.7657C555.713 34.2977 555.774 34.7551 555.895 35.1377C556.026 35.5111 556.222 35.7957 556.483 35.9917C556.754 36.1877 557.099 36.2857 557.519 36.2857C557.948 36.2857 558.294 36.1877 558.555 35.9917C558.826 35.7957 559.022 35.5111 559.143 35.1377C559.264 34.7551 559.325 34.2977 559.325 33.7657C559.325 33.2244 559.26 32.7717 559.129 32.4077C559.008 32.0344 558.812 31.7544 558.541 31.5677C558.28 31.3717 557.939 31.2737 557.519 31.2737C556.884 31.2737 556.422 31.4884 556.133 31.9177C555.853 32.3471 555.713 32.9631 555.713 33.7657ZM568.401 35.3757C568.401 35.8797 568.279 36.3091 568.037 36.6637C567.794 37.0091 567.435 37.2704 566.959 37.4477C566.492 37.6251 565.918 37.7137 565.237 37.7137C564.705 37.7137 564.247 37.6764 563.865 37.6017C563.482 37.5271 563.118 37.4104 562.773 37.2517V35.7537C563.146 35.9311 563.561 36.0804 564.019 36.2017C564.476 36.3231 564.901 36.3837 565.293 36.3837C565.778 36.3837 566.128 36.3091 566.343 36.1597C566.557 36.0104 566.665 35.8097 566.665 35.5577C566.665 35.4084 566.623 35.2731 566.539 35.1517C566.455 35.0304 566.291 34.9044 566.049 34.7737C565.806 34.6337 565.437 34.4611 564.943 34.2557C564.457 34.0597 564.051 33.8637 563.725 33.6677C563.407 33.4717 563.165 33.2384 562.997 32.9677C562.838 32.6877 562.759 32.3377 562.759 31.9177C562.759 31.2364 563.029 30.7231 563.571 30.3777C564.112 30.0231 564.826 29.8457 565.713 29.8457C566.179 29.8457 566.618 29.8924 567.029 29.9857C567.449 30.0697 567.869 30.2097 568.289 30.4057L567.729 31.7077C567.495 31.6051 567.262 31.5164 567.029 31.4417C566.805 31.3577 566.576 31.2924 566.343 31.2457C566.119 31.1991 565.89 31.1757 565.657 31.1757C565.274 31.1757 564.985 31.2364 564.789 31.3577C564.593 31.4697 564.495 31.6284 564.495 31.8337C564.495 31.9924 564.541 32.1324 564.635 32.2537C564.737 32.3657 564.91 32.4824 565.153 32.6037C565.405 32.7157 565.759 32.8651 566.217 33.0517C566.674 33.2291 567.061 33.4157 567.379 33.6117C567.705 33.7984 567.957 34.0317 568.135 34.3117C568.312 34.5917 568.401 34.9464 568.401 35.3757ZM573.318 36.2997C573.542 36.2997 573.757 36.2811 573.962 36.2437C574.167 36.1971 574.359 36.1457 574.536 36.0897V37.4057C574.349 37.4897 574.107 37.5597 573.808 37.6157C573.509 37.6811 573.197 37.7137 572.87 37.7137C572.441 37.7137 572.049 37.6437 571.694 37.5037C571.349 37.3544 571.069 37.1024 570.854 36.7477C570.649 36.3931 570.546 35.8984 570.546 35.2637V31.3157H569.524V30.5457L570.644 29.9297L571.204 28.3197H572.31V29.9857H574.466V31.3157H572.31V35.2497C572.31 35.6044 572.403 35.8704 572.59 36.0477C572.777 36.2157 573.019 36.2997 573.318 36.2997ZM579.397 29.8457C580.079 29.8457 580.662 29.9857 581.147 30.2657C581.642 30.5364 582.025 30.9284 582.295 31.4417C582.566 31.9457 582.701 32.5617 582.701 33.2897V34.1857H577.689C577.708 34.8764 577.899 35.4131 578.263 35.7957C578.627 36.1691 579.131 36.3557 579.775 36.3557C580.27 36.3557 580.709 36.3091 581.091 36.2157C581.483 36.1131 581.885 35.9684 582.295 35.7817V37.1957C581.922 37.3731 581.535 37.5037 581.133 37.5877C580.732 37.6717 580.251 37.7137 579.691 37.7137C578.954 37.7137 578.296 37.5737 577.717 37.2937C577.148 37.0044 576.7 36.5704 576.373 35.9917C576.056 35.4131 575.897 34.6944 575.897 33.8357C575.897 32.9677 576.042 32.2397 576.331 31.6517C576.63 31.0544 577.041 30.6064 577.563 30.3077C578.086 29.9997 578.697 29.8457 579.397 29.8457ZM579.397 31.1477C578.931 31.1477 578.548 31.3017 578.249 31.6097C577.96 31.9084 577.787 32.3564 577.731 32.9537H580.993C580.993 32.5991 580.933 32.2864 580.811 32.0157C580.699 31.7451 580.527 31.5351 580.293 31.3857C580.06 31.2271 579.761 31.1477 579.397 31.1477ZM587.266 37.7137C586.389 37.7137 585.675 37.3871 585.124 36.7337C584.583 36.0711 584.312 35.0911 584.312 33.7937C584.312 32.4964 584.588 31.5164 585.138 30.8537C585.689 30.1817 586.412 29.8457 587.308 29.8457C587.682 29.8457 588.008 29.8971 588.288 29.9997C588.578 30.0931 588.825 30.2237 589.03 30.3917C589.236 30.5597 589.408 30.7464 589.548 30.9517H589.632C589.604 30.8211 589.576 30.6204 589.548 30.3497C589.52 30.0791 589.506 29.8271 589.506 29.5937V26.9337H591.27V37.5737H589.898L589.576 36.5797H589.506C589.366 36.7851 589.194 36.9764 588.988 37.1537C588.783 37.3217 588.54 37.4571 588.26 37.5597C587.98 37.6624 587.649 37.7137 587.266 37.7137ZM587.798 36.2857C588.452 36.2857 588.914 36.0991 589.184 35.7257C589.455 35.3524 589.59 34.7877 589.59 34.0317V33.8077C589.59 32.9864 589.46 32.3611 589.198 31.9317C588.946 31.5024 588.47 31.2877 587.77 31.2877C587.238 31.2877 586.828 31.5117 586.538 31.9597C586.249 32.3984 586.104 33.0191 586.104 33.8217C586.104 34.6244 586.249 35.2357 586.538 35.6557C586.828 36.0757 587.248 36.2857 587.798 36.2857ZM602.145 28.9497C601.687 28.9497 601.281 29.0337 600.927 29.2017C600.572 29.3697 600.269 29.6124 600.017 29.9297C599.774 30.2471 599.587 30.6297 599.457 31.0777C599.335 31.5257 599.275 32.0297 599.275 32.5897C599.275 33.3457 599.377 33.9944 599.583 34.5357C599.788 35.0677 600.101 35.4784 600.521 35.7677C600.95 36.0571 601.487 36.2017 602.131 36.2017C602.56 36.2017 602.971 36.1597 603.363 36.0757C603.764 35.9824 604.184 35.8611 604.623 35.7117V37.2377C604.212 37.4057 603.797 37.5271 603.377 37.6017C602.966 37.6764 602.49 37.7137 601.949 37.7137C600.922 37.7137 600.073 37.5037 599.401 37.0837C598.729 36.6544 598.229 36.0571 597.903 35.2917C597.576 34.5171 597.413 33.6117 597.413 32.5757C597.413 31.8197 597.515 31.1291 597.721 30.5037C597.935 29.8784 598.239 29.3371 598.631 28.8797C599.032 28.4224 599.527 28.0677 600.115 27.8157C600.703 27.5637 601.379 27.4377 602.145 27.4377C602.649 27.4377 603.143 27.4984 603.629 27.6197C604.123 27.7317 604.585 27.8904 605.015 28.0957L604.399 29.5657C604.044 29.4071 603.675 29.2671 603.293 29.1457C602.919 29.0151 602.537 28.9497 602.145 28.9497ZM608.651 37.5737H606.887V26.9337H608.651V37.5737ZM617.963 33.7657C617.963 34.4004 617.879 34.9604 617.711 35.4457C617.543 35.9311 617.3 36.3464 616.983 36.6917C616.675 37.0277 616.292 37.2844 615.835 37.4617C615.387 37.6297 614.887 37.7137 614.337 37.7137C613.814 37.7137 613.333 37.6297 612.895 37.4617C612.456 37.2844 612.073 37.0277 611.747 36.6917C611.429 36.3464 611.182 35.9311 611.005 35.4457C610.827 34.9604 610.739 34.4004 610.739 33.7657C610.739 32.9257 610.883 32.2164 611.173 31.6377C611.462 31.0497 611.877 30.6064 612.419 30.3077C612.969 29.9997 613.618 29.8457 614.365 29.8457C615.074 29.8457 615.695 29.9997 616.227 30.3077C616.768 30.6064 617.193 31.0497 617.501 31.6377C617.809 32.2164 617.963 32.9257 617.963 33.7657ZM612.545 33.7657C612.545 34.2977 612.605 34.7551 612.727 35.1377C612.857 35.5111 613.053 35.7957 613.315 35.9917C613.585 36.1877 613.931 36.2857 614.351 36.2857C614.78 36.2857 615.125 36.1877 615.387 35.9917C615.657 35.7957 615.853 35.5111 615.975 35.1377C616.096 34.7551 616.157 34.2977 616.157 33.7657C616.157 33.2244 616.091 32.7717 615.961 32.4077C615.839 32.0344 615.643 31.7544 615.373 31.5677C615.111 31.3717 614.771 31.2737 614.351 31.2737C613.716 31.2737 613.254 31.4884 612.965 31.9177C612.685 32.3471 612.545 32.9631 612.545 33.7657ZM626.8 29.9857V37.5737H625.414L625.176 36.5937H625.092C624.934 36.8551 624.728 37.0697 624.476 37.2377C624.224 37.3964 623.949 37.5131 623.65 37.5877C623.352 37.6717 623.044 37.7137 622.726 37.7137C622.166 37.7137 621.681 37.6157 621.27 37.4197C620.86 37.2237 620.547 36.9251 620.332 36.5237C620.118 36.1131 620.01 35.5857 620.01 34.9417V29.9857H621.774V34.5917C621.774 35.1517 621.886 35.5764 622.11 35.8657C622.334 36.1457 622.689 36.2857 623.174 36.2857C623.65 36.2857 624.024 36.1877 624.294 35.9917C624.565 35.7864 624.756 35.4924 624.868 35.1097C624.98 34.7271 625.036 34.2557 625.036 33.6957V29.9857H626.8ZM631.835 37.7137C630.958 37.7137 630.244 37.3871 629.693 36.7337C629.152 36.0711 628.881 35.0911 628.881 33.7937C628.881 32.4964 629.156 31.5164 629.707 30.8537C630.258 30.1817 630.981 29.8457 631.877 29.8457C632.25 29.8457 632.577 29.8971 632.857 29.9997C633.146 30.0931 633.394 30.2237 633.599 30.3917C633.804 30.5597 633.977 30.7464 634.117 30.9517H634.201C634.173 30.8211 634.145 30.6204 634.117 30.3497C634.089 30.0791 634.075 29.8271 634.075 29.5937V26.9337H635.839V37.5737H634.467L634.145 36.5797H634.075C633.935 36.7851 633.762 36.9764 633.557 37.1537C633.352 37.3217 633.109 37.4571 632.829 37.5597C632.549 37.6624 632.218 37.7137 631.835 37.7137ZM632.367 36.2857C633.02 36.2857 633.482 36.0991 633.753 35.7257C634.024 35.3524 634.159 34.7877 634.159 34.0317V33.8077C634.159 32.9864 634.028 32.3611 633.767 31.9317C633.515 31.5024 633.039 31.2877 632.339 31.2877C631.807 31.2877 631.396 31.5117 631.107 31.9597C630.818 32.3984 630.673 33.0191 630.673 33.8217C630.673 34.6244 630.818 35.2357 631.107 35.6557C631.396 36.0757 631.816 36.2857 632.367 36.2857Z" fill="#CBCBD7"/>
</svg>
