<svg width="81" height="83" viewBox="0 0 81 83" fill="none" xmlns="http://www.w3.org/2000/svg">
<path d="M18.6146 3.54666C26.9566 3.54666 33.782 10.5691 33.782 19.152C33.782 27.7349 26.9566 34.7573 18.6146 34.7573C10.2725 34.7573 3.44714 27.7349 3.44714 19.152C3.44714 10.5691 10.2725 3.54666 18.6146 3.54666ZM18.6146 0C8.34208 0 0 8.58292 0 19.152C0 29.721 8.34208 38.304 18.6146 38.304C28.887 38.304 37.2291 29.721 37.2291 19.152C37.2291 8.58292 28.887 0 18.6146 0Z" fill="#6D7CFF"/>
<path d="M62.0487 48.2346C70.3908 48.2346 77.2161 55.257 77.2161 63.84C77.2161 72.4229 70.3908 79.4453 62.0487 79.4453C53.7066 79.4453 46.8812 72.4229 46.8812 63.84C46.8812 55.257 53.7066 48.2346 62.0487 48.2346ZM62.0487 44.688C51.7762 44.688 43.4341 53.2709 43.4341 63.84C43.4341 74.409 51.7762 82.9919 62.0487 82.9919C72.3212 82.9919 80.6633 74.409 80.6633 63.84C80.6633 53.2709 72.3212 44.688 62.0487 44.688Z" fill="#6D7CFF"/>
<path d="M43.4341 0L80.6633 38.304H43.4341V0Z" fill="#6D7CFF"/>
<path d="M37.2291 44.688H0V82.9919H37.2291V44.688Z" fill="#6D7CFF"/>
</svg>
