<svg width="20" height="20" viewBox="0 0 20 20" fill="none" xmlns="http://www.w3.org/2000/svg">
<path d="M16.25 8.75C16.5815 8.75 16.8995 8.6183 17.1339 8.38388C17.3683 8.14946 17.5 7.83152 17.5 7.5V3.75C17.5 3.41848 17.3683 3.10054 17.1339 2.86612C16.8995 2.6317 16.5815 2.5 16.25 2.5H12.5C12.1685 2.5 11.8505 2.6317 11.6161 2.86612C11.3817 3.10054 11.25 3.41848 11.25 3.75V7.5C11.25 7.83152 11.3817 8.14946 11.6161 8.38388C11.8505 8.6183 12.1685 8.75 12.5 8.75H13.75V11.3125C13.1494 11.435 12.5982 11.7314 12.1648 12.1648C11.7314 12.5982 11.435 13.1494 11.3125 13.75H8.75001V12.5C8.75001 12.1685 8.61831 11.8505 8.38389 11.6161C8.14947 11.3817 7.83153 11.25 7.50001 11.25H6.25001V8.6875C7.00878 8.53262 7.68302 8.10151 8.14201 7.47776C8.60099 6.85401 8.81202 6.08205 8.73418 5.31155C8.65635 4.54105 8.29519 3.82689 7.72073 3.30754C7.14627 2.78819 6.39943 2.50064 5.62501 2.50064C4.85058 2.50064 4.10375 2.78819 3.52929 3.30754C2.95483 3.82689 2.59367 4.54105 2.51583 5.31155C2.438 6.08205 2.64903 6.85401 3.10801 7.47776C3.56699 8.10151 4.24123 8.53262 5.00001 8.6875V11.25H3.75001C3.41849 11.25 3.10054 11.3817 2.86612 11.6161C2.6317 11.8505 2.50001 12.1685 2.50001 12.5V16.25C2.50001 16.5815 2.6317 16.8995 2.86612 17.1339C3.10054 17.3683 3.41849 17.5 3.75001 17.5H7.50001C7.83153 17.5 8.14947 17.3683 8.38389 17.1339C8.61831 16.8995 8.75001 16.5815 8.75001 16.25V15H11.3125C11.4256 15.5531 11.6863 16.0652 12.067 16.482C12.4478 16.8987 12.9343 17.2046 13.4749 17.367C14.0156 17.5295 14.5901 17.5424 15.1375 17.4045C15.6849 17.2667 16.1848 16.9831 16.5839 16.5839C16.9831 16.1847 17.2667 15.6849 17.4046 15.1375C17.5424 14.5901 17.5295 14.0156 17.367 13.4749C17.2046 12.9343 16.8987 12.4478 16.482 12.067C16.0652 11.6863 15.5531 11.4255 15 11.3125V8.75H16.25ZM3.75001 5.625C3.75001 5.25416 3.85997 4.89165 4.066 4.58331C4.27203 4.27496 4.56486 4.03464 4.90748 3.89273C5.25009 3.75081 5.62709 3.71368 5.9908 3.78603C6.35452 3.85838 6.68861 4.03695 6.95083 4.29917C7.21306 4.5614 7.39163 4.89549 7.46398 5.25921C7.53633 5.62292 7.4992 5.99992 7.35728 6.34253C7.21537 6.68514 6.97504 6.97798 6.6667 7.18401C6.35836 7.39003 5.99585 7.5 5.62501 7.5C5.12773 7.5 4.65081 7.30246 4.29918 6.95083C3.94755 6.59919 3.75001 6.12228 3.75001 5.625ZM7.50001 16.25H3.75001V12.5H7.50001V16.25ZM16.25 14.375C16.25 14.7458 16.14 15.1084 15.934 15.4167C15.728 15.725 15.4352 15.9654 15.0925 16.1073C14.7499 16.2492 14.3729 16.2863 14.0092 16.214C13.6455 16.1416 13.3114 15.963 13.0492 15.7008C12.787 15.4386 12.6084 15.1045 12.536 14.7408C12.4637 14.3771 12.5008 14.0001 12.6427 13.6575C12.7846 13.3149 13.025 13.022 13.3333 12.816C13.6417 12.61 14.0042 12.5 14.375 12.5C14.8723 12.5 15.3492 12.6975 15.7008 13.0492C16.0525 13.4008 16.25 13.8777 16.25 14.375ZM12.5 3.75H16.25V7.5H12.5V3.75Z" fill="#AEB6FF"/>
</svg>
