<svg width="16" height="16" viewBox="0 0 16 16" fill="none" xmlns="http://www.w3.org/2000/svg">
<path fill-rule="evenodd" clip-rule="evenodd" d="M3 2.00488H13C13.2652 2.00488 13.5196 2.11024 13.7071 2.29778C13.8946 2.48531 14 2.73967 14 3.00488V13.0049C14 13.2701 13.8946 13.5245 13.7071 13.712C13.5196 13.8995 13.2652 14.0049 13 14.0049H3C2.73478 14.0049 2.48043 13.8995 2.29289 13.712C2.10536 13.5245 2 13.2701 2 13.0049V3.00488C2 2.73967 2.10536 2.48531 2.29289 2.29778C2.48043 2.11024 2.73478 2.00488 3 2.00488ZM13 5.00488V3.00488H3V5.00488H13ZM3 6.00488V13.0049H13V6.00488H3ZM6.79 9.50501L5.38 8.09001L6.085 7.38501L8.205 9.50501L6.085 11.625L5.38 10.92L6.79 9.50501Z" fill="#CBCBD7"/>
</svg>
