<svg width="4097" height="965" viewBox="0 0 4097 965" fill="none" xmlns="http://www.w3.org/2000/svg">
<g clip-path="url(#clip0_1344_4208)">
<rect width="4097" height="965" fill="white"/>
<rect width="4097" height="965" fill="#5552FF"/>
<path d="M324 553.91L1372.83 1295.03H324V553.91Z" fill="#4541F4"/>
<path d="M2937 281.09L3985.83 -460.03L3985.83 281.09L2937 281.09Z" fill="#4541F4"/>
<path d="M3699.32 1077.91C3699.32 1362.34 3468.75 1592.91 3184.32 1592.91C2899.89 1592.91 2669.32 1362.34 2669.32 1077.91C2669.32 793.484 2899.89 562.91 3184.32 562.91C3468.75 562.91 3699.32 793.484 3699.32 1077.91Z" stroke="#4541F4" stroke-width="18"/>
<path d="M1039 -170C1039 114.427 808.427 345 524 345C239.573 345 9 114.427 9 -170C9 -454.427 239.573 -685 524 -685C808.427 -685 1039 -454.427 1039 -170Z" stroke="#4541F4" stroke-width="18"/>
<g clip-path="url(#clip1_1344_4208)">
<path d="M1170.97 270.985C1199.98 270.985 1223.72 294.715 1223.72 323.719C1223.72 352.723 1199.98 376.453 1170.97 376.453C1141.96 376.453 1118.22 352.723 1118.22 323.719C1118.22 294.715 1141.96 270.985 1170.97 270.985ZM1170.97 259C1135.25 259 1106.23 288.004 1106.23 323.719C1106.23 359.434 1135.25 388.438 1170.97 388.438C1206.7 388.438 1235.71 359.434 1235.71 323.719C1235.71 288.004 1206.7 259 1170.97 259Z" fill="#AEB6FF"/>
<path d="M1322.03 421.996C1351.04 421.996 1374.78 445.727 1374.78 474.731C1374.78 503.734 1351.04 527.465 1322.03 527.465C1293.01 527.465 1269.28 503.734 1269.28 474.731C1269.28 445.727 1293.01 421.996 1322.03 421.996ZM1322.03 410.011C1286.3 410.011 1257.29 439.015 1257.29 474.731C1257.29 510.446 1286.3 539.45 1322.03 539.45C1357.75 539.45 1386.77 510.446 1386.77 474.731C1386.77 439.015 1357.75 410.011 1322.03 410.011Z" fill="#AEB6FF"/>
<path d="M1257.29 259L1386.77 388.438H1257.29V259Z" fill="#AEB6FF"/>
<path d="M1235.71 410.011H1106.23V539.45H1235.71V410.011Z" fill="#AEB6FF"/>
<path d="M1621.74 672.483C1627.98 672.483 1633.01 677.516 1633.01 683.748C1633.01 689.981 1627.98 695.014 1621.74 695.014C1615.51 695.014 1610.47 689.981 1610.47 683.748C1610.47 677.516 1615.51 672.483 1621.74 672.483ZM1621.74 660.498C1608.79 660.498 1598.48 670.805 1598.48 683.748C1598.48 696.692 1608.79 706.999 1621.74 706.999C1634.69 706.999 1645 696.692 1645 683.748C1645 670.805 1634.45 660.498 1621.74 660.498Z" fill="#AEB6FF"/>
<path d="M847.999 640.603C847.999 603.449 874.854 574.685 913.697 574.685C944.148 574.685 965.487 591.225 971.961 613.756L947.265 623.344C941.75 608.004 931.44 597.457 913.217 597.457C890.439 597.457 876.532 613.277 876.532 640.603C876.532 667.929 890.199 683.989 913.217 683.989C931.2 683.989 942.469 673.202 947.984 657.861L972.201 667.689C963.09 692.138 943.908 707 913.457 707C873.895 707 847.999 679.195 847.999 640.603Z" fill="white"/>
<path d="M982.031 659.06C982.031 630.056 1001.93 611.12 1029.51 611.12C1057.08 611.12 1076.98 630.056 1076.98 659.06C1076.98 688.543 1057.08 707 1029.51 707C1001.93 707 982.031 686.865 982.031 659.06ZM1050.37 659.3C1050.37 640.603 1041.97 631.255 1029.51 631.255C1017.28 631.255 1008.65 640.603 1008.65 659.3C1008.65 677.996 1017.04 686.625 1029.51 686.625C1041.97 686.625 1050.37 677.996 1050.37 659.3Z" fill="white"/>
<path d="M1109.59 704.123L1074.82 613.756H1101.68L1114.15 650.67C1118.94 665.292 1119.66 672.243 1120.14 688.303H1129.73C1130.21 672.243 1130.45 664.333 1135.01 650.67L1146.99 613.756H1173.13L1140.28 704.123H1109.59Z" fill="white"/>
<path d="M1176.01 680.872C1176.01 655.704 1202.86 648.273 1232.83 645.397V642.041C1232.83 634.371 1228.28 629.577 1217.97 629.577C1206.22 629.577 1200.22 635.329 1198.06 643.959L1175.05 638.925C1176.49 624.783 1191.59 611.359 1217.97 611.359C1243.38 611.359 1258.25 622.625 1258.25 646.356V679.434C1258.25 683.989 1258.73 684.947 1263.76 684.947H1271.67V704.363H1261.12C1245.3 704.363 1241.7 698.85 1241.46 685.666H1233.07C1229.48 697.412 1221.08 707.24 1205.5 707.24C1188.23 707 1176.01 696.932 1176.01 680.872ZM1232.83 666.97V661.217C1216.29 663.135 1202.14 666.49 1202.14 678.475C1202.14 684.468 1206.22 688.303 1213.89 688.303C1223.72 688.303 1232.83 681.592 1232.83 666.97Z" fill="white"/>
<path d="M1282.94 704.123V574.685H1308.6V704.123H1282.94Z" fill="white"/>
<path d="M1319.87 658.82C1319.87 630.536 1339.29 611.12 1365.67 611.12C1396.12 611.12 1411.94 634.85 1409.3 665.052H1345.52C1346.24 680.873 1354.64 687.345 1365.67 687.345C1377.17 687.345 1382.93 680.154 1386.53 671.524L1409.54 680.393C1404.51 691.899 1393 706.76 1365.67 706.76C1337.85 707 1319.87 688.303 1319.87 658.82ZM1383.89 647.075C1382.69 635.809 1376.22 629.577 1365.43 629.577C1355.12 629.577 1348.16 635.809 1346.24 647.075H1383.89Z" fill="white"/>
<path d="M1420.33 704.124V613.757H1443.35C1443.11 619.749 1439.28 627.42 1434.48 634.611H1445.75C1449.83 621.667 1458.94 611.12 1473.32 611.12C1493.22 611.12 1504.01 624.303 1504.01 644.438V704.124H1478.6V649.232C1478.6 637.247 1473.08 632.214 1464.21 632.214C1446.23 632.214 1446.23 651.629 1446.23 661.217V704.124H1420.33Z" fill="white"/>
<path d="M1557.24 704.123C1542.62 704.123 1534.22 694.535 1534.22 680.393V633.172H1515.28V613.756H1534.22V585.472H1559.88V613.756H1583.38V633.172H1559.88V675.599C1559.88 681.112 1562.28 683.509 1567.79 683.509H1587.21V703.884H1557.24V704.123Z" fill="white"/>
</g>
<g clip-path="url(#clip2_1344_4208)">
<path d="M1962 564.685C1916.26 564.685 1879.27 527.52 1880 482.056C1880.73 437.675 1918.45 402.314 1963.28 402.314H2043.45C2043.64 402.314 2044 402.495 2044 402.855V434.788V564.144C2044 564.325 2043.82 564.685 2043.45 564.685H1962Z" stroke="white" stroke-width="12" stroke-miterlimit="10"/>
<path d="M2126 434.788H2044" stroke="white" stroke-width="12" stroke-miterlimit="10"/>
<path d="M2126 532.211H2044" stroke="white" stroke-width="12" stroke-miterlimit="10"/>
<path d="M1880 483.5H1798" stroke="white" stroke-width="12" stroke-miterlimit="10"/>
</g>
<g clip-path="url(#clip3_1344_4208)">
<path d="M2532.85 585.135C2574.18 577.839 2608.32 571.801 2608.72 571.718L2609.43 571.567L2570.4 525.186C2548.94 499.676 2531.38 478.706 2531.38 478.585C2531.38 478.356 2571.68 367.479 2571.9 367.084C2571.98 366.952 2599.4 414.259 2638.38 481.758C2674.87 544.953 2704.95 597.056 2705.23 597.545L2705.74 598.432L2581.72 598.416L2457.69 598.401L2532.85 585.135ZM3008.46 573.918C2989.58 572.708 2978.6 561.967 2975.69 541.862C2974.92 536.513 2974.92 536.375 2974.84 501.653L2974.76 468.049H2983.12H2991.47L2991.54 500.553C2991.6 529.848 2991.63 533.283 2991.91 535.344C2993.05 543.707 2995.32 549.332 2999.17 553.369C3002.26 556.6 3005.87 558.492 3010.87 559.496C3013.23 559.969 3019.94 559.97 3022.09 559.497C3027.16 558.383 3031.22 556.178 3034.81 552.598C3038.89 548.518 3041.92 542.728 3043.38 536.181L3043.87 533.974L3043.93 501.195L3043.98 468.416H3052.51H3061.04V519.946V571.476H3052.6H3044.16V563.3C3044.16 557.745 3044.1 555.145 3043.97 555.188C3043.86 555.222 3043.43 555.885 3043 556.66C3040.09 561.962 3035.25 566.81 3029.94 569.731C3023.57 573.232 3017.18 574.477 3008.46 573.918ZM3200.08 573.835C3193.42 573.334 3186.4 571.045 3180.67 567.5C3168.58 560.028 3161.42 547.713 3159.33 530.765C3158.61 524.9 3158.52 517.022 3159.12 512.039C3160.47 500.904 3164.85 489.973 3171.09 482.169C3172.69 480.168 3176.31 476.545 3178.32 474.948C3183.72 470.635 3190.05 467.618 3196.76 466.151C3200.67 465.296 3207.56 464.894 3211.72 465.279C3222.16 466.246 3231.73 471.158 3238.23 478.889C3244.84 486.744 3248.47 497.72 3248.94 511.235C3249.01 513.353 3249.03 517.066 3248.98 519.487L3248.88 523.888L3212.32 523.934L3175.75 523.981V525.611C3175.75 530.575 3176.96 536.228 3179.04 541.039C3180.84 545.187 3183.94 549.716 3186.48 551.908C3191.68 556.402 3198.05 559.093 3205.02 559.74C3207.6 559.98 3214.19 559.727 3217.13 559.275C3225.53 557.985 3233.52 554.693 3239.97 549.861C3240.73 549.293 3241.46 548.762 3241.58 548.681C3241.77 548.563 3241.82 550.048 3241.81 556.291L3241.81 564.048L3240.08 565.116C3232.78 569.625 3224.42 572.52 3215.57 573.604C3212.93 573.928 3203.24 574.072 3200.08 573.835ZM3231.91 508.412C3231.91 500.097 3228.4 490.861 3223.44 486.105C3219.9 482.711 3215.62 480.636 3210.53 479.849C3208.12 479.476 3203.04 479.619 3200.51 480.132C3195.14 481.215 3190.7 483.573 3186.83 487.395C3182.75 491.418 3179.7 496.305 3177.78 501.872C3177.09 503.874 3176.28 507.16 3176.03 508.988L3175.91 509.859H3203.91H3231.91V508.412ZM2735.87 571.246C2735.91 571.12 2748.33 538.524 2763.46 498.811L2790.98 426.606L2799.82 426.605L2808.66 426.605L2809.4 428.484C2811.64 434.228 2864.48 571.319 2864.48 571.39C2864.48 571.437 2860.25 571.475 2855.08 571.474L2845.67 571.472L2838.06 551.21L2830.44 530.949L2799.77 530.948L2769.1 530.948L2768.84 531.635C2768.69 532.014 2765.44 541.131 2761.61 551.896L2754.64 571.468L2745.22 571.472C2737.76 571.474 2735.81 571.428 2735.87 571.246ZM2824.84 515.486C2824.84 515.454 2819.72 501.57 2813.45 484.632C2801.73 452.945 2801.08 451.038 2800.15 445.951C2799.72 443.566 2799.5 443.499 2799.24 445.676C2799.05 447.232 2798.25 450.714 2797.64 452.645C2797.33 453.603 2792.06 468.077 2785.91 484.809C2779.77 501.541 2774.74 515.301 2774.74 515.387C2774.74 515.474 2786.01 515.544 2799.79 515.544C2813.57 515.544 2824.84 515.518 2824.84 515.486ZM2870.17 568.837V566.198L2900.73 524.229L2931.28 482.261L2903.62 482.169L2875.95 482.077L2875.91 475.063L2875.86 468.049H2915.87H2955.88V470.418V472.787L2925.32 514.984C2908.52 538.193 2894.77 557.221 2894.77 557.268C2894.77 557.316 2908.35 557.355 2924.96 557.355H2955.15V564.415V571.475H2912.66H2870.17V568.837ZM3094.38 571.353C3094.32 571.286 3094.26 548.015 3094.26 519.64V468.049H3102.61H3110.96V478.685C3110.96 484.535 3111.03 489.321 3111.12 489.321C3111.21 489.321 3111.61 488.363 3112.02 487.193C3113.9 481.83 3117.16 476.819 3121.35 472.836C3125.13 469.248 3129.45 467.103 3134.55 466.282C3135.98 466.051 3137.19 466.007 3140.05 466.081C3143.65 466.175 3145.53 466.438 3147.71 467.152L3148.4 467.377V476.037V484.698L3146.43 483.711C3142.94 481.968 3139.51 481.279 3135.37 481.493C3132.68 481.633 3130.92 481.978 3128.76 482.785C3124.34 484.444 3120.75 487.374 3118.24 491.372C3114.61 497.16 3112.02 504.6 3111.26 511.439C3111.12 512.666 3111.04 522.661 3111.01 542.364L3110.96 571.475H3102.73C3098.21 571.475 3094.45 571.42 3094.38 571.353ZM2384.01 570.991C2384.01 570.926 2402.39 539.031 2424.87 500.114L2465.73 429.355L2513.35 389.424C2539.54 367.462 2561.04 349.466 2561.13 349.433C2561.22 349.4 2560.87 350.267 2560.36 351.359C2559.86 352.451 2536.59 402.32 2508.65 462.18L2457.87 571.017L2420.94 571.063C2400.62 571.089 2384.01 571.056 2384.01 570.991Z" fill="white"/>
</g>
</g>
<defs>
<clipPath id="clip0_1344_4208">
<rect width="4097" height="965" fill="white"/>
</clipPath>
<clipPath id="clip1_1344_4208">
<rect width="797" height="448" fill="white" transform="translate(848 259)"/>
</clipPath>
<clipPath id="clip2_1344_4208">
<rect width="328" height="175" fill="white" transform="translate(1798 396)"/>
</clipPath>
<clipPath id="clip3_1344_4208">
<rect width="865" height="249" fill="white" transform="translate(2384 359)"/>
</clipPath>
</defs>
</svg>
