<svg width="16" height="16" viewBox="0 0 16 16" fill="none" xmlns="http://www.w3.org/2000/svg">
<path fill-rule="evenodd" clip-rule="evenodd" d="M9 14V13H8V14H2V1H1V14C1 14.2652 1.10536 14.5196 1.29289 14.7071C1.48043 14.8946 1.73478 15 2 15H15V14H9ZM8 11V12H9V11H8ZM12.4401 10.6522C12.7119 10.4455 12.9161 10.1625 13.0266 9.83935L13.9743 10.1582C13.9492 10.2334 13.3391 12 11.5 12C10.3489 12 9.64233 11.1443 9.10093 10H7.99998V9H8.68433C8.54893 8.6377 8.42089 8.26415 8.29368 7.89305C7.63819 5.979 6.95998 4 5.49998 4C5.15905 4.02004 4.83179 4.14112 4.55992 4.34783C4.28805 4.55453 4.08386 4.83749 3.97338 5.16065L3.02563 4.8418C3.05078 4.7666 3.66088 3 5.49998 3C6.79053 3 7.60618 3.8574 8.21103 5H8.99998V6H8.67089C8.87804 6.51415 9.06213 7.04955 9.23998 7.56885C9.84423 9.3335 10.415 11 11.5 11C11.8409 10.98 12.1682 10.8589 12.4401 10.6522ZM8 3V4H9V3H8ZM8 2V1H9V2H8Z" fill="#CBCBD7"/>
</svg>
