<svg width="16" height="16" viewBox="0 0 16 16" fill="none" xmlns="http://www.w3.org/2000/svg">
<path d="M14 5H11V2C10.9997 1.73489 10.8942 1.48072 10.7067 1.29326C10.5193 1.10579 10.2651 1.00033 10 1H2C1.73489 1.00033 1.48072 1.10579 1.29326 1.29326C1.10579 1.48072 1.00033 1.73489 1 2V10C1.00033 10.2651 1.10579 10.5193 1.29326 10.7067C1.48072 10.8942 1.73489 10.9997 2 11H5V14C5.00033 14.2651 5.10579 14.5193 5.29326 14.7067C5.48072 14.8942 5.73489 14.9997 6 15H14C14.2651 14.9997 14.5193 14.8942 14.7067 14.7067C14.8942 14.5193 14.9997 14.2651 15 14V6C14.9997 5.73489 14.8942 5.48072 14.7067 5.29326C14.5193 5.10579 14.2651 5.00033 14 5ZM2 10V2H10V5H6C5.73489 5.00033 5.48072 5.10579 5.29326 5.29326C5.10579 5.48072 5.00033 5.73489 5 6V10H2ZM6 14V11H10C10.2651 10.9997 10.5193 10.8942 10.7067 10.7067C10.8942 10.5193 10.9997 10.2651 11 10V6H14V14H6Z" fill="#CBCBD7"/>
</svg>
