<svg width="16" height="16" viewBox="0 0 16 16" fill="none" xmlns="http://www.w3.org/2000/svg">
<path fill-rule="evenodd" clip-rule="evenodd" d="M2 5H8C8.26512 4.9997 8.5193 4.89424 8.70677 4.70677C8.89424 4.5193 8.9997 4.26512 9 4V2C8.9997 1.73488 8.89424 1.4807 8.70677 1.29323C8.5193 1.10576 8.26512 1.0003 8 1H2C1.73488 1.0003 1.4807 1.10576 1.29323 1.29323C1.10576 1.4807 1.0003 1.73488 1 2V4C1.0003 4.26512 1.10576 4.5193 1.29323 4.70677C1.4807 4.89424 1.73488 4.9997 2 5ZM2 4V2H8V4H2ZM14 10H6C5.73488 9.9997 5.4807 9.89424 5.29323 9.70677C5.10576 9.5193 5.0003 9.26512 5 9V7C5.0003 6.73488 5.10576 6.4807 5.29323 6.29323C5.4807 6.10576 5.73488 6.0003 6 6H14C14.2651 6.0003 14.5193 6.10576 14.7068 6.29323C14.8942 6.4807 14.9997 6.73488 15 7V9C14.9997 9.26512 14.8942 9.5193 14.7068 9.70677C14.5193 9.89424 14.2651 9.9997 14 10ZM6 7V9H14V7H6ZM6 15H2C1.73488 14.9997 1.4807 14.8942 1.29323 14.7068C1.10576 14.5193 1.0003 14.2651 1 14V12C1.0003 11.7349 1.10576 11.4807 1.29323 11.2932C1.4807 11.1058 1.73488 11.0003 2 11H6C6.26512 11.0003 6.5193 11.1058 6.70677 11.2932C6.89424 11.4807 6.9997 11.7349 7 12V14C6.9997 14.2651 6.89424 14.5193 6.70677 14.7068C6.5193 14.8942 6.26512 14.9997 6 15ZM2 12V14H6V12H2Z" fill="#CBCBD7"/>
</svg>
