<svg width="16" height="16" viewBox="0 0 16 16" fill="none" xmlns="http://www.w3.org/2000/svg">
<path fill-rule="evenodd" clip-rule="evenodd" d="M7.5 9.57339e-06V1.00001H4.95665L4.63845 4.50001H7V5.50001H4.5476L4.0393 11.0906C4.01774 11.3395 3.90334 11.5712 3.71883 11.7397C3.53433 11.9082 3.2932 12.0011 3.04335 12H0.5V11H3.04335L3.54335 5.50001H1.5V4.50001H3.6343L3.9607 0.90941C3.98226 0.660487 4.09666 0.42878 4.28117 0.260305C4.46567 0.0918309 4.7068 -0.00108567 4.95665 9.57339e-06H7.5ZM10 7H11L9.549 9.5L11 12H10L9 10.1005L8 12H7L8.4525 9.5L7 7H8L9 8.9485L10 7Z" fill="#CBCBD7"/>
</svg>
