<svg width="16" height="16" viewBox="0 0 16 16" fill="none" xmlns="http://www.w3.org/2000/svg">
<path fill-rule="evenodd" clip-rule="evenodd" d="M2 1V3.5C1.99904 3.78495 1.93683 4.06637 1.81758 4.32518C1.69833 4.58398 1.52484 4.81412 1.30885 5C1.52484 5.18588 1.69833 5.41602 1.81758 5.67482C1.93683 5.93363 1.99904 6.21505 2 6.5V9H3.5V10H2C1.73488 9.9997 1.4807 9.89424 1.29323 9.70677C1.10576 9.5193 1.0003 9.26512 1 9V6.5C0.999696 6.23488 0.894241 5.9807 0.706771 5.79323C0.5193 5.60576 0.265123 5.5003 0 5.5V4.5C0.265123 4.4997 0.5193 4.39424 0.706771 4.20677C0.894241 4.0193 0.999696 3.76512 1 3.5V1C1.0003 0.734877 1.10576 0.4807 1.29323 0.293229C1.4807 0.105759 1.73488 0.000304367 2 0H3.5V1H2ZM13 3.5V1C12.9997 0.734877 12.8942 0.4807 12.7068 0.293229C12.5193 0.105759 12.2651 0.000304367 12 0H10.5V1H12V3.5C12.001 3.78495 12.0632 4.06637 12.1824 4.32518C12.3017 4.58398 12.4752 4.81412 12.6911 5C12.4752 5.18588 12.3017 5.41602 12.1824 5.67482C12.0632 5.93363 12.001 6.21505 12 6.5V9H10.5V10H12C12.2651 9.9997 12.5193 9.89424 12.7068 9.70677C12.8942 9.5193 12.9997 9.26512 13 9V6.5C13.0003 6.23488 13.1058 5.9807 13.2932 5.79323C13.4807 5.60576 13.7349 5.5003 14 5.5V4.5C13.7349 4.4997 13.4807 4.39424 13.2932 4.20677C13.1058 4.0193 13.0003 3.76512 13 3.5ZM7.5 1.5L7.0715 3H8.0715L8.5 1.5H9.5L9.0715 3H10V4H8.786L8.2145 6H9.5V7H7.9285L7.5 8.5H6.5L6.9285 7H5.9285L5.5 8.5H4.5L4.9285 7H4V6H5.2145L5.786 4H4.5V3H6.0715L6.5 1.5H7.5ZM7.786 4H6.786L6.2145 6H7.2145L7.786 4Z" fill="#CBCBD7"/>
</svg>
