<svg viewBox="0 0 12 12" xmlns="http://www.w3.org/2000/svg">
  <g clip-path="url(#clip0_183_339)">
    <path
      d="M6.00001 6.58071C6.42758 6.58071 6.77419 6.23409 6.77419 5.80653C6.77419 5.37896 6.42758 5.03235 6.00001 5.03235C5.57244 5.03235 5.22583 5.37896 5.22583 5.80653C5.22583 6.23409 5.57244 6.58071 6.00001 6.58071Z" />
    <path
      d="M9.99561 6.0001C10.1865 5.79339 10.3604 5.58577 10.5152 5.37896C11.2734 4.36552 11.4887 3.47603 11.1215 2.87437C10.7542 2.2727 9.86469 2.0575 8.61677 2.26848C8.42413 2.30105 8.22596 2.34328 8.02355 2.39439C7.96176 2.19497 7.89457 2.00383 7.822 1.82243C7.35194 0.647304 6.70486 0.00012207 5.99996 0.00012207C5.29509 0.00012207 4.648 0.647304 4.17795 1.82246C4.10538 2.00388 4.03819 2.195 3.97639 2.39442C3.77398 2.34328 3.57582 2.30105 3.38317 2.2685C2.13526 2.05754 1.2457 2.27272 0.878481 2.87439C0.511265 3.47606 0.726616 4.36555 1.48481 5.37899C1.63952 5.58579 1.81348 5.79341 2.00436 6.00012C1.81348 6.20683 1.63952 6.41445 1.48481 6.62126C0.726616 7.6347 0.511265 8.52416 0.878481 9.12585C1.15373 9.57686 1.72238 9.8107 2.51556 9.8107C2.78055 9.81067 3.07065 9.78458 3.3832 9.73174C3.57584 9.69917 3.77401 9.65696 3.97642 9.60583C4.03821 9.80525 4.1054 9.99639 4.17797 10.1778C4.64803 11.3529 5.29509 12.0001 5.99998 12.0001C6.70488 12.0001 7.35194 11.3529 7.822 10.1778C7.89457 9.99637 7.96176 9.80522 8.02355 9.60583C8.22596 9.65696 8.42413 9.69919 8.61677 9.73174C8.92936 9.7846 9.21935 9.8107 9.48441 9.8107C10.2775 9.81067 10.8463 9.57683 11.1215 9.12585C11.4887 8.52416 11.2734 7.6347 10.5152 6.62126C10.3604 6.41442 10.1865 6.20681 9.99561 6.0001ZM8.68126 2.65018C9.74687 2.47008 10.5159 2.62523 10.791 3.07607C11.0662 3.52685 10.8526 4.28171 10.2052 5.14709C10.0624 5.33789 9.9022 5.5296 9.72677 5.72072C9.35118 5.3458 8.9218 4.97674 8.45148 4.62428C8.38841 3.96349 8.27992 3.33647 8.1299 2.76659C8.3181 2.71938 8.50222 2.68045 8.68126 2.65018ZM7.1091 7.8174C6.74095 8.0421 6.36936 8.24673 5.99996 8.42906C5.63056 8.2467 5.259 8.04208 4.89085 7.8174C4.55165 7.61037 4.22643 7.39293 3.91841 7.1683C3.88711 6.78837 3.87093 6.39749 3.87093 6.0001C3.87093 5.60271 3.88711 5.21183 3.91841 4.83189C4.22643 4.60724 4.55165 4.3898 4.89085 4.1828C5.259 3.95812 5.63056 3.75349 5.99996 3.57114C6.36936 3.75349 6.74092 3.95812 7.1091 4.1828C7.44828 4.3898 7.77351 4.60724 8.08154 4.83189C8.11284 5.21185 8.12902 5.60273 8.12902 6.00012C8.12902 6.39751 8.11284 6.78839 8.08156 7.16832C7.77351 7.39296 7.4483 7.61039 7.1091 7.8174ZM8.02942 7.68021C7.96677 8.1934 7.87522 8.68101 7.75694 9.13076C7.33255 9.00374 6.89146 8.83806 6.44372 8.63775C6.73336 8.48687 7.02322 8.3233 7.31075 8.14781C7.55774 7.9971 7.79769 7.84082 8.02942 7.68021ZM5.5562 8.63775C5.10846 8.83806 4.66737 9.00374 4.24298 9.13076C4.1247 8.68101 4.03315 8.1934 3.9705 7.68019C4.20225 7.84079 4.4422 7.99708 4.68917 8.14781H4.68915C4.97672 8.32332 5.26656 8.4869 5.5562 8.63775ZM3.5086 6.85716C3.15614 6.57825 2.83154 6.29077 2.54097 6.00012C2.83154 5.70948 3.15614 5.422 3.5086 5.14306C3.49225 5.42455 3.48385 5.71078 3.48385 6.00012C3.48385 6.28944 3.49225 6.57567 3.5086 6.85716ZM3.97053 4.32001C4.03318 3.80682 4.12472 3.31918 4.24301 2.86946C4.6674 2.99648 5.10848 3.16216 5.55622 3.36247C5.26658 3.51332 4.97675 3.67692 4.68922 3.85241H4.6892C4.4422 4.00312 4.20225 4.1594 3.97053 4.32001ZM6.44375 3.36244C6.89146 3.16214 7.33257 2.99645 7.75694 2.86943C7.87522 3.31918 7.96677 3.80679 8.02942 4.31998C7.79767 4.15938 7.55774 4.00312 7.31077 3.85238C7.02324 3.6769 6.73339 3.51332 6.44375 3.36244ZM8.49132 5.14304C8.84378 5.42195 9.1684 5.70945 9.45898 6.0001C9.1684 6.29074 8.84378 6.57825 8.49132 6.85716C8.50767 6.57567 8.51607 6.28944 8.51607 6.0001C8.51609 5.71075 8.5077 5.42453 8.49132 5.14304ZM4.53736 1.96622C4.93875 0.962745 5.47184 0.387224 5.99996 0.387224C6.52808 0.387224 7.06117 0.962745 7.46256 1.96622C7.53 2.13483 7.59268 2.31227 7.65044 2.4975C7.11828 2.65661 6.56198 2.8737 5.99996 3.1413C5.43794 2.8737 4.88164 2.65661 4.34948 2.4975C4.40724 2.31227 4.46992 2.13483 4.53736 1.96622ZM1.79475 5.14709C1.1473 4.28171 0.933767 3.52685 1.2089 3.07604C1.40893 2.7483 1.86988 2.5768 2.51622 2.5768C2.75887 2.5768 3.02777 2.601 3.31866 2.65015C3.49772 2.68042 3.68182 2.71936 3.87004 2.76657C3.72 3.33644 3.61154 3.96347 3.54844 4.62425C3.07812 4.97671 2.64877 5.34577 2.27318 5.7207C2.09775 5.5296 1.93751 5.33789 1.79475 5.14709ZM3.31866 9.35002C2.25302 9.53019 1.48403 9.37496 1.2089 8.92415C0.933767 8.47337 1.14733 7.71849 1.79475 6.85311C1.93749 6.6623 2.09772 6.47059 2.27318 6.27947C2.64877 6.6544 3.07812 7.02343 3.54844 7.37589C3.61151 8.03668 3.72 8.66373 3.87004 9.23358C3.68182 9.28081 3.49772 9.31975 3.31866 9.35002ZM7.46259 10.034C7.0612 11.0375 6.5281 11.613 5.99998 11.613C5.47187 11.613 4.93877 11.0375 4.53738 10.034C4.46994 9.86539 4.40727 9.68795 4.3495 9.50272C4.88169 9.34359 5.43797 9.12652 5.99998 8.85892C6.562 9.12654 7.1183 9.34361 7.65047 9.50272C7.5927 9.68795 7.53003 9.86539 7.46259 10.034ZM10.791 8.92418C10.5159 9.37496 9.74692 9.53016 8.68129 9.35004C8.50225 9.31977 8.31812 9.28084 8.12992 9.23365C8.27995 8.6638 8.38843 8.03678 8.4515 7.37599C8.92183 7.02353 9.3512 6.65447 9.72679 6.27955C9.90222 6.47067 10.0625 6.66238 10.2052 6.85318C10.8526 7.71851 11.0662 8.47339 10.791 8.92418Z" />
    <path
      d="M5.99996 6.77433C5.46634 6.77433 5.03223 6.34021 5.03223 5.8066C5.03223 5.27298 5.46637 4.83887 5.99996 4.83887C6.53355 4.83887 6.96769 5.27301 6.96769 5.8066C6.96769 6.34021 6.53357 6.77433 5.99996 6.77433ZM5.99996 5.22594C5.67978 5.22594 5.4193 5.48642 5.4193 5.8066C5.4193 6.12677 5.67978 6.38722 5.99996 6.38722C6.32011 6.38722 6.58058 6.12675 6.58058 5.8066C6.58058 5.48644 6.32011 5.22594 5.99996 5.22594Z" />
  </g>
  <defs>
    <clipPath id="clip0_183_339">
      <rect width="12" height="12" transform="translate(0 0.00012207)" />
    </clipPath>
  </defs>
</svg>
