<svg width="14" height="14" viewBox="0 0 14 14" fill="none" xmlns="http://www.w3.org/2000/svg">
<path d="M7.875 12.25H6.125C5.89294 12.25 5.67038 12.1578 5.50628 11.9937C5.34219 11.8296 5.25 11.6071 5.25 11.375V8.05437L2.00813 4.8125C1.84381 4.64916 1.75098 4.42731 1.75 4.19563V2.625C1.75 2.39294 1.84219 2.17038 2.00628 2.00628C2.17038 1.84219 2.39294 1.75 2.625 1.75H11.375C11.6071 1.75 11.8296 1.84219 11.9937 2.00628C12.1578 2.17038 12.25 2.39294 12.25 2.625V4.19563C12.249 4.42731 12.1562 4.64916 11.9919 4.8125L8.75 8.05437V11.375C8.75 11.6071 8.65781 11.8296 8.49372 11.9937C8.32962 12.1578 8.10706 12.25 7.875 12.25ZM2.625 2.625V4.19563L6.125 7.69563V11.375H7.875V7.69563L11.375 4.19563V2.625H2.625Z" fill="#CBCBD7"/>
</svg>
