<svg width="16" height="17" viewBox="0 0 16 17" fill="none" xmlns="http://www.w3.org/2000/svg">
<path d="M10.5 8.5C10.5 9.88071 9.38071 11 8 11C6.61929 11 5.5 9.88071 5.5 8.5C5.5 7.11929 6.61929 6 8 6C9.38071 6 10.5 7.11929 10.5 8.5Z" stroke="#CBCBD7"/>
<path fill-rule="evenodd" clip-rule="evenodd" d="M4.11101 14.3203C5.26216 15.0895 6.61553 15.5 8 15.5C9.85588 15.4979 11.6351 14.7597 12.9474 13.4474C14.2597 12.1351 14.9979 10.3559 15 8.5C15 7.11553 14.5895 5.76216 13.8203 4.61101C13.0511 3.45987 11.9579 2.56266 10.6788 2.03285C9.3997 1.50303 7.99224 1.36441 6.63437 1.63451C5.2765 1.9046 4.02922 2.57129 3.05026 3.55026C2.07129 4.52922 1.4046 5.7765 1.13451 7.13437C0.86441 8.49224 1.00303 9.8997 1.53285 11.1788C2.06266 12.4579 2.95987 13.5511 4.11101 14.3203ZM4.66658 3.51119C5.65328 2.8519 6.81332 2.5 8 2.5C9.59075 2.50182 11.1158 3.13454 12.2406 4.25936C13.3655 5.38419 13.9982 6.90926 14 8.5C14 9.68669 13.6481 10.8467 12.9888 11.8334C12.3295 12.8201 11.3925 13.5892 10.2961 14.0433C9.19975 14.4974 7.99335 14.6162 6.82946 14.3847C5.66558 14.1532 4.59648 13.5818 3.75736 12.7426C2.91825 11.9035 2.3468 10.8344 2.11529 9.67054C1.88378 8.50666 2.0026 7.30026 2.45673 6.2039C2.91085 5.10755 3.67989 4.17047 4.66658 3.51119ZM12 8.5C12 10.7091 10.2091 12.5 8 12.5C5.79086 12.5 4 10.7091 4 8.5C4 6.29086 5.79086 4.5 8 4.5C10.2091 4.5 12 6.29086 12 8.5ZM8 13.5C10.7614 13.5 13 11.2614 13 8.5C13 5.73858 10.7614 3.5 8 3.5C5.23858 3.5 3 5.73858 3 8.5C3 11.2614 5.23858 13.5 8 13.5Z" fill="#CBCBD7"/>
</svg>
