<svg width="13" height="11" viewBox="0 0 13 11" fill="none" xmlns="http://www.w3.org/2000/svg">
<path fill-rule="evenodd" clip-rule="evenodd" d="M1.3125 0.375H4.5C4.78179 0.375 5.05204 0.486942 5.2513 0.686199C5.45056 0.885456 5.5625 1.15571 5.5625 1.4375V4.625C5.5625 4.90679 5.45056 5.17704 5.2513 5.3763C5.05204 5.57556 4.78179 5.6875 4.5 5.6875H1.3125C1.03071 5.6875 0.760456 5.57556 0.561199 5.3763C0.361942 5.17704 0.25 4.90679 0.25 4.625V1.4375C0.25 1.15571 0.361942 0.885456 0.561199 0.686199C0.760456 0.486942 1.03071 0.375 1.3125 0.375ZM1.3125 1.4375V4.625H4.5V1.4375H1.3125ZM8.75002 0.375H11.9375C12.2193 0.375 12.4896 0.486942 12.6888 0.686199C12.8881 0.885456 13 1.15571 13 1.4375V9.9375C13 10.2193 12.8881 10.4895 12.6888 10.6888C12.4896 10.8881 12.2193 11 11.9375 11H8.75002C8.46823 11 8.19798 10.8881 7.99872 10.6888C7.79946 10.4895 7.68752 10.2193 7.68752 9.9375V1.4375C7.68752 1.15571 7.79946 0.885456 7.99872 0.686199C8.19798 0.486942 8.46823 0.375 8.75002 0.375ZM11.9375 1.4375H8.75002V9.9375H11.9375V1.4375Z" fill="#CBCBD7"/>
</svg>
