<svg width="151" height="131" viewBox="0 0 151 131" fill="none" xmlns="http://www.w3.org/2000/svg">
<circle cx="75.5" cy="34.5492" r="32" fill="#6978FF"/>
<path d="M45 55.4552L45.0001 23.4172L103.545 55.4552H45Z" fill="#5552FF" stroke="#AEB6FF"/>
<path d="M51.71 49.69L51.7101 34.3959L79.7492 49.69H51.71Z" fill="#6978FF" stroke="#AEB6FF"/>
<line x1="48.16" y1="35.8836" x2="45.11" y2="35.8836" stroke="#AEB6FF"/>
<line x1="52.4953" y1="27.0823" x2="51.0393" y2="29.7624" stroke="#AEB6FF"/>
<line x1="48.16" y1="40.1536" x2="45.11" y2="40.1536" stroke="#AEB6FF"/>
<line x1="56.2473" y1="29.1205" x2="54.7914" y2="31.8006" stroke="#AEB6FF"/>
<line x1="48.16" y1="44.4236" x2="45.11" y2="44.4236" stroke="#AEB6FF"/>
<line x1="59.9993" y1="31.1587" x2="58.5434" y2="33.8388" stroke="#AEB6FF"/>
<line x1="48.16" y1="48.6936" x2="45.11" y2="48.6936" stroke="#AEB6FF"/>
<line x1="63.7517" y1="33.1972" x2="62.2957" y2="35.8773" stroke="#AEB6FF"/>
<line x1="67.5037" y1="35.2354" x2="66.0478" y2="37.9155" stroke="#AEB6FF"/>
<line x1="71.2557" y1="37.2737" x2="69.7998" y2="39.9538" stroke="#AEB6FF"/>
<path d="M75.5 11.9613L94.5 0.573608L113.5 11.9613L94.5 23.6486V45.5248L75.5 35.0362V11.9613Z" fill="#4541F4"/>
<path d="M75.5 11.9613L94.5 0.573608L113.5 11.9613L94.5 23.6486M75.5 11.9613L94.5 23.6486M75.5 11.9613V35.0362L94.5 45.5248M94.5 23.6486V45.5248M94.5 45.5248L113.5 35.0362" stroke="#AEB6FF" stroke-linejoin="round"/>
<path d="M113.5 34.9916L113.5 11.9273" stroke="#AEB6FF" stroke-width="0.5" stroke-dasharray="5 5"/>
<path d="M19.5703 96.5776C20.401 96.5776 21.0963 96.6569 21.6563 96.8156C22.2257 96.9743 22.6503 97.2356 22.9303 97.5996C23.2197 97.9636 23.3643 98.4489 23.3643 99.0556C23.3643 99.4476 23.2897 99.7976 23.1403 100.106C23.0003 100.404 22.7857 100.656 22.4963 100.862C22.2163 101.058 21.871 101.193 21.4603 101.268V101.338C21.8803 101.403 22.2583 101.524 22.5943 101.702C22.9397 101.879 23.2103 102.131 23.4063 102.458C23.6023 102.784 23.7003 103.209 23.7003 103.732C23.7003 104.338 23.5603 104.856 23.2803 105.286C23.0003 105.706 22.599 106.028 22.0763 106.252C21.563 106.466 20.947 106.574 20.2283 106.574H16.7143V96.5776H19.5703ZM19.8223 100.834C20.681 100.834 21.269 100.698 21.5863 100.428C21.9037 100.148 22.0623 99.7369 22.0623 99.1956C22.0623 98.6449 21.8663 98.2529 21.4743 98.0196C21.0917 97.7769 20.4757 97.6556 19.6263 97.6556H17.9743V100.834H19.8223ZM17.9743 101.884V105.51H19.9903C20.877 105.51 21.493 105.337 21.8383 104.992C22.1837 104.646 22.3563 104.194 22.3563 103.634C22.3563 103.279 22.277 102.971 22.1183 102.71C21.969 102.448 21.7123 102.248 21.3483 102.108C20.9937 101.958 20.5083 101.884 19.8923 101.884H17.9743ZM28.7738 98.9436C29.6885 98.9436 30.3651 99.1443 30.8038 99.5456C31.2425 99.9469 31.4618 100.586 31.4618 101.464V106.574H30.5658L30.3278 105.51H30.2718C30.0571 105.78 29.8331 106.009 29.5998 106.196C29.3758 106.373 29.1145 106.504 28.8158 106.588C28.5265 106.672 28.1718 106.714 27.7518 106.714C27.3038 106.714 26.8978 106.634 26.5338 106.476C26.1791 106.317 25.8991 106.074 25.6938 105.748C25.4885 105.412 25.3858 104.992 25.3858 104.488C25.3858 103.741 25.6798 103.167 26.2678 102.766C26.8558 102.355 27.7611 102.131 28.9838 102.094L30.2578 102.052V101.604C30.2578 100.978 30.1225 100.544 29.8518 100.302C29.5811 100.059 29.1985 99.9376 28.7038 99.9376C28.3118 99.9376 27.9385 99.9983 27.5838 100.12C27.2291 100.232 26.8978 100.362 26.5898 100.512L26.2118 99.5876C26.5385 99.4103 26.9258 99.2609 27.3738 99.1396C27.8218 99.0089 28.2885 98.9436 28.7738 98.9436ZM29.1378 102.948C28.2045 102.985 27.5558 103.134 27.1918 103.396C26.8371 103.657 26.6598 104.026 26.6598 104.502C26.6598 104.922 26.7858 105.23 27.0378 105.426C27.2991 105.622 27.6305 105.72 28.0318 105.72C28.6665 105.72 29.1938 105.547 29.6138 105.202C30.0338 104.847 30.2438 104.306 30.2438 103.578V102.906L29.1378 102.948ZM38.9455 104.502C38.9455 104.987 38.8241 105.393 38.5815 105.72C38.3388 106.046 37.9935 106.294 37.5455 106.462C37.0975 106.63 36.5655 106.714 35.9495 106.714C35.4268 106.714 34.9741 106.672 34.5915 106.588C34.2181 106.504 33.8868 106.387 33.5975 106.238V105.118C33.8961 105.267 34.2555 105.407 34.6755 105.538C35.1048 105.659 35.5388 105.72 35.9775 105.72C36.6028 105.72 37.0555 105.622 37.3355 105.426C37.6155 105.22 37.7555 104.95 37.7555 104.614C37.7555 104.427 37.7041 104.259 37.6015 104.11C37.4988 103.96 37.3121 103.811 37.0415 103.662C36.7801 103.512 36.4021 103.344 35.9075 103.158C35.4221 102.971 35.0068 102.784 34.6615 102.598C34.3161 102.411 34.0501 102.187 33.8635 101.926C33.6768 101.664 33.5835 101.328 33.5835 100.918C33.5835 100.283 33.8401 99.7929 34.3535 99.4476C34.8761 99.1023 35.5575 98.9296 36.3975 98.9296C36.8548 98.9296 37.2795 98.9763 37.6715 99.0696C38.0728 99.1536 38.4461 99.2749 38.7915 99.4336L38.3715 100.414C38.1661 100.32 37.9468 100.241 37.7135 100.176C37.4895 100.101 37.2608 100.045 37.0275 100.008C36.7941 99.9609 36.5561 99.9376 36.3135 99.9376C35.8095 99.9376 35.4221 100.022 35.1515 100.19C34.8901 100.348 34.7595 100.568 34.7595 100.848C34.7595 101.053 34.8201 101.23 34.9415 101.38C35.0628 101.52 35.2635 101.66 35.5435 101.8C35.8328 101.93 36.2155 102.089 36.6915 102.276C37.1675 102.453 37.5735 102.635 37.9095 102.822C38.2455 103.008 38.5021 103.237 38.6795 103.508C38.8568 103.769 38.9455 104.1 38.9455 104.502ZM42.2707 99.0696V106.574H41.0387V99.0696H42.2707ZM41.6687 96.2556C41.8553 96.2556 42.0187 96.3209 42.1587 96.4516C42.308 96.5729 42.3827 96.7689 42.3827 97.0396C42.3827 97.3009 42.308 97.4969 42.1587 97.6276C42.0187 97.7583 41.8553 97.8236 41.6687 97.8236C41.4633 97.8236 41.2907 97.7583 41.1507 97.6276C41.0107 97.4969 40.9407 97.3009 40.9407 97.0396C40.9407 96.7689 41.0107 96.5729 41.1507 96.4516C41.2907 96.3209 41.4633 96.2556 41.6687 96.2556ZM47.938 106.714C47.2754 106.714 46.6827 106.578 46.16 106.308C45.6467 106.037 45.2407 105.617 44.942 105.048C44.6527 104.478 44.508 103.75 44.508 102.864C44.508 101.94 44.662 101.188 44.97 100.61C45.278 100.031 45.6934 99.6063 46.216 99.3356C46.748 99.0649 47.35 98.9296 48.022 98.9296C48.4047 98.9296 48.7734 98.9716 49.128 99.0556C49.4827 99.1303 49.772 99.2236 49.996 99.3356L49.618 100.358C49.394 100.274 49.1327 100.194 48.834 100.12C48.5354 100.045 48.2554 100.008 47.994 100.008C47.49 100.008 47.0747 100.115 46.748 100.33C46.4214 100.544 46.1787 100.862 46.02 101.282C45.8614 101.702 45.782 102.224 45.782 102.85C45.782 103.447 45.8614 103.956 46.02 104.376C46.1787 104.796 46.4167 105.113 46.734 105.328C47.0514 105.542 47.448 105.65 47.924 105.65C48.3347 105.65 48.694 105.608 49.002 105.524C49.3194 105.44 49.6087 105.337 49.87 105.216V106.308C49.618 106.438 49.338 106.536 49.03 106.602C48.7314 106.676 48.3674 106.714 47.938 106.714ZM60.3033 97.5436C59.7713 97.5436 59.2907 97.6369 58.8613 97.8236C58.432 98.0009 58.068 98.2669 57.7693 98.6216C57.4707 98.9669 57.242 99.3916 57.0833 99.8956C56.9247 100.39 56.8453 100.95 56.8453 101.576C56.8453 102.397 56.9713 103.111 57.2233 103.718C57.4847 104.324 57.8673 104.791 58.3713 105.118C58.8847 105.444 59.524 105.608 60.2893 105.608C60.728 105.608 61.1433 105.57 61.5353 105.496C61.9273 105.421 62.31 105.328 62.6833 105.216V106.308C62.31 106.448 61.9227 106.55 61.5213 106.616C61.1293 106.681 60.658 106.714 60.1073 106.714C59.09 106.714 58.2407 106.504 57.5593 106.084C56.878 105.664 56.3647 105.066 56.0193 104.292C55.6833 103.517 55.5153 102.607 55.5153 101.562C55.5153 100.806 55.618 100.115 55.8233 99.4896C56.038 98.8643 56.346 98.3229 56.7473 97.8656C57.158 97.4083 57.662 97.0583 58.2593 96.8156C58.8567 96.5636 59.5427 96.4376 60.3173 96.4376C60.8307 96.4376 61.3253 96.4889 61.8013 96.5916C62.2773 96.6943 62.702 96.8389 63.0753 97.0256L62.5713 98.0896C62.2633 97.9496 61.918 97.8236 61.5353 97.7116C61.162 97.5996 60.7513 97.5436 60.3033 97.5436ZM71.501 102.808C71.501 103.433 71.417 103.988 71.249 104.474C71.0904 104.95 70.857 105.356 70.549 105.692C70.2504 106.028 69.8817 106.284 69.443 106.462C69.0137 106.63 68.533 106.714 68.001 106.714C67.5064 106.714 67.049 106.63 66.629 106.462C66.209 106.284 65.845 106.028 65.537 105.692C65.229 105.356 64.9864 104.95 64.809 104.474C64.641 103.988 64.557 103.433 64.557 102.808C64.557 101.977 64.697 101.277 64.977 100.708C65.257 100.129 65.6584 99.6903 66.181 99.3916C66.7037 99.0836 67.3244 98.9296 68.043 98.9296C68.7244 98.9296 69.3217 99.0836 69.835 99.3916C70.3577 99.6903 70.7637 100.129 71.053 100.708C71.3517 101.277 71.501 101.977 71.501 102.808ZM65.831 102.808C65.831 103.396 65.9057 103.909 66.055 104.348C66.2137 104.777 66.4564 105.108 66.783 105.342C67.1097 105.575 67.525 105.692 68.029 105.692C68.533 105.692 68.9484 105.575 69.275 105.342C69.6017 105.108 69.8397 104.777 69.989 104.348C70.1477 103.909 70.227 103.396 70.227 102.808C70.227 102.21 70.1477 101.702 69.989 101.282C69.8304 100.862 69.5877 100.54 69.261 100.316C68.9437 100.082 68.5284 99.9656 68.015 99.9656C67.2497 99.9656 66.6944 100.218 66.349 100.722C66.0037 101.226 65.831 101.921 65.831 102.808ZM77.3456 98.9296C78.2416 98.9296 78.9183 99.1489 79.3756 99.5876C79.8329 100.017 80.0616 100.717 80.0616 101.688V106.574H78.8436V101.772C78.8436 101.165 78.7083 100.712 78.4376 100.414C78.1669 100.115 77.7423 99.9656 77.1636 99.9656C76.3329 99.9656 75.7589 100.199 75.4416 100.666C75.1243 101.132 74.9656 101.804 74.9656 102.682V106.574H73.7336V99.0696H74.7276L74.9096 100.092H74.9796C75.1476 99.8303 75.3529 99.6156 75.5956 99.4476C75.8476 99.2703 76.1229 99.1396 76.4216 99.0556C76.7203 98.9716 77.0283 98.9296 77.3456 98.9296ZM85.6779 106.714C85.0152 106.714 84.4226 106.578 83.8999 106.308C83.3866 106.037 82.9806 105.617 82.6819 105.048C82.3926 104.478 82.2479 103.75 82.2479 102.864C82.2479 101.94 82.4019 101.188 82.7099 100.61C83.0179 100.031 83.4332 99.6063 83.9559 99.3356C84.4879 99.0649 85.0899 98.9296 85.7619 98.9296C86.1446 98.9296 86.5132 98.9716 86.8679 99.0556C87.2226 99.1303 87.5119 99.2236 87.7359 99.3356L87.3579 100.358C87.1339 100.274 86.8726 100.194 86.5739 100.12C86.2752 100.045 85.9952 100.008 85.7339 100.008C85.2299 100.008 84.8146 100.115 84.4879 100.33C84.1612 100.544 83.9186 100.862 83.7599 101.282C83.6012 101.702 83.5219 102.224 83.5219 102.85C83.5219 103.447 83.6012 103.956 83.7599 104.376C83.9186 104.796 84.1566 105.113 84.4739 105.328C84.7912 105.542 85.1879 105.65 85.6639 105.65C86.0746 105.65 86.4339 105.608 86.7419 105.524C87.0592 105.44 87.3486 105.337 87.6099 105.216V106.308C87.3579 106.438 87.0779 106.536 86.7699 106.602C86.4712 106.676 86.1072 106.714 85.6779 106.714ZM92.5725 98.9296C93.2165 98.9296 93.7671 99.0696 94.2245 99.3496C94.6911 99.6296 95.0458 100.026 95.2885 100.54C95.5405 101.044 95.6665 101.636 95.6665 102.318V103.06H90.5285C90.5471 103.909 90.7618 104.558 91.1725 105.006C91.5925 105.444 92.1758 105.664 92.9225 105.664C93.3985 105.664 93.8185 105.622 94.1825 105.538C94.5558 105.444 94.9385 105.314 95.3305 105.146V106.224C94.9478 106.392 94.5698 106.513 94.1965 106.588C93.8231 106.672 93.3798 106.714 92.8665 106.714C92.1571 106.714 91.5271 106.569 90.9765 106.28C90.4351 105.99 90.0105 105.561 89.7025 104.992C89.4038 104.413 89.2545 103.708 89.2545 102.878C89.2545 102.056 89.3898 101.352 89.6605 100.764C89.9405 100.176 90.3278 99.7229 90.8225 99.4056C91.3265 99.0883 91.9098 98.9296 92.5725 98.9296ZM92.5585 99.9376C91.9705 99.9376 91.5038 100.129 91.1585 100.512C90.8225 100.885 90.6218 101.408 90.5565 102.08H94.3785C94.3785 101.65 94.3131 101.277 94.1825 100.96C94.0518 100.642 93.8511 100.395 93.5805 100.218C93.3191 100.031 92.9785 99.9376 92.5585 99.9376ZM101.427 98.9296C102.351 98.9296 103.093 99.2516 103.653 99.8956C104.222 100.54 104.507 101.51 104.507 102.808C104.507 103.657 104.376 104.376 104.115 104.964C103.863 105.542 103.503 105.981 103.037 106.28C102.579 106.569 102.038 106.714 101.413 106.714C101.03 106.714 100.689 106.662 100.391 106.56C100.092 106.457 99.8355 106.326 99.6208 106.168C99.4155 106 99.2381 105.818 99.0888 105.622H99.0048C99.0235 105.78 99.0421 105.981 99.0608 106.224C99.0795 106.466 99.0888 106.676 99.0888 106.854V109.934H97.8568V99.0696H98.8648L99.0328 100.092H99.0888C99.2381 99.8769 99.4155 99.6809 99.6208 99.5036C99.8355 99.3263 100.087 99.1863 100.377 99.0836C100.675 98.9809 101.025 98.9296 101.427 98.9296ZM101.203 99.9656C100.699 99.9656 100.293 100.064 99.9848 100.26C99.6768 100.446 99.4528 100.731 99.3128 101.114C99.1728 101.496 99.0981 101.982 99.0888 102.57V102.808C99.0888 103.424 99.1541 103.946 99.2848 104.376C99.4155 104.805 99.6348 105.132 99.9428 105.356C100.26 105.58 100.689 105.692 101.231 105.692C101.688 105.692 102.061 105.566 102.351 105.314C102.649 105.062 102.869 104.721 103.009 104.292C103.158 103.853 103.233 103.354 103.233 102.794C103.233 101.935 103.065 101.249 102.729 100.736C102.402 100.222 101.893 99.9656 101.203 99.9656ZM109.256 105.706C109.443 105.706 109.634 105.692 109.83 105.664C110.026 105.626 110.185 105.589 110.306 105.552V106.49C110.175 106.555 109.989 106.606 109.746 106.644C109.503 106.69 109.27 106.714 109.046 106.714C108.654 106.714 108.29 106.648 107.954 106.518C107.627 106.378 107.361 106.14 107.156 105.804C106.951 105.468 106.848 104.996 106.848 104.39V100.022H105.784V99.4336L106.862 98.9436L107.352 97.3476H108.08V99.0696H110.25V100.022H108.08V104.362C108.08 104.819 108.187 105.16 108.402 105.384C108.626 105.598 108.911 105.706 109.256 105.706ZM116.975 104.502C116.975 104.987 116.853 105.393 116.611 105.72C116.368 106.046 116.023 106.294 115.575 106.462C115.127 106.63 114.595 106.714 113.979 106.714C113.456 106.714 113.003 106.672 112.621 106.588C112.247 106.504 111.916 106.387 111.627 106.238V105.118C111.925 105.267 112.285 105.407 112.705 105.538C113.134 105.659 113.568 105.72 114.007 105.72C114.632 105.72 115.085 105.622 115.365 105.426C115.645 105.22 115.785 104.95 115.785 104.614C115.785 104.427 115.733 104.259 115.631 104.11C115.528 103.96 115.341 103.811 115.071 103.662C114.809 103.512 114.431 103.344 113.937 103.158C113.451 102.971 113.036 102.784 112.691 102.598C112.345 102.411 112.079 102.187 111.893 101.926C111.706 101.664 111.613 101.328 111.613 100.918C111.613 100.283 111.869 99.7929 112.383 99.4476C112.905 99.1023 113.587 98.9296 114.427 98.9296C114.884 98.9296 115.309 98.9763 115.701 99.0696C116.102 99.1536 116.475 99.2749 116.821 99.4336L116.401 100.414C116.195 100.32 115.976 100.241 115.743 100.176C115.519 100.101 115.29 100.045 115.057 100.008C114.823 99.9609 114.585 99.9376 114.343 99.9376C113.839 99.9376 113.451 100.022 113.181 100.19C112.919 100.348 112.789 100.568 112.789 100.848C112.789 101.053 112.849 101.23 112.971 101.38C113.092 101.52 113.293 101.66 113.573 101.8C113.862 101.93 114.245 102.089 114.721 102.276C115.197 102.453 115.603 102.635 115.939 102.822C116.275 103.008 116.531 103.237 116.709 103.508C116.886 103.769 116.975 104.1 116.975 104.502ZM129.509 102.808C129.509 103.433 129.425 103.988 129.257 104.474C129.098 104.95 128.865 105.356 128.557 105.692C128.258 106.028 127.889 106.284 127.451 106.462C127.021 106.63 126.541 106.714 126.009 106.714C125.514 106.714 125.057 106.63 124.637 106.462C124.217 106.284 123.853 106.028 123.545 105.692C123.237 105.356 122.994 104.95 122.817 104.474C122.649 103.988 122.565 103.433 122.565 102.808C122.565 101.977 122.705 101.277 122.985 100.708C123.265 100.129 123.666 99.6903 124.189 99.3916C124.711 99.0836 125.332 98.9296 126.051 98.9296C126.732 98.9296 127.329 99.0836 127.843 99.3916C128.365 99.6903 128.771 100.129 129.061 100.708C129.359 101.277 129.509 101.977 129.509 102.808ZM123.839 102.808C123.839 103.396 123.913 103.909 124.063 104.348C124.221 104.777 124.464 105.108 124.791 105.342C125.117 105.575 125.533 105.692 126.037 105.692C126.541 105.692 126.956 105.575 127.283 105.342C127.609 105.108 127.847 104.777 127.997 104.348C128.155 103.909 128.235 103.396 128.235 102.808C128.235 102.21 128.155 101.702 127.997 101.282C127.838 100.862 127.595 100.54 127.269 100.316C126.951 100.082 126.536 99.9656 126.023 99.9656C125.257 99.9656 124.702 100.218 124.357 100.722C124.011 101.226 123.839 101.921 123.839 102.808ZM135.199 100.022H133.309V106.574H132.077V100.022H130.761V99.4476L132.077 99.0276V98.5936C132.077 97.9496 132.171 97.4269 132.357 97.0256C132.553 96.6243 132.833 96.3303 133.197 96.1436C133.561 95.9569 134 95.8636 134.513 95.8636C134.812 95.8636 135.083 95.8916 135.325 95.9476C135.577 95.9943 135.792 96.0503 135.969 96.1156L135.647 97.0816C135.498 97.0349 135.325 96.9883 135.129 96.9416C134.933 96.8949 134.733 96.8716 134.527 96.8716C134.117 96.8716 133.809 97.0116 133.603 97.2916C133.407 97.5623 133.309 97.9916 133.309 98.5796V99.0696H135.199V100.022ZM51.4068 116.544C50.8748 116.544 50.3941 116.637 49.9648 116.824C49.5354 117.001 49.1714 117.267 48.8728 117.622C48.5741 117.967 48.3454 118.392 48.1868 118.896C48.0281 119.39 47.9488 119.95 47.9488 120.576C47.9488 121.397 48.0748 122.111 48.3268 122.718C48.5881 123.324 48.9708 123.791 49.4748 124.118C49.9881 124.444 50.6274 124.608 51.3928 124.608C51.8314 124.608 52.2468 124.57 52.6388 124.496C53.0308 124.421 53.4134 124.328 53.7868 124.216V125.308C53.4134 125.448 53.0261 125.55 52.6248 125.616C52.2328 125.681 51.7614 125.714 51.2108 125.714C50.1934 125.714 49.3441 125.504 48.6628 125.084C47.9814 124.664 47.4681 124.066 47.1228 123.292C46.7868 122.517 46.6188 121.607 46.6188 120.562C46.6188 119.806 46.7214 119.115 46.9268 118.49C47.1414 117.864 47.4494 117.323 47.8508 116.866C48.2614 116.408 48.7654 116.058 49.3628 115.816C49.9601 115.564 50.6461 115.438 51.4208 115.438C51.9341 115.438 52.4288 115.489 52.9048 115.592C53.3808 115.694 53.8054 115.839 54.1788 116.026L53.6748 117.09C53.3668 116.95 53.0214 116.824 52.6388 116.712C52.2654 116.6 51.8548 116.544 51.4068 116.544ZM62.6045 121.808C62.6045 122.433 62.5205 122.988 62.3525 123.474C62.1938 123.95 61.9605 124.356 61.6525 124.692C61.3538 125.028 60.9851 125.284 60.5465 125.462C60.1171 125.63 59.6365 125.714 59.1045 125.714C58.6098 125.714 58.1525 125.63 57.7325 125.462C57.3125 125.284 56.9485 125.028 56.6405 124.692C56.3325 124.356 56.0898 123.95 55.9125 123.474C55.7445 122.988 55.6605 122.433 55.6605 121.808C55.6605 120.977 55.8005 120.277 56.0805 119.708C56.3605 119.129 56.7618 118.69 57.2845 118.392C57.8071 118.084 58.4278 117.93 59.1465 117.93C59.8278 117.93 60.4251 118.084 60.9385 118.392C61.4611 118.69 61.8671 119.129 62.1565 119.708C62.4551 120.277 62.6045 120.977 62.6045 121.808ZM56.9345 121.808C56.9345 122.396 57.0091 122.909 57.1585 123.348C57.3171 123.777 57.5598 124.108 57.8865 124.342C58.2131 124.575 58.6285 124.692 59.1325 124.692C59.6365 124.692 60.0518 124.575 60.3785 124.342C60.7051 124.108 60.9431 123.777 61.0925 123.348C61.2511 122.909 61.3305 122.396 61.3305 121.808C61.3305 121.21 61.2511 120.702 61.0925 120.282C60.9338 119.862 60.6911 119.54 60.3645 119.316C60.0471 119.082 59.6318 118.966 59.1185 118.966C58.3531 118.966 57.7978 119.218 57.4525 119.722C57.1071 120.226 56.9345 120.921 56.9345 121.808ZM66.2156 125.574L63.3736 118.07H64.6896L66.2856 122.494C66.3603 122.699 66.4396 122.928 66.5236 123.18C66.6076 123.432 66.6823 123.674 66.7476 123.908C66.8129 124.132 66.8596 124.323 66.8876 124.482H66.9436C66.9809 124.323 67.0323 124.127 67.0976 123.894C67.1723 123.66 67.2516 123.418 67.3356 123.166C67.4289 122.914 67.5083 122.69 67.5736 122.494L69.1696 118.07H70.4856L67.6296 125.574H66.2156ZM74.795 117.944C75.7096 117.944 76.3863 118.144 76.825 118.546C77.2636 118.947 77.483 119.586 77.483 120.464V125.574H76.587L76.349 124.51H76.293C76.0783 124.78 75.8543 125.009 75.621 125.196C75.397 125.373 75.1356 125.504 74.837 125.588C74.5476 125.672 74.193 125.714 73.773 125.714C73.325 125.714 72.919 125.634 72.555 125.476C72.2003 125.317 71.9203 125.074 71.715 124.748C71.5096 124.412 71.407 123.992 71.407 123.488C71.407 122.741 71.701 122.167 72.289 121.766C72.877 121.355 73.7823 121.131 75.005 121.094L76.279 121.052V120.604C76.279 119.978 76.1436 119.544 75.873 119.302C75.6023 119.059 75.2196 118.938 74.725 118.938C74.333 118.938 73.9596 118.998 73.605 119.12C73.2503 119.232 72.919 119.362 72.611 119.512L72.233 118.588C72.5596 118.41 72.947 118.261 73.395 118.14C73.843 118.009 74.3096 117.944 74.795 117.944ZM75.159 121.948C74.2256 121.985 73.577 122.134 73.213 122.396C72.8583 122.657 72.681 123.026 72.681 123.502C72.681 123.922 72.807 124.23 73.059 124.426C73.3203 124.622 73.6516 124.72 74.053 124.72C74.6876 124.72 75.215 124.547 75.635 124.202C76.055 123.847 76.265 123.306 76.265 122.578V121.906L75.159 121.948ZM81.3126 125.574H80.0806V114.934H81.3126V125.574ZM86.868 117.93C87.512 117.93 88.0627 118.07 88.52 118.35C88.9867 118.63 89.3413 119.026 89.584 119.54C89.836 120.044 89.962 120.636 89.962 121.318V122.06H84.824C84.8427 122.909 85.0573 123.558 85.468 124.006C85.888 124.444 86.4713 124.664 87.218 124.664C87.694 124.664 88.114 124.622 88.478 124.538C88.8513 124.444 89.234 124.314 89.626 124.146V125.224C89.2433 125.392 88.8653 125.513 88.492 125.588C88.1187 125.672 87.6753 125.714 87.162 125.714C86.4527 125.714 85.8227 125.569 85.272 125.28C84.7307 124.99 84.306 124.561 83.998 123.992C83.6993 123.413 83.55 122.708 83.55 121.878C83.55 121.056 83.6853 120.352 83.956 119.764C84.236 119.176 84.6233 118.723 85.118 118.406C85.622 118.088 86.2053 117.93 86.868 117.93ZM86.854 118.938C86.266 118.938 85.7993 119.129 85.454 119.512C85.118 119.885 84.9173 120.408 84.852 121.08H88.674C88.674 120.65 88.6087 120.277 88.478 119.96C88.3473 119.642 88.1467 119.395 87.876 119.218C87.6147 119.031 87.274 118.938 86.854 118.938ZM95.7643 117.93C96.6603 117.93 97.337 118.149 97.7943 118.588C98.2517 119.017 98.4803 119.717 98.4803 120.688V125.574H97.2623V120.772C97.2623 120.165 97.127 119.712 96.8563 119.414C96.5857 119.115 96.161 118.966 95.5823 118.966C94.7517 118.966 94.1777 119.199 93.8603 119.666C93.543 120.132 93.3843 120.804 93.3843 121.682V125.574H92.1523V118.07H93.1463L93.3283 119.092H93.3983C93.5663 118.83 93.7717 118.616 94.0143 118.448C94.2663 118.27 94.5417 118.14 94.8403 118.056C95.139 117.972 95.447 117.93 95.7643 117.93ZM103.593 124.706C103.779 124.706 103.971 124.692 104.167 124.664C104.363 124.626 104.521 124.589 104.643 124.552V125.49C104.512 125.555 104.325 125.606 104.083 125.644C103.84 125.69 103.607 125.714 103.383 125.714C102.991 125.714 102.627 125.648 102.291 125.518C101.964 125.378 101.698 125.14 101.493 124.804C101.287 124.468 101.185 123.996 101.185 123.39V119.022H100.121V118.434L101.199 117.944L101.689 116.348H102.417V118.07H104.587V119.022H102.417V123.362C102.417 123.819 102.524 124.16 102.739 124.384C102.963 124.598 103.247 124.706 103.593 124.706Z" fill="#F9F9F9"/>
<path d="M15.3563 108.324H135.647V109.024H15.3563V108.324ZM45.7648 127.324H105.231V128.024H45.7648V127.324Z" fill="#F9F9F9"/>
<a href="https://docs.covalent.xyz/docs/user-documentation/concepts/covalent-basics">
<rect fill="black" fill-opacity="0" x="14.8563" width="123.927" height="19.068"/>
</a>
<a href="https://docs.covalent.xyz/docs/user-documentation/concepts/covalent-basics">
<rect fill="black" fill-opacity="0" x="45.2648" y="19.068" width="59.1859" height="19.068"/>
</a>
</svg>
