<svg width="151" height="130" viewBox="0 0 151 130" fill="none" xmlns="http://www.w3.org/2000/svg">
<circle cx="75.5" cy="33.5736" r="32" fill="#B1B9FF"/>
<rect x="-0.35" y="0.35" width="70.1615" height="12.3154" rx="1.65" transform="matrix(-1 0 0 1 98.6613 32.3121)" fill="#6D7CFF" stroke="#6D7CFF" stroke-width="0.7"/>
<rect x="-0.35" y="0.35" width="51.3615" height="9.42308" rx="1.65" transform="matrix(-1 0 0 1 98.6613 33.7582)" fill="#6D7CFF" stroke="#6D7CFF" stroke-width="0.7"/>
<path d="M99.3613 25.0813C99.3613 21.4872 96.4477 18.5736 92.8536 18.5736H28.4998V31.589H92.8536C96.4477 31.589 99.3613 28.6754 99.3613 25.0813Z" fill="#5552FF"/>
<path d="M81.2844 25.0813C81.2844 22.2859 79.0183 20.0198 76.2229 20.0198H28.4998V30.1429H76.2229C79.0183 30.1429 81.2844 27.8767 81.2844 25.0813Z" fill="#6D7CFF"/>
<path d="M90.3344 56.1736C90.3344 51.1754 86.2826 47.1236 81.2844 47.1236H28.8498V65.2236H81.2844C86.2826 65.2236 90.3344 61.1718 90.3344 56.1736Z" fill="#5552FF" stroke="#5552FF" stroke-width="0.7"/>
<path d="M88.5152 56.1736C88.5152 52.1802 85.2778 48.9428 81.2844 48.9428H28.4998V63.4044H81.2844C85.2778 63.4044 88.5152 60.1671 88.5152 56.1736Z" fill="#6D7CFF"/>
<path d="M79.8383 51.3351C80.1144 51.3351 80.3383 51.559 80.3383 51.8351C80.3383 52.1113 80.1144 52.3351 79.8383 52.3351L79.8383 51.3351ZM79.8383 52.3351L34.2844 52.3351L34.2844 51.3351L79.8383 51.3351L79.8383 52.3351Z" fill="#CBCBD7"/>
<path d="M76.2229 22.4121C76.499 22.4121 76.7229 22.6359 76.7229 22.9121C76.7229 23.1882 76.499 23.4121 76.2229 23.4121L76.2229 22.4121ZM76.2229 23.4121L30.669 23.4121L30.669 22.4121L76.2229 22.4121L76.2229 23.4121Z" fill="#CBCBD7"/>
<path d="M81.2844 55.6736C81.5605 55.6736 81.7844 55.8975 81.7844 56.1736C81.7844 56.4498 81.5605 56.6736 81.2844 56.6736L81.2844 55.6736ZM81.2844 56.6736L34.2844 56.6736L34.2844 55.6736L81.2844 55.6736L81.2844 56.6736Z" fill="#CBCBD7"/>
<path d="M77.669 24.5813C77.9451 24.5813 78.169 24.8052 78.169 25.0813C78.169 25.3574 77.9451 25.5813 77.669 25.5813L77.669 24.5813ZM77.669 25.5813L30.669 25.5813L30.669 24.5813L77.669 24.5813L77.669 25.5813Z" fill="#CBCBD7"/>
<path d="M79.8383 60.0121C80.1144 60.0121 80.3383 60.2359 80.3383 60.5121C80.3383 60.7882 80.1144 61.0121 79.8383 61.0121L79.8383 60.0121ZM79.8383 61.0121L34.2844 61.0121L34.2844 60.0121L79.8383 60.0121L79.8383 61.0121Z" fill="#CBCBD7"/>
<path d="M76.2229 26.7505C76.499 26.7505 76.7229 26.9744 76.7229 27.2505C76.7229 27.5267 76.499 27.7505 76.2229 27.7505L76.2229 26.7505ZM76.2229 27.7505L30.669 27.7505L30.669 26.7505L76.2229 26.7505L76.2229 27.7505Z" fill="#CBCBD7"/>
<rect width="5.06154" height="13.0154" transform="matrix(-1 0 0 1 45.8536 32.3121)" fill="#5552FF"/>
<rect width="5.06154" height="13.0154" transform="matrix(-1 0 0 1 36.4536 32.3121)" fill="#5552FF"/>
<circle cx="2.16923" cy="2.16923" r="2.16923" transform="matrix(-1 0 0 1 89.2383 22.9121)" fill="#D9D9D9"/>
<path d="M19.2314 105.574H17.9714V100.912H12.8474V105.574H11.5874V95.5776H12.8474V99.8056H17.9714V95.5776H19.2314V105.574ZM28.6003 101.808C28.6003 102.433 28.5163 102.988 28.3483 103.474C28.1897 103.95 27.9563 104.356 27.6483 104.692C27.3497 105.028 26.981 105.284 26.5423 105.462C26.113 105.63 25.6323 105.714 25.1003 105.714C24.6057 105.714 24.1483 105.63 23.7283 105.462C23.3083 105.284 22.9443 105.028 22.6363 104.692C22.3283 104.356 22.0857 103.95 21.9083 103.474C21.7403 102.988 21.6563 102.433 21.6563 101.808C21.6563 100.977 21.7963 100.277 22.0763 99.7076C22.3563 99.1289 22.7577 98.6903 23.2803 98.3916C23.803 98.0836 24.4237 97.9296 25.1423 97.9296C25.8237 97.9296 26.421 98.0836 26.9343 98.3916C27.457 98.6903 27.863 99.1289 28.1523 99.7076C28.451 100.277 28.6003 100.977 28.6003 101.808ZM22.9303 101.808C22.9303 102.396 23.005 102.909 23.1543 103.348C23.313 103.777 23.5557 104.108 23.8823 104.342C24.209 104.575 24.6243 104.692 25.1283 104.692C25.6323 104.692 26.0477 104.575 26.3743 104.342C26.701 104.108 26.939 103.777 27.0883 103.348C27.247 102.909 27.3263 102.396 27.3263 101.808C27.3263 101.21 27.247 100.702 27.0883 100.282C26.9297 99.8616 26.687 99.5396 26.3603 99.3156C26.043 99.0823 25.6277 98.9656 25.1143 98.9656C24.349 98.9656 23.7937 99.2176 23.4483 99.7216C23.103 100.226 22.9303 100.921 22.9303 101.808ZM35.4035 101.332C35.3475 101.136 35.2915 100.944 35.2355 100.758C35.1795 100.562 35.1281 100.38 35.0815 100.212C35.0441 100.034 35.0068 99.8709 34.9695 99.7216C34.9321 99.5723 34.9041 99.4463 34.8855 99.3436H34.8295C34.8108 99.4463 34.7828 99.5723 34.7455 99.7216C34.7175 99.8709 34.6801 100.034 34.6335 100.212C34.5961 100.389 34.5495 100.576 34.4935 100.772C34.4468 100.958 34.3908 101.15 34.3255 101.346L32.9815 105.56H31.5815L29.5235 98.0556H30.7975L31.8335 102.06C31.9081 102.33 31.9781 102.606 32.0435 102.886C32.1088 103.156 32.1648 103.418 32.2115 103.67C32.2675 103.912 32.3048 104.122 32.3235 104.3H32.3795C32.4075 104.188 32.4401 104.048 32.4775 103.88C32.5148 103.712 32.5521 103.534 32.5895 103.348C32.6361 103.161 32.6828 102.974 32.7295 102.788C32.7855 102.601 32.8368 102.433 32.8835 102.284L34.2135 98.0556H35.5575L36.8455 102.284C36.9108 102.498 36.9761 102.727 37.0415 102.97C37.1161 103.212 37.1815 103.45 37.2375 103.684C37.2935 103.908 37.3308 104.108 37.3495 104.286H37.4055C37.4241 104.127 37.4568 103.931 37.5035 103.698C37.5595 103.455 37.6201 103.194 37.6855 102.914C37.7601 102.624 37.8348 102.34 37.9095 102.06L38.9595 98.0556H40.2195L38.1335 105.56H36.6915L35.4035 101.332ZM48.422 105.714C47.4887 105.714 46.742 105.392 46.182 104.748C45.622 104.094 45.342 103.124 45.342 101.836C45.342 100.548 45.622 99.5769 46.182 98.9236C46.7514 98.2609 47.5027 97.9296 48.436 97.9296C48.828 97.9296 49.1687 97.9809 49.458 98.0836C49.7474 98.1769 49.9994 98.3076 50.214 98.4756C50.4287 98.6436 50.6107 98.8303 50.76 99.0356H50.844C50.8347 98.9143 50.816 98.7369 50.788 98.5036C50.7694 98.2609 50.76 98.0696 50.76 97.9296V94.9336H51.992V105.574H50.998L50.816 104.566H50.76C50.6107 104.78 50.4287 104.976 50.214 105.154C49.9994 105.322 49.7427 105.457 49.444 105.56C49.1547 105.662 48.814 105.714 48.422 105.714ZM48.618 104.692C49.4114 104.692 49.9667 104.477 50.284 104.048C50.6107 103.609 50.774 102.951 50.774 102.074V101.85C50.774 100.916 50.62 100.202 50.312 99.7076C50.004 99.2036 49.4347 98.9516 48.604 98.9516C47.9414 98.9516 47.442 99.2176 47.106 99.7496C46.7794 100.272 46.616 100.977 46.616 101.864C46.616 102.76 46.7794 103.455 47.106 103.95C47.442 104.444 47.946 104.692 48.618 104.692ZM61.1793 101.808C61.1793 102.433 61.0953 102.988 60.9273 103.474C60.7687 103.95 60.5353 104.356 60.2273 104.692C59.9287 105.028 59.56 105.284 59.1213 105.462C58.692 105.63 58.2113 105.714 57.6793 105.714C57.1847 105.714 56.7273 105.63 56.3073 105.462C55.8873 105.284 55.5233 105.028 55.2153 104.692C54.9073 104.356 54.6647 103.95 54.4873 103.474C54.3193 102.988 54.2353 102.433 54.2353 101.808C54.2353 100.977 54.3753 100.277 54.6553 99.7076C54.9353 99.1289 55.3367 98.6903 55.8593 98.3916C56.382 98.0836 57.0027 97.9296 57.7213 97.9296C58.4027 97.9296 59 98.0836 59.5133 98.3916C60.036 98.6903 60.442 99.1289 60.7313 99.7076C61.03 100.277 61.1793 100.977 61.1793 101.808ZM55.5093 101.808C55.5093 102.396 55.584 102.909 55.7333 103.348C55.892 103.777 56.1347 104.108 56.4613 104.342C56.788 104.575 57.2033 104.692 57.7073 104.692C58.2113 104.692 58.6267 104.575 58.9533 104.342C59.28 104.108 59.518 103.777 59.6673 103.348C59.826 102.909 59.9053 102.396 59.9053 101.808C59.9053 101.21 59.826 100.702 59.6673 100.282C59.5087 99.8616 59.266 99.5396 58.9393 99.3156C58.622 99.0823 58.2067 98.9656 57.6933 98.9656C56.928 98.9656 56.3727 99.2176 56.0273 99.7216C55.682 100.226 55.5093 100.921 55.5093 101.808ZM66.3099 97.9296C66.9539 97.9296 67.5045 98.0696 67.9619 98.3496C68.4285 98.6296 68.7832 99.0263 69.0259 99.5396C69.2779 100.044 69.4039 100.636 69.4039 101.318V102.06H64.2659C64.2845 102.909 64.4992 103.558 64.9099 104.006C65.3299 104.444 65.9132 104.664 66.6599 104.664C67.1359 104.664 67.5559 104.622 67.9199 104.538C68.2932 104.444 68.6759 104.314 69.0679 104.146V105.224C68.6852 105.392 68.3072 105.513 67.9339 105.588C67.5605 105.672 67.1172 105.714 66.6039 105.714C65.8945 105.714 65.2645 105.569 64.7139 105.28C64.1725 104.99 63.7479 104.561 63.4399 103.992C63.1412 103.413 62.9919 102.708 62.9919 101.878C62.9919 101.056 63.1272 100.352 63.3979 99.7636C63.6779 99.1756 64.0652 98.7229 64.5599 98.4056C65.0639 98.0883 65.6472 97.9296 66.3099 97.9296ZM66.2959 98.9376C65.7079 98.9376 65.2412 99.1289 64.8959 99.5116C64.5599 99.8849 64.3592 100.408 64.2939 101.08H68.1159C68.1159 100.65 68.0505 100.277 67.9199 99.9596C67.7892 99.6423 67.5885 99.3949 67.3179 99.2176C67.0565 99.0309 66.7159 98.9376 66.2959 98.9376ZM76.4802 103.502C76.4802 103.987 76.3589 104.393 76.1162 104.72C75.8736 105.046 75.5282 105.294 75.0802 105.462C74.6322 105.63 74.1002 105.714 73.4842 105.714C72.9616 105.714 72.5089 105.672 72.1262 105.588C71.7529 105.504 71.4216 105.387 71.1322 105.238V104.118C71.4309 104.267 71.7902 104.407 72.2102 104.538C72.6396 104.659 73.0736 104.72 73.5122 104.72C74.1376 104.72 74.5902 104.622 74.8702 104.426C75.1502 104.22 75.2902 103.95 75.2902 103.614C75.2902 103.427 75.2389 103.259 75.1362 103.11C75.0336 102.96 74.8469 102.811 74.5762 102.662C74.3149 102.512 73.9369 102.344 73.4422 102.158C72.9569 101.971 72.5416 101.784 72.1962 101.598C71.8509 101.411 71.5849 101.187 71.3982 100.926C71.2116 100.664 71.1182 100.328 71.1182 99.9176C71.1182 99.2829 71.3749 98.7929 71.8882 98.4476C72.4109 98.1023 73.0922 97.9296 73.9322 97.9296C74.3896 97.9296 74.8142 97.9763 75.2062 98.0696C75.6076 98.1536 75.9809 98.2749 76.3262 98.4336L75.9062 99.4136C75.7009 99.3203 75.4816 99.2409 75.2482 99.1756C75.0242 99.1009 74.7956 99.0449 74.5622 99.0076C74.3289 98.9609 74.0909 98.9376 73.8482 98.9376C73.3442 98.9376 72.9569 99.0216 72.6862 99.1896C72.4249 99.3483 72.2942 99.5676 72.2942 99.8476C72.2942 100.053 72.3549 100.23 72.4762 100.38C72.5976 100.52 72.7982 100.66 73.0782 100.8C73.3676 100.93 73.7502 101.089 74.2262 101.276C74.7022 101.453 75.1082 101.635 75.4442 101.822C75.7802 102.008 76.0369 102.237 76.2142 102.508C76.3916 102.769 76.4802 103.1 76.4802 103.502ZM86.9422 96.5436C86.4102 96.5436 85.9295 96.6369 85.5002 96.8236C85.0708 97.0009 84.7068 97.2669 84.4082 97.6216C84.1095 97.9669 83.8808 98.3916 83.7222 98.8956C83.5635 99.3903 83.4842 99.9503 83.4842 100.576C83.4842 101.397 83.6102 102.111 83.8622 102.718C84.1235 103.324 84.5062 103.791 85.0102 104.118C85.5235 104.444 86.1628 104.608 86.9282 104.608C87.3668 104.608 87.7822 104.57 88.1742 104.496C88.5662 104.421 88.9488 104.328 89.3222 104.216V105.308C88.9488 105.448 88.5615 105.55 88.1602 105.616C87.7682 105.681 87.2968 105.714 86.7462 105.714C85.7288 105.714 84.8795 105.504 84.1982 105.084C83.5168 104.664 83.0035 104.066 82.6582 103.292C82.3222 102.517 82.1542 101.607 82.1542 100.562C82.1542 99.8056 82.2568 99.1149 82.4622 98.4896C82.6768 97.8643 82.9848 97.3229 83.3862 96.8656C83.7968 96.4083 84.3008 96.0583 84.8982 95.8156C85.4955 95.5636 86.1815 95.4376 86.9562 95.4376C87.4695 95.4376 87.9642 95.4889 88.4402 95.5916C88.9162 95.6943 89.3408 95.8389 89.7142 96.0256L89.2102 97.0896C88.9022 96.9496 88.5568 96.8236 88.1742 96.7116C87.8008 96.5996 87.3902 96.5436 86.9422 96.5436ZM98.1399 101.808C98.1399 102.433 98.0559 102.988 97.8879 103.474C97.7292 103.95 97.4959 104.356 97.1879 104.692C96.8892 105.028 96.5205 105.284 96.0819 105.462C95.6525 105.63 95.1719 105.714 94.6399 105.714C94.1452 105.714 93.6879 105.63 93.2679 105.462C92.8479 105.284 92.4839 105.028 92.1759 104.692C91.8679 104.356 91.6252 103.95 91.4479 103.474C91.2799 102.988 91.1959 102.433 91.1959 101.808C91.1959 100.977 91.3359 100.277 91.6159 99.7076C91.8959 99.1289 92.2972 98.6903 92.8199 98.3916C93.3425 98.0836 93.9632 97.9296 94.6819 97.9296C95.3632 97.9296 95.9605 98.0836 96.4739 98.3916C96.9965 98.6903 97.4025 99.1289 97.6919 99.7076C97.9905 100.277 98.1399 100.977 98.1399 101.808ZM92.4699 101.808C92.4699 102.396 92.5445 102.909 92.6939 103.348C92.8525 103.777 93.0952 104.108 93.4219 104.342C93.7485 104.575 94.1639 104.692 94.6679 104.692C95.1719 104.692 95.5872 104.575 95.9139 104.342C96.2405 104.108 96.4785 103.777 96.6279 103.348C96.7865 102.909 96.8659 102.396 96.8659 101.808C96.8659 101.21 96.7865 100.702 96.6279 100.282C96.4692 99.8616 96.2265 99.5396 95.8999 99.3156C95.5825 99.0823 95.1672 98.9656 94.6539 98.9656C93.8885 98.9656 93.3332 99.2176 92.9879 99.7216C92.6425 100.226 92.4699 100.921 92.4699 101.808ZM101.751 105.574L98.909 98.0696H100.225L101.821 102.494C101.896 102.699 101.975 102.928 102.059 103.18C102.143 103.432 102.218 103.674 102.283 103.908C102.348 104.132 102.395 104.323 102.423 104.482H102.479C102.516 104.323 102.568 104.127 102.633 103.894C102.708 103.66 102.787 103.418 102.871 103.166C102.964 102.914 103.044 102.69 103.109 102.494L104.705 98.0696H106.021L103.165 105.574H101.751ZM110.33 97.9436C111.245 97.9436 111.922 98.1443 112.36 98.5456C112.799 98.9469 113.018 99.5863 113.018 100.464V105.574H112.122L111.884 104.51H111.828C111.614 104.78 111.39 105.009 111.156 105.196C110.932 105.373 110.671 105.504 110.372 105.588C110.083 105.672 109.728 105.714 109.308 105.714C108.86 105.714 108.454 105.634 108.09 105.476C107.736 105.317 107.456 105.074 107.25 104.748C107.045 104.412 106.942 103.992 106.942 103.488C106.942 102.741 107.236 102.167 107.824 101.766C108.412 101.355 109.318 101.131 110.54 101.094L111.814 101.052V100.604C111.814 99.9783 111.679 99.5443 111.408 99.3016C111.138 99.0589 110.755 98.9376 110.26 98.9376C109.868 98.9376 109.495 98.9983 109.14 99.1196C108.786 99.2316 108.454 99.3623 108.146 99.5116L107.768 98.5876C108.095 98.4103 108.482 98.2609 108.93 98.1396C109.378 98.0089 109.845 97.9436 110.33 97.9436ZM110.694 101.948C109.761 101.985 109.112 102.134 108.748 102.396C108.394 102.657 108.216 103.026 108.216 103.502C108.216 103.922 108.342 104.23 108.594 104.426C108.856 104.622 109.187 104.72 109.588 104.72C110.223 104.72 110.75 104.547 111.17 104.202C111.59 103.847 111.8 103.306 111.8 102.578V101.906L110.694 101.948ZM116.848 105.574H115.616V94.9336H116.848V105.574ZM122.403 97.9296C123.047 97.9296 123.598 98.0696 124.055 98.3496C124.522 98.6296 124.877 99.0263 125.119 99.5396C125.371 100.044 125.497 100.636 125.497 101.318V102.06H120.359C120.378 102.909 120.593 103.558 121.003 104.006C121.423 104.444 122.007 104.664 122.753 104.664C123.229 104.664 123.649 104.622 124.013 104.538C124.387 104.444 124.769 104.314 125.161 104.146V105.224C124.779 105.392 124.401 105.513 124.027 105.588C123.654 105.672 123.211 105.714 122.697 105.714C121.988 105.714 121.358 105.569 120.807 105.28C120.266 104.99 119.841 104.561 119.533 103.992C119.235 103.413 119.085 102.708 119.085 101.878C119.085 101.056 119.221 100.352 119.491 99.7636C119.771 99.1756 120.159 98.7229 120.653 98.4056C121.157 98.0883 121.741 97.9296 122.403 97.9296ZM122.389 98.9376C121.801 98.9376 121.335 99.1289 120.989 99.5116C120.653 99.8849 120.453 100.408 120.387 101.08H124.209C124.209 100.65 124.144 100.277 124.013 99.9596C123.883 99.6423 123.682 99.3949 123.411 99.2176C123.15 99.0309 122.809 98.9376 122.389 98.9376ZM131.3 97.9296C132.196 97.9296 132.872 98.1489 133.33 98.5876C133.787 99.0169 134.016 99.7169 134.016 100.688V105.574H132.798V100.772C132.798 100.165 132.662 99.7123 132.392 99.4136C132.121 99.1149 131.696 98.9656 131.118 98.9656C130.287 98.9656 129.713 99.1989 129.396 99.6656C129.078 100.132 128.92 100.804 128.92 101.682V105.574H127.688V98.0696H128.682L128.864 99.0916H128.934C129.102 98.8303 129.307 98.6156 129.55 98.4476C129.802 98.2703 130.077 98.1396 130.376 98.0556C130.674 97.9716 130.982 97.9296 131.3 97.9296ZM139.128 104.706C139.315 104.706 139.506 104.692 139.702 104.664C139.898 104.626 140.057 104.589 140.178 104.552V105.49C140.047 105.555 139.861 105.606 139.618 105.644C139.375 105.69 139.142 105.714 138.918 105.714C138.526 105.714 138.162 105.648 137.826 105.518C137.499 105.378 137.233 105.14 137.028 104.804C136.823 104.468 136.72 103.996 136.72 103.39V99.0216H135.656V98.4336L136.734 97.9436L137.224 96.3476H137.952V98.0696H140.122V99.0216H137.952V103.362C137.952 103.819 138.059 104.16 138.274 104.384C138.498 104.598 138.783 104.706 139.128 104.706ZM61.4268 120.332C61.3708 120.136 61.3148 119.944 61.2588 119.758C61.2028 119.562 61.1514 119.38 61.1048 119.212C61.0674 119.034 61.0301 118.871 60.9928 118.722C60.9554 118.572 60.9274 118.446 60.9088 118.344H60.8528C60.8341 118.446 60.8061 118.572 60.7688 118.722C60.7408 118.871 60.7034 119.034 60.6568 119.212C60.6194 119.389 60.5728 119.576 60.5168 119.772C60.4701 119.958 60.4141 120.15 60.3488 120.346L59.0048 124.56H57.6048L55.5468 117.056H56.8208L57.8568 121.06C57.9314 121.33 58.0014 121.606 58.0668 121.886C58.1321 122.156 58.1881 122.418 58.2348 122.67C58.2908 122.912 58.3281 123.122 58.3468 123.3H58.4028C58.4308 123.188 58.4634 123.048 58.5008 122.88C58.5381 122.712 58.5754 122.534 58.6128 122.348C58.6594 122.161 58.7061 121.974 58.7528 121.788C58.8088 121.601 58.8601 121.433 58.9068 121.284L60.2368 117.056H61.5808L62.8688 121.284C62.9341 121.498 62.9994 121.727 63.0648 121.97C63.1394 122.212 63.2048 122.45 63.2608 122.684C63.3168 122.908 63.3541 123.108 63.3728 123.286H63.4288C63.4474 123.127 63.4801 122.931 63.5268 122.698C63.5828 122.455 63.6434 122.194 63.7088 121.914C63.7834 121.624 63.8581 121.34 63.9328 121.06L64.9828 117.056H66.2428L64.1568 124.56H62.7148L61.4268 120.332ZM74.3926 120.808C74.3926 121.433 74.3086 121.988 74.1406 122.474C73.982 122.95 73.7486 123.356 73.4406 123.692C73.142 124.028 72.7733 124.284 72.3346 124.462C71.9053 124.63 71.4246 124.714 70.8926 124.714C70.398 124.714 69.9406 124.63 69.5206 124.462C69.1006 124.284 68.7366 124.028 68.4286 123.692C68.1206 123.356 67.878 122.95 67.7006 122.474C67.5326 121.988 67.4486 121.433 67.4486 120.808C67.4486 119.977 67.5886 119.277 67.8686 118.708C68.1486 118.129 68.55 117.69 69.0726 117.392C69.5953 117.084 70.216 116.93 70.9346 116.93C71.616 116.93 72.2133 117.084 72.7266 117.392C73.2493 117.69 73.6553 118.129 73.9446 118.708C74.2433 119.277 74.3926 119.977 74.3926 120.808ZM68.7226 120.808C68.7226 121.396 68.7973 121.909 68.9466 122.348C69.1053 122.777 69.348 123.108 69.6746 123.342C70.0013 123.575 70.4166 123.692 70.9206 123.692C71.4246 123.692 71.84 123.575 72.1666 123.342C72.4933 123.108 72.7313 122.777 72.8806 122.348C73.0393 121.909 73.1186 121.396 73.1186 120.808C73.1186 120.21 73.0393 119.702 72.8806 119.282C72.722 118.862 72.4793 118.54 72.1526 118.316C71.8353 118.082 71.42 117.966 70.9066 117.966C70.1413 117.966 69.586 118.218 69.2406 118.722C68.8953 119.226 68.7226 119.921 68.7226 120.808ZM80.1252 116.93C80.2652 116.93 80.4145 116.939 80.5732 116.958C80.7412 116.967 80.8859 116.986 81.0072 117.014L80.8532 118.148C80.7319 118.12 80.5965 118.096 80.4472 118.078C80.3072 118.059 80.1719 118.05 80.0412 118.05C79.7519 118.05 79.4765 118.11 79.2152 118.232C78.9539 118.353 78.7205 118.526 78.5152 118.75C78.3099 118.964 78.1465 119.226 78.0252 119.534C77.9132 119.842 77.8572 120.187 77.8572 120.57V124.574H76.6252V117.07H77.6332L77.7732 118.442H77.8292C77.9879 118.162 78.1792 117.91 78.4032 117.686C78.6272 117.452 78.8839 117.27 79.1732 117.14C79.4625 117 79.7799 116.93 80.1252 116.93ZM83.9064 119.492C83.9064 119.641 83.8971 119.837 83.8784 120.08C83.8691 120.322 83.8597 120.532 83.8504 120.71H83.9064C83.9624 120.635 84.0464 120.528 84.1584 120.388C84.2704 120.248 84.3824 120.108 84.4944 119.968C84.6157 119.818 84.7184 119.697 84.8024 119.604L87.1964 117.07H88.6384L85.6004 120.276L88.8484 124.574H87.3644L84.7604 121.074L83.9064 121.816V124.574H82.6884V113.934H83.9064V119.492ZM91.2169 121.382C91.2169 121.027 91.2496 120.724 91.3149 120.472C91.3896 120.21 91.5109 119.963 91.6789 119.73C91.8562 119.496 92.0942 119.254 92.3929 119.002C92.7569 118.694 93.0369 118.437 93.2329 118.232C93.4382 118.026 93.5829 117.826 93.6669 117.63C93.7509 117.434 93.7929 117.196 93.7929 116.916C93.7929 116.468 93.6482 116.122 93.3589 115.88C93.0696 115.637 92.6496 115.516 92.0989 115.516C91.6416 115.516 91.2356 115.576 90.8809 115.698C90.5262 115.81 90.1856 115.945 89.8589 116.104L89.4249 115.124C89.7982 114.928 90.2089 114.764 90.6569 114.634C91.1142 114.503 91.6229 114.438 92.1829 114.438C93.0696 114.438 93.7556 114.657 94.2409 115.096C94.7262 115.534 94.9689 116.132 94.9689 116.888C94.9689 117.308 94.8989 117.667 94.7589 117.966C94.6282 118.255 94.4369 118.526 94.1849 118.778C93.9422 119.02 93.6529 119.282 93.3169 119.562C93.0089 119.823 92.7709 120.052 92.6029 120.248C92.4442 120.444 92.3369 120.64 92.2809 120.836C92.2249 121.022 92.1969 121.251 92.1969 121.522V121.76H91.2169V121.382ZM90.8949 123.818C90.8949 123.472 90.9742 123.23 91.1329 123.09C91.3009 122.95 91.5109 122.88 91.7629 122.88C91.9962 122.88 92.1969 122.95 92.3649 123.09C92.5329 123.23 92.6169 123.472 92.6169 123.818C92.6169 124.154 92.5329 124.396 92.3649 124.546C92.1969 124.695 91.9962 124.77 91.7629 124.77C91.5109 124.77 91.3009 124.695 91.1329 124.546C90.9742 124.396 90.8949 124.154 90.8949 123.818Z" fill="#F9F9F9"/>
<path d="M10.2294 107.324H140.766V108.024H10.2294V107.324ZM55.3928 126.324H95.6129V127.024H55.3928V126.324Z" fill="#F9F9F9"/>
<a href="https://github.com/AgnostiqHQ/covalent/blob/develop/README.md#how-does-it-work">
<rect fill="black" fill-opacity="0" x="9.72938" width="134.181" height="19.068"/>
</a>
<a href="https://github.com/AgnostiqHQ/covalent/blob/develop/README.md#how-does-it-work">
<rect fill="black" fill-opacity="0" x="54.8928" y="19.068" width="39.9401" height="19.068"/>
</a>
</svg>
