<svg width="136" height="110" viewBox="0 0 136 110" fill="none" xmlns="http://www.w3.org/2000/svg">
<circle cx="68.5" cy="32.5736" r="32" fill="#D9D9D9"/>
<path d="M61.6123 19.7836C64.5756 19.7836 67.0001 22.1791 67.0001 25.107C67.0001 28.0349 64.5756 30.4305 61.6123 30.4305C58.649 30.4305 56.2245 28.0349 56.2245 25.107C56.2245 22.1791 58.649 19.7836 61.6123 19.7836ZM61.6123 18.5737C57.9633 18.5737 55 21.5016 55 25.107C55 28.7124 57.9633 31.6403 61.6123 31.6403C65.2613 31.6403 68.2246 28.7124 68.2246 25.107C68.2246 21.5016 65.2613 18.5737 61.6123 18.5737Z" fill="#5452F6"/>
<path d="M77.041 35.028C80.0043 35.028 82.4288 37.4235 82.4288 40.3514C82.4288 43.2793 80.0043 45.6748 77.041 45.6748C74.0777 45.6748 71.6532 43.2793 71.6532 40.3514C71.6532 37.4235 74.0777 35.028 77.041 35.028ZM77.041 33.8181C73.392 33.8181 70.4287 36.746 70.4287 40.3514C70.4287 43.9568 73.392 46.8847 77.041 46.8847C80.69 46.8847 83.6533 43.9568 83.6533 40.3514C83.6533 36.746 80.69 33.8181 77.041 33.8181Z" fill="#5452F6"/>
<path d="M70.4287 18.5736L83.6533 31.6402H70.4287V18.5736Z" fill="#5452F6"/>
<path d="M68.2246 33.818H55V46.8846H68.2246V33.818Z" fill="#5452F6"/>
<path d="M20.7285 94.5776L18.0685 104.574H16.7945L14.8485 98.0216C14.7925 97.8256 14.7365 97.6249 14.6805 97.4196C14.6245 97.2143 14.5732 97.0183 14.5265 96.8316C14.4798 96.6449 14.4378 96.4863 14.4005 96.3556C14.3725 96.2156 14.3538 96.1129 14.3445 96.0476C14.3352 96.1129 14.3165 96.2156 14.2885 96.3556C14.2698 96.4863 14.2372 96.6449 14.1905 96.8316C14.1438 97.0183 14.0925 97.2189 14.0365 97.4336C13.9898 97.6389 13.9338 97.8489 13.8685 98.0636L11.9785 104.574H10.7045L8.05851 94.5776H9.37451L10.9285 100.682C10.9845 100.896 11.0358 101.111 11.0825 101.326C11.1292 101.531 11.1712 101.736 11.2085 101.942C11.2552 102.138 11.2925 102.329 11.3205 102.516C11.3485 102.702 11.3765 102.884 11.4045 103.062C11.4325 102.875 11.4605 102.684 11.4885 102.488C11.5258 102.292 11.5678 102.091 11.6145 101.886C11.6612 101.671 11.7125 101.456 11.7685 101.242C11.8245 101.027 11.8805 100.817 11.9365 100.612L13.7005 94.5776H15.0025L16.8365 100.654C16.9018 100.868 16.9625 101.088 17.0185 101.312C17.0745 101.526 17.1258 101.736 17.1725 101.942C17.2192 102.147 17.2565 102.348 17.2845 102.544C17.3218 102.73 17.3545 102.903 17.3825 103.062C17.4105 102.828 17.4478 102.586 17.4945 102.334C17.5412 102.072 17.5972 101.802 17.6625 101.522C17.7278 101.242 17.7978 100.957 17.8725 100.668L19.4125 94.5776H20.7285ZM23.6081 97.0556C23.6081 97.2329 23.5988 97.4149 23.5801 97.6016C23.5708 97.7883 23.5568 97.9563 23.5381 98.1056H23.6221C23.7808 97.8443 23.9815 97.6296 24.2241 97.4616C24.4668 97.2936 24.7375 97.1676 25.0361 97.0836C25.3348 96.9903 25.6428 96.9436 25.9601 96.9436C26.5668 96.9436 27.0708 97.0416 27.4721 97.2376C27.8828 97.4243 28.1908 97.7183 28.3961 98.1196C28.6015 98.5209 28.7041 99.0436 28.7041 99.6876V104.574H27.4861V99.7716C27.4861 99.1649 27.3508 98.7123 27.0801 98.4136C26.8095 98.1149 26.3848 97.9656 25.8061 97.9656C25.2461 97.9656 24.8075 98.0729 24.4901 98.2876C24.1728 98.4929 23.9441 98.8009 23.8041 99.2116C23.6735 99.6129 23.6081 100.108 23.6081 100.696V104.574H22.3761V93.9336H23.6081V97.0556ZM34.1524 96.9436C35.0671 96.9436 35.7438 97.1443 36.1824 97.5456C36.6211 97.9469 36.8404 98.5863 36.8404 99.4636V104.574H35.9444L35.7064 103.51H35.6504C35.4358 103.78 35.2118 104.009 34.9784 104.196C34.7544 104.373 34.4931 104.504 34.1944 104.588C33.9051 104.672 33.5504 104.714 33.1304 104.714C32.6824 104.714 32.2764 104.634 31.9124 104.476C31.5578 104.317 31.2778 104.074 31.0724 103.748C30.8671 103.412 30.7644 102.992 30.7644 102.488C30.7644 101.741 31.0584 101.167 31.6464 100.766C32.2344 100.355 33.1398 100.131 34.3624 100.094L35.6364 100.052V99.6036C35.6364 98.9783 35.5011 98.5443 35.2304 98.3016C34.9598 98.0589 34.5771 97.9376 34.0824 97.9376C33.6904 97.9376 33.3171 97.9983 32.9624 98.1196C32.6078 98.2316 32.2764 98.3623 31.9684 98.5116L31.5904 97.5876C31.9171 97.4103 32.3044 97.2609 32.7524 97.1396C33.2004 97.0089 33.6671 96.9436 34.1524 96.9436ZM34.5164 100.948C33.5831 100.985 32.9344 101.134 32.5704 101.396C32.2158 101.657 32.0384 102.026 32.0384 102.502C32.0384 102.922 32.1644 103.23 32.4164 103.426C32.6778 103.622 33.0091 103.72 33.4104 103.72C34.0451 103.72 34.5724 103.547 34.9924 103.202C35.4124 102.847 35.6224 102.306 35.6224 101.578V100.906L34.5164 100.948ZM41.9441 103.706C42.1308 103.706 42.3221 103.692 42.5181 103.664C42.7141 103.626 42.8728 103.589 42.9941 103.552V104.49C42.8634 104.555 42.6768 104.606 42.4341 104.644C42.1914 104.69 41.9581 104.714 41.7341 104.714C41.3421 104.714 40.9781 104.648 40.6421 104.518C40.3154 104.378 40.0494 104.14 39.8441 103.804C39.6388 103.468 39.5361 102.996 39.5361 102.39V98.0216H38.4721V97.4336L39.5501 96.9436L40.0401 95.3476H40.7681V97.0696H42.9381V98.0216H40.7681V102.362C40.7681 102.819 40.8754 103.16 41.0901 103.384C41.3141 103.598 41.5988 103.706 41.9441 103.706ZM49.9254 97.0696V104.574H48.6934V97.0696H49.9254ZM49.3234 94.2556C49.5101 94.2556 49.6734 94.3209 49.8134 94.4516C49.9627 94.5729 50.0374 94.7689 50.0374 95.0396C50.0374 95.3009 49.9627 95.4969 49.8134 95.6276C49.6734 95.7583 49.5101 95.8236 49.3234 95.8236C49.1181 95.8236 48.9454 95.7583 48.8054 95.6276C48.6654 95.4969 48.5954 95.3009 48.5954 95.0396C48.5954 94.7689 48.6654 94.5729 48.8054 94.4516C48.9454 94.3209 49.1181 94.2556 49.3234 94.2556ZM57.4688 102.502C57.4688 102.987 57.3474 103.393 57.1048 103.72C56.8621 104.046 56.5168 104.294 56.0688 104.462C55.6208 104.63 55.0888 104.714 54.4728 104.714C53.9501 104.714 53.4974 104.672 53.1148 104.588C52.7414 104.504 52.4101 104.387 52.1208 104.238V103.118C52.4194 103.267 52.7788 103.407 53.1988 103.538C53.6281 103.659 54.0621 103.72 54.5008 103.72C55.1261 103.72 55.5788 103.622 55.8588 103.426C56.1388 103.22 56.2788 102.95 56.2788 102.614C56.2788 102.427 56.2274 102.259 56.1248 102.11C56.0221 101.96 55.8354 101.811 55.5648 101.662C55.3034 101.512 54.9254 101.344 54.4308 101.158C53.9454 100.971 53.5301 100.784 53.1848 100.598C52.8394 100.411 52.5734 100.187 52.3868 99.9256C52.2001 99.6643 52.1068 99.3283 52.1068 98.9176C52.1068 98.2829 52.3634 97.7929 52.8768 97.4476C53.3994 97.1023 54.0808 96.9296 54.9208 96.9296C55.3781 96.9296 55.8028 96.9763 56.1948 97.0696C56.5961 97.1536 56.9694 97.2749 57.3148 97.4336L56.8948 98.4136C56.6894 98.3203 56.4701 98.2409 56.2368 98.1756C56.0128 98.1009 55.7841 98.0449 55.5508 98.0076C55.3174 97.9609 55.0794 97.9376 54.8368 97.9376C54.3328 97.9376 53.9454 98.0216 53.6748 98.1896C53.4134 98.3483 53.2828 98.5676 53.2828 98.8476C53.2828 99.0529 53.3434 99.2303 53.4648 99.3796C53.5861 99.5196 53.7868 99.6596 54.0668 99.7996C54.3561 99.9303 54.7388 100.089 55.2148 100.276C55.6908 100.453 56.0968 100.635 56.4328 100.822C56.7688 101.008 57.0254 101.237 57.2028 101.508C57.3801 101.769 57.4688 102.1 57.4688 102.502ZM67.9307 95.5436C67.3987 95.5436 66.918 95.6369 66.4887 95.8236C66.0594 96.0009 65.6954 96.2669 65.3967 96.6216C65.098 96.9669 64.8694 97.3916 64.7107 97.8956C64.552 98.3903 64.4727 98.9503 64.4727 99.5756C64.4727 100.397 64.5987 101.111 64.8507 101.718C65.112 102.324 65.4947 102.791 65.9987 103.118C66.512 103.444 67.1514 103.608 67.9167 103.608C68.3554 103.608 68.7707 103.57 69.1627 103.496C69.5547 103.421 69.9374 103.328 70.3107 103.216V104.308C69.9374 104.448 69.55 104.55 69.1487 104.616C68.7567 104.681 68.2854 104.714 67.7347 104.714C66.7174 104.714 65.868 104.504 65.1867 104.084C64.5054 103.664 63.992 103.066 63.6467 102.292C63.3107 101.517 63.1427 100.607 63.1427 99.5616C63.1427 98.8056 63.2454 98.1149 63.4507 97.4896C63.6654 96.8643 63.9734 96.3229 64.3747 95.8656C64.7854 95.4083 65.2894 95.0583 65.8867 94.8156C66.484 94.5636 67.17 94.4376 67.9447 94.4376C68.458 94.4376 68.9527 94.4889 69.4287 94.5916C69.9047 94.6943 70.3294 94.8389 70.7027 95.0256L70.1987 96.0896C69.8907 95.9496 69.5454 95.8236 69.1627 95.7116C68.7894 95.5996 68.3787 95.5436 67.9307 95.5436ZM79.1284 100.808C79.1284 101.433 79.0444 101.988 78.8764 102.474C78.7177 102.95 78.4844 103.356 78.1764 103.692C77.8777 104.028 77.5091 104.284 77.0704 104.462C76.6411 104.63 76.1604 104.714 75.6284 104.714C75.1337 104.714 74.6764 104.63 74.2564 104.462C73.8364 104.284 73.4724 104.028 73.1644 103.692C72.8564 103.356 72.6137 102.95 72.4364 102.474C72.2684 101.988 72.1844 101.433 72.1844 100.808C72.1844 99.9769 72.3244 99.2769 72.6044 98.7076C72.8844 98.1289 73.2857 97.6903 73.8084 97.3916C74.3311 97.0836 74.9517 96.9296 75.6704 96.9296C76.3517 96.9296 76.9491 97.0836 77.4624 97.3916C77.9851 97.6903 78.3911 98.1289 78.6804 98.7076C78.9791 99.2769 79.1284 99.9769 79.1284 100.808ZM73.4584 100.808C73.4584 101.396 73.5331 101.909 73.6824 102.348C73.8411 102.777 74.0837 103.108 74.4104 103.342C74.7371 103.575 75.1524 103.692 75.6564 103.692C76.1604 103.692 76.5757 103.575 76.9024 103.342C77.2291 103.108 77.4671 102.777 77.6164 102.348C77.7751 101.909 77.8544 101.396 77.8544 100.808C77.8544 100.21 77.7751 99.7016 77.6164 99.2816C77.4577 98.8616 77.2151 98.5396 76.8884 98.3156C76.5711 98.0823 76.1557 97.9656 75.6424 97.9656C74.8771 97.9656 74.3217 98.2176 73.9764 98.7216C73.6311 99.2256 73.4584 99.9209 73.4584 100.808ZM82.7395 104.574L79.8975 97.0696H81.2135L82.8095 101.494C82.8842 101.699 82.9635 101.928 83.0475 102.18C83.1315 102.432 83.2062 102.674 83.2715 102.908C83.3369 103.132 83.3835 103.323 83.4115 103.482H83.4675C83.5049 103.323 83.5562 103.127 83.6215 102.894C83.6962 102.66 83.7755 102.418 83.8595 102.166C83.9529 101.914 84.0322 101.69 84.0975 101.494L85.6935 97.0696H87.0095L84.1535 104.574H82.7395ZM91.3189 96.9436C92.2336 96.9436 92.9102 97.1443 93.3489 97.5456C93.7876 97.9469 94.0069 98.5863 94.0069 99.4636V104.574H93.1109L92.8729 103.51H92.8169C92.6022 103.78 92.3782 104.009 92.1449 104.196C91.9209 104.373 91.6596 104.504 91.3609 104.588C91.0716 104.672 90.7169 104.714 90.2969 104.714C89.8489 104.714 89.4429 104.634 89.0789 104.476C88.7242 104.317 88.4442 104.074 88.2389 103.748C88.0336 103.412 87.9309 102.992 87.9309 102.488C87.9309 101.741 88.2249 101.167 88.8129 100.766C89.4009 100.355 90.3062 100.131 91.5289 100.094L92.8029 100.052V99.6036C92.8029 98.9783 92.6676 98.5443 92.3969 98.3016C92.1262 98.0589 91.7436 97.9376 91.2489 97.9376C90.8569 97.9376 90.4836 97.9983 90.1289 98.1196C89.7742 98.2316 89.4429 98.3623 89.1349 98.5116L88.7569 97.5876C89.0836 97.4103 89.4709 97.2609 89.9189 97.1396C90.3669 97.0089 90.8336 96.9436 91.3189 96.9436ZM91.6829 100.948C90.7496 100.985 90.1009 101.134 89.7369 101.396C89.3822 101.657 89.2049 102.026 89.2049 102.502C89.2049 102.922 89.3309 103.23 89.5829 103.426C89.8442 103.622 90.1756 103.72 90.5769 103.72C91.2116 103.72 91.7389 103.547 92.1589 103.202C92.5789 102.847 92.7889 102.306 92.7889 101.578V100.906L91.6829 100.948ZM97.8366 104.574H96.6046V93.9336H97.8366V104.574ZM103.392 96.9296C104.036 96.9296 104.587 97.0696 105.044 97.3496C105.511 97.6296 105.865 98.0263 106.108 98.5396C106.36 99.0436 106.486 99.6363 106.486 100.318V101.06H101.348C101.367 101.909 101.581 102.558 101.992 103.006C102.412 103.444 102.995 103.664 103.742 103.664C104.218 103.664 104.638 103.622 105.002 103.538C105.375 103.444 105.758 103.314 106.15 103.146V104.224C105.767 104.392 105.389 104.513 105.016 104.588C104.643 104.672 104.199 104.714 103.686 104.714C102.977 104.714 102.347 104.569 101.796 104.28C101.255 103.99 100.83 103.561 100.522 102.992C100.223 102.413 100.074 101.708 100.074 100.878C100.074 100.056 100.209 99.3516 100.48 98.7636C100.76 98.1756 101.147 97.7229 101.642 97.4056C102.146 97.0883 102.729 96.9296 103.392 96.9296ZM103.378 97.9376C102.79 97.9376 102.323 98.1289 101.978 98.5116C101.642 98.8849 101.441 99.4076 101.376 100.08H105.198C105.198 99.6503 105.133 99.2769 105.002 98.9596C104.871 98.6423 104.671 98.3949 104.4 98.2176C104.139 98.0309 103.798 97.9376 103.378 97.9376ZM112.288 96.9296C113.184 96.9296 113.861 97.1489 114.318 97.5876C114.776 98.0169 115.004 98.7169 115.004 99.6876V104.574H113.786V99.7716C113.786 99.1649 113.651 98.7123 113.38 98.4136C113.11 98.1149 112.685 97.9656 112.106 97.9656C111.276 97.9656 110.702 98.1989 110.384 98.6656C110.067 99.1323 109.908 99.8043 109.908 100.682V104.574H108.676V97.0696H109.67L109.852 98.0916H109.922C110.09 97.8303 110.296 97.6156 110.538 97.4476C110.79 97.2703 111.066 97.1396 111.364 97.0556C111.663 96.9716 111.971 96.9296 112.288 96.9296ZM120.117 103.706C120.303 103.706 120.495 103.692 120.691 103.664C120.887 103.626 121.045 103.589 121.167 103.552V104.49C121.036 104.555 120.849 104.606 120.607 104.644C120.364 104.69 120.131 104.714 119.907 104.714C119.515 104.714 119.151 104.648 118.815 104.518C118.488 104.378 118.222 104.14 118.017 103.804C117.811 103.468 117.709 102.996 117.709 102.39V98.0216H116.645V97.4336L117.723 96.9436L118.213 95.3476H118.941V97.0696H121.111V98.0216H118.941V102.362C118.941 102.819 119.048 103.16 119.263 103.384C119.487 103.598 119.771 103.706 120.117 103.706ZM123.719 101.382C123.719 101.027 123.752 100.724 123.817 100.472C123.892 100.21 124.013 99.9629 124.181 99.7296C124.359 99.4963 124.597 99.2536 124.895 99.0016C125.259 98.6936 125.539 98.4369 125.735 98.2316C125.941 98.0263 126.085 97.8256 126.169 97.6296C126.253 97.4336 126.295 97.1956 126.295 96.9156C126.295 96.4676 126.151 96.1223 125.861 95.8796C125.572 95.6369 125.152 95.5156 124.601 95.5156C124.144 95.5156 123.738 95.5763 123.383 95.6976C123.029 95.8096 122.688 95.9449 122.361 96.1036L121.927 95.1236C122.301 94.9276 122.711 94.7643 123.159 94.6336C123.617 94.5029 124.125 94.4376 124.685 94.4376C125.572 94.4376 126.258 94.6569 126.743 95.0956C127.229 95.5343 127.471 96.1316 127.471 96.8876C127.471 97.3076 127.401 97.6669 127.261 97.9656C127.131 98.2549 126.939 98.5256 126.687 98.7776C126.445 99.0203 126.155 99.2816 125.819 99.5616C125.511 99.8229 125.273 100.052 125.105 100.248C124.947 100.444 124.839 100.64 124.783 100.836C124.727 101.022 124.699 101.251 124.699 101.522V101.76H123.719V101.382ZM123.397 103.818C123.397 103.472 123.477 103.23 123.635 103.09C123.803 102.95 124.013 102.88 124.265 102.88C124.499 102.88 124.699 102.95 124.867 103.09C125.035 103.23 125.119 103.472 125.119 103.818C125.119 104.154 125.035 104.396 124.867 104.546C124.699 104.695 124.499 104.77 124.265 104.77C124.013 104.77 123.803 104.695 123.635 104.546C123.477 104.396 123.397 104.154 123.397 103.818Z" fill="#F9F9F9"/>
<path d="M7.89051 106.324H128.115V107.024H7.89051V106.324Z" fill="#F9F9F9"/>
<a href="https://www.covalent.xyz/what-is-covalent/">
<rect fill="black" fill-opacity="0" x="7.39051" width="119.945" height="19.068"/>
</a>
</svg>
