<svg width="14" height="14" viewBox="0 0 14 14" fill="none" xmlns="http://www.w3.org/2000/svg">
<path d="M12.25 1.75H1.75C1.51794 1.75 1.29538 1.84219 1.13128 2.00628C0.967187 2.17038 0.875 2.39294 0.875 2.625V11.375C0.875 11.6071 0.967187 11.8296 1.13128 11.9937C1.29538 12.1578 1.51794 12.25 1.75 12.25H12.25C12.4821 12.25 12.7046 12.1578 12.8687 11.9937C13.0328 11.8296 13.125 11.6071 13.125 11.375V2.625C13.125 2.39294 13.0328 2.17038 12.8687 2.00628C12.7046 1.84219 12.4821 1.75 12.25 1.75ZM1.75 2.625H8.75V11.375H1.75V2.625ZM12.25 11.375H9.625V2.625H12.25V11.375Z" fill="#CBCBD7"/>
</svg>
