<svg width="14" height="14" viewBox="0 0 14 14" fill="none" xmlns="http://www.w3.org/2000/svg">
<path fill-rule="evenodd" clip-rule="evenodd" d="M0.875 7.875H1.75V1.75H7.875V0.875H1.75C1.51794 0.875 1.29538 0.967187 1.13128 1.13128C0.967187 1.29538 0.875 1.51794 0.875 1.75V7.875ZM12.25 12.25V4.375H4.375V12.25H12.25ZM4.375 3.5H12.25C12.4821 3.5 12.7046 3.59219 12.8687 3.75628C13.0328 3.92038 13.125 4.14294 13.125 4.375V12.25C13.125 12.4821 13.0328 12.7046 12.8687 12.8687C12.7046 13.0328 12.4821 13.125 12.25 13.125H4.375C4.14294 13.125 3.92038 13.0328 3.75628 12.8687C3.59219 12.7046 3.5 12.4821 3.5 12.25V4.375C3.5 4.14294 3.59219 3.92038 3.75628 3.75628C3.92038 3.59219 4.14294 3.5 4.375 3.5Z" fill="#CBCBD7"/>
</svg>
