<svg width="12" height="14" viewBox="0 0 12 14" fill="none" xmlns="http://www.w3.org/2000/svg">
<path fill-rule="evenodd" clip-rule="evenodd" d="M4.25 0.875H7.75V1.75H4.25V0.875ZM0.75 2.625V3.5H1.625V12.25C1.625 12.4821 1.71719 12.7046 1.88128 12.8687C2.04538 13.0328 2.26794 13.125 2.5 13.125H9.5C9.73206 13.125 9.95462 13.0328 10.1187 12.8687C10.2828 12.7046 10.375 12.4821 10.375 12.25V3.5H11.25V2.625H0.75ZM2.5 12.25V3.5H9.5V12.25H2.5ZM4.25 5.25H5.125V10.5H4.25V5.25ZM6.875 5.25H7.75V10.5H6.875V5.25Z" fill="#CBCBD7"/>
</svg>
