<svg width="114" height="64" viewBox="0 0 114 64" fill="none" xmlns="http://www.w3.org/2000/svg">
<g clip-path="url(#clip0_643_26838)">
<path d="M46.0664 1.71215C50.2046 1.71215 53.5903 5.10219 53.5903 9.24558C53.5903 13.389 50.2046 16.779 46.0664 16.779C41.9283 16.779 38.5426 13.389 38.5426 9.24558C38.5426 5.10219 41.9283 1.71215 46.0664 1.71215ZM46.0664 0C40.9708 0 36.8326 4.14339 36.8326 9.24558C36.8326 14.3478 40.9708 18.4912 46.0664 18.4912C51.1621 18.4912 55.3002 14.3478 55.3002 9.24558C55.3002 4.14339 51.1621 0 46.0664 0Z" fill="#6D7CFF"/>
<path d="M67.612 23.2844C71.7501 23.2844 75.1358 26.6745 75.1358 30.8179C75.1358 34.9612 71.7501 38.3513 67.612 38.3513C63.4739 38.3513 60.0881 34.9612 60.0881 30.8179C60.0881 26.6745 63.4739 23.2844 67.612 23.2844ZM67.612 21.5723C62.5163 21.5723 58.3782 25.7157 58.3782 30.8179C58.3782 35.92 62.5163 40.0634 67.612 40.0634C72.7077 40.0634 76.8458 35.92 76.8458 30.8179C76.8458 25.7157 72.7077 21.5723 67.612 21.5723Z" fill="#6D7CFF"/>
<path d="M58.3782 0L76.8458 18.4912H58.3782V0Z" fill="#6D7CFF"/>
<path d="M55.3002 21.5723H36.8326V40.0634H55.3002V21.5723Z" fill="#6D7CFF"/>
<path d="M110.361 59.0696C111.25 59.0696 111.968 59.7887 111.968 60.679C111.968 61.5693 111.25 62.2884 110.361 62.2884C109.472 62.2884 108.754 61.5693 108.754 60.679C108.754 59.7887 109.472 59.0696 110.361 59.0696ZM110.361 57.3574C108.514 57.3574 107.044 58.8299 107.044 60.679C107.044 62.5281 108.514 64.0005 110.361 64.0005C112.208 64.0005 113.678 62.5281 113.678 60.679C113.678 58.8299 112.174 57.3574 110.361 57.3574Z" fill="#6D7CFF"/>
<path d="M0 54.5145C0 49.2068 3.83032 45.0977 9.3706 45.0977C13.7139 45.0977 16.7576 47.4604 17.681 50.6793L14.1585 52.049C13.3719 49.8574 11.9013 48.3507 9.3022 48.3507C6.05327 48.3507 4.06971 50.6108 4.06971 54.5145C4.06971 58.4181 6.01907 60.7124 9.3022 60.7124C11.8671 60.7124 13.4745 59.1715 14.2611 56.9799L17.7152 58.3839C16.4156 61.8767 13.6797 63.9997 9.3364 63.9997C3.69352 63.9997 0 60.0276 0 54.5145Z" fill="white"/>
<path d="M19.1174 57.1513C19.1174 53.0079 21.956 50.3027 25.8889 50.3027C29.8218 50.3027 32.6603 53.0079 32.6603 57.1513C32.6603 61.3632 29.8218 63.9999 25.8889 63.9999C21.956 63.9999 19.1174 61.1235 19.1174 57.1513ZM28.8642 57.1856C28.8642 54.5146 27.6672 53.1791 25.8889 53.1791C24.1447 53.1791 22.9135 54.5146 22.9135 57.1856C22.9135 59.8565 24.1105 61.0893 25.8889 61.0893C27.6672 61.0893 28.8642 59.8565 28.8642 57.1856Z" fill="white"/>
<path d="M37.3114 63.5893L32.3525 50.6797H36.1829L37.9612 55.9531C38.6452 58.0419 38.7478 59.035 38.8162 61.3292H40.1842C40.2526 59.035 40.2868 57.9049 40.9365 55.9531L42.6465 50.6797H46.3742L41.6889 63.5893H37.3114Z" fill="white"/>
<path d="M46.7846 60.2683C46.7846 56.6728 50.6149 55.6113 54.8899 55.2004V54.721C54.8899 53.6252 54.2401 52.9404 52.7695 52.9404C51.0937 52.9404 50.2388 53.7622 49.931 54.9949L46.6478 54.2758C46.853 52.2555 49.0076 50.3379 52.7695 50.3379C56.3946 50.3379 58.515 51.9473 58.515 55.3374V60.0629C58.515 60.7135 58.5834 60.8505 59.3016 60.8505H60.4301V63.6241H58.9254C56.6682 63.6241 56.1552 62.8366 56.121 60.9532H54.9241C54.4111 62.6311 53.2141 64.0351 50.9911 64.0351C48.5288 64.0008 46.7846 62.5626 46.7846 60.2683ZM54.8899 58.2822V57.4604C52.5301 57.7344 50.5123 58.2138 50.5123 59.9259C50.5123 60.782 51.0937 61.3299 52.1881 61.3299C53.5903 61.3299 54.8899 60.3711 54.8899 58.2822Z" fill="white"/>
<path d="M62.0375 63.5888V45.0977H65.6968V63.5888H62.0375Z" fill="white"/>
<path d="M67.3041 57.1171C67.3041 53.0764 70.0742 50.3027 73.8361 50.3027C78.1794 50.3027 80.4366 53.6928 80.0604 58.0074H70.9634C71.066 60.2674 72.263 61.192 73.8361 61.192C75.4777 61.192 76.2985 60.1647 76.8115 58.932L80.0946 60.1989C79.3764 61.8426 77.7348 63.9657 73.8361 63.9657C69.869 63.9999 67.3041 61.329 67.3041 57.1171ZM76.4353 55.4392C76.2643 53.8298 75.3409 52.9394 73.8019 52.9394C72.3314 52.9394 71.3396 53.8298 71.066 55.4392H76.4353Z" fill="white"/>
<path d="M81.6337 63.589V50.6794H84.9168C84.8826 51.5355 84.3354 52.6313 83.6514 53.6585H85.2588C85.8402 51.8094 87.1397 50.3027 89.1917 50.3027C92.0302 50.3027 93.5692 52.1861 93.5692 55.0625V63.589H89.9441V55.7474C89.9441 54.0352 89.1575 53.3161 87.8921 53.3161C85.3272 53.3161 85.3272 56.0898 85.3272 57.4595V63.589H81.6337Z" fill="white"/>
<path d="M101.161 63.5889C99.0752 63.5889 97.8783 62.2192 97.8783 60.1989V53.453H95.1765V50.6793H97.8783V46.6387H101.538V50.6793H104.889V53.453H101.538V59.514C101.538 60.3016 101.88 60.644 102.666 60.644H105.436V63.5547H101.161V63.5889Z" fill="white"/>
</g>
<defs>
<clipPath id="clip0_643_26838">
<rect width="113.678" height="64" fill="white"/>
</clipPath>
</defs>
</svg>
