<svg width="20" height="20" viewBox="0 0 20 20" fill="none" xmlns="http://www.w3.org/2000/svg">
<path fill-rule="evenodd" clip-rule="evenodd" d="M3.75 18.75H7.5V17.5H3.75V2.5H13.75V8.75H15V2.5C14.9997 2.16859 14.8678 1.85085 14.6335 1.6165C14.3992 1.38216 14.0814 1.25035 13.75 1.25H3.75C3.41859 1.25035 3.10085 1.38216 2.8665 1.6165C2.63216 1.85085 2.50035 2.16859 2.5 2.5V17.5C2.50035 17.8314 2.63216 18.1492 2.8665 18.3835C3.10085 18.6178 3.41859 18.7497 3.75 18.75ZM5 3.75H12.5V5H5V3.75ZM5 6.25H12.5V7.5H5V6.25ZM8.75 8.75H5V10H8.75V8.75ZM5 15H7.5V16.25H5V15ZM18.5669 12.0581L16.6919 10.1831C16.6339 10.1251 16.565 10.079 16.4892 10.0476C16.4133 10.0162 16.3321 10 16.25 10C16.1679 10 16.0867 10.0162 16.0108 10.0476C15.935 10.079 15.8661 10.1251 15.8081 10.1831L10 15.9912V18.75H12.7588L18.5669 12.9419C18.6249 12.8839 18.671 12.815 18.7024 12.7392C18.7338 12.6634 18.75 12.5821 18.75 12.5C18.75 12.4179 18.7338 12.3367 18.7024 12.2609C18.671 12.185 18.6249 12.1162 18.5669 12.0581ZM12.2412 17.5H11.25V16.5088L14.375 13.3838L15.3662 14.375L12.2412 17.5ZM16.25 13.4912L15.2588 12.5L16.25 11.5088L17.2412 12.5L16.25 13.4912Z" fill="#86869A"/>
</svg>
