<svg width="30" height="30" viewBox="0 0 30 30" fill="none" xmlns="http://www.w3.org/2000/svg">
<rect x="0.5" y="0.5" width="29" height="29" rx="6.5" fill="#040406"/>
<path fill-rule="evenodd" clip-rule="evenodd" d="M21.1875 10H23.75V11.25H21.1875C20.875 12.6875 19.625 13.75 18.125 13.75C16.625 13.75 15.375 12.6875 15.0625 11.25H6.25V10H15.0625C15.375 8.5625 16.625 7.5 18.125 7.5C19.625 7.5 20.875 8.5625 21.1875 10ZM16.25 10.625C16.25 11.6875 17.0625 12.5 18.125 12.5C19.1875 12.5 20 11.6875 20 10.625C20 9.5625 19.1875 8.75 18.125 8.75C17.0625 8.75 16.25 9.5625 16.25 10.625ZM8.8125 20H6.25V18.75H8.8125C9.125 17.3125 10.375 16.25 11.875 16.25C13.375 16.25 14.625 17.3125 14.9375 18.75H23.75V20H14.9375C14.625 21.4375 13.375 22.5 11.875 22.5C10.375 22.5 9.125 21.4375 8.8125 20ZM13.75 19.375C13.75 18.3125 12.9375 17.5 11.875 17.5C10.8125 17.5 10 18.3125 10 19.375C10 20.4375 10.8125 21.25 11.875 21.25C12.9375 21.25 13.75 20.4375 13.75 19.375Z" fill="#AEB6FF"/>
<rect x="0.5" y="0.5" width="29" height="29" rx="6.5" stroke="#998AFF"/>
</svg>
