<svg width="40" height="20" viewBox="0 0 40 20" fill="none" xmlns="http://www.w3.org/2000/svg">
<path d="M0 0H1C1.55228 0 2 0.447715 2 1V19C2 19.5523 1.55228 20 1 20H0V0Z" fill="#08081A"/>
<path fill-rule="evenodd" clip-rule="evenodd" d="M36.875 9.99989V10.4749L38.0563 11.5561C38.2743 11.7473 38.4191 12.0083 38.4659 12.2945C38.5126 12.5807 38.4584 12.8743 38.3125 13.1249L36.8875 15.6249C36.7779 15.8147 36.6203 15.9724 36.4306 16.0821C36.2408 16.1918 36.0255 16.2497 35.8063 16.2499C35.6704 16.2509 35.5353 16.2298 35.4063 16.1874L33.8938 15.6749C33.6294 15.8492 33.3538 16.0058 33.0688 16.1436L32.75 17.7186C32.6929 18.0064 32.5363 18.2649 32.3078 18.4488C32.0793 18.6328 31.7934 18.7305 31.5 18.7249H28.55C28.2567 18.7305 27.9708 18.6328 27.7423 18.4488C27.5137 18.2649 27.3572 18.0064 27.3 17.7186L26.9813 16.1436C26.6983 16.0057 26.4247 15.8491 26.1625 15.6749L24.6438 16.1874C24.5147 16.2298 24.3796 16.2509 24.2438 16.2499C24.0246 16.2497 23.8093 16.1918 23.6195 16.0821C23.4297 15.9724 23.2721 15.8147 23.1625 15.6249L21.6875 13.1249C21.535 12.8718 21.477 12.5729 21.5239 12.2811C21.5708 11.9893 21.7196 11.7236 21.9438 11.5311L23.125 10.4811V9.99989V9.52489L21.9438 8.44364C21.7257 8.25247 21.5809 7.99143 21.5342 7.70524C21.4874 7.41905 21.5417 7.12551 21.6875 6.87489L23.1625 4.37489C23.2721 4.18505 23.4297 4.02738 23.6195 3.91768C23.8093 3.80798 24.0246 3.75011 24.2438 3.74989C24.3783 3.74074 24.5133 3.7534 24.6438 3.78739L26.1313 4.32489C26.3956 4.15061 26.6712 3.99401 26.9563 3.85614L27.275 2.28114C27.3322 1.99339 27.4887 1.73491 27.7173 1.55095C27.9458 1.36699 28.2317 1.26927 28.525 1.27489H31.45C31.7434 1.26927 32.0293 1.36699 32.2578 1.55095C32.4863 1.73491 32.6429 1.99339 32.7 2.28114L33.0188 3.85614C33.3018 3.99405 33.5753 4.15064 33.8375 4.32489L35.3563 3.81239C35.4853 3.76996 35.6204 3.74885 35.7563 3.74989C35.9755 3.75011 36.1908 3.80798 36.3806 3.91768C36.5703 4.02738 36.7279 4.18505 36.8375 4.37489L38.3125 6.87489C38.4673 7.12588 38.5283 7.4235 38.4849 7.71514C38.4414 8.00678 38.2962 8.27367 38.075 8.46864L36.875 9.51864V9.99989ZM33.6125 14.2749L35.7563 14.9999L37.2313 12.4999L35.5313 10.9561C35.6469 10.3092 35.6469 9.64685 35.5313 8.99989L37.2313 7.49989L35.7563 4.99989L33.6063 5.69989C33.1027 5.2806 32.5323 4.9489 31.9188 4.71864L31.475 2.49989H28.525L28.0813 4.74364C27.4629 4.96755 26.8894 5.29982 26.3875 5.72489L24.2438 4.99989L22.7688 7.49989L24.4688 9.04364C24.3532 9.6906 24.3532 10.3529 24.4688 10.9999L22.7688 12.4999L24.2438 14.9999L26.3938 14.2999C26.8974 14.7192 27.4678 15.0509 28.0813 15.2811L28.525 17.4999H31.475L31.9188 15.2561C32.5372 15.0322 33.1107 14.7 33.6125 14.2749ZM27.9166 13.118C28.5333 13.53 29.2584 13.7499 30 13.7499C30.4939 13.755 30.9838 13.6614 31.441 13.4747C31.8982 13.288 32.3136 13.012 32.6629 12.6628C33.0121 12.3135 33.2881 11.8981 33.4748 11.4409C33.6615 10.9837 33.755 10.4938 33.75 9.99994C33.75 9.25826 33.5301 8.53324 33.118 7.91655C32.706 7.29987 32.1203 6.81922 31.4351 6.53539C30.7499 6.25156 29.9959 6.1773 29.2684 6.322C28.541 6.46669 27.8728 6.82384 27.3484 7.34829C26.8239 7.87274 26.4668 8.54092 26.3221 9.26835C26.1774 9.99578 26.2517 10.7498 26.5355 11.435C26.8193 12.1202 27.3 12.7059 27.9166 13.118ZM29.0343 7.67456C29.3411 7.55165 29.6696 7.49224 30 7.49994C30.3304 7.49224 30.659 7.55165 30.9658 7.67456C31.2726 7.79747 31.5512 7.98134 31.7849 8.21503C32.0186 8.44873 32.2025 8.72741 32.3254 9.0342C32.4483 9.34099 32.5077 9.66953 32.5 9.99994C32.5077 10.3303 32.4483 10.6589 32.3254 10.9657C32.2025 11.2725 32.0186 11.5511 31.7849 11.7848C31.5512 12.0185 31.2726 12.2024 30.9658 12.3253C30.659 12.4482 30.3304 12.5076 30 12.4999C29.6696 12.5076 29.3411 12.4482 29.0343 12.3253C28.7275 12.2024 28.4488 12.0185 28.2151 11.7848C27.9814 11.5511 27.7976 11.2725 27.6747 10.9657C27.5517 10.6589 27.4923 10.3303 27.5 9.99994C27.4923 9.66953 27.5517 9.34099 27.6747 9.0342C27.7976 8.72741 27.9814 8.44873 28.2151 8.21503C28.4488 7.98134 28.7275 7.79747 29.0343 7.67456Z" fill="#86869A"/>
</svg>
