<svg width="20" height="20" viewBox="0 0 20 20" fill="none" xmlns="http://www.w3.org/2000/svg">
<path fill-rule="evenodd" clip-rule="evenodd" d="M16.8748 9.99989V10.4749L18.056 11.5561C18.2741 11.7473 18.4189 12.0083 18.4656 12.2945C18.5124 12.5807 18.4582 12.8743 18.3123 13.1249L16.8873 15.6249C16.7777 15.8147 16.6201 15.9724 16.4303 16.0821C16.2405 16.1918 16.0252 16.2497 15.806 16.2499C15.6702 16.2509 15.5351 16.2298 15.406 16.1874L13.8935 15.6749C13.6292 15.8492 13.3536 16.0058 13.0685 16.1436L12.7498 17.7186C12.6926 18.0064 12.5361 18.2649 12.3076 18.4488C12.0791 18.6328 11.7931 18.7305 11.4998 18.7249H8.54979C8.25648 18.7305 7.97053 18.6328 7.74201 18.4488C7.51348 18.2649 7.35695 18.0064 7.29979 17.7186L6.98104 16.1436C6.69803 16.0057 6.4245 15.8491 6.16229 15.6749L4.64354 16.1874C4.51449 16.2298 4.37939 16.2509 4.24354 16.2499C4.02434 16.2497 3.80905 16.1918 3.61927 16.0821C3.42949 15.9724 3.27189 15.8147 3.16229 15.6249L1.68729 13.1249C1.53473 12.8718 1.47676 12.5729 1.52367 12.2811C1.57058 11.9893 1.71933 11.7236 1.94354 11.5311L3.12479 10.4811V9.99989V9.52489L1.94354 8.44364C1.72549 8.25247 1.5807 7.99143 1.53395 7.70524C1.4872 7.41905 1.54141 7.12551 1.68729 6.87489L3.16229 4.37489C3.27189 4.18505 3.42949 4.02738 3.61927 3.91768C3.80905 3.80798 4.02434 3.75011 4.24354 3.74989C4.37803 3.74074 4.5131 3.7534 4.64354 3.78739L6.13104 4.32489C6.3954 4.15061 6.671 3.99401 6.95604 3.85614L7.27479 2.28114C7.33195 1.99339 7.48848 1.73491 7.71701 1.55095C7.94553 1.36699 8.23148 1.26927 8.52479 1.27489H11.4498C11.7431 1.26927 12.0291 1.36699 12.2576 1.55095C12.4861 1.73491 12.6426 1.99339 12.6998 2.28114L13.0185 3.85614C13.3016 3.99405 13.5751 4.15064 13.8373 4.32489L15.356 3.81239C15.4851 3.76996 15.6202 3.74885 15.756 3.74989C15.9752 3.75011 16.1905 3.80798 16.3803 3.91768C16.5701 4.02738 16.7277 4.18505 16.8373 4.37489L18.3123 6.87489C18.467 7.12588 18.5281 7.4235 18.4846 7.71514C18.4412 8.00678 18.296 8.27367 18.0748 8.46864L16.8748 9.51864V9.99989ZM13.6123 14.2749L15.756 14.9999L17.231 12.4999L15.531 10.9561C15.6466 10.3092 15.6466 9.64685 15.531 8.99989L17.231 7.49989L15.756 4.99989L13.606 5.69989C13.1025 5.2806 12.532 4.9489 11.9185 4.71864L11.4748 2.49989H8.52479L8.08104 4.74364C7.46267 4.96755 6.88913 5.29982 6.38729 5.72489L4.24354 4.99989L2.76854 7.49989L4.46854 9.04364C4.35298 9.6906 4.35298 10.3529 4.46854 10.9999L2.76854 12.4999L4.24354 14.9999L6.39354 14.2999C6.89712 14.7192 7.46756 15.0509 8.08104 15.2811L8.52479 17.4999H11.4748L11.9185 15.2561C12.5369 15.0322 13.1105 14.7 13.6123 14.2749ZM7.9164 13.118C8.53308 13.53 9.25811 13.7499 9.99979 13.7499C10.4936 13.755 10.9835 13.6614 11.4408 13.4747C11.898 13.288 12.3134 13.012 12.6626 12.6628C13.0118 12.3135 13.2879 11.8981 13.4745 11.4409C13.6612 10.9837 13.7548 10.4938 13.7498 9.99994C13.7498 9.25826 13.5299 8.53324 13.1178 7.91655C12.7057 7.29987 12.1201 6.81922 11.4348 6.53539C10.7496 6.25156 9.99563 6.1773 9.2682 6.322C8.54077 6.46669 7.87258 6.82384 7.34814 7.34829C6.82369 7.87274 6.46654 8.54092 6.32184 9.26835C6.17715 9.99578 6.25141 10.7498 6.53524 11.435C6.81907 12.1202 7.29972 12.7059 7.9164 13.118ZM9.03405 7.67456C9.34084 7.55165 9.66938 7.49224 9.99979 7.49994C10.3302 7.49224 10.6587 7.55165 10.9655 7.67456C11.2723 7.79747 11.551 7.98134 11.7847 8.21503C12.0184 8.44873 12.2023 8.72741 12.3252 9.0342C12.4481 9.34099 12.5075 9.66953 12.4998 9.99994C12.5075 10.3303 12.4481 10.6589 12.3252 10.9657C12.2023 11.2725 12.0184 11.5511 11.7847 11.7848C11.551 12.0185 11.2723 12.2024 10.9655 12.3253C10.6587 12.4482 10.3302 12.5076 9.99979 12.4999C9.66938 12.5076 9.34084 12.4482 9.03405 12.3253C8.72725 12.2024 8.44858 12.0185 8.21488 11.7848C7.98118 11.5511 7.79732 11.2725 7.67441 10.9657C7.55149 10.6589 7.49209 10.3303 7.49979 9.99994C7.49209 9.66953 7.55149 9.34099 7.67441 9.0342C7.79732 8.72741 7.98118 8.44873 8.21488 8.21503C8.44858 7.98134 8.72725 7.79747 9.03405 7.67456Z" fill="#86869A"/>
</svg>