<svg width="18" height="18" viewBox="0 0 14 14" fill="none" xmlns="http://www.w3.org/2000/svg">
<path fill-rule="evenodd" clip-rule="evenodd" d="M1.3125 11.375H12.6875C12.8035 11.375 12.9148 11.3289 12.9969 11.2469C13.0789 11.1648 13.125 11.0535 13.125 10.9375V3.5C13.125 3.38397 13.0789 3.27269 12.9969 3.19064C12.9148 3.10859 12.8035 3.0625 12.6875 3.0625H9.86125L9.11312 1.94687C9.07349 1.88669 9.01961 1.83723 8.95626 1.80288C8.89291 1.76854 8.82206 1.75037 8.75 1.75H5.25C5.17794 1.75037 5.10709 1.76854 5.04374 1.80288C4.98039 1.83723 4.92651 1.88669 4.88688 1.94687L4.13875 3.0625H1.3125C1.19647 3.0625 1.08519 3.10859 1.00314 3.19064C0.921094 3.27269 0.875 3.38397 0.875 3.5V10.9375C0.875 11.0535 0.921094 11.1648 1.00314 11.2469C1.08519 11.3289 1.19647 11.375 1.3125 11.375ZM12.25 10.5H1.75V3.9375H4.375C4.44706 3.93713 4.51791 3.91896 4.58126 3.88462C4.64461 3.85027 4.69849 3.80081 4.73812 3.74063L5.48625 2.625H8.51375L9.26188 3.74063C9.30151 3.80081 9.35539 3.85027 9.41874 3.88462C9.48209 3.91896 9.55294 3.93713 9.625 3.9375H12.25V10.5ZM5.54163 9.18261C5.97331 9.47105 6.48082 9.625 7 9.625C7.69619 9.625 8.36387 9.34844 8.85616 8.85616C9.34844 8.36387 9.625 7.69619 9.625 7C9.625 6.48082 9.47105 5.97331 9.18261 5.54163C8.89417 5.10995 8.4842 4.7735 8.00454 4.57482C7.52489 4.37614 6.99709 4.32415 6.48789 4.42544C5.97869 4.52673 5.51096 4.77673 5.14385 5.14385C4.77673 5.51096 4.52673 5.97869 4.42544 6.48789C4.32415 6.99709 4.37614 7.52489 4.57482 8.00454C4.7735 8.4842 5.10995 8.89417 5.54163 9.18261ZM6.02775 5.54493C6.31554 5.35264 6.65388 5.25 7 5.25C7.46413 5.25 7.90925 5.43438 8.23744 5.76256C8.56563 6.09075 8.75 6.53587 8.75 7C8.75 7.34612 8.64737 7.68446 8.45507 7.97225C8.26278 8.26003 7.98947 8.48434 7.6697 8.61679C7.34993 8.74924 6.99806 8.7839 6.65859 8.71638C6.31913 8.64885 6.00731 8.48218 5.76256 8.23744C5.51782 7.9927 5.35115 7.68088 5.28363 7.34141C5.2161 7.00194 5.25076 6.65008 5.38321 6.33031C5.51567 6.01053 5.73997 5.73722 6.02775 5.54493Z" fill="#FAFAFA"/>
</svg>
