<svg width="28" height="32" viewBox="0 0 28 32" fill="none" xmlns="http://www.w3.org/2000/svg">
<g filter="url(#filter0_d_1433_34837)">
<path fill-rule="evenodd" clip-rule="evenodd" d="M20.1875 9H22.75V10.25H20.1875C19.875 11.6875 18.625 12.75 17.125 12.75C15.625 12.75 14.375 11.6875 14.0625 10.25H5.25V9H14.0625C14.375 7.5625 15.625 6.5 17.125 6.5C18.625 6.5 19.875 7.5625 20.1875 9ZM15.25 9.625C15.25 10.6875 16.0625 11.5 17.125 11.5C18.1875 11.5 19 10.6875 19 9.625C19 8.5625 18.1875 7.75 17.125 7.75C16.0625 7.75 15.25 8.5625 15.25 9.625ZM7.8125 19H5.25V17.75H7.8125C8.125 16.3125 9.375 15.25 10.875 15.25C12.375 15.25 13.625 16.3125 13.9375 17.75H22.75V19H13.9375C13.625 20.4375 12.375 21.5 10.875 21.5C9.375 21.5 8.125 20.4375 7.8125 19ZM12.75 18.375C12.75 17.3125 11.9375 16.5 10.875 16.5C9.8125 16.5 9 17.3125 9 18.375C9 19.4375 9.8125 20.25 10.875 20.25C11.9375 20.25 12.75 19.4375 12.75 18.375Z" fill="#AEB6FF"/>
</g>
<defs>
<filter id="filter0_d_1433_34837" x="-4" y="0" width="36" height="36" filterUnits="userSpaceOnUse" color-interpolation-filters="sRGB">
<feFlood flood-opacity="0" result="BackgroundImageFix"/>
<feColorMatrix in="SourceAlpha" type="matrix" values="0 0 0 0 0 0 0 0 0 0 0 0 0 0 0 0 0 0 127 0" result="hardAlpha"/>
<feOffset dy="4"/>
<feGaussianBlur stdDeviation="2"/>
<feComposite in2="hardAlpha" operator="out"/>
<feColorMatrix type="matrix" values="0 0 0 0 0 0 0 0 0 0 0 0 0 0 0 0 0 0 0.25 0"/>
<feBlend mode="normal" in2="BackgroundImageFix" result="effect1_dropShadow_1433_34837"/>
<feBlend mode="normal" in="SourceGraphic" in2="effect1_dropShadow_1433_34837" result="shape"/>
</filter>
</defs>
</svg>
