      <svg width="16" height="16" viewBox="0 0 16 16" fill="none" xmlns="http://www.w3.org/2000/svg">
<path d="M13 7.99999C12.644 8.00179 12.2951 8.0995 11.99 8.28284L10.5607 6.85359L11.7072 5.70709C11.8947 5.51955 12.0001 5.2652 12.0001 4.99999C12.0001 4.73477 11.8947 4.48042 11.7072 4.29289L8.70722 1.29289C8.51968 1.10535 8.26533 1 8.00012 1C7.7349 1 7.48055 1.10535 7.29302 1.29289L4.29302 4.29289C4.10548 4.48042 4.00013 4.73477 4.00013 4.99999C4.00013 5.2652 4.10548 5.51955 4.29302 5.70709L5.43952 6.85359L4.01002 8.28284C3.58645 8.03155 3.08572 7.94354 2.60185 8.03533C2.11799 8.12711 1.68427 8.39238 1.38215 8.78132C1.08003 9.17026 0.930285 9.65611 0.96104 10.1476C0.991795 10.6392 1.20093 11.1026 1.54918 11.4508C1.89742 11.7991 2.36082 12.0082 2.85236 12.039C3.34389 12.0697 3.82975 11.92 4.21869 11.6179C4.60762 11.3157 4.87289 10.882 4.96468 10.3981C5.05646 9.91428 4.96845 9.41355 4.71717 8.98999L6.14642 7.56069L7.29292 8.70719C7.3549 8.76751 7.42452 8.81943 7.50002 8.86164V11H6.00002V15H10V11H8.50002V8.86164C8.57551 8.8194 8.64514 8.76744 8.70712 8.70709L9.85362 7.56059L11.2829 8.98999C11.0615 9.36978 10.9718 9.81208 11.0278 10.2481C11.0837 10.6841 11.2822 11.0895 11.5923 11.401C11.9024 11.7126 12.3068 11.913 12.7426 11.971C13.1783 12.0291 13.621 11.9415 14.0019 11.7219C14.3827 11.5023 14.6803 11.1631 14.8485 10.7569C15.0166 10.3507 15.0458 9.90036 14.9315 9.47587C14.8172 9.05138 14.5659 8.67653 14.2166 8.40963C13.8673 8.14272 13.4396 7.99871 13 7.99999V7.99999ZM4.00002 9.99999C4.00002 10.1978 3.94137 10.3911 3.83149 10.5556C3.7216 10.72 3.56543 10.8482 3.3827 10.9239C3.19997 10.9996 2.99891 11.0194 2.80493 10.9808C2.61095 10.9422 2.43276 10.8469 2.29291 10.7071C2.15306 10.5672 2.05782 10.3891 2.01923 10.1951C1.98065 10.0011 2.00045 9.80003 2.07614 9.6173C2.15182 9.43458 2.28 9.2784 2.44445 9.16852C2.6089 9.05864 2.80224 8.99999 3.00002 8.99999C3.26514 9.00029 3.51932 9.10575 3.70679 9.29322C3.89426 9.48069 3.99971 9.73486 4.00002 9.99999ZM9.00002 12V14H7.00002V12H9.00002ZM8.00002 7.99999L5.00002 4.99999L8.00002 1.99999L11 4.99999L8.00002 7.99999ZM13 11C12.8022 11 12.6089 10.9413 12.4444 10.8315C12.28 10.7216 12.1518 10.5654 12.0761 10.3827C12.0004 10.1999 11.9806 9.99888 12.0192 9.8049C12.0578 9.61092 12.1531 9.43273 12.2929 9.29288C12.4328 9.15303 12.6109 9.05779 12.8049 9.0192C12.9989 8.98062 13.2 9.00042 13.3827 9.07611C13.5654 9.15179 13.7216 9.27997 13.8315 9.44442C13.9414 9.60887 14 9.80221 14 9.99999C13.9997 10.2651 13.8943 10.5193 13.7068 10.7068C13.5193 10.8942 13.2651 10.9997 13 11V11Z" fill="#CBCBD7"/>
</svg>
