<svg xmlns="http://www.w3.org/2000/svg" xmlns:xlink="http://www.w3.org/1999/xlink" viewBox="0 0 331.96 345.81"><defs><clipPath id="clip-path"><path d="M180.92,157a4.52,4.52,0,0,1,4.64,2.08,6.7,6.7,0,0,1,2.47-3.14,7.06,7.06,0,0,1,5.95-1c.11.06.15-.08.2-.14a4.18,4.18,0,0,1,3.88-2.17,4.73,4.73,0,0,1,1.48.32,4,4,0,0,1,3.66-2.37,4.36,4.36,0,0,1,2.11.57A4.19,4.19,0,0,1,208,150h.47a4.25,4.25,0,0,1,3.9,3.35,3.12,3.12,0,0,1,3.12,1.2c.05.1.16,0,.22,0a2.85,2.85,0,0,1,3.09-.32,2.88,2.88,0,0,1,1.55,2.32,5.35,5.35,0,0,1,8.66,3,4,4,0,0,1,3.41-1.64,4.57,4.57,0,0,1,1.51.36,4.17,4.17,0,0,1,5.61-2.61c.1,0,.23.11.31,0a4.14,4.14,0,0,1,3.05-1.24,4.08,4.08,0,0,1,2,.56,5.84,5.84,0,0,1,5.53-3.39,5.76,5.76,0,0,1,4,1.78,6.54,6.54,0,0,1,4-.48,6.4,6.4,0,0,1,4.54,3.53,3.72,3.72,0,0,1,4.48-1.06,4.61,4.61,0,0,1,6.85,2.3,4.51,4.51,0,0,1,.55-.52V69.35h-94V157A.45.45,0,0,0,180.92,157Z" fill="none"/></clipPath><clipPath id="clip-path-2"><polygon points="211.27 145.65 227.02 136.55 227.02 86.45 211.27 95.54 211.27 145.65" fill="#4939ff"/></clipPath><clipPath id="clip-path-3"><polygon points="211.27 167.09 227.02 157.99 227.02 107.89 211.27 116.98 211.27 167.09" fill="#4939ff"/></clipPath><clipPath id="clip-path-4"><polygon points="247.54 145.65 263.29 136.55 263.29 86.45 247.54 95.54 247.54 145.65" fill="#4939ff"/></clipPath><clipPath id="clip-path-5"><polygon points="247.54 167.09 263.29 157.99 263.29 107.89 247.54 116.98 247.54 167.09" fill="#4939ff"/></clipPath></defs><title>Remote Server</title><g id="Layer_1" data-name="Layer 1"><circle cx="31.56" cy="182.87" r="25.93" fill="#5552ff"/><circle cx="31.56" cy="174.62" r="7.53" fill="#fff"/><path d="M31.56,198.66a20.33,20.33,0,0,0,11.79-3.76,12,12,0,0,0-23.58,0A20.31,20.31,0,0,0,31.56,198.66Z" fill="#fff"/><rect x="10.65" y="221.44" width="41.83" height="11.98" rx="5.99" fill="#5552ff"/><text transform="translate(22.94 229.38)" font-size="6.43" fill="#fff" font-family="NeueMachina-Regular, Neue Machina"><tspan letter-spacing="0em">Us</tspan><tspan x="7.46" y="0" letter-spacing="-0.01em">e</tspan><tspan x="11.21" y="0" letter-spacing="0em">r</tspan><tspan x="14.03" y="0">s</tspan></text><rect x="136.48" y="6.2" width="185.74" height="23.91" rx="11.96" fill="#5552ff"/><text transform="translate(151.52 22.04)" font-size="12.84" fill="#fff" font-family="NeueMachina-Regular, Neue Machina"><tspan letter-spacing="-0.02em">C</tspan><tspan x="9.65" y="0" letter-spacing="-0.02em">o</tspan><tspan x="17.47" y="0" letter-spacing="-0.01em">v</tspan><tspan x="24.22" y="0" letter-spacing="0em">a</tspan><tspan x="31.82" y="0" letter-spacing="-0.03em">l</tspan><tspan x="37.04" y="0" letter-spacing="-0.01em">e</tspan><tspan x="44.53" y="0" letter-spacing="-0.01em">n</tspan><tspan x="52.16" y="0">t </tspan><tspan x="61.98" y="0" letter-spacing="-0.01em">R</tspan><tspan x="70.31" y="0" letter-spacing="-0.01em">e</tspan><tspan x="77.8" y="0" letter-spacing="-0.01em">m</tspan><tspan x="89.31" y="0" letter-spacing="-0.03em">ot</tspan><tspan x="102.2" y="0">e </tspan><tspan x="114.11" y="0" letter-spacing="0em">S</tspan><tspan x="122.74" y="0" letter-spacing="-0.01em">e</tspan><tspan x="130.23" y="0" letter-spacing="0em">r</tspan><tspan x="135.89" y="0" letter-spacing="-0.02em">v</tspan><tspan x="142.52" y="0" letter-spacing="-0.01em">e</tspan><tspan x="150.01" y="0">r</tspan></text><rect x="182.82" y="171.49" width="93.08" height="11.98" rx="5.99" fill="#5552ff"/><text transform="translate(193.21 179.43)" font-size="6.43" fill="#fff" font-family="NeueMachina-Regular, Neue Machina"><tspan letter-spacing="0em">Pu</tspan><tspan x="7.74" y="0" letter-spacing="-0.05em">b</tspan><tspan x="11.66" y="0" letter-spacing="0em">l</tspan><tspan x="14.46" y="0" letter-spacing="-0.03em">i</tspan><tspan x="17.12" y="0">c / </tspan><tspan x="28.37" y="0" letter-spacing="-0.01em">P</tspan><tspan x="32.24" y="0">r</tspan><tspan x="35.08" y="0" letter-spacing="-0.06em">i</tspan><tspan x="37.54" y="0" letter-spacing="-0.01em">v</tspan><tspan x="40.93" y="0" letter-spacing="-0.03em">a</tspan><tspan x="44.53" y="0" letter-spacing="-0.03em">t</tspan><tspan x="47.12" y="0">e </tspan><tspan x="53.09" y="0" letter-spacing="-0.06em">C</tspan><tspan x="57.69" y="0" letter-spacing="-0.03em">l</tspan><tspan x="60.31" y="0" letter-spacing="-0.01em">o</tspan><tspan x="64.28" y="0" letter-spacing="-0.01em">u</tspan><tspan x="68.08" y="0">d</tspan></text><rect x="203.03" y="301.08" width="57.33" height="11.98" rx="5.99" fill="#5552ff"/><text transform="translate(213.37 309.02)" font-size="6.43" fill="#fff" font-family="NeueMachina-Regular, Neue Machina"><tspan letter-spacing="-0.02em">O</tspan><tspan x="4.9" y="0">n </tspan><tspan x="10.93" y="0" letter-spacing="-0.01em">P</tspan><tspan x="14.8" y="0" letter-spacing="-0.03em">r</tspan><tspan x="17.41" y="0" letter-spacing="-0.01em">em</tspan><tspan x="26.88" y="0" letter-spacing="-0.02em">i</tspan><tspan x="29.61" y="0" letter-spacing="0em">s</tspan><tspan x="32.81" y="0">e</tspan></text><rect x="132.38" y="50.76" width="193.96" height="288.86" rx="12" fill="none" stroke="#5552ff" stroke-miterlimit="10"/><path d="M59,182.87h82.11a10.4,10.4,0,0,0,10.4-10.4V135.66a10.41,10.41,0,0,1,10.41-10.4h26.84" fill="none" stroke="#9ccde2" stroke-miterlimit="10" stroke-dasharray="3"/><path d="M138.75,182.87h2.37a10.4,10.4,0,0,1,10.4,10.41v49.84a10.41,10.41,0,0,0,10.41,10.4h35.22" fill="none" stroke="#9ccde2" stroke-miterlimit="10" stroke-dasharray="3"/><polygon points="190.66 125.26 184.95 122.66 184.95 127.86 190.66 125.26" fill="#9ccde2"/><polygon points="199.61 253.52 193.91 250.92 193.91 256.12 199.61 253.52" fill="#9ccde2"/><path d="M250.44,271.51a14.18,14.18,0,0,0-4.21-3.56c-7.93-4.58-20.78-4.58-28.7,0a13.93,13.93,0,0,0-4.21,3.56h-1.74v4.72c0,3,2,6,5.94,8.29,7.93,4.58,20.78,4.58,28.71,0,4-2.29,5.94-5.29,5.94-8.29h0v-4.72Z" fill="#8b9bf0"/><ellipse cx="231.88" cy="271.51" rx="20.3" ry="11.72" fill="#5552ff"/><path d="M250.44,260.24a14.18,14.18,0,0,0-4.21-3.56c-7.93-4.58-20.78-4.58-28.7,0a13.93,13.93,0,0,0-4.21,3.56h-1.74V265c0,3,2,6,5.94,8.29,7.93,4.58,20.78,4.58,28.71,0,4-2.29,5.94-5.29,5.94-8.29h0v-4.72Z" fill="#8b9bf0"/><ellipse cx="231.88" cy="260.24" rx="20.3" ry="11.72" fill="#5552ff"/><path d="M250.44,249a14.18,14.18,0,0,0-4.21-3.56c-7.93-4.58-20.78-4.58-28.7,0a13.93,13.93,0,0,0-4.21,3.56h-1.74v4.72c0,3,2,6,5.94,8.29,7.93,4.58,20.78,4.58,28.71,0,4-2.29,5.94-5.29,5.94-8.29h0V249Z" fill="#8b9bf0"/><ellipse cx="231.88" cy="248.97" rx="20.3" ry="11.72" fill="#5552ff"/><ellipse cx="231.88" cy="241.98" rx="20.3" ry="11.72" fill="none" stroke="#8b9bf0" stroke-miterlimit="10" stroke-width="0.25" stroke-dasharray="1 1"/><path d="M229.43,262.88a.62.62,0,0,0-.5-.69.63.63,0,0,0-.73.45.63.63,0,0,0,1.23.24Z" fill="#fff"/><path d="M235.1,263.35a16.29,16.29,0,0,1-4.12.29.56.56,0,0,1-.55-.59v-.11a.57.57,0,0,1,.61-.51,14.81,14.81,0,0,0,3.81-.28.57.57,0,0,1,.67.42l0,.11A.57.57,0,0,1,235.1,263.35Z" fill="#fff"/><path d="M229.43,274.58a.61.61,0,0,0-.5-.69.63.63,0,0,0-.73.45.63.63,0,0,0,1.23.24Z" fill="#fff"/><path d="M235.1,275.05a16.29,16.29,0,0,1-4.12.29.56.56,0,0,1-.55-.59v-.11a.57.57,0,0,1,.61-.51,14.81,14.81,0,0,0,3.81-.28.57.57,0,0,1,.67.42l0,.11A.57.57,0,0,1,235.1,275.05Z" fill="#fff"/><path d="M229.43,285.58a.61.61,0,0,0-.5-.69.62.62,0,0,0-.73.45.63.63,0,0,0,1.23.24Z" fill="#fff"/><path d="M235.1,286.05a16.29,16.29,0,0,1-4.12.29.56.56,0,0,1-.55-.6v-.1a.58.58,0,0,1,.61-.52,15.26,15.26,0,0,0,3.81-.27.57.57,0,0,1,.67.42l0,.1A.57.57,0,0,1,235.1,286.05Z" fill="#fff"/><polygon points="208.49 236.71 207.56 233.74 204.52 233.05 202.41 235.34 203.34 238.32 206.38 239 208.49 236.71" fill="#8b9bf0"/><polygon points="202.41 235.34 205.45 236.03 207.56 233.74 204.52 233.05 202.41 235.34" fill="#5552ff"/><polygon points="248.45 218.34 247.54 215.37 244.5 214.67 242.38 216.95 243.29 219.93 246.33 220.63 248.45 218.34" fill="#8b9bf0"/><polygon points="242.38 216.95 245.41 217.65 247.54 215.37 244.5 214.67 242.38 216.95" fill="#5552ff"/><polygon points="265.63 250.32 267.06 246.18 264.2 242.88 259.9 243.7 258.47 247.83 261.33 251.14 265.63 250.32" fill="#8b9bf0"/><polygon points="259.9 243.7 262.76 247.01 267.06 246.18 264.2 242.88 259.9 243.7" fill="#5552ff"/><g id="Layer_1-2" data-name="Layer 1-2"><path d="M234.46,244a1.31,1.31,0,0,1,0,2.48,4.75,4.75,0,0,1-4.31,0,1.31,1.31,0,0,1,0-2.48,4.75,4.75,0,0,1,4.31,0m.61-.36a6.12,6.12,0,0,0-5.53,0c-1.53.88-1.53,2.31,0,3.2a6.12,6.12,0,0,0,5.53,0C236.59,246,236.59,244.53,235.07,243.65Z" fill="#fff"/><path d="M234.46,251.45a1.31,1.31,0,0,1,0,2.49,4.75,4.75,0,0,1-4.31,0,1.31,1.31,0,0,1,0-2.49,4.81,4.81,0,0,1,4.31,0m.61-.35a6.12,6.12,0,0,0-5.53,0c-1.53.88-1.53,2.31,0,3.2a6.12,6.12,0,0,0,5.53,0c1.52-.89,1.52-2.32,0-3.2Z" fill="#fff"/><polygon points="238.75 245.78 238.75 252.17 233.22 248.97 238.75 245.78" fill="#fff"/><polygon points="225.85 245.78 231.38 248.97 225.85 252.17 220.32 248.97 225.85 245.78" fill="#fff"/></g><g clip-path="url(#clip-path)"><polygon points="211.27 95.55 195.42 86.4 211.17 77.31 227.02 86.45 211.27 95.55" fill="#8d9ef0"/><polygon points="211.27 145.65 227.02 136.55 227.02 86.45 211.27 95.54 211.27 145.65" fill="#4939ff"/><g clip-path="url(#clip-path-2)"><line x1="211.27" y1="140.68" x2="227.02" y2="131.59" fill="none" stroke="#8d9ef0" stroke-linecap="round" stroke-linejoin="round" stroke-width="1.35"/><line x1="211.27" y1="134.18" x2="227.02" y2="125.09" fill="none" stroke="#8d9ef0" stroke-linecap="round" stroke-linejoin="round" stroke-width="1.35"/><line x1="211.27" y1="127.96" x2="227.02" y2="118.86" fill="none" stroke="#8d9ef0" stroke-linecap="round" stroke-linejoin="round" stroke-width="1.35"/><line x1="211.27" y1="120.87" x2="227.02" y2="111.78" fill="none" stroke="#8d9ef0" stroke-linecap="round" stroke-linejoin="round" stroke-width="1.35"/><line x1="211.27" y1="114.32" x2="227.02" y2="105.23" fill="none" stroke="#8d9ef0" stroke-linecap="round" stroke-linejoin="round" stroke-width="1.35"/><line x1="211.27" y1="107.73" x2="227.02" y2="98.64" fill="none" stroke="#8d9ef0" stroke-linecap="round" stroke-linejoin="round" stroke-width="1.35"/><line x1="211.27" y1="101.92" x2="227.02" y2="92.83" fill="none" stroke="#8d9ef0" stroke-linecap="round" stroke-linejoin="round" stroke-width="1.35"/></g><ellipse cx="224.62" cy="122.9" rx="0.65" ry="0.37" transform="translate(5.15 254.79) rotate(-59.69)" fill="#fff"/><ellipse cx="224.62" cy="116.54" rx="0.65" ry="0.37" transform="translate(10.64 251.64) rotate(-59.69)" fill="#fff"/><ellipse cx="224.62" cy="110.18" rx="0.65" ry="0.37" transform="translate(16.14 248.49) rotate(-59.69)" fill="#fff"/><ellipse cx="224.62" cy="103.82" rx="0.65" ry="0.37" transform="translate(21.63 245.34) rotate(-59.69)" fill="#fff"/><ellipse cx="224.62" cy="97.46" rx="0.65" ry="0.37" transform="translate(27.12 242.19) rotate(-59.69)" fill="#fff"/><ellipse cx="224.62" cy="91.1" rx="0.65" ry="0.37" transform="translate(32.61 239.04) rotate(-59.69)" fill="#fff"/><ellipse cx="224.62" cy="129.27" rx="0.65" ry="0.37" transform="translate(-0.34 257.94) rotate(-59.69)" fill="#fff"/><ellipse cx="224.62" cy="135.63" rx="0.65" ry="0.37" transform="translate(-5.83 261.09) rotate(-59.69)" fill="#fff"/><polygon points="211.27 145.65 195.42 136.5 195.42 86.39 211.27 95.54 211.27 145.65" fill="#8d9ef0"/><polygon points="207.48 139.1 199.21 134.33 199.21 95.36 207.48 100.13 207.48 139.1" fill="#4939ff"/><path d="M205.86,109.28a4.47,4.47,0,0,0-4.47-4.47,4.63,4.63,0,0,0-1.63.3,5.74,5.74,0,0,0-10.82,2.65s0,0,0,0a3.1,3.1,0,0,0-.92-.14,3,3,0,0,0-.09,6.09h13.47A4.48,4.48,0,0,0,205.86,109.28Z" fill="#fff" stroke="#5552ff" stroke-miterlimit="10" stroke-width="0.5"/><polygon points="211.27 116.99 195.42 107.84 211.17 98.74 227.02 107.89 211.27 116.99" fill="#8d9ef0"/><polygon points="211.27 167.09 227.02 157.99 227.02 107.89 211.27 116.98 211.27 167.09" fill="#4939ff"/><g clip-path="url(#clip-path-3)"><line x1="211.27" y1="162.12" x2="227.02" y2="153.03" fill="none" stroke="#8d9ef0" stroke-linecap="round" stroke-linejoin="round" stroke-width="1.35"/><line x1="211.27" y1="155.62" x2="227.02" y2="146.53" fill="none" stroke="#8d9ef0" stroke-linecap="round" stroke-linejoin="round" stroke-width="1.35"/><line x1="211.27" y1="149.4" x2="227.02" y2="140.3" fill="none" stroke="#8d9ef0" stroke-linecap="round" stroke-linejoin="round" stroke-width="1.35"/><line x1="211.27" y1="142.31" x2="227.02" y2="133.22" fill="none" stroke="#8d9ef0" stroke-linecap="round" stroke-linejoin="round" stroke-width="1.35"/><line x1="211.27" y1="135.76" x2="227.02" y2="126.67" fill="none" stroke="#8d9ef0" stroke-linecap="round" stroke-linejoin="round" stroke-width="1.35"/><line x1="211.27" y1="129.17" x2="227.02" y2="120.08" fill="none" stroke="#8d9ef0" stroke-linecap="round" stroke-linejoin="round" stroke-width="1.35"/><line x1="211.27" y1="123.36" x2="227.02" y2="114.27" fill="none" stroke="#8d9ef0" stroke-linecap="round" stroke-linejoin="round" stroke-width="1.35"/></g><ellipse cx="224.62" cy="144.34" rx="0.65" ry="0.37" transform="translate(-13.36 265.41) rotate(-59.69)" fill="#fff"/><ellipse cx="224.62" cy="137.98" rx="0.65" ry="0.37" transform="translate(-7.86 262.26) rotate(-59.69)" fill="#fff"/><ellipse cx="224.62" cy="131.62" rx="0.65" ry="0.37" transform="translate(-2.37 259.11) rotate(-59.69)" fill="#fff"/><ellipse cx="224.62" cy="125.26" rx="0.65" ry="0.37" transform="translate(3.12 255.96) rotate(-59.69)" fill="#fff"/><ellipse cx="224.62" cy="118.9" rx="0.65" ry="0.37" transform="translate(8.61 252.81) rotate(-59.69)" fill="#fff"/><ellipse cx="224.62" cy="112.54" rx="0.65" ry="0.37" transform="translate(14.1 249.66) rotate(-59.69)" fill="#fff"/><ellipse cx="224.62" cy="150.71" rx="0.65" ry="0.37" transform="translate(-18.85 268.56) rotate(-59.69)" fill="#fff"/><ellipse cx="224.62" cy="157.07" rx="0.65" ry="0.37" transform="translate(-24.34 271.71) rotate(-59.69)" fill="#fff"/><polygon points="211.27 167.09 195.42 157.94 195.42 107.83 211.27 116.98 211.27 167.09" fill="#8d9ef0"/><polygon points="207.48 160.54 199.21 155.77 199.21 116.8 207.48 121.57 207.48 160.54" fill="#4939ff"/><polygon points="247.54 95.55 231.7 86.4 247.45 77.31 263.29 86.45 247.54 95.55" fill="#8d9ef0"/><polygon points="247.54 145.65 263.29 136.55 263.29 86.45 247.54 95.54 247.54 145.65" fill="#4939ff"/><g clip-path="url(#clip-path-4)"><line x1="247.54" y1="140.68" x2="263.29" y2="131.59" fill="none" stroke="#8d9ef0" stroke-linecap="round" stroke-linejoin="round" stroke-width="1.35"/><line x1="247.54" y1="134.18" x2="263.29" y2="125.09" fill="none" stroke="#8d9ef0" stroke-linecap="round" stroke-linejoin="round" stroke-width="1.35"/><line x1="247.54" y1="127.96" x2="263.29" y2="118.86" fill="none" stroke="#8d9ef0" stroke-linecap="round" stroke-linejoin="round" stroke-width="1.35"/><line x1="247.54" y1="120.87" x2="263.29" y2="111.78" fill="none" stroke="#8d9ef0" stroke-linecap="round" stroke-linejoin="round" stroke-width="1.35"/><line x1="247.54" y1="114.32" x2="263.29" y2="105.23" fill="none" stroke="#8d9ef0" stroke-linecap="round" stroke-linejoin="round" stroke-width="1.35"/><line x1="247.54" y1="107.73" x2="263.29" y2="98.64" fill="none" stroke="#8d9ef0" stroke-linecap="round" stroke-linejoin="round" stroke-width="1.35"/><line x1="247.54" y1="101.92" x2="263.29" y2="92.83" fill="none" stroke="#8d9ef0" stroke-linecap="round" stroke-linejoin="round" stroke-width="1.35"/></g><ellipse cx="260.9" cy="122.9" rx="0.65" ry="0.37" transform="translate(23.12 286.11) rotate(-59.69)" fill="#fff"/><ellipse cx="260.9" cy="116.54" rx="0.65" ry="0.37" transform="translate(28.61 282.96) rotate(-59.69)" fill="#fff"/><ellipse cx="260.9" cy="110.18" rx="0.65" ry="0.37" transform="translate(34.1 279.81) rotate(-59.69)" fill="#fff"/><ellipse cx="260.9" cy="103.82" rx="0.65" ry="0.37" transform="translate(39.6 276.66) rotate(-59.69)" fill="#fff"/><ellipse cx="260.9" cy="97.46" rx="0.65" ry="0.37" transform="translate(45.09 273.5) rotate(-59.69)" fill="#fff"/><ellipse cx="260.9" cy="91.1" rx="0.65" ry="0.37" transform="translate(50.58 270.35) rotate(-59.69)" fill="#fff"/><ellipse cx="260.9" cy="129.27" rx="0.65" ry="0.37" transform="translate(17.63 289.26) rotate(-59.69)" fill="#fff"/><ellipse cx="260.9" cy="135.63" rx="0.65" ry="0.37" transform="translate(12.14 292.41) rotate(-59.69)" fill="#fff"/><polygon points="247.54 145.65 231.7 136.5 231.7 86.39 247.54 95.54 247.54 145.65" fill="#8d9ef0"/><polygon points="243.75 139.1 235.49 134.33 235.49 95.36 243.75 100.13 243.75 139.1" fill="#4939ff"/><polygon points="247.54 116.99 231.7 107.84 247.45 98.74 263.29 107.89 247.54 116.99" fill="#8d9ef0"/><polygon points="247.54 167.09 263.29 157.99 263.29 107.89 247.54 116.98 247.54 167.09" fill="#4939ff"/><g clip-path="url(#clip-path-5)"><line x1="247.54" y1="162.12" x2="263.29" y2="153.03" fill="none" stroke="#8d9ef0" stroke-linecap="round" stroke-linejoin="round" stroke-width="1.35"/><line x1="247.54" y1="155.62" x2="263.29" y2="146.53" fill="none" stroke="#8d9ef0" stroke-linecap="round" stroke-linejoin="round" stroke-width="1.35"/><line x1="247.54" y1="149.4" x2="263.29" y2="140.3" fill="none" stroke="#8d9ef0" stroke-linecap="round" stroke-linejoin="round" stroke-width="1.35"/><line x1="247.54" y1="142.31" x2="263.29" y2="133.22" fill="none" stroke="#8d9ef0" stroke-linecap="round" stroke-linejoin="round" stroke-width="1.35"/><line x1="247.54" y1="135.76" x2="263.29" y2="126.67" fill="none" stroke="#8d9ef0" stroke-linecap="round" stroke-linejoin="round" stroke-width="1.35"/><line x1="247.54" y1="129.17" x2="263.29" y2="120.08" fill="none" stroke="#8d9ef0" stroke-linecap="round" stroke-linejoin="round" stroke-width="1.35"/><line x1="247.54" y1="123.36" x2="263.29" y2="114.27" fill="none" stroke="#8d9ef0" stroke-linecap="round" stroke-linejoin="round" stroke-width="1.35"/></g><ellipse cx="260.9" cy="144.34" rx="0.65" ry="0.37" transform="translate(4.61 296.73) rotate(-59.69)" fill="#fff"/><ellipse cx="260.9" cy="137.98" rx="0.65" ry="0.37" transform="translate(10.1 293.58) rotate(-59.69)" fill="#fff"/><ellipse cx="260.9" cy="131.62" rx="0.65" ry="0.37" transform="translate(15.6 290.43) rotate(-59.69)" fill="#fff"/><ellipse cx="260.9" cy="125.26" rx="0.65" ry="0.37" transform="translate(21.09 287.27) rotate(-59.69)" fill="#fff"/><ellipse cx="260.9" cy="118.9" rx="0.65" ry="0.37" transform="translate(26.58 284.12) rotate(-59.69)" fill="#fff"/><ellipse cx="260.9" cy="112.54" rx="0.65" ry="0.37" transform="translate(32.07 280.97) rotate(-59.69)" fill="#fff"/><ellipse cx="260.9" cy="150.71" rx="0.65" ry="0.37" transform="translate(-0.88 299.88) rotate(-59.69)" fill="#fff"/><ellipse cx="260.9" cy="157.07" rx="0.65" ry="0.37" transform="translate(-6.37 303.03) rotate(-59.69)" fill="#fff"/><polygon points="247.54 167.09 231.7 157.94 231.7 107.83 247.54 116.98 247.54 167.09" fill="#8d9ef0"/><polygon points="243.75 160.54 235.49 155.77 235.49 116.8 243.75 121.57 243.75 160.54" fill="#4939ff"/><path d="M273.82,132.48a5,5,0,0,0-5-5,4.89,4.89,0,0,0-1.8.35A6.39,6.39,0,0,0,255,130.79s0,0,0,0a3.52,3.52,0,0,0-1-.15,3.39,3.39,0,0,0-.09,6.77h15A5,5,0,0,0,273.82,132.48Z" fill="#fff" stroke="#5552ff" stroke-miterlimit="10" stroke-width="0.5"/></g></g></svg>
