<svg id="Layer_1" data-name="Layer 1" xmlns="http://www.w3.org/2000/svg" xmlns:xlink="http://www.w3.org/1999/xlink" viewBox="0 0 82.73 51.57"><defs><linearGradient id="linear-gradient" x1="1.36" y1="49.73" x2="80.69" y2="2.26" gradientUnits="userSpaceOnUse"><stop offset="0" stop-color="#47479d"/><stop offset="1" stop-color="#323267"/></linearGradient></defs><title>Docker</title><rect width="82.73" height="51.57" rx="2.7" fill="url(#linear-gradient)"/><g id="Layer_1-2" data-name="Layer 1-2"><path d="M7,21.42A1.75,1.75,0,1,1,5.2,23.17,1.75,1.75,0,0,1,7,21.42m0-.49a2.24,2.24,0,1,0,2.24,2.24A2.24,2.24,0,0,0,7,20.93Z" fill="#fff"/><path d="M12.18,26.65a1.75,1.75,0,1,1-1.75,1.75,1.75,1.75,0,0,1,1.75-1.75m0-.49a2.24,2.24,0,1,0,2.24,2.24,2.24,2.24,0,0,0-2.24-2.24Z" fill="#fff"/><polygon points="9.94 20.93 14.42 25.41 9.94 25.41 9.94 20.93" fill="#fff"/><rect x="4.71" y="26.16" width="4.48" height="4.48" fill="#fff"/></g><circle cx="19.1" cy="25.79" r="1.42" fill="#dac3ff"/><polygon points="30.42 25.79 27.82 24.29 27.82 27.29 30.42 25.79" fill="#dac3ff"/><rect x="19.39" y="25.54" width="9.35" height="0.5" fill="#dac3ff"/><circle cx="50.66" cy="25.79" r="1.42" fill="#dac3ff"/><polygon points="61.98 25.79 59.39 24.29 59.39 27.29 61.98 25.79" fill="#dac3ff"/><rect x="50.96" y="25.54" width="9.35" height="0.5" fill="#dac3ff"/><path d="M69,31a7.77,7.77,0,0,1-2-.31A3.59,3.59,0,0,1,65.59,30,4.26,4.26,0,0,1,64.3,28,7.08,7.08,0,0,1,64,25.81a.7.7,0,0,1,.69-.72h.55a.44.44,0,0,1,0-.14c0-.28,0-.58,0-.88v-.22a.54.54,0,0,1,.09-.25.34.34,0,0,1,.27-.12h1.25a.41.41,0,0,1,.16,0,.28.28,0,0,1,0-.12V22.22A.46.46,0,0,1,67,22a.36.36,0,0,1,.26-.11h1.25a.36.36,0,0,1,.26.1l0,0a.27.27,0,0,1,.15-.05h1.29a.42.42,0,0,1,.2,0,.7.7,0,0,1,0-.25v-1a.35.35,0,0,1,.19-.34.22.22,0,0,1,.13,0H72.1a.23.23,0,0,1,.17.07l.07.07a.23.23,0,0,1,.08.18v1.16a.54.54,0,0,1-.09.24h0a.4.4,0,0,1,.1.31v1.06a.55.55,0,0,1,0,.17h0a.58.58,0,0,1,.19,0h1.2a.4.4,0,0,1,.3.13.51.51,0,0,1,.08.29v.26c0,.27,0,.54,0,.81a.52.52,0,0,1,0,.11,2.44,2.44,0,0,0,.62-.11,2.19,2.19,0,0,1-.2-1,3,3,0,0,1,.61-1.68.26.26,0,0,1,.2-.1.2.2,0,0,1,.11,0,2.47,2.47,0,0,1,1.31,1.58l.41,0h.19a2,2,0,0,1,1.28.47.23.23,0,0,1,.07.25,2,2,0,0,1-.84,1.15,2.6,2.6,0,0,1-1.43.43,8.94,8.94,0,0,1-1.2,2.15A6.56,6.56,0,0,1,73.34,30a8.17,8.17,0,0,1-3.83,1H69Z" fill="#2497ed"/><path d="M72.1,20.51l.07.07v1.15a.12.12,0,0,1-.12.12H70.87l-.16,0a.9.9,0,0,1,0-.16c0-.34,0-.69,0-1a.12.12,0,0,1,.07-.13H72.1m-3.55,1.61a.1.1,0,0,1,.11.11c0,.38,0,.77,0,1.16,0,0-.07.07-.12.07H67.29s-.08,0-.11-.07V22.23a.11.11,0,0,1,.11-.11h1.26m1,0h.8c.07,0,.14,0,.12.11,0,.36,0,.72,0,1.08,0,.07,0,.15-.11.15H69.05a.1.1,0,0,1-.1-.11V22.23a.1.1,0,0,1,0-.1h.5m1.81,0h.76a.12.12,0,0,1,.1.14v1.09a.12.12,0,0,1-.13.11H70.8s-.07,0-.11-.05c0-.36,0-.72,0-1.08,0-.08,0-.2.1-.21h.53m4.07.35a2.22,2.22,0,0,1,1.22,1.64,4.3,4.3,0,0,1,.61-.05h.17a1.75,1.75,0,0,1,1.13.4,1.82,1.82,0,0,1-.74,1,2.32,2.32,0,0,1-1.33.38h-.13a9.29,9.29,0,0,1-1.23,2.25,6.1,6.1,0,0,1-1.87,1.63,7.86,7.86,0,0,1-3.71,1H69a7.78,7.78,0,0,1-2-.3,3.25,3.25,0,0,1-1.23-.62,4,4,0,0,1-1.2-1.92,6.91,6.91,0,0,1-.3-2.07v0a.44.44,0,0,1,.44-.44h9.25a2.71,2.71,0,0,0,1.19-.25,2,2,0,0,1-.3-1.08,2.68,2.68,0,0,1,.56-1.54m-6.31,1.25h1.25a.12.12,0,0,1,.11.12c0,.38,0,.76,0,1.14l0,.07H69.07a.18.18,0,0,1-.13-.08c0-.39,0-.78,0-1.17,0-.06.07-.1.12-.1m3.52,0H73.8c.07,0,.14.05.12.12,0,.37,0,.75,0,1.12,0,.06-.07.1-.12.1H72.58a.28.28,0,0,1-.12,0,.93.93,0,0,1,0-.29v-.86a.5.5,0,0,1,0-.13l.12,0m-4,0a.15.15,0,0,1,.12.07c0,.38,0,.76,0,1.14a.11.11,0,0,1-.09.13H67.29a.12.12,0,0,1-.11-.13v-1.1c0-.06.06-.11.12-.11h1.25m-2.47,0h.74a.1.1,0,0,1,.11.11c0,.39,0,.77,0,1.15,0,0-.06.08-.11.08H65.57c-.06,0-.13,0-.12-.1,0-.37,0-.75,0-1.12a.1.1,0,0,1,.11-.12h.52m4.72,0h1.25a.12.12,0,0,1,.12.12V25a.15.15,0,0,1-.12.07H70.8a.11.11,0,0,1-.11-.13c0-.36,0-.73,0-1.09a.1.1,0,0,1,.11-.12M72.1,20H70.76a.48.48,0,0,0-.26.07.64.64,0,0,0-.31.57c0,.18,0,.35,0,.53v.44H69a.53.53,0,0,0-.18,0,.7.7,0,0,0-.25-.05H67.29a.64.64,0,0,0-.45.19.61.61,0,0,0-.16.45v1H65.56a.61.61,0,0,0-.46.2.64.64,0,0,0-.15.44v.22c0,.25,0,.5,0,.75h-.26a1,1,0,0,0-.95.93A7.7,7.7,0,0,0,64.06,28a4.46,4.46,0,0,0,1.37,2.16,3.93,3.93,0,0,0,1.4.71,7.8,7.8,0,0,0,2.1.32h.57a8.47,8.47,0,0,0,4-1,6.83,6.83,0,0,0,2-1.77,9.16,9.16,0,0,0,1.17-2.06,2.71,2.71,0,0,0,1.4-.46A2.26,2.26,0,0,0,79,24.6a.49.49,0,0,0-.14-.5,2.27,2.27,0,0,0-1.44-.53H77A2.86,2.86,0,0,0,75.61,22a.64.64,0,0,0-.23-.05.51.51,0,0,0-.4.2,3.32,3.32,0,0,0-.62,1.4.41.41,0,0,0-.07-.11.62.62,0,0,0-.49-.23H72.67v-.95a.71.71,0,0,0,0-.29.86.86,0,0,0,0-.27V20.58a.52.52,0,0,0-.16-.37l-.08-.07A.51.51,0,0,0,72.1,20Zm2.32,4.79v0l0,0Z" fill="#fff"/><rect x="32.84" y="18.29" width="14.99" height="14.99" rx="3.27" fill="#08081a"/><path d="M44.55,33.53H36.11A3.53,3.53,0,0,1,32.59,30V21.57A3.53,3.53,0,0,1,36.11,18h8.44a3.53,3.53,0,0,1,3.52,3.53V30A3.53,3.53,0,0,1,44.55,33.53Zm-8.44-15a3,3,0,0,0-3,3V30a3,3,0,0,0,3,3h8.44a3,3,0,0,0,3-3V21.57a3,3,0,0,0-3-3Z" fill="#aa79fc"/><path d="M44.88,21.71h-.29L43.82,21v-.35a.08.08,0,0,0-.08-.08H42.55V20a.06.06,0,0,0-.06-.06h-.61a.06.06,0,0,0-.06.06v.82l-1.7.82-.12.05H37.24a.1.1,0,0,0-.1.1v.52a.09.09,0,0,0,.1.1h2.65l-.44,1.47a.14.14,0,0,0,.1.18.48.48,0,0,1,.32.58.49.49,0,0,1-.23.28.43.43,0,0,1-.35,0,.44.44,0,0,1-.28-.22.43.43,0,0,1,0-.35.16.16,0,0,0-.11-.19.14.14,0,0,0-.18.1.76.76,0,0,0,.06.59.7.7,0,0,0,.16.19l-2.07.8-.13-.06a.21.21,0,0,0-.28.1l-.73,1.59a.21.21,0,0,0,.1.28l3.48,1.6a.22.22,0,0,0,.28-.11l.73-1.59a.22.22,0,0,0-.1-.28l-.08,0-.65-2.1a.77.77,0,0,0,.7-.54.78.78,0,0,0-.38-.9l.42-1.41h2.39v8.7H42l-.34.48h3l-.33-.48h-.63v-8.7h1.23a.1.1,0,0,0,.1-.1v-.52A.11.11,0,0,0,44.88,21.71Zm-7.76,4.91-.45,1a.16.16,0,0,1-.14.08h-.06a.15.15,0,0,1-.08-.2l.45-1a.15.15,0,0,1,.2-.07A.15.15,0,0,1,37.12,26.62Zm.82.38-.45,1a.14.14,0,0,1-.13.09h-.07a.15.15,0,0,1-.07-.2l.45-1a.14.14,0,0,1,.2-.07A.15.15,0,0,1,37.94,27Zm.83.38-.45,1a.14.14,0,0,1-.14.09h-.06a.16.16,0,0,1-.08-.2l.45-1a.16.16,0,0,1,.2-.08A.17.17,0,0,1,38.77,27.38Zm.82.38-.44,1a.15.15,0,0,1-.14.09h-.07a.17.17,0,0,1-.07-.21l.45-1a.15.15,0,0,1,.2-.08A.15.15,0,0,1,39.59,27.76Zm-2.36-1.69,1.92-.75.59,1.9Zm6.9-4.36h-.31v-.27ZM42.31,20.1h.17v.51h-.17Zm-.42,0h.35v.51h-.35Zm0,1h.67v.56H40.72Zm-.22,1H38.3a.11.11,0,1,1,0-.22h3.36a.11.11,0,1,1,0,.22Zm.56,0a.11.11,0,0,1,0-.22h.51a.11.11,0,1,1,0,.22Zm.59,8.41V30h.63Zm.63-.31v.63h-.63Zm-.63-.63.63-.63v.63Zm0-.31v-.63h.63Zm0-.94.63-.63v.63Zm0-.32v-.63h.63Zm0-.94.63-.63v.63Zm0-.31V26.2h.63Zm0-.94.63-.63v.63Zm0-.32v-.63h.63Zm0-.94.63-.63v.63Zm0-.31v-.63h.63Zm0-.94.63-.63v.63Zm0-.32v-.63h.63Z" fill="#dac3ff"/></svg>
