<svg width="15" height="14" viewBox="0 0 15 14" fill="none" xmlns="http://www.w3.org/2000/svg">
<path d="M7.5 0C6.11553 0 4.76216 0.410543 3.61101 1.17971C2.45987 1.94888 1.56266 3.04213 1.03285 4.32122C0.503033 5.6003 0.36441 7.00776 0.634506 8.36563C0.904603 9.7235 1.57129 10.9708 2.55026 11.9497C3.52922 12.9287 4.7765 13.5954 6.13437 13.8655C7.49224 14.1356 8.8997 13.997 10.1788 13.4672C11.4579 12.9373 12.5511 12.0401 13.3203 10.889C14.0895 9.73785 14.5 8.38447 14.5 7C14.5 5.14348 13.7625 3.36301 12.4497 2.05025C11.137 0.737498 9.35652 0 7.5 0ZM6.5 9.7954L4 7.2954L4.7953 6.5L6.5 8.2046L10.205 4.5L11.0029 5.29295L6.5 9.7954Z" fill="#55D899"/>
</svg>
