<svg width="16" height="16" viewBox="0 0 16 16" fill="none" xmlns="http://www.w3.org/2000/svg">
<path fill-rule="evenodd" clip-rule="evenodd" d="M4.11101 2.17971C5.26216 1.41054 6.61553 1 8 1C9.85652 1 11.637 1.7375 12.9497 3.05025C14.2625 4.36301 15 6.14348 15 8C15 9.38447 14.5895 10.7378 13.8203 11.889C13.0511 13.0401 11.9579 13.9373 10.6788 14.4672C9.3997 14.997 7.99224 15.1356 6.63437 14.8655C5.2765 14.5954 4.02922 13.9287 3.05026 12.9497C2.07129 11.9708 1.4046 10.7235 1.13451 9.36563C0.86441 8.00776 1.00303 6.6003 1.53285 5.32122C2.06266 4.04213 2.95987 2.94888 4.11101 2.17971ZM4.66658 12.9888C5.65328 13.6481 6.81332 14 8 14C9.5913 14 11.1174 13.3679 12.2426 12.2426C13.3679 11.1174 14 9.5913 14 8C14 6.81331 13.6481 5.65327 12.9888 4.66658C12.3295 3.67988 11.3925 2.91085 10.2961 2.45672C9.19975 2.0026 7.99335 1.88378 6.82946 2.11529C5.66558 2.3468 4.59648 2.91824 3.75736 3.75736C2.91825 4.59647 2.3468 5.66557 2.11529 6.82946C1.88378 7.99334 2.0026 9.19974 2.45673 10.2961C2.91085 11.3925 3.67989 12.3295 4.66658 12.9888ZM4.5 8.2065L7 10.707L11.5 6.2075L10.7925 5.5L7 9.293L5.2065 7.5L4.5 8.2065Z" fill="#55D899"/>
</svg>
