<svg width="16" height="16" viewBox="0 0 16 16" fill="none" xmlns="http://www.w3.org/2000/svg">
<path fill-rule="evenodd" clip-rule="evenodd" d="M1.70715 1L15 14.2929L14.2928 15L8.5 9.20705V15H7.5V8.20705L5.51965 6.2268C5.508 6.31743 5.50144 6.40864 5.5 6.5C5.50021 6.8517 5.57453 7.19941 5.7181 7.52048C5.86166 7.84154 6.07127 8.12875 6.33325 8.3634L5.66625 9.1084C5.15569 8.65357 4.79029 8.05854 4.6156 7.39747C4.4409 6.73639 4.46464 6.03852 4.68385 5.39085L3.5857 4.2927C3.04586 5.24253 2.87138 6.35679 3.09503 7.42618C3.31867 8.49557 3.92506 9.44651 4.8003 10.1004L4.1997 10.9004C3.09257 10.0714 2.33907 8.85511 2.08977 7.49465C1.84048 6.13419 2.11376 4.72977 2.855 3.56205L1 1.70705L1.70715 1ZM13 6.5C13.0026 7.66402 12.5495 8.78282 11.7375 9.61695L12.4442 10.3235C12.9887 9.76407 13.4076 9.09495 13.673 8.36079C13.9383 7.62663 14.0441 6.84431 13.9832 6.06604C13.9222 5.28777 13.696 4.53145 13.3196 3.84754C12.9432 3.16363 12.4252 2.56786 11.8003 2.1L11.1997 2.9C11.7606 3.31728 12.2157 3.86041 12.5284 4.48568C12.8411 5.11096 13.0026 5.8009 13 6.5ZM10.5 6.5C10.499 7.01097 10.3416 7.50939 10.0489 7.9282L10.7627 8.6421C11.307 7.94346 11.5655 7.06407 11.4858 6.18201C11.4061 5.29994 10.9942 4.48112 10.3335 3.89135L9.6665 4.63635C9.92855 4.87101 10.1382 5.15826 10.2818 5.47937C10.4254 5.80047 10.4998 6.14824 10.5 6.5Z" fill="#FF6464"/>
</svg>
