<svg width="16" height="16" viewBox="0 0 16 16" fill="none" xmlns="http://www.w3.org/2000/svg">
<path d="M7.99989 1.00001C7.07904 0.994302 6.16622 1.17146 5.31436 1.52123C4.46251 1.87099 3.68856 2.38639 3.03741 3.03754C2.38626 3.68869 1.87086 4.46263 1.5211 5.31449C1.17134 6.16634 0.99418 7.07916 0.99989 8.00001C0.99418 8.92086 1.17134 9.83368 1.5211 10.6855C1.87086 11.5374 2.38626 12.3113 3.03741 12.9625C3.68856 13.6136 4.46251 14.129 5.31436 14.4788C6.16622 14.8286 7.07904 15.0057 7.99989 15C8.92074 15.0057 9.83356 14.8286 10.6854 14.4788C11.5373 14.129 12.3112 13.6136 12.9624 12.9625C13.6135 12.3113 14.1289 11.5374 14.4787 10.6855C14.8284 9.83368 15.0056 8.92086 14.9999 8.00001C15.0056 7.07916 14.8284 6.16634 14.4787 5.31449C14.1289 4.46263 13.6135 3.68869 12.9624 3.03754C12.3112 2.38639 11.5373 1.87099 10.6854 1.52123C9.83356 1.17146 8.92074 0.994302 7.99989 1.00001ZM10.7223 11.5L4.49989 5.27786L5.27774 4.50001L11.4999 10.7224L10.7223 11.5Z" fill="#FF6464"/>
</svg>
