<svg width="14" height="14" viewBox="0 0 14 14" fill="none" xmlns="http://www.w3.org/2000/svg">
<path d="M7.00001 -1.88595e-05C6.07916 -0.00572827 5.16634 0.171434 4.31449 0.521195C3.46263 0.870956 2.68869 1.38636 2.03754 2.03751C1.38639 2.68866 0.870986 3.4626 0.521226 4.31446C0.171465 5.16631 -0.00569775 6.07913 1.16581e-05 6.99998C-0.00569775 7.92083 0.171465 8.83365 0.521226 9.6855C0.870986 10.5374 1.38639 11.3113 2.03754 11.9625C2.68869 12.6136 3.46263 13.129 4.31449 13.4788C5.16634 13.8285 6.07916 14.0057 7.00001 14C7.92086 14.0057 8.83368 13.8285 9.68554 13.4788C10.5374 13.129 11.3113 12.6136 11.9625 11.9625C12.6136 11.3113 13.129 10.5374 13.4788 9.6855C13.8286 8.83365 14.0057 7.92083 14 6.99998C14.0057 6.07913 13.8286 5.16631 13.4788 4.31446C13.129 3.4626 12.6136 2.68866 11.9625 2.03751C11.3113 1.38636 10.5374 0.870956 9.68554 0.521195C8.83368 0.171434 7.92086 -0.00572827 7.00001 -1.88595e-05ZM9.72246 10.5L3.50001 4.27783L4.27786 3.49998L10.5 9.72238L9.72246 10.5Z" fill="#FF6464"/>
</svg>
