<svg width="16" height="16" viewBox="0 0 16 16" fill="none" xmlns="http://www.w3.org/2000/svg">
<path fill-rule="evenodd" clip-rule="evenodd" d="M9.0409 2.0967C8.35295 1.96777 7.64704 1.96777 6.9591 2.0967L6.7856 1.1128C7.58821 0.9624 8.41178 0.9624 9.2144 1.1128L9.0409 2.0967ZM5.0034 2.81007C4.39807 3.15983 3.85806 3.61205 3.40745 4.14657L2.64205 3.50422C3.16771 2.8806 3.79771 2.35304 4.50395 1.94507L5.0034 2.81007ZM15 10H11V11H15V10ZM15 12H11V13H15V12ZM11 14H15V15H11V14ZM10 12H9V13H10V12ZM9 10H10V11H9V10ZM10 14H9V15H10V14ZM12.5925 4.14657L13.3579 3.50422C12.8323 2.8806 12.2023 2.35304 11.496 1.94507L10.9966 2.81007C11.6019 3.15983 12.1419 3.61205 12.5925 4.14657ZM1.4297 5.6084L2.3683 5.94995C2.12613 6.60636 2.00146 7.30029 2 7.99995H1C1.00171 7.18372 1.14716 6.37417 1.4297 5.6084ZM3.40745 11.8535C2.95862 11.3175 2.60694 10.7072 2.3683 10.05L1.4297 10.3916C1.70801 11.1584 2.11831 11.8707 2.64205 12.4961L3.40745 11.8535ZM14 7.99999C13.9985 7.30034 13.8739 6.6064 13.6317 5.94999L14.5703 5.60864C14.8529 6.37434 14.9983 7.18383 15 7.99999H14ZM6.9591 13.9032C6.27032 13.7824 5.60827 13.5409 5.0034 13.1899L4.50395 14.0549C5.20963 14.4643 5.98203 14.746 6.7856 14.8869L6.9591 13.9032Z" fill="#FFC164"/>
</svg>
