<svg width="20" height="20" viewBox="0 0 20 20" fill="none" xmlns="http://www.w3.org/2000/svg">
<path fill-rule="evenodd" clip-rule="evenodd" d="M7.3125 1.6875L7.6875 2.875C8.43258 2.62415 9.21383 2.49746 10 2.5V1.25C9.08547 1.23752 8.17585 1.3856 7.3125 1.6875ZM2.9375 4.875C3.46382 4.14047 4.09562 3.48761 4.8125 2.9375L5.5625 3.9375C4.94366 4.42022 4.39653 4.98839 3.9375 5.625L2.9375 4.875ZM1.6875 7.3125L2.875 7.6875C2.62415 8.43258 2.49746 9.21383 2.5 10H1.25C1.23752 9.08547 1.3856 8.17585 1.6875 7.3125ZM1.6875 12.75C1.97735 13.6215 2.3989 14.4435 2.9375 15.1875L3.9375 14.4375C3.48567 13.8049 3.1278 13.1101 2.875 12.375L1.6875 12.75ZM7.31248 18.3125C6.44096 18.0226 5.61894 17.6011 4.87498 17.0625L5.62498 16.0625C6.25762 16.5143 6.95232 16.8722 7.68748 17.125L7.31248 18.3125ZM17.0625 15.125C16.5138 15.8612 15.8612 16.5138 15.125 17.0625L14.375 16.0625C15.0274 15.5977 15.5977 15.0274 16.0625 14.375L17.0625 15.125ZM17.125 12.3125L18.3125 12.6875C18.5844 11.8168 18.7317 10.912 18.75 9.99999H17.5C17.5025 10.7862 17.3758 11.5674 17.125 12.3125ZM17 4.8125C17.5386 5.55646 17.9601 6.37848 18.25 7.25L17.0625 7.625C16.8097 6.88984 16.4518 6.19513 16 5.5625L17 4.8125ZM15.0625 2.875C14.3185 2.3364 13.4965 1.91485 12.625 1.625L12.25 2.8125C12.9852 3.06529 13.6799 3.42317 14.3125 3.875L15.0625 2.875ZM12.3125 17.125L12.6875 18.3125C11.8089 18.5493 10.9084 18.6959 9.99999 18.75V17.5C10.7862 17.5025 11.5674 17.3759 12.3125 17.125Z" fill="#DAC3FF"/>
</svg>
