<svg width="16" height="16" viewBox="0 0 16 16" fill="none" xmlns="http://www.w3.org/2000/svg">
<path fill-rule="evenodd" clip-rule="evenodd" d="M5.77772 8.32588C6.43552 8.76541 7.20888 9 8 9C9.06049 8.99878 10.0772 8.57697 10.8271 7.82708C11.577 7.0772 11.9988 6.06049 12 5C12 4.20888 11.7654 3.43552 11.3259 2.77772C10.8864 2.11992 10.2616 1.60723 9.53074 1.30448C8.79983 1.00173 7.99556 0.92252 7.21964 1.07686C6.44372 1.2312 5.73098 1.61216 5.17157 2.17157C4.61216 2.73098 4.2312 3.44372 4.07686 4.21964C3.92252 4.99556 4.00173 5.79983 4.30448 6.53074C4.60723 7.26164 5.11992 7.88635 5.77772 8.32588ZM6.33329 2.50559C6.82664 2.17595 7.40666 2 8 2C8.79538 2.00089 9.55793 2.31724 10.1203 2.87966C10.6828 3.44208 10.9991 4.20462 11 5C11 5.59335 10.8241 6.17337 10.4944 6.66671C10.1648 7.16006 9.69623 7.54458 9.14805 7.77164C8.59987 7.9987 7.99667 8.05811 7.41473 7.94236C6.83279 7.8266 6.29824 7.54088 5.87868 7.12132C5.45912 6.70176 5.1734 6.16722 5.05765 5.58527C4.94189 5.00333 5.0013 4.40013 5.22836 3.85195C5.45543 3.30377 5.83994 2.83524 6.33329 2.50559ZM9.5 5.793L8.5 4.793V3H7.5V5.207L8.793 6.5L9.5 5.793ZM2 15H14C14.2651 14.9997 14.5193 14.8943 14.7068 14.7068C14.8943 14.5193 14.9997 14.2651 15 14V11C14.9997 10.7349 14.8943 10.4807 14.7068 10.2932C14.5193 10.1057 14.2651 10.0003 14 10H2C1.73487 10.0003 1.48068 10.1057 1.2932 10.2932C1.10572 10.4807 1.00028 10.7349 1 11V14C1.00028 14.2651 1.10572 14.5193 1.2932 14.7068C1.48068 14.8943 1.73487 14.9997 2 15ZM2 14V11H14V14H2ZM4 12.5C4 12.7761 3.77614 13 3.5 13C3.22386 13 3 12.7761 3 12.5C3 12.2239 3.22386 12 3.5 12C3.77614 12 4 12.2239 4 12.5Z" fill="#FF6464"/>
</svg>
