<svg width="16" height="16" viewBox="0 0 16 16" fill="none" xmlns="http://www.w3.org/2000/svg">
<path d="M15.4254 6.72435L11.9433 0.7661C11.8964 0.685297 11.8292 0.618204 11.7482 0.571513C11.6673 0.524822 11.5756 0.500164 11.4821 0.5H4.51784C4.42441 0.500164 4.33266 0.524822 4.25173 0.571513C4.17081 0.618204 4.10354 0.685297 4.05664 0.7661L0.574587 6.72435C0.525741 6.808 0.5 6.90313 0.5 7C0.5 7.09687 0.525741 7.192 0.574587 7.27565L4.05664 13.2339C4.10354 13.3147 4.17081 13.3818 4.25173 13.4285C4.33266 13.4752 4.42441 13.4998 4.51784 13.5H11.4821C11.5756 13.4998 11.6673 13.4752 11.7482 13.4285C11.8292 13.3818 11.8964 13.3147 11.9433 13.2339L15.4254 7.27565C15.4742 7.192 15.5 7.09687 15.5 7C15.5 6.90313 15.4742 6.808 15.4254 6.72435ZM7.43749 3H8.56249V8.5H7.43749V3ZM7.99999 11.5C7.85165 11.5 7.70665 11.456 7.58331 11.3736C7.45997 11.2912 7.36384 11.1741 7.30708 11.037C7.25031 10.9 7.23546 10.7492 7.2644 10.6037C7.29334 10.4582 7.36477 10.3246 7.46966 10.2197C7.57455 10.1148 7.70818 10.0434 7.85367 10.0144C7.99916 9.98547 8.14995 10.0003 8.287 10.0571C8.42404 10.1139 8.54118 10.21 8.62359 10.3333C8.706 10.4567 8.74999 10.6017 8.74999 10.75C8.74999 10.9489 8.67097 11.1397 8.53032 11.2803C8.38967 11.421 8.1989 11.5 7.99999 11.5Z" fill="#FFC164"/>
</svg>
