<svg width="232" height="35" viewBox="0 0 232 35" fill="none" xmlns="http://www.w3.org/2000/svg">
  <path
    d="M0 14.0001L11.002 2.9981C11.2131 2.78638 11.4641 2.6186 11.7404 2.5045C12.0167 2.3904 12.3129 2.33224 12.6119 2.33337H25.6714V1.61646e-05H12.6119C12.3129 -0.0011142 12.0167 0.0570497 11.7404 0.17115C11.4641 0.285251 11.2131 0.453024 11.002 0.66475L0 11.6668V14.0001Z"
    fill="url(#paint0_linear_46_160)" />
  <path
    d="M0 18.6666L11.002 7.66461C11.2131 7.45288 11.4641 7.28512 11.7404 7.17102C12.0167 7.05692 12.3129 6.99874 12.6119 6.99987H25.6714V4.66652H12.6119C12.3129 4.66539 12.0167 4.72357 11.7404 4.83767C11.4641 4.95177 11.2131 5.11953 11.002 5.33125L0 16.3333V18.6666Z"
    fill="url(#paint1_linear_46_160)" />
  <path
    d="M0 23.3336L11.002 12.3361C11.2127 12.1236 11.4635 11.955 11.7399 11.8401C12.0162 11.7252 12.3126 11.6663 12.6119 11.6669H25.6714V9.3335H12.6119C12.3126 9.33296 12.0162 9.39185 11.7399 9.50673C11.4635 9.62162 11.2127 9.79022 11.002 10.0028L0 21.0003V23.3336Z"
    fill="url(#paint2_linear_46_160)" />
  <path
    d="M0 21L11.002 32.002C11.2131 32.2137 11.4641 32.3815 11.7404 32.4956C12.0167 32.6097 12.3129 32.6679 12.6119 32.6667H25.6714V35.0001H12.6119C12.3129 35.0012 12.0167 34.9431 11.7404 34.829C11.4641 34.7149 11.2131 34.5471 11.002 34.3354L0 23.3334V21Z"
    fill="url(#paint3_linear_46_160)" />
  <path
    d="M0 16.3335L11.002 27.331C11.2127 27.5435 11.4635 27.7121 11.7399 27.827C12.0162 27.9419 12.3126 28.0008 12.6119 28.0002H25.6714V30.3336H12.6119C12.3129 30.3347 12.0167 30.2766 11.7404 30.1625C11.4641 30.0484 11.2131 29.8806 11.002 29.6689L0 18.6668V16.3335Z"
    fill="url(#paint4_linear_46_160)" />
  <path
    d="M0 11.6665L11.002 22.664C11.2127 22.8765 11.4635 23.0451 11.7399 23.16C12.0162 23.2749 12.3126 23.3338 12.6119 23.3333H25.6714V25.6666H12.6119C12.3126 25.6671 12.0162 25.6083 11.7399 25.4934C11.4635 25.3785 11.2127 25.2099 11.002 24.9974L0 13.9999V11.6665Z"
    fill="url(#paint5_linear_46_160)" />
  <rect x="167.833" y="8.15039" width="63.748" height="18.6994" rx="5" fill="#778AF7" />
  <path
    d="M183.827 22.1504H187.509C189.147 22.1504 190.547 21.1144 190.547 19.3364C190.547 17.9924 189.665 17.2924 189.021 17.0404V16.9564C189.763 16.5504 190.211 15.8224 190.211 14.8844C190.211 13.4424 189.119 12.3504 187.229 12.3504H183.827V22.1504ZM185.297 16.4804V13.6384H187.131C188.055 13.6384 188.713 14.1844 188.713 15.0244C188.713 15.8924 188.069 16.4804 187.103 16.4804H185.297ZM185.297 20.8624V17.6564H187.089C188.083 17.6564 188.979 18.1184 188.979 19.2384C188.979 20.3584 188.209 20.8624 187.187 20.8624H185.297ZM195.479 22.3324C197.285 22.3324 198.587 21.3524 198.965 19.9384H197.537C197.243 20.6524 196.445 21.1004 195.521 21.1004C194.177 21.1004 193.323 20.2324 193.267 18.9584H199.035V18.4124C199.035 16.3264 197.733 14.6464 195.451 14.6464C193.365 14.6464 191.797 16.1864 191.797 18.5104C191.797 20.7084 193.281 22.3324 195.479 22.3324ZM193.295 17.8244C193.407 16.6764 194.331 15.8784 195.451 15.8784C196.585 15.8784 197.481 16.5924 197.579 17.8244H193.295ZM203.843 22.1504H205.061V20.9044H204.067C203.297 20.9044 203.003 20.4844 203.003 19.7844V16.0324H205.131V14.8284H203.003V12.7564H201.617V14.3664C201.617 14.6604 201.435 14.8424 201.183 14.8424H200.217V16.0324H201.533V19.8264C201.533 21.3524 202.401 22.1504 203.843 22.1504ZM209.914 22.3324C211.37 22.3324 212.084 21.3944 212.28 21.1144H212.364V22.1504H213.806V14.8284H212.336V15.8924H212.238C212 15.5144 211.244 14.6464 209.844 14.6464C207.8 14.6464 206.358 16.2424 206.358 18.5104C206.358 20.7784 207.814 22.3324 209.914 22.3324ZM210.124 21.0024C208.78 21.0024 207.856 20.0224 207.856 18.4964C207.856 17.0264 208.78 15.9904 210.11 15.9904C211.398 15.9904 212.378 16.9144 212.378 18.4964C212.378 19.8824 211.524 21.0024 210.124 21.0024Z"
    fill="white" />
  <path
    d="M41.6725 18.4762C41.6568 17.2681 41.9563 16.076 42.5427 15.0129C43.1101 13.984 43.9592 13.1304 44.9948 12.5478C46.0801 11.9371 47.3137 11.6246 48.5653 11.6432C50.0748 11.6159 51.5496 12.0872 52.7519 12.9811C53.9309 13.8449 54.7322 15.1137 54.9947 16.5323H52.2495C52.0258 15.7914 51.5499 15.1478 50.9008 14.7084C50.2244 14.2419 49.4136 13.9988 48.5863 14.0145C48.0185 13.9949 47.4534 14.0983 46.9312 14.3175C46.4091 14.5366 45.9429 14.8661 45.566 15.2822C44.7829 16.1659 44.3706 17.307 44.4117 18.4762C44.3702 19.6606 44.7989 20.8148 45.6078 21.6965C46.2841 22.3917 47.1889 22.8315 48.1634 22.9385C49.138 23.0456 50.1198 22.8132 50.9367 22.282C51.585 21.8581 52.0628 21.2268 52.2884 20.4962H55.0096C54.7572 21.9062 53.9606 23.1672 52.7848 24.0181C51.5792 24.9039 50.1053 25.3688 48.5982 25.3384C47.6336 25.3463 46.677 25.1662 45.7843 24.8085C44.9584 24.4804 44.2117 23.9868 43.5923 23.3594C42.9842 22.7281 42.5069 21.9874 42.1868 21.1783C41.8414 20.3178 41.6668 19.4007 41.6725 18.4762Z"
    fill="white" />
  <path
    d="M57.4067 18.475C57.3878 17.2516 57.6957 16.0448 58.2997 14.9755C58.8874 13.9413 59.7591 13.0912 60.8149 12.5223C61.9216 11.9256 63.1669 11.6226 64.4284 11.6431C65.6901 11.6251 66.9343 11.9344 68.0361 12.5399C69.0828 13.1149 69.9465 13.9653 70.5304 14.996C71.1176 16.0692 71.425 17.2691 71.425 18.4882C71.425 19.7072 71.1176 20.9072 70.5304 21.9803C69.9399 23.0136 69.0704 23.8657 68.0182 24.4423C66.9162 25.0472 65.6721 25.3565 64.4106 25.3392C62.3786 25.3392 60.7038 24.6905 59.3861 23.393C58.7321 22.7502 58.2189 21.9821 57.8784 21.1362C57.5379 20.2902 57.3774 19.3845 57.4067 18.475ZM60.1392 18.475C60.0937 19.6641 60.527 20.8228 61.3447 21.699C61.7476 22.0982 62.227 22.4146 62.755 22.6299C63.2831 22.8452 63.8493 22.9551 64.4209 22.9532C64.9924 22.9513 65.5579 22.8376 66.0845 22.6188C66.6111 22.4 67.0882 22.0803 67.4884 21.6785C68.2664 20.7841 68.694 19.6453 68.694 18.4677C68.694 17.29 68.2664 16.1512 67.4884 15.2569C67.0853 14.8575 66.606 14.5405 66.078 14.3242C65.5501 14.1079 64.9839 13.9966 64.4121 13.9966C63.8402 13.9966 63.2741 14.1079 62.7461 14.3242C62.2182 14.5405 61.7389 14.8575 61.3358 15.2569C60.5228 16.133 60.0929 17.2891 60.1392 18.475Z"
    fill="white" />
  <path d="M72.793 11.9766H75.615L79.191 21.8432H79.3788L82.916 11.9766H85.7887L80.7227 25.0062H77.8411L72.793 11.9766Z"
    fill="white" />
  <path
    d="M88.9205 23.4504C87.7443 22.194 87.1562 20.5518 87.1562 18.5236C87.1562 16.4954 87.7443 14.8424 88.9205 13.5645C89.4845 12.9375 90.179 12.4409 90.9556 12.1093C91.7321 11.7777 92.572 11.6192 93.4164 11.6448C93.9744 11.6404 94.5297 11.7215 95.063 11.8851C95.5238 12.0204 95.9583 12.2325 96.348 12.5123C96.6419 12.7243 96.9173 12.9605 97.1713 13.2187C97.3604 13.4131 97.5316 13.624 97.683 13.8488H97.8653V11.973H100.494V25.0126H97.9152V23.1573H97.7418C97.2819 23.8479 96.6533 24.4104 95.9151 24.7919C95.1769 25.1733 94.3535 25.3613 93.5223 25.3379C91.6306 25.3418 90.0967 24.7126 88.9205 23.4504ZM89.8497 18.4855C89.8497 19.8376 90.2211 20.922 90.9641 21.7388C91.3347 22.1448 91.7899 22.4652 92.2979 22.6773C92.8058 22.8895 93.3542 22.9883 93.9045 22.9668C94.4601 22.9903 95.0137 22.8872 95.5233 22.6653C96.0328 22.4433 96.4848 22.1084 96.8449 21.686C97.5913 20.789 97.9816 19.6502 97.9417 18.4855C97.9417 17.1177 97.5624 16.0294 96.8038 15.2205C96.4324 14.8258 95.981 14.5146 95.4796 14.3074C94.9782 14.1002 94.4382 14.0018 93.8957 14.0188C93.3493 14.001 92.8057 14.104 92.3039 14.3204C91.8022 14.5368 91.3547 14.8612 90.9935 15.2703C90.2165 16.1594 89.8086 17.3101 89.8526 18.4884L89.8497 18.4855Z"
    fill="white" />
  <path
    d="M104.599 21.7657V8.59619H107.176V21.6018C107.157 21.8917 107.247 22.1781 107.428 22.4038C107.524 22.5001 107.639 22.5747 107.765 22.6227C107.891 22.6706 108.026 22.6908 108.161 22.6819H108.703V25.0059H107.646C106.68 25.0059 105.928 24.722 105.39 24.1542C104.851 23.5863 104.587 22.7902 104.599 21.7657Z"
    fill="white" />
  <path
    d="M110.756 18.5337C110.732 17.2775 111.035 16.0355 111.637 14.9226C112.192 13.9085 113.032 13.0671 114.06 12.4957C115.108 11.92 116.295 11.6255 117.5 11.6428C118.459 11.6309 119.41 11.8094 120.295 12.1675C121.092 12.4877 121.803 12.9788 122.375 13.6037C122.935 14.2293 123.365 14.9525 123.644 15.7345C123.949 16.5754 124.1 17.461 124.092 18.352V19.3251H113.46C113.465 19.8389 113.574 20.3469 113.782 20.8197C113.99 21.2926 114.292 21.7209 114.672 22.0803C115.069 22.4346 115.534 22.7093 116.042 22.8884C116.549 23.0675 117.088 23.1475 117.627 23.1237C118.43 23.1376 119.222 22.9455 119.923 22.5668C120.558 22.2385 121.057 21.7086 121.337 21.0661H123.965C123.629 22.3274 122.832 23.4281 121.721 24.1642C120.494 24.9703 119.034 25.3806 117.551 25.3366C115.547 25.3366 113.916 24.6977 112.658 23.4197C111.4 22.1418 110.766 20.5131 110.756 18.5337ZM113.512 17.3027H121.385C121.369 16.8252 121.253 16.3559 121.045 15.9227C120.837 15.4896 120.541 15.1016 120.174 14.782C119.414 14.1773 118.459 13.8504 117.475 13.8585C116.491 13.8665 115.542 14.2089 114.793 14.8259C114.048 15.4533 113.588 16.3385 113.512 17.2909V17.3027Z"
    fill="white" />
  <path
    d="M127.17 24.9882V11.9544H129.782V13.6946H129.956C130.287 13.0745 130.801 12.5645 131.431 12.2298C132.178 11.8231 133.025 11.6206 133.88 11.6439C135.373 11.6439 136.565 12.1146 137.455 13.0559C138.362 14.0339 138.842 15.3166 138.794 16.633V25.0058H136.107V17.1134C136.124 16.7099 136.056 16.3072 135.909 15.9297C135.761 15.5521 135.537 15.2074 135.25 14.9162C134.971 14.6396 134.637 14.4219 134.269 14.2767C133.9 14.1315 133.505 14.062 133.107 14.0725C132.673 14.0611 132.241 14.1393 131.84 14.3019C131.439 14.4644 131.078 14.7078 130.781 15.0158C130.474 15.3313 130.234 15.703 130.076 16.1093C129.917 16.5156 129.843 16.9485 129.857 17.383V24.9999L127.17 24.9882Z"
    fill="white" />
  <path
    d="M141.534 14.1192V12.0044H143.274C143.38 12.0081 143.485 11.9897 143.583 11.9504C143.681 11.9111 143.769 11.8517 143.842 11.7763C143.995 11.6058 144.075 11.3835 144.065 11.1562V8.59619H146.56V11.981H150.426V14.1192H146.56V20.7998C146.56 22.1297 147.202 22.7947 148.487 22.7947H150.271V25.0059H148.074C146.755 25.0059 145.73 24.651 144.999 23.9413C144.267 23.2315 143.9 22.2087 143.898 20.873V14.1455L141.534 14.1192Z"
    fill="white" />
  <defs>
    <linearGradient id="paint0_linear_46_160" x1="0" y1="7.00054" x2="25.6685" y2="7.00054"
      gradientUnits="userSpaceOnUse">
      <stop stop-color="#00000B" />
      <stop offset="0.14" stop-color="#2A2634" />
      <stop offset="0.24" stop-color="#6FB3E2" />
      <stop offset="0.77" stop-color="#6D559F" />
      <stop offset="1" stop-color="#18171D" />
    </linearGradient>
    <linearGradient id="paint1_linear_46_160" x1="0" y1="11.667" x2="25.6685" y2="11.667"
      gradientUnits="userSpaceOnUse">
      <stop stop-color="#00000B" />
      <stop offset="0.14" stop-color="#2A2634" />
      <stop offset="0.24" stop-color="#6FB3E2" />
      <stop offset="0.77" stop-color="#6D559F" />
      <stop offset="1" stop-color="#18171D" />
    </linearGradient>
    <linearGradient id="paint2_linear_46_160" x1="0" y1="16.334" x2="25.6685" y2="16.334"
      gradientUnits="userSpaceOnUse">
      <stop stop-color="#00000B" />
      <stop offset="0.14" stop-color="#2A2634" />
      <stop offset="0.24" stop-color="#6FB3E2" />
      <stop offset="0.77" stop-color="#6D559F" />
      <stop offset="1" stop-color="#18171D" />
    </linearGradient>
    <linearGradient id="paint3_linear_46_160" x1="0" y1="28.0015" x2="25.6695" y2="28.0015"
      gradientUnits="userSpaceOnUse">
      <stop stop-color="#231F20" />
      <stop offset="0.05" stop-color="#322A3A" />
      <stop offset="0.14" stop-color="#483A60" />
      <stop offset="0.23" stop-color="#59477E" />
      <stop offset="0.31" stop-color="#655094" />
      <stop offset="0.4" stop-color="#6D55A1" />
      <stop offset="0.48" stop-color="#6F57A5" />
      <stop offset="0.54" stop-color="#6F66AF" />
      <stop offset="0.65" stop-color="#6F8ECA" />
      <stop offset="0.76" stop-color="#6FB8E6" />
      <stop offset="0.99" stop-color="#6FBCE8" />
    </linearGradient>
    <linearGradient id="paint4_linear_46_160" x1="0" y1="23.335" x2="25.6695" y2="23.335"
      gradientUnits="userSpaceOnUse">
      <stop stop-color="#231F20" />
      <stop offset="0.05" stop-color="#322A3A" />
      <stop offset="0.14" stop-color="#483A60" />
      <stop offset="0.23" stop-color="#59477E" />
      <stop offset="0.31" stop-color="#655094" />
      <stop offset="0.4" stop-color="#6D55A1" />
      <stop offset="0.48" stop-color="#6F57A5" />
      <stop offset="0.54" stop-color="#6F66AF" />
      <stop offset="0.65" stop-color="#6F8ECA" />
      <stop offset="0.76" stop-color="#6FB8E6" />
      <stop offset="0.99" stop-color="#6FBCE8" />
    </linearGradient>
    <linearGradient id="paint5_linear_46_160" x1="0" y1="18.668" x2="25.6695" y2="18.668"
      gradientUnits="userSpaceOnUse">
      <stop stop-color="#231F20" />
      <stop offset="0.05" stop-color="#322A3A" />
      <stop offset="0.14" stop-color="#483A60" />
      <stop offset="0.23" stop-color="#59477E" />
      <stop offset="0.31" stop-color="#655094" />
      <stop offset="0.4" stop-color="#6D55A1" />
      <stop offset="0.48" stop-color="#6F57A5" />
      <stop offset="0.54" stop-color="#6F66AF" />
      <stop offset="0.65" stop-color="#6F8ECA" />
      <stop offset="0.76" stop-color="#6FB8E6" />
      <stop offset="0.99" stop-color="#6FBCE8" />
    </linearGradient>
  </defs>
</svg>
