<svg width="16" height="16" viewBox="0 0 16 16" fill="none" xmlns="http://www.w3.org/2000/svg">
<path fill-rule="evenodd" clip-rule="evenodd" d="M2.00658 11.9934C2.17061 12.1575 2.39302 12.2497 2.625 12.25H11.375C11.607 12.2497 11.8294 12.1575 11.9934 11.9934C12.1575 11.8294 12.2497 11.607 12.25 11.375V2.625C12.2497 2.39302 12.1575 2.17061 11.9934 2.00658C11.8294 1.84254 11.607 1.75027 11.375 1.75H2.625C2.39302 1.75027 2.17061 1.84254 2.00658 2.00658C1.84254 2.17061 1.75027 2.39302 1.75 2.625V11.375C1.75027 11.607 1.84254 11.8294 2.00658 11.9934ZM2.625 11.375V2.625H11.375L11.3755 11.375H2.625ZM9.625 7H10.5V3.5H7V4.375H9.625V7ZM3.5 10.5H7V9.625H4.375V7H3.5V10.5Z" fill="#CBCBD7"/>
</svg>
