<svg width="17" height="17" viewBox="0 0 17 17" fill="none" xmlns="http://www.w3.org/2000/svg">
<path fill-rule="evenodd" clip-rule="evenodd" d="M3.1875 4.25V6.90625C3.18648 7.20901 3.12038 7.50802 2.99368 7.783C2.86698 8.05798 2.68264 8.30251 2.45315 8.5C2.68264 8.69749 2.86698 8.94202 2.99368 9.217C3.12038 9.49198 3.18648 9.79099 3.1875 10.0938V12.75H4.78125V13.8125H3.1875C2.90581 13.8122 2.63574 13.7001 2.43656 13.5009C2.23737 13.3018 2.12532 13.0317 2.125 12.75V10.0938C2.12468 9.81206 2.01263 9.54199 1.81344 9.34281C1.61426 9.14362 1.34419 9.03157 1.0625 9.03125V7.96875C1.34419 7.96843 1.61426 7.85638 1.81344 7.65719C2.01263 7.45801 2.12468 7.18794 2.125 6.90625V4.25C2.12532 3.96831 2.23737 3.69824 2.43656 3.49906C2.63574 3.29987 2.90581 3.18782 3.1875 3.1875H4.78125V4.25H3.1875ZM14.875 6.90625V4.25C14.8747 3.96831 14.7626 3.69824 14.5634 3.49906C14.3643 3.29987 14.0942 3.18782 13.8125 3.1875H12.2188V4.25H13.8125V6.90625C13.8135 7.20901 13.8796 7.50802 14.0063 7.783C14.133 8.05798 14.3174 8.30251 14.5468 8.5C14.3174 8.69749 14.133 8.94202 14.0063 9.217C13.8796 9.49198 13.8135 9.79099 13.8125 10.0938V12.75H12.2188V13.8125H13.8125C14.0942 13.8122 14.3643 13.7001 14.5634 13.5009C14.7626 13.3018 14.8747 13.0317 14.875 12.75V10.0938C14.8753 9.81206 14.9874 9.54199 15.1866 9.34281C15.3857 9.14362 15.6558 9.03157 15.9375 9.03125V7.96875C15.6558 7.96843 15.3857 7.85638 15.1866 7.65719C14.9874 7.45801 14.8753 7.18794 14.875 6.90625ZM9.03125 4.78125L8.57597 6.375H9.63847L10.0938 4.78125H11.1562L10.701 6.375H11.6875V7.4375H10.3976L9.79041 9.5625H11.1562V10.625H9.48653L9.03125 12.2188H7.96875L8.42403 10.625H7.36153L6.90625 12.2188H5.84375L6.29903 10.625H5.3125V9.5625H6.60291L7.21012 7.4375H5.84375V6.375H7.51347L7.96875 4.78125H9.03125ZM9.33512 7.4375H8.27262L7.66541 9.5625H8.72791L9.33512 7.4375Z" fill="#CBCBD7"/>
</svg>
