<svg width="16" height="17" viewBox="0 0 16 17" fill="none" xmlns="http://www.w3.org/2000/svg">
<path fill-rule="evenodd" clip-rule="evenodd" d="M3.55544 15.5675C4.87103 16.5015 6.41775 17 8 17V15.7857C6.64379 15.7857 5.31803 15.3584 4.19038 14.5578C3.06273 13.7573 2.18383 12.6194 1.66483 11.2881C1.14583 9.95683 1.01003 8.49192 1.27462 7.07863C1.5392 5.66534 2.19228 4.36715 3.15127 3.34823C4.11026 2.3293 5.33209 1.6354 6.66224 1.35428C7.9924 1.07316 9.37114 1.21744 10.6241 1.76888C11.8771 2.32032 12.948 3.25415 13.7015 4.45228C14.455 5.65041 14.8571 7.05902 14.8571 8.5H16C16 6.81886 15.5308 5.17547 14.6518 3.77766C13.7727 2.37984 12.5233 1.29037 11.0615 0.647028C9.59966 0.00368291 7.99113 -0.164645 6.43928 0.163329C4.88743 0.491303 3.46197 1.30085 2.34315 2.4896C1.22433 3.67834 0.462403 5.1929 0.153721 6.84174C-0.15496 8.49057 0.00346627 10.1996 0.608967 11.7528C1.21447 13.306 2.23985 14.6335 3.55544 15.5675ZM16 11.5357V12.75H14.8571V14.5714H16V15.7857H14.8571V17H13.7143V15.7857H12V17H10.8571V15.7857H9.71428V14.5714H10.8571V12.75H9.71428V11.5357H10.8571V10.3214H12V11.5357H13.7143V10.3214H14.8571V11.5357H16ZM12 14.5714H13.7143V12.75H12V14.5714Z" fill="#CBCBD7"/>
</svg>
