<svg width="17" height="17" viewBox="0 0 17 17" fill="none" xmlns="http://www.w3.org/2000/svg">
<path fill-rule="evenodd" clip-rule="evenodd" d="M1.06248 2.12501L2.12497 1.06252L3.18746 2.12501L2.12497 3.1875L1.06248 2.12501ZM8.50002 1.06252L7.43753 2.12501L8.50002 3.1875L9.56251 2.12501L8.50002 1.06252ZM6.37501 3.4988L15.6263 12.75V12.7498C15.7249 12.8484 15.8032 12.9655 15.8566 13.0944C15.91 13.2233 15.9375 13.3615 15.9375 13.501C15.9375 13.6405 15.91 13.7787 15.8566 13.9076C15.8032 14.0365 15.7249 14.1536 15.6263 14.2522L14.2519 15.6263C14.0525 15.8252 13.7823 15.9369 13.5007 15.9369C13.219 15.9369 12.9489 15.8252 12.7495 15.6263L3.49877 6.37504C3.29984 6.17565 3.18812 5.90549 3.18812 5.62383C3.18812 5.34217 3.29984 5.07201 3.49877 4.87261L4.87258 3.4988C5.07495 3.30557 5.34399 3.19775 5.6238 3.19775C5.9036 3.19775 6.17264 3.30557 6.37501 3.4988ZM5.62377 4.25004L4.25001 5.6238L4.24964 5.62433L6.90589 8.28058L8.28002 6.90629L5.62377 4.25004ZM1.06253 8.5L2.12502 7.43752L3.18751 8.5L2.12502 9.56249L1.06253 8.5Z" fill="#CBCBD7"/>
</svg>
